<svg width="252" height="82" xmlns="http://www.w3.org/2000/svg">
  <g fill="none" fill-rule="evenodd">
    <path
      d="M199 27.7h2.1c5.9 0 9.5 3.5 8.5 9.8-1.1 6.9-6.2 9.8-11.7 9.8h-2.1l3.2-19.6zM93.3 27h.7c2.5 0 5.3.2 4.8 3.4-.5 3-3.1 3.4-5.5 3.4h-1l1-6.8zm-2.1 13.6h.9c3 0 7.6-.4 6.9 3.8-.6 3.9-5.2 3.7-7.9 3.7H90l1.2-7.5zm54.2 14.5h9.1l3.4-21.5 13.4 21.5h9.1L186 20h-9.1l-3.4 21.5L160.1 20H151l-5.6 35.1zM137 20l-3 18.5c-.7 4.6-1.8 9.6-7.7 9.6s-5.4-5-4.7-9.6l2.9-18.5h-9.1l-3.1 19.8c-.7 4.5-1.2 9 1.7 12.4 2.5 2.9 6.9 3.9 11 3.9s8.9-1 12.3-3.9c4-3.4 4.9-7.9 5.6-12.4L146 20h-9zm48.5 35.1h13c9.7 0 19.1-7.7 20.6-17.6 1.6-9.9-5.3-17.6-15.1-17.6h-13l-5.5 35.2zm-91.7 0c6.4 0 13.1-2.4 14.3-9.8.8-4.9-.8-8.3-5.8-9 3.1-1.5 4.5-4.1 5-7.3 1.1-6.7-2.7-9.1-9-9.1h-13L79.7 55h14.1v.1zM32 28.8c0-8.5 6.9-15.4 15.4-15.4s15.4 6.9 15.4 15.4-6.9 15.4-15.4 15.4C38.9 44.1 32 37.3 32 28.8z"
      fill="#FFF"
      fill-rule="nonzero"
    />
    <path
      d="M32 28.8c0-8.5 6.9-15.4 15.4-15.4s15.4 6.9 15.4 15.4-6.9 15.4-15.4 15.4C38.9 44.1 32 37.3 32 28.8z"
      stroke="#76B82A"
      stroke-width=".283"
    />
    <path
      d="M36.8 60.6v-6.2c-10.1-4.2-17.2-14-17.2-25.6C19.6 14 31.1 1.9 45.7 1.1v9c-9.6.9-17.1 8.9-17.1 18.7 0 8.8 6 16.1 14.1 18.2 0 0 3 .9 3 4.4V62h-44c-.9 0-.9-1.3 0-1.3h35.1v-.1zm20.9 0h192.8c.9 0 .9 1.3 0 1.3H48.7V51.3c0-3.5 3-4.4 3-4.4 8.1-2.1 14.1-9.4 14.1-18.2 0-9.8-7.5-17.8-17.1-18.7V1c14.6.9 26.2 13 26.2 27.8 0 11.6-7.1 21.4-17.2 25.6v6.2z"
      stroke="#FFF"
      stroke-width=".2"
      fill="#FFF"
      fill-rule="nonzero"
    />
    <path
      fill="#FFF"
      fill-rule="nonzero"
      d="M23.4 72.2v-.7h-4.6V81H20v-4.6h3.2v-.8H20v-3.4h3.4"
    />
    <path
      d="m30.7 81-.5-2.4c-.2-1.2-.4-2.1-1.9-2.3.7-.1 2.1-.7 2.1-2.3 0-2-1.7-2.5-3.3-2.5H25V81h1.1v-4.3h.5c1.7 0 2.1.5 2.4 2.4l.4 1.9h1.3zm-1.5-7c0 1.6-1.5 1.9-2.4 1.9h-.6v-3.7h1c.8 0 2 .2 2 1.8z"
      fill="#FFF"
    />
    <path
      d="M34.1 81v-9.5h-1.2V81h1.2m7.5 0v-.9H38v-3.7h3.3v-.8H38v-3.4h3.4v-.7h-4.5V81h4.7m8.4 0v-9.5h-1v8h-.1l-3.9-8h-1.4V81h1.1v-8.1l3.9 8.1H50"
      fill="#FFF"
      fill-rule="nonzero"
    />
    <path
      d="M59 76.2c0-3.6-1.6-4.7-4.6-4.7h-1.7V81h1.6c2.9 0 4.7-.8 4.7-4.8zm-1.2.1c0 2.7-.8 3.8-3.2 3.8h-.7v-7.9h.7c2.1 0 3.2.8 3.2 4.1zm8.5 2.1c0-1.2-.5-1.7-1.5-2.4-1.3-.8-3-1.2-3-2.6 0-.8.7-1.4 1.7-1.4.9 0 1.8.4 2.3.6v-1.1c-.4-.1-1.3-.2-2-.2-1.8 0-3 .9-3 2.4 0 1.3.7 1.9 1.6 2.4 1.4.8 2.8 1.2 2.8 2.6 0 1.1-.8 1.7-2 1.7-.9 0-1.9-.4-2.4-.7v1.2c.2.1 1.1.3 2.2.3 1.8-.1 3.3-.9 3.3-2.8zm13.2-2.1c0-2.6-.9-5-3.5-5s-3.6 2.4-3.6 5c0 2.5 1 4.8 3.6 4.8s3.5-2.3 3.5-4.8zm-1.2.1c0 1.6-.4 4-2.3 4s-2.3-2.4-2.3-4c0-2 .3-4.3 2.3-4.3 1.9-.1 2.3 2.2 2.3 4.3z"
      fill="#FFF"
    />
    <path
      d="M86.4 72.2v-.7h-4.6V81h1.1v-4.6h3.3v-.8h-3.3v-3.4h3.5m10.7 0v-.7h-5.6v.7h2.2V81h1.2v-8.8h2.2m7.6 8.8v-9.5h-1.1v4.1h-3.8v-4.1h-1.1V81h1.1v-4.6h3.8V81h1.1m7.5 0v-.9h-3.6v-3.7h3.3v-.8h-3.3v-3.4h3.5v-.7h-4.6V81h4.7m11.4 0v-.9H120v-3.7h3.3v-.8H120v-3.4h3.5v-.7h-4.6V81h4.7"
      fill="#FFF"
      fill-rule="nonzero"
    />
    <path
      d="m132.3 81-3.2-9.5h-1.3l-3.2 9.5h1l1-3h3.5l1 3h1.2zm-2.4-3.8h-3l1.5-4.7 1.5 4.7zm9.7 3.8-.5-2.4c-.2-1.2-.4-2.1-1.9-2.3.7-.1 2.1-.7 2.1-2.3 0-2-1.7-2.5-3.3-2.5h-2V81h1.1v-4.3h.5c1.7 0 2.1.5 2.4 2.4l.4 1.9h1.2zm-1.4-7c0 1.6-1.5 1.9-2.4 1.9h-.6v-3.7h1c.7 0 2 .2 2 1.8z"
      fill="#FFF"
    />
    <path
      d="M146.2 72.2v-.7h-5.6v.7h2.2V81h1.2v-8.8h2.2zm7.7 8.8v-9.5h-1.2v4.1H149v-4.1h-1.2V81h1.2v-4.6h3.7V81h1.2zm13.7-7c0-.9-.6-2.7-3.2-2.7-2.8 0-3.6 2.3-3.6 4.8 0 2.9 1.1 5 3.9 5 1.2 0 2.3-.4 2.9-.9v-4.6h-3.3v.8h2.2v3.4c-.3.2-.7.6-1.6.6-2.3 0-2.7-2.3-2.7-4.4 0-1.7.4-4 2.4-4 1.4 0 1.9 1 1.9 2h1.1zm7.2 7v-.9h-3.6v-3.7h3.3v-.8h-3.3v-3.4h3.5v-.7h-4.6V81h4.7z"
      fill="#FFF"
      fill-rule="nonzero"
    />
    <path
      d="m182.5 81-.5-2.4c-.2-1.2-.4-2.1-1.9-2.3.7-.1 2.1-.7 2.1-2.3 0-2-1.7-2.5-3.3-2.5h-2.1V81h1.1v-4.3h.5c1.7 0 2.1.5 2.4 2.4l.4 1.9h1.3zm-1.5-7c0 1.6-1.5 1.9-2.4 1.9h-.6v-3.7h1c.8 0 2 .2 2 1.8z"
      fill="#FFF"
    />
    <path
      fill="#FFF"
      fill-rule="nonzero"
      d="M193.3 81v-9.5h-1.6l-2.7 8.1-2.7-8.1h-1.6V81h.9v-8.5l2.8 8.5h1l2.8-8.6V81h1.1"
    />
    <path
      d="m202.6 81-3.2-9.5h-1.3L195 81h1l1-3h3.5l1 3h1.1zm-2.4-3.8h-3l1.5-4.7 1.5 4.7z"
      fill="#FFF"
    />
    <path
      d="M210.7 81v-9.5h-1v8h-.1l-3.9-8h-1.4V81h1.1v-8.1l3.9 8.1h1.4m8.5-9.5H218l-2.3 4-2.2-4h-1.3l2.9 5.1V81h1.1v-4.4l3-5.1"
      fill="#FFF"
      fill-rule="nonzero"
    />
  </g>
</svg>
