<?xml version="1.0" encoding="UTF-8"?>
<svg width="252px" height="82px" viewBox="0 0 252 82" version="1.1" xmlns="http://www.w3.org/2000/svg" xmlns:xlink="http://www.w3.org/1999/xlink">
    <!-- Generator: Sketch 55.2 (78181) - https://sketchapp.com -->
    <title>gruenes-band-europa</title>
    <desc>Created with Sketch.</desc>
    <g id="Page-2" stroke="none" stroke-width="1" fill="none" fill-rule="evenodd">
        <g id="gruenes-band-europa" transform="translate(1.000000, 1.000000)">
            <path d="M198,26.7 L200.1,26.7 C206,26.7 209.6,30.2 208.6,36.5 C207.5,43.4 202.4,46.3 196.9,46.3 L194.8,46.3 L198,26.7 Z M92.3,26 L93,26 C95.5,26 98.3,26.2 97.8,29.4 C97.3,32.4 94.7,32.8 92.3,32.8 L91.3,32.8 L92.3,26 L92.3,26 Z M90.2,39.6 L91.1,39.6 C94.1,39.6 98.7,39.2 98,43.4 C97.4,47.3 92.8,47.1 90.1,47.1 L89,47.1 L90.2,39.6 Z M144.4,54.1 L153.5,54.1 L156.9,32.6 L170.3,54.1 L179.4,54.1 L185,19 L175.9,19 L172.5,40.5 L159.1,19 L150,19 L144.4,54.1 Z M136,19 L133,37.5 C132.3,42.1 131.2,47.1 125.3,47.1 C119.4,47.1 119.9,42.1 120.6,37.5 L123.5,19 L114.4,19 L111.3,38.8 C110.6,43.3 110.1,47.8 113,51.2 C115.5,54.1 119.9,55.1 124,55.1 C128.1,55.1 132.9,54.1 136.3,51.2 C140.3,47.8 141.2,43.3 141.9,38.8 L145,19 L136,19 Z M184.5,54.1 L197.5,54.1 C207.2,54.1 216.6,46.4 218.1,36.5 C219.7,26.6 212.8,18.9 203,18.9 L190,18.9 L184.5,54.1 Z M92.8,54.1 C99.2,54.1 105.9,51.7 107.1,44.3 C107.9,39.4 106.3,36 101.3,35.3 C104.4,33.8 105.8,31.2 106.3,28 C107.4,21.3 103.6,18.9 97.3,18.9 L84.3,18.9 L78.7,54 L92.8,54 L92.8,54.1 Z" id="Shape" fill="#FFFFFF" fill-rule="nonzero"></path>
            <path d="M31,27.8 C31,19.3 37.9,12.4 46.4,12.4 C54.9,12.4 61.8,19.3 61.8,27.8 C61.8,36.3 54.9,43.2 46.4,43.2 C37.9,43.1 31,36.3 31,27.8 Z" id="Path" fill="#FFFFFF" fill-rule="nonzero"></path>
            <path d="M31,27.8 C31,19.3 37.9,12.4 46.4,12.4 C54.9,12.4 61.8,19.3 61.8,27.8 C61.8,36.3 54.9,43.2 46.4,43.2 C37.9,43.1 31,36.3 31,27.8 Z" id="Path" stroke="#76B82A" stroke-width="0.2835"></path>
            <path d="M35.8,59.6 L35.8,53.4 C25.7,49.2 18.6,39.4 18.6,27.8 C18.6,13 30.1,0.9 44.7,0.1 L44.7,9.1 C35.1,10 27.6,18 27.6,27.8 C27.6,36.6 33.6,43.9 41.7,46 C41.7,46 44.7,46.9 44.7,50.4 L44.7,61 L0.7,61 C-0.2,61 -0.2,59.7 0.7,59.7 L35.8,59.7 L35.8,59.6 Z M56.7,59.6 L249.5,59.6 C250.4,59.6 250.4,60.9 249.5,60.9 L47.7,60.9 L47.7,50.3 C47.7,46.8 50.7,45.9 50.7,45.9 C58.8,43.8 64.8,36.5 64.8,27.7 C64.8,17.9 57.3,9.9 47.7,9 L47.7,0 C62.3,0.9 73.9,13 73.9,27.8 C73.9,39.4 66.8,49.2 56.7,53.4 L56.7,59.6 Z" id="Shape" stroke="#FFFFFF" stroke-width="0.2" fill="#FFFFFF" fill-rule="nonzero"></path>
            <polyline id="Path" fill="#FFFFFF" fill-rule="nonzero" points="22.4 71.2 22.4 70.5 17.8 70.5 17.8 80 19 80 19 75.4 22.2 75.4 22.2 74.6 19 74.6 19 71.2 22.4 71.2"></polyline>
            <path d="M29.7,80 L29.2,77.6 C29,76.4 28.8,75.5 27.3,75.3 C28,75.2 29.4,74.6 29.4,73 C29.4,71 27.7,70.5 26.1,70.5 L24,70.5 L24,80 L25.1,80 L25.1,75.7 L25.6,75.7 C27.3,75.7 27.7,76.2 28,78.1 L28.4,80 L29.7,80 L29.7,80 Z M28.2,73 C28.2,74.6 26.7,74.9 25.8,74.9 L25.2,74.9 L25.2,71.2 L26.2,71.2 C27,71.2 28.2,71.4 28.2,73 Z" id="Shape" fill="#FFFFFF"></path>
            <path d="M33.1,80 L33.1,70.5 L31.9,70.5 L31.9,80 L33.1,80 M40.6,80 L40.6,79.1 L37,79.1 L37,75.4 L40.3,75.4 L40.3,74.6 L37,74.6 L37,71.2 L40.4,71.2 L40.4,70.5 L35.9,70.5 L35.9,80 L40.6,80 M49,80 L49,70.5 L48,70.5 L48,78.5 L47.9,78.5 L44,70.5 L42.6,70.5 L42.6,80 L43.7,80 L43.7,71.9 L47.6,80 L49,80" id="Shape" fill="#FFFFFF" fill-rule="nonzero"></path>
            <path d="M58,75.2 C58,71.6 56.4,70.5 53.4,70.5 L51.7,70.5 L51.7,80 L53.3,80 C56.2,80 58,79.2 58,75.2 Z M56.8,75.3 C56.8,78 56,79.1 53.6,79.1 L52.9,79.1 L52.9,71.2 L53.6,71.2 C55.7,71.2 56.8,72 56.8,75.3 L56.8,75.3 Z M65.3,77.4 C65.3,76.2 64.8,75.7 63.8,75 C62.5,74.2 60.8,73.8 60.8,72.4 C60.8,71.6 61.5,71 62.5,71 C63.4,71 64.3,71.4 64.8,71.6 L64.8,70.5 C64.4,70.4 63.5,70.3 62.8,70.3 C61,70.3 59.8,71.2 59.8,72.7 C59.8,74 60.5,74.6 61.4,75.1 C62.8,75.9 64.2,76.3 64.2,77.7 C64.2,78.8 63.4,79.4 62.2,79.4 C61.3,79.4 60.3,79 59.8,78.7 L59.8,79.9 C60,80 60.9,80.2 62,80.2 C63.8,80.1 65.3,79.3 65.3,77.4 L65.3,77.4 Z M78.5,75.3 C78.5,72.7 77.6,70.3 75,70.3 C72.4,70.3 71.4,72.7 71.4,75.3 C71.4,77.8 72.4,80.1 75,80.1 C77.6,80.1 78.5,77.8 78.5,75.3 Z M77.3,75.4 C77.3,77 76.9,79.4 75,79.4 C73.1,79.4 72.7,77 72.7,75.4 C72.7,73.4 73,71.1 75,71.1 C76.9,71 77.3,73.3 77.3,75.4 Z" id="Shape" fill="#FFFFFF"></path>
            <path d="M85.4,71.2 L85.4,70.5 L80.8,70.5 L80.8,80 L81.9,80 L81.9,75.4 L85.2,75.4 L85.2,74.6 L81.9,74.6 L81.9,71.2 L85.4,71.2 M96.1,71.2 L96.1,70.5 L90.5,70.5 L90.5,71.2 L92.7,71.2 L92.7,80 L93.9,80 L93.9,71.2 L96.1,71.2 M103.7,80 L103.7,70.5 L102.6,70.5 L102.6,74.6 L98.8,74.6 L98.8,70.5 L97.7,70.5 L97.7,80 L98.8,80 L98.8,75.4 L102.6,75.4 L102.6,80 L103.7,80 M111.2,80 L111.2,79.1 L107.6,79.1 L107.6,75.4 L110.9,75.4 L110.9,74.6 L107.6,74.6 L107.6,71.2 L111.1,71.2 L111.1,70.5 L106.5,70.5 L106.5,80 L111.2,80 M122.6,80 L122.6,79.1 L119,79.1 L119,75.4 L122.3,75.4 L122.3,74.6 L119,74.6 L119,71.2 L122.5,71.2 L122.5,70.5 L117.9,70.5 L117.9,80 L122.6,80" id="Shape" fill="#FFFFFF" fill-rule="nonzero"></path>
            <path d="M131.3,80 L128.1,70.5 L126.8,70.5 L123.6,80 L124.6,80 L125.6,77 L129.1,77 L130.1,80 L131.3,80 Z M128.9,76.2 L125.9,76.2 L127.4,71.5 L128.9,76.2 Z M138.6,80 L138.1,77.6 C137.9,76.4 137.7,75.5 136.2,75.3 C136.9,75.2 138.3,74.6 138.3,73 C138.3,71 136.6,70.5 135,70.5 L133,70.5 L133,80 L134.1,80 L134.1,75.7 L134.6,75.7 C136.3,75.7 136.7,76.2 137,78.1 L137.4,80 L138.6,80 L138.6,80 Z M137.2,73 C137.2,74.6 135.7,74.9 134.8,74.9 L134.2,74.9 L134.2,71.2 L135.2,71.2 C135.9,71.2 137.2,71.4 137.2,73 Z" id="Shape" fill="#FFFFFF"></path>
            <path d="M145.2,71.2 L145.2,70.5 L139.6,70.5 L139.6,71.2 L141.8,71.2 L141.8,80 L143,80 L143,71.2 L145.2,71.2 L145.2,71.2 Z M152.9,80 L152.9,70.5 L151.7,70.5 L151.7,74.6 L148,74.6 L148,70.5 L146.8,70.5 L146.8,80 L148,80 L148,75.4 L151.7,75.4 L151.7,80 L152.9,80 L152.9,80 Z M166.6,73 C166.6,72.1 166,70.3 163.4,70.3 C160.6,70.3 159.8,72.6 159.8,75.1 C159.8,78 160.9,80.1 163.7,80.1 C164.9,80.1 166,79.7 166.6,79.2 L166.6,74.6 L163.3,74.6 L163.3,75.4 L165.5,75.4 L165.5,78.8 C165.2,79 164.8,79.4 163.9,79.4 C161.6,79.4 161.2,77.1 161.2,75 C161.2,73.3 161.6,71 163.6,71 C165,71 165.5,72 165.5,73 L166.6,73 L166.6,73 Z M173.8,80 L173.8,79.1 L170.2,79.1 L170.2,75.4 L173.5,75.4 L173.5,74.6 L170.2,74.6 L170.2,71.2 L173.7,71.2 L173.7,70.5 L169.1,70.5 L169.1,80 L173.8,80 L173.8,80 Z" id="Shape" fill="#FFFFFF" fill-rule="nonzero"></path>
            <path d="M181.5,80 L181,77.6 C180.8,76.4 180.6,75.5 179.1,75.3 C179.8,75.2 181.2,74.6 181.2,73 C181.2,71 179.5,70.5 177.9,70.5 L175.8,70.5 L175.8,80 L176.9,80 L176.9,75.7 L177.4,75.7 C179.1,75.7 179.5,76.2 179.8,78.1 L180.2,80 L181.5,80 L181.5,80 Z M180,73 C180,74.6 178.5,74.9 177.6,74.9 L177,74.9 L177,71.2 L178,71.2 C178.8,71.2 180,71.4 180,73 Z" id="Shape" fill="#FFFFFF"></path>
            <polyline id="Path" fill="#FFFFFF" fill-rule="nonzero" points="192.3 80 192.3 70.5 190.7 70.5 188 78.6 185.3 70.5 183.7 70.5 183.7 80 184.6 80 184.6 71.5 187.4 80 188.4 80 191.2 71.4 191.2 80 192.3 80"></polyline>
            <path d="M201.6,80 L198.4,70.5 L197.1,70.5 L194,80 L195,80 L196,77 L199.5,77 L200.5,80 L201.6,80 Z M199.2,76.2 L196.2,76.2 L197.7,71.5 L199.2,76.2 Z" id="Shape" fill="#FFFFFF"></path>
            <path d="M209.7,80 L209.7,70.5 L208.7,70.5 L208.7,78.5 L208.6,78.5 L204.7,70.5 L203.3,70.5 L203.3,80 L204.4,80 L204.4,71.9 L208.3,80 L209.7,80 M218.2,70.5 L217,70.5 L214.7,74.5 L212.5,70.5 L211.2,70.5 L214.1,75.6 L214.1,80 L215.2,80 L215.2,75.6 L218.2,70.5" id="Shape" fill="#FFFFFF" fill-rule="nonzero"></path>
        </g>
    </g>
</svg>