<?xml version="1.0" encoding="UTF-8"?>
<svg viewBox="0 0 887 517" version="1.1" xmlns="http://www.w3.org/2000/svg" xmlns:xlink="http://www.w3.org/1999/xlink">
    <!-- Generator: Sketch 55.2 (78181) - https://sketchapp.com -->
    <title>Hanns-Seidel-Stiftung-Logo</title>
    <desc>Created with Sketch.</desc>
    <g id="Page-1" stroke="none" stroke-width="1" fill="none" fill-rule="evenodd">
        <g id="Hanns-Seidel-Stiftung-Logo" fill="#FFFFFF" fill-rule="nonzero">
            <g id="g85450" transform="translate(306.173684, 17.058562)">
                <path d="M41.9499,63.9653 L41.9499,103.54458 C41.9499,112.90482 47.0666,118.84172 55.9587,118.84172 L55.9587,122.61371 L0.7502,122.61371 L0.7502,118.84172 C9.6423,118.84172 14.7624,112.90482 14.7624,103.54458 L14.7624,19.1596 C14.7624,9.7994 9.6423,3.8625 0.7502,3.8625 L0.7502,0.0905 L55.9587,0.0905 L55.9587,3.8625 C47.0666,3.8625 41.9499,9.7994 41.9499,19.1596 L41.9499,55.1429 L82.9703,55.1429 L82.9703,19.1596 C82.9703,9.7994 77.8402,3.8625 68.9482,3.8625 L68.9482,0.0905 L124.1533,0.0905 L124.1533,3.8625 C115.2745,3.8625 110.1445,9.7994 110.1445,19.1596 L110.1445,103.54458 C110.1445,112.90482 115.2745,118.84172 124.1533,118.84172 L124.1533,122.61371 L68.9482,122.61371 L68.9482,118.84172 C77.8402,118.84172 82.9703,112.90482 82.9703,103.54458 L82.9703,63.9653 L41.9499,63.9653 Z" id="path85346"></path>
                <path d="M202.2395,111.11512 C202.2395,113.99392 205.8355,116.15219 210.6135,112.3802 L211.9849,116.33813 C205.1548,122.99223 197.6241,126.41226 191.2987,125.68509 C183.9539,124.78526 181.5633,118.855 178.6579,114.35916 C171.9938,119.93414 161.9097,127.66405 148.565,125.50911 C137.4615,123.70612 129.2634,110.74988 135.7515,97.98289 C139.3343,90.96686 146.0116,86.64368 149.083,84.66472 C154.037,81.60662 166.5218,77.1075 178.9999,73.3255 L178.9999,58.2143 C178.9999,52.2774 178.1432,47.4263 173.3519,45.0854 C168.3978,42.5652 161.2158,43.2791 157.633,45.0854 C154.037,46.8884 153.1804,48.8541 155.5843,53.0013 C157.9717,57.3145 161.0531,59.8314 158.1477,65.5956 C154.7277,72.6116 143.9496,73.5115 139.5102,67.2126 C136.6082,63.2514 135.4128,54.0804 142.7576,46.8884 C157.7957,32.4911 185.488,38.0661 193.6994,44.5442 C200.0247,49.5812 202.2395,56.0594 202.2395,61.2724 L202.2395,111.11512 L202.2395,111.11512 Z M178.9999,79.0897 C176.0945,79.8036 164.9778,81.60662 159.3431,93.29779 C156.2617,99.59993 156.9424,111.11512 164.4731,113.09409 C168.2351,113.99392 175.4039,111.2911 178.9999,105.71281 L178.9999,79.0897 Z" id="path85348"></path>
                <path d="M250.0866,109.85336 C250.0866,118.31045 254.3633,118.85832 257.4446,118.85832 L257.4446,122.63031 L219.4923,122.63031 L219.4923,118.85832 C222.5703,118.85832 226.847,118.31045 226.847,109.85336 L226.847,52.6427 C226.847,44.1856 222.5703,43.6477 219.4923,43.6477 L219.4923,39.8624 L250.0866,39.8624 L250.0866,53.0046 C251.6206,48.5088 254.3633,45.6266 256.9266,43.1064 C265.9814,34.2874 296.755,33.7495 296.755,62.3516 L296.755,109.85336 C296.755,118.31045 301.0284,118.85832 304.0997,118.85832 L304.0997,122.63031 L266.1574,122.63031 L266.1574,118.85832 C269.2387,118.85832 273.5021,118.31045 273.5021,109.85336 L273.5021,61.0998 C273.5021,48.1435 263.9327,48.6847 259.656,50.1225 C255.3827,51.5635 251.7966,55.7008 250.0866,60.0206 L250.0866,109.85336 L250.0866,109.85336 Z" id="path85350"></path>
                <path d="M345.1168,109.85336 C345.1168,118.31045 349.3902,118.85832 352.4582,118.85832 L352.4582,122.63031 L314.5192,122.63031 L314.5192,118.85832 C317.6005,118.85832 321.8639,118.31045 321.8639,109.85336 L321.8639,52.6427 C321.8639,44.1856 317.6005,43.6477 314.5192,43.6477 L314.5192,39.8624 L345.1168,39.8624 L345.1168,53.0046 C346.6508,48.5088 349.3902,45.6266 351.9568,43.1064 C361.0116,34.2874 391.7819,33.7495 391.7819,62.3516 L391.7819,109.85336 C391.7819,118.31045 396.0453,118.85832 399.1266,118.85832 L399.1266,122.63031 L361.1876,122.63031 L361.1876,118.85832 C364.2556,118.85832 368.5323,118.31045 368.5323,109.85336 L368.5323,61.0998 C368.5323,48.1435 358.9596,48.6847 354.6862,50.1225 C350.4095,51.5635 346.8268,55.7008 345.1168,60.0206 L345.1168,109.85336 L345.1168,109.85336 Z" id="path85352"></path>
                <path d="M458.9405,63.9653 L454.3251,52.6261 C452.2764,47.765 442.7037,42.7279 437.059,43.4551 C421.5029,45.4341 426.1182,61.2591 433.815,65.0411 C439.9644,68.0992 445.9511,71.1573 452.1005,74.2154 C467.3146,81.95858 468.334,101.92754 463.7319,111.82569 C457.4065,125.49583 440.8177,128.192 427.1509,123.87878 C423.9035,122.78969 415.3535,118.29385 413.3048,125.67181 L410.0607,125.67181 L409.7088,95.80138 L413.4675,96.16663 C414.5001,99.22141 420.8255,124.59599 440.479,119.73491 C451.5825,117.03874 455.0058,104.25847 443.7231,96.70453 C437.235,92.39464 429.1996,90.58833 423.2129,85.91651 C395.6966,64.1413 415.8681,38.418 434.8343,37.6909 C440.1403,37.5149 447.9998,38.77 452.9538,40.749 C455.1818,41.6488 458.7645,42.014 459.4552,37.6909 L462.5232,37.6909 L462.6992,63.9653 L458.9405,63.9653 L458.9405,63.9653 Z" id="path85354"></path>
                <path d="M74.7688,207.50668 C70.6681,197.9605 64.0041,174.39221 41.1032,174.04025 C26.0518,173.85099 21.2704,187.16916 23.4984,196.5294 C25.5471,205.52772 32.8918,209.47237 45.2039,215.59853 C53.9167,219.91174 63.6654,223.33177 70.4922,229.99583 C92.3737,251.04392 83.3189,287.20653 56.1447,293.31941 C39.0412,297.28066 37.3445,295.29837 15.8016,289.89938 C7.7662,288.10636 8.2809,291.89163 7.7662,295.29837 L3.8415,295.29837 L3.6655,251.58515 L7.5903,251.58515 L11.1863,264.17615 C13.235,271.19218 18.531,277.84629 23.837,283.0693 C36.3118,295.29837 53.7407,287.92042 56.4833,285.76547 C63.8281,280.01452 70.1535,262.19719 52.2066,252.48498 C44.8619,248.52705 37.6832,244.56912 30.3251,240.60787 C-8.3045,219.55978 6.2322,184.46634 17.5117,175.83327 C34.9405,162.52506 53.402,170.25498 64.1668,173.675 C72.8928,176.1952 72.2022,171.69604 74.2542,168.10003 L78.0129,168.10003 L78.3648,207.31742 L74.7688,207.50668 L74.7688,207.50668 Z" id="path85356"></path>
                <path d="M162.2617,274.08094 C157.6463,282.17611 152.3536,291.1711 138.6702,294.2292 C133.0388,295.49428 121.922,297.47324 109.9619,288.113 C94.9204,276.60113 85.5137,233.59848 114.0626,212.55039 C128.9248,201.57311 144.8329,209.84425 148.9336,213.80218 C162.6037,226.75843 161.5843,236.65658 161.923,248.88566 L118.6746,248.88566 C118.6746,251.94376 118.502,259.68364 123.466,270.8369 C129.4427,284.517 139.3641,283.25192 143.9762,281.81086 C151.6629,279.47993 157.4703,273.71902 159.0177,271.37481 L162.2617,274.08094 L162.2617,274.08094 Z M141.7515,241.69364 C141.7515,232.87131 142.4322,224.95545 139.8655,218.48728 C137.6508,212.89903 128.4234,209.30302 122.7754,218.66327 C120.046,223.33841 119.0167,231.08161 118.6746,241.69364 L141.7515,241.69364 L141.7515,241.69364 Z" id="path85358"></path>
                <path d="M202.4055,279.46001 C202.4055,287.90714 206.6822,288.45833 209.7502,288.45833 L209.7502,292.23031 L171.8079,292.23031 L171.8079,288.45833 C174.8892,288.45833 179.1526,287.90714 179.1526,279.46001 L179.1526,222.23935 C179.1526,213.78226 174.8892,213.24435 171.8079,213.24435 L171.8079,209.45908 L202.4055,209.45908 L202.4055,279.46001 L202.4055,279.46001 Z M190.784,168.08675 C197.7901,168.08675 203.4248,174.02697 203.4248,181.39496 C203.4248,188.77292 197.7901,194.71313 190.784,194.71313 C183.768,194.71313 178.1333,188.77292 178.1333,181.39496 C178.1333,174.02697 183.768,168.08675 190.784,168.08675 Z" id="path85360"></path>
                <path d="M295.3438,276.9365 C295.3438,285.74555 299.7965,284.30449 304.0699,285.74555 L304.0699,289.70348 C295.0051,290.06873 290.3898,290.60663 272.1042,295.27845 L272.1042,282.51147 C268.3422,287.01063 257.9194,301.93256 239.458,292.39966 C208.1697,276.20933 217.4137,214.50279 246.6367,207.66274 C260.6488,205.50779 265.0982,211.62067 272.1042,219.17461 L272.1042,184.80835 C272.1042,176.35126 267.8276,175.81335 264.7462,175.81335 L264.7462,171.67612 L295.3438,171.67612 L295.3438,276.9365 L295.3438,276.9365 Z M272.1042,228.17293 C269.8796,224.21167 265.6029,211.9826 253.3041,219.71584 C240.6533,227.6317 243.0407,272.7893 248.6887,280.17058 C254.6754,288.08644 267.3129,285.93149 272.1042,272.43734 L272.1042,228.17293 L272.1042,228.17293 Z" id="path85362"></path>
                <path d="M380.612,274.08094 C376.0099,282.17611 370.7039,291.1711 357.0337,294.2292 C351.3857,295.49428 340.2823,297.47324 328.3122,288.113 C313.2707,276.60113 303.8773,233.59848 332.4229,212.55039 C347.2883,201.57311 363.1831,209.84425 367.2839,213.80218 C380.964,226.75843 379.9346,236.65658 380.2733,248.88566 L337.0382,248.88566 C337.0382,251.94376 336.8622,259.68364 341.8163,270.8369 C347.803,284.517 357.7111,283.25192 362.3265,281.81086 C370.0232,279.47993 375.8339,273.71902 377.3679,271.37481 L380.612,274.08094 L380.612,274.08094 Z M360.1018,241.69364 C360.1018,232.87131 360.7925,224.95545 358.2291,218.48728 C356.0011,212.89903 346.7704,209.30302 341.1389,218.66327 C338.3963,223.33841 337.3769,231.08161 337.0382,241.69364 L360.1018,241.69364 L360.1018,241.69364 Z" id="path85364"></path>
                <path d="M420.4237,279.46001 C420.4237,287.90714 424.6971,288.45833 427.7784,288.45833 L427.7784,292.23031 L389.8261,292.23031 L389.8261,288.45833 C392.9075,288.45833 397.1808,287.90714 397.1808,279.46001 L397.1808,184.81499 C397.1808,176.3579 392.9075,175.81999 389.8261,175.81999 L389.8261,171.68276 L420.4237,171.68276 L420.4237,279.46001 L420.4237,279.46001 Z" id="path85366"></path>
                <path d="M74.7688,377.11333 C70.6681,367.56714 64.0041,343.99886 41.1032,343.64689 C26.0518,343.46095 21.2704,356.77912 23.4984,366.13604 C25.5471,375.13436 32.8918,379.08233 45.2039,385.20849 C53.9167,389.52835 63.6654,392.93841 70.4922,399.60248 C92.3737,420.65389 83.3189,456.81318 56.1447,462.92605 C39.0412,466.88731 37.3445,464.90834 15.8016,459.51931 C7.7662,457.71633 8.2809,461.48832 7.7662,464.90834 L3.8415,464.90834 L3.6655,421.1918 L7.5903,421.1918 L11.1863,433.7828 C13.235,440.79883 18.531,447.45293 23.837,452.67926 C36.3118,464.90834 53.7407,457.54035 56.4833,455.37212 C63.8281,449.62116 70.1535,431.80383 52.2066,422.09495 C44.8619,418.1337 37.6832,414.17577 30.3251,410.21451 C-8.3045,389.16642 6.2322,354.08295 17.5117,345.43992 C34.9405,332.13171 53.402,339.86494 64.1668,343.28497 C72.8928,345.80184 72.2022,341.306 74.2542,337.70668 L78.0129,337.70668 L78.3648,376.92406 L74.7688,377.11333 L74.7688,377.11333 Z" id="path85368"></path>
                <path d="M146.0249,446.01188 C142.6049,452.84196 138.5041,461.83696 124.8241,464.89506 C113.5413,467.41193 103.2945,458.60288 103.2945,450.51103 L103.2945,387.5361 L95.0831,387.5361 L95.0831,382.48907 C101.2425,376.37287 109.4439,367.91579 122.772,349.02264 L126.5341,349.02264 L126.5341,379.06905 L142.0902,379.06905 L142.0902,387.5361 L126.5341,387.5361 L126.5341,445.82261 C126.5341,456.79989 133.0354,455.00687 136.4555,452.12475 C138.5041,450.32177 140.8948,447.8049 142.6049,444.03291 L146.0249,446.01188 Z" id="path85370"></path>
                <path d="M183.4127,449.06665 C183.4127,457.52374 187.6861,458.06165 190.7542,458.06165 L190.7542,461.83364 L152.8151,461.83364 L152.8151,458.06165 C155.8965,458.06165 160.1599,457.52374 160.1599,449.06665 L160.1599,391.84267 C160.1599,383.38558 155.8965,382.84768 152.8151,382.84768 L152.8151,379.06573 L183.4127,379.06573 L183.4127,449.06665 Z M171.7913,337.69007 C178.7973,337.69007 184.4288,343.63029 184.4288,350.99829 C184.4288,358.37956 178.7973,364.31646 171.7913,364.31646 C164.7752,364.31646 159.1405,358.37956 159.1405,350.99829 C159.1405,343.63029 164.7752,337.69007 171.7913,337.69007 Z" id="path85372"></path>
                <path d="M231.5919,449.06665 C231.5919,457.52374 235.8653,458.06165 238.9466,458.06165 L238.9466,461.83364 L200.9943,461.83364 L200.9943,458.06165 C204.0756,458.06165 208.3523,457.52374 208.3523,449.06665 L208.3523,387.53278 L199.1216,387.53278 L199.1216,379.25167 L208.3523,379.25167 L208.3523,364.31646 C208.3523,358.91747 212.287,343.44435 232.1066,338.59323 C239.2886,336.79024 254.1641,337.32815 259.4568,347.7642 C263.5575,355.68339 262.3622,366.47141 252.454,367.01263 C248.3401,367.19858 237.7513,362.69942 244.9333,349.20526 C246.4673,346.49913 245.7867,343.80627 241.852,343.63029 C236.8979,343.44435 231.5919,343.98226 231.5919,357.12445 L231.5919,379.25167 L245.9527,379.25167 L245.9527,387.53278 L231.5919,387.53278 L231.5919,449.06665 L231.5919,449.06665 Z" id="path85374"></path>
                <path d="M307.2641,446.01188 C303.8441,452.84196 299.7434,461.83696 286.0732,464.89506 C274.7938,467.41193 264.5304,458.60288 264.5304,450.51103 L264.5304,387.5361 L256.3323,387.5361 L256.3323,382.48907 C262.4817,376.37287 270.6931,367.91579 284.0245,349.02264 L287.7832,349.02264 L287.7832,379.06905 L303.3394,379.06905 L303.3394,387.5361 L287.7832,387.5361 L287.7832,445.82261 C287.7832,456.79989 294.2713,455.00687 297.6947,452.12475 C299.7434,450.32177 302.1341,447.8049 303.8441,444.03291 L307.2641,446.01188 L307.2641,446.01188 Z" id="path85376"></path>
                <path d="M390.3076,446.57635 C390.3076,455.3854 394.7569,453.95762 398.8577,455.3854 L399.0336,459.34333 C389.9656,459.70858 385.3502,460.24648 367.068,464.92162 L367.068,452.15132 C363.6447,457.18838 356.1273,466.36268 340.4051,464.92162 C323.139,463.30458 320.7516,454.67151 320.7516,443.87021 L320.7516,391.87256 C320.7516,383.41547 316.4749,382.87756 313.3936,382.87756 L313.3936,379.09561 L343.9912,379.09561 L343.9912,444.77336 C343.9912,454.30626 355.7853,458.62944 367.068,445.67319 L367.068,391.87256 C367.068,383.41547 362.7913,382.87756 359.7233,382.87756 L359.7233,379.09561 L390.3076,379.09561 L390.3076,446.57635 L390.3076,446.57635 Z" id="path85378"></path>
                <path d="M439.8481,449.06665 C439.8481,457.52374 444.1215,458.06165 447.1929,458.06165 L447.1929,461.83364 L409.2505,461.83364 L409.2505,458.06165 C412.3319,458.06165 416.5953,457.52374 416.5953,449.06665 L416.5953,391.84267 C416.5953,383.38558 412.3319,382.84768 409.2505,382.84768 L409.2505,379.06573 L439.8481,379.06573 L439.8481,392.20792 C441.3822,387.70876 444.1215,384.82664 446.6882,382.30977 C455.743,373.50072 486.5033,372.94953 486.5033,401.56484 L486.5033,449.06665 C486.5033,457.52374 490.7766,458.06165 493.858,458.06165 L493.858,461.83364 L455.9189,461.83364 L455.9189,458.06165 C458.987,458.06165 463.2637,457.52374 463.2637,449.06665 L463.2637,400.29976 C463.2637,387.34684 453.6909,387.88474 449.4176,389.3258 C445.1409,390.76686 441.5582,394.90077 439.8481,399.22395 L439.8481,449.06665 L439.8481,449.06665 Z" id="path85380"></path>
                <path d="M580.5008,390.79342 L566.8207,390.79342 C568.5307,393.67554 575.7094,401.40546 573.3221,413.64782 C571.0941,425.15969 561.7006,431.63781 555.5413,433.07887 C548.0205,434.87189 540.1611,435.59906 532.6404,435.05784 C529.911,434.87189 527.849,437.38877 526.139,439.01909 C522.2143,442.79108 525.2823,449.2692 530.9304,449.63112 L555.5413,450.88292 C566.4787,451.42415 584.2628,454.47893 579.8101,477.69525 C577.9374,487.23147 570.7554,493.88558 560.6713,496.94368 C551.2646,499.82247 521.6996,502.34267 509.9022,493.88558 C499.9941,486.86955 501.7041,472.48552 516.9083,469.41414 C512.8076,466.18338 499.9941,459.52927 508.3682,446.03512 C511.9542,440.27088 520.1656,436.31295 525.1196,433.43083 C520.6803,430.37274 515.3742,428.03184 511.7882,424.08387 C503.2381,414.72363 502.8994,397.09557 512.1302,387.55934 C525.6343,373.70326 550.2452,375.68223 557.7659,381.08122 L580.5008,381.08122 L580.5008,390.79342 L580.5008,390.79342 Z M548.7112,424.43584 C551.4405,419.39877 551.9552,395.1166 548.1965,388.09725 C542.3858,377.29927 534.1744,383.60141 531.7837,386.47025 C524.263,395.29258 529.2204,421.55372 530.4124,424.08387 C534.3504,432.17572 544.9491,431.27589 548.7112,424.43584 Z M524.087,471.75835 C519.3089,473.73732 510.0782,482.01842 523.2336,490.82748 C529.911,495.32663 559.9906,495.68856 565.6253,486.69356 C569.56,480.39142 571.9507,472.48552 556.5706,472.29626 L524.087,471.75835 L524.087,471.75835 Z" id="path85382"></path>
            </g>
            <g id="g85471" transform="translate(0.173684, 0.058562)">
                <polygon id="polygon85384" points="231.021581 212.32077 107.010833 460.687587 124.545929 496.846874 248.862155 247.882382"></polygon>
                <polygon id="polygon85386" points="203.963543 159.29379 79.9527961 407.660607 97.4746102 443.819894 221.804117 194.855402"></polygon>
                <polygon id="polygon85388" points="177.934834 107.594975 53.9240864 355.961793 71.4591822 392.121079 195.775407 143.156588"></polygon>
                <polygon id="polygon85390" points="151.673695 54.5347913 27.6729091 302.901609 45.1980437 339.060896 169.52423 90.0964038"></polygon>
                <polygon id="polygon85392" points="124.698668 0.71091276 0.684600412 249.07773 18.2196962 285.237017 142.535921 36.2725253"></polygon>
            </g>
        </g>
    </g>
</svg>