<svg viewBox="0 0 887 517" xmlns="http://www.w3.org/2000/svg">
  <g fill="#FFF" fill-rule="nonzero">
    <path
      d="M348.124 81.024v39.58c0 9.36 5.116 15.296 14.008 15.296v3.772h-55.208V135.9c8.892 0 14.012-5.937 14.012-15.297V36.218c0-9.36-5.12-15.297-14.012-15.297V17.15h55.208v3.772c-8.892 0-14.008 5.937-14.008 15.297v35.983h41.02V36.218c0-9.36-5.13-15.297-14.022-15.297V17.15h55.205v3.772c-8.879 0-14.009 5.937-14.009 15.297v84.385c0 9.36 5.13 15.297 14.009 15.297v3.772h-55.205V135.9c8.892 0 14.022-5.937 14.022-15.297v-39.58h-41.02zM508.413 128.174c0 2.878 3.596 5.037 8.374 1.265l1.372 3.958c-6.83 6.654-14.361 10.074-20.687 9.347-7.344-.9-9.735-6.83-12.64-11.326-6.665 5.575-16.749 13.305-30.093 11.15-11.104-1.803-19.302-14.76-12.814-27.527 3.583-7.016 10.26-11.339 13.332-13.318 4.954-3.058 17.438-7.557 29.917-11.339V75.273c0-5.937-.857-10.788-5.648-13.129-4.955-2.52-12.137-1.806-15.72 0-3.595 1.803-4.452 3.769-2.048 7.916 2.387 4.313 5.469 6.83 2.563 12.594-3.42 7.016-14.198 7.916-18.637 1.617-2.902-3.961-4.098-13.132 3.247-20.324 15.038-14.397 42.73-8.822 50.942-2.344 6.325 5.037 8.54 11.515 8.54 16.728v49.843zm-23.24-32.026c-2.905.714-14.022 2.517-19.656 14.208-3.082 6.302-2.4 17.818 5.13 19.797 3.762.9 10.93-1.803 14.527-7.382V96.148zM556.26 126.912c0 8.457 4.277 9.005 7.358 9.005v3.772h-37.952v-3.772c3.078 0 7.355-.548 7.355-9.005v-57.21c0-8.458-4.277-8.996-7.355-8.996v-3.785h30.594v13.142c1.534-4.496 4.277-7.378 6.84-9.898 9.055-8.819 39.829-9.357 39.829 19.245v47.502c0 8.457 4.273 9.005 7.344 9.005v3.772h-37.942v-3.772c3.081 0 7.345-.548 7.345-9.005V78.158c0-12.956-9.57-12.415-13.846-10.977-4.274 1.441-7.86 5.578-9.57 9.898v49.833zM651.29 126.912c0 8.457 4.274 9.005 7.342 9.005v3.772h-37.94v-3.772c3.082 0 7.346-.548 7.346-9.005v-57.21c0-8.458-4.264-8.996-7.345-8.996v-3.785h30.597v13.142c1.534-4.496 4.274-7.378 6.84-9.898 9.055-8.819 39.826-9.357 39.826 19.245v47.502c0 8.457 4.263 9.005 7.344 9.005v3.772h-37.939v-3.772c3.068 0 7.345-.548 7.345-9.005V78.158c0-12.956-9.573-12.415-13.846-10.977-4.277 1.441-7.86 5.578-9.57 9.898v49.833zM765.114 81.024l-4.615-11.34c-2.049-4.86-11.622-9.898-17.266-9.17-15.556 1.979-10.941 17.804-3.244 21.586 6.15 3.058 12.136 6.116 18.285 9.174 15.214 7.743 16.234 27.712 11.632 37.61-6.326 13.67-22.915 16.367-36.581 12.053-3.248-1.089-11.798-5.585-13.847 1.793h-3.244l-.352-29.87 3.76.365c1.032 3.055 7.357 28.43 27.01 23.568 11.104-2.696 14.527-15.476 3.245-23.03-6.488-4.31-14.524-6.116-20.51-10.788-27.517-21.775-7.345-47.498 11.621-48.226 5.306-.176 13.165 1.08 18.12 3.059 2.227.9 5.81 1.265 6.5-3.059h3.069l.176 26.275h-3.759zM380.942 224.565c-4.1-9.546-10.764-33.114-33.665-33.466-15.052-.19-19.833 13.129-17.605 22.489 2.049 8.998 9.393 12.943 21.706 19.07 8.712 4.312 18.461 7.732 25.288 14.396 21.881 21.048 12.827 57.211-14.348 63.324-17.103 3.961-18.8 1.979-40.343-3.42-8.035-1.793-7.52 1.992-8.035 5.399h-3.925l-.176-43.713h3.925l3.596 12.59c2.049 7.017 7.345 13.67 12.65 18.894 12.475 12.229 29.904 4.851 32.647 2.696 7.345-5.75 13.67-23.568-4.277-33.28-7.344-3.958-14.523-7.916-21.881-11.878-38.63-21.048-24.093-56.141-12.814-64.774 17.43-13.308 35.89-5.578 46.655-2.158 8.726 2.52 8.036-1.98 10.088-5.575h3.759l.351 39.217-3.596.19zM468.435 291.14c-4.615 8.095-9.908 17.09-23.591 20.148-5.632 1.265-16.748 3.244-28.708-6.116-15.042-11.512-24.449-54.515 4.1-75.563 14.862-10.977 30.77-2.706 34.871 1.252 13.67 12.956 12.651 22.854 12.99 35.083h-43.249c0 3.058-.172 10.798 4.792 21.951 5.976 13.68 15.898 12.415 20.51 10.974 7.687-2.33 13.494-8.091 15.041-10.436l3.244 2.707zm-20.51-32.388c0-8.822.68-16.738-1.886-23.206-2.215-5.588-11.442-9.184-17.09.176-2.73 4.675-3.759 12.418-4.1 23.03h23.076zM508.58 296.519c0 8.447 4.276 8.998 7.344 8.998v3.772h-37.942v-3.772c3.08 0 7.344-.551 7.344-8.998v-57.221c0-8.457-4.263-8.995-7.344-8.995v-3.785h30.597v70zm-11.622-111.374c7.006 0 12.64 5.94 12.64 13.309 0 7.377-5.634 13.318-12.64 13.318-7.016 0-12.651-5.94-12.651-13.318 0-7.368 5.635-13.309 12.65-13.309zM601.517 293.995c0 8.81 4.453 7.368 8.727 8.81v3.957c-9.065.365-13.68.903-31.966 5.575V299.57c-3.762 4.5-14.185 19.421-32.646 9.888-31.289-16.19-22.045-77.897 7.178-84.737 14.012-2.155 18.462 3.958 25.468 11.512v-34.366c0-8.457-4.277-8.995-7.358-8.995v-4.137h30.597v105.26zm-23.24-48.764c-2.224-3.96-6.5-16.19-18.8-8.457-12.65 7.916-10.263 53.074-4.615 60.455 5.987 7.916 18.625 5.761 23.416-7.733V245.23zM686.786 291.14c-4.602 8.095-9.908 17.09-23.579 20.148-5.648 1.265-16.751 3.244-28.721-6.116-15.042-11.512-24.435-54.515 4.11-75.563 14.866-10.977 30.76-2.706 34.862 1.252 13.68 12.956 12.65 22.854 12.989 35.083h-43.235c0 3.058-.176 10.798 4.778 21.951 5.987 13.68 15.895 12.415 20.51 10.974 7.697-2.33 13.508-8.091 15.042-10.436l3.244 2.707zm-20.51-32.388c0-8.822.69-16.738-1.873-23.206-2.228-5.588-11.459-9.184-17.09.176-2.743 4.675-3.762 12.418-4.101 23.03h23.063zM726.597 296.519c0 8.447 4.274 8.998 7.355 8.998v3.772H696v-3.772c3.081 0 7.354-.551 7.354-8.998v-94.645c0-8.458-4.273-8.995-7.354-8.995v-4.138h30.597V296.52zM380.942 394.172c-4.1-9.546-10.764-33.115-33.665-33.467-15.052-.185-19.833 13.133-17.605 22.49 2.049 8.998 9.393 12.946 21.706 19.072 8.712 4.32 18.461 7.73 25.288 14.394 21.881 21.051 12.827 57.21-14.348 63.324-17.103 3.96-18.8 1.982-40.343-3.407-8.035-1.803-7.52 1.969-8.035 5.389h-3.925l-.176-43.717h3.925l3.596 12.591c2.049 7.016 7.345 13.67 12.65 18.897 12.475 12.229 29.904 4.86 32.647 2.693 7.345-5.751 13.67-23.569-4.277-33.277-7.344-3.962-14.523-7.92-21.881-11.88-38.63-21.049-24.093-56.132-12.814-64.776 17.43-13.308 35.89-5.574 46.655-2.154 8.726 2.516 8.036-1.98 10.088-5.579h3.759l.351 39.218-3.596.189zM452.199 463.07c-3.42 6.83-7.521 15.826-21.201 18.884-11.283 2.516-21.53-6.293-21.53-14.384v-62.975h-8.211v-5.047c6.16-6.117 14.36-14.574 27.689-33.467h3.762v30.047h15.556v8.467h-15.556v58.286c0 10.977 6.501 9.184 9.921 6.302 2.049-1.803 4.44-4.32 6.15-8.092l3.42 1.98zM489.586 466.125c0 8.457 4.274 8.995 7.342 8.995v3.772h-37.94v-3.772c3.082 0 7.346-.538 7.346-8.995v-57.224c0-8.457-4.264-8.995-7.345-8.995v-3.782h30.597v70.001zM477.965 354.75c7.006 0 12.637 5.94 12.637 13.308 0 7.381-5.631 13.318-12.637 13.318-7.016 0-12.65-5.937-12.65-13.318 0-7.368 5.634-13.308 12.65-13.308zM537.766 466.125c0 8.457 4.273 8.995 7.354 8.995v3.772h-37.952v-3.772c3.081 0 7.358-.538 7.358-8.995v-61.534h-9.23v-8.28h9.23v-14.936c0-5.399 3.935-20.872 23.754-25.723 7.182-1.803 22.058-1.265 27.35 9.17 4.101 7.92 2.906 18.708-7.002 19.25-4.114.185-14.703-4.314-7.521-17.808 1.534-2.706.853-5.4-3.081-5.575-4.954-.186-10.26.352-10.26 13.494v22.127h14.36v8.281h-14.36v61.534z"
    />
    <path
      d="M613.438 463.07c-3.42 6.83-7.52 15.826-21.191 18.884-11.28 2.516-21.543-6.293-21.543-14.384v-62.975h-8.198v-5.047c6.15-6.117 14.36-14.574 27.692-33.467h3.759v30.047h15.556v8.467h-15.556v58.286c0 10.977 6.488 9.184 9.911 6.302 2.05-1.803 4.44-4.32 6.15-8.092l3.42 1.98zM696.481 463.635c0 8.809 4.45 7.381 8.55 8.809l.176 3.958c-9.068.365-13.683.903-31.965 5.578v-12.77c-3.424 5.037-10.941 14.211-26.663 12.77-17.266-1.617-19.654-10.25-19.654-21.051V408.93c0-8.457-4.276-8.995-7.358-8.995v-3.782h30.598v65.678c0 9.533 11.794 13.856 23.077.9v-53.8c0-8.458-4.277-8.996-7.345-8.996v-3.782h30.584v67.48zM746.022 466.125c0 8.457 4.273 8.995 7.345 8.995v3.772h-37.943v-3.772c3.082 0 7.345-.538 7.345-8.995v-57.224c0-8.457-4.263-8.995-7.345-8.995v-3.782h30.598v13.142c1.534-4.499 4.273-7.38 6.84-9.898 9.055-8.809 39.815-9.36 39.815 19.255v47.502c0 8.457 4.273 8.995 7.355 8.995v3.772h-37.94v-3.772c3.069 0 7.345-.538 7.345-8.995v-48.767c0-12.953-9.572-12.415-13.846-10.974-4.276 1.441-7.86 5.575-9.57 9.899v49.842zM886.674 407.852h-13.68c1.71 2.882 8.89 10.612 6.502 22.854-2.228 11.512-11.622 17.99-17.781 19.431-7.52 1.793-15.38 2.52-22.9 1.98-2.73-.187-4.792 2.33-6.502 3.96-3.925 3.773-.857 10.25 4.791 10.613l24.611 1.251c10.937.542 28.721 3.596 24.269 26.813-1.873 9.536-9.055 16.19-19.139 19.248-9.407 2.879-38.972 5.4-50.77-3.058-9.907-7.016-8.197-21.4 7.007-24.471-4.1-3.231-16.914-9.885-8.54-23.38 3.586-5.764 11.797-9.721 16.751-12.604-4.439-3.058-9.745-5.399-13.331-9.347-8.55-9.36-8.889-26.988.342-36.524 13.504-13.856 38.115-11.877 45.636-6.478h22.734v9.712zm-31.79 33.642c2.73-5.037 3.245-29.319-.514-36.338-5.81-10.798-14.022-4.496-16.413-1.627-7.52 8.822-2.563 35.083-1.37 37.613 3.937 8.092 14.536 7.192 18.298.352zm-24.623 47.323c-4.778 1.979-14.01 10.26-.854 19.069 6.678 4.5 36.757 4.861 42.392-4.134 3.935-6.302 6.325-14.208-9.055-14.397l-32.483-.538z"
    />
    <g>
      <path
        d="m231.195 212.38-124.01 248.366 17.535 36.16L249.036 247.94zM204.137 159.352 80.127 407.72l17.521 36.16 124.33-248.965zM178.109 107.654 54.098 356.02l17.535 36.16 124.316-248.965zM151.847 54.593l-124 248.367 17.525 36.16L169.698 90.154zM124.872.77.858 249.135l17.535 36.16L142.71 36.33z"
      />
    </g>
  </g>
</svg>
