<svg viewBox="0 0 188 50" xmlns="http://www.w3.org/2000/svg">
  <g fill="none">
    <path
      d="M38.684 23.857c-4.326-2.942-9.864-1.741-12.769 2.683a9.033 9.033 0 0 1-7.514 4.155c-4.623 0-7.791-3.257-8.73-6.627a4.206 4.206 0 0 1-.055-.209c-.37-1.405-.46-2.077-.46-3.572 0-8.06 8.263-17.032 20.16-17.032 12.183 0 19.155 9.283 20.946 14.443-.03-.09-.057-.18-.09-.274C46.717 7.332 37.156.075 25.901.075 11.734.075.248 11.571.248 25.755c0 12.678 9.134 23.53 21.805 23.53 10.103 0 16.895-5.672 20.012-13.488 1.711-4.275.495-9.3-3.38-11.94l-6.78 18.344"
      fill="#003764"
    />
    <path
      d="M50.423 18.199c-1.497-5.035-8.52-14.944-21.107-14.944-11.897 0-20.16 8.972-20.16 17.032 0 1.495.09 2.167.46 3.572a7.408 7.408 0 0 1-.235-1.832c0-8.393 8.394-14.21 17.025-14.21 11.682 0 21.151 9.482 21.151 21.174A23.339 23.339 0 0 1 34.63 49.905l.003.005c9.87-3.577 16.918-13.042 16.918-24.155 0-2.63-.353-4.948-1.128-7.556"
      fill="#E4032E"
    />
    <path
      d="M80.848 13.698h2.854v2.165h-2.854v5.153h-2.45V8.276h2.45v5.422zm-8.267 2.967c0-.61-.217-1.133-.648-1.572a2.105 2.105 0 0 0-1.56-.659c-.609 0-1.128.22-1.559.659a2.164 2.164 0 0 0-.647 1.572c0 .61.215 1.127.647 1.55.43.425.95.637 1.56.637.61 0 1.129-.212 1.56-.636.43-.424.647-.94.647-1.55zm2.384.023a3.73 3.73 0 0 1-.367 1.65 5 5 0 0 1-.971 1.361c-.43.387-.924.692-1.481.915a4.78 4.78 0 0 1-1.794.335c-.64 0-1.237-.112-1.795-.335a4.666 4.666 0 0 1-1.46-.915 4.769 4.769 0 0 1-.991-1.36 3.736 3.736 0 0 1-.369-1.651c0-.595.124-1.153.369-1.674a4.4 4.4 0 0 1 .992-1.36 4.84 4.84 0 0 1 1.46-.926 4.653 4.653 0 0 1 1.794-.346 4.64 4.64 0 0 1 1.794.346c.557.23 1.05.54 1.48.925.403.387.725.84.972 1.36.245.522.367 1.08.367 1.675zm-9.718 11.088V21.73h2.474v3.882h13.551v2.164H65.247zm-.89-15.885V9.77h4.68V7.876h2.629v1.897h4.702v2.119H64.356zm37.955-3.213v5.934H99.84v-3.748H86.98V8.678h15.333zm-8.87 12.606v-2.9h-7.89v-2.187h18.275v2.187h-7.912v2.9h6.441v6.938h-2.473v-4.774H86.8v-2.164h6.641zm16.828-7.229h10.452v-3.391h-10.453v3.391zm.043 7.92v3.682h13.105v2.186h-15.58v-5.868h2.475zm-2.474-5.8V8.521h15.334v7.652h-15.334zm16.805 2.03v2.186h-7.823v3.079h-2.474v-3.08h-7.979v-2.186h18.276zm19.123 9.973h-2.473V8.276h2.473v8.367h2.54v2.32h-2.54v9.215zM135.788 17.2a2.28 2.28 0 0 0-.714-1.685 2.385 2.385 0 0 0-1.739-.703c-.682 0-1.262.235-1.737.703a2.281 2.281 0 0 0-.713 1.685c0 .654.238 1.22.713 1.695a2.363 2.363 0 0 0 1.737.714c.685 0 1.264-.238 1.74-.714.475-.475.713-1.04.713-1.695zm-3.812-6.94V8.144h2.675v2.119h4.68v2.12h-12.057v-2.12h4.702zm6.22 6.94c0 .61-.128 1.19-.38 1.74a4.561 4.561 0 0 1-1.048 1.45c-.43.402-.943.722-1.538.96a7.36 7.36 0 0 1-.668.2v2.521h5.215v2.165h-12.904v-2.165h5.237v-2.52a5.216 5.216 0 0 1-.668-.201 5.205 5.205 0 0 1-1.56-.96 4.441 4.441 0 0 1-1.037-1.45 4.227 4.227 0 0 1-.368-1.74c0-.61.123-1.187.368-1.73a4.488 4.488 0 0 1 1.037-1.439 4.66 4.66 0 0 1 1.56-.958 5.325 5.325 0 0 1 1.893-.336c.67 0 1.3.112 1.895.336a4.406 4.406 0 0 1 1.538.958 4.62 4.62 0 0 1 1.048 1.44c.252.542.38 1.119.38 1.729zm24.517-8.924h2.451V23.47h-2.451v-7.34h-2.764v-2.142h2.764V8.276zm-5.73 4.373c0-.713-.255-1.312-.767-1.796a2.56 2.56 0 0 0-1.816-.725c-.7 0-1.305.242-1.817.725a2.369 2.369 0 0 0-.769 1.796c0 .7.256 1.29.769 1.774a2.559 2.559 0 0 0 1.817.725c.698 0 1.303-.241 1.816-.725a2.344 2.344 0 0 0 .768-1.774zm2.387 0a4.03 4.03 0 0 1-.402 1.785 5.408 5.408 0 0 1-1.048 1.473c-.46.416-.99.744-1.593.981a5.177 5.177 0 0 1-1.927.357 5.172 5.172 0 0 1-1.928-.357 5.202 5.202 0 0 1-1.594-.98 5.422 5.422 0 0 1-1.048-1.474 4.028 4.028 0 0 1-.4-1.785c0-.64.133-1.238.4-1.796a5.364 5.364 0 0 1 1.048-1.483c.46-.417.992-.744 1.594-.982a5.185 5.185 0 0 1 1.928-.357c.683 0 1.326.119 1.927.357a5.197 5.197 0 0 1 1.593.982c.432.431.78.925 1.048 1.483s.402 1.157.402 1.796zm-10.097 15.194v-5.69h2.452v3.526h13.684v2.164h-16.136zm11.857-7.607h-5.26v3.01h-2.474v-3.01h-5.483v-2.187h13.217v2.187zM69.736 36.013l.048-.055h-1.453l-2.773 3.172v-3.172h-1.202v6.997h1.202v-3.17l2.713 3.158.01.012h1.493l-3.039-3.524 3-3.418"
      fill="#FFF"
    />
    <path
      d="M71.149 39.26c.274-.31.611-.468 1.002-.468.388 0 .728.158 1.011.467.28.325.42.723.42 1.18 0 .47-.14.864-.42 1.169-.274.31-.615.468-1.011.468-.4 0-.736-.158-1.003-.47-.29-.295-.43-.676-.43-1.167 0-.478.14-.864.43-1.18zm1.002-1.47c-.72 0-1.342.257-1.848.763-.509.51-.767 1.144-.767 1.886 0 .745.258 1.376.767 1.875.495.507 1.118.764 1.848.764.737 0 1.344-.25 1.857-.764.503-.502.757-1.133.757-1.875 0-.738-.254-1.373-.757-1.887a2.574 2.574 0 0 0-1.857-.762zm5.123.3a1.754 1.754 0 0 0-.538.492v-.67h-1.112v5.043h1.171v-2.353c0-.588.121-1.007.37-1.28.262-.277.622-.418 1.073-.418h.152V37.83h-.113c-.371 0-.708.088-1.003.26m2.92 1.119c.257-.283.581-.427.963-.427.38 0 .688.127.942.386.234.258.362.534.388.841h-2.639c.043-.322.16-.59.346-.8zm.963-1.419c-.744 0-1.356.25-1.819.743-.462.503-.696 1.147-.696 1.916 0 .787.265 1.425.788 1.896.512.494 1.175.733 2.026.733.726 0 1.363-.24 1.895-.71l.018-.016-.337-.857-.018-.042-.035.03c-.476.405-.965.603-1.493.603-.515 0-.912-.141-1.214-.43a1.27 1.27 0 0 1-.4-.695h3.745l.004-.028a3.03 3.03 0 0 0 .05-.555c0-.731-.234-1.352-.697-1.845-.473-.493-1.084-.743-1.817-.743zm6.623 2.834v.802c-.127.185-.32.342-.59.48-.275.14-.555.21-.834.21-.308 0-.553-.07-.728-.208a.575.575 0 0 1-.265-.502c0-.215.11-.41.314-.563.22-.143.617-.219 1.148-.219h.954zm.49-2.35c-.448-.32-1.087-.484-1.903-.484h-.02a4.394 4.394 0 0 0-1.708.349l-.027.012.288.913.01.034.033-.014c.516-.21.971-.312 1.394-.312h.03c.45 0 .806.08 1.057.239a.788.788 0 0 1 .355.662h-1.123c-.762 0-1.362.15-1.783.444-.466.34-.692.763-.692 1.289 0 .479.189.878.56 1.185.36.327.826.487 1.426.487.312 0 .628-.063.939-.186a2.06 2.06 0 0 0 .713-.44v.503h1.122v-3.117c0-.706-.226-1.233-.671-1.564zm4.323-.484c-.297 0-.57.073-.813.219a1.55 1.55 0 0 0-.519.478v-.575H90.13v5.043h1.17v-2.537c0-.414.052-.73.157-.963.092-.21.223-.373.388-.485a.862.862 0 0 1 .509-.178c.327 0 .583.122.758.36.163.27.245.661.245 1.164v2.64h1.172v-2.924c0-.662-.177-1.21-.526-1.63-.367-.407-.842-.612-1.41-.612m3.736-2.158a.7.7 0 0 0-.522.224.738.738 0 0 0-.219.532c0 .2.072.372.219.522a.7.7 0 0 0 .522.223.708.708 0 0 0 .522-.223.718.718 0 0 0 .219-.522.736.736 0 0 0-.22-.532.707.707 0 0 0-.521-.224m-.581 7.323h1.182v-5.042h-1.182zm4.685-2.985a5.722 5.722 0 0 1-.378-.123 2.554 2.554 0 0 1-.681-.292c-.148-.085-.223-.194-.223-.327 0-.12.065-.224.195-.319a.841.841 0 0 1 .48-.137c.302 0 .567.093.786.277.102.087.196.201.313.38l.022.033.706-.7.017-.016-.01-.022a1.538 1.538 0 0 0-.429-.53c-.352-.268-.808-.404-1.355-.404-.528 0-.968.142-1.347.434-.39.305-.58.657-.58 1.075 0 .292.09.542.276.763.178.235.458.42.83.55.243.097.529.208.82.295.207.074.406.162.59.262a.44.44 0 0 1 .225.38c0 .154-.076.278-.233.379a1.14 1.14 0 0 1-.62.158c-.255 0-.501-.073-.712-.21a2.065 2.065 0 0 1-.628-.621l-.022-.034-.744.771.014.022c.186.3.418.533.687.692.383.247.842.372 1.365.372.603 0 1.096-.152 1.505-.465.398-.303.6-.672.6-1.095 0-.35-.127-.662-.378-.93-.253-.247-.62-.455-1.091-.618m6.213 1.516-.034.027c-.49.378-.96.563-1.436.563-.49 0-.89-.162-1.192-.48-.305-.3-.46-.69-.46-1.157 0-.471.155-.867.46-1.178.305-.311.705-.469 1.192-.469.455 0 .931.19 1.416.564l.034.026.384-.95-.02-.014c-.57-.417-1.18-.628-1.814-.628-.822 0-1.504.26-2.026.773-.535.516-.807 1.147-.807 1.876 0 .725.272 1.35.807 1.855.519.52 1.2.784 2.026.784.68 0 1.297-.212 1.834-.629l.02-.014-.368-.909-.016-.04m3.74-3.696c-.286 0-.554.07-.793.208-.22.13-.385.271-.499.428V35.5h-1.172v7.455h1.172v-2.537c0-.414.051-.73.157-.963.092-.21.223-.373.387-.485a.863.863 0 0 1 .51-.178c.328 0 .583.122.759.36.162.27.244.661.244 1.164v2.64h1.173v-2.924c0-.662-.178-1.21-.527-1.63-.367-.407-.842-.612-1.41-.612m4.337 1.419c.257-.283.58-.427.963-.427.38 0 .688.127.942.386.233.258.36.534.388.841h-2.639c.043-.322.16-.59.346-.8zm.963-1.419c-.744 0-1.356.25-1.819.743-.462.503-.697 1.147-.697 1.916 0 .787.266 1.425.788 1.896.513.494 1.176.733 2.026.733.726 0 1.364-.24 1.896-.71l.017-.016-.337-.857-.017-.042-.035.03c-.476.405-.965.603-1.493.603-.515 0-.912-.141-1.215-.43a1.273 1.273 0 0 1-.4-.695h3.745l.004-.028a3.03 3.03 0 0 0 .051-.555c0-.731-.235-1.352-.697-1.845-.473-.493-1.084-.743-1.817-.743zm5.608 2.18a5.76 5.76 0 0 1-.378-.123 2.548 2.548 0 0 1-.681-.292c-.149-.085-.223-.194-.223-.327 0-.12.064-.224.195-.319a.837.837 0 0 1 .48-.137c.302 0 .566.093.785.277.103.087.197.201.313.38l.022.033.707-.7.016-.016-.01-.022a1.54 1.54 0 0 0-.429-.53c-.351-.268-.807-.404-1.354-.404-.528 0-.968.142-1.347.434-.39.305-.58.657-.58 1.075 0 .292.09.542.275.763.178.235.458.42.832.55.24.097.527.208.819.295.206.074.406.162.59.262a.441.441 0 0 1 .225.38c0 .154-.077.278-.234.379a1.14 1.14 0 0 1-.62.158 1.3 1.3 0 0 1-.711-.21 2.051 2.051 0 0 1-.628-.621l-.023-.034-.744.771.015.022c.186.3.417.533.687.692.383.247.842.372 1.364.372.604 0 1.097-.152 1.505-.465.398-.303.6-.672.6-1.095 0-.35-.126-.662-.377-.93-.253-.247-.62-.455-1.091-.618m10.605-4.012h-1.454l-2.772 3.172v-3.172h-1.203v6.997h1.203v-3.17l2.712 3.158.01.012h1.493l-3.038-3.524 3-3.418.05-.055m3.529 4.492c0 .384-.053.708-.157.962a1.216 1.216 0 0 1-.387.486.89.89 0 0 1-.51.178c-.354 0-.599-.122-.75-.374-.171-.232-.254-.609-.254-1.15v-2.64H132.2v2.924c0 .688.18 1.236.536 1.63.342.411.801.612 1.4.612.293 0 .577-.077.844-.229a1.4 1.4 0 0 0 .49-.471v.577h1.132v-5.042h-1.173v2.536m2.361 2.506h1.171V35.5h-1.172zm3.88-6.651h-1.181v1.608h-.838v.972h.838v2.613c0 .479.124.843.368 1.083.248.252.63.375 1.17.375h.7v-.971h-.441c-.207 0-.357-.041-.46-.127-.105-.071-.155-.225-.155-.471v-2.502h1.057v-.971h-1.057v-1.61m5.125 4.147c0 .384-.052.708-.156.962a1.21 1.21 0 0 1-.388.486.886.886 0 0 1-.51.178c-.353 0-.598-.122-.75-.374-.17-.232-.253-.609-.253-1.15v-2.64h-1.172v2.924c0 .688.18 1.236.536 1.63.343.411.8.612 1.4.612.293 0 .577-.077.844-.229.189-.104.353-.263.49-.471v.577h1.132v-5.042h-1.173v2.536m4.011-2.359a1.765 1.765 0 0 0-.538.492v-.67h-1.113v5.043h1.172v-2.353c0-.588.121-1.007.37-1.28.261-.277.621-.418 1.072-.418h.153V37.83h-.113a1.96 1.96 0 0 0-1.003.26m5.573.69.007-.01v-.858h-3.953v.982h2.444l-2.646 3.194-.008.009v.858h4.272v-.981h-2.763l2.646-3.194m2.06.429c.258-.283.581-.427.962-.427.38 0 .688.127.943.386.234.258.361.534.387.841h-2.638c.044-.322.16-.591.346-.8zm.962-1.419c-.743 0-1.356.25-1.818.743-.462.503-.696 1.148-.696 1.916 0 .787.264 1.425.787 1.896.513.494 1.176.733 2.027.733.725 0 1.362-.24 1.895-.71l.018-.016-.338-.857-.017-.042-.035.03c-.477.405-.966.603-1.494.603-.514 0-.911-.141-1.214-.43a1.274 1.274 0 0 1-.4-.695h3.745l.004-.028c.034-.181.051-.368.051-.555 0-.731-.234-1.352-.697-1.845-.473-.493-1.084-.743-1.818-.743zm5.829 0a1.56 1.56 0 0 0-.815.219c-.22.13-.394.29-.518.478v-.575h-1.132v5.043h1.172v-2.537c0-.413.051-.729.156-.963.093-.21.223-.373.388-.485a.862.862 0 0 1 .51-.178c.327 0 .583.122.758.36.162.27.245.661.245 1.164v2.64h1.172v-2.924c0-.662-.177-1.21-.527-1.63-.366-.407-.84-.612-1.41-.612m4.506-1.486h-1.182v1.608h-.837v.972h.837v2.613c0 .479.124.843.368 1.083.248.252.63.375 1.17.375h.701v-.971h-.442c-.207 0-.357-.041-.46-.127-.104-.071-.155-.225-.155-.471v-2.502h1.057v-.971h-1.057v-1.61m3.547 1.787a1.765 1.765 0 0 0-.538.492v-.67h-1.113v5.043h1.173v-2.353c0-.588.12-1.007.369-1.28.262-.277.622-.418 1.073-.418h.152V37.83h-.112c-.372 0-.71.088-1.004.26m5.026 2.36c0 .384-.053.708-.157.962a1.2 1.2 0 0 1-.387.486.886.886 0 0 1-.51.178c-.353 0-.598-.122-.75-.374-.171-.232-.253-.609-.253-1.15v-2.64h-1.173v2.924c0 .688.18 1.236.537 1.63.342.411.8.612 1.4.612.293 0 .576-.077.843-.229.189-.104.353-.263.49-.471v.577h1.132v-5.042h-1.172v2.536m8.937-2.046c-.327-.407-.785-.613-1.361-.613-.384 0-.702.076-.946.23a1.924 1.924 0 0 0-.588.638c-.296-.576-.749-.868-1.347-.868-.542 0-.956.232-1.234.69v-.567h-1.101v5.042h1.162v-2.577c0-.429.043-.735.137-.964.092-.209.2-.362.329-.466a.724.724 0 0 1 .458-.156c.291 0 .513.122.658.36.138.262.205.643.205 1.164v2.64h1.163v-2.64c0-.394.042-.689.128-.903.075-.191.188-.352.327-.464a.773.773 0 0 1 .47-.157c.3 0 .522.121.658.36.138.262.205.644.205 1.164v2.64h1.162v-2.924c0-.679-.158-1.212-.485-1.63"
      fill="#FFF"
    />
  </g>
</svg>
