<?xml version="1.0" encoding="UTF-8"?>
<svg viewBox="0 0 188 50" version="1.1" xmlns="http://www.w3.org/2000/svg" xmlns:xlink="http://www.w3.org/1999/xlink">
    <!-- Generator: Sketch 55.2 (78181) - https://sketchapp.com -->
    <title>korean_center</title>
    <desc>Created with Sketch.</desc>
    <g id="Page-2" stroke="none" stroke-width="1" fill="none" fill-rule="evenodd">
        <g id="korean_center" fill-rule="nonzero">
            <path d="M38.6842236,23.8572368 C34.3577894,20.9151316 28.8201114,22.1157895 25.9152292,26.5401316 C23.4861694,30.2355263 19.822206,30.6953947 18.4013112,30.6953947 C13.7778166,30.6953947 10.6100492,27.4381579 9.67154882,24.0677632 C9.6354021,23.9368421 9.62488669,23.8986842 9.61634292,23.8592105 C9.2456747,22.4539474 9.15629371,21.7815789 9.15629371,20.2868421 C9.15629371,12.2269737 17.4194347,3.25460526 29.3156501,3.25460526 C41.4990676,3.25460526 48.4707848,12.5381579 50.2616906,17.6980263 C50.2327732,17.6072368 50.2051703,17.5177632 50.1723096,17.4243421 C46.7173401,7.33223684 37.1555458,0.075 25.9007705,0.075 C11.7338837,0.075 0.24776936,11.5710526 0.24776936,25.7552632 C0.24776936,38.4328947 9.38171782,49.2855263 22.0527875,49.2855263 C32.1561254,49.2855263 38.9484233,43.6131579 42.0649281,35.7967105 C43.7763112,31.5217105 42.5604668,26.4973684 38.6842236,23.8572368 L31.9052798,42.2005653" id="Fill-1" fill="#003764"></path>
            <path d="M50.4233651,18.1986842 C48.9255763,13.1644737 41.9039109,3.25460526 29.3156501,3.25460526 C17.4194347,3.25460526 9.15629371,12.2269737 9.15629371,20.2868421 C9.15629371,21.7815789 9.2456747,22.4539474 9.61634292,23.8592105 C9.45926897,23.2447368 9.38106061,22.6282895 9.38106061,22.0269737 C9.38106061,13.6335526 17.774987,7.81710526 26.4061674,7.81710526 C38.0881313,7.81710526 47.5572585,17.2986842 47.5572585,28.9907895 C47.5572585,38.1585526 42.289695,46.0921053 34.6298757,49.9046053 L34.6325045,49.9098684 C44.5031889,46.3328947 51.5511428,36.8684211 51.5511428,25.7552632 C51.5511428,23.125 51.1982194,20.8072368 50.4233651,18.1986842" id="Fill-2" fill="#E4032E"></path>
            <path d="M80.848391,13.6980263 L83.7020105,13.6980263 L83.7020105,15.8625 L80.848391,15.8625 L80.848391,21.0157895 L78.3976431,21.0157895 L78.3976431,8.27631579 L80.848391,8.27631579 L80.848391,13.6980263 Z M72.5806494,16.6651316 C72.5806494,16.0559211 72.3637691,15.5315789 71.9332945,15.0927632 C71.5028199,14.6539474 70.9836215,14.4342105 70.3730704,14.4342105 C69.7644911,14.4342105 69.2446355,14.6539474 68.8141608,15.0927632 C68.3823718,15.5315789 68.1668059,16.0559211 68.1668059,16.6651316 C68.1668059,17.2756579 68.3823718,17.7921053 68.8141608,18.2157895 C69.2446355,18.6401316 69.7644911,18.8519737 70.3730704,18.8519737 C70.9836215,18.8519737 71.5028199,18.6401316 71.9332945,18.2157895 C72.3637691,17.7921053 72.5806494,17.2756579 72.5806494,16.6651316 Z M74.9650188,16.6875 C74.9650188,17.2828947 74.8427771,17.8328947 74.5976366,18.3388158 C74.3511817,18.8447368 74.0291472,19.2980263 73.6269328,19.6993421 C73.1964582,20.0861842 72.7028911,20.3914474 72.1455743,20.6144737 C71.5889148,20.8375 70.9901936,20.9486842 70.3520396,20.9486842 C69.711914,20.9486842 69.1151645,20.8375 68.5571905,20.6144737 C68.000531,20.3914474 67.5128788,20.0861842 67.0975201,19.6993421 C66.6815041,19.2980263 66.3509259,18.8447368 66.1057854,18.3388158 C65.8606449,17.8328947 65.7370888,17.2828947 65.7370888,16.6875 C65.7370888,16.0927632 65.8606449,15.5348684 66.1057854,15.0138158 C66.3509259,14.4934211 66.6815041,14.0401316 67.0975201,13.6532895 C67.5128788,13.2671053 68.000531,12.9578947 68.5571905,12.7276316 C69.1151645,12.4973684 69.711914,12.3815789 70.3520396,12.3815789 C70.9901936,12.3815789 71.5889148,12.4973684 72.1455743,12.7276316 C72.7028911,12.9578947 73.1964582,13.2671053 73.6269328,13.6532895 C74.0291472,14.0401316 74.3511817,14.4934211 74.5976366,15.0138158 C74.8427771,15.5348684 74.9650188,16.0927632 74.9650188,16.6875 Z M65.247465,27.7763158 L65.247465,21.7296053 L67.7212154,21.7296053 L67.7212154,25.6118421 L81.2722934,25.6118421 L81.2722934,27.7763158 L65.247465,27.7763158 Z M64.356284,11.8907895 L64.356284,9.77171053 L69.0362989,9.77171053 L69.0362989,7.875 L71.6658087,7.875 L71.6658087,9.77171053 L76.3681689,9.77171053 L76.3681689,11.8907895 L64.356284,11.8907895 L64.356284,11.8907895 Z" id="Fill-3" fill="#FFFFFF"></path>
            <path d="M102.312315,8.67763158 L102.312315,14.6125 L99.8385651,14.6125 L99.8385651,10.8644737 L86.9782181,10.8644737 L86.9782181,8.67763158 L102.312315,8.67763158 Z M93.4412523,21.2835526 L93.4412523,18.3835526 L85.5514083,18.3835526 L85.5514083,16.1967105 L103.827192,16.1967105 L103.827192,18.3835526 L95.9150026,18.3835526 L95.9150026,21.2835526 L102.356349,21.2835526 L102.356349,28.2223684 L99.8825984,28.2223684 L99.8825984,23.4480263 L86.8001133,23.4480263 L86.8001133,21.2835526 L93.4412523,21.2835526 L93.4412523,21.2835526 Z" id="Fill-4" fill="#FFFFFF"></path>
            <path d="M110.269195,14.0552632 L120.721513,14.0552632 L120.721513,10.6638158 L110.269195,10.6638158 L110.269195,14.0552632 Z M110.312571,21.975 L110.312571,25.6565789 L123.418059,25.6565789 L123.418059,27.8427632 L107.838821,27.8427632 L107.838821,21.975 L110.312571,21.975 Z M107.838821,16.1743421 L107.838821,8.52171053 L123.172918,8.52171053 L123.172918,16.1743421 L107.838821,16.1743421 Z M124.644419,18.2046053 L124.644419,20.3914474 L116.820953,20.3914474 L116.820953,23.4697368 L114.347203,23.4697368 L114.347203,20.3914474 L106.367978,20.3914474 L106.367978,18.2046053 L124.644419,18.2046053 L124.644419,18.2046053 Z" id="Fill-5" fill="#FFFFFF"></path>
            <path d="M143.76735,28.1776316 L141.293599,28.1776316 L141.293599,8.27631579 L143.76735,8.27631579 L143.76735,16.6427632 L146.307479,16.6427632 L146.307479,18.9631579 L143.76735,18.9631579 L143.76735,28.1776316 Z M135.788125,17.2006579 C135.788125,16.5460526 135.550214,15.9848684 135.074391,15.5164474 C134.598569,15.0480263 134.019564,14.8131579 133.335405,14.8131579 C132.653218,14.8131579 132.072899,15.0480263 131.597734,15.5164474 C131.122569,15.9848684 130.884657,16.5460526 130.884657,17.2006579 C130.884657,17.8552632 131.122569,18.4210526 131.597734,18.8960526 C132.072899,19.3723684 132.653218,19.6098684 133.335405,19.6098684 C134.019564,19.6098684 134.598569,19.3723684 135.074391,18.8960526 C135.550214,18.4210526 135.788125,17.8552632 135.788125,17.2006579 Z M131.976289,10.2618421 L131.976289,8.14276316 L134.651146,8.14276316 L134.651146,10.2618421 L139.331161,10.2618421 L139.331161,12.3815789 L127.273928,12.3815789 L127.273928,10.2618421 L131.976289,10.2618421 Z M138.195497,17.2006579 C138.195497,17.8105263 138.067997,18.3907895 137.815627,18.9407895 C137.563915,19.4914474 137.214277,19.975 136.76803,20.3914474 C136.337555,20.7927632 135.824929,21.1125 135.230151,21.3506579 C135.022472,21.425 134.799676,21.4914474 134.561765,21.5513158 L134.561765,24.0723684 L139.777409,24.0723684 L139.777409,26.2368421 L126.873028,26.2368421 L126.873028,24.0723684 L132.11036,24.0723684 L132.11036,21.5513158 C131.857333,21.4914474 131.635195,21.425 131.441974,21.3506579 C130.847854,21.1125 130.327998,20.7927632 129.88175,20.3914474 C129.43616,19.975 129.089808,19.4914474 128.844668,18.9407895 C128.599527,18.3907895 128.477286,17.8105263 128.477286,17.2006579 C128.477286,16.5907895 128.599527,16.0144737 128.844668,15.4717105 C129.089808,14.9289474 129.43616,14.4493421 129.88175,14.0322368 C130.327998,13.6164474 130.847854,13.2960526 131.441974,13.0736842 C132.035438,12.85 132.66702,12.7381579 133.335405,12.7381579 C134.005106,12.7381579 134.635373,12.85 135.230151,13.0736842 C135.824929,13.2960526 136.337555,13.6164474 136.76803,14.0322368 C137.214277,14.4493421 137.563915,14.9289474 137.815627,15.4717105 C138.067997,16.0144737 138.195497,16.5907895 138.195497,17.2006579 L138.195497,17.2006579 Z" id="Fill-6" fill="#FFFFFF"></path>
            <path d="M162.712833,8.27631579 L165.164239,8.27631579 L165.164239,23.4697368 L162.712833,23.4697368 L162.712833,16.1296053 L159.949252,16.1296053 L159.949252,13.9875 L162.712833,13.9875 L162.712833,8.27631579 Z M156.983906,12.6486842 C156.983906,11.9355263 156.72825,11.3368421 156.215624,10.8532895 C155.702998,10.3703947 155.097705,10.1282895 154.399744,10.1282895 C153.700469,10.1282895 153.095176,10.3703947 152.58255,10.8532895 C152.069924,11.3368421 151.814268,11.9355263 151.814268,12.6486842 C151.814268,13.3486842 152.069924,13.9394737 152.58255,14.4230263 C153.095176,14.9065789 153.700469,15.1480263 154.399744,15.1480263 C155.097705,15.1480263 155.702998,14.9065789 156.215624,14.4230263 C156.72825,13.9394737 156.983906,13.3486842 156.983906,12.6486842 Z M159.370247,12.6486842 C159.370247,13.2888158 159.235519,13.8842105 158.968033,14.4342105 C158.700547,14.9848684 158.351567,15.4756579 157.919778,15.9072368 C157.459729,16.3230263 156.929358,16.6506579 156.32735,16.8881579 C155.726,17.1269737 155.082589,17.2447368 154.399744,17.2447368 C153.715585,17.2447368 153.073488,17.1269737 152.472138,16.8881579 C151.870131,16.6506579 151.338445,16.3230263 150.878396,15.9072368 C150.446607,15.4756579 150.098284,14.9848684 149.830141,14.4342105 C149.562655,13.8842105 149.429241,13.2888158 149.429241,12.6486842 C149.429241,12.0098684 149.562655,11.4105263 149.830141,10.8532895 C150.098284,10.2953947 150.446607,9.80131579 150.878396,9.36973684 C151.338445,8.95328947 151.870131,8.62631579 152.472138,8.38815789 C153.073488,8.15 153.715585,8.03092105 154.399744,8.03092105 C155.082589,8.03092105 155.726,8.15 156.32735,8.38815789 C156.929358,8.62631579 157.459729,8.95328947 157.919778,9.36973684 C158.351567,9.80131579 158.700547,10.2953947 158.968033,10.8532895 C159.235519,11.4105263 159.370247,12.0098684 159.370247,12.6486842 Z M149.272824,27.8427632 L149.272824,22.1539474 L151.724887,22.1539474 L151.724887,25.6789474 L165.409379,25.6789474 L165.409379,27.8427632 L149.272824,27.8427632 Z M161.130264,20.2355263 L155.86993,20.2355263 L155.86993,23.2467105 L153.39618,23.2467105 L153.39618,20.2355263 L147.91305,20.2355263 L147.91305,18.0486842 L161.130264,18.0486842 L161.130264,20.2355263 L161.130264,20.2355263 Z" id="Fill-7" fill="#FFFFFF"></path>
            <polyline id="Fill-8" fill="#FFFFFF" points="69.7355737 36.0125 69.7842075 35.9578947 68.3311092 35.9578947 65.5583269 39.1296053 65.5583269 35.9578947 64.356284 35.9578947 64.356284 42.9552632 65.5583269 42.9552632 65.5583269 39.7848684 68.2706456 42.9434211 68.2805038 42.9552632 69.773692 42.9552632 66.7353956 39.4309211 69.7355737 36.0125"></polyline>
            <path d="M71.148582,39.2598684 C71.4226399,38.9493421 71.7604474,38.7921053 72.150832,38.7921053 C72.5385878,38.7921053 72.8790242,38.95 73.1622831,39.2592105 C73.4415987,39.5842105 73.5828995,39.9815789 73.5828995,40.4388158 C73.5828995,40.9092105 73.4415987,41.3032895 73.1629403,41.6078947 C72.887568,41.9184211 72.5471316,42.0756579 72.150832,42.0756579 C71.7512464,42.0756579 71.4147533,41.9184211 71.1479248,41.6065789 C70.8580938,41.3111842 70.7181074,40.9302632 70.7181074,40.4388158 C70.7181074,39.9605263 70.858751,39.575 71.148582,39.2598684 Z M72.150832,37.7901316 C71.4305264,37.7901316 70.8088028,38.0467105 70.3034059,38.5526316 C69.7940657,39.0625 69.5364381,39.6973684 69.5364381,40.4388158 C69.5364381,41.1842105 69.7940657,41.8151316 70.3027486,42.3144737 C70.7982874,42.8210526 71.4206682,43.0776316 72.150832,43.0776316 C72.8882252,43.0776316 73.4948329,42.8282895 74.0081164,42.3144737 C74.5108845,41.8118421 74.765226,41.1809211 74.765226,40.4388158 C74.765226,39.7006579 74.5108845,39.0657895 74.0081164,38.5519737 C73.4915469,38.0467105 72.8671944,37.7901316 72.150832,37.7901316 L72.150832,37.7901316 Z" id="Fill-9" fill="#FFFFFF"></path>
            <path d="M77.2738086,38.0894737 C77.0582427,38.2177632 76.8853956,38.3756579 76.7362082,38.5815789 L76.7362082,37.9125 L75.6235464,37.9125 L75.6235464,42.9552632 L76.7953574,42.9552632 L76.7953574,40.6019737 C76.7953574,40.0138158 76.9162846,39.5947368 77.1653684,39.3217105 C77.4269393,39.0447368 77.7870921,38.9039474 78.2379403,38.9039474 L78.3904138,38.9039474 L78.3904138,37.8302632 L78.2773731,37.8302632 C77.9060477,37.8302632 77.5688973,37.9177632 77.2738086,38.0894737" id="Fill-10" fill="#FFFFFF"></path>
            <path d="M80.1944639,39.2085526 C80.4514342,38.9263158 80.7754403,38.7822368 81.1566239,38.7822368 C81.5364931,38.7822368 81.8447261,38.9092105 82.0990676,39.1684211 C82.3330355,39.4263158 82.4605348,39.7019737 82.4868234,40.0092105 L79.8481125,40.0092105 C79.8914886,39.6875 80.0078153,39.4184211 80.1944639,39.2085526 Z M81.1566239,37.7901316 C80.4133159,37.7901316 79.8014504,38.0401316 79.3381151,38.5328947 C78.8760943,39.0355263 78.6421264,39.6802632 78.6421264,40.4493421 C78.6421264,41.2355263 78.9069833,41.8736842 79.430125,42.3453947 C79.942094,42.8388158 80.6052221,43.0776316 81.4556559,43.0776316 C82.1818765,43.0776316 82.818716,42.8388158 83.3510587,42.3671053 L83.3688034,42.3519737 L83.0316531,41.4953947 L83.0139083,41.4526316 L82.979076,41.4822368 C82.5025965,41.8881579 82.0142871,42.0855263 81.4858877,42.0855263 C80.9712898,42.0855263 80.5743331,41.9447368 80.272015,41.6559211 C80.0689362,41.4769737 79.9342075,41.2440789 79.871115,40.9605263 L83.6165728,40.9605263 L83.6211733,40.9328947 C83.6553484,40.7473684 83.6711215,40.5657895 83.6711215,40.3776316 C83.6711215,39.6467105 83.4371536,39.0256579 82.9744755,38.5328947 C82.5012821,38.0401316 81.8900738,37.7901316 81.1566239,37.7901316 L81.1566239,37.7901316 Z" id="Fill-11" fill="#FFFFFF"></path>
            <path d="M87.7793609,40.6243421 L87.7793609,41.4263158 C87.653176,41.6105263 87.4606125,41.7677632 87.1898407,41.9052632 C86.9151256,42.0453947 86.6351528,42.1164474 86.3564944,42.1164474 C86.0476042,42.1164474 85.803121,42.0467105 85.6283023,41.9078947 C85.4495403,41.7835526 85.3627881,41.6197368 85.3627881,41.4059211 C85.3627881,41.1907895 85.4725427,40.9953947 85.676936,40.8427632 C85.8971024,40.7 86.2940592,40.6243421 86.8250874,40.6243421 L87.7793609,40.6243421 Z M88.2696419,38.2736842 C87.8220798,37.9532895 87.1826114,37.7901316 86.3670098,37.7901316 L86.3466362,37.7901316 C85.7157116,37.8 85.1413073,37.9177632 84.6391965,38.1388158 L84.6122507,38.1506579 L84.9001101,39.0638158 L84.9106255,39.0980263 L84.9434861,39.0842105 C85.4587413,38.8743421 85.91419,38.7717105 86.336778,38.7717105 L86.3670098,38.7717105 C86.8178581,38.7717105 87.1734104,38.8526316 87.4244658,39.0105263 C87.6512044,39.1651316 87.7701599,39.3875 87.7787037,39.6730263 L86.6561836,39.6730263 C85.8944736,39.6730263 85.294438,39.8223684 84.8725071,40.1171053 C84.4072002,40.4578947 84.1811189,40.8796053 84.1811189,41.4059211 C84.1811189,41.8848684 84.3697391,42.2835526 84.7404073,42.5907895 C85.1005601,42.9184211 85.5671814,43.0776316 86.167217,43.0776316 C86.4787361,43.0776316 86.7948556,43.0151316 87.1057174,42.8921053 C87.3810897,42.7894737 87.6150576,42.6453947 87.8194509,42.4513158 L87.8194509,42.9552632 L88.9413138,42.9552632 L88.9413138,39.8381579 C88.9413138,39.1315789 88.7152325,38.6052632 88.2696419,38.2736842 L88.2696419,38.2736842 Z" id="Fill-12" fill="#FFFFFF"></path>
            <path d="M92.5934473,37.7901316 C92.2963869,37.7901316 92.0229863,37.8631579 91.7798174,38.0085526 C91.5589938,38.1388158 91.3854895,38.2993421 91.2612762,38.4868421 L91.2612762,37.9125 L90.128898,37.9125 L90.128898,42.9552632 L91.300709,42.9552632 L91.300709,40.4184211 C91.300709,40.0039474 91.3526289,39.6888158 91.457783,39.4552632 C91.5497928,39.2440789 91.6805782,39.0815789 91.8455387,38.9697368 C92.0085276,38.8519737 92.179403,38.7921053 92.3548789,38.7921053 C92.6821711,38.7921053 92.937827,38.9144737 93.1133029,39.1526316 C93.2756346,39.4223684 93.3584434,39.8131579 93.3584434,40.3164474 L93.3584434,42.9552632 L94.5302545,42.9552632 L94.5302545,40.0315789 C94.5302545,39.3697368 94.3534641,38.8217105 94.0038267,38.4013158 C93.6371018,37.9953947 93.1619367,37.7901316 92.5934473,37.7901316" id="Fill-13" fill="#FFFFFF"></path>
            <path d="M96.3290469,35.6322368 C96.1253108,35.6322368 95.9550926,35.7046053 95.8065624,35.8559211 C95.6619755,36.0039474 95.5883677,36.1828947 95.5883677,36.3881579 C95.5883677,36.5888158 95.6600039,36.7598684 95.8065624,36.9098684 C95.9544354,37.0598684 96.1246536,37.1328947 96.3290469,37.1328947 C96.5301541,37.1328947 96.7062872,37.0578947 96.8508741,36.9098684 C96.9980899,36.7592105 97.0697261,36.5881579 97.0697261,36.3881579 C97.0697261,36.1828947 96.9961182,36.0039474 96.8508741,35.8559211 C96.70563,35.7072368 96.5301541,35.6322368 96.3290469,35.6322368" id="Fill-14" fill="#FFFFFF"></path>
            <polygon id="Fill-15" fill="#FFFFFF" points="95.7480704 42.9552632 96.9297397 42.9552632 96.9297397 37.9125 95.7480704 37.9125"></polygon>
            <path d="M100.432686,39.9697368 C100.272326,39.9223684 100.152056,39.8835526 100.055445,39.8473684 C99.7643001,39.7611842 99.5290177,39.6605263 99.3739154,39.5552632 C99.2260425,39.4703947 99.1511202,39.3605263 99.1511202,39.2276316 C99.1511202,39.1085526 99.2155271,39.0039474 99.3456553,38.9092105 C99.4889277,38.8157895 99.6414012,38.7717105 99.8260781,38.7717105 C100.127739,38.7717105 100.392596,38.8651316 100.612105,39.0493421 C100.713973,39.1361842 100.807955,39.25 100.924938,39.4282895 L100.946627,39.4618421 L101.653131,38.7625 L101.670218,38.7460526 L101.659703,38.7243421 C101.557835,38.5171053 101.413905,38.3381579 101.2312,38.1934211 C100.878934,37.9256579 100.423485,37.7901316 99.8760263,37.7901316 C99.3482841,37.7901316 98.9079513,37.9315789 98.5293965,38.2243421 C98.1396691,38.5289474 97.9497345,38.8809211 97.9497345,39.2993421 C97.9497345,39.5914474 98.0397727,39.8414474 98.2251068,40.0618421 C98.4025544,40.2967105 98.6825272,40.4815789 99.0558243,40.6125 C99.2976787,40.7092105 99.5835664,40.8197368 99.8747119,40.9072368 C100.081734,40.9809211 100.28087,41.0690789 100.465546,41.1690789 C100.612762,41.2625 100.690313,41.3940789 100.690313,41.5486842 C100.690313,41.7032895 100.614077,41.8269737 100.457003,41.9276316 C100.286127,42.0335526 100.083706,42.0855263 99.8365935,42.0855263 C99.5815948,42.0855263 99.3357971,42.0131579 99.1248316,41.8763158 C98.8967787,41.7394737 98.691071,41.5361842 98.4971931,41.2546053 L98.4748478,41.2210526 L97.7308825,41.9921053 L97.744684,42.0138158 C97.9306753,42.3131579 98.1626716,42.5467105 98.432129,42.7059211 C98.8152843,42.9526316 99.274019,43.0776316 99.7965035,43.0776316 C100.400482,43.0776316 100.893392,42.9256579 101.301522,42.6131579 C101.699793,42.3098684 101.902214,41.9414474 101.902214,41.5177632 C101.902214,41.1684211 101.775372,40.8559211 101.524317,40.5875 C101.27129,40.3407895 100.904565,40.1328947 100.432686,39.9697368" id="Fill-16" fill="#FFFFFF"></path>
            <path d="M106.645979,41.4855263 L106.611804,41.5125 C106.122837,41.8914474 105.65293,42.0756579 105.17645,42.0756579 C104.686827,42.0756579 104.285269,41.9144737 103.983609,41.5960526 C103.679319,41.2953947 103.524874,40.9059211 103.524874,40.4388158 C103.524874,39.9677632 103.679319,39.5717105 103.984266,39.2611842 C104.288555,38.95 104.689455,38.7921053 105.17645,38.7921053 C105.630585,38.7921053 106.107064,38.9815789 106.592088,39.3559211 L106.626263,39.3822368 L107.010075,38.4322368 L106.989702,38.4177632 C106.41924,38.0006579 105.809347,37.7901316 105.17645,37.7901316 C104.354277,37.7901316 103.672089,38.0493421 103.149605,38.5625 C102.614634,39.0789474 102.342547,39.7098684 102.342547,40.4388158 C102.342547,41.1638158 102.614634,41.7881579 103.149605,42.2940789 C103.668803,42.8138158 104.350333,43.0776316 105.17645,43.0776316 C105.856009,43.0776316 106.473132,42.8664474 107.010075,42.4493421 L107.030449,42.4348684 L106.661752,41.5263158 L106.645979,41.4855263" id="Fill-17" fill="#FFFFFF"></path>
            <path d="M110.386179,37.7901316 C110.099634,37.7901316 109.832148,37.8598684 109.592923,37.9980263 C109.372756,38.1289474 109.208453,38.2690789 109.094098,38.4256579 L109.094098,35.5 L107.92163,35.5 L107.92163,42.9552632 L109.094098,42.9552632 L109.094098,40.4184211 C109.094098,40.0039474 109.145361,39.6888158 109.251172,39.4552632 C109.343182,39.2440789 109.473967,39.0815789 109.638271,38.9697368 C109.801259,38.8519737 109.972792,38.7921053 110.147611,38.7921053 C110.47556,38.7921053 110.730559,38.9144737 110.906692,39.1526316 C111.069024,39.4223684 111.151175,39.8131579 111.151175,40.3164474 L111.151175,42.9552632 L112.323643,42.9552632 L112.323643,40.0315789 C112.323643,39.3697368 112.146196,38.8217105 111.796559,38.4013158 C111.429834,37.9953947 110.954668,37.7901316 110.386179,37.7901316" id="Fill-18" fill="#FFFFFF"></path>
            <path d="M114.724443,39.2085526 C114.981413,38.9263158 115.304762,38.7822368 115.686603,38.7822368 C116.066472,38.7822368 116.374705,38.9092105 116.629047,39.1684211 C116.862358,39.4263158 116.989857,39.7019737 117.016803,40.0092105 L114.378092,40.0092105 C114.420811,39.6875 114.537795,39.4184211 114.724443,39.2085526 Z M115.686603,37.7901316 C114.943295,37.7901316 114.330772,38.0401316 113.868094,38.5328947 C113.406074,39.0355263 113.171448,39.6802632 113.171448,40.4493421 C113.171448,41.2355263 113.436963,41.8736842 113.959447,42.3453947 C114.472073,42.8388158 115.135201,43.0776316 115.984978,43.0776316 C116.711199,43.0776316 117.348695,42.8388158 117.881038,42.3671053 L117.898125,42.3519737 L117.560975,41.4953947 L117.543888,41.4526316 L117.509055,41.4822368 C117.032576,41.8881579 116.544266,42.0855263 116.015867,42.0855263 C115.501269,42.0855263 115.104312,41.9447368 114.801337,41.6559211 C114.598915,41.4769737 114.464187,41.2440789 114.401094,40.9605263 L118.145895,40.9605263 L118.150495,40.9328947 C118.18467,40.7473684 118.201101,40.5657895 118.201101,40.3776316 C118.201101,39.6467105 117.966476,39.0256579 117.504455,38.5328947 C117.031261,38.0401316 116.420053,37.7901316 115.686603,37.7901316 L115.686603,37.7901316 Z" id="Fill-19" fill="#FFFFFF"></path>
            <path d="M121.294603,39.9697368 C121.133586,39.9223684 121.013973,39.8835526 120.916706,39.8473684 C120.62556,39.7611842 120.390935,39.6605263 120.235833,39.5552632 C120.087303,39.4703947 120.013037,39.3605263 120.013037,39.2276316 C120.013037,39.1085526 120.077444,39.0039474 120.207573,38.9092105 C120.350188,38.8157895 120.502661,38.7717105 120.687338,38.7717105 C120.989656,38.7717105 121.253856,38.8651316 121.473365,39.0493421 C121.57589,39.1361842 121.669872,39.25 121.786199,39.4282895 L121.807887,39.4618421 L122.515048,38.7625 L122.531478,38.7460526 L122.52162,38.7243421 C122.419752,38.5171053 122.275165,38.3381579 122.09246,38.1934211 C121.740851,37.9256579 121.284745,37.7901316 120.737944,37.7901316 C120.209544,37.7901316 119.769869,37.9315789 119.391314,38.2243421 C119.000929,38.5289474 118.810995,38.8809211 118.810995,39.2993421 C118.810995,39.5914474 118.901033,39.8414474 119.086367,40.0618421 C119.264472,40.2967105 119.544444,40.4815789 119.917742,40.6125 C120.158939,40.7092105 120.444826,40.8197368 120.736629,40.9072368 C120.942994,40.9809211 121.142787,41.0690789 121.327464,41.1690789 C121.474022,41.2625 121.552231,41.3940789 121.552231,41.5486842 C121.552231,41.7032895 121.475337,41.8269737 121.318263,41.9276316 C121.148045,42.0335526 120.944966,42.0855263 120.697854,42.0855263 C120.442855,42.0855263 120.197714,42.0131579 119.986749,41.8763158 C119.758039,41.7394737 119.552331,41.5361842 119.35911,41.2546053 L119.336108,41.2210526 L118.592143,41.9921053 L118.606601,42.0138158 C118.792593,42.3131579 119.023932,42.5467105 119.294046,42.7059211 C119.677202,42.9526316 120.135936,43.0776316 120.657764,43.0776316 C121.2624,43.0776316 121.754652,42.9256579 122.162782,42.6131579 C122.561053,42.3098684 122.763474,41.9414474 122.763474,41.5177632 C122.763474,41.1684211 122.636632,40.8559211 122.385577,40.5875 C122.13255,40.3407895 121.766482,40.1328947 121.294603,39.9697368" id="Fill-20" fill="#FFFFFF"></path>
            <polyline id="Fill-21" fill="#FFFFFF" points="131.900052 35.9578947 130.446296 35.9578947 127.673514 39.1296053 127.673514 35.9578947 126.471471 35.9578947 126.471471 42.9552632 127.673514 42.9552632 127.673514 39.7848684 130.38649 42.9434211 130.396348 42.9552632 131.888879 42.9552632 128.850583 39.4309211 131.851418 36.0125 131.900052 35.9578947"></polyline>
            <path d="M135.429286,40.4493421 C135.429286,40.8342105 135.376709,41.1578947 135.27287,41.4118421 C135.175602,41.6203947 135.04876,41.7796053 134.885771,41.8980263 C134.707666,42.0190789 134.545335,42.0756579 134.375774,42.0756579 C134.021536,42.0756579 133.777053,41.9539474 133.625236,41.7019737 C133.455018,41.4697368 133.372209,41.0934211 133.372209,40.5513158 L133.372209,37.9125 L132.199741,37.9125 L132.199741,40.8361842 C132.199741,41.5243421 132.380475,42.0723684 132.736027,42.4657895 C133.078435,42.8769737 133.53717,43.0776316 134.136548,43.0776316 C134.429008,43.0776316 134.712924,43.0006579 134.98041,42.8493421 C135.168373,42.7453947 135.332676,42.5868421 135.469376,42.3776316 L135.469376,42.9552632 L136.601755,42.9552632 L136.601755,37.9125 L135.429286,37.9125 L135.429286,40.4493421" id="Fill-22" fill="#FFFFFF"></path>
            <polygon id="Fill-23" fill="#FFFFFF" points="137.789339 42.9552632 138.96115 42.9552632 138.96115 35.5 137.789339 35.5"></polygon>
            <path d="M141.67084,36.3039474 L140.488513,36.3039474 L140.488513,37.9125 L139.651224,37.9125 L139.651224,38.8835526 L140.488513,38.8835526 L140.488513,41.4973684 C140.488513,41.9756579 140.612727,42.3401316 140.856553,42.5796053 C141.104979,42.8322368 141.487477,42.9552632 142.026392,42.9552632 L142.727639,42.9552632 L142.727639,41.9835526 L142.285991,41.9835526 C142.078969,41.9835526 141.929125,41.9427632 141.825942,41.8572368 C141.721445,41.7855263 141.67084,41.6315789 141.67084,41.3855263 L141.67084,38.8835526 L142.727639,38.8835526 L142.727639,37.9125 L141.67084,37.9125 L141.67084,36.3039474" id="Fill-24" fill="#FFFFFF"></path>
            <path d="M146.796445,40.4493421 C146.796445,40.8342105 146.743868,41.1578947 146.640028,41.4118421 C146.542104,41.6217105 146.415262,41.7802632 146.252273,41.8980263 C146.074825,42.0190789 145.912494,42.0756579 145.742933,42.0756579 C145.389352,42.0756579 145.144211,41.9539474 144.991738,41.7019737 C144.82152,41.4697368 144.739368,41.0934211 144.739368,40.5513158 L144.739368,37.9125 L143.5669,37.9125 L143.5669,40.8361842 C143.5669,41.5243421 143.746976,42.0723684 144.103186,42.4657895 C144.445594,42.8769737 144.903014,43.0776316 145.50305,43.0776316 C145.796167,43.0776316 146.080083,43.0006579 146.346911,42.8493421 C146.535532,42.7447368 146.699835,42.5861842 146.836535,42.3776316 L146.836535,42.9552632 L147.968913,42.9552632 L147.968913,37.9125 L146.796445,37.9125 L146.796445,40.4493421" id="Fill-25" fill="#FFFFFF"></path>
            <path d="M150.80676,38.0894737 C150.591851,38.2177632 150.418347,38.3756579 150.268502,38.5822368 L150.268502,37.9125 L149.156498,37.9125 L149.156498,42.9552632 L150.328309,42.9552632 L150.328309,40.6019737 C150.328309,40.0144737 150.449236,39.5953947 150.697663,39.3217105 C150.959233,39.0447368 151.319386,38.9039474 151.770234,38.9039474 L151.922708,38.9039474 L151.922708,37.8302632 L151.810324,37.8302632 C151.438999,37.8302632 151.101191,37.9177632 150.80676,38.0894737" id="Fill-26" fill="#FFFFFF"></path>
            <polyline id="Fill-27" fill="#FFFFFF" points="156.37927 38.7802632 156.3865 38.7703947 156.3865 37.9125 152.43402 37.9125 152.43402 38.8940789 154.878195 38.8940789 152.232255 42.0875 152.224369 42.0967105 152.224369 42.9552632 156.496254 42.9552632 156.496254 41.9736842 153.732673 41.9736842 156.37927 38.7802632"></polyline>
            <path d="M158.438976,39.2085526 C158.696604,38.9263158 159.019953,38.7822368 159.401136,38.7822368 C159.781006,38.7822368 160.089239,38.9092105 160.34358,39.1684211 C160.577548,39.4263158 160.705047,39.7019737 160.731336,40.0092105 L158.093282,40.0092105 C158.136658,39.6868421 158.252985,39.4177632 158.438976,39.2085526 Z M159.401136,37.7901316 C158.657828,37.7901316 158.045306,38.0401316 157.582628,38.5328947 C157.120607,39.0361842 156.886639,39.6809211 156.886639,40.4493421 C156.886639,41.2355263 157.151496,41.8736842 157.67398,42.3453947 C158.186606,42.8388158 158.849735,43.0776316 159.700826,43.0776316 C160.425732,43.0776316 161.063228,42.8388158 161.596228,42.3671053 L161.613973,42.3519737 L161.276166,41.4953947 L161.259078,41.4526316 L161.224246,41.4822368 C160.747109,41.8881579 160.258142,42.0855263 159.7304,42.0855263 C159.215802,42.0855263 158.818846,41.9447368 158.51587,41.6559211 C158.314106,41.4776316 158.179377,41.2440789 158.116285,40.9605263 L161.861085,40.9605263 L161.865028,40.9328947 C161.899204,40.7519737 161.916291,40.5651316 161.916291,40.3776316 C161.916291,39.6467105 161.681666,39.0256579 161.218988,38.5328947 C160.745794,38.0401316 160.134586,37.7901316 159.401136,37.7901316 L159.401136,37.7901316 Z" id="Fill-28" fill="#FFFFFF"></path>
            <path d="M165.229303,37.7901316 C164.932242,37.7901316 164.658842,37.8631579 164.415016,38.0085526 C164.194849,38.1388158 164.021345,38.2993421 163.897132,38.4868421 L163.897132,37.9125 L162.764753,37.9125 L162.764753,42.9552632 L163.936564,42.9552632 L163.936564,40.4184211 C163.936564,40.0046053 163.988484,39.6894737 164.092981,39.4552632 C164.186305,39.2440789 164.316434,39.0815789 164.481394,38.9697368 C164.644383,38.8519737 164.815258,38.7921053 164.990734,38.7921053 C165.318026,38.7921053 165.573682,38.9144737 165.749158,39.1526316 C165.91149,39.4223684 165.994299,39.8131579 165.994299,40.3164474 L165.994299,42.9552632 L167.16611,42.9552632 L167.16611,40.0315789 C167.16611,39.3697368 166.989319,38.8217105 166.639025,38.4013158 C166.272957,37.9953947 165.798449,37.7901316 165.229303,37.7901316" id="Fill-29" fill="#FFFFFF"></path>
            <path d="M169.735156,36.3039474 L168.553487,36.3039474 L168.553487,37.9125 L167.716197,37.9125 L167.716197,38.8835526 L168.553487,38.8835526 L168.553487,41.4973684 C168.553487,41.9756579 168.677043,42.3401316 168.920869,42.5796053 C169.169296,42.8322368 169.551794,42.9552632 170.091366,42.9552632 L170.791955,42.9552632 L170.791955,41.9835526 L170.350308,41.9835526 C170.143285,41.9835526 169.993441,41.9427632 169.890258,41.8572368 C169.785761,41.7855263 169.735156,41.6315789 169.735156,41.3855263 L169.735156,38.8835526 L170.791955,38.8835526 L170.791955,37.9125 L169.735156,37.9125 L169.735156,36.3039474" id="Fill-30" fill="#FFFFFF"></path>
            <path d="M173.282135,38.0894737 C173.067227,38.2177632 172.893722,38.3756579 172.743878,38.5822368 L172.743878,37.9125 L171.631216,37.9125 L171.631216,42.9552632 L172.803684,42.9552632 L172.803684,40.6019737 C172.803684,40.0144737 172.924611,39.5953947 173.173038,39.3217105 C173.434609,39.0447368 173.794762,38.9039474 174.24561,38.9039474 L174.398083,38.9039474 L174.398083,37.8302632 L174.2857,37.8302632 C173.913717,37.8302632 173.576567,37.9177632 173.282135,38.0894737" id="Fill-31" fill="#FFFFFF"></path>
            <path d="M178.307844,40.4493421 C178.307844,40.8342105 178.255267,41.1578947 178.151428,41.4118421 C178.053503,41.6217105 177.926661,41.7802632 177.763672,41.8980263 C177.586224,42.0190789 177.423893,42.0756579 177.254332,42.0756579 C176.900751,42.0756579 176.655611,41.9539474 176.503137,41.7019737 C176.332919,41.4697368 176.250767,41.0934211 176.250767,40.5513158 L176.250767,37.9125 L175.078299,37.9125 L175.078299,40.8361842 C175.078299,41.5243421 175.258375,42.0723684 175.614585,42.4657895 C175.956993,42.8769737 176.415071,43.0776316 177.014449,43.0776316 C177.307566,43.0776316 177.591482,43.0006579 177.858311,42.8493421 C178.046931,42.7447368 178.211234,42.5861842 178.347934,42.3776316 L178.347934,42.9552632 L179.480313,42.9552632 L179.480313,37.9125 L178.307844,37.9125 L178.307844,40.4493421" id="Fill-32" fill="#FFFFFF"></path>
            <path d="M187.244629,38.4026316 C186.917994,37.9960526 186.459916,37.7901316 185.883541,37.7901316 C185.500385,37.7901316 185.182294,37.8664474 184.937811,38.0197368 C184.699242,38.1815789 184.501421,38.3960526 184.350262,38.6578947 C184.053859,38.0815789 183.601039,37.7901316 183.002975,37.7901316 C182.461432,37.7901316 182.047387,38.0217105 181.769386,38.4802632 L181.769386,37.9125 L180.667897,37.9125 L180.667897,42.9552632 L181.82985,42.9552632 L181.82985,40.3776316 C181.82985,39.9493421 181.873226,39.6427632 181.96655,39.4144737 C182.05856,39.2052632 182.166343,39.0519737 182.295814,38.9480263 C182.427257,38.8447368 182.581702,38.7921053 182.753891,38.7921053 C183.045037,38.7921053 183.267175,38.9138158 183.412419,39.1513158 C183.550434,39.4138158 183.61747,39.7947368 183.61747,40.3164474 L183.61747,42.9552632 L184.78008,42.9552632 L184.78008,40.3164474 C184.78008,39.9223684 184.822141,39.6269737 184.907579,39.4131579 C184.982501,39.2217105 185.096199,39.0605263 185.234871,38.9486842 C185.379458,38.8434211 185.532589,38.7921053 185.704121,38.7921053 C186.004468,38.7921053 186.226606,38.9131579 186.363306,39.1513158 C186.500664,39.4144737 186.568357,39.7960526 186.568357,40.3164474 L186.568357,42.9552632 L187.73031,42.9552632 L187.73031,40.0315789 C187.73031,39.3532895 187.571921,38.8203947 187.244629,38.4026316" id="Fill-33" fill="#FFFFFF"></path>
        </g>
    </g>
</svg>