<?xml version="1.0" encoding="utf-8"?>
<!-- Generator: Adobe Illustrator 25.2.1, SVG Export Plug-In . SVG Version: 6.00 Build 0)  -->
<svg version="1.1" id="Ebene_1" xmlns="http://www.w3.org/2000/svg" xmlns:xlink="http://www.w3.org/1999/xlink" x="0px" y="0px"
	 viewBox="0 0 110.3 68.4" style="enable-background:new 0 0 110.3 68.4;" xml:space="preserve">
<style type="text/css">
	.st0{fill:#FFFFFF;}
	.st1{fill:#FFFFFF;stroke:#FFFFFF;stroke-width:0.6;}
</style>
<g>
	<path class="st0" d="M11.4,9.1V5.8h-6v3.2h2.2L4.5,25.3h1.9c1.1,0,2.2,0.3,3.5,0.3c4.6,0,7.3-5,7.3-8.9c0-3-1.3-4.4-2.8-4.4
		c-1.6,0-3.2,1.1-4.1,1.9L11.4,9.1z M9.9,17.1c0.6-0.7,1.8-1.3,2.5-1.3c0.9,0,1.2,0.8,1.2,1.5c0,1.7-1.3,5.4-3.5,5.4
		c-0.4,0-1.3-0.1-1.3-0.1L9.9,17.1z M22.5,18.1c0.3-1.7,1.5-2.9,2.4-2.9c0.5,0,0.9,0.2,0.9,0.9c0,0.9-0.9,1.9-2.2,1.9H22.5z
		 M24.2,20.2c3.6,0,5.5-1.6,5.5-4.3c0-2.4-1.6-3.7-4.2-3.7c-4.8,0-7.2,4.2-7.2,8c0,3.2,2,5.3,4.9,5.3c1.1,0,3.2-0.4,4.3-0.8v-2.6
		c-1.7,0.3-2.4,0.4-3.3,0.4c-1.6,0-2.1-1.2-2.1-2.4H24.2z"/>
</g>
<rect x="32.1" y="19.6" class="st0" width="2.3" height="10.3"/>
<rect x="36.9" y="19.6" class="st0" width="2.3" height="10.3"/>
<rect x="41.7" y="19.6" class="st0" width="2.3" height="10.3"/>
<rect x="32.1" y="15.1" class="st0" width="14.4" height="2.4"/>
<path class="st0" d="M43.5,12.1c0-0.9,0.7-1.7,1.7-1.7c0.9,0,1.7,0.7,1.7,1.7c0,0.9-0.7,1.7-1.7,1.7C44.3,13.7,43.5,13,43.5,12.1"/>
<g>
	<path class="st0" d="M65.8,16.3c-0.5,0-1.4,0-1.4,0v3.4c0,0,0.7,0,1.2,0c1.4-0.1,2.2-0.7,2.1-1.8C67.7,16.8,66.9,16.4,65.8,16.3z"
		/>
	<path class="st0" d="M67.6,13.5c0-0.9-0.7-1.4-1.4-1.4c-0.7,0-1.7,0-1.7,0v3.1c0,0,0.5,0,0.9,0C66.5,15.2,67.5,14.8,67.6,13.5z"/>
	<path class="st0" d="M73.5,14.6c-1.5,0-1.6,1.7-1.6,1.7h3C74.9,16.2,75,14.6,73.5,14.6z"/>
	<path class="st0" d="M51.2,5.8v9.3h7.1v2.4H46.4v12.5h2.3V19.7h2.5v10.3h2.3V19.7H56v10.3h2.3v-4.6h46V5.8H51.2z M88.5,10.9
		c0.5,0,0.9,0.4,0.9,0.9c0,0.5-0.4,0.9-0.9,0.9c-0.5,0-0.9-0.4-0.9-0.9C87.6,11.3,88,10.9,88.5,10.9z M65.4,20.8h-3.6V20l1.2-0.2V12
		c0,0-0.2,0-0.6-0.1c-0.3,0-0.5-0.1-0.5-0.1V11c0,0,0.6,0,1.4,0c0.7,0,1.4,0,2.3,0c1.7,0,3.5,0.2,3.5,2.3c0.1,1.8-1.7,2.3-1.7,2.3
		s2,0.3,1.9,2.4C69.1,21,65.4,20.8,65.4,20.8z M76.2,17.3h-4.5c0,0-0.2,2.6,2.1,2.6c1.2,0,2.1-0.4,2.1-0.4v1.1c0,0-1.1,0.4-1.9,0.4
		c-0.9,0-1.9-0.2-2.3-0.5c-1.1-0.8-1.3-2.2-1.3-3.1c0-1.1,0.3-3.6,3.1-3.7C76.7,13.6,76.2,17.3,76.2,17.3z M81.7,15.1
		c0,0-1-0.2-1.5,0.3c-0.7,0.7-0.6,2.3-0.6,2.3v3.2h-1.4v-6L77,14.6v-0.7c0,0,0.7,0,1.2-0.1c0.5,0,1.3,0,1.3,0v1.4
		c0,0,0.2-0.8,0.8-1.2c0.6-0.4,1.5-0.3,1.5-0.3V15.1z M85.6,20.8h-3.7V20l1.2-0.2v-8.3c0,0-0.3-0.1-0.5-0.1c-0.2,0-0.6-0.1-0.6-0.1
		v-0.7c0,0,0.9-0.1,1.4-0.1c0.5,0,1.2,0,1.2,0v9.3l1.2,0.2V20.8z M90.5,20.8h-3.8V20l1.2-0.2v-5l-1.2-0.2v-0.7
		c0.5,0,0.7-0.1,1.2-0.1c0.6,0,1.1,0,1.4,0v6l1.3,0.2V20.8z M98.3,15.8v5h-1.4V16c0,0,0.1-1.3-1.1-1.3c-1,0.1-1.5,0.8-1.8,1.4
		c-0.2,0.7-0.2,1.3-0.2,1.3v3.3h-1.4v-6l-1.2-0.1v-0.7c0,0,0.5,0,1.3-0.1c0.8,0,1.3,0,1.3,0v1.3c0,0,0.4-1.4,2.7-1.3
		C98.4,13.8,98.3,15.8,98.3,15.8z"/>
</g>
<path class="st0" d="M101.5,62.8c0.2-0.1,0.4-0.2,0.6-0.2h0.9v1.1c-0.1,0.1-0.3,0.1-0.4,0.2c-0.1,0.1-0.2,0.1-0.4,0.1
	c-0.1,0-0.2,0.1-0.4,0.1c-0.2,0-0.4-0.1-0.5-0.2c-0.1-0.1-0.2-0.3-0.2-0.5C101.3,63.1,101.3,62.9,101.5,62.8 M100.9,61.2
	c0.2,0,0.3-0.1,0.5-0.1c0.1,0,0.3-0.1,0.4-0.1c0.2,0,0.3,0,0.4,0c0.3,0,0.5,0.1,0.6,0.2c0.1,0.1,0.2,0.3,0.2,0.6v0.5h-0.9
	c-0.2,0-0.4,0-0.6,0.1c-0.2,0.1-0.3,0.1-0.4,0.3c-0.1,0.1-0.2,0.2-0.3,0.4c-0.1,0.2-0.1,0.3-0.1,0.5c0,0.2,0,0.3,0.1,0.5
	c0,0.1,0.1,0.3,0.2,0.4c0.1,0.1,0.2,0.2,0.4,0.3c0.1,0.1,0.3,0.1,0.5,0.1c0.1,0,0.3,0,0.4-0.1c0.1,0,0.3-0.1,0.4-0.2
	c0.1-0.1,0.3-0.1,0.4-0.2l0.1,0.4h0.4v-3c0-0.2,0-0.4-0.1-0.5c0-0.1-0.1-0.2-0.2-0.3c-0.1-0.1-0.2-0.1-0.4-0.2
	c-0.2,0-0.3-0.1-0.5-0.1c-0.2,0-0.4,0-0.6,0c-0.2,0-0.3,0.1-0.5,0.1c-0.2,0-0.3,0.1-0.5,0.1V61.2z M97.3,61.3
	c0.1-0.1,0.3-0.1,0.4-0.2c0.1,0,0.2-0.1,0.3-0.1c0.1,0,0.2-0.1,0.3-0.1c0.2,0,0.3,0,0.4,0.1c0.1,0.1,0.2,0.2,0.3,0.3
	c0.1,0.1,0.1,0.3,0.1,0.5c0,0.2,0,0.4,0,0.6c0,0.5-0.1,0.9-0.2,1.2c-0.2,0.3-0.4,0.4-0.6,0.4c-0.2,0-0.3,0-0.4-0.1
	c-0.1,0-0.2-0.1-0.3-0.2c-0.1-0.1-0.2-0.1-0.2-0.2V61.3z M96.7,60.5v5.6h0.6v-1.5l0-0.5c0.1,0.1,0.2,0.2,0.3,0.2
	c0.1,0.1,0.2,0.1,0.4,0.2c0.1,0,0.3,0.1,0.5,0.1c0.1,0,0.3,0,0.5-0.1c0.2-0.1,0.3-0.2,0.4-0.4c0.1-0.2,0.2-0.4,0.3-0.7
	c0.1-0.3,0.1-0.6,0.1-1c0-0.7-0.1-1.2-0.3-1.5c-0.2-0.3-0.6-0.5-1-0.5c-0.1,0-0.3,0-0.4,0.1c-0.1,0.1-0.3,0.1-0.4,0.2
	c-0.1,0.1-0.3,0.1-0.4,0.2l-0.1-0.4H96.7z M92.7,64.1c0.3,0.3,0.7,0.5,1.2,0.5c0.2,0,0.5,0,0.7-0.1c0.2-0.1,0.4-0.2,0.5-0.4
	c0.1-0.2,0.3-0.4,0.3-0.7c0.1-0.3,0.1-0.6,0.1-0.9c0-0.7-0.1-1.2-0.4-1.5c-0.3-0.3-0.7-0.5-1.2-0.5c-0.3,0-0.5,0-0.7,0.1
	c-0.2,0.1-0.4,0.2-0.5,0.4c-0.1,0.2-0.3,0.4-0.3,0.7c-0.1,0.3-0.1,0.6-0.1,0.9C92.2,63.3,92.4,63.8,92.7,64.1 M93.1,61.3
	c0.2-0.3,0.5-0.4,0.8-0.4c0.1,0,0.3,0,0.4,0.1c0.1,0.1,0.3,0.1,0.4,0.3c0.1,0.1,0.2,0.3,0.2,0.5c0.1,0.2,0.1,0.5,0.1,0.8
	c0,0.3,0,0.5-0.1,0.7c-0.1,0.2-0.1,0.4-0.2,0.5c-0.1,0.1-0.2,0.2-0.3,0.3c-0.1,0.1-0.3,0.1-0.4,0.1c-0.2,0-0.3,0-0.4-0.1
	c-0.1-0.1-0.2-0.1-0.3-0.3c-0.1-0.1-0.2-0.3-0.2-0.5c-0.1-0.2-0.1-0.5-0.1-0.8C92.8,62,92.9,61.6,93.1,61.3 M91.6,60.4
	c-0.2,0-0.4,0-0.5,0.1c-0.2,0.1-0.3,0.1-0.5,0.2c-0.2,0.1-0.3,0.2-0.5,0.2L90,60.5h-0.4v4h0.6v-3.2c0.1-0.1,0.3-0.1,0.4-0.2
	c0.1-0.1,0.3-0.1,0.4-0.1c0.2,0,0.3,0,0.5,0V60.4z M85.2,60.5v3c0,0.1,0,0.3,0,0.4c0,0.1,0.1,0.3,0.2,0.4c0.1,0.1,0.2,0.2,0.3,0.3
	c0.1,0.1,0.3,0.1,0.6,0.1c0.2,0,0.3,0,0.5-0.1c0.2,0,0.3-0.1,0.4-0.2c0.2-0.1,0.3-0.1,0.4-0.2l0.1,0.4h0.4v-4h-0.6v3.2
	c-0.1,0.1-0.3,0.2-0.4,0.2C87.1,64,87,64,86.8,64c-0.1,0-0.3,0.1-0.4,0.1c-0.1,0-0.2,0-0.3-0.1C86,64,86,64,85.9,63.9
	c0-0.1-0.1-0.2-0.1-0.3c0-0.1,0-0.2,0-0.3v-2.8H85.2z M81.3,64.5h2.7V64h-2.1v-2.1h1.9v-0.5h-1.9v-1.9h2v-0.5h-2.7V64.5z M77.4,63.7
	c-0.1,0.1-0.3,0.1-0.4,0.2c-0.1,0.1-0.2,0.1-0.3,0.1c-0.1,0-0.2,0.1-0.3,0.1c-0.2,0-0.3,0-0.4-0.1c-0.1-0.1-0.2-0.2-0.3-0.3
	c-0.1-0.1-0.1-0.3-0.1-0.5c0-0.2,0-0.4,0-0.6c0-0.5,0.1-0.9,0.2-1.2c0.2-0.3,0.4-0.4,0.6-0.4c0.2,0,0.3,0,0.4,0.1
	c0.1,0,0.2,0.1,0.3,0.2c0.1,0.1,0.2,0.1,0.2,0.2V63.7z M78,64.5v-6.1h-0.6v2l0,0.5c-0.1-0.1-0.2-0.2-0.3-0.2
	c-0.1-0.1-0.2-0.1-0.4-0.2c-0.1,0-0.3-0.1-0.5-0.1c-0.2,0-0.3,0-0.5,0.1c-0.2,0.1-0.3,0.2-0.4,0.4c-0.1,0.2-0.2,0.4-0.3,0.7
	c-0.1,0.3-0.1,0.6-0.1,1c0,0.7,0.1,1.2,0.3,1.5c0.2,0.3,0.6,0.5,1,0.5c0.1,0,0.3,0,0.4-0.1c0.1,0,0.3-0.1,0.4-0.2
	c0.1-0.1,0.3-0.1,0.4-0.2l0.1,0.4H78z M73.8,64.5v-3c0-0.1,0-0.3,0-0.4c0-0.1-0.1-0.3-0.2-0.4c-0.1-0.1-0.2-0.2-0.3-0.3
	c-0.1-0.1-0.3-0.1-0.6-0.1c-0.2,0-0.3,0-0.5,0.1c-0.2,0.1-0.3,0.1-0.4,0.2c-0.2,0.1-0.3,0.1-0.4,0.2l-0.1-0.4h-0.4v4h0.6v-3.2
	c0.1-0.1,0.3-0.1,0.4-0.2c0.1-0.1,0.2-0.1,0.4-0.1c0.1,0,0.3-0.1,0.4-0.1c0.1,0,0.2,0,0.3,0.1c0.1,0,0.1,0.1,0.2,0.2
	c0,0.1,0.1,0.2,0.1,0.3c0,0.1,0,0.2,0,0.3v2.8H73.8z M66.5,60.5v3c0,0.1,0,0.3,0,0.4c0,0.1,0.1,0.3,0.2,0.4c0.1,0.1,0.2,0.2,0.3,0.3
	c0.1,0.1,0.3,0.1,0.6,0.1c0.2,0,0.3,0,0.5-0.1c0.2,0,0.3-0.1,0.4-0.2c0.2-0.1,0.3-0.1,0.4-0.2l0.1,0.4h0.4v-4h-0.6v3.2
	c-0.1,0.1-0.3,0.2-0.4,0.2C68.4,64,68.3,64,68.1,64c-0.1,0-0.3,0.1-0.4,0.1c-0.1,0-0.2,0-0.3-0.1c-0.1,0-0.1-0.1-0.2-0.2
	c0-0.1-0.1-0.2-0.1-0.3c0-0.1,0-0.2,0-0.3v-2.8H66.5z M63.7,60.4c-0.2,0-0.4,0-0.5,0.1c-0.2,0.1-0.3,0.1-0.5,0.2
	c-0.2,0.1-0.3,0.2-0.5,0.2l-0.1-0.4h-0.4v4h0.6v-3.2c0.1-0.1,0.3-0.1,0.4-0.2c0.1-0.1,0.3-0.1,0.4-0.1c0.2,0,0.3,0,0.5,0V60.4z
	 M57.3,60.5v3c0,0.1,0,0.3,0,0.4c0,0.1,0.1,0.3,0.2,0.4c0.1,0.1,0.2,0.2,0.3,0.3c0.1,0.1,0.3,0.1,0.6,0.1c0.2,0,0.3,0,0.5-0.1
	c0.2,0,0.3-0.1,0.4-0.2c0.2-0.1,0.3-0.1,0.4-0.2l0.1,0.4h0.4v-4h-0.6v3.2c-0.1,0.1-0.3,0.2-0.4,0.2C59.2,64,59.1,64,58.9,64
	c-0.1,0-0.3,0.1-0.4,0.1c-0.1,0-0.2,0-0.3-0.1c-0.1,0-0.1-0.1-0.2-0.2c0-0.1-0.1-0.2-0.1-0.3c0-0.1,0-0.2,0-0.3v-2.8H57.3z M56.5,64
	c0,0-0.1,0-0.1,0c-0.1,0-0.2,0-0.3,0c-0.2,0-0.3,0-0.4-0.1c-0.1,0-0.2-0.1-0.2-0.2c0-0.1-0.1-0.2-0.1-0.3c0-0.1,0-0.3,0-0.4V61h1
	v-0.5h-1v-1.6h-0.6v1.6h-0.7V61h0.7v2.3c0,0.5,0.1,0.8,0.3,1c0.2,0.2,0.5,0.3,0.9,0.3c0.1,0,0.1,0,0.2,0c0.1,0,0.1,0,0.2,0
	c0.1,0,0.1,0,0.2,0V64z M53.2,58.4h-0.6v6.1h0.6V58.4z M48.2,60.5v3c0,0.1,0,0.3,0,0.4c0,0.1,0.1,0.3,0.2,0.4
	c0.1,0.1,0.2,0.2,0.3,0.3c0.1,0.1,0.3,0.1,0.6,0.1c0.2,0,0.3,0,0.5-0.1c0.2,0,0.3-0.1,0.4-0.2c0.2-0.1,0.3-0.1,0.4-0.2l0.1,0.4h0.4
	v-4h-0.6v3.2c-0.1,0.1-0.3,0.2-0.4,0.2C50.1,64,50,64,49.9,64c-0.1,0-0.3,0.1-0.4,0.1c-0.1,0-0.2,0-0.3-0.1C49,64,49,64,48.9,63.9
	c0-0.1-0.1-0.2-0.1-0.3c0-0.1,0-0.2,0-0.3v-2.8H48.2z M47.1,58.9h-0.7l-1.8,2.9v-2.9H44v5.6h0.6v-2l0.6-0.9c0.1,0.1,0.2,0.2,0.3,0.3
	c0.1,0.1,0.2,0.2,0.2,0.4c0.1,0.1,0.2,0.3,0.2,0.4l0.6,1.7h0.7l-0.7-1.9c-0.1-0.2-0.2-0.4-0.3-0.6c-0.1-0.2-0.2-0.3-0.3-0.4
	c-0.1-0.1-0.3-0.3-0.4-0.4L47.1,58.9z M41.1,60.4c-0.2,0-0.4,0-0.5,0.1c-0.2,0.1-0.3,0.1-0.5,0.2c-0.2,0.1-0.3,0.2-0.5,0.2l-0.1-0.4
	h-0.4v4h0.6v-3.2c0.1-0.1,0.3-0.1,0.4-0.2c0.1-0.1,0.3-0.1,0.4-0.1c0.2,0,0.3,0,0.5,0V60.4z M34.7,60.5v3c0,0.1,0,0.3,0,0.4
	c0,0.1,0.1,0.3,0.2,0.4c0.1,0.1,0.2,0.2,0.3,0.3c0.1,0.1,0.3,0.1,0.6,0.1c0.2,0,0.3,0,0.5-0.1c0.2,0,0.3-0.1,0.4-0.2
	c0.2-0.1,0.3-0.1,0.4-0.2l0.1,0.4h0.4v-4h-0.6v3.2c-0.1,0.1-0.3,0.2-0.4,0.2C36.6,64,36.5,64,36.4,64c-0.1,0-0.3,0.1-0.4,0.1
	c-0.1,0-0.2,0-0.3-0.1c-0.1,0-0.1-0.1-0.2-0.2c0-0.1-0.1-0.2-0.1-0.3c0-0.1,0-0.2,0-0.3v-2.8H34.7z M36.8,59.4
	c-0.1,0.1-0.1,0.2-0.1,0.3c0,0.1,0,0.2,0.1,0.3c0.1,0.1,0.2,0.1,0.3,0.1c0.1,0,0.2,0,0.3-0.1c0.1-0.1,0.1-0.2,0.1-0.3
	c0-0.1,0-0.2-0.1-0.3c-0.1-0.1-0.2-0.1-0.3-0.1C37,59.3,36.9,59.4,36.8,59.4 M35.1,59.4c-0.1,0.1-0.1,0.2-0.1,0.3
	c0,0.1,0,0.2,0.1,0.3c0.1,0.1,0.2,0.1,0.3,0.1c0.1,0,0.2,0,0.3-0.1c0.1-0.1,0.1-0.2,0.1-0.3c0-0.1,0-0.2-0.1-0.3
	c-0.1-0.1-0.2-0.1-0.3-0.1C35.2,59.3,35.1,59.4,35.1,59.4 M34.1,58.4c-0.1,0-0.1,0-0.2,0c0,0-0.1,0-0.2,0c-0.1,0-0.1,0-0.2,0
	c-0.4,0-0.7,0.1-0.9,0.3c-0.2,0.2-0.3,0.6-0.3,1v0.8h-0.7V61h0.7v3.5H33V61h1v-0.5h-1v-0.7c0-0.2,0-0.3,0-0.4c0-0.1,0-0.2,0.1-0.3
	c0-0.1,0.1-0.1,0.2-0.2c0.1,0,0.2-0.1,0.4-0.1c0,0,0.1,0,0.1,0c0,0,0.1,0,0.1,0c0,0,0.1,0,0.1,0V58.4z"/>
<path class="st0" d="M100.8,56.7c0.3,0.2,0.7,0.2,1.3,0.2c0.6,0,1.1-0.1,1.4-0.3c0.3-0.2,0.5-0.5,0.5-0.8c0-0.3-0.1-0.6-0.3-0.7
	c-0.2-0.1-0.5-0.2-0.9-0.2h-1c-0.2,0-0.4,0-0.4-0.1c-0.1-0.1-0.1-0.1-0.1-0.3c0-0.2,0.2-0.3,0.6-0.3h0.4c0.2,0,0.4,0,0.6-0.1
	c0.2-0.1,0.4-0.2,0.5-0.3c0.1-0.1,0.3-0.3,0.3-0.5c0.1-0.2,0.1-0.4,0.1-0.7v-1.4h-0.4l-0.1,0.4c-0.1-0.1-0.2-0.2-0.3-0.2
	c-0.1-0.1-0.2-0.1-0.4-0.2c-0.1-0.1-0.3-0.1-0.5-0.1c-0.2,0-0.3,0-0.5,0.1c-0.2,0.1-0.3,0.2-0.4,0.3c-0.1,0.1-0.2,0.3-0.3,0.5
	c-0.1,0.2-0.1,0.4-0.1,0.7c0,0.2,0,0.4,0.1,0.6c0.1,0.2,0.1,0.3,0.2,0.4c0.1,0.1,0.2,0.2,0.3,0.2c-0.1,0-0.2,0.1-0.3,0.1
	c-0.1,0-0.1,0.1-0.2,0.2c-0.1,0.1-0.1,0.2-0.1,0.4c0,0.1,0,0.2,0,0.2c0,0.1,0.1,0.1,0.1,0.2c0,0.1,0.1,0.1,0.1,0.1
	c-0.1,0.1-0.2,0.1-0.3,0.2c-0.1,0.1-0.1,0.2-0.2,0.3c-0.1,0.1-0.1,0.2-0.1,0.4C100.4,56.3,100.6,56.6,100.8,56.7 M101.4,55.4
	c0,0,0.1,0,0.1,0c0,0,0.1,0,0.1,0h1c0.1,0,0.2,0,0.3,0c0.1,0,0.2,0,0.3,0.1c0.1,0,0.1,0.1,0.2,0.2c0,0.1,0.1,0.2,0.1,0.3
	c0,0.1,0,0.2-0.1,0.3c-0.1,0.1-0.2,0.1-0.3,0.2c-0.1,0.1-0.3,0.1-0.4,0.1c-0.2,0-0.3,0-0.5,0c-0.2,0-0.3,0-0.5,0
	c-0.2,0-0.3-0.1-0.4-0.1c-0.1,0-0.2-0.1-0.3-0.2c-0.1-0.1-0.1-0.2-0.1-0.3c0-0.1,0-0.2,0.1-0.2c0-0.1,0.1-0.1,0.1-0.2
	c0.1-0.1,0.1-0.1,0.2-0.2C101.3,55.4,101.4,55.4,101.4,55.4 M101.3,52.3c0.1-0.1,0.1-0.2,0.2-0.3c0.1-0.1,0.2-0.1,0.3-0.2
	c0.1,0,0.2-0.1,0.3-0.1c0.2,0,0.3,0,0.5,0.1c0.1,0.1,0.2,0.1,0.3,0.2c0.1,0.1,0.2,0.1,0.3,0.2v0.6c0,0.4-0.1,0.6-0.3,0.8
	c-0.2,0.2-0.4,0.3-0.7,0.3c-0.3,0-0.5-0.1-0.7-0.3c-0.2-0.2-0.3-0.4-0.3-0.8C101.2,52.6,101.2,52.4,101.3,52.3 M99.5,55.3v-3
	c0-0.1,0-0.3,0-0.4c0-0.1-0.1-0.3-0.2-0.4c-0.1-0.1-0.2-0.2-0.3-0.3c-0.1-0.1-0.3-0.1-0.6-0.1c-0.2,0-0.3,0-0.5,0.1
	c-0.2,0.1-0.3,0.1-0.4,0.2c-0.2,0.1-0.3,0.1-0.4,0.2l-0.1-0.4h-0.4v4h0.6v-3.2c0.1-0.1,0.3-0.1,0.4-0.2c0.1-0.1,0.2-0.1,0.4-0.1
	c0.1,0,0.3-0.1,0.4-0.1c0.1,0,0.2,0,0.3,0.1c0.1,0,0.1,0.1,0.2,0.2c0,0.1,0.1,0.2,0.1,0.3c0,0.1,0,0.2,0,0.3v2.8H99.5z M92.1,51.3v3
	c0,0.1,0,0.3,0,0.4c0,0.1,0.1,0.3,0.2,0.4c0.1,0.1,0.2,0.2,0.3,0.3c0.1,0.1,0.3,0.1,0.6,0.1c0.2,0,0.3,0,0.5-0.1
	c0.2,0,0.3-0.1,0.4-0.2c0.2-0.1,0.3-0.1,0.4-0.2l0.1,0.4h0.4v-4h-0.6v3.2c-0.1,0.1-0.3,0.2-0.4,0.2c-0.1,0.1-0.2,0.1-0.4,0.1
	c-0.1,0-0.3,0.1-0.4,0.1c-0.1,0-0.2,0-0.3-0.1c-0.1,0-0.1-0.1-0.2-0.2c0-0.1-0.1-0.2-0.1-0.3c0-0.1,0-0.2,0-0.3v-2.8H92.1z
	 M91.3,54.8c0,0-0.1,0-0.1,0c-0.1,0-0.2,0-0.3,0c-0.2,0-0.3,0-0.4-0.1c-0.1,0-0.2-0.1-0.2-0.2c0-0.1-0.1-0.2-0.1-0.3
	c0-0.1,0-0.3,0-0.4v-2.2h1v-0.5h-1v-1.6h-0.6v1.6h-0.7v0.5h0.7V54c0,0.5,0.1,0.8,0.3,1c0.2,0.2,0.5,0.3,0.9,0.3c0.1,0,0.1,0,0.2,0
	c0.1,0,0.1,0,0.2,0c0.1,0,0.1,0,0.2,0V54.8z M88,49.2h-0.6v6.1H88V49.2z M84,53.6c0.2-0.1,0.4-0.2,0.6-0.2h0.9v1.1
	c-0.1,0.1-0.3,0.1-0.4,0.2c-0.1,0.1-0.2,0.1-0.4,0.1c-0.1,0-0.2,0.1-0.4,0.1c-0.2,0-0.4-0.1-0.5-0.2c-0.1-0.1-0.2-0.3-0.2-0.5
	C83.7,53.9,83.8,53.7,84,53.6 M83.3,52c0.2,0,0.3-0.1,0.5-0.1c0.1,0,0.3-0.1,0.4-0.1c0.2,0,0.3,0,0.4,0c0.3,0,0.5,0.1,0.6,0.2
	c0.1,0.1,0.2,0.3,0.2,0.6v0.5h-0.9c-0.2,0-0.4,0-0.6,0.1c-0.2,0.1-0.3,0.1-0.4,0.3c-0.1,0.1-0.2,0.2-0.3,0.4
	c-0.1,0.2-0.1,0.3-0.1,0.5c0,0.2,0,0.3,0.1,0.5c0,0.1,0.1,0.3,0.2,0.4c0.1,0.1,0.2,0.2,0.4,0.3c0.1,0.1,0.3,0.1,0.5,0.1
	c0.1,0,0.3,0,0.4-0.1c0.1,0,0.3-0.1,0.4-0.2c0.1-0.1,0.3-0.1,0.4-0.2l0.1,0.4h0.4v-3c0-0.2,0-0.4-0.1-0.5c0-0.1-0.1-0.2-0.2-0.3
	c-0.1-0.1-0.2-0.1-0.4-0.2c-0.2,0-0.3-0.1-0.5-0.1c-0.2,0-0.4,0-0.6,0c-0.2,0-0.3,0.1-0.5,0.1c-0.2,0-0.3,0.1-0.5,0.1V52z
	 M81.4,55.3c0.1-0.3,0.2-0.6,0.3-0.9c0.1-0.2,0.1-0.5,0.2-0.7c0.1-0.2,0.1-0.4,0.1-0.6l0.2-1.8h-0.6l-0.2,1.8c0,0.1,0,0.3-0.1,0.4
	c0,0.2-0.1,0.4-0.1,0.6c0,0.2-0.1,0.4-0.2,0.7l-0.9-3.5h-0.6l-0.9,3.5c-0.1-0.2-0.1-0.5-0.2-0.7c0-0.2-0.1-0.4-0.1-0.6
	c0-0.2-0.1-0.3-0.1-0.4l-0.2-1.8h-0.6l0.2,1.8c0,0.1,0.1,0.3,0.1,0.6c0.1,0.2,0.1,0.5,0.2,0.7c0.1,0.3,0.2,0.6,0.3,0.9h0.7l0.9-3.3
	l0.9,3.3H81.4z M76.8,51.2c-0.2,0-0.4,0-0.5,0.1c-0.2,0.1-0.3,0.1-0.5,0.2c-0.2,0.1-0.3,0.2-0.5,0.2l-0.1-0.4h-0.4v4h0.6v-3.2
	c0.1-0.1,0.3-0.1,0.4-0.2c0.1-0.1,0.3-0.1,0.4-0.1c0.2,0,0.3,0,0.5,0V51.2z M71.3,53.1c0-0.2,0-0.4,0.1-0.5c0-0.2,0.1-0.3,0.2-0.5
	c0.1-0.1,0.2-0.2,0.3-0.3c0.1-0.1,0.3-0.1,0.5-0.1c0.2,0,0.4,0.1,0.5,0.2c0.1,0.1,0.2,0.3,0.2,0.5c0,0.2-0.1,0.4-0.2,0.5
	c-0.2,0.1-0.4,0.2-0.7,0.2H71.3z M73.6,54.6c-0.1,0.1-0.3,0.1-0.4,0.1c-0.1,0-0.3,0.1-0.4,0.1c-0.1,0-0.3,0-0.4,0
	c-0.2,0-0.4,0-0.5-0.1c-0.1-0.1-0.2-0.2-0.3-0.3c-0.1-0.1-0.1-0.2-0.2-0.4c0-0.2-0.1-0.3-0.1-0.5h0.8c0.2,0,0.4,0,0.6,0
	c0.2,0,0.4-0.1,0.5-0.2c0.1-0.1,0.3-0.2,0.4-0.4c0.1-0.2,0.1-0.4,0.1-0.6c0-0.4-0.1-0.6-0.3-0.8c-0.2-0.2-0.5-0.3-0.9-0.3
	c-0.2,0-0.5,0-0.7,0.1c-0.2,0.1-0.4,0.2-0.5,0.4c-0.1,0.2-0.3,0.4-0.3,0.7c-0.1,0.3-0.1,0.6-0.1,0.9c0,0.6,0.1,1.1,0.4,1.5
	c0.2,0.4,0.6,0.5,1.2,0.5c0.2,0,0.4,0,0.5,0c0.2,0,0.3-0.1,0.4-0.1c0.1,0,0.3-0.1,0.4-0.1V54.6z M68.2,54.1
	c-0.1-0.2-0.1-0.4-0.2-0.6c-0.1-0.2-0.1-0.3-0.1-0.4l-0.4-1.8h-0.6l0.4,1.8c0,0.1,0.1,0.3,0.2,0.6c0.1,0.2,0.2,0.5,0.3,0.7
	c0.1,0.3,0.2,0.6,0.4,0.9h0.6c0.1-0.3,0.2-0.6,0.4-0.8c0.1-0.2,0.2-0.5,0.3-0.7c0.1-0.2,0.2-0.4,0.2-0.6l0.4-1.8h-0.6L69,53.1
	c0,0.1-0.1,0.3-0.1,0.5c-0.1,0.2-0.1,0.4-0.2,0.5c-0.1,0.2-0.2,0.4-0.2,0.7C68.4,54.6,68.3,54.4,68.2,54.1 M66,51.3
	c-0.1,0-0.2,0-0.3,0c-0.1,0-0.2,0-0.3,0c-0.1,0-0.2,0-0.4,0c-0.2,0-0.4,0-0.6,0.1c-0.2,0.1-0.3,0.1-0.4,0.2
	c-0.1,0.1-0.2,0.2-0.2,0.3c-0.1,0.1-0.1,0.3-0.1,0.4c0,0.2,0,0.4,0.1,0.6c0.1,0.1,0.2,0.3,0.4,0.3c0.1,0.1,0.3,0.2,0.5,0.2
	c0.2,0.1,0.3,0.1,0.5,0.2c0.1,0.1,0.3,0.1,0.4,0.2c0.1,0.1,0.1,0.2,0.1,0.4c0,0.1,0,0.1,0,0.2c0,0.1-0.1,0.1-0.1,0.2
	c-0.1,0.1-0.1,0.1-0.2,0.2c-0.1,0-0.2,0.1-0.4,0.1c-0.1,0-0.3,0-0.4,0c-0.1,0-0.3,0-0.4-0.1c-0.1,0-0.3-0.1-0.4-0.1v0.5
	c0.1,0,0.2,0.1,0.4,0.1c0.1,0,0.2,0,0.4,0.1c0.1,0,0.3,0,0.4,0c0.3,0,0.5,0,0.6-0.1c0.2-0.1,0.3-0.2,0.4-0.3
	c0.1-0.1,0.2-0.2,0.2-0.4c0-0.1,0.1-0.3,0.1-0.4c0-0.3,0-0.5-0.1-0.6c-0.1-0.2-0.2-0.3-0.4-0.4c-0.1-0.1-0.3-0.2-0.5-0.2
	c-0.2-0.1-0.3-0.1-0.5-0.2c-0.1-0.1-0.3-0.1-0.4-0.2c-0.1-0.1-0.1-0.2-0.1-0.4c0-0.1,0.1-0.3,0.2-0.4c0.1-0.1,0.3-0.2,0.6-0.2
	c0.1,0,0.2,0,0.4,0l0.3,0c0.1,0,0.2,0,0.3,0.1V51.3z M63.1,54.8c0,0-0.1,0-0.1,0c-0.1,0-0.2,0-0.3,0c-0.2,0-0.3,0-0.4-0.1
	c-0.1,0-0.2-0.1-0.2-0.2c0-0.1-0.1-0.2-0.1-0.3c0-0.1,0-0.3,0-0.4v-2.2h1v-0.5h-1v-1.6h-0.6v1.6h-0.7v0.5h0.7V54
	c0,0.5,0.1,0.8,0.3,1c0.2,0.2,0.5,0.3,0.9,0.3c0.1,0,0.1,0,0.2,0c0.1,0,0.1,0,0.2,0c0.1,0,0.1,0,0.2,0V54.8z M57.7,53.6
	c0.2-0.1,0.4-0.2,0.6-0.2h0.9v1.1c-0.1,0.1-0.3,0.1-0.4,0.2c-0.1,0.1-0.2,0.1-0.4,0.1c-0.1,0-0.2,0.1-0.4,0.1
	c-0.2,0-0.4-0.1-0.5-0.2c-0.1-0.1-0.2-0.3-0.2-0.5C57.4,53.9,57.5,53.7,57.7,53.6 M57.1,52c0.2,0,0.3-0.1,0.5-0.1
	c0.1,0,0.3-0.1,0.4-0.1c0.2,0,0.3,0,0.4,0c0.3,0,0.5,0.1,0.6,0.2c0.1,0.1,0.2,0.3,0.2,0.6v0.5h-0.9c-0.2,0-0.4,0-0.6,0.1
	c-0.2,0.1-0.3,0.1-0.4,0.3c-0.1,0.1-0.2,0.2-0.3,0.4c-0.1,0.2-0.1,0.3-0.1,0.5c0,0.2,0,0.3,0.1,0.5c0,0.1,0.1,0.3,0.2,0.4
	c0.1,0.1,0.2,0.2,0.4,0.3c0.1,0.1,0.3,0.1,0.5,0.1c0.1,0,0.3,0,0.4-0.1c0.1,0,0.3-0.1,0.4-0.2c0.1-0.1,0.3-0.1,0.4-0.2l0.1,0.4h0.4
	v-3c0-0.2,0-0.4-0.1-0.5c0-0.1-0.1-0.2-0.2-0.3c-0.1-0.1-0.2-0.1-0.4-0.2c-0.2,0-0.3-0.1-0.5-0.1c-0.2,0-0.4,0-0.6,0
	c-0.2,0-0.3,0.1-0.5,0.1c-0.2,0-0.3,0.1-0.5,0.1V52z M55.7,55.3v-3c0-0.1,0-0.3,0-0.4c0-0.1-0.1-0.3-0.2-0.4
	c-0.1-0.1-0.2-0.2-0.3-0.3c-0.1-0.1-0.3-0.1-0.6-0.1c-0.2,0-0.3,0-0.5,0.1c-0.2,0.1-0.3,0.1-0.4,0.2c-0.2,0.1-0.3,0.1-0.4,0.2
	l-0.1-0.4h-0.4v4h0.6v-3.2c0.1-0.1,0.3-0.1,0.4-0.2c0.1-0.1,0.2-0.1,0.4-0.1c0.1,0,0.3-0.1,0.4-0.1c0.1,0,0.2,0,0.3,0.1
	c0.1,0,0.1,0.1,0.2,0.2c0,0.1,0.1,0.2,0.1,0.3c0,0.1,0,0.2,0,0.3v2.8H55.7z M49.1,53.1c0-0.2,0-0.4,0.1-0.5c0.1-0.2,0.1-0.3,0.2-0.5
	c0.1-0.1,0.2-0.2,0.3-0.3c0.1-0.1,0.3-0.1,0.5-0.1c0.2,0,0.4,0.1,0.5,0.2c0.1,0.1,0.2,0.3,0.2,0.5c0,0.2-0.1,0.4-0.2,0.5
	c-0.2,0.1-0.4,0.2-0.7,0.2H49.1z M51.4,54.6c-0.1,0.1-0.3,0.1-0.4,0.1c-0.1,0-0.3,0.1-0.4,0.1c-0.1,0-0.3,0-0.4,0
	c-0.2,0-0.4,0-0.5-0.1c-0.1-0.1-0.2-0.2-0.3-0.3c-0.1-0.1-0.1-0.2-0.2-0.4c0-0.2-0.1-0.3-0.1-0.5h0.8c0.2,0,0.4,0,0.6,0
	c0.2,0,0.4-0.1,0.5-0.2c0.1-0.1,0.3-0.2,0.4-0.4c0.1-0.2,0.1-0.4,0.1-0.6c0-0.4-0.1-0.6-0.3-0.8c-0.2-0.2-0.5-0.3-0.9-0.3
	c-0.2,0-0.5,0-0.7,0.1c-0.2,0.1-0.4,0.2-0.5,0.4c-0.1,0.2-0.3,0.4-0.3,0.7c-0.1,0.3-0.1,0.6-0.1,0.9c0,0.6,0.1,1.1,0.4,1.5
	c0.2,0.4,0.6,0.5,1.2,0.5c0.2,0,0.4,0,0.5,0c0.2,0,0.3-0.1,0.4-0.1c0.1,0,0.3-0.1,0.4-0.1V54.6z M47.5,49.7c-0.1,0-0.3,0-0.4-0.1
	c-0.1,0-0.2,0-0.4,0c-0.1,0-0.3,0-0.4,0c-0.3,0-0.5,0-0.7,0.1c-0.2,0.1-0.4,0.2-0.5,0.3c-0.1,0.1-0.2,0.3-0.3,0.5
	c-0.1,0.2-0.1,0.4-0.1,0.6c0,0.3,0.1,0.6,0.2,0.8c0.1,0.2,0.3,0.4,0.4,0.5c0.2,0.1,0.4,0.2,0.6,0.3c0.2,0.1,0.4,0.2,0.6,0.3
	c0.2,0.1,0.3,0.2,0.4,0.4c0.1,0.1,0.2,0.3,0.2,0.5c0,0.3-0.1,0.5-0.3,0.7c-0.2,0.2-0.5,0.3-0.8,0.3c-0.1,0-0.3,0-0.4,0
	c-0.1,0-0.3,0-0.4-0.1c-0.1,0-0.3-0.1-0.4-0.1v0.6c0.1,0,0.3,0.1,0.4,0.1c0.1,0,0.3,0,0.4,0.1c0.1,0,0.3,0,0.4,0
	c0.3,0,0.6,0,0.8-0.1c0.2-0.1,0.4-0.2,0.5-0.3c0.1-0.1,0.2-0.3,0.3-0.5c0.1-0.2,0.1-0.4,0.1-0.6c0-0.3-0.1-0.6-0.2-0.7
	c-0.1-0.2-0.3-0.3-0.4-0.5c-0.2-0.1-0.4-0.2-0.6-0.3c-0.2-0.1-0.4-0.2-0.6-0.3c-0.2-0.1-0.3-0.2-0.4-0.4c-0.1-0.1-0.2-0.3-0.2-0.6
	c0-0.3,0.1-0.5,0.3-0.6c0.2-0.2,0.4-0.2,0.8-0.2c0.1,0,0.2,0,0.4,0c0.1,0,0.3,0,0.4,0c0.1,0,0.3,0,0.4,0.1V49.7z"/>
<line class="st1" x1="4.5" y1="41.6" x2="104.3" y2="41.6"/>
</svg>
