<svg
  version="1.1"
  id="Ebene_1"
  xmlns="http://www.w3.org/2000/svg"
  x="0"
  y="0"
  viewBox="0 0 110.3 68.4"
  style="enable-background: new 0 0 110.3 68.4"
  xml:space="preserve"
>
  <style>
    .st0 {
      fill: #fff;
    }
  </style>
  <path
    class="st0"
    d="M11.4 9.1V5.8h-6V9h2.2L4.5 25.3h1.9c1.1 0 2.2.3 3.5.3 4.6 0 7.3-5 7.3-8.9 0-3-1.3-4.4-2.8-4.4-1.6 0-3.2 1.1-4.1 1.9l1.1-5.1zm-1.5 8c.6-.7 1.8-1.3 2.5-1.3.9 0 1.2.8 1.2 1.5 0 1.7-1.3 5.4-3.5 5.4-.4 0-1.3-.1-1.3-.1l1.1-5.5zm12.6 1c.3-1.7 1.5-2.9 2.4-2.9.5 0 .9.2.9.9 0 .9-.9 1.9-2.2 1.9h-1.1zm1.7 2.1c3.6 0 5.5-1.6 5.5-4.3 0-2.4-1.6-3.7-4.2-3.7-4.8 0-7.2 4.2-7.2 8 0 3.2 2 5.3 4.9 5.3 1.1 0 3.2-.4 4.3-.8v-2.6c-1.7.3-2.4.4-3.3.4-1.6 0-2.1-1.2-2.1-2.4h2.1zM32.1 19.6h2.3v10.3h-2.3zM36.9 19.6h2.3v10.3h-2.3zM41.7 19.6H44v10.3h-2.3zM32.1 15.1h14.4v2.4H32.1zM43.5 12.1c0-.9.7-1.7 1.7-1.7.9 0 1.7.7 1.7 1.7 0 .9-.7 1.7-1.7 1.7-.9-.1-1.7-.8-1.7-1.7M65.8 16.3h-1.4v3.4h1.2c1.4-.1 2.2-.7 2.1-1.8 0-1.1-.8-1.5-1.9-1.6zM67.6 13.5c0-.9-.7-1.4-1.4-1.4h-1.7v3.1h.9c1.1 0 2.1-.4 2.2-1.7zM73.5 14.6c-1.5 0-1.6 1.7-1.6 1.7h3c0-.1.1-1.7-1.4-1.7z"
  />
  <path
    class="st0"
    d="M51.2 5.8v9.3h7.1v2.4H46.4V30h2.3V19.7h2.5V30h2.3V19.7H56V30h2.3v-4.6h46V5.8H51.2zm37.3 5.1c.5 0 .9.4.9.9s-.4.9-.9.9-.9-.4-.9-.9.4-.9.9-.9zm-23.1 9.9h-3.6V20l1.2-.2V12s-.2 0-.6-.1c-.3 0-.5-.1-.5-.1V11H65.6c1.7 0 3.5.2 3.5 2.3.1 1.8-1.7 2.3-1.7 2.3s2 .3 1.9 2.4c-.2 3-3.9 2.8-3.9 2.8zm10.8-3.5h-4.5s-.2 2.6 2.1 2.6c1.2 0 2.1-.4 2.1-.4v1.1s-1.1.4-1.9.4c-.9 0-1.9-.2-2.3-.5-1.1-.8-1.3-2.2-1.3-3.1 0-1.1.3-3.6 3.1-3.7 3.2-.1 2.7 3.6 2.7 3.6zm5.5-2.2s-1-.2-1.5.3c-.7.7-.6 2.3-.6 2.3v3.2h-1.4v-6l-1.2-.3v-.7s.7 0 1.2-.1h1.3v1.4s.2-.8.8-1.2c.6-.4 1.5-.3 1.5-.3v1.4zm3.9 5.7h-3.7V20l1.2-.2v-8.3s-.3-.1-.5-.1-.6-.1-.6-.1v-.7s.9-.1 1.4-.1h1.2v9.3l1.2.2v.8zm4.9 0h-3.8V20l1.2-.2v-5l-1.2-.2v-.7c.5 0 .7-.1 1.2-.1h1.4v6l1.3.2v.8zm7.8-5v5h-1.4V16s.1-1.3-1.1-1.3c-1 .1-1.5.8-1.8 1.4-.2.7-.2 1.3-.2 1.3v3.3h-1.4v-6l-1.2-.1v-.7s.5 0 1.3-.1h1.3v1.3s.4-1.4 2.7-1.3c1.9 0 1.8 2 1.8 2zM101.5 62.8c.2-.1.4-.2.6-.2h.9v1.1c-.1.1-.3.1-.4.2-.1.1-.2.1-.4.1-.1 0-.2.1-.4.1s-.4-.1-.5-.2c-.1-.1-.2-.3-.2-.5.2-.3.2-.5.4-.6m-.6-1.6c.2 0 .3-.1.5-.1.1 0 .3-.1.4-.1h.4c.3 0 .5.1.6.2.1.1.2.3.2.6v.5h-.9c-.2 0-.4 0-.6.1-.2.1-.3.1-.4.3-.1.1-.2.2-.3.4-.1.2-.1.3-.1.5s0 .3.1.5c0 .1.1.3.2.4.1.1.2.2.4.3.1.1.3.1.5.1.1 0 .3 0 .4-.1.1 0 .3-.1.4-.2.1-.1.3-.1.4-.2l.1.4h.4v-3c0-.2 0-.4-.1-.5 0-.1-.1-.2-.2-.3-.1-.1-.2-.1-.4-.2-.2 0-.3-.1-.5-.1h-.6c-.2 0-.3.1-.5.1s-.3.1-.5.1v.3zm-3.6.1c.1-.1.3-.1.4-.2.1 0 .2-.1.3-.1.1 0 .2-.1.3-.1.2 0 .3 0 .4.1l.3.3c.1.1.1.3.1.5v.6c0 .5-.1.9-.2 1.2-.2.3-.4.4-.6.4-.2 0-.3 0-.4-.1-.1 0-.2-.1-.3-.2-.1-.1-.2-.1-.2-.2v-2.2zm-.6-.8v5.6h.6v-2c.1.1.2.2.3.2.1.1.2.1.4.2.1 0 .3.1.5.1.1 0 .3 0 .5-.1s.3-.2.4-.4c.1-.2.2-.4.3-.7.1-.3.1-.6.1-1 0-.7-.1-1.2-.3-1.5-.2-.3-.6-.5-1-.5-.1 0-.3 0-.4.1-.1.1-.3.1-.4.2-.1.1-.3.1-.4.2l-.1-.4h-.5zm-4 3.6c.3.3.7.5 1.2.5.2 0 .5 0 .7-.1.2-.1.4-.2.5-.4.1-.2.3-.4.3-.7.1-.3.1-.6.1-.9 0-.7-.1-1.2-.4-1.5-.3-.3-.7-.5-1.2-.5-.3 0-.5 0-.7.1-.2.1-.4.2-.5.4-.1.2-.3.4-.3.7-.1.3-.1.6-.1.9-.1.7.1 1.2.4 1.5m.4-2.8c.2-.3.5-.4.8-.4.1 0 .3 0 .4.1.1.1.3.1.4.3.1.1.2.3.2.5.1.2.1.5.1.8 0 .3 0 .5-.1.7-.1.2-.1.4-.2.5l-.3.3c-.1.1-.3.1-.4.1-.2 0-.3 0-.4-.1-.1-.1-.2-.1-.3-.3-.1-.1-.2-.3-.2-.5-.1-.2-.1-.5-.1-.8-.2-.5-.1-.9.1-1.2m-1.5-.9c-.2 0-.4 0-.5.1-.2.1-.3.1-.5.2s-.3.2-.5.2l-.1-.4h-.4v4h.6v-3.2c.1-.1.3-.1.4-.2.1-.1.3-.1.4-.1h.5v-.6zm-6.4.1v3.4c0 .1.1.3.2.4l.3.3c.1.1.3.1.6.1.2 0 .3 0 .5-.1.2 0 .3-.1.4-.2.2-.1.3-.1.4-.2l.1.4h.4v-4h-.6v3.2c-.1.1-.3.2-.4.2h-.3c-.1 0-.3.1-.4.1-.1 0-.2 0-.3-.1-.1 0-.1 0-.2-.1 0-.1-.1-.2-.1-.3V60.5h-.6zm-3.9 4H84V64h-2.1v-2.1h1.9v-.5h-1.9v-1.9h2V59h-2.7v5.5zm-3.9-.8c-.1.1-.3.1-.4.2-.1.1-.2.1-.3.1-.1 0-.2.1-.3.1-.2 0-.3 0-.4-.1l-.3-.3c-.1-.1-.1-.3-.1-.5v-.6c0-.5.1-.9.2-1.2.2-.3.4-.4.6-.4.2 0 .3 0 .4.1.1 0 .2.1.3.2.1.1.2.1.2.2v2.2zm.6.8v-6.1h-.6v2.5c-.1-.1-.2-.2-.3-.2-.1-.1-.2-.1-.4-.2-.1 0-.3-.1-.5-.1s-.3 0-.5.1-.3.2-.4.4c-.1.2-.2.4-.3.7-.1.3-.1.6-.1 1 0 .7.1 1.2.3 1.5.2.3.6.5 1 .5.1 0 .3 0 .4-.1.1 0 .3-.1.4-.2.1-.1.3-.1.4-.2l.1.4h.5zm-4.2 0v-3.4c0-.1-.1-.3-.2-.4l-.3-.3c-.1-.1-.3-.1-.6-.1-.2 0-.3 0-.5.1s-.3.1-.4.2c-.2.1-.3.1-.4.2l-.1-.4h-.4v4h.6v-3.2c.1-.1.3-.1.4-.2.1-.1.2-.1.4-.1.1 0 .3-.1.4-.1.1 0 .2 0 .3.1.1 0 .1.1.2.2 0 .1.1.2.1.3V64.5h.5zm-7.3-4v3.4c0 .1.1.3.2.4l.3.3c.1.1.3.1.6.1.2 0 .3 0 .5-.1.2 0 .3-.1.4-.2.2-.1.3-.1.4-.2l.1.4h.4v-4h-.6v3.2c-.1.1-.3.2-.4.2h-.3c-.1 0-.3.1-.4.1-.1 0-.2 0-.3-.1-.1 0-.1-.1-.2-.2 0-.1-.1-.2-.1-.3V60.4h-.6zm-2.8-.1c-.2 0-.4 0-.5.1-.2.1-.3.1-.5.2s-.3.2-.5.2l-.1-.4h-.4v4h.6v-3.2c.1-.1.3-.1.4-.2.1-.1.3-.1.4-.1h.5v-.6zm-6.4.1v3.4c0 .1.1.3.2.4l.3.3c.1.1.3.1.6.1.2 0 .3 0 .5-.1.2 0 .3-.1.4-.2.2-.1.3-.1.4-.2l.1.4h.4v-4h-.6v3.2c-.1.1-.3.2-.4.2h-.3c-.1 0-.3.1-.4.1-.1 0-.2 0-.3-.1-.1 0-.1-.1-.2-.2 0-.1-.1-.2-.1-.3V60.4h-.6zm-.8 3.5h-.4c-.2 0-.3 0-.4-.1-.1 0-.2-.1-.2-.2s-.1-.2-.1-.3V61h1v-.5h-1v-1.6h-.6v1.6h-.7v.5h.7v2.3c0 .5.1.8.3 1 .2.2.5.3.9.3H56.6V64zm-3.3-5.6h-.6v6.1h.6v-6.1zm-5 2.1v3.4c0 .1.1.3.2.4l.3.3c.1.1.3.1.6.1.2 0 .3 0 .5-.1.2 0 .3-.1.4-.2.2-.1.3-.1.4-.2l.1.4h.4v-4h-.6v3.2c-.1.1-.3.2-.4.2h-.2c-.1 0-.3.1-.4.1-.1 0-.2 0-.3-.1-.2 0-.2 0-.3-.1 0-.1-.1-.2-.1-.3V60.5h-.6zm-1.1-1.6h-.7l-1.8 2.9v-2.9H44v5.6h.6v-2l.6-.9.3.3c.1.1.2.2.2.4.1.1.2.3.2.4l.6 1.7h.7l-.7-1.9-.3-.6c-.1-.2-.2-.3-.3-.4l-.4-.4 1.6-2.2zm-6 1.5c-.2 0-.4 0-.5.1-.2.1-.3.1-.5.2s-.3.2-.5.2l-.1-.4h-.4v4h.6v-3.2c.1-.1.3-.1.4-.2.1-.1.3-.1.4-.1h.5v-.6zm-6.4.1v3.4c0 .1.1.3.2.4l.3.3c.1.1.3.1.6.1.2 0 .3 0 .5-.1.2 0 .3-.1.4-.2.2-.1.3-.1.4-.2l.1.4h.4v-4H37v3.2c-.1.1-.3.2-.4.2h-.2c-.1 0-.3.1-.4.1-.1 0-.2 0-.3-.1-.1 0-.1-.1-.2-.2 0-.1-.1-.2-.1-.3V60.4h-.7zm2.1-1.1c-.1.1-.1.2-.1.3 0 .1 0 .2.1.3.1.1.2.1.3.1.1 0 .2 0 .3-.1.1-.1.1-.2.1-.3 0-.1 0-.2-.1-.3-.1-.1-.2-.1-.3-.1-.1 0-.2.1-.3.1m-1.7 0c-.1.1-.1.2-.1.3 0 .1 0 .2.1.3.1.1.2.1.3.1.1 0 .2 0 .3-.1.1-.1.1-.2.1-.3 0-.1 0-.2-.1-.3-.1-.1-.2-.1-.3-.1-.2 0-.3.1-.3.1m-1-1H33.5c-.4 0-.7.1-.9.3-.2.2-.3.6-.3 1v.8h-.7v.5h.7v3.5h.7V61h1v-.5h-1v-1.1c0-.1 0-.2.1-.3 0-.1.1-.1.2-.2.1 0 .2-.1.4-.1H34v-.4zM100.8 56.7c.3.2.7.2 1.3.2.6 0 1.1-.1 1.4-.3.3-.2.5-.5.5-.8 0-.3-.1-.6-.3-.7-.2-.1-.5-.2-.9-.2h-1c-.2 0-.4 0-.4-.1-.1-.1-.1-.1-.1-.3 0-.2.2-.3.6-.3h.4c.2 0 .4 0 .6-.1.2-.1.4-.2.5-.3.1-.1.3-.3.3-.5.1-.2.1-.4.1-.7v-1.4h-.4l-.1.4c-.1-.1-.2-.2-.3-.2-.1-.1-.2-.1-.4-.2-.1-.1-.3-.1-.5-.1s-.3 0-.5.1-.3.2-.4.3c-.1.1-.2.3-.3.5-.1.2-.1.4-.1.7 0 .2 0 .4.1.6.1.2.1.3.2.4.1.1.2.2.3.2-.1 0-.2.1-.3.1-.1 0-.1.1-.2.2s-.1.2-.1.4v.2c0 .1.1.1.1.2s.1.1.1.1c-.1.1-.2.1-.3.2-.1.1-.1.2-.2.3-.1.1-.1.2-.1.4 0 .3.2.6.4.7m.6-1.3h1.5c.1 0 .2 0 .3.1.1 0 .1.1.2.2 0 .1.1.2.1.3 0 .1 0 .2-.1.3-.1.1-.2.1-.3.2-.1.1-.3.1-.4.1h-1c-.2 0-.3-.1-.4-.1-.1 0-.2-.1-.3-.2-.1-.1-.1-.2-.1-.3 0-.1 0-.2.1-.2 0-.1.1-.1.1-.2l.2-.2h.1m-.1-3.1c.1-.1.1-.2.2-.3.1-.1.2-.1.3-.2.1 0 .2-.1.3-.1.2 0 .3 0 .5.1.1.1.2.1.3.2.1.1.2.1.3.2v.6c0 .4-.1.6-.3.8-.2.2-.4.3-.7.3-.3 0-.5-.1-.7-.3-.2-.2-.3-.4-.3-.8 0-.2 0-.4.1-.5m-1.8 3v-3.4c0-.1-.1-.3-.2-.4l-.3-.3c-.1-.1-.3-.1-.6-.1-.2 0-.3 0-.5.1s-.3.1-.4.2c-.2.1-.3.1-.4.2l-.1-.4h-.4v4h.6V52c.1-.1.3-.1.4-.2.1-.1.2-.1.4-.1.1 0 .3-.1.4-.1.1 0 .2 0 .3.1.1 0 .1.1.2.2 0 .1.1.2.1.3V55.3h.5zm-7.4-4v3.4c0 .1.1.3.2.4l.3.3c.1.1.3.1.6.1.2 0 .3 0 .5-.1.2 0 .3-.1.4-.2.2-.1.3-.1.4-.2l.1.4h.4v-4h-.6v3.2c-.1.1-.3.2-.4.2-.1.1-.2.1-.4.1-.1 0-.3.1-.4.1-.1 0-.2 0-.3-.1-.1 0-.1-.1-.2-.2 0-.1-.1-.2-.1-.3V51.3h-.5zm-.8 3.5h-.4c-.2 0-.3 0-.4-.1-.1 0-.2-.1-.2-.2s-.1-.2-.1-.3v-2.6h1v-.5h-1v-1.6h-.6v1.6h-.7v.5h.7V54c0 .5.1.8.3 1 .2.2.5.3.9.3H91.4v-.5zM88 49.2h-.6v6.1h.6v-6.1zm-4 4.4c.2-.1.4-.2.6-.2h.9v1.1c-.1.1-.3.1-.4.2-.1.1-.2.1-.4.1-.1 0-.2.1-.4.1s-.4-.1-.5-.2c-.1-.1-.2-.3-.2-.5.1-.3.2-.5.4-.6m-.7-1.6c.2 0 .3-.1.5-.1.1 0 .3-.1.4-.1h.4c.3 0 .5.1.6.2.1.1.2.3.2.6v.5h-.9c-.2 0-.4 0-.6.1-.2.1-.3.1-.4.3-.1.1-.2.2-.3.4-.1.2-.1.3-.1.5s0 .3.1.5c0 .1.1.3.2.4.1.1.2.2.4.3.1.1.3.1.5.1.1 0 .3 0 .4-.1.1 0 .3-.1.4-.2.1-.1.3-.1.4-.2l.1.4h.4v-3c0-.2 0-.4-.1-.5 0-.1-.1-.2-.2-.3-.1-.1-.2-.1-.4-.2-.2 0-.3-.1-.5-.1h-.6c-.2 0-.3.1-.5.1s-.3.1-.5.1v.3zm-1.9 3.3.3-.9c.1-.2.1-.5.2-.7.1-.2.1-.4.1-.6l.2-1.8h-.6l-.2 1.8c0 .1 0 .3-.1.4 0 .2-.1.4-.1.6 0 .2-.1.4-.2.7l-.9-3.5h-.6l-.9 3.5c-.1-.2-.1-.5-.2-.7 0-.2-.1-.4-.1-.6 0-.2-.1-.3-.1-.4l-.2-1.8h-.6l.2 1.8c0 .1.1.3.1.6.1.2.1.5.2.7l.3.9h.7l.9-3.3.9 3.3h.7zm-4.6-4.1c-.2 0-.4 0-.5.1-.2.1-.3.1-.5.2s-.3.2-.5.2l-.1-.4h-.4v4h.6v-3.2c.1-.1.3-.1.4-.2.1-.1.3-.1.4-.1h.5v-.6zm-5.5 1.9c0-.2 0-.4.1-.5 0-.2.1-.3.2-.5l.3-.3c.1-.1.3-.1.5-.1s.4.1.5.2c.1.1.2.3.2.5s-.1.4-.2.5c-.2.1-.4.2-.7.2h-.9zm2.3 1.5c-.1.1-.3.1-.4.1-.1 0-.3.1-.4.1h-.4c-.2 0-.4 0-.5-.1l-.3-.3c-.1-.1-.1-.2-.2-.4 0-.2-.1-.3-.1-.5h1.4c.2 0 .4-.1.5-.2.1-.1.3-.2.4-.4.1-.2.1-.4.1-.6 0-.4-.1-.6-.3-.8-.2-.2-.5-.3-.9-.3-.2 0-.5 0-.7.1-.2.1-.4.2-.5.4-.1.2-.3.4-.3.7-.1.3-.1.6-.1.9 0 .6.1 1.1.4 1.5.2.4.6.5 1.2.5h.5c.2 0 .3-.1.4-.1.1 0 .3-.1.4-.1v-.5zm-5.4-.5c-.1-.2-.1-.4-.2-.6-.1-.2-.1-.3-.1-.4l-.4-1.8h-.6l.4 1.8c0 .1.1.3.2.6.1.2.2.5.3.7.1.3.2.6.4.9h.6c.1-.3.2-.6.4-.8.1-.2.2-.5.3-.7.1-.2.2-.4.2-.6l.4-1.8h-.6l-.5 1.7c0 .1-.1.3-.1.5-.1.2-.1.4-.2.5-.1.2-.2.4-.2.7-.1-.2-.2-.4-.3-.7M66 51.3h-1c-.2 0-.4 0-.6.1-.2.1-.3.1-.4.2-.1.1-.2.2-.2.3-.1.1-.1.3-.1.4 0 .2 0 .4.1.6.1.1.2.3.4.3.1.1.3.2.5.2.2.1.3.1.5.2.1.1.3.1.4.2.1.1.1.2.1.4v.2c0 .1-.1.1-.1.2l-.2.2c-.1 0-.2.1-.4.1h-.4c-.1 0-.3 0-.4-.1-.1 0-.3-.1-.4-.1v.5c.1 0 .2.1.4.1.1 0 .2 0 .4.1h.4c.3 0 .5 0 .6-.1.2-.1.3-.2.4-.3.1-.1.2-.2.2-.4 0-.1.1-.3.1-.4 0-.3 0-.5-.1-.6-.1-.2-.2-.3-.4-.4-.1-.1-.3-.2-.5-.2-.2-.1-.3-.1-.5-.2-.1-.1-.3-.1-.4-.2-.1-.1-.1-.2-.1-.4 0-.1.1-.3.2-.4.1-.1.3-.2.6-.2h.7c.1 0 .2 0 .3.1v-.4zm-2.9 3.5h-.4c-.2 0-.3 0-.4-.1-.1 0-.2-.1-.2-.2s-.1-.2-.1-.3v-2.6h1v-.5h-1v-1.6h-.6v1.6h-.7v.5h.7V54c0 .5.1.8.3 1 .2.2.5.3.9.3H63.2v-.5zm-5.4-1.2c.2-.1.4-.2.6-.2h.9v1.1c-.1.1-.3.1-.4.2-.1.1-.2.1-.4.1-.1 0-.2.1-.4.1s-.4-.1-.5-.2c-.1-.1-.2-.3-.2-.5.1-.3.2-.5.4-.6m-.6-1.6c.2 0 .3-.1.5-.1.1 0 .3-.1.4-.1h.4c.3 0 .5.1.6.2.1.1.2.3.2.6v.5h-.9c-.2 0-.4 0-.6.1-.2.1-.3.1-.4.3-.1.1-.2.2-.3.4-.1.2-.1.3-.1.5s0 .3.1.5c0 .1.1.3.2.4.1.1.2.2.4.3.1.1.3.1.5.1.1 0 .3 0 .4-.1.1 0 .3-.1.4-.2.1-.1.3-.1.4-.2l.1.4h.4v-3c0-.2 0-.4-.1-.5 0-.1-.1-.2-.2-.3-.1-.1-.2-.1-.4-.2-.2 0-.3-.1-.5-.1H58c-.2 0-.3.1-.5.1s-.3.1-.5.1v.3zm-1.4 3.3v-3.4c0-.1-.1-.3-.2-.4l-.3-.3c-.1-.1-.3-.1-.6-.1-.2 0-.3 0-.5.1s-.3.1-.4.2c-.2.1-.3.1-.4.2l-.1-.4h-.4v4h.6V52c.1-.1.3-.1.4-.2.1-.1.2-.1.4-.1.1 0 .3-.1.4-.1.1 0 .2 0 .3.1.1 0 .1.1.2.2 0 .1.1.2.1.3V55.3h.5zm-6.6-2.2c0-.2 0-.4.1-.5.1-.2.1-.3.2-.5l.3-.3c.1-.1.3-.1.5-.1s.4.1.5.2c.1.1.2.3.2.5s-.1.4-.2.5c-.2.1-.4.2-.7.2h-.9zm2.3 1.5c-.1.1-.3.1-.4.1-.1 0-.3.1-.4.1h-.4c-.2 0-.4 0-.5-.1l-.3-.3c-.1-.1-.1-.2-.2-.4 0-.2-.1-.3-.1-.5h1.4c.2 0 .4-.1.5-.2.1-.1.3-.2.4-.4.1-.2.1-.4.1-.6 0-.4-.1-.6-.3-.8-.2-.2-.5-.3-.9-.3-.2 0-.5 0-.7.1-.2.1-.4.2-.5.4-.1.2-.3.4-.3.7-.1.3-.1.6-.1.9 0 .6.1 1.1.4 1.5.2.4.6.5 1.2.5h.5c.2 0 .3-.1.4-.1.1 0 .3-.1.4-.1v-.5zm-3.9-4.9c-.1 0-.3 0-.4-.1h-.8c-.3 0-.5 0-.7.1-.2.1-.4.2-.5.3-.1.1-.2.3-.3.5-.1.2-.1.4-.1.6 0 .3.1.6.2.8.1.2.3.4.4.5l.6.3.6.3c.2.1.3.2.4.4.1.1.2.3.2.5 0 .3-.1.5-.3.7-.2.2-.5.3-.8.3h-.4c-.1 0-.3 0-.4-.1-.1 0-.3-.1-.4-.1v.6c.1 0 .3.1.4.1.1 0 .3 0 .4.1h.4c.3 0 .6 0 .8-.1.2-.1.4-.2.5-.3.1-.1.2-.3.3-.5.1-.2.1-.4.1-.6 0-.3-.1-.6-.2-.7-.1-.2-.3-.3-.4-.5l-.6-.3-.6-.3c-.2-.1-.3-.2-.4-.4-.1-.1-.2-.3-.2-.6s.1-.5.3-.6c.2-.2.4-.2.8-.2h.8c.1 0 .3 0 .4.1v-.8z"
  />
  <path
    style="fill: #fff; stroke: #fff; stroke-width: 0.6"
    d="M4.5 41.6h99.8"
  />
</svg>
