<?xml version="1.0" encoding="UTF-8"?>
<svg viewBox="0 0 100 61" version="1.1" xmlns="http://www.w3.org/2000/svg" xmlns:xlink="http://www.w3.org/1999/xlink">
    <!-- Generator: Sketch 55.2 (78181) - https://sketchapp.com -->
    <title>Sen_KuEu_logo_WEISS_hoch</title>
    <desc>Created with Sketch.</desc>
    <defs>
        <polygon id="path-1" points="0.237 0.443444444 72.107 0.443444444 72.107 55.94 0.237 55.94"></polygon>
        <polygon id="path-3" points="0.06 0.696 99.779 0.696 99.779 36.978 0.06 36.978"></polygon>
    </defs>
    <g id="Page-2" stroke="none" stroke-width="1" fill="none" fill-rule="evenodd">
        <g id="Sen_KuEu_logo_WEISS_hoch">
            <g id="Group-4" transform="translate(27.000000, 5.000000)">
                <mask id="mask-2" fill="white">
                    <use xlink:href="#path-1"></use>
                </mask>
                <g id="Clip-2"></g>
                <path d="M60.986,10.685 L62.37,10.685 L62.37,7.335 C62.37,7.335 62.313,6.703 62.541,6.035 C62.764,5.39 63.27,4.656 64.295,4.594 C65.496,4.521 65.424,5.846 65.424,5.846 L65.424,10.685 L66.818,10.685 L66.818,5.694 C66.818,5.694 66.932,3.702 65.073,3.625 C62.811,3.533 62.37,4.959 62.37,4.959 L62.37,3.702 C62.37,3.702 61.885,3.684 61.102,3.728 C60.357,3.771 59.819,3.82 59.819,3.82 L59.819,4.561 L60.986,4.698 L60.986,10.685 Z M56.368,4.707 L55.173,4.546 L55.173,3.807 C55.639,3.765 55.87,3.745 56.368,3.727 C56.971,3.702 57.426,3.684 57.725,3.702 L57.725,9.726 L58.977,9.916 L58.977,10.685 L55.173,10.685 L55.173,9.916 L56.368,9.726 L56.368,4.707 Z M56.064,1.725 C56.064,1.207 56.482,0.789 56.998,0.789 C57.514,0.789 57.932,1.207 57.932,1.725 C57.932,2.24 57.514,2.658 56.998,2.658 C56.482,2.658 56.064,2.24 56.064,1.725 L56.064,1.725 Z M51.578,1.377 C51.578,1.377 51.243,1.324 51.028,1.297 C50.788,1.267 50.412,1.235 50.412,1.235 L50.412,0.515 C50.412,0.515 51.264,0.458 51.807,0.447 C52.266,0.439 52.982,0.447 52.982,0.447 L52.982,9.726 L54.158,9.916 L54.158,10.685 L50.412,10.685 L50.412,9.916 L51.578,9.726 L51.578,1.377 Z M40.236,7.174 L44.741,7.174 C44.741,7.174 45.187,3.476 42,3.551 C39.174,3.616 38.88,6.149 38.861,7.212 C38.846,8.079 39.043,9.571 40.172,10.329 C40.637,10.642 41.577,10.859 42.503,10.817 C43.337,10.779 44.437,10.371 44.437,10.371 L44.437,9.299 C44.437,9.299 43.541,9.706 42.342,9.726 C39.99,9.765 40.236,7.174 40.236,7.174 L40.236,7.174 Z M41.973,4.484 C43.523,4.534 43.366,6.136 43.366,6.136 L40.331,6.136 C40.331,6.136 40.482,4.438 41.973,4.484 L41.973,4.484 Z M47.994,5.067 L47.994,3.702 C47.994,3.702 47.184,3.702 46.666,3.722 C46.211,3.737 45.499,3.787 45.499,3.787 L45.499,4.536 L46.666,4.688 L46.666,10.685 L48.032,10.685 L48.032,7.516 C48.032,7.516 47.975,6.012 48.678,5.263 C49.169,4.736 50.203,4.945 50.203,4.945 L50.203,3.625 C50.203,3.625 49.373,3.518 48.752,3.896 C48.165,4.255 47.994,5.067 47.994,5.067 L47.994,5.067 Z M30.876,1.79 C30.544,1.743 30.335,1.682 30.335,1.682 L30.335,0.89 C30.335,0.89 30.971,0.903 31.701,0.912 C32.432,0.922 33.066,0.865 33.958,0.865 C35.609,0.865 37.417,1.093 37.505,3.181 C37.581,4.982 35.779,5.504 35.779,5.504 C35.779,5.504 37.79,5.779 37.723,7.904 C37.63,10.885 33.939,10.685 33.939,10.685 L30.335,10.685 L30.335,9.916 L31.521,9.688 L31.521,1.87 C31.521,1.87 31.303,1.852 30.876,1.79 L30.876,1.79 Z M32.962,6.141 L32.962,9.564 C32.962,9.564 33.686,9.589 34.148,9.569 C35.504,9.513 36.311,8.861 36.253,7.785 C36.196,6.733 35.452,6.253 34.319,6.154 C33.795,6.108 32.962,6.141 32.962,6.141 L32.962,6.141 Z M32.962,1.976 L32.962,5.105 C32.962,5.105 33.498,5.105 33.887,5.097 C35.014,5.068 36.033,4.698 36.073,3.417 C36.102,2.506 35.395,2.052 34.693,2.004 C34.02,1.958 32.962,1.976 32.962,1.976 L32.962,1.976 Z" id="Fill-1" fill="#FFFFFE" mask="url(#mask-2)"></path>
                <path d="M2.589,48.296 C2.536,48.291 2.479,48.283 2.42,48.272 C2.373,48.267 2.32,48.261 2.261,48.256 C2.202,48.251 2.144,48.248 2.085,48.248 C1.648,48.248 1.341,48.357 1.165,48.576 C0.989,48.795 0.9,49.131 0.9,49.584 L0.9,50.4 L0.237,50.4 L0.237,50.88 L0.9,50.88 L0.9,54.4 L1.477,54.4 L1.477,50.88 L2.469,50.88 L2.469,50.4 L1.477,50.4 L1.477,49.672 C1.477,49.512 1.485,49.373 1.5,49.256 C1.517,49.139 1.549,49.043 1.597,48.968 C1.645,48.893 1.716,48.837 1.809,48.8 C1.902,48.763 2.025,48.744 2.181,48.744 C2.224,48.744 2.269,48.747 2.316,48.752 C2.365,48.757 2.41,48.763 2.453,48.768 C2.501,48.779 2.545,48.787 2.589,48.792 L2.589,48.296 Z M3.581,49.34 C3.5,49.417 3.46,49.517 3.46,49.64 C3.46,49.763 3.5,49.861 3.581,49.936 C3.661,50.011 3.757,50.048 3.869,50.048 C3.992,50.048 4.093,50.011 4.173,49.936 C4.252,49.861 4.292,49.763 4.292,49.64 C4.292,49.517 4.251,49.417 4.169,49.34 C4.085,49.263 3.986,49.224 3.869,49.224 C3.757,49.224 3.661,49.263 3.581,49.34 L3.581,49.34 Z M5.356,49.34 C5.277,49.417 5.237,49.517 5.237,49.64 C5.237,49.763 5.277,49.861 5.356,49.936 C5.437,50.011 5.533,50.048 5.645,50.048 C5.768,50.048 5.869,50.011 5.949,49.936 C6.029,49.861 6.069,49.763 6.069,49.64 C6.069,49.517 6.028,49.417 5.945,49.34 C5.862,49.263 5.762,49.224 5.645,49.224 C5.533,49.224 5.437,49.263 5.356,49.34 L5.356,49.34 Z M3.252,50.4 L3.252,53.352 C3.252,53.48 3.266,53.609 3.292,53.74 C3.32,53.871 3.372,53.991 3.449,54.1 C3.525,54.209 3.636,54.299 3.777,54.368 C3.917,54.437 4.104,54.472 4.333,54.472 C4.498,54.472 4.664,54.448 4.829,54.4 C4.994,54.352 5.144,54.299 5.277,54.24 C5.432,54.171 5.581,54.091 5.725,54 L5.805,54.4 L6.245,54.4 L6.245,50.4 L5.669,50.4 L5.669,53.583 C5.541,53.663 5.408,53.733 5.269,53.792 C5.152,53.845 5.021,53.892 4.877,53.932 C4.732,53.972 4.592,53.992 4.453,53.992 C4.32,53.992 4.212,53.973 4.133,53.937 C4.053,53.898 3.99,53.845 3.945,53.775 C3.899,53.706 3.869,53.62 3.853,53.519 C3.836,53.417 3.829,53.303 3.829,53.174 L3.829,50.4 L3.252,50.4 Z M9.597,50.328 C9.41,50.317 9.231,50.337 9.061,50.388 C8.89,50.439 8.736,50.493 8.597,50.552 C8.437,50.621 8.285,50.704 8.141,50.8 L8.061,50.4 L7.621,50.4 L7.621,54.4 L8.197,54.4 L8.197,51.224 C8.341,51.145 8.49,51.075 8.645,51.016 C8.778,50.963 8.928,50.919 9.093,50.884 C9.258,50.849 9.426,50.84 9.597,50.856 L9.597,50.328 Z M15.621,48.8 L14.885,48.8 L13.093,51.704 L13.093,48.8 L12.485,48.8 L12.485,54.4 L13.093,54.4 L13.093,52.448 L13.732,51.528 C13.833,51.629 13.933,51.741 14.029,51.864 C14.108,51.971 14.19,52.093 14.272,52.232 C14.354,52.371 14.426,52.52 14.485,52.68 L15.061,54.4 L15.732,54.4 L15.044,52.504 C14.97,52.296 14.874,52.105 14.757,51.932 C14.639,51.759 14.527,51.611 14.42,51.488 C14.293,51.344 14.162,51.213 14.029,51.096 L15.621,48.8 Z M16.757,50.4 L16.757,53.352 C16.757,53.48 16.77,53.609 16.796,53.74 C16.823,53.871 16.875,53.991 16.953,54.1 C17.03,54.209 17.139,54.299 17.281,54.368 C17.421,54.437 17.606,54.472 17.836,54.472 C18.002,54.472 18.167,54.448 18.333,54.4 C18.498,54.352 18.646,54.299 18.781,54.24 C18.935,54.171 19.084,54.091 19.229,54 L19.309,54.4 L19.749,54.4 L19.749,50.4 L19.173,50.4 L19.173,53.583 C19.044,53.663 18.911,53.733 18.772,53.792 C18.655,53.845 18.524,53.892 18.381,53.932 C18.237,53.972 18.095,53.992 17.957,53.992 C17.823,53.992 17.717,53.973 17.637,53.937 C17.557,53.898 17.494,53.845 17.449,53.775 C17.403,53.706 17.373,53.62 17.356,53.519 C17.341,53.417 17.333,53.303 17.333,53.174 L17.333,50.4 L16.757,50.4 Z M21.125,54.4 L21.701,54.4 L21.701,48.32 L21.125,48.32 L21.125,54.4 Z M25.004,53.928 C24.961,53.939 24.917,53.947 24.869,53.952 C24.789,53.968 24.698,53.976 24.597,53.976 C24.441,53.976 24.317,53.957 24.225,53.92 C24.131,53.883 24.061,53.826 24.013,53.751 C23.965,53.677 23.933,53.58 23.917,53.463 C23.9,53.345 23.893,53.206 23.893,53.046 L23.893,50.88 L24.885,50.88 L24.885,50.4 L23.893,50.4 L23.893,48.8 L23.316,48.8 L23.316,50.4 L22.653,50.4 L22.653,50.88 L23.316,50.88 L23.316,53.133 C23.316,53.587 23.405,53.924 23.581,54.143 C23.757,54.362 24.063,54.472 24.5,54.472 C24.559,54.472 24.618,54.471 24.677,54.468 C24.735,54.465 24.789,54.459 24.836,54.448 C24.895,54.443 24.951,54.435 25.004,54.424 L25.004,53.928 Z M25.828,50.4 L25.828,53.352 C25.828,53.48 25.842,53.609 25.869,53.74 C25.895,53.871 25.947,53.991 26.024,54.1 C26.102,54.209 26.211,54.299 26.353,54.368 C26.494,54.437 26.679,54.472 26.908,54.472 C27.074,54.472 27.238,54.448 27.404,54.4 C27.57,54.352 27.719,54.299 27.853,54.24 C28.007,54.171 28.156,54.091 28.301,54 L28.381,54.4 L28.82,54.4 L28.82,50.4 L28.244,50.4 L28.244,53.583 C28.117,53.663 27.982,53.733 27.845,53.792 C27.727,53.845 27.597,53.892 27.453,53.932 C27.309,53.972 27.166,53.992 27.029,53.992 C26.895,53.992 26.789,53.973 26.709,53.937 C26.629,53.898 26.565,53.845 26.521,53.775 C26.475,53.706 26.445,53.62 26.429,53.519 C26.412,53.417 26.404,53.303 26.404,53.174 L26.404,50.4 L25.828,50.4 Z M32.173,50.328 C31.986,50.317 31.807,50.337 31.637,50.388 C31.466,50.439 31.311,50.493 31.173,50.552 C31.013,50.621 30.861,50.704 30.717,50.8 L30.637,50.4 L30.197,50.4 L30.197,54.4 L30.772,54.4 L30.772,51.224 C30.916,51.145 31.065,51.075 31.221,51.016 C31.354,50.963 31.502,50.919 31.668,50.884 C31.834,50.849 32.002,50.84 32.173,50.856 L32.173,50.328 Z M34.996,50.4 L34.996,53.352 C34.996,53.48 35.01,53.609 35.035,53.74 C35.063,53.871 35.115,53.991 35.191,54.1 C35.27,54.209 35.379,54.299 35.52,54.368 C35.662,54.437 35.847,54.472 36.076,54.472 C36.242,54.472 36.406,54.448 36.572,54.4 C36.738,54.352 36.887,54.299 37.02,54.24 C37.175,54.171 37.324,54.091 37.468,54 L37.548,54.4 L37.988,54.4 L37.988,50.4 L37.412,50.4 L37.412,53.583 C37.283,53.663 37.15,53.733 37.012,53.792 C36.895,53.845 36.764,53.892 36.619,53.932 C36.476,53.972 36.334,53.992 36.195,53.992 C36.063,53.992 35.955,53.973 35.875,53.937 C35.795,53.898 35.733,53.845 35.687,53.775 C35.643,53.706 35.611,53.62 35.596,53.519 C35.58,53.417 35.572,53.303 35.572,53.174 L35.572,50.4 L34.996,50.4 Z M42.355,54.4 L42.355,51.448 C42.355,51.32 42.343,51.191 42.315,51.06 C42.289,50.929 42.238,50.809 42.16,50.7 C42.082,50.591 41.974,50.501 41.832,50.432 C41.69,50.363 41.506,50.328 41.275,50.328 C41.111,50.328 40.945,50.354 40.779,50.404 C40.615,50.455 40.466,50.509 40.332,50.568 C40.178,50.637 40.027,50.715 39.884,50.8 L39.804,50.4 L39.363,50.4 L39.363,54.4 L39.939,54.4 L39.939,51.217 C40.067,51.142 40.201,51.075 40.34,51.016 C40.457,50.963 40.588,50.915 40.731,50.872 C40.875,50.829 41.018,50.808 41.156,50.808 C41.289,50.808 41.396,50.827 41.476,50.864 C41.556,50.902 41.619,50.955 41.664,51.025 C41.709,51.094 41.74,51.18 41.756,51.281 C41.771,51.383 41.779,51.498 41.779,51.626 L41.779,54.4 L42.355,54.4 Z M46.492,54.4 L46.492,48.32 L45.916,48.32 L45.916,50.32 L45.955,50.792 C45.865,50.707 45.762,50.629 45.644,50.56 C45.543,50.501 45.422,50.448 45.279,50.4 C45.139,50.352 44.978,50.328 44.795,50.328 C44.642,50.328 44.483,50.367 44.324,50.444 C44.164,50.521 44.019,50.645 43.888,50.816 C43.758,50.987 43.649,51.208 43.563,51.48 C43.479,51.752 43.436,52.085 43.436,52.48 C43.436,53.173 43.551,53.679 43.779,53.996 C44.01,54.313 44.332,54.472 44.748,54.472 C44.882,54.472 45.019,54.448 45.16,54.4 C45.302,54.352 45.434,54.299 45.556,54.24 C45.695,54.171 45.834,54.091 45.972,54 L46.052,54.4 L46.492,54.4 Z M45.916,53.576 C45.787,53.651 45.66,53.717 45.531,53.776 C45.426,53.829 45.311,53.876 45.187,53.916 C45.065,53.956 44.955,53.976 44.859,53.976 C44.705,53.976 44.574,53.939 44.468,53.864 C44.361,53.789 44.275,53.683 44.211,53.544 C44.147,53.405 44.102,53.24 44.072,53.048 C44.043,52.856 44.027,52.64 44.027,52.4 C44.027,51.915 44.109,51.531 44.271,51.248 C44.435,50.965 44.644,50.824 44.899,50.824 C45.07,50.824 45.22,50.847 45.348,50.892 C45.476,50.938 45.582,50.989 45.668,51.048 C45.764,51.112 45.847,51.187 45.916,51.272 L45.916,53.576 Z M49.828,54.4 L52.563,54.4 L52.563,53.872 L50.436,53.872 L50.436,51.768 L52.324,51.768 L52.324,51.256 L50.436,51.256 L50.436,49.328 L52.483,49.328 L52.483,48.8 L49.828,48.8 L49.828,54.4 Z M53.724,50.4 L53.724,53.352 C53.724,53.48 53.736,53.609 53.764,53.74 C53.791,53.871 53.843,53.991 53.92,54.1 C53.996,54.209 54.106,54.299 54.248,54.368 C54.389,54.437 54.574,54.472 54.804,54.472 C54.969,54.472 55.135,54.448 55.3,54.4 C55.465,54.352 55.615,54.299 55.748,54.24 C55.902,54.171 56.052,54.091 56.195,54 L56.275,54.4 L56.716,54.4 L56.716,50.4 L56.14,50.4 L56.14,53.583 C56.012,53.663 55.879,53.733 55.74,53.792 C55.623,53.845 55.492,53.892 55.348,53.932 C55.203,53.972 55.063,53.992 54.924,53.992 C54.791,53.992 54.684,53.973 54.604,53.937 C54.523,53.898 54.461,53.845 54.416,53.775 C54.371,53.706 54.34,53.62 54.324,53.519 C54.308,53.417 54.3,53.303 54.3,53.174 L54.3,50.4 L53.724,50.4 Z M60.067,50.328 C59.881,50.317 59.703,50.337 59.531,50.388 C59.361,50.439 59.207,50.493 59.067,50.552 C58.908,50.621 58.756,50.704 58.611,50.8 L58.531,50.4 L58.092,50.4 L58.092,54.4 L58.668,54.4 L58.668,51.224 C58.812,51.145 58.961,51.075 59.115,51.016 C59.248,50.963 59.398,50.919 59.564,50.884 C59.729,50.849 59.896,50.84 60.067,50.856 L60.067,50.328 Z M61.615,51.224 C61.82,50.947 62.084,50.808 62.404,50.808 C62.543,50.808 62.679,50.833 62.812,50.884 C62.945,50.935 63.062,51.023 63.164,51.148 C63.265,51.273 63.347,51.437 63.408,51.64 C63.469,51.843 63.5,52.096 63.5,52.4 C63.5,52.651 63.472,52.875 63.416,53.072 C63.359,53.269 63.283,53.436 63.184,53.572 C63.084,53.708 62.969,53.812 62.836,53.884 C62.703,53.956 62.559,53.992 62.404,53.992 C62.254,53.992 62.113,53.967 61.979,53.916 C61.847,53.865 61.73,53.777 61.632,53.652 C61.533,53.527 61.455,53.363 61.396,53.16 C61.336,52.957 61.308,52.704 61.308,52.4 C61.308,51.893 61.41,51.501 61.615,51.224 L61.615,51.224 Z M61.168,53.984 C61.469,54.309 61.881,54.472 62.404,54.472 C62.648,54.472 62.875,54.425 63.084,54.332 C63.291,54.239 63.471,54.1 63.619,53.916 C63.769,53.732 63.885,53.507 63.968,53.24 C64.051,52.973 64.092,52.667 64.092,52.32 C64.092,51.643 63.942,51.141 63.644,50.816 C63.345,50.491 62.932,50.328 62.404,50.328 C62.148,50.328 61.916,50.376 61.711,50.472 C61.507,50.568 61.328,50.708 61.18,50.892 C61.031,51.076 60.916,51.301 60.836,51.568 C60.756,51.835 60.716,52.139 60.716,52.48 C60.716,53.157 60.867,53.659 61.168,53.984 L61.168,53.984 Z M65.187,50.4 L65.187,56 L65.764,56 L65.764,54.48 L65.724,54.008 C65.814,54.099 65.918,54.176 66.035,54.24 C66.137,54.299 66.259,54.352 66.399,54.4 C66.541,54.448 66.703,54.472 66.884,54.472 C67.033,54.472 67.188,54.433 67.352,54.356 C67.515,54.279 67.66,54.155 67.791,53.984 C67.923,53.813 68.031,53.592 68.115,53.32 C68.201,53.048 68.244,52.715 68.244,52.32 C68.244,51.627 68.129,51.121 67.899,50.804 C67.67,50.487 67.348,50.328 66.932,50.328 C66.799,50.328 66.66,50.354 66.52,50.404 C66.379,50.455 66.246,50.509 66.123,50.568 C65.984,50.637 65.847,50.715 65.707,50.8 L65.627,50.4 L65.187,50.4 Z M65.764,51.224 C65.892,51.149 66.02,51.083 66.147,51.024 C66.254,50.976 66.369,50.931 66.492,50.888 C66.615,50.845 66.724,50.824 66.82,50.824 C66.975,50.824 67.105,50.861 67.211,50.937 C67.318,51.011 67.404,51.117 67.468,51.256 C67.531,51.395 67.578,51.56 67.607,51.752 C67.637,51.944 67.652,52.16 67.652,52.4 C67.652,52.885 67.57,53.269 67.408,53.552 C67.244,53.835 67.035,53.976 66.779,53.976 C66.608,53.976 66.459,53.953 66.332,53.908 C66.203,53.863 66.097,53.811 66.012,53.752 C65.916,53.688 65.832,53.613 65.764,53.528 L65.764,51.224 Z M69.404,51.072 C69.563,51.024 69.724,50.981 69.884,50.944 C70.023,50.912 70.172,50.881 70.332,50.852 C70.492,50.823 70.641,50.808 70.779,50.808 C71.072,50.808 71.271,50.86 71.375,50.965 C71.48,51.07 71.531,51.259 71.531,51.533 L71.531,52 L70.588,52 C70.385,52 70.197,52.029 70.023,52.088 C69.851,52.147 69.703,52.231 69.58,52.34 C69.457,52.449 69.361,52.584 69.291,52.744 C69.223,52.904 69.188,53.085 69.188,53.288 C69.188,53.448 69.211,53.6 69.256,53.744 C69.301,53.888 69.371,54.013 69.464,54.12 C69.557,54.227 69.676,54.313 69.82,54.376 C69.964,54.44 70.137,54.472 70.34,54.472 C70.479,54.472 70.619,54.448 70.764,54.4 C70.908,54.352 71.041,54.299 71.164,54.24 C71.303,54.171 71.443,54.091 71.588,54 L71.668,54.4 L72.107,54.4 L72.107,51.392 C72.107,51.184 72.084,51.012 72.035,50.876 C71.988,50.74 71.914,50.632 71.815,50.552 C71.717,50.472 71.592,50.415 71.439,50.38 C71.287,50.345 71.107,50.328 70.899,50.328 C70.703,50.328 70.515,50.341 70.336,50.368 C70.156,50.395 69.998,50.42 69.859,50.447 C69.695,50.484 69.543,50.523 69.404,50.566 L69.404,51.072 Z M70.016,52.652 C70.184,52.521 70.396,52.456 70.652,52.456 L71.531,52.456 L71.531,53.568 C71.404,53.648 71.275,53.717 71.148,53.776 C71.041,53.829 70.924,53.876 70.795,53.916 C70.668,53.956 70.551,53.976 70.443,53.976 C70.225,53.976 70.057,53.909 69.939,53.776 C69.822,53.643 69.764,53.464 69.764,53.24 C69.764,52.979 69.848,52.783 70.016,52.652 L70.016,52.652 Z" id="Fill-3" fill="#FFFFFE" mask="url(#mask-2)"></path>
            </g>
            <path d="M42.973,44.64 C42.839,44.624 42.706,44.604 42.572,44.584 C42.46,44.568 42.337,44.553 42.205,44.54 C42.071,44.527 41.948,44.52 41.836,44.52 C41.569,44.52 41.335,44.557 41.132,44.632 C40.929,44.707 40.759,44.809 40.621,44.94 C40.481,45.071 40.377,45.223 40.304,45.395 C40.232,45.569 40.196,45.755 40.196,45.952 C40.196,46.261 40.255,46.513 40.373,46.708 C40.489,46.903 40.635,47.067 40.809,47.2 C40.981,47.333 41.169,47.447 41.373,47.54 C41.575,47.633 41.763,47.732 41.937,47.836 C42.109,47.94 42.255,48.061 42.373,48.2 C42.489,48.339 42.548,48.519 42.548,48.744 C42.548,49.048 42.454,49.289 42.265,49.468 C42.075,49.646 41.796,49.736 41.428,49.736 C41.279,49.736 41.129,49.725 40.98,49.704 C40.832,49.683 40.695,49.659 40.572,49.632 C40.434,49.6 40.297,49.562 40.165,49.519 L40.165,50.08 C40.292,50.123 40.425,50.157 40.564,50.184 C40.688,50.211 40.82,50.233 40.964,50.252 C41.108,50.27 41.257,50.28 41.413,50.28 C41.716,50.28 41.98,50.241 42.2,50.164 C42.421,50.087 42.604,49.979 42.749,49.84 C42.893,49.701 42.998,49.536 43.065,49.344 C43.131,49.152 43.165,48.941 43.165,48.712 C43.165,48.408 43.106,48.161 42.988,47.972 C42.872,47.783 42.725,47.625 42.548,47.5 C42.373,47.375 42.182,47.267 41.977,47.176 C41.772,47.085 41.581,46.987 41.404,46.88 C41.229,46.773 41.082,46.646 40.964,46.5 C40.848,46.353 40.789,46.163 40.789,45.928 C40.789,45.672 40.881,45.461 41.068,45.296 C41.255,45.131 41.505,45.048 41.82,45.048 C41.933,45.048 42.055,45.056 42.188,45.072 C42.321,45.088 42.447,45.104 42.564,45.12 C42.704,45.141 42.839,45.163 42.973,45.184 L42.973,44.64 Z M46.924,49.504 C46.792,49.557 46.655,49.603 46.517,49.64 C46.394,49.672 46.261,49.701 46.121,49.728 C45.979,49.755 45.839,49.768 45.7,49.768 C45.508,49.768 45.349,49.736 45.22,49.673 C45.092,49.609 44.988,49.521 44.908,49.41 C44.829,49.299 44.77,49.165 44.732,49.009 C44.695,48.853 44.669,48.682 44.652,48.496 L45.437,48.496 C45.624,48.496 45.81,48.479 45.997,48.448 C46.184,48.416 46.35,48.353 46.497,48.259 C46.644,48.166 46.763,48.037 46.856,47.874 C46.949,47.711 46.997,47.498 46.997,47.236 C46.997,46.867 46.884,46.588 46.661,46.401 C46.437,46.214 46.132,46.12 45.749,46.12 C45.503,46.12 45.277,46.164 45.072,46.252 C44.867,46.34 44.689,46.475 44.541,46.656 C44.392,46.837 44.275,47.062 44.192,47.332 C44.109,47.601 44.068,47.915 44.068,48.271 C44.068,48.895 44.192,49.384 44.44,49.736 C44.688,50.088 45.073,50.264 45.596,50.264 C45.777,50.264 45.948,50.252 46.108,50.228 C46.269,50.204 46.409,50.176 46.532,50.144 C46.671,50.107 46.801,50.063 46.924,50.016 L46.924,49.504 Z M44.645,48.016 C44.649,47.823 44.677,47.641 44.729,47.469 C44.779,47.297 44.85,47.146 44.94,47.018 C45.031,46.89 45.145,46.788 45.28,46.713 C45.417,46.638 45.572,46.6 45.749,46.6 C45.967,46.6 46.133,46.659 46.249,46.777 C46.363,46.894 46.42,47.061 46.42,47.276 C46.42,47.501 46.34,47.681 46.18,47.815 C46.021,47.949 45.772,48.016 45.437,48.016 L44.645,48.016 Z M51.165,50.2 L51.165,47.248 C51.165,47.12 51.151,46.991 51.125,46.86 C51.098,46.729 51.045,46.609 50.968,46.5 C50.892,46.391 50.781,46.301 50.641,46.232 C50.5,46.163 50.313,46.128 50.085,46.128 C49.919,46.128 49.753,46.153 49.588,46.204 C49.423,46.255 49.273,46.309 49.141,46.368 C48.985,46.436 48.836,46.515 48.692,46.6 L48.612,46.2 L48.172,46.2 L48.172,50.2 L48.749,50.2 L48.749,47.017 C48.876,46.942 49.009,46.875 49.148,46.816 C49.266,46.763 49.396,46.715 49.541,46.672 C49.685,46.629 49.825,46.608 49.964,46.608 C50.098,46.608 50.205,46.627 50.284,46.664 C50.364,46.702 50.427,46.755 50.473,46.824 C50.518,46.894 50.548,46.979 50.565,47.081 C50.581,47.183 50.588,47.298 50.588,47.426 L50.588,50.2 L51.165,50.2 Z M52.588,46.872 C52.748,46.824 52.908,46.781 53.068,46.744 C53.207,46.712 53.356,46.681 53.517,46.652 C53.676,46.623 53.825,46.608 53.965,46.608 C54.258,46.608 54.457,46.66 54.561,46.765 C54.664,46.87 54.717,47.059 54.717,47.333 L54.717,47.8 L53.773,47.8 C53.569,47.8 53.381,47.829 53.209,47.888 C53.034,47.947 52.887,48.031 52.765,48.14 C52.642,48.249 52.545,48.384 52.477,48.544 C52.406,48.704 52.373,48.885 52.373,49.088 C52.373,49.248 52.395,49.4 52.44,49.544 C52.485,49.687 52.555,49.812 52.648,49.92 C52.741,50.027 52.86,50.112 53.004,50.176 C53.148,50.24 53.321,50.271 53.524,50.271 C53.662,50.271 53.805,50.248 53.948,50.2 C54.092,50.152 54.226,50.099 54.349,50.04 C54.486,49.971 54.629,49.891 54.772,49.8 L54.853,50.2 L55.293,50.2 L55.293,47.192 C55.293,46.984 55.269,46.811 55.221,46.676 C55.172,46.54 55.099,46.432 55,46.352 C54.901,46.271 54.776,46.215 54.625,46.18 C54.473,46.144 54.293,46.128 54.084,46.128 C53.887,46.128 53.698,46.141 53.521,46.168 C53.342,46.194 53.183,46.22 53.045,46.247 C52.879,46.284 52.727,46.323 52.588,46.365 L52.588,46.872 Z M53.2,48.452 C53.369,48.321 53.58,48.256 53.836,48.256 L54.717,48.256 L54.717,49.368 C54.588,49.448 54.461,49.517 54.332,49.576 C54.226,49.629 54.108,49.676 53.98,49.716 C53.853,49.756 53.734,49.776 53.629,49.776 C53.409,49.776 53.241,49.709 53.125,49.576 C53.006,49.443 52.948,49.264 52.948,49.04 C52.948,48.779 53.032,48.583 53.2,48.452 L53.2,48.452 Z M58.58,49.728 C58.537,49.739 58.492,49.747 58.444,49.752 C58.364,49.768 58.273,49.776 58.172,49.776 C58.018,49.776 57.894,49.757 57.801,49.72 C57.707,49.682 57.637,49.626 57.588,49.551 C57.541,49.477 57.508,49.38 57.492,49.263 C57.477,49.144 57.469,49.006 57.469,48.846 L57.469,46.68 L58.461,46.68 L58.461,46.2 L57.469,46.2 L57.469,44.6 L56.893,44.6 L56.893,46.2 L56.229,46.2 L56.229,46.68 L56.893,46.68 L56.893,48.933 C56.893,49.387 56.98,49.724 57.156,49.943 C57.332,50.163 57.639,50.271 58.076,50.271 C58.135,50.271 58.193,50.27 58.252,50.268 C58.311,50.265 58.364,50.259 58.412,50.248 C58.471,50.243 58.526,50.235 58.58,50.224 L58.58,49.728 Z M61.5,46.233 C61.398,46.217 61.295,46.2 61.188,46.184 C61.098,46.173 60.99,46.161 60.869,46.148 C60.746,46.135 60.621,46.128 60.492,46.128 C60.258,46.128 60.057,46.156 59.889,46.212 C59.721,46.268 59.582,46.346 59.477,46.445 C59.369,46.544 59.291,46.659 59.24,46.79 C59.19,46.921 59.164,47.061 59.164,47.21 C59.164,47.451 59.213,47.642 59.309,47.784 C59.404,47.925 59.524,48.039 59.668,48.124 C59.813,48.21 59.969,48.278 60.141,48.329 C60.311,48.38 60.469,48.437 60.612,48.501 C60.756,48.565 60.877,48.646 60.973,48.742 C61.068,48.838 61.116,48.974 61.116,49.151 C61.116,49.215 61.106,49.283 61.088,49.354 C61.069,49.427 61.032,49.494 60.977,49.556 C60.92,49.617 60.844,49.669 60.748,49.712 C60.652,49.755 60.524,49.776 60.364,49.776 C60.23,49.776 60.096,49.767 59.961,49.748 C59.824,49.729 59.7,49.707 59.588,49.68 C59.455,49.653 59.326,49.621 59.205,49.584 L59.205,50.122 C59.316,50.154 59.437,50.18 59.565,50.201 C59.67,50.222 59.793,50.239 59.933,50.252 C60.07,50.265 60.215,50.271 60.364,50.271 C60.621,50.271 60.834,50.239 61.004,50.172 C61.174,50.105 61.311,50.018 61.412,49.909 C61.514,49.8 61.586,49.676 61.629,49.538 C61.67,49.399 61.692,49.261 61.692,49.122 C61.692,48.862 61.645,48.654 61.549,48.5 C61.453,48.346 61.33,48.225 61.185,48.137 C61.037,48.049 60.879,47.978 60.709,47.925 C60.537,47.872 60.379,47.816 60.232,47.758 C60.086,47.699 59.965,47.623 59.869,47.53 C59.772,47.436 59.725,47.305 59.725,47.135 C59.725,47.002 59.777,46.881 59.885,46.771 C59.99,46.663 60.193,46.608 60.492,46.608 C60.609,46.608 60.727,46.616 60.844,46.632 L61.172,46.664 C61.284,46.685 61.394,46.704 61.5,46.72 L61.5,46.233 Z M63.74,49.032 C63.682,48.851 63.621,48.667 63.561,48.479 C63.498,48.293 63.457,48.146 63.437,48.04 L63.068,46.2 L62.428,46.2 L62.844,48.04 C62.877,48.188 62.935,48.385 63.021,48.628 C63.106,48.871 63.193,49.109 63.284,49.344 C63.391,49.616 63.508,49.901 63.637,50.2 L64.269,50.2 C64.396,49.907 64.514,49.624 64.621,49.352 C64.711,49.117 64.801,48.879 64.889,48.636 C64.977,48.393 65.039,48.195 65.076,48.04 L65.5,46.2 L64.885,46.2 L64.517,48.04 C64.489,48.157 64.448,48.308 64.393,48.492 C64.336,48.676 64.276,48.859 64.213,49.04 C64.137,49.253 64.058,49.475 63.973,49.704 C63.887,49.469 63.81,49.245 63.74,49.032 L63.74,49.032 Z M69.076,49.504 C68.942,49.557 68.807,49.603 68.668,49.64 C68.545,49.672 68.414,49.701 68.273,49.728 C68.131,49.755 67.99,49.768 67.853,49.768 C67.66,49.768 67.5,49.736 67.373,49.673 C67.244,49.609 67.141,49.521 67.061,49.41 C66.98,49.299 66.922,49.165 66.885,49.009 C66.846,48.853 66.82,48.682 66.805,48.496 L67.588,48.496 C67.774,48.496 67.961,48.479 68.148,48.448 C68.334,48.416 68.502,48.353 68.648,48.259 C68.795,48.166 68.914,48.037 69.008,47.874 C69.102,47.711 69.148,47.498 69.148,47.236 C69.148,46.867 69.037,46.588 68.812,46.401 C68.588,46.214 68.284,46.12 67.9,46.12 C67.654,46.12 67.43,46.164 67.225,46.252 C67.019,46.34 66.842,46.475 66.692,46.656 C66.543,46.837 66.426,47.062 66.344,47.332 C66.262,47.601 66.221,47.915 66.221,48.271 C66.221,48.895 66.344,49.384 66.592,49.736 C66.84,50.088 67.226,50.264 67.748,50.264 C67.93,50.264 68.101,50.252 68.26,50.228 C68.42,50.204 68.562,50.176 68.685,50.144 C68.822,50.107 68.953,50.063 69.076,50.016 L69.076,49.504 Z M66.797,48.016 C66.801,47.823 66.83,47.641 66.881,47.469 C66.93,47.297 67.002,47.146 67.092,47.018 C67.183,46.89 67.297,46.788 67.433,46.713 C67.568,46.638 67.725,46.6 67.9,46.6 C68.118,46.6 68.285,46.659 68.4,46.777 C68.515,46.894 68.572,47.061 68.572,47.276 C68.572,47.501 68.492,47.681 68.332,47.815 C68.172,47.949 67.924,48.016 67.588,48.016 L66.797,48.016 Z M72.301,46.128 C72.113,46.117 71.935,46.137 71.765,46.187 C71.594,46.239 71.438,46.293 71.301,46.352 C71.141,46.421 70.988,46.504 70.844,46.6 L70.765,46.2 L70.324,46.2 L70.324,50.2 L70.9,50.2 L70.9,47.024 C71.045,46.944 71.193,46.875 71.349,46.816 C71.481,46.763 71.631,46.719 71.797,46.684 C71.961,46.649 72.129,46.64 72.301,46.656 L72.301,46.128 Z M76.907,50.2 C77.004,49.901 77.092,49.616 77.172,49.344 C77.241,49.109 77.305,48.872 77.363,48.632 C77.422,48.392 77.463,48.195 77.483,48.04 L77.707,46.2 L77.1,46.2 L76.916,48.04 C76.905,48.152 76.881,48.301 76.844,48.488 C76.807,48.675 76.767,48.859 76.724,49.04 C76.676,49.253 76.623,49.475 76.563,49.704 L75.627,46.2 L75.051,46.2 L74.115,49.704 C74.058,49.469 74.004,49.245 73.955,49.032 C73.914,48.851 73.873,48.667 73.836,48.479 C73.799,48.293 73.774,48.146 73.764,48.04 L73.58,46.2 L72.94,46.2 L73.172,48.04 C73.187,48.188 73.227,48.385 73.287,48.628 C73.35,48.871 73.414,49.109 73.483,49.344 C73.563,49.616 73.649,49.901 73.739,50.2 L74.451,50.2 L75.323,46.912 L76.211,50.2 L76.907,50.2 Z M78.859,46.872 C79.02,46.824 79.18,46.781 79.34,46.744 C79.479,46.712 79.627,46.681 79.787,46.652 C79.947,46.623 80.098,46.608 80.235,46.608 C80.529,46.608 80.728,46.66 80.832,46.765 C80.936,46.87 80.987,47.059 80.987,47.333 L80.987,47.8 L80.043,47.8 C79.842,47.8 79.653,47.829 79.48,47.888 C79.307,47.947 79.158,48.031 79.035,48.14 C78.914,48.249 78.817,48.384 78.748,48.544 C78.678,48.704 78.644,48.885 78.644,49.088 C78.644,49.248 78.666,49.4 78.711,49.544 C78.758,49.687 78.826,49.812 78.92,49.92 C79.014,50.027 79.131,50.112 79.275,50.176 C79.42,50.24 79.594,50.271 79.795,50.271 C79.935,50.271 80.075,50.248 80.219,50.2 C80.363,50.152 80.498,50.099 80.619,50.04 C80.758,49.971 80.899,49.891 81.043,49.8 L81.123,50.2 L81.563,50.2 L81.563,47.192 C81.563,46.984 81.539,46.811 81.491,46.676 C81.443,46.54 81.371,46.432 81.271,46.352 C81.174,46.271 81.047,46.215 80.896,46.18 C80.743,46.144 80.564,46.128 80.355,46.128 C80.158,46.128 79.971,46.141 79.791,46.168 C79.613,46.194 79.455,46.22 79.315,46.247 C79.15,46.284 78.998,46.323 78.859,46.365 L78.859,46.872 Z M79.471,48.452 C79.64,48.321 79.852,48.256 80.107,48.256 L80.987,48.256 L80.987,49.368 C80.859,49.448 80.731,49.517 80.604,49.576 C80.498,49.629 80.379,49.676 80.252,49.716 C80.123,49.756 80.006,49.776 79.899,49.776 C79.682,49.776 79.514,49.709 79.396,49.576 C79.278,49.443 79.219,49.264 79.219,49.04 C79.219,48.779 79.303,48.583 79.471,48.452 L79.471,48.452 Z M82.924,50.2 L83.5,50.2 L83.5,44.12 L82.924,44.12 L82.924,50.2 Z M86.803,49.728 C86.762,49.739 86.715,49.747 86.668,49.752 C86.588,49.768 86.498,49.776 86.396,49.776 C86.241,49.776 86.117,49.757 86.023,49.72 C85.93,49.682 85.859,49.626 85.812,49.551 C85.764,49.477 85.731,49.38 85.715,49.263 C85.699,49.144 85.691,49.006 85.691,48.846 L85.691,46.68 L86.684,46.68 L86.684,46.2 L85.691,46.2 L85.691,44.6 L85.115,44.6 L85.115,46.2 L84.451,46.2 L84.451,46.68 L85.115,46.68 L85.115,48.933 C85.115,49.387 85.203,49.724 85.379,49.943 C85.555,50.163 85.862,50.271 86.299,50.271 C86.358,50.271 86.418,50.27 86.476,50.268 C86.534,50.265 86.588,50.259 86.635,50.248 C86.694,50.243 86.75,50.235 86.803,50.224 L86.803,49.728 Z M87.627,46.2 L87.627,49.152 C87.627,49.28 87.641,49.409 87.668,49.54 C87.694,49.671 87.746,49.791 87.823,49.9 C87.9,50.009 88.01,50.099 88.151,50.168 C88.293,50.237 88.479,50.271 88.707,50.271 C88.873,50.271 89.039,50.248 89.203,50.2 C89.368,50.152 89.519,50.099 89.651,50.04 C89.807,49.971 89.955,49.891 90.1,49.8 L90.18,50.2 L90.619,50.2 L90.619,46.2 L90.043,46.2 L90.043,49.383 C89.916,49.463 89.782,49.533 89.644,49.592 C89.526,49.644 89.396,49.692 89.252,49.732 C89.107,49.771 88.967,49.792 88.828,49.792 C88.694,49.792 88.588,49.773 88.508,49.736 C88.428,49.699 88.364,49.644 88.319,49.576 C88.274,49.506 88.243,49.421 88.228,49.319 C88.211,49.217 88.203,49.103 88.203,48.974 L88.203,46.2 L87.627,46.2 Z M94.987,50.2 L94.987,47.248 C94.987,47.12 94.975,46.991 94.947,46.86 C94.92,46.729 94.868,46.609 94.791,46.5 C94.715,46.391 94.604,46.301 94.463,46.232 C94.322,46.163 94.137,46.128 93.907,46.128 C93.742,46.128 93.576,46.153 93.412,46.204 C93.246,46.255 93.096,46.309 92.963,46.368 C92.809,46.436 92.659,46.515 92.516,46.6 L92.436,46.2 L91.996,46.2 L91.996,50.2 L92.571,50.2 L92.571,47.017 C92.699,46.942 92.832,46.875 92.971,46.816 C93.088,46.763 93.219,46.715 93.363,46.672 C93.508,46.629 93.648,46.608 93.787,46.608 C93.92,46.608 94.027,46.627 94.107,46.664 C94.187,46.702 94.25,46.755 94.295,46.824 C94.34,46.894 94.371,46.979 94.387,47.081 C94.403,47.183 94.412,47.298 94.412,47.426 L94.412,50.2 L94.987,50.2 Z M96.787,47.164 C96.84,47.033 96.91,46.925 96.996,46.84 C97.08,46.755 97.178,46.692 97.287,46.652 C97.396,46.612 97.504,46.592 97.611,46.592 C97.793,46.592 97.95,46.617 98.084,46.668 C98.217,46.719 98.328,46.773 98.42,46.832 C98.521,46.901 98.608,46.98 98.684,47.072 L98.684,47.632 C98.684,47.989 98.588,48.255 98.396,48.428 C98.203,48.601 97.969,48.687 97.691,48.687 C97.414,48.687 97.18,48.601 96.991,48.428 C96.803,48.255 96.707,47.989 96.707,47.632 C96.707,47.451 96.734,47.295 96.787,47.164 L96.787,47.164 Z M96.932,50.271 C96.963,50.277 97,50.281 97.039,50.284 C97.08,50.287 97.123,50.288 97.172,50.288 L98.18,50.288 C98.291,50.288 98.398,50.295 98.5,50.308 C98.601,50.321 98.688,50.346 98.764,50.383 C98.838,50.42 98.898,50.473 98.943,50.542 C98.988,50.611 99.012,50.701 99.012,50.811 C99.012,50.924 98.979,51.019 98.912,51.103 C98.844,51.184 98.752,51.252 98.635,51.305 C98.519,51.358 98.381,51.398 98.224,51.424 C98.066,51.451 97.896,51.464 97.715,51.464 C97.534,51.464 97.367,51.453 97.215,51.432 C97.064,51.411 96.933,51.376 96.823,51.329 C96.715,51.281 96.629,51.219 96.567,51.142 C96.506,51.065 96.476,50.969 96.476,50.852 C96.476,50.762 96.494,50.679 96.531,50.602 C96.568,50.525 96.608,50.46 96.651,50.407 C96.705,50.349 96.764,50.296 96.828,50.248 C96.859,50.259 96.895,50.267 96.932,50.271 L96.932,50.271 Z M96.336,51.633 C96.605,51.792 97.047,51.872 97.659,51.872 C98.278,51.872 98.748,51.769 99.071,51.563 C99.395,51.359 99.555,51.088 99.555,50.752 C99.555,50.421 99.451,50.181 99.243,50.032 C99.035,49.883 98.729,49.808 98.323,49.808 L97.323,49.808 C97.115,49.808 96.969,49.776 96.883,49.712 C96.799,49.648 96.756,49.562 96.756,49.456 C96.756,49.237 96.95,49.128 97.34,49.128 L97.691,49.128 C97.899,49.128 98.096,49.097 98.283,49.036 C98.471,48.975 98.635,48.881 98.775,48.756 C98.916,48.631 99.03,48.471 99.115,48.276 C99.2,48.081 99.243,47.851 99.243,47.584 L99.243,46.2 L98.812,46.2 L98.731,46.6 C98.641,46.515 98.534,46.436 98.412,46.368 C98.305,46.309 98.176,46.255 98.027,46.204 C97.879,46.153 97.707,46.128 97.516,46.128 C97.355,46.128 97.194,46.159 97.031,46.22 C96.868,46.281 96.723,46.376 96.592,46.504 C96.461,46.632 96.353,46.793 96.268,46.988 C96.183,47.183 96.14,47.411 96.14,47.672 C96.14,47.907 96.172,48.1 96.239,48.252 C96.307,48.404 96.383,48.525 96.467,48.616 C96.563,48.723 96.676,48.805 96.803,48.864 C96.691,48.885 96.592,48.926 96.508,48.984 C96.433,49.033 96.364,49.102 96.303,49.193 C96.242,49.284 96.211,49.402 96.211,49.546 C96.211,49.637 96.225,49.717 96.252,49.783 C96.278,49.85 96.308,49.905 96.34,49.948 C96.377,50.001 96.422,50.042 96.476,50.068 C96.375,50.122 96.283,50.191 96.203,50.276 C96.135,50.35 96.071,50.441 96.016,50.547 C95.959,50.654 95.932,50.776 95.932,50.914 C95.932,51.234 96.066,51.473 96.336,51.633 L96.336,51.633 Z" id="Fill-5" fill="#FFFFFE"></path>
            <g id="Group-9">
                <mask id="mask-4" fill="white">
                    <use xlink:href="#path-3"></use>
                </mask>
                <g id="Clip-7"></g>
                <path d="M0,36.478 L99.779,36.478" id="Stroke-6" stroke="#FFFFFE" stroke-width="0.6" mask="url(#mask-4)"></path>
                <path d="M19.702,15.062 C23.313,15.062 25.2,13.418 25.2,10.777 C25.2,8.405 23.583,7.057 21.049,7.057 C16.279,7.057 13.826,11.208 13.826,15.089 C13.826,18.297 15.82,20.426 18.704,20.426 C19.756,20.426 21.858,20.049 23.044,19.644 L23.044,17.057 C21.373,17.38 20.645,17.488 19.702,17.488 C18.138,17.488 17.572,16.275 17.572,15.062 L19.702,15.062 Z M17.977,12.96 C18.273,11.262 19.486,10.103 20.375,10.103 C20.888,10.103 21.319,10.346 21.319,11.047 C21.319,11.963 20.403,12.96 19.109,12.96 L17.977,12.96 Z M5.39,11.963 C6.037,11.262 7.223,10.642 7.897,10.642 C8.759,10.642 9.056,11.451 9.056,12.124 C9.056,13.795 7.789,17.488 5.552,17.488 C5.202,17.488 4.258,17.353 4.258,17.353 L5.39,11.963 Z M6.873,3.958 L6.873,0.751 L0.862,0.751 L0.862,3.958 L3.073,3.958 L0,20.156 L1.94,20.156 C2.992,20.156 4.15,20.426 5.471,20.426 C10.107,20.426 12.802,15.467 12.802,11.478 C12.802,8.432 11.535,7.057 9.972,7.057 C8.328,7.057 6.738,8.189 5.875,8.971 L6.873,3.958 Z M53.817,20.202 L53.817,24.85 L51.538,24.85 L51.538,14.567 L49.035,14.567 L49.035,24.85 L46.759,24.85 L46.759,14.567 L44.22,14.567 L44.22,24.85 L41.939,24.85 L41.939,12.347 L53.817,12.347 L53.817,9.994 L46.759,9.994 L46.759,0.696 L99.779,0.696 L99.779,20.202 L53.817,20.202 Z M64.506,8.191 C64.417,6.104 62.609,5.877 60.958,5.877 C60.067,5.877 59.432,5.934 58.701,5.924 C57.971,5.915 57.335,5.901 57.335,5.901 L57.335,6.692 C57.335,6.692 57.545,6.754 57.876,6.802 C58.303,6.863 58.521,6.882 58.521,6.882 L58.521,14.7 L57.335,14.928 L57.335,15.696 L60.939,15.696 C60.939,15.696 64.631,15.896 64.723,12.916 C64.789,10.791 62.779,10.516 62.779,10.516 C62.779,10.516 64.581,9.994 64.506,8.191 L64.506,8.191 Z M69,8.562 C66.174,8.628 65.881,11.161 65.861,12.224 C65.846,13.091 66.043,14.583 67.172,15.341 C67.637,15.652 68.577,15.87 69.504,15.828 C70.338,15.79 71.437,15.383 71.437,15.383 L71.437,14.31 C71.437,14.31 70.541,14.718 69.342,14.737 C66.989,14.775 67.236,12.186 67.236,12.186 L71.741,12.186 C71.741,12.186 72.186,8.487 69,8.562 L69,8.562 Z M77.203,8.637 C77.203,8.637 76.373,8.529 75.752,8.908 C75.165,9.267 74.994,10.079 74.994,10.079 L74.994,8.713 C74.994,8.713 74.184,8.713 73.666,8.732 C73.211,8.749 72.499,8.799 72.499,8.799 L72.499,9.548 L73.666,9.7 L73.666,15.696 L75.032,15.696 L75.032,12.527 C75.032,12.527 74.975,11.023 75.676,10.274 C76.17,9.748 77.203,9.956 77.203,9.956 L77.203,8.637 Z M81.158,14.928 L79.982,14.737 L79.982,5.459 C79.982,5.459 79.266,5.45 78.807,5.459 C78.264,5.47 77.412,5.526 77.412,5.526 L77.412,6.247 C77.412,6.247 77.788,6.278 78.028,6.309 C78.243,6.335 78.578,6.389 78.578,6.389 L78.578,14.737 L77.412,14.928 L77.412,15.696 L81.158,15.696 L81.158,14.928 Z M83.998,5.801 C83.482,5.801 83.064,6.219 83.064,6.735 C83.064,7.251 83.482,7.67 83.998,7.67 C84.514,7.67 84.932,7.251 84.932,6.735 C84.932,6.219 84.514,5.801 83.998,5.801 L83.998,5.801 Z M85.975,14.928 L84.723,14.737 L84.723,8.713 C84.426,8.694 83.971,8.713 83.367,8.737 C82.87,8.757 82.639,8.775 82.174,8.818 L82.174,9.558 L83.367,9.719 L83.367,14.737 L82.174,14.928 L82.174,15.696 L85.975,15.696 L85.975,14.928 Z M92.073,8.637 C89.811,8.545 89.37,9.97 89.37,9.97 L89.37,8.713 C89.37,8.713 88.885,8.695 88.102,8.739 C87.358,8.782 86.819,8.832 86.819,8.832 L86.819,9.572 L87.986,9.709 L87.986,15.696 L89.37,15.696 L89.37,12.347 C89.37,12.347 89.313,11.715 89.541,11.047 C89.764,10.401 90.27,9.668 91.295,9.605 C92.496,9.532 92.424,10.857 92.424,10.857 L92.424,15.696 L93.818,15.696 L93.818,10.706 C93.818,10.706 93.932,8.713 92.073,8.637 L92.073,8.637 Z M67.331,11.147 C67.331,11.147 67.483,9.449 68.973,9.496 C70.524,9.546 70.366,11.147 70.366,11.147 L67.331,11.147 Z M61.148,14.581 C60.686,14.601 59.963,14.576 59.963,14.576 L59.963,11.151 C59.963,11.151 60.795,11.12 61.319,11.166 C62.452,11.265 63.196,11.745 63.254,12.797 C63.311,13.872 62.504,14.524 61.148,14.581 L61.148,14.581 Z M60.887,10.108 C60.498,10.117 59.963,10.117 59.963,10.117 L59.963,6.987 C59.963,6.987 61.02,6.969 61.693,7.015 C62.395,7.063 63.102,7.518 63.073,8.429 C63.033,9.71 62.014,10.08 60.887,10.108 L60.887,10.108 Z M27.567,24.85 L29.843,24.85 L29.843,14.52 L27.567,14.52 L27.567,24.85 Z M32.366,24.85 L34.642,24.85 L34.642,14.52 L32.366,14.52 L32.366,24.85 Z M37.164,24.85 L39.44,24.85 L39.44,14.52 L37.164,14.52 L37.164,24.85 Z M27.567,12.347 L41.944,12.347 L41.944,9.994 L27.567,9.994 L27.567,12.347 Z M39.051,6.977 C39.051,6.055 39.798,5.307 40.72,5.307 C41.643,5.307 42.39,6.055 42.39,6.977 C42.39,7.9 41.643,8.648 40.72,8.648 C39.798,8.648 39.051,7.9 39.051,6.977 L39.051,6.977 Z" id="Fill-8" fill="#FFFFFE" mask="url(#mask-4)"></path>
            </g>
        </g>
    </g>
</svg>