<svg
  version="1.1"
  id="Layer_1"
  xmlns="http://www.w3.org/2000/svg"
  x="0"
  y="0"
  viewBox="0 0 650 148"
  style="enable-background: new 0 0 650 148"
  xml:space="preserve"
>
  <style>
    .st0 {
      fill: #fff;
    }
  </style>
  <path
    class="st0"
    d="m33.1 8.8-.3-1.2-18.9 95.3-13.2 9.9v1l13.2-3.8 13.9 3.7.3.1v-1L15.6 103l6.2-31h22l6.9 31-12.7 9.9v1l14.3-3.8 14.1 3.8v-1l-12.4-10L33.1 8.8zM43.3 70H22.2l9.9-50.4L43.3 70zM104 44.3H93.6v2.9h7.4V95c-3.6 13.1-7.7 15.8-13.1 15.8-5.9 0-9.7-9-9.7-22.8V44.3H68v2.9h7.2v42.5c0 15.8 4.6 25.7 12 25.7 6.5 0 11.3-6 13.8-16.9V114l13.5-8.7.1-.1v-.9L104 106V44.3zM139.4 77.1c-.3-.2-.7-.4-1-.6l-1-.6c-5.1-3.1-12.8-7.7-13.9-14.7-.7-4.6.5-9.4 3.1-12.4 1.9-2.2 4.5-3.4 7.4-3.4 6.4 0 12.8 9.1 14.1 20l.7 6.1h2.1l-1.3-28.6h-.9l-1.2 8.5c-3-4.1-7.3-8.7-11.9-8.7-7 0-14.1 6.4-14.1 18.8 0 10.3 6.7 14.5 12 17.9.6.3 1.1.7 1.6 1 .4.2.8.5 1.2.7 4.9 3 12.2 7.6 13.2 15.8.6 5.1-.5 9.7-3.2 12.7-1.8 2.1-4.3 3.2-7.1 3.2-8.4 0-14.7-10-15.6-24.8-.2-2.3-.2-4.2-.2-5v-.2h-2.1l-.6 32.3h.9l2-9.5c2.9 4.8 7.1 10 13.4 10 7.1 0 14.7-6.3 14.7-20.1.4-10.7-7.2-15.4-12.3-18.4zM178.5 77.1c-.3-.2-.7-.4-1-.6l-1-.6c-5.1-3.1-12.8-7.7-13.9-14.7-.7-4.6.5-9.4 3.1-12.4 1.9-2.2 4.5-3.4 7.4-3.4 6.4 0 12.8 9.1 14.1 20l.7 6.1h2.1l-1.3-28.6h-.9l-1.2 8.5c-3-4.1-7.3-8.7-11.9-8.7-7 0-14.1 6.4-14.1 18.8 0 10.3 6.7 14.5 12 17.9.6.3 1.1.7 1.6 1 .4.2.8.5 1.2.7 4.9 3 12.2 7.6 13.2 15.8.6 5.1-.5 9.7-3.2 12.7-1.8 2.1-4.3 3.2-7.1 3.2-8.4 0-14.7-10-15.6-24.8-.2-2.3-.2-4.2-.2-5v-.2h-2.1l-.6 32.3h.9l2-9.5c2.9 4.8 7.1 10 13.4 10 7.1 0 14.7-6.3 14.7-20.1.3-10.7-7.3-15.4-12.3-18.4zM224.4 107.5c-1.2 2-3.4 4.4-7.7 4.4-4.5 0-7.2-7.5-7.2-19.9V48.8l11.4 1.3v-5.9l-11.4 1V27.6h-3v18l-9.7.8v1l9.7 1.2v42.7c0 15.9 3.3 24 9.7 24 4.5 0 7.2-4 8.9-7l.1-.1-.4-1.1-.4.4zM265.6 99.9c-4 7.7-8.1 11.3-12.8 11.3-10.5 0-18.1-16.6-18.1-39.5v-.6l30.3 2h.3v-.3c.4-11.3-2.5-21.7-7.6-26.9-2.2-2.3-4.7-3.5-7.2-3.5-11 0-18.1 14.7-18.1 37.4 0 24.2 9.4 35.3 18.2 35.3 8 0 12-6.9 15.8-14.6v-.1l-.4-1.1-.4.6zm-30.9-29.7c.5-14 5.8-24.1 12.8-24.1 6.3 0 11.7 7.1 13.9 18.2.2.6.3 2.5.3 3.6l-27 2.3zM289.5 12.1h-14.6v2.7h11.5v88.5l-15.3 9.5-.1.1v.9l16.9-3.7 17.3 3.7h.3v-.9l-16-9.6zM327 12.1h-14.6v2.7H324v88.5l-15.4 9.5-.1.1v.9l17-3.7 17.3 3.7h.3v-.9l-16.1-9.6zM382.2 44.3h-10.4v2.9h7.4V95c-3.6 13.1-7.7 15.8-13.1 15.8-5.9 0-9.7-9-9.7-22.8V44.3h-10.2v2.9h7.2v42.5c0 15.8 4.6 25.7 12 25.7 6.5 0 11.3-6 13.8-16.9V114l13.5-8.7.1-.1v-.9l-10.6 1.9V44.3zM440.2 68.2c0-15.6-5.2-25.7-13.3-25.7-6.5 0-11.3 6-13.8 16.9V44.3h-13.6v2.9h10.6v56.2l-13.1 9.5-.1.1v1l14.7-3.8L424 114v-1l-10.9-9.6V62.9c3.7-13.1 7.7-15.8 13.1-15.8 6.7 0 10.9 9.6 10.9 25.2v31l-10.3 9.6v1l11.8-3.8 15 3.7.3.1v-1l-13.8-9.6V68.2zM481.7 109.2h-10.3l9.8-6.8c6.8-4.7 11-16 11-29.5 0-10.7-3.7-21-9.3-25.8h8.9v-2.9h-15.9c-10.4 0-17.4 12.4-17.4 30.9 0 18.1 8.8 28.9 17.4 28.9h.5l-13.6 8.8-.1.1v.9h17.7c6.6 0 10.7 5 10.7 13 0 8.7-6.6 16.9-13.6 16.9-5.4 0-10.5-2.2-15.4-6.8l-.4-.4v1.5l.1.1c.5.4 1 .9 1.5 1.3 3.5 3.2 7.2 6.5 15.2 6.5 9.3 0 16.1-8.7 16.1-20.6 0-10.4-6.7-16.1-12.9-16.1zm-4.4-7.2c-8.4 0-15.8-15.5-15.8-33.2 0-13 5-22.5 11.9-22.5 7.8 0 16.1 13.2 16.1 32.9 0 9.5-4.7 22.8-12.2 22.8zM520.9 77.1c-.3-.2-.7-.4-1-.6l-1-.6c-5.1-3.1-12.8-7.7-13.9-14.7-.7-4.6.5-9.4 3.1-12.4 1.9-2.2 4.5-3.4 7.4-3.4 6.4 0 12.8 9.1 14.1 20l.7 6.1h2.1l-1.3-28.6h-.9l-1.2 8.5c-3-4.1-7.3-8.7-11.9-8.7-7 0-14.1 6.4-14.1 18.8 0 10.3 6.7 14.5 12 17.9.6.3 1.1.7 1.6 1 .4.2.8.5 1.2.7 4.9 3 12.2 7.6 13.2 15.8.6 5.1-.5 9.7-3.2 12.7-1.8 2.1-4.3 3.2-7.1 3.2-8.4 0-14.7-10-15.6-24.8-.2-2.3-.2-4.2-.2-5v-.2H503l-.6 32.3h.9l2-9.5c2.9 4.8 7.1 10 13.4 10 7.1 0 14.7-6.3 14.7-20.1.2-10.7-7.4-15.4-12.5-18.4zM561 42.6c-11.5 0-19.2 15-19.2 37.4 0 20.8 7.7 35.3 18.7 35.3 10.2 0 18.4-17.1 18.4-38.1 0-9.1-1.6-17.6-4.6-23.9-3.2-7-7.8-10.7-13.3-10.7zm15.4 42.1c0 13.1-5 26.7-13.3 26.7-11 0-18.9-16.2-18.9-38.6 0-18.4 7.2-26.8 13.9-26.8 11.1-.1 18.3 15.2 18.3 38.7zM611.3 42.6c-5.4.3-10.5 10.3-12.5 20.4V44.3h-11.3v2.9h8.3v56.2l-11.2 9.6v1l12.7-3.8 13.6 3.8v-1l-12.1-9.6V68.2c2.3-13.1 5.8-18 13.1-18h.9v-7.4h-.2c0-.1-.7-.2-1.3-.2zM647.7 107.5c-1.2 2-3.4 4.4-7.7 4.4-4.5 0-7.2-7.5-7.2-19.9V48.8l11.4 1.3v-5.9l-11.4 1V27.6h-3v18l-9.7.8v1l9.7 1.2v42.7c0 15.9 3.3 24 9.7 24 4.5 0 7.2-4 8.9-7l.1-.1-.5-1.2-.3.5z"
  />
</svg>
