<svg
  xmlns="http://www.w3.org/2000/svg"
  viewBox="0 0 587 127"
  style="enable-background: new 0 0 587 127"
  xml:space="preserve"
>
  <path
    d="m46.7 23.7 12.8-9.3.1-.1v-1l-14.4 3.8-14.4-3.8v1l12.8 9.4v81.1l-14.7 9.3-.1.1v.9l16.4-3.7 16.3 3.7v-.9l-14.8-9.4zm83.4-3.8 14-5.6v-.9h-16.6l-19.9 93.5L86 13.6v-.2H70.2v.9l13.1 6.4v84.1l-15.8 9.4v.9l16.6-3.7 15.3 3.7v-.9l-14.5-9.4V24.3l21.4 93.3v.2h.8l19.8-93.5v80.5l-11.8 9.3-.1.1v1l13.5-3.8 16.2 3.7v-.9l-14.6-9.4zm45.3-6.5h-27.5v.9l13.1 6.4v84l-13.1 9.4v1l14.8-3.8 19.3 3.8v-1l-17.8-9.4V72.2h11.5c12.6 0 20.2-11.2 20.2-29.9 0-8.9-2.1-16.3-6-21.5-3.6-4.8-8.8-7.4-14.5-7.4zm-11.2 2h10.2c12.3 0 17.8 13.9 17.8 26.8 0 13.9-5.4 27.9-17.6 27.9h-10.5V15.4zm83 24.7c0-16-8.2-26.7-20.5-26.7h-27.5v.9l13.1 6.4v84l-13.1 9.4v1l14.8-3.8 19.1 3.8v-1l-17.6-9.4V66.3h13l23.8 55.3.6-1-19.7-55.1c9.3-2.8 14-11.3 14-25.4zm-31.7-24.7h10.2c12.3 0 17.8 12.8 17.8 24.7 0 14.9-6.7 24.2-17.6 24.2h-10.5V15.4zm84.2 97.8h-27.8V62.4h16.3l5.3 24.1.8-.7-2.3-24.6 2.2-20.2v-.1l-.7-1-5.3 20.5h-16.3v-45h26.5l3 32.6v.3h1V13.4h-47.1v.9l13.4 6.6v86.5l-13.4 6.8v.9h48.8V74.2h-1zm35.9-51.9c-.5-.4-1-.7-1.4-1l-.6-.5c-6.9-5-16.3-11.8-16.3-24.3 0-14.1 5-21.3 14.7-21.3 7.8 0 14 11.4 16.2 29.7.4 2.7.9 8.5.9 8.6v.2h1.9V11.9h-1l-1.5 15.9c-3.5-7.9-9.6-15.9-16.6-15.9-11.1 0-17.5 9-17.5 24.8 0 15 9.6 22.2 16.6 27.5l.9.6c.4.3.9.7 1.4 1C339.9 70.7 350 78.1 350 91c0 14.8-5.7 23.3-15.5 23.3-10.5 0-18.4-14-19.3-33.9-.2-3.7-.3-6.2-.3-7.2V73H313v43.6h.9l1.6-12.3c4.1 6.2 9.5 12.3 17.8 12.3 9.6 0 19.8-7.1 19.8-27 0-15.7-10.6-23.3-17.5-28.3zm49.7 0c-.5-.4-1-.7-1.4-1l-.6-.5c-6.9-5-16.3-11.8-16.3-24.3 0-14.1 5-21.3 14.7-21.3 7.8 0 14 11.4 16.2 29.7.4 2.7.9 8.5.9 8.6v.2h1.9V11.9h-1l-1.5 15.9c-3.5-7.9-9.6-15.9-16.6-15.9-11.1 0-17.5 9-17.5 24.8 0 15 9.6 22.2 16.6 27.5l.9.6c.4.3.9.7 1.4 1 6.6 4.9 16.7 12.3 16.7 25.2 0 14.8-5.7 23.3-15.5 23.3-10.5 0-18.4-14-19.3-33.9-.2-3.7-.3-6.2-.3-7.2V73h-1.9v43.6h.9l1.6-12.3c4.1 6.2 9.5 12.3 17.8 12.3 9.6 0 19.8-7.1 19.8-27 0-15.7-10.5-23.3-17.5-28.3zm63.3-48v1l12.8 10.4v50.9c0 17.4-4.7 35.9-17.9 35.9-11.7 0-18.7-13.4-18.7-35.9V23.7l14.1-9.4.1-.1v-1L423.2 17l-14.4-3.8v1l12.8 9.4V76c0 26.5 7.5 40.5 21.8 40.5 13.5 0 19.8-14.6 19.8-45.9v-46l14.2-10.4.1-.1v-1l-15.1 3.8-13.8-3.6zm95.6 91.5V19.9l14-5.6v-.9h-16.6l-20 93.5-21.5-93.3v-.2h-15.9v.9l13.2 6.4v84.1l-15.8 9.4v.9l16.6-3.7 15.2 3.7v-.9l-14.5-9.4V24.3l21.4 93.3.1.2h.8L541 24.3v80.5l-11.8 9.3-.1.1v1l13.5-3.8 16.2 3.7v-.9z"
    style="fill: #fff"
  />
</svg>
