<svg
  xmlns="http://www.w3.org/2000/svg"
  viewBox="0 0 637 148"
  style="enable-background: new 0 0 637 148"
  xml:space="preserve"
>
  <path
    d="m104.5 19.4 12.8-9.3.1-.1V9L103 12.8 88.5 9v1l12.9 9.4v81.1l-14.7 9.3-.1.1v.9l16.4-3.7 16.3 3.7v-.9l-14.8-9.4zm47.3 90.5-10.9-9.6V59.9c3.7-13.1 7.7-15.8 13.1-15.8 6.7 0 10.9 9.6 10.9 25.2v31l-10.3 9.6v1l11.8-3.8 12.3 3.8v-1l-10.8-9.6V65.2c0-2-.1-4.1-.3-5.9 3.6-12.8 7.7-15.3 13.5-15.3 6.7 0 10.9 9.6 10.9 25.2v31l-10.3 9.6v1l11.8-3.8 15 3.7.3.1v-1l-13.8-9.6v-35c0-15.6-5.2-25.7-13.3-25.7-6.7 0-12 6.5-14.3 17.6-1.6-11-6.3-17.6-12.8-17.6-6.5 0-11.3 6-13.8 16.9V41.3h-13.6v2.9h10.6v56.2l-13.1 9.5-.1.1v1l14.7-3.8 12.4 3.8v-1.1zm91 32.5.3.1v-1l-16.5-9.6v-23.4c2.1 1.8 5.4 3.7 9.7 3.7 5.9 0 11-3.9 14.9-11.3 3.6-6.9 5.7-16.3 6-26.5.4-13.1-3.2-25.8-9-31.7-2.1-2.2-4.3-3.2-6.7-3.2-8.3 0-13.1 8.9-14.9 13.1V41.3h-14v2.9h11V132l-11 9.6v1l12.8-3.8 17.4 3.6zm-4.4-98.3c9.8 0 15.9 13.8 15.9 36.1 0 16.7-6.4 28.9-15.3 28.9-4.9 0-9.6-3.1-12.5-8.4V55c1.7-4.1 5.4-10.9 11.9-10.9zm50.6 65.8-12.1-9.6V65.1c2.3-13.1 5.8-18 13.1-18h.9v-7.4h-.2s-.8-.2-1.3-.2c-5.4.3-10.5 10.3-12.5 20.4V41.3h-11.3v2.9h8.3v56.2l-11.2 9.6v1l12.7-3.8L289 111v-1.1zm29.9 2.4c8 0 12-6.9 15.8-14.6v-.1l-.4-1.1-.3.5c-4 7.7-8.1 11.3-12.8 11.3-10.5 0-18.1-16.6-18.1-39.5v-.6l30.3 2h.3v-.3c.4-11.3-2.5-21.7-7.6-26.9-2.2-2.3-4.7-3.5-7.2-3.5-11 0-18.1 14.7-18.1 37.4-.1 24.3 9.3 35.4 18.1 35.4zm-15.8-45.1c.5-14 5.8-24.1 12.8-24.1 6.3 0 11.7 7.1 13.9 18.2.2.6.3 2.5.3 3.6l-27 2.3zm69.6 25c0-10.4-7.6-15-12.6-18.1-.3-.2-.7-.4-1-.6l-1-.6c-5.1-3.1-12.8-7.7-13.9-14.7-.7-4.6.5-9.4 3.1-12.4 1.9-2.2 4.5-3.4 7.4-3.4 6.4 0 12.8 9.1 14.1 20l.7 6.1h2.1l-1.3-28.6h-.9l-1.2 8.5c-3-4.1-7.3-8.7-11.9-8.7-7 0-14.1 6.4-14.1 18.8 0 10.3 6.7 14.5 12 17.9.6.3 1.1.7 1.6 1 .4.2.8.5 1.2.7 4.9 3 12.2 7.6 13.2 15.8.6 5.1-.5 9.7-3.2 12.7-1.8 2.1-4.3 3.2-7.1 3.2-8.4 0-14.7-10-15.6-24.8-.2-2.3-.2-4.2-.2-5v-.2H342l-.6 32.3h.9l2-9.5c2.9 4.8 7.1 10 13.4 10 7.4-.3 15-6.6 15-20.4zm39.1 0c0-10.4-7.6-15-12.6-18.1-.3-.2-.7-.4-1-.6l-1-.6c-5.1-3.1-12.8-7.7-13.9-14.7-.7-4.6.5-9.4 3.1-12.4 1.9-2.2 4.5-3.4 7.4-3.4 6.4 0 12.8 9.1 14.1 20l.7 6.1h2.1l-1.3-28.6h-.9l-1.2 8.5c-3-4.1-7.3-8.7-11.9-8.7-7 0-14.1 6.4-14.1 18.8 0 10.3 6.7 14.5 12 17.9.6.3 1.1.7 1.6 1 .4.2.8.5 1.2.7 4.9 3 12.2 7.6 13.2 15.8.6 5.1-.5 9.7-3.2 12.7-1.8 2.1-4.3 3.2-7.1 3.2-8.4 0-14.7-10-15.6-24.8-.2-2.3-.2-4.2-.2-5v-.2h-2.1l-.6 32.3h.9l2-9.5c2.9 4.8 7.1 10 13.4 10 7.3-.3 15-6.6 15-20.4zm12.9-5.6c0 15.8 4.6 25.7 12 25.7 6.5 0 11.3-6 13.8-16.9v15.5l13.5-8.7.1-.1v-.9l-10.6 1.9V41.3h-10.4v2.9h7.4V92c-3.6 13.1-7.7 15.8-13.1 15.8-5.9 0-9.7-9-9.7-22.8V41.3h-10.2v2.9h7.2v42.4zm114.1 13.7v-35c0-15.6-5.2-25.7-13.3-25.7-6.7 0-12 6.5-14.3 17.6-1.6-11-6.3-17.6-12.8-17.6-6.5 0-11.3 6-13.8 16.9V41.3H471v2.9h10.6v56.2l-13.1 9.5-.1.1v1l14.7-3.8 12.4 3.8v-1l-10.9-9.6V59.9c3.6-13.1 7.7-15.8 13.1-15.8 6.7 0 10.9 9.6 10.9 25.2v31l-10.3 9.6v1l11.8-3.8 12.3 3.8v-1l-10.8-9.6V65.2c0-2-.1-4.1-.3-5.9C514.9 46.5 519 44 524.8 44c6.7 0 10.9 9.6 10.9 25.2v31l-10.3 9.6v1l11.8-3.8 15 3.7.3.1v-1l-13.7-9.5z"
    style="fill: #fff"
  />
</svg>
