<svg
  xmlns="http://www.w3.org/2000/svg"
  viewBox="0 0 585 148"
  style="enable-background: new 0 0 585 148"
  xml:space="preserve"
>
  <path
    d="M57.1 34 70 25.1l.1-.1v-1l-12 3.8-10-3.8v1l7.7 8.8-24 48.6v-48l14.1-9.3.1-.1v-1l-15.2 3.8L17.5 24v1l11.1 9.4v81.1L17 124.9v.9l13.5-3.7 19.6 3.7v-.9l-18.3-9.5V85.3l5.7-11.4 31.8 58 .2.4.6-1-29.6-63.7zm51.7 22.3H98.4v2.9h7.4V107c-3.6 13.1-7.7 15.8-13.1 15.8-5.9 0-9.7-9-9.7-22.8V56.3H72.8v2.9H80v42.5c0 15.8 4.6 25.7 12 25.7 6.5 0 11.3-6 13.8-16.9V126l13.5-8.7.1-.1v-.9l-10.6 1.9V56.3zm41.4-1.7c-5.4.3-10.5 10.3-12.5 20.4V56.3h-11.3v2.9h8.3v56.2l-11.2 9.6v1l12.7-3.8 13.6 3.8v-1l-12.1-9.6V80.2c2.3-13.1 5.8-18 13.1-18h.9v-7.4h-.2c0-.1-.8-.2-1.3-.2zM191 81.8c0-17.3-4.6-27.2-12.6-27.2-8.4 0-13 9.2-16.1 17.2v.1l.6 1.3.2-.6c3.9-9.9 8.4-14.3 14.4-14.3 6.4 0 10.5 9.3 10.5 23.7v3.7l-25.1 10.5h-.1v.1c-.9 2.3-1.8 7.3-1.8 11.5 0 9.7 3.5 19.4 11.4 19.4 6.5 0 12.8-5.2 15.6-12.9v13.1l15.2-10.8v-.9l-12.2 2.9V81.8zm-16.1 40.4c-5.1 0-12.5-6.4-12.5-17.9 0-.9 0-1.8.1-2.5l25.5-15V112c-2.3 5.9-7.8 10.2-13.1 10.2zm57.8-2.7c-1.2 2-3.4 4.4-7.7 4.4-4.5 0-7.2-7.5-7.2-19.9V60.8l11.4 1.3v-5.9l-11.4 1V39.6h-3v18l-9.7.8v1l9.7 1.2v42.7c0 15.9 3.3 24 9.7 24 4.5 0 7.2-4 8.9-7l.1-.1-.5-1.2-.3.5zm27.2-64.9c-11.5 0-19.2 15-19.2 37.4 0 20.8 7.7 35.3 18.7 35.3 10.2 0 18.4-17.1 18.4-38.1 0-9.1-1.6-17.6-4.6-23.9-3.2-7-7.9-10.7-13.3-10.7zm15.3 42.1c0 13.1-5 26.7-13.3 26.7-11 0-18.9-16.2-18.9-38.6 0-18.4 7.2-26.8 13.9-26.8 11.1-.1 18.3 15.2 18.3 38.7zm34.9-42.1c-5.4.3-10.5 10.3-12.5 20.4V56.3h-11.3v2.9h8.3v56.2l-11.2 9.6v1l12.7-3.8 13.6 3.8v-1l-12.1-9.6V80.2c2.3-13.1 5.8-18 13.1-18h.9v-7.4h-.2c0-.1-.7-.2-1.3-.2zm27.3 1.7h-14.6v2.8h11.5v56.2l-15.3 9.5-.1.1v.9l16.9-3.7 17.3 3.7h.3v-.9l-16-9.6zm-1.7-24.5c1.7 0 2.8-1.9 2.8-4.6 0-2.8-1.1-4.6-2.8-4.6-1.6 0-2.8 2-2.8 4.6.1 2.6 1.3 4.6 2.8 4.6zm64 48.4c0-15.6-5.2-25.7-13.3-25.7-6.5 0-11.3 6-13.8 16.9V56.3H359v2.9h10.6v56.2l-13.1 9.5-.1.1v1l14.7-3.8 12.4 3.8v-1l-10.9-9.6V74.9c3.7-13.1 7.7-15.8 13.1-15.8 6.7 0 10.9 9.6 10.9 25.2v31l-10.3 9.6v1l11.8-3.8 15 3.7.3.1v-1l-13.8-9.6V80.2zm59.1 0c0-15.6-5.2-25.7-13.3-25.7-6.5 0-11.3 6-13.8 16.9V56.3h-13.6v2.9h10.6v56.2l-13.1 9.5-.1.1v1l14.7-3.8 12.4 3.8v-1l-10.9-9.6V74.9c3.7-13.1 7.7-15.8 13.1-15.8 6.7 0 10.9 9.6 10.9 25.2v31l-10.3 9.6v1l11.8-3.8 15 3.7.3.1v-1l-13.8-9.6V80.2zm51.7 31.7c-4 7.7-8.1 11.3-12.8 11.3-10.5 0-18.1-16.6-18.1-39.5v-.6l30.3 2h.3v-.3c.4-11.3-2.5-21.7-7.6-26.9-2.2-2.3-4.7-3.5-7.2-3.5-11 0-18.1 14.7-18.1 37.4 0 24.2 9.4 35.3 18.2 35.3 8 0 12-6.9 15.8-14.6v-.1l-.4-1.1-.4.6zm-31-29.7c.5-14 5.8-24.1 12.8-24.1 6.3 0 11.7 7.1 13.9 18.2.2.6.3 2.5.3 3.6l-27 2.3zm79.6 33.1v-35c0-15.6-5.2-25.7-13.3-25.7-6.5 0-11.3 6-13.8 16.9V56.3h-13.6v2.9H529v56.2l-13.1 9.5-.1.1v1l14.7-3.8 12.4 3.8v-1l-10.9-9.6V74.9c3.6-13.1 7.7-15.8 13.1-15.8 6.7 0 10.9 9.6 10.9 25.2v31l-10.3 9.6v1l11.8-3.8 15 3.7.3.1v-1l-13.7-9.6z"
    style="fill: #fff"
  />
</svg>
