<svg
  version="1.1"
  id="Layer_1"
  xmlns="http://www.w3.org/2000/svg"
  x="0"
  y="0"
  viewBox="0 0 191 144"
  style="enable-background: new 0 0 191 144"
  xml:space="preserve"
>
  <style>
    .st0 {
      fill: #fff;
    }
  </style>
  <path
    class="st0"
    d="M28.8 18.8c0-2.8-1.1-4.6-2.8-4.6-1.6 0-2.8 2-2.8 4.6 0 2.6 1.2 4.6 2.8 4.6 1.6 0 2.8-1.9 2.8-4.6zM47.2 18.8c0-2.8-1.1-4.6-2.8-4.6-1.6 0-2.8 2-2.8 4.6 0 2.6 1.2 4.6 2.8 4.6 1.7 0 2.8-1.9 2.8-4.6zM34.9 132.3c13.5 0 19.8-14.6 19.8-45.9v-46L68.9 30h.1v-1l-15.1 3.8L40.1 29v1L53 40.4v50.9c0 17.4-4.7 35.9-17.9 35.9-11.7 0-18.7-13.4-18.7-35.9V39.4L30.5 30l.1-.1v-1l-15.8 3.8L.3 29v1l12.8 9.4v52.4c.1 26.5 7.6 40.5 21.8 40.5zM77.9 125.8c4.4 4.1 7.9 6.5 12.6 6.5 5.9 0 11-3.9 14.9-11.3 3.6-6.9 5.7-16.3 6-26.5.4-13.1-3.2-25.8-9-31.7-2.1-2.2-4.3-3.2-6.7-3.2-8.3 0-13.1 8.9-14.9 13.1V29.1h-8.1v2.7h5.1l.1 94zm14.8-61.7c9.8 0 15.9 13.8 15.9 36.1 0 16.7-6.4 28.9-15.3 28.9-4.9 0-9.6-3.1-12.5-8.4V75c1.7-4.1 5.4-10.9 11.9-10.9zM154 116.9c-4 7.7-8.1 11.3-12.8 11.3-10.5 0-18.1-16.6-18.1-39.5v-.6l30.3 2h.3v-.3C154 78.6 151 68.3 146 63c-2.2-2.3-4.7-3.5-7.2-3.5-11 0-18.1 14.7-18.1 37.4 0 24.2 9.4 35.3 18.2 35.3 8 0 12-6.9 15.8-14.6v-.1l-.4-1.1-.3.5zm-30.9-29.7c.5-14 5.8-24.1 12.8-24.1 6.3 0 11.7 7.1 13.9 18.2.2.6.3 2.5.3 3.6l-27 2.3zM185.6 130.8v-1l-12.1-9.6V85c2.3-13.1 5.8-18 13.1-18h.9v-7.4h-.2s-.8-.2-1.3-.2c-5.4.3-10.5 10.3-12.5 20.4V61.3h-11.3v2.9h8.3v56.2l-11.2 9.6v1l12.7-3.8 13.6 3.6z"
  />
</svg>
