<svg
  xmlns="http://www.w3.org/2000/svg"
  viewBox="0 0 558 127"
  style="enable-background: new 0 0 558 127"
  xml:space="preserve"
>
  <path
    d="m159.1 12.8-.3-1.2-18.9 95.3-13.2 9.9v1l13.2-3.8 13.9 3.7.3.1v-1l-12.6-9.9 6.2-31h22l6.9 31-12.7 9.9v1l14.3-3.8 14.1 3.8v-1l-12.4-10-20.8-94zM169.3 74h-21.2l9.9-50.4L169.3 74zm59-8.9c7.2-1.8 12-11.3 12-24.4 0-16.1-7.2-24.7-20.7-24.7h-25.2v1l13.1 6.6v86.5l-14.4 6.7v.9h26.2c17.4 0 24.8-8.3 24.8-27.9.1-14.8-7.5-23.3-15.8-24.7zm12.4 24.8c0 17.7-6.5 26-20.6 26h-9.4V66.3h7.3c11.4 0 22.7 7.3 22.7 23.6zm-4-49.1c0 21.7-10.6 23.5-20.6 23.5h-5.4V18.1h9.2c10.6 0 16.8 8.5 16.8 22.7zm41.7-26.2c-8.3 0-15.3 5.5-20.3 15.8-4.7 9.7-7.2 23.3-7.2 38.3 0 29.8 11 50.6 26.8 50.6 14.6 0 26.4-24.4 26.4-54.4.1-25-8.8-50.3-25.7-50.3zm22.7 59.3c0 19.6-7.9 40.8-20.6 40.8-16 0-26.8-21.7-26.8-53.9 0-25.4 8.5-41.8 21.7-41.8 15.9 0 25.7 21 25.7 54.9zM349.3 16v1l12.8 10.4v50.9c0 17.4-4.7 35.9-17.9 35.9-11.7 0-18.7-13.4-18.7-35.9V26.4l14.1-9.4.1-.1v-1l-15.8 3.8-14.4-3.7v1l12.8 9.4v52.4c0 26.5 7.5 40.5 21.8 40.5 13.5 0 19.8-14.6 19.8-45.9v-46L378.1 17l.1-.1v-1l-15.1 3.8-13.8-3.7zm34.2.1v43.8h1l3.4-41.8h17.5v89.4l-13.3 9.3-.1.1v.9l15-3.7 14.7 3.7v-.9l-13.1-9.4V18.1h17.8l3.4 41.8h.9V16.1z"
    style="fill: #fff"
  />
</svg>
