<svg
  version="1.1"
  id="Layer_1"
  xmlns="http://www.w3.org/2000/svg"
  x="0"
  y="0"
  viewBox="0 0 558 127"
  style="enable-background: new 0 0 558 127"
  xml:space="preserve"
>
  <style>
    .st0 {
      fill: #fff;
    }
  </style>
  <path
    class="st0"
    d="m128.1 10.8-.3-1.2-18.9 95.3-13.2 9.9v1l13.2-3.8 13.9 3.7.3.1v-1l-12.6-9.9 6.2-31h22l6.9 31-12.7 9.9v1l14.3-3.8 14.1 3.8v-1l-12.4-10-20.8-94zM138.3 72h-21.2l9.9-50.4L138.3 72zM210.2 40.8c0-16-8.2-26.7-20.5-26.7h-27.5v.9l13.1 6.4v84l-13.1 9.4v1L177 112l19.1 3.8v-1l-17.6-9.4V67h13l23.6 54.9.2.5.6-1-19.7-55.1c9.3-2.9 14-11.4 14-25.5zm-31.7-24.7h10.2c12.3 0 17.8 12.8 17.8 24.7 0 14.9-6.7 24.2-17.6 24.2h-10.5V16.1zM221.1 57.9h1l3.4-41.8H243v89.4l-13.3 9.3-.1.1v.9l15-3.7 14.6 3.7v-.9l-13.1-9.4V16.1h17.8l3.4 41.8h1V14.1h-47.2zM293.5 24.4l12.7-9.3.1-.1v-1L292 17.8 277.5 14v1l12.9 9.4v81.1l-14.7 9.3-.1.1v.9l16.4-3.7 16.3 3.7v-.9l-14.8-9.4zM339.8 62c-.5-.4-1-.7-1.4-1l-.6-.5c-6.9-5-16.3-11.8-16.3-24.3 0-14.1 5-21.3 14.7-21.3 7.8 0 14 11.4 16.2 29.7.4 2.7.9 8.5.9 8.6v.2h1.9V12.6h-1l-1.5 15.9c-3.5-7.9-9.6-15.9-16.6-15.9-11.1 0-17.5 9-17.5 24.8 0 15 9.6 22.2 16.6 27.5l.9.6c.4.3.9.7 1.4 1 6.6 4.9 16.7 12.3 16.7 25.2 0 14.8-5.7 23.3-15.5 23.3-10.5 0-18.4-14-19.3-33.9-.2-3.7-.3-6.2-.3-7.2v-.2h-1.9v43.6h.9l1.6-12.3c4.1 6.2 9.5 12.3 17.8 12.3 9.6 0 19.8-7.1 19.8-27 0-15.7-10.5-23.3-17.5-28.3zM365.3 57.9h1l3.4-41.8h17.5v89.4l-13.3 9.3-.1.1v.9l15-3.7 14.6 3.7v-.9l-13.1-9.4V16.1h17.8l3.4 41.8h1V14.1h-47.2zM444 62c-.5-.4-1-.7-1.4-1l-.6-.5c-6.9-5-16.3-11.8-16.3-24.3 0-14.1 5-21.3 14.7-21.3 7.8 0 14 11.4 16.2 29.7.4 2.7.9 8.5.9 8.6v.2h1.9V12.6h-1l-1.5 15.9c-3.5-7.9-9.6-15.9-16.6-15.9-11.1 0-17.5 9-17.5 24.8 0 15 9.6 22.2 16.6 27.5l.9.6c.4.3.9.7 1.4 1 6.6 4.9 16.7 12.3 16.7 25.2 0 14.8-5.7 23.3-15.5 23.3-10.5 0-18.4-14-19.3-33.9-.2-3.7-.3-6.2-.3-7.2v-.2h-1.9v43.6h.9l1.6-12.3c4.1 6.2 9.5 12.3 17.8 12.3 9.6 0 19.8-7.1 19.8-27C461.5 74.6 451 67 444 62z"
  />
</svg>
