<svg
  version="1.1"
  id="Layer_1"
  xmlns="http://www.w3.org/2000/svg"
  x="0"
  y="0"
  viewBox="0 0 558 127"
  style="enable-background: new 0 0 558 127"
  xml:space="preserve"
>
  <style>
    .st0 {
      fill: #fff;
    }
  </style>
  <path
    class="st0"
    d="M49.9 113.9H22V63.1h16.4l5.3 24.1.8-.7-2.3-24.6 2.2-20.2v-.1l-.8-1-5.2 20.5H22v-45h26.6l3 32.6v.2h1V14.1H5.5v.9l13.4 6.6v86.5l-13.4 6.8v.9h48.7V74.9h-.9zM91 59.6 104.8 24l14.9-8.9.1-.1v-1l-15.2 3.8L91.5 14v1l11.4 8.9L90 57.5 74.4 23l11.3-7.9.1-.1v-1L72 17.8 59.3 14v1l10.9 7.9 17.9 39.4L72 104.8l-14 10-.1.1v.9l14.1-3.7 16.7 3.7v-.9l-15.1-9.7 15.6-40.7 18.8 41.3-14.4 9-.1.1v.9l17.4-3.7 13.4 3.7v-.9l-12.3-9.1zM176.4 24.4l14.3-9.4v-1l-15.8 3.8-14.3-3.8v1l12.7 9.4v35.5h-29.9V24.4l14.1-9.3.1-.1v-1l-15.8 3.8-14.3-3.8v1l12.8 9.4v81.1l-13.5 9.3-.1.1v.9l15.2-3.7 15.6 3.7v-.9l-14.1-9.4V61.9h29.9v43.6l-12.5 9.4v.9l14.3-3.7 16 3.7v-.9l-14.7-9.4zM215 24.4l12.8-9.3.1-.1v-1l-14.4 3.8-14.4-3.8v1l12.8 9.4v81.1l-14.7 9.3-.1.1v.9l16.4-3.7 16.3 3.7v-.9l-14.8-9.4zM269.4 63.1c7.2-1.8 12-11.3 12-24.4 0-16.1-7.2-24.7-20.7-24.7h-25.2v1l13.1 6.6v86.5l-14.4 6.7v.9h26.2c17.4 0 24.8-8.3 24.8-27.9.1-14.8-7.6-23.3-15.8-24.7zm12.4 24.8c0 17.7-6.5 26-20.6 26h-9.4V64.3h7.3c11.3 0 22.7 7.3 22.7 23.6zm-4-49.1c0 21.7-10.6 23.5-20.6 23.5h-5.4V16.1h9.2c10.5 0 16.8 8.5 16.8 22.7zM309.5 24.4l12.8-9.3.1-.1v-1L308 17.8 293.6 14v1l12.8 9.4v81.1l-14.7 9.3-.1.1v.9l16.4-3.7 16.3 3.7v-.9l-14.8-9.4zM331.6 57.9h1l3.4-41.8h17.5v89.4l-13.3 9.3-.1.1v.9l15-3.7 14.6 3.7v-.9l-13.1-9.4V16.1h17.8l3.4 41.8h1V14.1h-47.2zM404 24.4l12.7-9.3.1-.1v-1l-14.3 3.8L388 14v1l12.9 9.4v81.1l-14.7 9.3-.1.1v.9l16.4-3.7 16.3 3.7v-.9l-14.8-9.4zM453.9 12.6c-8.3 0-15.3 5.5-20.3 15.8-4.7 9.7-7.2 23.3-7.2 38.3 0 29.8 11 50.6 26.8 50.6 14.6 0 26.4-24.4 26.4-54.4.1-25-8.8-50.3-25.7-50.3zm22.8 59.3c0 19.6-7.9 40.8-20.6 40.8-16 0-26.8-21.7-26.8-53.9 0-25.4 8.5-41.8 21.7-41.8 15.8 0 25.7 21 25.7 54.9zM536.6 17.8 521.5 14v1l14.2 10.4v79.7l-31.2-90.8-.1-.2h-18.3v.9l16 6.6v83.8l-16.8 9.5v.9l17.5-3.7 23 3.7v-1l-22.1-9.4V22.9l32.7 95.4.1.2h.9V25.4l14.2-10.3.1-.1v-1z"
  />
</svg>
