<svg
  version="1.1"
  id="Layer_1"
  xmlns="http://www.w3.org/2000/svg"
  x="0"
  y="0"
  viewBox="0 0 558 127"
  style="enable-background: new 0 0 558 127"
  xml:space="preserve"
>
  <style>
    .st0 {
      fill: #fff;
    }
  </style>
  <path
    class="st0"
    d="M29.5 62c-.5-.4-1-.7-1.4-1l-.6-.5c-6.9-5-16.3-11.8-16.3-24.3 0-14.1 5-21.3 14.7-21.3 7.8 0 14 11.4 16.2 29.7.4 2.7.9 8.5.9 8.6v.2h1.9V12.6h-1l-1.5 15.9c-3.5-7.9-9.6-15.9-16.6-15.9-11.1 0-17.5 9-17.5 24.8 0 15 9.6 22.2 16.6 27.5l.9.6c.4.3.9.7 1.4 1 6.6 4.9 16.7 12.3 16.7 25.2 0 14.8-5.7 23.3-15.5 23.3-10.5 0-18.4-14-19.3-33.9-.2-3.7-.3-6.2-.3-7.2v-.2H6.9v43.6h.9L9.4 105c4.1 6.2 9.5 12.3 17.8 12.3 9.6 0 19.8-7.1 19.8-27C47 74.6 36.5 67 29.5 62zM86.1 14v1l14.4 8.2L84 69 67.7 23.7l13.8-8.6.1-.1v-1l-16.4 3.8L51.4 14v1l12.4 8.8 17.4 49v32.7l-14.7 9.3-.1.1v.9l16.5-3.7 17.2 3.7h.4v-.9l-16-9.5V72.8l17.9-49.5 13.9-8.3v-1l-14.2 3.8zM181.3 20.6l14-5.6v-.9h-16.6l-19.9 93.5-21.6-93.3v-.2h-15.8v.9l13.1 6.4v84l-15.8 9.5v.9l16.6-3.7 15.3 3.7v-.9l-14.5-9.4V25l21.4 93.3v.2h.8L178.1 25v80.5l-11.8 9.3-.1.1v.9l13.5-3.7 16.2 3.7v-.9l-14.6-9.4zM226.6 14.1h-27.5v.9l13.1 6.4v84l-13.1 9.4v1l14.8-3.8 19.3 3.8v-1l-17.8-9.4V72.8h11.5c12.6 0 20.2-11.2 20.2-29.9 0-8.9-2.1-16.3-6-21.5-3.6-4.7-8.8-7.3-14.5-7.3zm-11.2 2h10.2c12.3 0 17.8 13.9 17.8 26.8 0 13.9-5.4 27.9-17.6 27.9h-10.5V16.1zM281.2 12.6c-8.3 0-15.3 5.5-20.3 15.8-4.7 9.7-7.2 23.3-7.2 38.3 0 29.8 11 50.6 26.8 50.6 14.6 0 26.4-24.4 26.4-54.4 0-25-8.8-50.3-25.7-50.3zm22.7 59.3c0 19.6-7.9 40.8-20.6 40.8-16 0-26.8-21.7-26.8-53.9 0-25.4 8.5-41.8 21.7-41.8 15.9 0 25.7 21 25.7 54.9zM338.4 62c-.5-.4-1-.7-1.4-1l-.6-.5c-6.9-5-16.3-11.8-16.3-24.3 0-14.1 5-21.3 14.7-21.3 7.8 0 14 11.4 16.2 29.7.4 2.7.9 8.5.9 8.6v.2h1.9V12.6h-1l-1.5 15.9c-3.5-7.9-9.6-15.9-16.6-15.9-11.1 0-17.5 9-17.5 24.8 0 15 9.6 22.2 16.6 27.5l.9.6c.4.3.9.7 1.4 1 6.6 4.9 16.7 12.3 16.7 25.2 0 14.8-5.7 23.3-15.5 23.3-10.5 0-18.4-14-19.3-33.9-.2-3.7-.3-6.2-.3-7.2v-.2h-1.9v43.6h.9l1.6-12.3c4.1 6.2 9.5 12.3 17.8 12.3 9.6 0 19.8-7.1 19.8-27 0-15.7-10.5-23.3-17.5-28.3zM381.8 24.4l12.8-9.3.1-.1v-1l-14.4 3.8-14.4-3.8v1l12.8 9.4v81.1l-14.7 9.3-.1.1v.9l16.4-3.7 16.3 3.7v-.9l-14.8-9.4zM441.7 14v1l12.8 10.4v50.9c0 17.4-4.7 35.9-17.9 35.9-11.7 0-18.7-13.4-18.7-35.9V24.4L432 15l.1-.1v-1l-15.8 3.8L402 14v1l12.8 9.4v52.4c0 26.5 7.5 40.5 21.8 40.5 13.5 0 19.8-14.6 19.8-45.9v-46L470.6 15l.1-.1v-1l-15.1 3.8-13.9-3.7zM537.3 105.5V20.6l14-5.6v-.9h-16.6l-19.9 93.5-21.6-93.3v-.2h-15.8v.9l13.1 6.4v84l-15.8 9.5v.9l16.6-3.7 15.3 3.7v-.9l-14.5-9.4V25l21.4 93.3v.2h.8L534.1 25v80.5l-11.8 9.3-.1.1v.9l13.5-3.7 16.2 3.7v-.9z"
  />
</svg>
