<svg
  version="1.1"
  id="Layer_1"
  xmlns="http://www.w3.org/2000/svg"
  x="0"
  y="0"
  viewBox="0 0 587 127"
  style="enable-background: new 0 0 587 127"
  xml:space="preserve"
>
  <style>
    .st0 {
      fill: #fff;
    }
  </style>
  <path
    class="st0"
    d="M204 13.4h-.3v.9l14.2 8.7-17 83.3-17.1-83.7 14.5-8.2.2-.1v-.9l-16.6 3.7-13.6-3.8v1l11.7 8.1 19.4 96 .1.2h.9l19.4-95.5 14.1-8.8v-1L219 17.1zM255.5 23.7l12.7-9.3.1-.1v-1l-14.4 3.8-14.4-3.8v1l12.8 9.4v81.1l-14.6 9.3-.2.1v.9l16.4-3.7 16.4 3.7v-.9l-14.8-9.4zM301.8 61.3c-.5-.4-1-.7-1.4-1l-.6-.5c-6.9-5-16.3-11.8-16.3-24.3 0-14.1 5-21.3 14.7-21.3 7.8 0 14 11.4 16.2 29.7.4 2.7.9 8.5.9 8.6v.2h1.9V11.9h-1l-1.5 15.9c-3.5-7.9-9.6-15.9-16.6-15.9-11.1 0-17.5 9-17.5 24.8 0 15 9.6 22.2 16.6 27.5l.9.6c.4.3.9.7 1.4 1 6.6 4.9 16.7 12.3 16.7 25.2 0 14.8-5.7 23.3-15.5 23.3-10.5 0-18.4-14-19.3-33.9-.2-3.7-.3-6.2-.3-7.2V73h-1.9v43.6h.9l1.6-12.3c4.1 6.2 9.5 12.3 17.8 12.3 9.6 0 19.8-7.1 19.8-27 0-15.7-10.6-23.3-17.5-28.3zM345.2 23.7l12.7-9.3.1-.1v-1l-14.3 3.8-14.5-3.8v1l12.8 9.4v81.1l-14.6 9.3-.1.1v.9l16.4-3.7 16.3 3.7v-.9l-14.8-9.4zM367.2 13.4v43.8h1l3.4-41.8h17.5v89.4l-13.3 9.3-.1.1v1l15-3.8 14.7 3.8v-1l-13.1-9.4V15.4h17.8l3.4 41.8h.9V13.4z"
  />
</svg>
