<svg
  version="1.1"
  id="Layer_1"
  xmlns="http://www.w3.org/2000/svg"
  x="0"
  y="0"
  viewBox="0 0 256 127"
  style="enable-background: new 0 0 256 127"
  xml:space="preserve"
>
  <style>
    .st0 {
      fill: #fff;
    }
  </style>
  <path
    class="st0"
    d="M50.1 17v1L63 28.4v50.9c0 17.4-4.7 35.9-17.9 35.9-11.7 0-18.7-13.4-18.7-35.9V27.4L40.5 18l.1-.1v-1l-15.8 3.8L10.3 17v1l12.8 9.4v52.4c0 26.5 7.5 40.5 21.8 40.5 13.5 0 19.8-14.6 19.8-45.9v-46L78.9 18h.1v-1l-15.1 3.8L50.1 17zM36 11.4c1.7 0 2.8-1.9 2.8-4.6 0-2.8-1.1-4.6-2.8-4.6-1.6 0-2.8 2-2.8 4.6 0 2.5 1.2 4.6 2.8 4.6zM54.5 11.4c1.7 0 2.8-1.9 2.8-4.6 0-2.8-1.1-4.6-2.8-4.6-1.6 0-2.8 2-2.8 4.6 0 2.5 1.2 4.6 2.8 4.6zM116.7 66.1c7.2-1.8 12-11.3 12-24.4 0-16.1-7.2-24.7-20.7-24.7H82.8v1L96 24.6v86.5l-14.4 6.7v.9h26.2c17.4 0 24.8-8.3 24.8-27.9 0-14.8-7.7-23.3-15.9-24.7zM129 90.9c0 17.7-6.5 26-20.6 26H99V67.3h7.3c11.4 0 22.7 7.3 22.7 23.6zm-4-49.1c0 21.7-10.6 23.5-20.6 23.5H99V19.1h9.2c10.6 0 16.8 8.5 16.8 22.7zM180.4 116.9h-27.8V66.1H169l5.3 24.1.8-.7-2.4-24.6 2.3-20.2v-.1l-.8-1-5.2 20.5h-16.4v-45h26.6l3 32.6v.2h.9V17.1H136v.9l13.5 6.6v86.5l-13.5 6.8v.9h48.8V77.9h-1zM223.2 69.2c9.3-2.8 14-11.3 14-25.4 0-16-8.2-26.7-20.5-26.7h-27.5v.9l13.1 6.4v84l-13.1 9.4v1L204 115l19.1 3.8v-1l-17.6-9.4V70h13l23.6 54.9.2.5.6-1-19.7-55.2zm-17.7-50.1h10.2c12.3 0 17.8 12.8 17.8 24.7 0 14.9-6.7 24.2-17.6 24.2h-10.5V19.1z"
  />
</svg>
