<svg
  xmlns="http://www.w3.org/2000/svg"
  viewBox="0 0 807 127"
  style="enable-background: new 0 0 807 127"
  xml:space="preserve"
>
  <path
    d="m53.8 27 12.9-8.9.1-.1v-1l-12 3.8-10-3.8v1l7.7 8.8-24 48.6v-48l14-9.3.2-.1v-1l-15.2 3.8L14.2 17v1l11.1 9.4v81.1l-11.7 9.4v.9l13.5-3.7 19.7 3.7v-.9l-18.3-9.5V78.3l5.6-11.4 31.9 58 .2.4.6-1-29.6-63.7zm55.6-10v1l12.8 10.4v50.9c0 17.4-4.7 35.9-17.9 35.9-11.7 0-18.7-13.4-18.7-35.9V27.4L99.7 18l.1-.1v-1L84 20.8 69.6 17v1l12.8 9.4v52.4c0 26.5 7.5 40.5 21.8 40.5 13.5 0 19.8-14.6 19.8-45.9v-46L138.2 18l.1-.1v-1l-15.1 3.8-13.8-3.7zm97 1v-1l-15 3.8-15.2-3.8v1l14.2 10.4v79.7l-31.2-90.8-.1-.2h-18.3v.9l16 6.6v83.8l-16.8 9.5v.9l17.5-3.7 23 3.7v-1l-22.1-9.4V25.9l32.7 95.4.1.2h.9V28.4l14.2-10.3zm21.8 47c-.5-.4-1-.7-1.4-1l-.6-.5c-6.9-5-16.3-11.8-16.3-24.3 0-14.1 5-21.3 14.7-21.3 7.8 0 14 11.4 16.2 29.7.4 2.7.9 8.5.9 8.6v.2h1.9V15.6h-1l-1.5 15.9c-3.5-7.9-9.6-15.9-16.6-15.9-11.1 0-17.5 9-17.5 24.8 0 15 9.6 22.2 16.6 27.5l.9.6c.4.3.9.7 1.4 1 6.6 4.9 16.7 12.3 16.7 25.2 0 14.8-5.7 23.3-15.5 23.3-10.5 0-18.4-14-19.3-33.9-.2-3.7-.3-6.2-.3-7.2v-.2h-1.9v43.6h.9l1.6-12.3c4.1 6.2 9.5 12.3 17.8 12.3 9.6 0 19.8-7.1 19.8-27 0-15.7-10.5-23.3-17.5-28.3zm25.5-4.1h.9l3.4-41.8h17.6v89.4l-13.4 9.3-.1.1v.9l15.1-3.7 14.6 3.7v-.9l-13.1-9.4V19.1h17.8l3.4 41.8h1V17.1h-47.2zm93.7 56h-25.2V27.4l14.1-9.2h.1V17l-15.8 3.8-12.6-3.5-.3-.1v1l11.4 9.2v83.4l-13.1 7-.1.1v.9h45.8V65.6h-1zm53.3 0h-27.8V66.1h16.3l5.3 24.1.9-.7-2.4-24.6 2.2-20.2.1-.1-.8-1-5.2 20.5h-16.4v-45h26.5l3 32.6.1.2h.9V17.1h-47.1v.9l13.4 6.6v86.5l-13.4 6.8v.9h48.8V77.9h-1zm56.8-73.1c0-16-8.2-26.7-20.5-26.7h-27.5v.9l13.1 6.4v84l-13.1 9.4v1l14.8-3.8 19.1 3.8v-1l-17.6-9.4V70h13l23.6 54.9.2.5.6-1-19.7-55.1c9.3-2.9 14-11.4 14-25.5zm-31.7-24.7H436c12.3 0 17.8 12.8 17.8 24.7 0 14.9-6.7 24.2-17.6 24.2h-10.5V19.1zm57.7 23.4 1.2-26.6v-.3h-3.3l1.2 26.9-15.3-9.2-.9 5.1 16 5.2L472 67.1v.1l2.6 3.2 8.4-25.8 8.5 25.8 2.6-3.2-10.4-23.6 15.8-5.1.2-.1-.9-5.1zm39.4-15.1 12.7-9.3.1-.1v-1l-14.3 3.8-14.5-3.8v1l12.9 9.4v81.1l-14.7 9.3-.1.1v.9l16.4-3.7 16.3 3.7v-.9l-14.8-9.4zM575.6 17v1l14.2 10.4v79.7l-31.2-90.8-.1-.2h-18.3v.9l16 6.6v83.8l-16.8 9.5v.9l17.5-3.7 23 3.7v-1l-22.1-9.4V25.9l32.7 95.4.1.2h.9V28.4l14.2-10.3.1-.1v-1l-15.1 3.8zm68.1 0v1l14.2 10.4v79.7l-31.2-90.8-.1-.2h-18.3v.9l16 6.6v83.8l-16.8 9.5v.9l17.5-3.7 23 3.7v-1l-22.1-9.4V25.9l32.7 95.4.1.2h.9V28.4l14.2-10.3.1-.1v-1l-15 3.8zm77.1 99.9H693V66.1h16.3l5.3 24.1.8-.7-2.3-24.6 2.2-20.2v-.1l-.7-1-5.3 20.5H693v-45h26.5l3 32.6v.2h1V17.1h-47.1v.9l13.4 6.6v86.5l-13.4 6.8v.9h48.8V77.9h-1zm59.4-96.1L765 17v1l14.2 10.4v79.7L748 17.3v-.2h-18.4v.9l16 6.6v83.8l-16.7 9.5v.9l17.4-3.7 23 3.7v-1l-22-9.4V25.9l32.6 95.4.1.2h.9V28.4l14.2-10.3.1-.1v-1z"
    style="fill: #fff"
  />
</svg>
