<svg
  xmlns="http://www.w3.org/2000/svg"
  viewBox="0 0 639 127"
  style="enable-background: new 0 0 639 127"
  xml:space="preserve"
>
  <path
    d="m40.8 12.6-18.9 95.3-13.2 9.9v1l13.2-3.8 13.9 3.7.3.1v-1L23.6 108l6.2-31h22l6.9 31-12.7 9.9v1l14.3-3.8 14.1 3.8v-1l-12.4-10-21.2-95.3zM51.3 75H30.2l9.9-50.4L51.3 75zm51-58v1l12.8 10.4v50.9c0 17.4-4.7 35.9-17.9 35.9-11.7 0-18.7-13.4-18.7-35.9V27.4L92.6 18l.1-.1v-1l-15.8 3.8L62.5 17v1l12.8 9.4v52.4c0 26.5 7.5 40.5 21.8 40.5 13.5 0 19.8-14.6 19.8-45.9v-46L131.1 18l.1-.1v-1l-15.1 3.8-13.8-3.7zm52.6 48c-.5-.4-1-.7-1.4-1l-.6-.5c-6.9-5-16.3-11.8-16.3-24.3 0-14.1 5-21.3 14.7-21.3 7.8 0 14 11.4 16.2 29.7.4 2.7.9 8.5.9 8.6v.2h1.9V15.6h-1l-1.5 15.9c-3.5-7.9-9.6-15.9-16.6-15.9-11.1 0-17.5 9-17.5 24.8 0 15 9.6 22.2 16.6 27.5l.9.6c.4.3.9.7 1.4 1 6.6 4.9 16.7 12.3 16.7 25.2 0 14.8-5.7 23.3-15.5 23.3-10.5 0-18.4-14-19.3-33.9-.2-3.7-.3-6.2-.3-7.2v-.2h-1.9v43.6h.9l1.6-12.3c4.1 6.2 9.5 12.3 17.8 12.3 9.6 0 19.8-7.1 19.8-27 0-15.7-10.5-23.3-17.5-28.3zm49.7 0c-.5-.4-1-.7-1.4-1l-.6-.5c-6.9-5-16.3-11.8-16.3-24.3 0-14.1 5-21.3 14.7-21.3 7.8 0 14 11.4 16.2 29.7.4 2.7.9 8.5.9 8.6v.2h1.9V15.6h-1l-1.5 15.9C214 23.7 208 15.6 201 15.6c-11.1 0-17.5 9-17.5 24.8 0 15 9.6 22.2 16.6 27.5l.9.6c.4.3.9.7 1.4 1 6.6 5 16.6 12.4 16.6 25.3 0 14.8-5.7 23.3-15.5 23.3-10.5 0-18.4-14-19.3-33.9-.2-3.7-.3-6.2-.3-7.2v-.2H182v43.6h.9l1.6-12.3c4.1 6.2 9.5 12.3 17.8 12.3 9.6 0 19.8-7.1 19.8-27 .1-15.8-10.5-23.4-17.5-28.4zm25.5-4.1h1l3.4-41.8H252v89.4l-13.3 9.3-.1.1v.9l15-3.7 14.7 3.7v-.9l-13.2-9.4V19.1H273l3.4 41.8h.9V17.1h-47.2zm96.1 56h-27.9V66.1h16.4l5.3 24.1.8-.7-2.3-24.6 2.2-20.2v-.1l-.7-1-5.3 20.5h-16.4v-45h26.6l3 32.6v.2h1V17.1h-47.1v.9l13.4 6.6v86.5l-13.4 6.8v.9h48.7V77.9h-.9zm50.9 0h-25.2V27.4l14-9.2h.2V17l-15.9 3.8-12.9-3.6v.9l11.4 9.3v83.4l-13 7-.1.1v.9h45.7V65.6h-.9zm52.9 0h-25.2V27.4l14.1-9.2h.1V17l-15.8 3.8-12.9-3.6v.9l11.4 9.3v83.4l-13 7-.2.1v.9h45.8V65.6h-1zM475.7 17v1l12.8 10.4v50.9c0 17.4-4.7 35.9-17.9 35.9-11.7 0-18.7-13.4-18.7-35.9V27.4L466 18l.1-.1v-1l-15.8 3.8-14.4-3.7v1l12.8 9.4v52.4c0 26.5 7.5 40.5 21.8 40.5 13.5 0 19.8-14.6 19.8-45.9v-46L504.5 18l.1-.1v-1l-15.1 3.8-13.8-3.7zm97 0-15 3.8-15.2-3.8v1l14.2 10.4v79.7l-31.2-90.8-.1-.2h-18.3v.9l16 6.6v83.8l-16.8 9.5v.9l17.5-3.7 23 3.7v-1l-22.1-9.4V25.9l32.7 95.4.1.2h.9V28.4l14.2-10.3.1-.1zm9.4 54.8v1l34.9 5.6 1.6 23c-2.9 7.1-9.2 14.8-16.6 14.8-15.5 0-26.7-23.4-26.7-55.6 0-20.1 6.7-41.8 21.3-41.8 14 0 20.6 26.8 20.6 44.9v.2h2.8v-47h-1l-2 21.9c-3.8-14-11.1-23.2-18.4-23.2-16.1 0-26 20.7-26 53.9 0 34.9 13.7 50.7 26.4 50.7 9.6 0 16.5-8.4 19.8-16l1.1 15.4v.2h1v-48h-38.8z"
    style="fill: #fff"
  />
</svg>
