<svg
  version="1.1"
  id="Layer_1"
  xmlns="http://www.w3.org/2000/svg"
  x="0"
  y="0"
  viewBox="0 0 587 127"
  style="enable-background: new 0 0 587 127"
  xml:space="preserve"
>
  <style>
    .st0 {
      fill: #fff;
    }
  </style>
  <path
    class="st0"
    d="M49.5 113.2H24.3V23.7l14.1-9.1.1-.1v-1.1l-15.8 3.7-12.5-3.5-.4-.1v1l11.4 9.2v83.4l-13 7-.1.1v.9h45.7V61.9h-.9zM81.2 23.7l12.7-9.3.1-.1v-1l-14.4 3.8-14.4-3.8v1L78 23.7v81.1l-14.6 9.3-.2.1v.9l16.4-3.7 16.4 3.7v-.9l-14.8-9.4zM135.4 13.4h-.4v.9l14.2 8.7-16.9 83.3-17.1-83.7 14.5-8.2.1-.1v-.9l-16.6 3.7-13.6-3.8v1l11.7 8.1 19.5 96v.2h.9l19.5-95.5 14-8.8v-1l-14.8 3.8zM210.5 113.2h-27.9V62.4H199l5.3 24.1.8-.7-2.3-24.6L205 41v-.1l-.7-1-5.3 20.5h-16.4v-45h26.6l3 32.6v.3h1V13.4h-47.1v.9l13.4 6.6v86.5l-13.4 6.8v.9h48.7V74.2h-.9zM246.3 61.3c-.5-.4-1-.7-1.4-1l-.6-.5c-6.9-5-16.3-11.8-16.3-24.3 0-14.1 5-21.3 14.7-21.3 7.8 0 14 11.4 16.2 29.7.4 2.7.9 8.5.9 8.6v.2h1.9V11.9h-1l-1.5 15.9c-3.5-7.9-9.6-15.9-16.6-15.9-11.1 0-17.5 9-17.5 24.8 0 15 9.6 22.2 16.6 27.5l.9.6c.4.3.9.7 1.4 1 6.6 4.9 16.7 12.3 16.7 25.2 0 14.8-5.7 23.3-15.5 23.3-10.5 0-18.4-14-19.3-33.9-.2-3.7-.3-6.2-.3-7.2V73h-1.9v43.6h.9l1.6-12.3c4.1 6.2 9.5 12.3 17.8 12.3 9.6 0 19.8-7.1 19.8-27 .1-15.7-10.5-23.3-17.5-28.3zM271.8 57.2h1l3.4-41.8h17.5v89.4l-13.3 9.3-.1.1v1l15-3.8 14.7 3.8v-1l-13.1-9.4V15.4h17.8l3.4 41.8h.9V13.4h-47.2zM371.5 40.1c0-16-8.2-26.7-20.5-26.7h-27.5v.9l13.1 6.4v84l-13.1 9.4v1l14.8-3.8 19.1 3.8v-1l-17.6-9.4V66.3h13l23.6 54.9.2.5.6-1-19.7-55.1c9.3-2.9 14-11.4 14-25.5zm-31.7-24.7H350c12.3 0 17.8 12.8 17.8 24.7 0 14.9-6.7 24.2-17.6 24.2h-10.5V15.4zM423.9 113.2h-27.8V62.4h16.4l5.3 24.1.8-.7-2.4-24.6 2.3-20.2v-.1l-.8-1-5.2 20.5h-16.4v-45h26.6l3 32.6v.3h.9V13.4h-47.1v.9l13.5 6.6v86.5l-13.5 6.8v.9h48.8V74.2h-1zM464.4 10.1l-.3-1.2-18.9 95.3-13.2 9.9v1l13.2-3.8 13.9 3.7.3.1v-1l-12.6-9.9 6.2-31h22l6.9 31-12.7 9.9v1l14.3-3.8 14.1 3.8v-1l-12.4-10-20.8-94zm10.2 61.2h-21.2l9.9-50.4 11.3 50.4zM562.7 104.8V19.9l14-5.6v-.9h-16.6l-20 93.5-21.5-93.3-.1-.2h-15.8v.9l13.2 6.4v84.1l-15.8 9.4v.9l16.6-3.7 15.2 3.7v-.9l-14.5-9.4V24.3l21.4 93.3.1.2h.8l19.7-93.5v80.5l-11.7 9.3-.1.1v1l13.5-3.8 16.2 3.7v-.9z"
  />
</svg>
