<svg
  version="1.1"
  id="Layer_1"
  xmlns="http://www.w3.org/2000/svg"
  x="0"
  y="0"
  viewBox="0 0 358 127"
  style="enable-background: new 0 0 358 127"
  xml:space="preserve"
>
  <style>
    .st0 {
      fill: #fff;
    }
  </style>
  <path
    class="st0"
    d="m9.7 118 14.4-6.7V24.4L11 17.9v-.5h24.9c12.3 0 20.4 7.1 20.4 24.4 0 15.1-6.2 24.4-14.2 24.4 9.3 0 18.1 8.9 18.1 24.7 0 21.5-9.5 27.6-24.5 27.6h-26v-.5zm22.7-52.5c10.3 0 20.8-2.2 20.8-23.7 0-13.5-5.7-22.9-17-22.9h-9.4v46.6h5.6zm4 51.7c11.9 0 20.8-5.7 20.8-26.3C57.2 74.2 45.6 67 34.3 67h-7.6v50.2h9.7z"
  />
  <path
    class="st0"
    d="M35.7 118.8H9.5v-.9l14.4-6.7V24.6L10.7 18v-.9h25.2c13.5 0 20.7 8.5 20.7 24.7 0 13.1-4.8 22.6-12 24.4 8.2 1.4 15.9 9.9 15.9 24.8 0 19.4-7.4 27.8-24.8 27.8zm-25.7-.5h25.7c17 0 24.3-8.2 24.3-27.4 0-16.1-9-24.5-17.8-24.5v-.5c8.2 0 14-9.9 14-24.2 0-15.8-7-24.2-20.2-24.2H11.2v.1l13.1 6.6v87.2L10 118.3zm26.4-.9h-9.9V66.8h7.8c11.5 0 23.1 7.5 23.1 24.2 0 18-6.7 26.4-21 26.4zm-9.4-.5h9.4c14 0 20.6-8.3 20.6-26 0-16.3-11.4-23.7-22.6-23.7H27v49.7zm5.4-51.2h-5.9V18.6h9.7c10.8 0 17.3 8.7 17.3 23.1 0 21.1-10.2 24-21.1 24zm-5.4-.5h5.4c10 0 20.6-1.8 20.6-23.5 0-14.2-6.3-22.6-16.8-22.6H27v46.1zM64.2 118l13.4-6.7V24.4l-13.4-6.6v-.5h46.6v34.3h-.5l-3-32.8h-27v45.4h16.8l5.2-20.2.4.5-2.2 20.2 2.3 24.6-.4.3-5.3-23.9H80.3V117h28.3l3.4-39h.5v40.4H64.2v-.4z"
  />
  <path
    class="st0"
    d="M112.7 118.8H64v-.9l13.4-6.7V24.6L64 18v-.9h47.1v34.8h-1v-.2l-3-32.6H80.5V64h16.4l5.2-20.5.8 1v.1l-2.2 20.2 2.3 24.7-.8.7-5.3-24.1H80.5v50.8h27.8l3.4-39h1v40.9zm-48.2-.5h47.8V78.4l-3.4 39H80V65.6h17.3l5.2 23.5-2.3-24.2 2.2-20.2-5.1 19.9H80v-46h27.5v.2l3 32.6V17.6h-46v.1l13.4 6.6v87.2l-13.4 6.7v.1zM121.9 76.9h1.4c0 1.2.1 3.9.3 7.2.9 19.2 8.6 34.2 19.6 34.2 9.3 0 15.8-7.6 15.8-23.6 0-14-11.7-21.5-18.2-26.4-7.1-5.4-17.3-12.5-17.3-27.9 0-17 7.3-24.6 17.2-24.6 7 0 13.2 8.4 16.7 16.7l1.6-16.7h.5v40.4H158s-.5-5.9-.9-8.6c-2-17.2-7.9-30-16.4-30-9.5 0-15 6.7-15 21.5 0 13 10.3 20 17 24.9 6.9 5 18.9 12.5 18.9 29.1 0 18.3-9 26.8-19.6 26.8-8.5 0-13.9-6.6-18-12.8l-1.7 12.8h-.4v-43z"
  />
  <path
    class="st0"
    d="M141.9 120.3c-8.3 0-13.7-6.1-17.8-12.3l-1.6 12.3h-.9V76.7h1.9v.2c0 1 .1 3.5.3 7.2.9 20 8.9 33.9 19.3 33.9 9.9 0 15.5-8.5 15.5-23.3 0-12.9-10-20.3-16.7-25.2-.5-.4-1-.7-1.4-1l-.9-.6c-7-5.3-16.6-12.5-16.6-27.5 0-15.8 6.4-24.8 17.5-24.8 7 0 13.1 8.1 16.6 15.9l1.5-15.9h1v40.9h-1.9v-.2c0-.1-.5-5.9-.9-8.6-2.2-18.4-8.4-29.7-16.2-29.7-9.8 0-14.7 7.2-14.7 21.3 0 12.4 9.4 19.3 16.3 24.3l.6.5c.5.3.9.7 1.4 1 7 5 17.5 12.6 17.5 28.3 0 19.8-10.2 26.9-19.8 26.9zm-18.1-13.8.4.6c4.1 6.3 9.4 12.7 17.8 12.7 9.3 0 19.3-7 19.3-26.5 0-15.4-10.4-22.9-17.3-27.9-.5-.4-1-.7-1.4-1l-.6-.5c-6.6-4.8-16.5-12-16.5-24.7 0-14.5 5.1-21.8 15.2-21.8 8.1 0 14.5 11.6 16.7 30.2.3 2.4.8 7.2.9 8.4h1V16.1l-1.6 17.4-.4-.9c-3.4-8-9.5-16.5-16.5-16.5-10.8 0-17 8.9-17 24.3 0 14.7 9.5 21.9 16.4 27.1l.9.6c.4.3.9.7 1.4 1 6.7 5 16.9 12.4 16.9 25.6 0 15.1-5.8 23.8-16 23.8-10.7 0-18.9-14.1-19.8-34.4-.2-2.9-.3-5.6-.3-7h-.9v42l1.4-12.6z"
  />
  <g>
    <path
      class="st0"
      d="M177 79.8V27.3l-12.8-9.4v-.5l14.1 3.7 15.6-3.7v.5l-14.2 9.4v52c0 22.9 7.2 36.2 19 36.2 13.6 0 18.2-19 18.2-36.2v-51l-12.8-10.4v-.5l13.5 3.7 14.9-3.7v.5L218 28.3v46.1c0 27.1-4.5 45.6-19.6 45.6-14.4 0-21.4-14.9-21.4-40.2z"
    />
    <path
      class="st0"
      d="M198.5 120.3c-14.2 0-21.8-14-21.8-40.5V27.4L163.9 18v-1l14.4 3.8L194 17v1l-.1.1-14.1 9.4v51.9c0 22.5 7 35.9 18.7 35.9 13.2 0 17.9-18.6 17.9-35.9v-51L203.7 18v-1l13.8 3.8 15.1-3.8v1l-.1.1-14.2 10.4v46c0 31.2-6.3 45.8-19.8 45.8zM164.4 17.7l12.8 9.4v52.6c0 26.2 7.3 40 21.3 40 13.2 0 19.3-14.4 19.3-45.4V28.2l.1-.1 14.2-10.4v-.1l-14.6 3.6h-.1l-13.2-3.6v.1L217 28.2v51.1c0 17.6-4.8 36.4-18.4 36.4-12 0-19.2-13.6-19.2-36.4V27.2l.1-.1 14.1-9.4v-.1l-15.3 3.6h-.1l-13.8-3.5z"
    />
  </g>
  <g>
    <path
      class="st0"
      d="M230.9 69.5c0-33.5 9.9-53.7 25.7-53.7 7.2 0 14.7 9.3 18.4 23.2l2.5-21.9h.5v46.3h-2.5c0-18.3-6.7-45.1-20.8-45.1-14.4 0-21.5 21.2-21.5 42.1 0 34.2 12.3 55.9 26.9 55.9 7.1 0 13.6-6.1 19.4-17.5l.4.5C273.7 111.8 268 120 257 120c-13.8 0-26.1-18-26.1-50.5z"
    />
    <path
      class="st0"
      d="M257 120.3c-12.7 0-26.4-15.9-26.4-50.7 0-33.3 9.9-53.9 25.9-53.9 7.2 0 14.5 8.9 18.3 22.2l2.4-20.8h1v46.8h-3v-.2c0-18.1-6.5-44.9-20.6-44.9-14.6 0-21.2 21.7-21.2 41.8 0 32.2 11.2 55.6 26.7 55.6 6.9 0 13.4-5.8 19.1-17.4l.2-.4.7.9-.1.1c-6.6 13.6-12.3 20.9-23 20.9zm-.5-104.2c-15.7 0-25.4 20.5-25.4 53.4 0 34.5 13.4 50.2 25.9 50.2 10.4 0 15.9-7.2 22.5-20.4l-.1-.1c-5.8 11.5-12.4 17.3-19.4 17.3-15.8 0-27.2-23.6-27.2-56.1 0-20.4 6.8-42.3 21.8-42.3 14.3 0 21 26.8 21.1 45.1h2V17.4l-2.7 23-.3-1.3c-3.7-13.7-10.9-23-18.2-23z"
    />
  </g>
  <g>
    <path
      class="st0"
      d="m283.7 118 13.6-9.4V27.3l-12.8-9.4v-.5l14.1 3.7 15.6-3.7v.5L300 27.3v35.9h30.4V27.3l-12.7-9.4v-.5l14.1 3.7 15.6-3.7v.5l-14.3 9.4v81.3l14.7 9.4v.5l-15.8-3.7-14 3.7v-.5l12.5-9.4V64.7h-30.4v43.9l14 9.4v.5l-15.3-3.7-15 3.7v-.5z"
    />
    <path
      class="st0"
      d="M317.6 118.8v-1l.1-.1 12.4-9.4V64.9h-29.9v43.5l14 9.4v1l-15.5-3.8-15.2 3.8v-1l.1-.1 13.5-9.4v-81L284.2 18v-1l14.4 3.8 15.8-3.8v1l-.1.1-14.1 9.4V63H330V27.4L317.3 18v-1l14.4 3.8 15.8-3.8v1l-14.3 9.4v81l14.7 9.4v1l-16-3.8-14.3 3.8zm14.2-4.2 15.5 3.6v-.1l-14.7-9.4V27.2l14.3-9.4v-.1l-15.3 3.6h-.1l-13.8-3.6v.1l12.7 9.4v36.2h-30.9V27.2l.1-.1 14.1-9.4v-.1l-15.3 3.6h-.1l-13.8-3.6v.1l12.8 9.4v81.6l-.1.1-13.5 9.4v.1l14.7-3.6h.1l15 3.6v-.1l-14-9.4V64.4h30.9v44.3l-12.5 9.4v.1l13.9-3.6z"
    />
  </g>
</svg>
