<?xml version="1.0" encoding="utf-8"?>
<!-- Generator: Adobe Illustrator 25.2.1, SVG Export Plug-In . SVG Version: 6.00 Build 0)  -->
<svg version="1.1" id="Layer_1" xmlns="http://www.w3.org/2000/svg" xmlns:xlink="http://www.w3.org/1999/xlink" x="0px" y="0px"
	 viewBox="0 0 742 144" style="enable-background:new 0 0 742 144;" xml:space="preserve">
<style type="text/css">
	.st0{fill:#FFFFFF;}
	.st1{fill:#C9CA9E;}
	.st2{fill:#FF0000;}
</style>
<g>
	<path d="M283.8,18.6l-18.9,95.3l-13.1,9.9l-0.1,0.1v1l13.2-3.8l14.3,3.8v-1l-12.6-9.9l6.2-31h22l6.9,31l-12.7,9.9v1l14.3-3.8
		l14.1,3.8v-1l-12.4-10L283.8,18.6z M294.3,81h-21.2l9.9-50.4L294.3,81z"/>
	<path d="M342.4,53.6c-8.3,0-13.1,8.9-14.9,13.1V23.1h-8.1v2.7h5.1v94l0.1,0.1c4.4,4.1,7.9,6.5,12.6,6.5c5.9,0,11-3.9,14.9-11.3
		c3.6-6.9,5.7-16.3,6-26.5c0.4-13.1-3.2-25.8-9-31.7C347,54.7,344.7,53.6,342.4,53.6z M340,123.1c-4.9,0-9.6-3.1-12.5-8.4V69
		c1.7-4.1,5.4-10.9,11.9-10.9c9.8,0,15.9,13.8,15.9,36.1C355.3,110.9,348.9,123.1,340,123.1z"/>
	<path d="M386.6,53.6c-11.5,0-19.2,15-19.2,37.4c0,20.8,7.7,35.3,18.7,35.3c10.2,0,18.4-17.1,18.4-38.1c0-9.1-1.6-17.6-4.6-23.9
		C396.7,57.3,392.1,53.6,386.6,53.6z M401.9,95.7c0,13.1-5,26.7-13.3,26.7c-11,0-18.9-16.2-18.9-38.6c0-18.4,7.2-26.8,13.9-26.8
		C394.7,56.9,401.9,72.2,401.9,95.7z"/>
	<path d="M446.3,55.3h-10.4v2.9h7.4V106c-3.7,13.1-7.7,15.8-13.1,15.8c-5.9,0-9.7-9-9.7-22.8V55.3h-10.2v2.9h7.2v42.5
		c0,15.8,4.6,25.7,12,25.7c6.5,0,11.3-6,13.8-16.9v15.5l13.6-8.7v-0.9l-10.6,1.9V55.3z"/>
	<path d="M488.9,118l-0.3,0.5c-1.2,2-3.4,4.4-7.7,4.4c-4.5,0-7.2-7.5-7.2-19.9V59.8l11.4,1.3v-5.9l-11.4,1V38.6h-3v18l-9.7,0.8v1
		l9.7,1.2v42.7c0,15.9,3.3,24,9.7,24c4.5,0,7.2-4,8.9-7l0.1-0.1L488.9,118z"/>
</g>
</svg>
