<?xml version="1.0" encoding="utf-8"?>
<!-- Generator: Adobe Illustrator 25.2.1, SVG Export Plug-In . SVG Version: 6.00 Build 0)  -->
<svg version="1.1" id="Layer_1" xmlns="http://www.w3.org/2000/svg" xmlns:xlink="http://www.w3.org/1999/xlink" x="0px" y="0px"
	 viewBox="0 0 291 159" style="enable-background:new 0 0 291 159;" xml:space="preserve">
<style type="text/css">
	.st0{clip-path:url(#SVGID_2_);}
	.st1{clip-path:url(#SVGID_4_);}
	.st2{clip-path:url(#SVGID_6_);fill:none;stroke:#C9CA9E;stroke-width:8.414;stroke-miterlimit:10;}
	.st3{fill:#000;}
	.st4{fill:#C9CA9E;}
</style>
<g>
	<path class="st3" d="M52.8,20.6l-18.9,95.3l-13.2,9.9v1l13.2-3.8l13.9,3.7l0.3,0.1v-1L35.6,116l6.2-31h22l6.9,31L58,125.9v1
		l14.3-3.8l14.1,3.8v-1l-12.4-10L52.8,20.6z M63.3,83H42.2l9.9-50.4L63.3,83z"/>
	<path class="st3" d="M93.5,121.7L93.5,121.7c4.5,4.2,8,6.5,12.7,6.5c5.9,0,11-3.9,14.9-11.3c3.6-6.9,5.7-16.3,6-26.5
		c0.4-13.1-3.2-25.8-9-31.7c-2.1-2.2-4.3-3.2-6.7-3.2c-8.3,0-13.1,8.9-14.9,13.1V25.1h-8.1v2.7h5.1V121.7z M108.4,60.1
		c9.8,0,15.9,13.8,15.9,36.1c0,16.7-6.4,28.9-15.3,28.9c-4.9,0-9.6-3.1-12.5-8.4V71C98.2,66.9,101.9,60.1,108.4,60.1z"/>
	<path class="st3" d="M155.6,55.6c-11.5,0-19.2,15-19.2,37.4c0,20.8,7.7,35.3,18.7,35.3c10.2,0,18.4-17.1,18.4-38.1
		c0-9.1-1.6-17.6-4.6-23.9C165.7,59.3,161.1,55.6,155.6,55.6z M170.9,97.7c0,13.1-5,26.7-13.3,26.7c-11,0-18.9-16.2-18.9-38.6
		c0-18.4,7.2-26.8,13.9-26.8C163.7,58.9,170.9,74.2,170.9,97.7z"/>
	<path class="st3" d="M186.5,102.6c0,15.8,4.6,25.7,12,25.7c6.5,0,11.3-6,13.8-16.9v15.5l13.5-8.7l0.1-0.1v-0.9l-10.6,1.9V57.3
		h-10.4v2.9h7.4V108c-3.6,13.1-7.7,15.8-13.1,15.8c-5.9,0-9.7-9-9.7-22.8V57.3h-10.2v2.9h7.2V102.6z"/>
	<path class="st3" d="M239.7,104.3c0,15.9,3.3,24,9.7,24c4.5,0,7.2-4,8.9-7l0.1-0.1l-0.4-1.1l-0.3,0.5c-1.2,2-3.4,4.4-7.7,4.4
		c-4.5,0-7.2-7.5-7.2-19.9V61.8l11.4,1.3v-5.9l-11.4,1V40.6h-3v18l-9.7,0.8v1l9.7,1.2V104.3z"/>
</g>
</svg>
