<?xml version="1.0" encoding="utf-8"?>
<!-- Generator: Adobe Illustrator 25.2.1, SVG Export Plug-In . SVG Version: 6.00 Build 0)  -->
<svg version="1.1" id="Layer_1" xmlns="http://www.w3.org/2000/svg" xmlns:xlink="http://www.w3.org/1999/xlink" x="0px" y="0px"
	 viewBox="0 0 802 159" style="enable-background:new 0 0 802 159;" xml:space="preserve">
<style type="text/css">
	.st0{clip-path:url(#SVGID_2_);}
	.st1{clip-path:url(#SVGID_4_);}
	.st2{clip-path:url(#SVGID_6_);fill:none;stroke:#C9CA9E;stroke-width:8.414;stroke-miterlimit:10;}
	.st3{fill:#000;}
	.st4{fill:#C9CA9E;}
</style>
<g>
	<polygon class="st3" points="81.2,87.9 80.3,87.9 76.9,126.9 49,126.9 49,76.1 65.4,76.1 70.7,100.2 71.5,99.5 69.2,74.9 
		71.4,54.7 71.4,54.6 70.6,53.6 65.4,74.1 49,74.1 49,29.1 75.6,29.1 78.6,61.9 79.6,61.9 79.6,27.1 32.5,27.1 32.5,28 45.9,34.6 
		45.9,121.1 32.5,127.9 32.5,128.8 81.2,128.8 	"/>
	<polygon class="st3" points="108.3,128.9 108.3,127.9 98.9,118.4 107.7,94.5 118.5,119.2 110.7,127.9 110.7,128.9 121.2,125.1 
		132.6,128.9 132.6,127.9 121.8,119.1 109.4,90.3 117.2,69.2 127.5,60.1 127.5,59.1 117.1,63.8 108.6,59.1 108.6,60.1 116,69.1 
		108.7,88.8 100,68.8 106.8,60.1 106.8,59.1 98,63.8 87,59.1 87,60.1 96.5,68.9 107.1,93 97.5,118.4 85.7,127.8 85.6,127.9 
		85.6,128.9 96.7,125.1 	"/>
	<path class="st3" d="M178.1,83.2c0-15.6-5.2-25.7-13.3-25.7c-6.5,0-11.3,6-13.8,16.9V27.1h-13.6V30H148v88.3l-13.1,9.5l-0.1,0.1v1
		l14.7-3.8l12.4,3.8v-1l-10.9-9.6V77.9c3.6-13.1,7.7-15.8,13.1-15.8c6.7,0,10.9,9.6,10.9,25.2v31l-10.3,9.6v1l11.8-3.8l15,3.7
		l0.3,0.1v-1l-13.8-9.6V83.2z"/>
	<path class="st3" d="M211.8,34.8c1.7,0,2.8-1.9,2.8-4.6c0-2.8-1.1-4.6-2.8-4.6c-1.6,0-2.8,2-2.8,4.6
		C209.1,32.8,210.3,34.8,211.8,34.8z"/>
	<polygon class="st3" points="213.4,59.3 198.9,59.3 198.9,62.1 210.4,62.1 210.4,118.3 195.1,127.8 194.9,127.9 194.9,128.8 
		211.9,125.1 229.2,128.8 229.5,128.8 229.5,127.9 213.4,118.3 	"/>
	<path class="st3" d="M238,123.7L238,123.7c4.5,4.2,8,6.5,12.7,6.5c5.9,0,11-3.9,14.9-11.3c3.6-6.9,5.7-16.3,6-26.5
		c0.4-13.1-3.2-25.8-9-31.7c-2.1-2.2-4.3-3.2-6.7-3.2c-8.3,0-13.1,8.9-14.9,13.1V27.1H233v2.7h5.1V123.7z M253,62.1
		c9.8,0,15.9,13.8,15.9,36.1c0,16.7-6.4,28.9-15.3,28.9c-4.9,0-9.6-3.1-12.5-8.4V73C242.7,68.9,246.5,62.1,253,62.1z"/>
	<path class="st3" d="M295.2,34.8c1.7,0,2.8-1.9,2.8-4.6c0-2.8-1.1-4.6-2.8-4.6c-1.6,0-2.8,2-2.8,4.6
		C292.4,32.8,293.7,34.8,295.2,34.8z"/>
	<polygon class="st3" points="312.6,128.8 312.9,128.8 312.9,127.9 296.8,118.3 296.8,59.3 282.3,59.3 282.3,62.1 293.8,62.1 
		293.8,118.3 278.4,127.8 278.3,127.9 278.3,128.8 295.3,125.1 	"/>
	<path class="st3" d="M325.6,106.3c0,15.9,3.3,24,9.7,24c4.5,0,7.2-4,8.9-7l0.1-0.1l-0.4-1.1l-0.3,0.5c-1.2,2-3.4,4.4-7.7,4.4
		c-4.5,0-7.2-7.5-7.2-19.9V63.8l11.4,1.3v-5.9l-11.4,1V42.6h-3v18l-9.7,0.8v1l9.7,1.2V106.3z"/>
	<polygon class="st3" points="367.4,59.3 352.8,59.3 352.8,62.1 364.3,62.1 364.3,118.3 349,127.8 348.9,127.9 348.9,128.8 
		365.8,125.1 383.1,128.8 383.4,128.8 383.4,127.9 367.4,118.3 	"/>
	<path class="st3" d="M365.7,34.8c1.7,0,2.8-1.9,2.8-4.6c0-2.8-1.1-4.6-2.8-4.6c-1.6,0-2.8,2-2.8,4.6
		C363,32.8,364.2,34.8,365.7,34.8z"/>
	<path class="st3" d="M408.3,57.6c-11.5,0-19.2,15-19.2,37.4c0,20.8,7.7,35.3,18.7,35.3c10.2,0,18.4-17.1,18.4-38.1
		c0-9.1-1.6-17.6-4.6-23.9C418.4,61.3,413.7,57.6,408.3,57.6z M423.6,99.7c0,13.1-5,26.7-13.3,26.7c-11,0-18.9-16.2-18.9-38.6
		c0-18.4,7.2-26.8,13.9-26.8C416.4,60.9,423.6,76.2,423.6,99.7z"/>
	<path class="st3" d="M461.8,127.9v1l11.8-3.8l15,3.7l0.3,0.1v-1l-13.8-9.6v-35c0-15.6-5.2-25.7-13.3-25.7c-6.5,0-11.3,6-13.8,16.9
		V59.3h-13.6v2.9h10.6v56.2l-13.1,9.5l-0.1,0.1v1l14.7-3.8l12.4,3.8v-1l-10.9-9.6V77.9c3.6-13.1,7.7-15.8,13.1-15.8
		c6.7,0,10.9,9.6,10.9,25.2v31L461.8,127.9z"/>
	<polygon class="st3" points="546.1,132.1 546.1,132.3 547,132.3 566.5,36.8 580.5,28 580.5,27 565.7,30.8 550.7,27.1 550.4,27 
		550.4,28 564.5,36.7 547.6,120 530.5,36.2 545,28.1 545.1,28 545.1,27 528.5,30.8 514.9,27 514.9,28 526.6,36.1 	"/>
	<path class="st3" d="M602.8,130.3c8,0,12-6.9,15.8-14.6l0-0.1l-0.4-1.1l-0.3,0.5c-4,7.7-8.1,11.3-12.8,11.3
		c-10.5,0-18.1-16.6-18.1-39.5v-0.6l30.3,2l0.3,0l0-0.3c0.4-11.3-2.5-21.7-7.6-26.9c-2.2-2.3-4.7-3.5-7.2-3.5
		c-11,0-18.1,14.7-18.1,37.4C584.7,119.2,594.1,130.3,602.8,130.3z M587.1,85.2c0.5-14,5.8-24.1,12.8-24.1c6.3,0,11.7,7.1,13.9,18.2
		c0.2,0.6,0.3,2.5,0.3,3.6L587.1,85.2z"/>
	<path class="st3" d="M650.5,128.9v-1l-10.9-9.6V77.9c3.7-13.1,7.7-15.8,13.1-15.8c6.7,0,10.9,9.6,10.9,25.2v31l-10.3,9.6v1
		l11.8-3.8l15,3.7l0.3,0.1v-1l-13.8-9.6v-35c0-15.6-5.2-25.7-13.3-25.7c-6.5,0-11.3,6-13.8,16.9V59.3h-13.6v2.9h10.6v56.2l-13.1,9.5
		l-0.1,0.1v1l14.7-3.8L650.5,128.9z"/>
	<path class="st3" d="M718.5,59.3h-10.4v2.9h7.4V110c-3.6,13.1-7.7,15.8-13.1,15.8c-5.9,0-9.7-9-9.7-22.8V59.3h-10.2v2.9h7.2v42.5
		c0,15.8,4.6,25.7,12,25.7c6.5,0,11.3-6,13.8-16.9v15.5l13.5-8.7l0.1-0.1v-0.9l-10.6,1.9V59.3z"/>
	<path class="st3" d="M769.1,114.9c-4,7.7-8.1,11.3-12.8,11.3c-10.5,0-18.1-16.6-18.1-39.5v-0.6l30.3,2l0.3,0l0-0.3
		c0.4-11.3-2.5-21.7-7.6-26.9c-2.2-2.3-4.7-3.5-7.2-3.5c-11,0-18.1,14.7-18.1,37.4c0,24.2,9.4,35.3,18.2,35.3c8,0,12-6.9,15.8-14.6
		l0-0.1l-0.4-1.1L769.1,114.9z M738.1,85.2c0.5-14,5.8-24.1,12.8-24.1c6.3,0,11.7,7.1,13.9,18.2c0.2,0.6,0.3,2.5,0.3,3.6L738.1,85.2
		z"/>
</g>
</svg>
