<?xml version="1.0" encoding="utf-8"?>
<!-- Generator: Adobe Illustrator 25.2.1, SVG Export Plug-In . SVG Version: 6.00 Build 0)  -->
<svg version="1.1" id="Layer_1" xmlns="http://www.w3.org/2000/svg" xmlns:xlink="http://www.w3.org/1999/xlink" x="0px" y="0px"
	 viewBox="0 0 793 144" style="enable-background:new 0 0 793 144;" xml:space="preserve">
<style type="text/css">
	.st0{fill:#FFFFFF;}
	.st1{fill:#C9CA9E;}
</style>
<g>
	<polygon points="72.2,83.9 71.3,83.9 67.9,122.9 40,122.9 40,72.1 56.4,72.1 61.7,96.2 62.5,95.5 60.2,70.9 62.4,50.7 62.4,50.6 
		61.6,49.6 56.4,70.1 40,70.1 40,25.1 66.6,25.1 69.6,57.7 69.6,57.9 70.6,57.9 70.6,23.1 23.5,23.1 23.5,24 36.9,30.6 36.9,117.1 
		23.5,123.9 23.5,124.8 72.2,124.8 	"/>
	<polygon points="99.3,124.9 99.3,123.9 89.9,114.4 98.7,90.5 109.5,115.2 101.7,123.9 101.7,124.9 112.2,121.1 123.6,124.9 
		123.6,123.9 112.8,115.1 100.4,86.3 108.2,65.2 118.4,56.2 118.5,56.1 118.5,55.1 108.1,59.8 99.6,55.1 99.6,56.1 107,65.1 
		99.7,84.8 91,64.8 97.8,56.1 97.8,55.1 89,59.8 78,55.1 78,56.1 87.5,64.9 98.1,89 88.5,114.4 76.7,123.8 76.6,123.9 76.6,124.9 
		87.7,121.1 	"/>
	<path d="M153,123.9l-10.9-9.6V73.9c3.7-13.1,7.7-15.8,13.1-15.8c6.7,0,10.9,9.6,10.9,25.2v31l-10.3,9.6v1l11.8-3.8l15,3.7l0.3,0.1
		v-1l-13.8-9.6v-35c0-15.6-5.2-25.7-13.3-25.7c-6.5,0-11.3,6-13.8,16.9V23.1h-13.6V26H139v88.3l-13.1,9.5l-0.1,0.1v1l14.7-3.8
		l12.4,3.8V123.9z"/>
	<polygon points="220.2,124.8 220.5,124.8 220.5,123.9 204.4,114.3 204.4,55.3 189.9,55.3 189.9,58.1 201.4,58.1 201.4,114.3 
		186.1,123.8 185.9,123.9 185.9,124.8 202.9,121.1 	"/>
	<path d="M202.8,30.8c1.7,0,2.8-1.9,2.8-4.6c0-2.8-1.1-4.6-2.8-4.6c-1.6,0-2.8,2-2.8,4.6C200.1,28.8,201.3,30.8,202.8,30.8z"/>
	<path d="M262.6,88.5c0.4-13.1-3.2-25.8-9-31.7c-2.1-2.2-4.3-3.2-6.7-3.2c-8.3,0-13.1,8.9-14.9,13.1V23.1H224v2.7h5.1v94l0.1,0.1
		c4.4,4.1,7.9,6.5,12.6,6.5c5.9,0,11-3.9,14.9-11.3C260.2,108.2,262.3,98.7,262.6,88.5z M244.6,123.1c-4.9,0-9.6-3.1-12.5-8.4V69
		c1.7-4.1,5.4-10.9,11.9-10.9c9.8,0,15.9,13.8,15.9,36.1C259.9,110.9,253.4,123.1,244.6,123.1z"/>
	<path d="M286.2,30.8c1.7,0,2.8-1.9,2.8-4.6c0-2.8-1.1-4.6-2.8-4.6c-1.6,0-2.8,2-2.8,4.6C283.4,28.8,284.7,30.8,286.2,30.8z"/>
	<polygon points="303.6,124.8 303.9,124.8 303.9,123.9 287.8,114.3 287.8,55.3 273.3,55.3 273.3,58.1 284.8,58.1 284.8,114.3 
		269.4,123.8 269.3,123.9 269.3,124.8 286.3,121.1 	"/>
	<path d="M316.6,102.3c0,15.9,3.3,24,9.7,24c4.5,0,7.2-4,8.9-7l0.1-0.1l-0.4-1.1l-0.3,0.5c-1.2,2-3.4,4.4-7.7,4.4
		c-4.5,0-7.2-7.5-7.2-19.9V59.8l11.4,1.3v-5.9l-11.4,1V38.6h-3v18l-9.7,0.8v1l9.7,1.2V102.3z"/>
	<polygon points="374.1,124.8 374.4,124.8 374.4,123.9 358.4,114.3 358.4,55.3 343.8,55.3 343.8,58.1 355.3,58.1 355.3,114.3 
		340,123.8 339.9,123.9 339.9,124.8 356.8,121.1 	"/>
	<path d="M356.7,30.8c1.7,0,2.8-1.9,2.8-4.6c0-2.8-1.1-4.6-2.8-4.6c-1.6,0-2.8,2-2.8,4.6C354,28.8,355.2,30.8,356.7,30.8z"/>
	<path d="M399.3,53.6c-11.5,0-19.2,15-19.2,37.4c0,20.8,7.7,35.3,18.7,35.3c10.2,0,18.4-17.1,18.4-38.1c0-9.1-1.6-17.6-4.6-23.9
		C409.4,57.3,404.7,53.6,399.3,53.6z M414.6,95.7c0,13.1-5,26.7-13.3,26.7c-11,0-18.9-16.2-18.9-38.6c0-18.4,7.2-26.8,13.9-26.8
		C407.4,56.9,414.6,72.2,414.6,95.7z"/>
	<path d="M466.2,79.2c0-15.6-5.2-25.7-13.3-25.7c-6.5,0-11.3,6-13.8,16.9V55.3h-13.6v2.9h10.6v56.2l-13.1,9.5l-0.1,0.1v1l14.7-3.8
		l12.4,3.8v-1l-10.9-9.6V73.9c3.6-13.1,7.7-15.8,13.1-15.8c6.7,0,10.9,9.6,10.9,25.2v31l-10.3,9.6v1l11.8-3.8l15,3.7l0.3,0.1v-1
		l-13.8-9.6V79.2z"/>
	<polygon points="571.5,23 556.7,26.8 541.7,23.1 541.4,23 541.4,24 555.5,32.7 538.6,116 521.5,32.2 536,24.1 536.1,24 536.1,23 
		519.5,26.8 505.9,23 505.9,24 517.6,32.1 537.1,128.1 537.1,128.3 538,128.3 557.5,32.8 571.5,24 	"/>
	<path d="M609.7,111.6l-0.4-1.1l-0.3,0.5c-4,7.7-8.1,11.3-12.8,11.3c-10.5,0-18.1-16.6-18.1-39.5v-0.6l30.3,2l0.3,0l0-0.3
		c0.4-11.3-2.5-21.7-7.6-26.9c-2.2-2.3-4.7-3.5-7.2-3.5c-11,0-18.1,14.7-18.1,37.4c0,24.2,9.4,35.3,18.2,35.3
		C601.9,126.3,605.9,119.4,609.7,111.6L609.7,111.6z M578.1,81.2c0.5-14,5.8-24.1,12.8-24.1c6.3,0,11.7,7.1,13.9,18.2
		c0.2,0.6,0.3,2.5,0.3,3.6L578.1,81.2z"/>
	<path d="M657.6,79.2c0-15.6-5.2-25.7-13.3-25.7c-6.5,0-11.3,6-13.8,16.9V55.3h-13.6v2.9h10.6v56.2l-13.1,9.5l-0.1,0.1v1l14.7-3.8
		l12.4,3.8v-1l-10.9-9.6V73.9c3.7-13.1,7.7-15.8,13.1-15.8c6.7,0,10.9,9.6,10.9,25.2v31l-10.3,9.6v1l11.8-3.8l15,3.7l0.3,0.1v-1
		l-13.8-9.6V79.2z"/>
	<path d="M709.5,55.3h-10.4v2.9h7.4V106c-3.6,13.1-7.7,15.8-13.1,15.8c-5.9,0-9.7-9-9.7-22.8V55.3h-10.2v2.9h7.2v42.5
		c0,15.8,4.6,25.7,12,25.7c6.5,0,11.3-6,13.8-16.9v15.5l13.5-8.7l0.1-0.1v-0.9l-10.6,1.9V55.3z"/>
	<path d="M760.3,110.4l-0.3,0.5c-4,7.7-8.1,11.3-12.8,11.3c-10.5,0-18.1-16.6-18.1-39.5v-0.6l30.3,2l0.3,0l0-0.3
		c0.4-11.3-2.5-21.7-7.6-26.9c-2.2-2.3-4.7-3.5-7.2-3.5c-11,0-18.1,14.7-18.1,37.4c0,24.2,9.4,35.3,18.2,35.3c8,0,12-6.9,15.8-14.6
		l0-0.1L760.3,110.4z M729.1,81.2c0.5-14,5.8-24.1,12.8-24.1c6.3,0,11.7,7.1,13.9,18.2c0.2,0.6,0.3,2.5,0.3,3.6L729.1,81.2z"/>
</g>
</svg>
