<?xml version="1.0" encoding="utf-8"?>
<!-- Generator: Adobe Illustrator 25.2.1, SVG Export Plug-In . SVG Version: 6.00 Build 0)  -->
<svg version="1.1" id="Layer_1" xmlns="http://www.w3.org/2000/svg" xmlns:xlink="http://www.w3.org/1999/xlink" x="0px" y="0px"
	 viewBox="0 0 1564 628" style="enable-background:new 0 0 1564 628;" xml:space="preserve">
<style type="text/css">
	.st0{clip-path:url(#SVGID_2_);}
	.st1{clip-path:url(#SVGID_4_);}
	.st2{clip-path:url(#SVGID_6_);fill:none;stroke:#C9CA9E;stroke-width:8.414;stroke-miterlimit:10;}
	.details-st3{fill:#fff;}
	.st4{fill:none;}
	.st5{fill:#C9CA9E;}
</style>
<g>
	<path class="details-st3" d="M51.2,135.3c10.7,0,19.3-24.4,19.3-54.4c0-25-6.5-50.2-18.8-50.2c-12,0-20,21.7-20,54.1
		C31.7,114.5,39.7,135.3,51.2,135.3z M34.4,77.1c0-26.6,5.6-41.8,15.4-41.8c11.3,0,17.7,19.8,17.7,54.3c0,19.6-4.6,40.7-14.7,40.7
		C41.5,130.2,34.4,109.9,34.4,77.1z"/>
	<path class="details-st3" d="M97.9,135.3c10.7,0,18.4-13.8,18.4-32.7c0-15-6.3-30.9-18-30.9c-6.8,0-13.9,5.5-16.5,17.7
		c1.2-14.3,3.8-26.1,7.8-35.1c5.4-12.2,13.6-19.8,24.4-22.5l0.2,0v-1l-0.3,0c-31.6,5.4-35,49.1-35,67.6
		C78.9,119.7,86.9,135.3,97.9,135.3z M81.9,100.9c0-14.3,6.1-25.2,14.1-25.2c11.2,0,17.7,12.2,17.7,33.6c0,11-4.6,22.6-13.1,22.6
		C89.6,131.9,81.9,115.6,81.9,100.9z"/>
	<path class="details-st3" d="M126.6,84.4c1.7,0,2.8-1.9,2.8-4.6c0-2.8-1.1-4.6-2.8-4.6c-1.6,0-2.8,2-2.8,4.6
		C123.8,82.4,125,84.4,126.6,84.4z"/>
	<path class="details-st3" d="M156.6,135.3c10.7,0,19.3-24.4,19.3-54.4c0-25-6.5-50.2-18.8-50.2c-12,0-20,21.7-20,54.1
		C137,114.5,145.1,135.3,156.6,135.3z M139.8,77.1c0-26.6,5.6-41.8,15.4-41.8c11.3,0,17.7,19.8,17.7,54.3c0,19.6-4.6,40.7-14.7,40.7
		C146.8,130.2,139.8,109.9,139.8,77.1z"/>
	<path class="details-st3" d="M198.1,135.3c12.2,0,20.8-14.7,20.8-35.8c0-16-6.1-33.1-17.4-33.1c-7.9,0-13.3,5.2-16.4,15.9l2.8-45.4h23.7
		l2.4,24.6h0.9V32.1h-28.5l-3.6,60.5l0,0.3h0.8l0-0.2c2.2-9.7,6.3-22.7,16.8-22.7c11.1,0,15.2,18.1,15.2,29.5
		c0,19.1-7.1,32.4-17.4,32.4c-9.9,0-14.3-11.2-16.1-17.8l-0.1-0.5l-0.8,1l0,0.1C183.7,124.3,187.8,135.3,198.1,135.3z"/>
	<path class="details-st3" d="M252.9,84.8l33.9-0.3c0.3,0,1-0.2,1.2-0.8c0.3-0.8,0.5-2.2,0.5-3.3c0-0.6-0.5-1.1-0.9-1.1h-34.9
		c-0.3,0-0.9,0.4-1.1,1c-0.4,1.1-0.5,2.9-0.5,3.3C251,84.5,252,84.8,252.9,84.8z"/>
	<path class="details-st3" d="M340.6,135.3c10.7,0,19.3-24.4,19.3-54.4c0-25-6.5-50.2-18.8-50.2c-12,0-20,21.7-20,54.1
		C321.1,114.5,329.1,135.3,340.6,135.3z M323.9,77.1c0-26.6,5.6-41.8,15.4-41.8c11.3,0,17.7,19.8,17.7,54.3
		c0,19.6-4.6,40.7-14.7,40.7C330.9,130.2,323.9,109.9,323.9,77.1z"/>
	<path class="details-st3" d="M387.3,135.3c10.7,0,18.4-13.8,18.4-32.7c0-15-6.3-30.9-18-30.9c-6.8,0-13.9,5.5-16.5,17.7
		c1.2-14.3,3.8-26.1,7.8-35.1c5.4-12.2,13.6-19.8,24.4-22.5l0.2,0v-1l-0.3,0c-31.6,5.4-35,49.1-35,67.6
		C368.3,119.7,376.3,135.3,387.3,135.3z M371.3,100.9c0-14.3,6.1-25.2,14.1-25.2c11.2,0,17.7,12.2,17.7,33.6
		c0,11-4.6,22.6-13.1,22.6C379,131.9,371.3,115.6,371.3,100.9z"/>
	<path class="details-st3" d="M416,84.4c1.7,0,2.8-1.9,2.8-4.6c0-2.8-1.1-4.6-2.8-4.6c-1.6,0-2.8,2-2.8,4.6C413.3,82.4,414.5,84.4,416,84.4z
		"/>
	<path class="details-st3" d="M446,135.3c10.7,0,19.3-24.4,19.3-54.4c0-25-6.5-50.2-18.8-50.2c-12,0-20,21.7-20,54.1
		C426.5,114.5,434.5,135.3,446,135.3z M429.2,77.1c0-26.6,5.6-41.8,15.4-41.8c11.3,0,17.7,19.8,17.7,54.3c0,19.6-4.6,40.7-14.7,40.7
		C436.3,130.2,429.2,109.9,429.2,77.1z"/>
	<path class="details-st3" d="M492.7,135.3c10.7,0,18.4-13.8,18.4-32.7c0-15-6.3-30.9-18-30.9c-6.8,0-13.9,5.5-16.5,17.7
		c1.2-14.3,3.8-26.1,7.8-35.1c5.4-12.2,13.6-19.8,24.4-22.5l0.2,0v-1l-0.3,0c-31.6,5.4-35,49.1-35,67.6
		C473.7,119.7,481.7,135.3,492.7,135.3z M476.7,100.9c0-14.3,6.1-25.2,14.1-25.2c11.2,0,17.7,12.2,17.7,33.6
		c0,11-4.6,22.6-13.1,22.6C484.4,131.9,476.7,115.6,476.7,100.9z"/>
	<path class="details-st3" d="M521.4,84.4c1.7,0,2.8-1.9,2.8-4.6c0-2.8-1.1-4.6-2.8-4.6c-1.6,0-2.8,2-2.8,4.6
		C518.6,82.4,519.8,84.4,521.4,84.4z"/>
	<path class="details-st3" d="M567.9,98.6h-1l-2.9,30.3H536l18.3-31.4c8.9-15.4,12.7-26.5,12.7-37.3c0-17.7-6.6-29.5-16.4-29.5
		c-8.1,0-13.1,9.5-15.1,18.2l-1.8-16.7h-1v45.4h2.3v-0.2c0-21.5,4.7-44.7,14.9-44.7c7.5,0,13.4,12,13.4,27.4
		c0,12.2-3.6,24.2-11.4,37.7l-20.3,35.2l0,0.1v0.8h36.4V98.6z"/>
	<polygon class="details-st3" points="591,45.4 591,123.8 572.9,132.8 572.7,132.9 572.7,133.8 592.5,130.1 609.8,133.8 610.1,133.8 
		610.1,132.9 594,123.8 594,30.6 593.1,30.6 572.4,87.1 573.2,87.8 	"/>
	<polygon class="details-st3" points="28.4,280.8 28.3,280.9 28.3,281.8 48.1,278.1 65.3,281.8 65.6,281.8 65.6,280.9 49.6,271.8 
		49.6,178.6 48.7,178.6 27.9,235.1 28.7,235.8 46.6,193.4 46.6,271.8 	"/>
	<path class="details-st3" d="M107.8,250.5c0-15-6.3-30.9-18-30.9c-6.8,0-13.9,5.5-16.5,17.7c1.2-14.3,3.8-26.1,7.8-35.1
		c5.4-12.2,13.6-19.8,24.4-22.5l0.2,0v-1l-0.3,0c-31.6,5.4-35,49.1-35,67.6c0,21.4,8,36.9,19,36.9
		C100,283.3,107.8,269.5,107.8,250.5z M92.1,279.9c-11,0-18.7-16.4-18.7-31.1c0-14.3,6.1-25.2,14.1-25.2c11.2,0,17.7,12.2,17.7,33.6
		C105.1,268.3,100.5,279.9,92.1,279.9z"/>
	<path class="details-st3" d="M118,283.3c1.7,0,2.8-1.9,2.8-4.6c0-2.8-1.1-4.6-2.8-4.6c-1.6,0-2.8,2-2.8,4.6
		C115.3,281.2,116.5,283.3,118,283.3z"/>
	<path class="details-st3" d="M148.5,178.6c-12,0-20,21.7-20,54.1c0,29.8,8,50.6,19.5,50.6c10.7,0,19.3-24.4,19.3-54.4
		C167.3,203.9,160.8,178.6,148.5,178.6z M164.4,237.6c0,19.6-4.6,40.7-14.7,40.7c-11.4,0-18.4-20.3-18.4-53.1
		c0-26.6,5.6-41.8,15.4-41.8C157.9,183.3,164.4,203.1,164.4,237.6z"/>
	<path class="details-st3" d="M195.4,178.6c-12,0-20,21.7-20,54.1c0,29.8,8,50.6,19.5,50.6c10.7,0,19.3-24.4,19.3-54.4
		C214.2,203.9,207.7,178.6,195.4,178.6z M211.3,237.6c0,19.6-4.6,40.7-14.7,40.7c-11.4,0-18.4-20.3-18.4-53.1
		c0-26.6,5.6-41.8,15.4-41.8C204.8,183.3,211.3,203.1,211.3,237.6z"/>
	<path class="details-st3" d="M248.8,232.8l33.9-0.3c0.3,0,1-0.2,1.2-0.8c0.3-0.8,0.5-2.2,0.5-3.3c0-0.6-0.5-1.1-0.9-1.1h-34.9
		c-0.3,0-0.9,0.4-1.1,1c-0.4,1.1-0.5,2.9-0.5,3.3C246.9,232.5,247.9,232.8,248.8,232.8z"/>
	<path class="details-st3" d="M353,246.6h-1l-2.9,30.3h-27.9l18.3-31.4c8.9-15.4,12.7-26.5,12.7-37.3c0-17.7-6.6-29.5-16.4-29.5
		c-8.1,0-13.1,9.5-15.1,18.2l-1.8-16.7h-1v45.4h2.3v-0.2c0-21.5,4.7-44.7,14.9-44.7c7.5,0,13.4,12,13.4,27.4
		c0,12.2-3.6,24.2-11.4,37.7l-20.3,35.2l0,0.1v0.8H353V246.6z"/>
	<polygon class="details-st3" points="358,280.8 357.9,280.9 357.9,281.8 377.7,278.1 395,281.8 395.3,281.8 395.3,280.9 379.2,271.8 
		379.2,178.6 378.3,178.6 357.6,235.1 358.3,235.8 376.2,193.4 376.2,271.8 	"/>
	<path class="details-st3" d="M399.2,278.7c0,2.6,1.2,4.6,2.8,4.6c1.7,0,2.8-1.9,2.8-4.6c0-2.8-1.1-4.6-2.8-4.6
		C400.5,274,399.2,276.1,399.2,278.7z"/>
	<path class="details-st3" d="M432,283.3c10.7,0,19.3-24.4,19.3-54.4c0-25-6.5-50.2-18.8-50.2c-12,0-20,21.7-20,54.1
		C412.5,262.5,420.5,283.3,432,283.3z M415.2,225.1c0-26.6,5.6-41.8,15.4-41.8c11.3,0,17.7,19.8,17.7,54.3
		c0,19.6-4.6,40.7-14.7,40.7C422.3,278.2,415.2,257.9,415.2,225.1z"/>
	<path class="details-st3" d="M478.9,283.3c10.7,0,19.3-24.4,19.3-54.4c0-25-6.5-50.2-18.8-50.2c-12,0-20,21.7-20,54.1
		C459.4,262.5,467.4,283.3,478.9,283.3z M462.1,225.1c0-26.6,5.6-41.8,15.4-41.8c11.3,0,17.7,19.8,17.7,54.3
		c0,19.6-4.6,40.7-14.7,40.7C469.2,278.2,462.1,257.9,462.1,225.1z"/>
	<path class="details-st3" d="M531.4,294.2c0.9,0,1.9-1.5,2.3-2.9c1.6-5.9,8.7-38.8,15.6-70.7c3.6-16.8,7.4-34.1,10.3-47.5
		c0.6-2.7,0.5-3.3,0.2-3.6c-0.1-0.1-0.3-0.2-0.5-0.2c-0.7,0-2.1,1.5-2.3,2.2l0,0c-3,13.8-6.1,28.2-9.1,42.1
		c-5.6,25.7-11.3,52.3-17,77.6c-0.4,1.9-0.3,2.5-0.1,2.8C531.1,294.2,531.3,294.2,531.4,294.2z"/>
	<path class="details-st3" d="M600.5,194.4c-4.7,9.7-7.2,23.3-7.2,38.3c0,29.8,11,50.6,26.8,50.6c14.6,0,26.4-24.4,26.4-54.4
		c0-25-8.8-50.2-25.7-50.2C612.4,178.6,605.4,184,600.5,194.4z M617.8,183c15.8,0,25.6,21.1,25.6,55c0,19.6-7.9,40.8-20.6,40.8
		c-16,0-26.8-21.7-26.8-53.9C596.1,199.4,604.6,183,617.8,183z"/>
	<path class="details-st3" d="M682.3,313.4l0.3,0.1v-1l-16.5-9.6v-23.4c2.1,1.8,5.4,3.7,9.7,3.7c5.9,0,11-3.9,14.9-11.3
		c3.6-6.9,5.7-16.3,6-26.5c0.4-13.1-3.2-25.8-9-31.7c-2.1-2.2-4.3-3.2-6.7-3.2c-8.3,0-13.1,8.9-14.9,13.1v-11.4h-14v2.9h11v87.8
		l-11,9.6v1l12.8-3.8L682.3,313.4z M677.9,215.1c9.8,0,15.9,13.8,15.9,36.1c0,16.7-6.4,28.9-15.3,28.9c-4.9,0-9.6-3.1-12.5-8.4V226
		C667.7,221.9,671.5,215.1,677.9,215.1z"/>
	<path class="details-st3" d="M723,283.3c8,0,12-6.9,15.8-14.6l0-0.1l-0.4-1.1l-0.3,0.5c-4,7.7-8.1,11.3-12.8,11.3
		c-10.5,0-18.1-16.6-18.1-39.5v-0.6l30.3,2l0.3,0l0-0.3c0.4-11.3-2.5-21.7-7.6-26.9c-2.2-2.3-4.7-3.5-7.2-3.5
		c-11,0-18.1,14.7-18.1,37.4C704.8,272.2,714.3,283.3,723,283.3z M707.2,238.2c0.5-14,5.8-24.1,12.8-24.1c6.3,0,11.7,7.1,13.9,18.2
		c0.2,0.6,0.3,2.5,0.3,3.6L707.2,238.2z"/>
	<path class="details-st3" d="M770.6,281.9v-1l-10.9-9.6v-40.4c3.6-13.1,7.7-15.8,13.1-15.8c6.7,0,10.9,9.6,10.9,25.2v31l-10.3,9.6v1
		l11.8-3.8l15,3.7l0.3,0.1v-1l-13.8-9.6v-35c0-15.6-5.2-25.7-13.3-25.7c-6.5,0-11.3,6-13.8,16.9v-15.3h-13.6v2.9h10.6v56.2
		l-13.1,9.5l-0.1,0.1v1l14.7-3.8L770.6,281.9z"/>
	<path class="details-st3" d="M819.4,187.8c1.7,0,2.8-1.9,2.8-4.6c0-2.8-1.1-4.6-2.8-4.6c-1.6,0-2.8,2-2.8,4.6
		C816.6,185.8,817.9,187.8,819.4,187.8z"/>
	<polygon class="details-st3" points="836.8,281.8 837.1,281.8 837.1,280.9 821,271.3 821,212.3 806.5,212.3 806.5,215.1 818,215.1 
		818,271.3 802.6,280.8 802.5,280.9 802.5,281.8 819.5,278.1 	"/>
	<path class="details-st3" d="M867.2,281.9v-1l-10.9-9.6v-40.4c3.6-13.1,7.7-15.8,13.1-15.8c6.7,0,10.9,9.6,10.9,25.2v31l-10.3,9.6v1
		l11.8-3.8l15,3.7l0.3,0.1v-1l-13.8-9.6v-35c0-15.6-5.2-25.7-13.3-25.7c-6.5,0-11.3,6-13.8,16.9v-15.3h-13.6v2.9h10.6v56.2
		l-13.1,9.5l-0.1,0.1v1l14.7-3.8L867.2,281.9z"/>
	<path class="details-st3" d="M919.1,272c0.1,0,0.3,0,0.5,0l-13.6,8.8l-0.1,0.1v0.9h17.7c6.6,0,10.7,5,10.7,13c0,8.7-6.6,16.9-13.6,16.9
		c-5.4,0-10.5-2.2-15.4-6.8l-0.4-0.4v1.5l0.1,0.1c0.5,0.4,1,0.9,1.5,1.3c3.5,3.2,7.2,6.5,15.2,6.5c9.3,0,16.1-8.7,16.1-20.6
		c0-10.4-6.6-16.1-12.9-16.1h-10.3l9.8-6.8c6.8-4.7,11-16,11-29.5c0-10.7-3.7-21-9.3-25.8h8.9v-2.9h-15.9
		c-10.4,0-17.4,12.4-17.4,30.9C901.8,261.2,910.6,272,919.1,272z M904.7,236.7c0-13,5-22.5,11.9-22.5c7.8,0,16.1,13.2,16.1,32.9
		c0,9.5-4.6,22.8-12.2,22.8C912.1,270,904.7,254.5,904.7,236.7z"/>
	<path class="details-st3" d="M990.9,283.3c10.7,0,19.3-24.4,19.3-54.4c0-25-6.5-50.2-18.8-50.2c-12,0-20,21.7-20,54.1
		C971.4,262.5,979.4,283.3,990.9,283.3z M974.2,225.1c0-26.6,5.6-41.8,15.4-41.8c11.3,0,17.7,19.8,17.7,54.3
		c0,19.6-4.6,40.7-14.7,40.7C981.2,278.2,974.2,257.9,974.2,225.1z"/>
	<path class="details-st3" d="M1037.6,283.3c10.7,0,18.4-13.8,18.4-32.7c0-15-6.3-30.9-18-30.9c-6.8,0-13.9,5.5-16.5,17.8
		c1.2-14.3,3.8-26.1,7.8-35.1c5.4-12.2,13.6-19.8,24.4-22.5l0.2,0v-1l-0.3,0c-31.6,5.4-35,49.1-35,67.6
		C1018.6,267.7,1026.6,283.3,1037.6,283.3z M1021.6,248.9c0-14.3,6.1-25.2,14.1-25.2c11.2,0,17.7,12.2,17.7,33.6
		c0,11-4.6,22.6-13.1,22.6C1029.3,279.9,1021.6,263.6,1021.6,248.9z"/>
	<path class="details-st3" d="M1066.3,283.3c1.7,0,2.8-1.9,2.8-4.6c0-2.8-1.1-4.6-2.8-4.6c-1.6,0-2.8,2-2.8,4.6
		C1063.6,281.2,1064.8,283.3,1066.3,283.3z"/>
	<path class="details-st3" d="M1096.3,283.3c10.7,0,19.3-24.4,19.3-54.4c0-25-6.5-50.2-18.8-50.2c-12,0-20,21.7-20,54.1
		C1076.8,262.5,1084.8,283.3,1096.3,283.3z M1079.5,225.1c0-26.6,5.6-41.8,15.4-41.8c11.3,0,17.7,19.8,17.7,54.3
		c0,19.6-4.6,40.7-14.7,40.7C1086.6,278.2,1079.5,257.9,1079.5,225.1z"/>
	<path class="details-st3" d="M1137.8,283.3c12.2,0,20.8-14.7,20.8-35.8c0-16-6.1-33.1-17.4-33.1c-7.9,0-13.3,5.2-16.4,15.9l2.8-45.4h23.7
		l2.4,24.6h0.9v-29.5h-28.5l-3.6,60.5l0,0.3h0.8l0-0.2c2.2-9.7,6.3-22.7,16.8-22.7c11.1,0,15.2,18.1,15.2,29.5
		c0,19.1-7.1,32.4-17.4,32.4c-9.9,0-14.3-11.2-16.1-17.8l-0.1-0.5l-0.8,1l0,0.1C1123.4,272.3,1127.5,283.3,1137.8,283.3z"/>
	<path class="details-st3" d="M59.2,326.6c-8.3,0-15.3,5.5-20.3,15.8c-4.7,9.7-7.2,23.3-7.2,38.3c0,29.8,11,50.6,26.8,50.6
		c14.6,0,26.4-24.4,26.4-54.4C84.9,351.9,76.1,326.6,59.2,326.6z M81.9,385.9c0,19.6-7.9,40.8-20.6,40.8c-16,0-26.8-21.7-26.8-53.9
		c0-25.4,8.5-41.8,21.7-41.8C72.1,331,81.9,352,81.9,385.9z"/>
	<path class="details-st3" d="M123.1,429.8l13.5-8.7l0.1-0.1v-0.9l-10.6,1.9v-61.7h-10.4v2.9h7.4V411c-3.6,13.1-7.7,15.8-13.1,15.8
		c-5.9,0-9.7-9-9.7-22.8v-43.7H90.1v2.9h7.2v42.5c0,15.8,4.6,25.7,12,25.7c6.5,0,11.3-6,13.8-16.9V429.8z"/>
	<path class="details-st3" d="M169.1,424.3l0.1-0.1l-0.4-1.1l-0.3,0.5c-1.2,2-3.4,4.4-7.7,4.4c-4.5,0-7.2-7.5-7.2-19.9v-43.1l11.4,1.3v-5.9
		l-11.4,1v-17.7h-3v18l-9.7,0.8v1l9.7,1.2v42.7c0,15.9,3.3,24,9.7,24C164.8,431.3,167.5,427.3,169.1,424.3z"/>
	<path class="details-st3" d="M220.5,420.3l0.1-0.1v-1l-11,2.7v-93.9h-11.8v2.7h8.8v31.7c-3-2.6-6.3-3.9-9.7-3.9c-13,0-20.3,19.1-20.9,37.9
		c-0.4,13,3.2,25.7,8.9,31.5c2.1,2.2,4.4,3.3,6.7,3.3c8.4,0,13.1-8.8,14.9-12.9V430L220.5,420.3z M194.7,426.9
		c-9.8,0-15.9-13.8-15.9-36.1c0-16.7,6.4-28.9,15.3-28.9c4.9,0,9.6,3.1,12.5,8.4V416C204.9,420.1,201.2,426.9,194.7,426.9z"/>
	<path class="details-st3" d="M264.6,393.2c0-9.1-1.6-17.6-4.6-23.9c-3.3-7-7.9-10.7-13.4-10.7c-11.5,0-19.2,15-19.2,37.4
		c0,20.8,7.7,35.3,18.7,35.3C256.3,431.3,264.6,414.2,264.6,393.2z M248.7,427.4c-11,0-18.9-16.2-18.9-38.6
		c0-18.4,7.2-26.8,13.9-26.8c11.1,0,18.3,15.2,18.3,38.8C262,413.8,257,427.4,248.7,427.4z"/>
	<path class="details-st3" d="M272.9,396c0,20.8,7.7,35.3,18.7,35.3c10.2,0,18.4-17.1,18.4-38.1c0-9.1-1.6-17.6-4.6-23.9
		c-3.3-7-7.9-10.7-13.4-10.7C280.6,358.6,272.9,373.6,272.9,396z M289.1,361.9c11.1,0,18.3,15.2,18.3,38.8c0,13.1-5,26.7-13.3,26.7
		c-11,0-18.9-16.2-18.9-38.6C275.2,370.3,282.4,361.9,289.1,361.9z"/>
	<path class="details-st3" d="M342,429.8v-1l-12.1-9.6l0-35.2c2.3-13.1,5.8-18,13.1-18h0.9v-7.4l-0.2,0c0,0-0.8-0.2-1.3-0.2c0,0,0,0,0,0
		c-5.4,0.3-10.5,10.3-12.5,20.4v-18.7h-11.3v2.9h8.3v56.2l-11.1,9.5l-0.1,0.1v1l12.7-3.8L342,429.8z"/>
	<polygon class="details-st3" points="424.7,388.9 423.7,388.9 420.3,427.9 392.4,427.9 392.4,377.1 408.8,377.1 414.1,401.2 414.9,400.5 
		412.6,375.9 414.8,355.7 414.8,355.6 414.1,354.6 408.8,375.1 392.4,375.1 392.4,330.1 419,330.1 422,362.9 423,362.9 423,328.1 
		375.9,328.1 375.9,329 389.3,335.6 389.3,422.1 375.9,428.9 375.9,429.8 424.7,429.8 	"/>
	<polygon class="details-st3" points="454.1,429.9 464.6,426.1 476,429.9 476,428.9 465.3,420.1 452.8,391.3 460.6,370.2 471,361.1 
		471,360.1 460.5,364.8 452.1,360.1 452.1,361.1 459.4,370.1 452.1,389.8 443.5,369.8 450.2,361.1 450.2,360.1 441.4,364.8 
		430.4,360.1 430.4,361.1 440,369.9 450.5,394 440.9,419.4 429.1,428.8 429,428.9 429,429.9 440.2,426.1 451.7,429.9 451.7,428.9 
		442.3,419.4 451.2,395.5 462,420.2 454.1,428.9 	"/>
	<path class="details-st3" d="M494.5,375.5v-47.4h-13.6v2.9h10.6v88.3l-13.1,9.5l-0.1,0.1v1l14.7-3.8l12.4,3.8v-1l-10.9-9.6v-40.4
		c3.6-13.1,7.7-15.8,13.1-15.8c6.7,0,10.9,9.6,10.9,25.2v31l-10.3,9.6v1l11.8-3.8l15,3.7l0.3,0.1v-1l-13.8-9.6v-35
		c0-15.6-5.2-25.7-13.3-25.7C501.8,358.6,497,364.6,494.5,375.5z"/>
	<path class="details-st3" d="M558,331.2c0-2.8-1.1-4.6-2.8-4.6c-1.6,0-2.8,2-2.8,4.6c0,2.6,1.2,4.6,2.8,4.6C556.9,335.8,558,334,558,331.2z
		"/>
	<polygon class="details-st3" points="572.9,429.8 572.9,428.9 556.9,419.3 556.9,360.3 542.4,360.3 542.4,363.1 553.8,363.1 553.8,419.3 
		538.5,428.8 538.4,428.9 538.4,429.8 555.4,426.1 572.6,429.8 	"/>
	<path class="details-st3" d="M581.6,424.8c4.4,4.1,7.9,6.5,12.6,6.5c5.9,0,11-3.9,14.9-11.3c3.6-6.9,5.7-16.3,6-26.5
		c0.4-13.1-3.2-25.8-9-31.7c-2.1-2.2-4.3-3.2-6.7-3.2c-8.3,0-13.1,8.9-14.9,13.1v-43.6h-8.1v2.7h5.1L581.6,424.8L581.6,424.8z
		 M596.4,363.1c9.8,0,15.9,13.8,15.9,36.1c0,16.7-6.4,28.9-15.3,28.9c-4.9,0-9.6-3.1-12.5-8.4V374
		C586.2,369.9,589.9,363.1,596.4,363.1z"/>
	<path class="details-st3" d="M641.4,331.2c0-2.8-1.1-4.6-2.8-4.6c-1.6,0-2.8,2-2.8,4.6c0,2.6,1.2,4.6,2.8,4.6
		C640.3,335.8,641.4,334,641.4,331.2z"/>
	<polygon class="details-st3" points="621.9,428.8 621.8,428.9 621.8,429.8 638.7,426.1 656,429.8 656.3,429.8 656.3,428.9 640.3,419.3 
		640.3,360.3 625.7,360.3 625.7,363.1 637.2,363.1 637.2,419.3 	"/>
	<path class="details-st3" d="M678.7,431.3c4.5,0,7.2-4,8.9-7l0.1-0.1l-0.4-1.1l-0.3,0.5c-1.2,2-3.4,4.4-7.7,4.4c-4.5,0-7.2-7.5-7.2-19.9
		v-43.1l11.4,1.3v-5.9l-11.4,1v-17.7h-3v18l-9.7,0.8v1l9.7,1.2v42.7C669,423.2,672.3,431.3,678.7,431.3z"/>
	<polygon class="details-st3" points="692.4,428.8 692.3,428.9 692.3,429.8 709.3,426.1 726.5,429.8 726.8,429.8 726.8,428.9 710.8,419.3 
		710.8,360.3 696.3,360.3 696.3,363.1 707.8,363.1 707.8,419.3 	"/>
	<path class="details-st3" d="M712,331.2c0-2.8-1.1-4.6-2.8-4.6c-1.6,0-2.8,2-2.8,4.6c0,2.6,1.2,4.6,2.8,4.6C710.8,335.8,712,334,712,331.2z
		"/>
	<path class="details-st3" d="M751.2,431.3c10.2,0,18.4-17.1,18.4-38.1c0-9.1-1.6-17.6-4.6-23.9c-3.3-7-7.9-10.7-13.4-10.7
		c-11.5,0-19.2,15-19.2,37.4C732.5,416.8,740.2,431.3,751.2,431.3z M734.8,388.8c0-18.4,7.2-26.8,13.9-26.8
		c11.1,0,18.3,15.2,18.3,38.8c0,13.1-5,26.7-13.3,26.7C742.8,427.4,734.8,411.2,734.8,388.8z"/>
	<path class="details-st3" d="M805.2,428.9v1l11.8-3.8l15,3.7l0.3,0.1v-1l-13.8-9.6v-35c0-15.6-5.2-25.7-13.3-25.7c-6.5,0-11.3,6-13.8,16.9
		v-15.3h-13.6v2.9h10.6v56.2l-13.1,9.5l-0.1,0.1v1l14.7-3.8l12.4,3.8v-1l-10.9-9.6v-40.4c3.7-13.1,7.7-15.8,13.1-15.8
		c6.7,0,10.9,9.6,10.9,25.2v31L805.2,428.9z"/>
	<path class="details-st3" d="M904,420.8l0.1-0.1v-0.9l-12.2,2.9v-36.9c0-17.3-4.6-27.2-12.6-27.2c-8.4,0-13,9.2-16.1,17.2l0,0.1l0.6,1.3
		l0.2-0.6c3.9-9.9,8.4-14.3,14.4-14.3c6.4,0,10.5,9.3,10.5,23.7v3.7l-25.1,10.5l-0.1,0l0,0.1c-0.9,2.3-1.8,7.3-1.8,11.5
		c0,9.7,3.5,19.4,11.4,19.4c6.5,0,12.8-5.2,15.6-12.9v13.1L904,420.8z M875.8,426.2c-5.1,0-12.5-6.4-12.5-17.9c0-0.9,0-1.8,0.1-2.5
		l25.5-15V416C886.6,421.9,881.2,426.2,875.8,426.2z"/>
	<path class="details-st3" d="M963.1,429.8v-1l-13.8-9.6v-35c0-15.6-5.2-25.7-13.3-25.7c-6.5,0-11.3,6-13.8,16.9v-15.3h-13.6v2.9h10.6v56.2
		l-13.1,9.5l-0.1,0.1v1l14.7-3.8l12.4,3.8v-1l-10.9-9.6v-40.4c3.6-13.1,7.7-15.8,13.1-15.8c6.7,0,10.9,9.6,10.9,25.2v31l-10.3,9.6v1
		l11.8-3.8l15,3.7L963.1,429.8z"/>
	<path class="details-st3" d="M997.8,418.3V430l13.9-9.7l0.1-0.1v-1l-11,2.7v-93.9H989v2.7h8.8v31.7c-3-2.6-6.2-3.9-9.7-3.9
		c-13,0-20.3,19.1-20.9,37.9c-0.4,13,3.2,25.7,8.9,31.5c2.1,2.2,4.4,3.3,6.7,3.3C991.2,431.3,996,422.5,997.8,418.3z M985.9,426.9
		c-9.8,0-15.9-13.8-15.9-36.1c0-16.7,6.4-28.9,15.3-28.9c4.9,0,9.6,3.1,12.5,8.4V416C996.1,420.1,992.4,426.9,985.9,426.9z"/>
	<path class="details-st3" d="M1046.7,351.4c0,15,9.6,22.2,16.6,27.5l0.9,0.6c0.4,0.3,0.9,0.7,1.4,1c6.6,4.9,16.7,12.3,16.7,25.2
		c0,14.8-5.7,23.3-15.5,23.3c-10.5,0-18.4-14-19.3-33.9c-0.2-3.7-0.3-6.2-0.3-7.2v-0.2h-1.9v43.6h0.9l1.6-12.3
		c4.1,6.2,9.5,12.3,17.8,12.3c9.6,0,19.8-7.1,19.8-27c0-15.7-10.5-23.3-17.5-28.3c-0.5-0.4-1-0.7-1.4-1l-0.6-0.5
		c-6.9-5-16.3-11.8-16.3-24.3c0-14.1,5-21.3,14.7-21.3c7.8,0,14,11.4,16.2,29.7c0.4,2.7,0.9,8.5,0.9,8.6l0,0.2h1.9v-40.9h-1
		l-1.5,15.9c-3.5-7.9-9.6-15.9-16.6-15.9C1053.1,326.6,1046.7,335.6,1046.7,351.4z"/>
	<polygon class="details-st3" points="1114.9,423.7 1101.9,370 1110.1,361.1 1110.1,360.1 1100.1,364.8 1090.4,360.1 1090.4,361.1 
		1098.6,370.1 1113,431.5 1105.7,461.4 1106.9,461.4 1128.8,370.2 1136.7,361.2 1136.7,361.1 1136.7,360.1 1128.5,364.8 
		1118.8,360.1 1118.8,361.1 1127.6,370.2 	"/>
	<path class="details-st3" d="M1209.6,384.2c0-15.6-5.2-25.7-13.3-25.7c-6.7,0-12,6.5-14.3,17.6c-1.6-11-6.3-17.6-12.8-17.6
		c-6.5,0-11.3,6-13.8,16.9v-15.3h-13.6v2.9h10.6v56.2l-13.1,9.5l-0.1,0.1v1l14.7-3.8l12.4,3.8v-1l-10.9-9.6v-40.4
		c3.6-13.1,7.7-15.8,13.1-15.8c6.7,0,10.9,9.6,10.9,25.2v31l-10.3,9.6v1l11.8-3.8l12.3,3.8v-1l-10.8-9.6v-35.1c0-2-0.1-4.1-0.3-5.9
		c3.6-12.8,7.7-15.3,13.5-15.3c6.7,0,10.9,9.6,10.9,25.2v31l-10.3,9.6v1l11.8-3.8l15,3.7l0.3,0.1v-1l-13.8-9.6V384.2z"/>
	<path class="details-st3" d="M1256,358.6c-8.3,0-13.1,8.9-14.9,13.1v-11.4h-14v2.9h11v87.8l-11,9.6v1l12.8-3.8l17.5,3.7l0.3,0.1v-1
		l-16.5-9.6v-23.4c2.1,1.8,5.4,3.7,9.7,3.7c5.9,0,11-3.9,14.9-11.3c3.6-6.9,5.7-16.3,6-26.5c0.4-13.1-3.2-25.8-9-31.7
		C1260.5,359.7,1258.3,358.6,1256,358.6z M1253.5,428.1c-4.9,0-9.6-3.1-12.5-8.4V374c1.7-4.1,5.4-10.9,11.9-10.9
		c9.8,0,15.9,13.8,15.9,36.1C1268.8,415.9,1262.4,428.1,1253.5,428.1z"/>
	<path class="details-st3" d="M1299.1,358.6c-11.5,0-19.2,15-19.2,37.4c0,20.8,7.7,35.3,18.7,35.3c10.2,0,18.4-17.1,18.4-38.1
		c0-9.1-1.6-17.6-4.6-23.9C1309.2,362.3,1304.5,358.6,1299.1,358.6z M1314.4,400.7c0,13.1-5,26.7-13.3,26.7
		c-11,0-18.9-16.2-18.9-38.6c0-18.4,7.2-26.8,13.9-26.8C1307.2,361.9,1314.4,377.2,1314.4,400.7z"/>
	<path class="details-st3" d="M1343.4,393.1c-0.3-0.2-0.7-0.4-1-0.6l-1-0.6c-5.1-3.1-12.8-7.7-13.9-14.7c-0.7-4.6,0.5-9.4,3.1-12.4
		c1.9-2.2,4.5-3.4,7.4-3.4c6.4,0,12.8,9.1,14.1,20l0.7,6.1h2.1l-1.3-28.6h-0.9l-1.2,8.5c-3-4.1-7.3-8.7-11.9-8.7
		c-7,0-14.1,6.4-14.1,18.8c0,10.3,6.7,14.5,12,17.9c0.6,0.3,1.1,0.7,1.6,1c0.4,0.2,0.8,0.5,1.2,0.7c4.9,3,12.2,7.6,13.2,15.8
		c0.6,5.1-0.5,9.7-3.2,12.7c-1.8,2.1-4.3,3.2-7.1,3.2c-8.4,0-14.7-10-15.6-24.8c-0.2-2.3-0.2-4.2-0.2-5v-0.2h-2.1l-0.6,32.3h0.9
		l2-9.5c2.9,4.8,7.1,10,13.4,10c7.1,0,14.7-6.3,14.7-20.1C1356,400.8,1348.4,396.1,1343.4,393.1z"/>
	<path class="details-st3" d="M1378.5,335.8c1.7,0,2.8-1.9,2.8-4.6c0-2.8-1.1-4.6-2.8-4.6c-1.6,0-2.8,2-2.8,4.6
		C1375.8,333.8,1377,335.8,1378.5,335.8z"/>
	<polygon class="details-st3" points="1380.2,360.3 1365.7,360.3 1365.7,363.1 1377.1,363.1 1377.1,419.3 1361.8,428.8 1361.7,428.9 
		1361.7,429.8 1378.6,426.1 1395.9,429.8 1396.2,429.8 1396.2,428.9 1380.2,419.3 	"/>
	<path class="details-st3" d="M1435.3,360.3h-10.4v2.9h7.4V411c-3.6,13.1-7.7,15.8-13.1,15.8c-5.9,0-9.7-9-9.7-22.8v-43.7h-10.2v2.9h7.2
		v42.5c0,15.8,4.6,25.7,12,25.7c6.5,0,11.3-6,13.8-16.9v15.5l13.5-8.7l0.1-0.1v-0.9l-10.6,1.9V360.3z"/>
	<path class="details-st3" d="M1520.6,419.3v-35c0-15.6-5.2-25.7-13.3-25.7c-6.7,0-12,6.5-14.3,17.6c-1.6-11-6.3-17.6-12.8-17.6
		c-6.5,0-11.3,6-13.8,16.9v-15.3h-13.6v2.9h10.6v56.2l-13.1,9.5l-0.1,0.1v1l14.7-3.8l12.4,3.8v-1l-10.9-9.6v-40.4
		c3.6-13.1,7.7-15.8,13.1-15.8c6.7,0,10.9,9.6,10.9,25.2v31l-10.3,9.6v1l11.8-3.8l12.3,3.8v-1l-10.8-9.6v-35.1c0-2-0.1-4.1-0.3-5.9
		c3.6-12.8,7.7-15.3,13.5-15.3c6.7,0,10.9,9.6,10.9,25.2v31l-10.3,9.6v1l11.8-3.8l15,3.7l0.3,0.1v-1L1520.6,419.3z"/>
	<polygon class="details-st3" points="29.7,477 41.6,483.6 41.6,567.5 28.6,576.8 28.5,576.9 28.5,577.8 43.3,574.1 61.6,577.8 61.6,576.9 
		44.7,567.4 44.7,524.9 60.7,524.9 66,549.2 66.8,548.5 64.5,523.9 66.7,503.7 66.7,503.6 66,502.6 60.7,522.9 44.7,522.9 
		44.7,478.1 68,478.1 71.2,512.8 72.1,512.8 72.1,476.1 29.7,476.1 	"/>
	<polygon class="details-st3" points="96.2,476.1 81.6,476.1 81.6,478.8 93.2,478.8 93.2,567.3 77.8,576.8 77.7,576.9 77.7,577.8 
		94.7,574.1 111.9,577.8 112.2,577.8 112.2,576.9 96.2,567.3 	"/>
	<path class="details-st3" d="M137.1,506.6c-11.5,0-19.2,15-19.2,37.4c0,20.8,7.7,35.3,18.7,35.3c10.2,0,18.4-17.1,18.4-38.1
		c0-9.1-1.6-17.6-4.6-23.9C147.2,510.3,142.6,506.6,137.1,506.6z M152.4,548.7c0,13.1-5,26.7-13.3,26.7c-11,0-18.9-16.2-18.9-38.6
		c0-18.4,7.2-26.8,13.9-26.8C145.2,509.9,152.4,525.2,152.4,548.7z"/>
	<path class="details-st3" d="M192.8,533.8c0-17.3-4.6-27.2-12.6-27.2c-8.4,0-13,9.2-16.1,17.2l0,0.1l0.6,1.3l0.2-0.6
		c3.9-9.9,8.4-14.3,14.4-14.3c6.4,0,10.5,9.3,10.5,23.7v3.7l-25.2,10.6l0,0.1c-0.9,2.3-1.8,7.3-1.8,11.5c0,9.7,3.5,19.4,11.4,19.4
		c6.5,0,12.8-5.2,15.6-12.9v13.1l15.1-10.7l0.1-0.1v-0.9l-12.2,2.9V533.8z M176.7,574.2c-5.1,0-12.5-6.4-12.5-17.9
		c0-0.9,0-1.8,0.1-2.5l25.5-15V564C187.5,569.9,182,574.2,176.7,574.2z"/>
	<path class="details-st3" d="M234.5,571.5c-1.2,2-3.4,4.4-7.7,4.4c-4.5,0-7.2-7.5-7.2-19.9v-43.1l11.4,1.3v-5.9l-11.4,1v-17.7h-3v18
		l-9.7,0.8v1l9.7,1.2v42.7c0,15.9,3.3,24,9.7,24c4.5,0,7.2-4,8.9-7l0.1-0.1l-0.4-1.1L234.5,571.5z"/>
	<path class="details-st3" d="M253.9,479.2c0,2.6,1.2,4.6,2.8,4.6c1.7,0,2.8-1.9,2.8-4.6s-1.1-4.6-2.8-4.6
		C255.1,474.6,253.9,476.6,253.9,479.2z"/>
	<polygon class="details-st3" points="258.3,508.3 243.8,508.3 243.8,511.1 255.3,511.1 255.3,567.3 239.9,576.8 239.8,576.9 239.8,577.8 
		256.8,574.1 274,577.8 274.3,577.8 274.3,576.9 258.3,567.3 	"/>
	<path class="details-st3" d="M320.6,532.2c0-15.6-5.2-25.7-13.3-25.7c-6.5,0-11.3,6-13.8,16.9v-15.3H280v2.9h10.6v56.2l-13.1,9.5l-0.1,0.1
		v1l14.7-3.8l12.4,3.8v-1l-10.9-9.6v-40.4c3.6-13.1,7.7-15.8,13.1-15.8c6.7,0,10.9,9.6,10.9,25.2v31l-10.3,9.6v1l11.8-3.8l15,3.7
		l0.3,0.1v-1l-13.8-9.6V532.2z"/>
	<path class="details-st3" d="M362.1,573.2h-10.3l9.8-6.8c6.8-4.7,11-16,11-29.5c0-10.7-3.7-21-9.3-25.8h8.9v-2.9h-15.9
		c-10.4,0-17.4,12.4-17.4,30.9c0,18.1,8.8,28.9,17.4,28.9c0.1,0,0.3,0,0.5,0l-13.6,8.8l-0.1,0.1v0.9h17.7c6.6,0,10.7,5,10.7,13
		c0,8.7-6.6,16.9-13.6,16.9c-5.4,0-10.5-2.2-15.4-6.8l-0.4-0.4v1.5l0.1,0.1c0.5,0.4,1,0.9,1.5,1.3c3.5,3.2,7.2,6.5,15.2,6.5
		c9.3,0,16.1-8.7,16.1-20.6C375,578.9,368.4,573.2,362.1,573.2z M357.8,566c-8.4,0-15.8-15.5-15.8-33.2c0-13,5-22.5,11.9-22.5
		c7.8,0,16.1,13.2,16.1,32.9C370,552.7,365.3,566,357.8,566z"/>
	<path class="details-st3" d="M551.4,479.2c0,2.6,1.2,4.6,2.8,4.6c1.7,0,2.8-1.9,2.8-4.6s-1.1-4.6-2.8-4.6
		C552.6,474.6,551.4,476.6,551.4,479.2z"/>
	<ellipse class="details-st3" cx="755.2" cy="479.2" rx="2.8" ry="4.6"/>
	<path class="details-st3" d="M846.5,518.2l7.8-9l0.1-0.1v-1l-8.2,4.7l-9.7-4.7v1l8.8,9.1l-4.9,20.6h-15.8l-5-20.8l8.1-8.9v-1l-10,4.7
		l-9.7-4.7v1l8.2,8.9l4.9,20.8h-32.5v-26l11.4,1.3v-5.9l-11.4,1v-17.7h-3v18l-9.7,0.8v1l9.7,1.2v26.2h-28.8v-30.5h-14.5v2.9h11.5
		v27.7h-37.4c-5-3.1-11.2-7.4-12.2-13.7c-0.7-4.6,0.5-9.4,3.1-12.4c1.9-2.2,4.5-3.4,7.4-3.4c6.4,0,12.8,9.1,14.1,20l0.7,6.1h2.1
		l-1.3-28.6h-0.9l-1.2,8.5c-3-4.1-7.3-8.7-11.9-8.7c-7,0-14.1,6.4-14.1,18.8c0,6.5,2.6,10.5,5.9,13.5h-30l0-6.7
		c2.3-13.1,5.8-18,13.1-18h0.9v-7.4l-0.2,0c0,0-0.8-0.2-1.3-0.2c0,0,0,0,0,0c-5.4,0.3-10.5,10.3-12.5,20.4v-18.7h-11.3v2.9h8.3v27.7
		h-47.4c0-1-0.1-2-0.1-3v-0.6l30.3,2l0.3,0l0-0.3c0.4-11.3-2.5-21.7-7.6-26.9c-2.2-2.3-4.7-3.5-7.2-3.5c-10.1,0-16.9,12.5-17.9,32.2
		h-17.6l4.8-20.6l7.8-9.1v-1l-8.1,4.7l-10.8-4.6v1l9.9,9.1l-4.8,20.6h-16.1l-4.9-20.6l9-9l0.1-0.1v-1l-11.1,4.6l-9.5-4.7v1l8.2,9.1
		l4.9,20.6h-31.4v-30.5h-14.5v2.9h11.5v27.7h-31.2v-6.6c0-15.6-5.2-25.7-13.3-25.7c-6.5,0-11.3,6-13.8,16.9v-15.3h-13.6v2.9h10.6
		v27.7h-30.8c0-1.7,0.1-3.5,0.1-5.4v-46l14.2-10.4l0.1-0.1v-1l-15.1,3.8l-13.8-3.8v1l12.8,10.4v50.9c0,0.2,0,0.3,0,0.5h-36.7
		c0-0.2,0-0.3,0-0.5v-51.9l14.2-9.4v-1l-15.8,3.8l-14.4-3.8v1l12.8,9.4v52.4c0,0,0,0,0,0h-14.5v8.4h14.8c1.5,21,8.8,32.1,21.5,32.1
		c11.3,0,17.6-10.3,19.3-32.1h31.2v20.1l-13.1,9.5l-0.1,0.1v1l14.7-3.8l12.4,3.8v-1l-10.9-9.6v-20.1h24v20.1l-10.3,9.6v1l11.8-3.8
		l15,3.7l0.3,0.1v-1l-13.8-9.6v-20.1h31.2v20.1l-15.4,9.5l-0.1,0.1v1l17-3.8l17.3,3.7l0.3,0.1v-1l-16.1-9.6v-20.1h33.3l8,33.7l0,0.2
		h0.7l7.9-33.9h19.5c0.8,22,9.7,32.1,18.1,32.1c8,0,12-6.9,15.8-14.6l0-0.1l-0.4-1.1l-0.3,0.5c-4,7.7-8.1,11.3-12.8,11.3
		c-8.7,0-15.4-11.3-17.4-28h46.8v20.1l-11.2,9.6v1l12.7-3.8l13.6,3.8v-1l-12.1-9.6l0-20.1h24l-0.6,31.6h0.9l2-9.5
		c2.9,4.8,7.1,10,13.4,10c7.1,0,14.7-6.3,14.7-20.1c0-5.3-2-9.1-4.6-12h25.7v20.1l-15.4,9.5l-0.1,0.1v1l17-3.8l17.3,3.7l0.3,0.1v-1
		l-16.1-9.6v-20.1h28.8v8.1c0,15.9,3.3,24,9.7,24c4.5,0,7.2-4,8.9-7l0.1-0.1l-0.4-1.1l-0.3,0.5c-1.2,2-3.4,4.4-7.7,4.4
		c-4.5,0-7.2-7.5-7.2-19.9v-8.8h34.5l7.6,32.3l-7.3,29.9h1.2l15-62.2h15.6v-8.4h-13.6L846.5,518.2z M458.5,547.2
		c-1.4,14.3-6.5,27-17.5,27c-10.1,0-16.7-9.9-18.3-27H458.5z M494.5,538.8v-11.9c3.6-13.1,7.7-15.8,13.1-15.8
		c6.7,0,10.9,9.6,10.9,25.2v2.5H494.5z M604.6,547.2l-6,25.5l-6.1-25.5H604.6z M627.6,534.2c0.5-14,5.8-24.1,12.8-24.1
		c6.3,0,11.7,7.1,13.9,18.2c0.2,0.6,0.3,2.5,0.3,3.6L627.6,534.2z M720.5,547.2c4.3,3,9,7.2,9.7,13.5c0.6,5.1-0.5,9.7-3.2,12.7
		c-1.8,2.1-4.3,3.2-7.1,3.2c-8.4,0-14.7-10-15.6-24.9c-0.2-2-0.2-3.5-0.2-4.5H720.5z M838.4,547.2l-5.8,24.5l-5.9-24.5H838.4z"/>
	<polygon class="details-st3" points="856.8,590.4 857.5,590.4 864.5,565.1 860.8,565.1 	"/>
	<path class="details-st3" d="M925.6,525.1c7.2-1.8,12-11.3,12-24.4c0-16.1-7.2-24.7-20.7-24.7h-25.2v0.9l13.1,6.6v86.5l-14.4,6.7v0.9h26.2
		c17.4,0,24.8-8.3,24.8-27.9C941.5,535,933.8,526.5,925.6,525.1z M938,549.9c0,17.7-6.5,26-20.6,26H908v-49.7h7.3
		C926.6,526.3,938,533.6,938,549.9z M934,500.8c0,21.7-10.6,23.5-20.6,23.5H908v-46.1h9.2C927.7,478.1,934,486.6,934,500.8z"/>
	<path class="details-st3" d="M981.6,563.9c-4,7.7-8.1,11.3-12.8,11.3c-10.5,0-18.1-16.6-18.1-39.5v-0.6l30.3,2l0.3,0l0-0.3
		c0.4-11.3-2.5-21.7-7.6-26.9c-2.2-2.3-4.7-3.5-7.2-3.5c-11,0-18.1,14.7-18.1,37.4c0,24.2,9.4,35.3,18.2,35.3c8,0,12-6.9,15.8-14.6
		l0-0.1l-0.4-1.1L981.6,563.9z M950.6,534.2c0.5-14,5.8-24.1,12.8-24.1c6.3,0,11.7,7.1,13.9,18.2c0.2,0.6,0.3,2.5,0.3,3.6
		L950.6,534.2z"/>
	<path class="details-st3" d="M1013.6,506.6C1013.6,506.6,1013.6,506.6,1013.6,506.6c-5.4,0.3-10.5,10.3-12.5,20.4v-18.7h-11.3v2.9h8.3v56.2
		l-11.2,9.6v1l12.7-3.8l13.6,3.8v-1l-12.1-9.6l0-35.2c2.3-13.1,5.8-18,13.1-18h0.9v-7.4l-0.2,0
		C1014.9,506.7,1014.1,506.6,1013.6,506.6z"/>
	<polygon class="details-st3" points="1040.8,476.1 1026.2,476.1 1026.2,478.8 1037.8,478.8 1037.8,567.3 1022.4,576.8 1022.3,576.9 
		1022.3,577.8 1039.3,574.1 1056.6,577.8 1056.9,577.8 1056.9,576.9 1040.8,567.3 	"/>
	<polygon class="details-st3" points="1078.4,508.3 1063.9,508.3 1063.9,511.1 1075.3,511.1 1075.3,567.3 1060,576.8 1059.9,576.9 
		1059.9,577.8 1076.8,574.1 1094.1,577.8 1094.4,577.8 1094.4,576.9 1078.4,567.3 	"/>
	<ellipse class="details-st3" cx="1076.7" cy="479.2" rx="2.8" ry="4.6"/>
	<path class="details-st3" d="M1140.7,532.2c0-15.6-5.2-25.7-13.3-25.7c-6.5,0-11.3,6-13.8,16.9v-15.3H1100v2.9h10.6v56.2l-13.1,9.5
		l-0.1,0.1v1l14.7-3.8l12.4,3.8v-1l-10.9-9.6v-40.4c3.7-13.1,7.7-15.8,13.1-15.8c6.7,0,10.9,9.6,10.9,25.2v31l-10.3,9.6v1l11.8-3.8
		l15,3.7l0.3,0.1v-1l-13.8-9.6V532.2z"/>
</g>
<rect x="473.2" y="236.4" class="st4" width="3.1" height="0"/>
</svg>
