<?xml version="1.0" encoding="utf-8"?>
<!-- Generator: Adobe Illustrator 25.2.1, SVG Export Plug-In . SVG Version: 6.00 Build 0)  -->
<svg version="1.1" id="Layer_1" xmlns="http://www.w3.org/2000/svg" xmlns:xlink="http://www.w3.org/1999/xlink" x="0px" y="0px"
	 viewBox="0 0 1183 795" style="enable-background:new 0 0 1183 795;" xml:space="preserve">
<style type="text/css">
	.st0{fill:#FFFFFF;}
	.st1{fill:#C9CA9E;}
	.st2{fill:#FF0000;}
</style>
<polygon class="st0" points="55.6,145.8 55.6,144.9 38.7,135.4 38.7,92.9 54.7,92.9 60,117.2 60.8,116.5 58.5,91.9 60.7,71.6 
	60,70.6 54.7,90.9 38.7,90.9 38.7,46.1 62,46.1 65.2,80.8 66.1,80.8 66.1,44.1 23.7,44.1 23.7,45 35.6,51.6 35.6,135.5 22.5,144.9 
	22.5,145.8 37.3,142.1 "/>
<polygon class="st0" points="106.2,145.8 106.2,144.9 90.2,135.3 90.2,44.1 75.6,44.1 75.6,46.8 87.2,46.8 87.2,135.3 71.7,144.9 
	71.7,145.8 88.7,142.1 "/>
<path class="st0" d="M130.6,147.3c10.2,0,18.4-17.1,18.4-38.1c0-9.1-1.6-17.6-4.6-23.9c-3.3-7-7.9-10.7-13.4-10.7
	c-11.5,0-19.2,15-19.2,37.4C111.9,132.8,119.6,147.3,130.6,147.3z M114.2,104.8c0-18.4,7.2-26.8,13.9-26.8
	c11.1,0,18.3,15.2,18.3,38.8c0,13.1-5,26.7-13.3,26.7C122.2,143.4,114.2,127.2,114.2,104.8z"/>
<path class="st0" d="M158.5,116.2l0,0.1c-0.9,2.3-1.8,7.3-1.8,11.5c0,9.7,3.5,19.4,11.4,19.4c6.5,0,12.8-5.2,15.6-12.9v13.1
	l15.2-10.8v-0.9l-12.2,2.9v-36.9c0-17.3-4.6-27.2-12.6-27.2c-8.4,0-13,9.2-16.1,17.2l0,0.1l0.6,1.3l0.2-0.6
	c3.9-9.9,8.4-14.3,14.4-14.3c6.4,0,10.5,9.3,10.5,23.7v3.7L158.5,116.2z M170.7,142.2c-5.1,0-12.5-6.4-12.5-17.9
	c0-0.9,0-1.8,0.1-2.5l25.5-15V132C181.5,137.9,176,142.2,170.7,142.2z"/>
<path class="st0" d="M210.5,123.3c0,15.9,3.3,24,9.7,24c4.5,0,7.2-4,8.9-7l0.1-0.1l-0.4-1.1l-0.3,0.5c-1.2,2-3.4,4.4-7.7,4.4
	c-4.5,0-7.2-7.5-7.2-19.9V80.8l11.4,1.3v-5.9l-11.4,1V59.6h-3v18l-9.7,0.8v1l9.7,1.2V123.3z"/>
<path class="st0" d="M250.7,51.8c1.7,0,2.8-1.9,2.8-4.6s-1.1-4.6-2.8-4.6c-1.6,0-2.8,2-2.8,4.6S249.1,51.8,250.7,51.8z"/>
<polygon class="st0" points="268.3,145.8 268.3,144.9 252.3,135.3 252.3,76.3 237.8,76.3 237.8,79.1 249.3,79.1 249.3,135.3 
	233.8,144.9 233.8,145.8 250.8,142.1 "/>
<path class="st0" d="M298.5,145.9v-1l-10.9-9.6V94.9c3.6-13.1,7.7-15.8,13.1-15.8c6.7,0,10.9,9.6,10.9,25.2v31l-10.3,9.6v1l11.8-3.8
	l15.3,3.8v-1l-13.8-9.6v-35c0-15.6-5.2-25.7-13.3-25.7c-6.5,0-11.3,6-13.8,16.9V76.3H274v2.9h10.6v56.2l-13.1,9.5l-0.1,0.1v1
	l14.7-3.8L298.5,145.9z"/>
<path class="st0" d="M350.4,136c0.1,0,0.3,0,0.5,0l-13.7,8.9v0.9h17.7c6.6,0,10.7,5,10.7,13c0,8.7-6.6,16.9-13.6,16.9
	c-5.4,0-10.5-2.2-15.4-6.8l-0.4-0.4v1.5l0.1,0.1c0.5,0.4,1,0.9,1.5,1.3c3.5,3.2,7.2,6.5,15.2,6.5c9.3,0,16.1-8.7,16.1-20.6
	c0-10.4-6.6-16.1-12.9-16.1h-10.3l9.8-6.8c6.8-4.7,11-16,11-29.5c0-10.7-3.7-21-9.3-25.8h8.9v-2.9h-15.9
	c-10.4,0-17.4,12.4-17.4,30.9C333,125.2,341.9,136,350.4,136z M336,100.7c0-13,5-22.5,11.9-22.5c7.8,0,16.1,13.2,16.1,32.9
	c0,9.5-4.6,22.8-12.2,22.8C343.3,134,336,118.5,336,100.7z"/>
<path class="st0" d="M548.2,51.8c1.7,0,2.8-1.9,2.8-4.6s-1.1-4.6-2.8-4.6c-1.6,0-2.8,2-2.8,4.6S546.6,51.8,548.2,51.8z"/>
<path class="st0" d="M749.2,51.8c1.7,0,2.8-1.9,2.8-4.6s-1.1-4.6-2.8-4.6c-1.6,0-2.8,2-2.8,4.6S747.6,51.8,749.2,51.8z"/>
<path class="st0" d="M798.2,140.1l-0.4-1.1l-0.3,0.5c-1.2,2-3.4,4.4-7.7,4.4c-4.5,0-7.2-7.5-7.2-19.9v-8.8h34.5l7.6,32.3l-7.3,29.9
	h1.2l15-62.2h15.6v-8.4h-13.6l4.9-20.6l7.8-9l0.1-0.1v-1l-8.2,4.7l-9.7-4.7v1l8.8,9.1l-4.9,20.6h-15.8l-5-20.8l8.1-8.9v-1l-10,4.7
	l-9.7-4.7v1l8.2,8.9l4.9,20.8h-32.5v-26l11.4,1.3v-5.9l-11.4,1V59.6h-3v18l-9.7,0.8v1l9.7,1.2v26.2h-28.8V76.3h-14.5v2.9h11.5v27.7
	h-37.4c-5-3.1-11.2-7.4-12.2-13.7c-0.7-4.6,0.5-9.4,3.1-12.4c1.9-2.2,4.5-3.4,7.4-3.4c6.4,0,12.8,9.1,14.1,20l0.7,6.1h2.1l-1.3-28.6
	h-0.9l-1.2,8.5c-3-4.1-7.3-8.7-11.9-8.7c-7,0-14.1,6.4-14.1,18.8c0,6.5,2.6,10.5,5.9,13.5h-30l0-6.7c2.3-13.1,5.8-18,13.1-18h0.9
	v-7.4l-0.2,0c0,0-0.8-0.2-1.3-0.2c0,0,0,0,0,0c-5.4,0.3-10.5,10.3-12.5,20.4V76.3h-11.3v2.9h8.3v27.7h-47.4c0-1-0.1-2-0.1-3v-0.6
	l30.5,2l0-0.3c0.4-11.3-2.5-21.7-7.6-26.9c-2.2-2.3-4.7-3.5-7.2-3.5c-10.1,0-16.9,12.5-17.9,32.2h-17.6l4.8-20.6l7.8-9.1v-1
	l-8.1,4.7l-10.8-4.6v1l9.9,9.1l-4.8,20.6h-16.1l-4.9-20.6l9.1-9.1v-1l-11.1,4.6l-9.5-4.7v1l8.2,9.1l4.9,20.6h-31.4V76.3h-14.5v2.9
	h11.5v27.7h-31.2v-6.6c0-15.6-5.2-25.7-13.3-25.7c-6.5,0-11.3,6-13.8,16.9V76.3h-13.6v2.9h10.6v27.7h-30.8c0-1.7,0.1-3.5,0.1-5.4
	v-46l14.2-10.4L469,45v-1l-15.1,3.8L440.1,44v1L453,55.4v50.9c0,0.2,0,0.3,0,0.5h-36.7c0-0.2,0-0.3,0-0.5V54.4l14.2-9.4v-1
	l-15.8,3.8L400.3,44v1l12.8,9.4v52.4c0,0,0,0,0,0h-14.5v8.4h14.8c1.5,21,8.8,32.1,21.5,32.1c11.3,0,17.6-10.3,19.3-32.1h31.2v20.1
	l-13.1,9.5l-0.1,0.1v1l14.7-3.8l12.4,3.8v-1l-10.9-9.6v-20.1h24v20.1l-10.3,9.6v1l11.8-3.8l15.3,3.8v-1l-13.8-9.6v-20.1h31.2v20.1
	l-15.5,9.6v1l17-3.8l17.6,3.8v-1l-16.1-9.6v-20.1h33.3l8,33.7l0,0.2h0.7l7.9-33.9h19.5c0.8,22,9.7,32.1,18.1,32.1
	c8,0,12-6.9,15.8-14.6l0-0.1l-0.4-1.1l-0.3,0.5c-4,7.7-8.1,11.3-12.8,11.3c-8.7,0-15.4-11.3-17.4-28h46.8v20.1l-11.1,9.5l-0.1,0.1v1
	l12.7-3.8l13.6,3.8v-1l-12.1-9.6l0-20.1h24l-0.6,31.6h0.9l2-9.5c2.9,4.8,7.1,10,13.4,10c7.1,0,14.7-6.3,14.7-20.1
	c0-5.3-2-9.1-4.6-12h25.7v20.1l-15.5,9.6v1l17-3.8l17.6,3.8v-1l-16.1-9.6v-20.1h28.8v8.1c0,15.9,3.3,24,9.7,24c4.5,0,7.2-4,8.9-7
	L798.2,140.1z M832.4,115.2l-5.8,24.5l-5.9-24.5H832.4z M452.5,115.2c-1.4,14.3-6.5,27-17.5,27c-10.1,0-16.7-9.9-18.3-27H452.5z
	 M488.5,106.8V94.9c3.6-13.1,7.7-15.8,13.1-15.8c6.7,0,10.9,9.6,10.9,25.2v2.5H488.5z M598.6,115.2l-6,25.5l-6.1-25.5H598.6z
	 M621.6,102.2c0.5-14,5.8-24.1,12.8-24.1c6.3,0,11.7,7.1,13.9,18.2c0.2,0.6,0.3,2.5,0.3,3.6L621.6,102.2z M714.5,115.2
	c4.3,3,9,7.2,9.7,13.5c0.6,5.1-0.5,9.7-3.2,12.7c-1.8,2.1-4.3,3.2-7.1,3.2c-8.4,0-14.7-10-15.6-24.9c-0.2-2-0.2-3.5-0.2-4.5H714.5z"
	/>
<polygon class="st0" points="858.5,133.1 854.8,133.1 850.8,158.4 851.5,158.4 "/>
<path class="st0" d="M919.6,93.1c7.2-1.8,12-11.3,12-24.4c0-16.1-7.2-24.7-20.7-24.7h-25.2V45l13.1,6.6v86.5l-14.4,6.7v0.9h26.2
	c17.4,0,24.8-8.3,24.8-27.9C935.5,103,927.8,94.5,919.6,93.1z M932,117.9c0,17.7-6.5,26-20.6,26H902V94.3h7.3
	C920.6,94.3,932,101.6,932,117.9z M928,68.8c0,21.7-10.6,23.5-20.6,23.5H902V46.1h9.2C921.7,46.1,928,54.6,928,68.8z"/>
<path class="st0" d="M975.6,131.9c-4,7.7-8.1,11.3-12.8,11.3c-10.5,0-18.1-16.6-18.1-39.5v-0.6l30.5,2l0-0.3
	c0.4-11.3-2.5-21.7-7.6-26.9c-2.2-2.3-4.7-3.5-7.2-3.5c-11,0-18.1,14.7-18.1,37.4c0,24.2,9.4,35.3,18.2,35.3c8,0,12-6.9,15.8-14.6
	l0-0.1l-0.4-1.1L975.6,131.9z M944.6,102.2c0.5-14,5.8-24.1,12.8-24.1c6.3,0,11.7,7.1,13.9,18.2c0.2,0.6,0.3,2.5,0.3,3.6
	L944.6,102.2z"/>
<path class="st0" d="M1007.6,74.6C1007.6,74.6,1007.6,74.6,1007.6,74.6c-5.4,0.3-10.5,10.3-12.5,20.4V76.3h-11.3v2.9h8.3v56.2
	l-11.1,9.5l-0.1,0.1v1l12.7-3.8l13.6,3.8v-1l-12.1-9.6l0-35.2c2.3-13.1,5.8-18,13.1-18h0.9v-7.4l-0.2,0
	C1008.9,74.7,1008.1,74.6,1007.6,74.6z"/>
<polygon class="st0" points="1034.8,44.1 1020.2,44.1 1020.2,46.8 1031.8,46.8 1031.8,135.3 1016.3,144.9 1016.3,145.8 
	1033.3,142.1 1050.9,145.8 1050.9,144.9 1034.8,135.3 "/>
<polygon class="st0" points="1072.4,76.3 1057.9,76.3 1057.9,79.1 1069.3,79.1 1069.3,135.3 1053.9,144.9 1053.9,145.8 
	1070.8,142.1 1088.4,145.8 1088.4,144.9 1072.4,135.3 "/>
<path class="st0" d="M1070.7,51.8c1.7,0,2.8-1.9,2.8-4.6s-1.1-4.6-2.8-4.6c-1.6,0-2.8,2-2.8,4.6S1069.2,51.8,1070.7,51.8z"/>
<path class="st0" d="M1134.7,135.3v-35c0-15.6-5.2-25.7-13.3-25.7c-6.5,0-11.3,6-13.8,16.9V76.3H1094v2.9h10.6v56.2l-13.2,9.6v1
	l14.7-3.8l12.4,3.8v-1l-10.9-9.6V94.9c3.7-13.1,7.7-15.8,13.1-15.8c6.7,0,10.9,9.6,10.9,25.2v31l-10.3,9.6v1l11.8-3.8l15.3,3.8v-1
	L1134.7,135.3z"/>
<path class="st0" d="M46.3,190.1c-12.9,0-21.5,17-21.5,42.3c0,23.3,8.6,39.6,21,39.6c11.4,0,20.7-19.1,20.7-42.6
	C66.4,209.8,59.5,190.1,46.3,190.1z M64,236.5c0,15.3-6.1,31.8-16,31.8c-12.5,0-20.9-16.9-20.9-42.1c0-19.8,6.6-32.6,16.9-32.6
	C56.3,193.6,64,210,64,236.5z"/>
<path class="st0" d="M76,251.8c0,12.4,3.6,20.1,9.4,20.1c5,0,8.7-4.5,10.7-12.8v11.7l10.8-6.9v-0.8l-8.3,1.4v-48.2h-8.3v2.3h5.8V256
	c-2.8,10.2-6,12.3-10.2,12.3c-4.6,0-7.5-7-7.5-17.8v-34.2h-8.1v2.3H76V251.8z"/>
<path class="st0" d="M117.6,253.2c0,12.5,2.6,18.8,7.6,18.8c3.5,0,5.7-3.2,7-5.5l0.1-0.1l-0.4-1l-0.3,0.5c-0.9,1.6-2.7,3.4-5.9,3.4
	c-3.5,0-5.6-5.8-5.6-15.5V220l8.9,1.1v-4.8l-8.9,0.8v-13.8h-2.5v14.1l-7.6,0.7v0.8l7.6,0.9V253.2z"/>
<path class="st0" d="M153.9,215c-10.2,0-15.9,14.9-16.4,29.7c-0.3,10.2,2.5,20.1,7,24.6c1.7,1.7,3.4,2.6,5.3,2.6
	c6.4,0,10.1-6.5,11.6-9.9v8.9l11.1-7.7v-0.8l-8.6,2.1v-73.3h-9.3v2.2h6.8V218C159.1,216,156.5,215,153.9,215z M152.1,268.4
	c-7.6,0-12.4-10.8-12.4-28.2c0-13,5-22.5,11.9-22.5c3.8,0,7.5,2.4,9.7,6.5V260C160.1,263.1,157.2,268.4,152.1,268.4z"/>
<path class="st0" d="M177.6,244.4c0,16.2,6,27.6,14.7,27.6c8,0,14.5-13.4,14.5-29.8c0-13-4.4-27.1-14.1-27.1
	C183.7,215,177.6,226.8,177.6,244.4z M204.6,248c0,10.2-3.9,20.8-10.3,20.8c-8.5,0-14.7-12.7-14.7-30.1c0-14.4,5.6-20.9,10.8-20.9
	C199,217.8,204.6,229.7,204.6,248z"/>
<path class="st0" d="M213.1,244.4c0,16.2,6,27.6,14.7,27.6c8,0,14.5-13.4,14.5-29.8c0-13-4.4-27.1-14.1-27.1
	C219.2,215,213.1,226.8,213.1,244.4z M240.1,248c0,10.2-3.9,20.8-10.3,20.8c-8.5,0-14.7-12.7-14.7-30.1c0-14.4,5.6-20.9,10.8-20.9
	C234.5,217.8,240.1,229.7,240.1,248z"/>
<path class="st0" d="M267.5,215c-4.2,0.2-8.1,7.7-9.7,15.4v-14.1h-8.9v2.3h6.5v43.8l-8.7,7.4l-0.1,0.1v0.8l10-3l10.7,3V270l-9.4-7.5
	l0-27.4c1.8-10.2,4.5-14,10.2-14h0.8v-5.8l-0.2,0C268.5,215.2,267.9,215,267.5,215C267.5,215,267.5,215,267.5,215z"/>
<polygon class="st0" points="327.3,192.9 329.7,218.6 330.5,218.6 330.5,191.2 293.6,191.2 293.6,192 304.1,197.2 304.1,264.7 
	293.6,270 293.6,270.8 331.8,270.8 331.8,238.7 331,238.7 328.3,269.2 306.7,269.2 306.7,229.6 319.4,229.6 323.5,248.5 
	324.2,247.9 322.4,228.6 324.2,212.7 323.5,211.8 319.4,227.9 306.7,227.9 306.7,192.9 "/>
<polygon class="st0" points="354.7,270.9 363,267.9 371.9,270.9 371.9,270 363.5,263.1 353.8,240.7 359.9,224.2 368,217.1 
	368,216.2 359.8,219.9 353.1,216.2 353.1,217.1 358.9,224.2 353.2,239.3 346.5,223.9 351.8,217.1 351.8,216.2 344.9,219.9 
	336.2,216.2 336.2,217.1 343.7,224 351.9,242.8 344.4,262.6 335.2,269.9 335.1,270 335.1,270.9 343.9,267.9 352.9,270.9 352.9,270 
	345.6,262.6 352.5,244.1 360.8,263.2 354.7,270 "/>
<path class="st0" d="M394.9,270.9V270l-8.5-7.5V231c2.8-10.2,6-12.3,10.2-12.3c5.2,0,8.5,7.5,8.5,19.6v24.2l-8,7.4L397,270v0.8
	l9.3-3l12,3V270l-10.8-7.5v-27.3c0-12.2-4.1-20.1-10.4-20.1c-5,0-8.7,4.5-10.7,12.8v-36.6h-10.8v2.3h8.3v68.9l-10.2,7.4l-0.1,0.1
	v0.8l11.6-3L394.9,270.9z"/>
<polygon class="st0" points="420.7,269.9 420.5,270 420.5,270.8 433.9,267.9 447.3,270.8 447.6,270.8 447.6,270 435.1,262.5 
	435.1,216.4 423.7,216.4 423.7,218.7 432.6,218.7 432.6,262.5 "/>
<path class="st0" d="M436,193.7c0-2.2-0.9-3.7-2.2-3.7c-1.2,0-2.2,1.6-2.2,3.7c0,2.1,1,3.7,2.2,3.7C435.1,197.4,436,195.9,436,193.7
	z"/>
<path class="st0" d="M450.3,191.2v2.2h4v73.4l0.1,0.1c3.5,3.2,6.2,5.1,9.9,5.1c9,0,15.9-12.4,16.4-29.6c0.3-10.2-2.5-20.2-7-24.8
	c-1.6-1.7-3.4-2.6-5.3-2.6c-6.4,0-10.1,6.6-11.6,10v-33.8H450.3z M465.9,218.7c7.6,0,12.4,10.8,12.4,28.2c0,13-5,22.5-11.9,22.5
	c-3.8,0-7.5-2.4-9.7-6.5v-35.7C458,224,460.9,218.7,465.9,218.7z"/>
<path class="st0" d="M501.1,193.7c0-2.2-0.9-3.7-2.2-3.7c-1.2,0-2.2,1.6-2.2,3.7c0,2.1,1,3.7,2.2,3.7
	C500.3,197.4,501.1,195.9,501.1,193.7z"/>
<polygon class="st0" points="485.8,269.9 485.7,270 485.7,270.8 499,267.9 512.5,270.8 512.8,270.8 512.8,270 500.2,262.5 
	500.2,216.4 488.8,216.4 488.8,218.7 497.8,218.7 497.8,262.5 "/>
<path class="st0" d="M522.6,203.3v14.1l-7.6,0.7v0.8l7.6,0.9v33.3c0,12.5,2.6,18.8,7.6,18.8c3.6,0,5.7-3.2,7-5.5l0.1-0.1l-0.4-1
	l-0.3,0.5c-0.9,1.6-2.7,3.4-5.9,3.4c-3.5,0-5.6-5.8-5.6-15.5V220l8.9,1.1v-4.8l-8.9,0.8v-13.8H522.6z"/>
<polygon class="st0" points="540.9,269.9 540.8,270 540.8,270.8 554.1,267.9 567.6,270.8 567.9,270.8 567.9,270 555.3,262.5 
	555.3,216.4 543.9,216.4 543.9,218.7 552.9,218.7 552.9,262.5 "/>
<path class="st0" d="M556.2,193.7c0-2.2-0.9-3.7-2.2-3.7c-1.2,0-2.2,1.6-2.2,3.7c0,2.1,1,3.7,2.2,3.7
	C555.3,197.4,556.2,195.9,556.2,193.7z"/>
<path class="st0" d="M601.3,242.1c0-13-4.4-27.1-14.1-27.1c-9,0-15.1,11.8-15.1,29.3c0,16.2,6,27.6,14.7,27.6
	C594.8,272,601.3,258.6,601.3,242.1z M599.1,248c0,10.2-3.9,20.8-10.3,20.8c-8.5,0-14.7-12.7-14.7-30.1c0-14.4,5.6-20.9,10.8-20.9
	C593.5,217.8,599.1,229.7,599.1,248z"/>
<path class="st0" d="M605.7,269.9l-0.1,0.1v0.8l11.6-3l9.8,3V270l-8.5-7.5V231c2.8-10.2,6-12.3,10.2-12.3c5.2,0,8.5,7.5,8.5,19.6
	v24.2l-8,7.4L629,270v0.8l9.3-3l12,3V270l-10.8-7.5v-27.3c0-12.2-4.1-20.1-10.4-20.1c-5,0-8.7,4.5-10.7,12.8v-11.5h-10.8v2.3h8.3
	v43.8L605.7,269.9z"/>
<rect x="21.6" y="280.4" class="st0" width="629" height="6.6"/>
<path class="st0" d="M55.2,354.4c0-19.5-5.1-39.3-14.8-39.3c-9.4,0-15.7,17-15.7,42.3C24.7,380.7,31,397,40,397
	C48.4,397,55.2,377.8,55.2,354.4z M27,351.5c0-20.7,4.4-32.6,12-32.6c8.8,0,13.8,15.4,13.8,42.4c0,15.3-3.6,31.7-11.5,31.7
	C32.5,392.9,27,377,27,351.5z"/>
<path class="st0" d="M87.7,316.2H60.2v29.3h0.9l2-25.1h21.9c-1,3.6-2.3,7.9-3.6,12.5c-3.1,10.8-6.6,23.1-7.8,27.3
	c-2.6,8.6-7.1,23-11.3,35.2l-0.1,0.3h3.1l22.4-79.2L87.7,316.2z"/>
<path class="st0" d="M95.1,353.6c0-2.2-0.9-3.7-2.2-3.7c-1.2,0-2.2,1.6-2.2,3.7c0,2.1,1,3.7,2.2,3.7
	C94.2,357.2,95.1,355.8,95.1,353.6z"/>
<path class="st0" d="M116.6,315.1c-9.4,0-15.7,17-15.7,42.3c0,23.3,6.3,39.6,15.3,39.6c8.4,0,15.1-19.1,15.1-42.6
	C131.4,334.8,126.3,315.1,116.6,315.1z M129,361.2c0,15.3-3.6,31.7-11.5,31.7c-8.8,0-14.3-15.9-14.3-41.4c0-20.7,4.4-32.6,12-32.6
	C124,318.8,129,334.3,129,361.2z"/>
<path class="st0" d="M148.8,394.2c-7.7,0-11.1-8.7-12.5-13.9l-0.1-0.5l-0.7,0.9l0,0.1c1.9,7.5,5.2,16.1,13.2,16.1
	c9.6,0,16.3-11.5,16.3-28c0-12.5-4.8-25.9-13.6-25.9c-6.1,0-10.3,3.9-12.7,12l2.2-34.9h18.4l1.9,19.2h0.8v-23.1h-22.4l-2.8,47.3
	l0,0.3h0.7l0-0.2c1.7-7.6,4.9-17.7,13.1-17.7c8.2,0,11.8,13.5,11.8,23C162.3,383.8,156.7,394.2,148.8,394.2z"/>
<path class="st0" d="M218.9,356.5c0.2-0.7,0.4-1.7,0.4-2.6c0-0.5-0.4-0.9-0.8-0.9h-27.3c-0.3,0-0.7,0.3-0.9,0.8
	c-0.3,0.8-0.4,2.2-0.4,2.6c0,0.8,0.8,1,1.5,1l26.4-0.3C218.2,357.2,218.7,357.1,218.9,356.5z"/>
<path class="st0" d="M260.1,397c8.4,0,15.1-19.1,15.1-42.6c0-19.5-5.1-39.3-14.8-39.3c-9.4,0-15.7,17-15.7,42.3
	C244.8,380.7,251,397,260.1,397z M247,351.5c0-20.7,4.4-32.6,12-32.6c8.8,0,13.8,15.4,13.8,42.4c0,15.3-3.6,31.7-11.5,31.7
	C252.5,392.9,247,377,247,351.5z"/>
<path class="st0" d="M311,371.3c0-11.7-4.9-24.2-14.1-24.2c-5.2,0-10.6,4.1-12.8,13.2c2.2-26,10.4-40.5,25-44.2l0.2,0v-0.9l-0.3,0
	c-24.7,4.2-27.4,38.4-27.4,52.8c0,16.8,6.3,28.9,14.9,28.9C304.9,397,311,386.2,311,371.3z M308.8,376.6c0,8.5-3.6,17.6-10.2,17.6
	c-8.6,0-14.6-12.8-14.6-24.2c0-11.2,4.7-19.6,11-19.6C303.8,350.4,308.8,359.9,308.8,376.6z"/>
<path class="st0" d="M321.2,353.6c0-2.2-0.9-3.7-2.2-3.7c-1.2,0-2.2,1.6-2.2,3.7c0,2.1,1,3.7,2.2,3.7
	C320.3,357.2,321.2,355.8,321.2,353.6z"/>
<path class="st0" d="M342.7,315.1c-9.4,0-15.7,17-15.7,42.3c0,23.3,6.3,39.6,15.3,39.6c8.4,0,15.1-19.1,15.1-42.6
	C357.5,334.8,352.4,315.1,342.7,315.1z M355.1,361.2c0,15.3-3.6,31.7-11.5,31.7c-8.8,0-14.3-15.9-14.3-41.4c0-20.7,4.4-32.6,12-32.6
	C350.1,318.8,355.1,334.3,355.1,361.2z"/>
<path class="st0" d="M391.4,316.1l0.2,0v-0.9l-0.3,0c-24.7,4.2-27.4,38.4-27.4,52.8c0,16.8,6.3,28.9,14.9,28.9
	c8.4,0,14.5-10.8,14.5-25.6c0-11.7-4.9-24.2-14.1-24.2c-5.2,0-10.6,4.1-12.8,13.2C368.6,334.3,376.8,319.8,391.4,316.1z M366.4,370
	c0-11.2,4.7-19.6,11-19.6c8.7,0,13.7,9.5,13.7,26.2c0,8.5-3.6,17.6-10.2,17.6C372.4,394.2,366.4,381.5,366.4,370z"/>
<path class="st0" d="M403.5,353.6c0-2.2-0.9-3.7-2.2-3.7c-1.2,0-2.2,1.6-2.2,3.7c0,2.1,1,3.7,2.2,3.7
	C402.6,357.2,403.5,355.8,403.5,353.6z"/>
<path class="st0" d="M437.6,368.2h-0.9l-2.3,23.7h-21.7l14.2-24.5c6.9-12,9.9-20.8,9.9-29.2c0-13.8-5.2-23.1-12.9-23.1
	c-6.2,0-10.1,7.2-11.8,14l-1.4-12.8h-0.9v35.6h1.9v-0.2c0-16.8,3.6-34.9,11.6-34.9c5.8,0,10.4,9.4,10.4,21.3
	c0,9.6-2.8,18.9-8.9,29.5L409.1,395l0,0.1v0.7h28.5V368.2z"/>
<polygon class="st0" points="458.1,315.1 457.2,315.1 441,359.3 441.7,359.9 455.6,326.9 455.6,387.9 441.4,394.9 441.3,395 
	441.3,395.8 456.8,392.9 470.3,395.8 470.6,395.8 470.6,395 458.1,387.9 "/>
<path class="st0" d="M515.5,307.8c-0.6,0-1.7,1.2-1.8,1.8l0,0c-2.4,10.8-4.8,22-7.1,32.9c-4.3,20.1-8.8,40.8-13.3,60.6
	c-0.3,1.5-0.2,2,0,2.2c0.1,0.2,0.4,0.2,0.4,0.2c0.7,0,1.5-1.2,1.8-2.3c1.2-4.6,6.8-30.3,12.2-55.2c2.8-13.1,5.8-26.7,8.1-37.1
	c0.5-2.1,0.4-2.6,0.2-2.9C515.8,307.9,515.7,307.8,515.5,307.8z"/>
<polygon class="st0" points="539.3,394.9 539.2,395 539.2,395.8 554.7,392.9 568.2,395.8 568.5,395.8 568.5,395 555.9,387.9 
	555.9,315.1 555.1,315.1 538.9,359.3 539.6,359.9 553.5,326.9 553.5,387.9 "/>
<path class="st0" d="M599.5,316.1l0.2,0v-0.9l-0.3,0c-24.7,4.2-27.4,38.4-27.4,52.8c0,16.8,6.3,28.9,14.9,28.9
	c8.4,0,14.5-10.8,14.5-25.6c0-11.7-4.9-24.2-14.1-24.2c-5.2,0-10.6,4.1-12.8,13.2C576.7,334.3,584.9,319.8,599.5,316.1z M574.5,370
	c0-11.2,4.7-19.6,11-19.6c8.7,0,13.7,9.5,13.7,26.2c0,8.5-3.6,17.6-10.2,17.6C580.5,394.2,574.5,381.5,574.5,370z"/>
<ellipse class="st0" cx="609.3" cy="393.3" rx="2.2" ry="3.7"/>
<path class="st0" d="M617.5,357.4c0,23.3,6.3,39.6,15.3,39.6c8.4,0,15.1-19.1,15.1-42.6c0-19.5-5.1-39.3-14.8-39.3
	C623.8,315.1,617.5,332.1,617.5,357.4z M645.5,361.2c0,15.3-3.6,31.7-11.5,31.7c-8.8,0-14.3-15.9-14.3-41.4c0-20.7,4.4-32.6,12-32.6
	C640.5,318.8,645.5,334.3,645.5,361.2z"/>
<path class="st0" d="M669.8,315.1c-9.4,0-15.7,17-15.7,42.3c0,23.3,6.3,39.6,15.3,39.6c8.4,0,15.1-19.1,15.1-42.6
	C684.5,334.8,679.5,315.1,669.8,315.1z M682.1,361.2c0,15.3-3.6,31.7-11.5,31.7c-8.8,0-14.3-15.9-14.3-41.4c0-20.7,4.4-32.6,12-32.6
	C677.1,318.8,682.1,334.3,682.1,361.2z"/>
<path class="st0" d="M738.5,353.1h-27.3c-0.3,0-0.7,0.3-0.9,0.8c-0.3,0.8-0.4,2.2-0.4,2.6c0,0.8,0.8,1,1.5,1l26.4-0.3
	c0.2,0,0.8-0.2,1-0.7c0.2-0.7,0.4-1.7,0.4-2.6C739.3,353.4,738.9,353.1,738.5,353.1z"/>
<path class="st0" d="M789.8,391.8h-21.7l14.2-24.5c6.9-12,9.9-20.8,9.9-29.2c0-13.8-5.2-23.1-12.9-23.1c-6.2,0-10.1,7.2-11.8,14
	l-1.4-12.8h-0.9v35.6h1.9v-0.2c0-16.8,3.6-34.9,11.6-34.9c5.8,0,10.4,9.4,10.4,21.3c0,9.6-2.8,18.9-8.9,29.5L764.5,395l0,0.1v0.7
	H793v-27.6h-0.9L789.8,391.8z"/>
<polygon class="st0" points="813.4,315.1 812.6,315.1 796.4,359.3 797.1,359.9 810.9,326.9 810.9,387.9 796.8,394.9 796.7,395 
	796.7,395.8 812.2,392.9 826,395.8 826,395 813.4,387.9 "/>
<path class="st0" d="M831.2,389.6c-1.2,0-2.2,1.6-2.2,3.7s1,3.7,2.2,3.7c1.3,0,2.2-1.5,2.2-3.7S832.5,389.6,831.2,389.6z"/>
<path class="st0" d="M855,315.1c-9.4,0-15.7,17-15.7,42.3c0,23.3,6.3,39.6,15.3,39.6c8.4,0,15.1-19.1,15.1-42.6
	C869.7,334.8,864.7,315.1,855,315.1z M867.3,361.2c0,15.3-3.6,31.7-11.5,31.7c-8.8,0-14.3-15.9-14.3-41.4c0-20.7,4.4-32.6,12-32.6
	C862.3,318.8,867.3,334.3,867.3,361.2z"/>
<path class="st0" d="M891.6,315.1c-9.4,0-15.7,17-15.7,42.3c0,23.3,6.3,39.6,15.3,39.6c8.4,0,15.1-19.1,15.1-42.6
	C906.4,334.8,901.3,315.1,891.6,315.1z M904,361.2c0,15.3-3.6,31.7-11.5,31.7c-8.8,0-14.3-15.9-14.3-41.4c0-20.7,4.4-32.6,12-32.6
	C898.9,318.8,904,334.3,904,361.2z"/>
<path class="st0" d="M46.3,425.1c-12.9,0-21.5,17-21.5,42.3c0,23.3,8.6,39.6,21,39.6c11.4,0,20.7-19.1,20.7-42.6
	C66.4,444.8,59.5,425.1,46.3,425.1z M64,471.5c0,15.3-6.1,31.8-16,31.8c-12.5,0-20.9-16.9-20.9-42.1c0-19.8,6.6-32.6,16.9-32.6
	C56.3,428.6,64,445,64,471.5z"/>
<path class="st0" d="M89.2,507c9,0,15.9-12.4,16.4-29.6c0.3-10.2-2.5-20.2-7-24.8c-1.6-1.7-3.4-2.6-5.3-2.6c-6.4,0-10.1,6.6-11.6,10
	v-8.7H70.6v2.3h8.6v68.5l-8.5,7.4l-0.1,0.1v0.8l10.1-3l13.9,2.9v-0.8l-12.9-7.5v-18.1C83.3,505.5,85.9,507,89.2,507z M91,453.7
	c7.6,0,12.4,10.8,12.4,28.2c0,13-5,22.5-11.9,22.5c-3.8,0-7.5-2.4-9.7-6.5v-35.7C83,459,85.9,453.7,91,453.7z"/>
<path class="st0" d="M126.1,450c-8.6,0-14.2,11.5-14.2,29.3c0,19,7.4,27.6,14.2,27.6c6.3,0,9.4-5.4,12.4-11.4l0-0.1l-0.4-1l-0.3,0.5
	c-3.1,6-6.3,8.8-10,8.8c-8.2,0-14.1-12.9-14.1-30.8v-0.4l23.6,1.6l0.3,0l0-0.3c0.3-8.9-2-16.9-6-21.1C130,451,128.1,450,126.1,450z
	 M123.8,452.9c4.9,0,9.1,5.5,10.8,14.2c0.1,0.4,0.2,1.8,0.2,2.7l-20.9,1.8C114.2,460.7,118.4,452.9,123.8,452.9z"/>
<path class="st0" d="M165.6,504.9L165.6,504.9l-0.1,0.9l9.3-3l12,3V505l-10.8-7.5v-27.3c0-12.2-4.1-20.1-10.4-20.1
	c-5,0-8.7,4.5-10.7,12.8v-11.5h-10.8v2.3h8.3v43.8l-10.2,7.4l-0.1,0.1v0.8l11.6-3l9.8,3V505l-8.5-7.5V466c2.8-10.2,6-12.3,10.2-12.3
	c5.2,0,8.5,7.5,8.5,19.6v24.2L165.6,504.9z"/>
<path class="st0" d="M199.2,428.7c0,2.1,1,3.7,2.2,3.7c1.3,0,2.2-1.5,2.2-3.7s-0.9-3.7-2.2-3.7C200.2,425.1,199.2,426.7,199.2,428.7
	z"/>
<polygon class="st0" points="188.2,505 188.2,505.8 201.5,502.9 215,505.8 215.3,505.8 215.3,505 202.8,497.5 202.8,451.4 
	191.3,451.4 191.3,453.7 200.3,453.7 200.3,497.5 188.3,504.9 "/>
<path class="st0" d="M241,504.9L241,504.9l-0.1,0.9l9.3-3l12,3V505l-10.8-7.5v-27.3c0-12.2-4.1-20.1-10.4-20.1
	c-5,0-8.7,4.5-10.7,12.8v-11.5h-10.8v2.3h8.3v43.8l-10.2,7.4l-0.1,0.1v0.8l11.6-3l9.8,3V505l-8.5-7.5V466c2.8-10.2,6-12.3,10.2-12.3
	c5.2,0,8.5,7.5,8.5,19.6v24.2L241,504.9z"/>
<path class="st0" d="M281.3,530.9c7.3,0,12.6-6.8,12.6-16.2c0-8.2-5.2-12.6-10.1-12.6H276l7.5-5.2c5.3-3.7,8.6-12.5,8.6-23.1
	c0-8.3-2.9-16.3-7.2-20.1h6.9v-2.3h-12.5c-8.2,0-13.6,9.7-13.6,24.2c0,14.1,6.9,22.6,13.6,22.6c0.1,0,0.1,0,0.2,0l-10.5,6.8
	l-0.1,0.1v0.8h13.9c5.1,0,8.3,3.9,8.3,10.1c0,6.8-5.1,13.2-10.5,13.2c-4.2,0-8.1-1.7-12-5.3l-0.4-0.4v1.3l0.1,0.1
	c0.4,0.3,0.8,0.7,1.1,1C272.2,528.3,275,530.9,281.3,530.9z M289.9,478.7c0,7.4-3.6,17.8-9.5,17.8c-6.5,0-12.3-12.1-12.3-25.9
	c0-10.1,3.9-17.5,9.3-17.5C283.4,453,289.9,463.3,289.9,478.7z"/>
<path class="st0" d="M350.6,464.4c0-19.5-5.1-39.3-14.8-39.3c-9.4,0-15.7,17-15.7,42.3c0,23.3,6.3,39.6,15.3,39.6
	C343.8,507,350.6,487.8,350.6,464.4z M348.2,471.2c0,15.3-3.6,31.7-11.5,31.7c-8.8,0-14.3-15.9-14.3-41.4c0-20.7,4.4-32.6,12-32.6
	C343.2,428.8,348.2,444.3,348.2,471.2z"/>
<path class="st0" d="M371.9,507c8.4,0,14.5-10.8,14.5-25.6c0-11.7-4.9-24.2-14.1-24.2c-5.2,0-10.6,4.1-12.8,13.2
	c2.2-26,10.4-40.5,25-44.2l0.2,0v-0.9l-0.3,0c-24.7,4.2-27.4,38.4-27.4,52.8C357,494.8,363.3,507,371.9,507z M359.5,480
	c0-11.2,4.7-19.6,11-19.6c8.7,0,13.7,9.5,13.7,26.2c0,8.5-3.6,17.6-10.2,17.6C365.5,504.2,359.5,491.5,359.5,480z"/>
<path class="st0" d="M417.8,507c8.4,0,15.1-19.1,15.1-42.6c0-19.5-5.1-39.3-14.8-39.3c-9.4,0-15.7,17-15.7,42.3
	C402.5,490.7,408.7,507,417.8,507z M404.7,461.5c0-20.7,4.4-32.6,12-32.6c8.8,0,13.8,15.4,13.8,42.4c0,15.3-3.6,31.7-11.5,31.7
	C410.2,502.9,404.7,487,404.7,461.5z"/>
<path class="st0" d="M452.9,453.1c-6.1,0-10.3,3.9-12.7,12l2.2-34.9h18.4l1.9,19.2h0.8v-23.1H441l-2.8,47.3l0,0.3h0.7l0-0.2
	c1.7-7.6,4.9-17.7,13.1-17.7c8.2,0,11.8,13.5,11.8,23c0,14.9-5.6,25.3-13.5,25.3c-7.7,0-11.1-8.7-12.5-13.9l-0.1-0.5l-0.7,0.9l0,0.1
	c1.9,7.5,5.2,16.1,13.2,16.1c9.6,0,16.3-11.5,16.3-28C466.5,466.4,461.7,453.1,452.9,453.1z"/>
<path class="st0" d="M25.7,582.8V617h0.8l1.2-9.5c3.2,4.8,7.4,9.5,13.9,9.5c7.5,0,15.5-5.6,15.5-21.2c0-12.3-8.3-18.2-13.7-22.1
	c-0.4-0.3-0.8-0.6-1.1-0.8l-0.5-0.4c-5.4-3.9-12.7-9.2-12.7-18.9c0-11,3.9-16.6,11.5-16.6c6.1,0,10.9,8.9,12.6,23.2
	c0.3,2.1,0.7,6.6,0.7,6.7l0,0.2h1.6v-32.1h-0.9l-1.1,12.3c-2.8-6.1-7.5-12.3-12.9-12.3c-8.7,0-13.7,7.1-13.7,19.4
	c0,11.7,7.5,17.4,13,21.5l0.7,0.5c0.4,0.3,0.7,0.5,1.1,0.8c5.2,3.8,13,9.6,13,19.6c0,11.5-4.4,18.2-12.1,18.2
	c-8.1,0-14.3-10.9-15-26.5c-0.2-2.9-0.2-4.8-0.2-5.6v-0.2H25.7z"/>
<path class="st0" d="M143.8,614.9L143.8,614.9l-0.1,0.9l9.3-3l12,3V615l-10.8-7.5v-27.3c0-12.2-4.1-20.1-10.4-20.1
	c-5.2,0-9.3,5-11.2,13.5c-1.3-8.5-5-13.5-10-13.5c-5,0-8.7,4.5-10.7,12.8v-11.5h-10.8v2.3h8.3v43.8l-10.2,7.4l-0.1,0.1v0.8l11.6-3
	l9.8,3V615l-8.5-7.5V576c2.8-10.2,6-12.3,10.2-12.3c5.2,0,8.5,7.5,8.5,19.6v24.2l-8,7.4l-0.1,0.1v0.8l9.3-3l9.7,3V615l-8.4-7.5
	v-27.4c0-1.6-0.1-3.2-0.2-4.6c2.8-9.9,6-11.9,10.5-11.9c5.2,0,8.5,7.5,8.5,19.6v24.2L143.8,614.9z"/>
<path class="st0" d="M191.7,639.7l-12.9-7.5V632h250.4v-6.6H178.8v-11.3c1.6,1.4,4.2,2.9,7.5,2.9c9,0,15.9-12.4,16.4-29.6
	c0.3-10.2-2.5-20.2-7-24.8c-1.6-1.7-3.4-2.6-5.3-2.6c-6.4,0-10.1,6.6-11.6,10v-8.7h-11.1v2.3h8.6v61.7H77.6l13.5-56.2l6.2-7.1v-0.9
	l-6.5,3.7l-7.6-3.7v0.9l6.9,7.1l-9.9,41.6L70.1,569l6.4-6.9v-0.9l-7.8,3.7l-7.6-3.7v0.9l6.4,7l11.2,48l-2,8.3h-55v6.6H75l-2.1,8.5h1
	L76,632h100.3v0.3l-8.5,7.4l-0.1,0.1v0.8l10.1-3l13.9,2.9V639.7z M188,563.7c7.6,0,12.4,10.8,12.4,28.2c0,13-5,22.5-11.9,22.5
	c-3.8,0-7.5-2.4-9.7-6.5v-35.7C180.1,569,183,563.7,188,563.7z"/>
<path class="st0" d="M223.7,617c8,0,14.5-13.4,14.5-29.8c0-13-4.4-27.1-14.1-27.1c-9,0-15.1,11.8-15.1,29.3
	C209,605.6,215,617,223.7,617z M235.9,593c0,10.2-3.9,20.8-10.3,20.8c-8.5,0-14.7-12.7-14.7-30.1c0-14.4,5.6-20.9,10.8-20.9
	C230.3,562.8,235.9,574.7,235.9,593z"/>
<path class="st0" d="M246.6,609.2c2.3,3.7,5.5,7.7,10.5,7.7c5.6,0,11.6-4.9,11.6-15.8c0-8.1-6-11.8-9.9-14.2
	c-0.3-0.2-0.5-0.3-0.8-0.5l-0.8-0.5c-4-2.4-10-6-10.8-11.4c-0.5-3.6,0.4-7.3,2.4-9.7c1.5-1.7,3.5-2.7,5.8-2.7c5,0,10,7.1,10.9,15.6
	l0.6,4.8h1.8l-1-22.5h-0.8l-0.9,6.6c-2.3-3.2-5.7-6.7-9.3-6.7c-5.5,0-11,5.1-11,14.7c0,8.1,5.2,11.4,9.4,14c0.4,0.3,0.9,0.5,1.3,0.8
	c0.3,0.2,0.6,0.4,0.9,0.6c3.8,2.4,9.5,6,10.3,12.3c0.5,4-0.4,7.6-2.5,9.9c-1.4,1.6-3.3,2.5-5.5,2.5c-6.5,0-11.4-7.8-12.1-19.4
	c-0.2-1.8-0.2-3.2-0.2-3.9v-0.2h-1.7l-0.5,25.4h0.8L246.6,609.2z"/>
<ellipse class="st0" cx="286.1" cy="538.7" rx="2.2" ry="3.7"/>
<polygon class="st0" points="299.7,615.8 300,615.8 300,615 287.4,607.5 287.4,561.4 276,561.4 276,563.7 285,563.7 285,607.5 
	273,614.9 272.9,615 272.9,615.8 286.2,612.9 "/>
<path class="st0" d="M338.8,608.9v-0.8l-8.3,1.4v-48.2h-8.3v2.3h5.8V601c-2.8,10.2-6,12.3-10.2,12.3c-4.6,0-7.5-7-7.5-17.8v-34.2
	h-8.1v2.3h5.6v33.1c0,12.4,3.6,20.1,9.4,20.1c5,0,8.7-4.5,10.7-12.8v11.7L338.8,608.9z"/>
<path class="st0" d="M386.7,614.9L386.7,614.9l-0.1,0.9l9.3-3l12,3V615l-10.8-7.5v-27.3c0-12.2-4.1-20.1-10.4-20.1
	c-5.2,0-9.3,5-11.2,13.5c-1.3-8.5-5-13.5-10-13.5c-5,0-8.7,4.5-10.7,12.8v-11.5h-10.8v2.3h8.3v43.8l-10.2,7.4L342,615v0.8l11.6-3
	l9.8,3V615l-8.5-7.5V576c2.8-10.2,6-12.3,10.2-12.3c5.2,0,8.5,7.5,8.5,19.6v24.2l-8,7.4l-0.1,0.1v0.8l9.3-3l9.7,3V615l-8.4-7.5
	v-27.4c0-1.6-0.1-3.2-0.2-4.6c2.8-9.9,6-11.9,10.5-11.9c5.2,0,8.5,7.5,8.5,19.6v24.2L386.7,614.9z"/>
<polygon class="st0" points="38.8,660.1 38,660.1 21.8,704.3 22.5,704.9 36.4,671.9 36.4,732.9 22.2,739.9 22.1,740 22.1,740.8 
	37.6,737.9 51.1,740.8 51.4,740.8 51.4,740 38.8,732.9 "/>
<path class="st0" d="M73,698.6c4.3-3.1,8.5-10.5,8.5-19c0-9.5-3.2-19.6-12.1-19.6c-8.7,0-12.6,8.8-12.6,17.6c0,10,4.8,15.5,9.5,19.8
	c-5.6,2.5-11.9,9.5-11.9,21.5c0,14.4,5.6,23,15.1,23c9,0,14.5-10.7,14.5-20.6C84,708.1,78,702.8,73,698.6z M67.6,698.6l2,1.7
	c6,5.2,11.7,10.1,11.7,21.4c0,8.3-4.7,16.8-12.4,16.8c-9,0-13.1-10.2-13.1-19.7C55.8,708.3,61.9,701,67.6,698.6z M69.7,695.6
	l-0.4-0.4c-5.7-5.3-9.9-9.2-9.9-17.8c0-7.1,3.2-14.3,10.4-14.3c6.1,0,10.5,6.9,10.5,16.3c0,8-4.4,15.5-8.6,18
	C71,696.9,70.3,696.2,69.7,695.6z"/>
<path class="st0" d="M91.8,694.9c-1.2,0-2.2,1.6-2.2,3.7c0,2.1,1,3.7,2.2,3.7c1.3,0,2.2-1.5,2.2-3.7S93.1,694.9,91.8,694.9z"/>
<path class="st0" d="M115.6,660.1c-9.4,0-15.7,17-15.7,42.3c0,23.3,6.3,39.6,15.3,39.6c8.4,0,15.1-19.1,15.1-42.6
	C130.3,679.8,125.3,660.1,115.6,660.1z M127.9,706.2c0,15.3-3.6,31.7-11.5,31.7c-8.8,0-14.3-15.9-14.3-41.4c0-20.7,4.4-32.6,12-32.6
	C122.9,663.8,127.9,679.3,127.9,706.2z"/>
<path class="st0" d="M150.3,688.1c-6.1,0-10.3,3.9-12.7,12l2.2-34.9h18.4l1.9,19.2h0.8v-23.1h-22.4l-2.8,47.3l0,0.3h0.7l0-0.2
	c1.7-7.6,4.9-17.7,13.1-17.7c8.2,0,11.8,13.5,11.8,23c0,14.9-5.6,25.3-13.5,25.3c-7.7,0-11.1-8.7-12.5-13.9l-0.1-0.5l-0.7,0.9l0,0.1
	c1.9,7.5,5.2,16.1,13.2,16.1c9.6,0,16.3-11.5,16.3-28C163.9,701.4,159.2,688.1,150.3,688.1z"/>
<path class="st0" d="M171.6,694.9c-1.2,0-2.2,1.6-2.2,3.7c0,2.1,1,3.7,2.2,3.7c1.3,0,2.2-1.5,2.2-3.7S172.9,694.9,171.6,694.9z"/>
<path class="st0" d="M204.8,736.8h-21.7l14.2-24.5c6.9-12,9.9-20.7,9.9-29.2c0-13.8-5.2-23.1-12.9-23.1c-6.2,0-10.1,7.2-11.8,14
	l-1.4-12.8h-0.9v35.6h1.9v-0.2c0-16.8,3.6-34.9,11.6-34.9c5.8,0,10.4,9.4,10.4,21.3c0,9.6-2.8,18.9-8.9,29.5L179.4,740l0,0.1v0.7
	h28.5v-27.6h-0.9L204.8,736.8z"/>
<polygon class="st0" points="228.4,660.1 227.6,660.1 211.3,704.3 212,704.9 225.9,671.9 225.9,732.9 211.8,739.9 211.6,740 
	211.6,740.8 227.1,737.9 240.6,740.8 240.9,740.8 240.9,740 228.4,732.9 "/>
<path class="st0" d="M285.8,652.8c-0.6,0-1.7,1.2-1.8,1.8l0,0c-2.4,10.8-4.8,22-7.1,32.9c-4.3,20.1-8.8,40.8-13.3,60.6
	c-0.3,1.5-0.2,2,0,2.2c0.1,0.2,0.4,0.2,0.4,0.2c0.7,0,1.5-1.2,1.8-2.3c1.2-4.6,6.8-30.3,12.2-55.2c2.8-13.1,5.8-26.7,8.1-37.1
	c0.5-2.1,0.4-2.6,0.2-2.9C286.1,652.9,286,652.8,285.8,652.8z"/>
<polygon class="st0" points="326.3,660.1 325.5,660.1 309.2,704.3 309.9,704.9 323.8,671.9 323.8,732.9 309.6,739.9 309.5,740 
	309.5,740.8 325,737.9 338.5,740.8 338.8,740.8 338.8,740 326.3,732.9 "/>
<path class="st0" d="M357.8,660.1c-9.4,0-15.7,17-15.7,42.3c0,23.3,6.3,39.6,15.3,39.6c8.4,0,15.1-19.1,15.1-42.6
	C372.6,679.8,367.5,660.1,357.8,660.1z M370.2,706.2c0,15.3-3.6,31.7-11.5,31.7c-8.8,0-14.3-15.9-14.3-41.4c0-20.7,4.4-32.6,12-32.6
	C365.1,663.8,370.2,679.3,370.2,706.2z"/>
<ellipse class="st0" cx="380.7" cy="738.3" rx="2.2" ry="3.7"/>
<path class="st0" d="M404.5,660.1c-9.4,0-15.7,17-15.7,42.3c0,23.3,6.3,39.6,15.3,39.6c8.4,0,15.1-19.1,15.1-42.6
	C419.2,679.8,414.1,660.1,404.5,660.1z M416.8,706.2c0,15.3-3.6,31.7-11.5,31.7c-8.8,0-14.3-15.9-14.3-41.4c0-20.7,4.4-32.6,12-32.6
	C411.8,663.8,416.8,679.3,416.8,706.2z"/>
<path class="st0" d="M441.1,660.1c-9.4,0-15.7,17-15.7,42.3c0,23.3,6.3,39.6,15.3,39.6c8.4,0,15.1-19.1,15.1-42.6
	C455.8,679.8,450.8,660.1,441.1,660.1z M453.4,706.2c0,15.3-3.6,31.7-11.5,31.7c-8.8,0-14.3-15.9-14.3-41.4c0-20.7,4.4-32.6,12-32.6
	C448.4,663.8,453.4,679.3,453.4,706.2z"/>
<path class="st0" d="M509.9,698.1h-27.3c-0.3,0-0.7,0.3-0.9,0.8c-0.3,0.8-0.4,2.2-0.4,2.6c0,0.8,0.8,1,1.5,1l26.4-0.3
	c0.2,0,0.8-0.2,1-0.7c0.2-0.7,0.4-1.7,0.4-2.6C510.6,698.4,510.2,698.1,509.9,698.1z"/>
<polygon class="st0" points="550.2,660.1 549.4,660.1 533.1,704.3 533.8,704.9 547.7,671.9 547.7,732.9 533.5,739.9 533.4,740 
	533.4,740.8 548.9,737.9 562.4,740.8 562.7,740.8 562.7,740 550.2,732.9 "/>
<path class="st0" d="M584.4,698.6c4.3-3.1,8.5-10.5,8.5-19c0-9.5-3.2-19.6-12.1-19.6c-8.7,0-12.6,8.8-12.6,17.6
	c0,10,4.8,15.5,9.5,19.8c-5.6,2.5-11.9,9.5-11.9,21.5c0,14.4,5.6,23,15.1,23c9,0,14.5-10.7,14.5-20.6
	C595.3,708.1,589.3,702.8,584.4,698.6z M578.9,698.6l2,1.7c6,5.2,11.7,10.1,11.7,21.4c0,8.3-4.7,16.8-12.4,16.8
	c-9,0-13.1-10.2-13.1-19.7C567.1,708.3,573.2,701,578.9,698.6z M581,695.6l-0.4-0.4c-5.7-5.3-9.9-9.2-9.9-17.8
	c0-7.1,3.2-14.3,10.4-14.3c6.1,0,10.5,6.9,10.5,16.3c0,8-4.4,15.5-8.6,18C582.3,696.9,581.7,696.2,581,695.6z"/>
<ellipse class="st0" cx="603.1" cy="738.3" rx="2.2" ry="3.7"/>
<path class="st0" d="M626.9,660.1c-9.4,0-15.7,17-15.7,42.3c0,23.3,6.3,39.6,15.3,39.6c8.4,0,15.1-19.1,15.1-42.6
	C641.7,679.8,636.6,660.1,626.9,660.1z M639.3,706.2c0,15.3-3.6,31.7-11.5,31.7c-8.8,0-14.3-15.9-14.3-41.4c0-20.7,4.4-32.6,12-32.6
	C634.2,663.8,639.3,679.3,639.3,706.2z"/>
<path class="st0" d="M663.5,660.1c-9.4,0-15.7,17-15.7,42.3c0,23.3,6.3,39.6,15.3,39.6c8.4,0,15.1-19.1,15.1-42.6
	C678.3,679.8,673.2,660.1,663.5,660.1z M675.9,706.2c0,15.3-3.6,31.7-11.5,31.7c-8.8,0-14.3-15.9-14.3-41.4c0-20.7,4.4-32.6,12-32.6
	C670.9,663.8,675.9,679.3,675.9,706.2z"/>
</svg>
