<svg
  version="1.1"
  id="Layer_1"
  xmlns="http://www.w3.org/2000/svg"
  x="0"
  y="0"
  viewBox="0 0 183.5 75"
  style="enable-background: new 0 0 183.5 75"
  xml:space="preserve"
>
  <style>
    .st0 {
      fill: #fff;
    }
  </style>
  <path
    class="st0"
    d="M2.6 2.8h5.5v27.7l-4.2 2.9v.3l4.7-1.2 4.5 1.2v-.3L9 30.5V2.8h5.5l1.1 12.8v.1h.3V2.2H1.3v13.5h.3zM32.4 21h-.3L31 33.1h-8.6V17.3h5.1l1.6 7.5.3-.2-.7-7.6.7-6.3-.3-.3-1.6 6.3h-5.1V2.8h8.3l.9 10.1v.1h.3V2.2H17.3v.2l4.2 2.1v26.8l-4.2 2.1v.3h15.1zM44.3 33.7v-.3l-5.5-2.9v-12h4l7.3 17 .1.1.2-.3-6.1-17.1c2.9-.9 4.3-3.5 4.3-7.9C48.6 5.4 46 2 42.3 2h-8.5v.3l4.1 2v26l-4 2.9v.3l4.6-1.2 5.8 1.4zM42 2.8c3.8 0 5.5 4 5.5 7.6 0 4.6-2.1 7.5-5.4 7.5h-3.2V2.8H42zM61.6 33.7l.1-.3-5.5-2.9v-12h4l7.3 17 .1.1.2-.3-6.1-17.1c2.9-.9 4.3-3.5 4.3-7.9C66 5.4 63.4 2 59.7 2h-8.5v.3l4.1 2v26l-4 2.9v.3l4.6-1.2 5.7 1.4zM59.3 2.8c3.8 0 5.5 4 5.5 7.6 0 4.6-2.1 7.5-5.4 7.5h-3.2V2.8h3.1zM83.6 21h-.3l-1 12.1h-8.6V17.3h5l1.7 7.5.2-.2-.7-7.6.7-6.3-.2-.3-1.7 6.3h-5V2.8h8.2l.9 10.1v.1h.3V2.2H68.5v.2l4.2 2.1v26.8l-4.1 2.1h-.1v.3h15.1zM87.2 30.3c1.3 1.9 2.9 3.8 5.5 3.8 3 0 6.1-2.2 6.1-8.4 0-4.9-3.3-7.2-5.4-8.8-.2-.1-.3-.2-.4-.3l-.2-.1c-2.1-1.5-5-3.7-5-7.5 0-4.4 1.5-6.6 4.6-6.6 2.4 0 4.3 3.5 5 9.2.1.8.3 2.6.3 2.7v.1h.6V1.7H98l-.5 4.9c-1.1-2.4-3-4.9-5.1-4.9C89 1.7 87 4.5 87 9.4c0 4.6 3 6.9 5.1 8.5l.3.2c.1.1.3.2.4.3 2.1 1.5 5.2 3.8 5.2 7.8 0 4.6-1.8 7.2-4.8 7.2-3.2 0-5.7-4.3-6-10.5-.2-1.1-.2-1.9-.2-2.2v-.1h-.6v13.5h.3l.5-3.8zM102.7 2.8h5.4v27.7l-4.1 2.9h-.1v.3l4.7-1.2 4.5 1.2v-.3l-4-2.9V2.8h5.5l1 12.8v.1h.3V2.2h-14.6v13.5h.3zM127.8 33.4l-5.5-2.9v-12h4l7.3 17 .1.1.2-.3-6.1-17.1c2.9-.9 4.3-3.5 4.3-7.9 0-4.9-2.6-8.3-6.3-8.3h-8.5v.3l4.1 2v26l-4 2.9v.3l4.6-1.2 5.8 1.1h.1zm-2.3-30.6c3.8 0 5.5 4 5.5 7.6 0 4.6-2.1 7.5-5.4 7.5h-3.2V2.8h3.1zM145.7 33.7v-.3l-4.6-2.9V5.3l4-2.8v-.4l-4.4 1.2-4.4-1.1-.1-.1v.3l4 2.9v25.2l-4.6 2.9v.3l5.1-1.2zM155.4 33.7v-.3l-3.9-3.1 1.9-9.6h6.8l2.1 9.6-3.9 3v.3l4.4-1.2 4.3 1.1h.1v-.3l-3.8-3.1L156.9.6 151 30.3l-4 3.1v.3l4.1-1.2 4.3 1.2zm-1.9-13.6 3.1-15.6 3.5 15.6h-6.6zM181.5 17.2l-1 15.9h-7.8V5.4l4.4-2.9v-.4l-4.9 1.2-3.9-1.1h-.1v.3l3.5 2.8v25.9l-4 2.2v.3h14.1V17.2zM11.3 40.4 5.5 70l-4 3.1v.3l4.1-1.2 4.4 1.2v-.3L6 70l1.9-9.6h6.8l2.1 9.6-3.9 3v.3l4.4-1.2 4.3 1.1h.1v-.3L17.9 70l-6.6-29.6zm3.3 19.4H8l3.1-15.6 3.5 15.6zM30.4 56.7c-.2-.1-.3-.2-.4-.3l-.2-.1c-2.1-1.5-5.1-3.7-5.1-7.5 0-4.4 1.5-6.6 4.6-6.6 2.4 0 4.3 3.5 5 9.2.1.8.3 2.6.3 2.7v.1h.6V41.4h-.3l-.5 4.9c-1.1-2.4-3-4.9-5.1-4.9-3.4 0-5.4 2.8-5.4 7.7 0 4.6 3 6.9 5.1 8.5l.3.2c.1.1.3.2.4.3 2.1 1.5 5.2 3.8 5.2 7.8 0 4.6-1.8 7.2-4.8 7.2-3.2 0-5.7-4.3-6-10.5-.1-1.1-.1-1.9-.1-2.2v-.1h-.6v13.5h.3l.5-3.8c1.3 1.9 2.9 3.8 5.5 3.8 3 0 6.1-2.2 6.1-8.4 0-4.8-3.3-7.2-5.4-8.7zM45.8 56.7c-.2-.1-.3-.2-.4-.3l-.2-.1c-2.1-1.5-5.1-3.7-5.1-7.5 0-4.4 1.5-6.6 4.6-6.6 2.4 0 4.3 3.5 5 9.2.1.8.3 2.6.3 2.7v.1h.6V41.4h-.3l-.5 4.9c-1.1-2.4-3-4.9-5.1-4.9-3.4 0-5.4 2.8-5.4 7.7 0 4.6 3 6.9 5.1 8.5l.3.2c.1.1.3.2.4.3 2.1 1.5 5.2 3.8 5.2 7.8 0 4.6-1.8 7.2-4.8 7.2-3.2 0-5.7-4.3-6-10.5-.1-1.2-.1-1.9-.1-2.2v-.1h-.6v13.5h.3l.5-3.8c1.3 1.9 2.9 3.8 5.5 3.8 3 0 6.1-2.2 6.1-8.4 0-4.8-3.3-7.2-5.4-8.7zM66.6 72.8h-8.7V57H63l1.7 7.5.2-.2-.7-7.7.7-6.2v-.1l-.3-.3-1.6 6.4h-5.1V42.5h8.3l.9 10.1h.3V41.8H52.8v.3l4.2 2V71l-4.1 2-.1.1v.2h15.1V60.7h-.3zM89.2 43.8l4.3-1.7v-.3h-5.1l-6.2 29-6.7-28.9v-.1h-4.9v.3l4.1 2v26L69.8 73v.4l5.1-1.2 4.7 1.1.1.1v-.3l-4.5-3V45.2l6.6 29h.3l6.1-29v24.9L84.5 73v.4l4.2-1.2 4.9 1.1.1.1v-.3l-4.5-3zM105.6 57c2.2-.5 3.7-3.5 3.7-7.6 0-5-2.2-7.6-6.4-7.6h-7.8v.3l4.1 2V71l-4.4 2v.3h8.1c5.4 0 7.7-2.6 7.7-8.6-.1-4.6-2.5-7.2-5-7.7zm3.8 7.7c0 5.5-2 8.1-6.4 8.1h-2.9V57.4h2.3c3.5 0 7 2.2 7 7.3zm-1.2-15.2c0 6.7-3.3 7.3-6.4 7.3h-1.7V42.5h2.8c3.3 0 5.3 2.6 5.3 7zM124.6 72.8h-7.8V45l4.4-2.8v-.4l-4.9 1.2-3.9-1.1h-.1v.3l3.5 2.8v25.9l-4 2.2v.2h14.1V56.9h-.3zM137.7 40.4 131.9 70l-4 3.1v.3l4.1-1.2 4.4 1.2v-.3l-3.9-3.1 1.9-9.6h6.8l2.1 9.6-3.9 3v.3l4.4-1.2 4.3 1.1h.1v-.3l-3.8-3.1-6.7-29.4zm3.3 19.4h-6.6l3.1-15.6 3.5 15.6zM152.3 59.1l10.8 1.7.5 7.1c-.9 2.2-2.9 4.6-5.1 4.6-4.8 0-8.3-7.3-8.3-17.2 0-6.2 2.1-13 6.6-13 4.3 0 6.4 8.3 6.4 13.9v.1h.9V41.8h-.3l-.6 6.8c-1.2-4.3-3.4-7.2-5.7-7.2-5 0-8.1 6.4-8.1 16.7 0 10.8 4.2 15.7 8.2 15.7 3 0 5.1-2.6 6.1-5l.3 4.8v.1h.3V58.8h-12v.3zM179.8 72.8h-8.7V57h5.1l1.6 7.5.3-.2-.7-7.7.7-6.2v-.1l-.3-.3-1.6 6.4h-5.1V42.5h8.3l.9 10.1h.3V41.8H166v.3l4.2 2V71l-4.2 2V73.3h15.1V60.7h-.3z"
  />
</svg>
