<svg
  version="1.1"
  id="Layer_1"
  xmlns="http://www.w3.org/2000/svg"
  x="0"
  y="0"
  viewBox="0 0 298.5 176"
  style="enable-background: new 0 0 298.5 176"
  xml:space="preserve"
>
  <style>
    .st0 {
      fill: #fff;
    }
  </style>
  <path
    class="st0"
    d="M2.7 2.8H8v27.6l-4.2 3v.3l4.8-1.1 4.5 1.1v-.3l-4-3V2.8h5.4l1 12.8.1.2h.3V2.1H1.2v13.7h.4zM23.9 34.2c2.5 0 3.8-2.2 4.9-4.6l-.2-.5-.1.2c-1.2 2.4-2.5 3.5-3.9 3.5-3.2 0-5.6-5.1-5.6-12.2v-.1l9.3.6h.1V21c.1-3.5-.8-6.7-2.4-8.4-.7-.7-1.5-1.1-2.3-1.1-3.4 0-5.6 4.6-5.6 11.7.2 7.5 3.1 11 5.8 11zM23 12.7c1.9 0 3.6 2.2 4.3 5.6 0 .2.1.7.1 1.1l-8.2.7c0-4.3 1.7-7.4 3.8-7.4zM38.5 33.8v-.4l-3.7-3V19.5c.7-4 1.8-5.5 4-5.5h.3v-2.4H39s-.3-.1-.4-.1c-1.6.1-3.1 2.9-3.8 5.9V12h-3.6v1h2.6v17.3l-3.4 2.9v.4l4-1.2 4.1 1.4zM49.5 33.8v-.4l-3.7-3V19.5c.7-4 1.8-5.5 4-5.5h.3v-2.4H50s-.3-.1-.4-.1c-1.6.1-3.1 2.9-3.8 5.9V12h-3.6v1h2.6v17.3l-3.4 2.9v.4l4-1.2 4.1 1.4zM58.7 34.2c2.5 0 3.8-2.2 4.9-4.6l-.2-.5-.1.2c-1.2 2.4-2.5 3.5-3.9 3.5-3.2 0-5.6-5.1-5.6-12.2v-.1l9.3.6h.1V21c.1-3.5-.8-6.7-2.4-8.4-.7-.7-1.5-1.1-2.3-1.1-3.4 0-5.6 4.6-5.6 11.7.1 7.5 3 11 5.8 11zm-1-21.5c1.9 0 3.6 2.2 4.3 5.6 0 .2.1.7.1 1.1l-8.2.7c.1-4.3 1.7-7.4 3.8-7.4zM66.7 31.2c.9 1.5 2.2 3 4.1 3 2.2 0 4.6-2 4.6-6.3 0-3.2-2.4-4.7-3.9-5.7l-.6-.4c-1.6-.9-3.9-2.4-4.3-4.5-.2-1.4.2-2.9 1-3.8.6-.7 1.4-1 2.3-1 2 0 3.9 2.8 4.3 6.2l.2 1.9h.8l-.4-8.8v-.1h-.4l-.4 2.5c-.9-1.2-2.2-2.6-3.7-2.6-2.2 0-4.4 2-4.4 5.9 0 3.2 2.1 4.5 3.8 5.6.2.1.3.2.5.3.1.1.2.1.4.2 1.5.9 3.8 2.4 4.1 4.8.2 1.6-.2 3-1 3.9-.6.6-1.3 1-2.2 1-2.6 0-4.5-3.1-4.8-7.7-.1-.7-.1-1.3-.1-1.6v-.1h-.7l-.2 10v.1h.4l.6-2.8zM80.1 26.7c0 5 1 7.5 3 7.5 1.4 0 2.3-1.3 2.8-2.2v-.1l-.2-.5-.1.2c-.4.6-1 1.3-2.3 1.3-1.4 0-2.2-2.3-2.2-6.1V13.6l3.5.4v-1.9l-3.5.3V6.9h-1v5.6l-2.9.3h-.1v.4l3 .4v13.1zM95.8 14h.3v-2.4H96s-.3-.1-.4-.1c-1.6.1-3.1 2.9-3.8 5.9V12h-3.6v1h2.6v17.3l-3.4 2.9v.4l4-1.2 4.3 1.2v-.4l-3.7-3V19.3c.5-3.8 1.6-5.3 3.8-5.3zM109.1 33.7v-.3l-5-3V12.1h-4.6v1h3.6v17.3l-4.8 3v.3l5.3-1.1zM103.6 4.6c.5 0 .9-.6.9-1.5s-.4-1.5-.9-1.5-.9.7-.9 1.5.3 1.5.9 1.5zM111.2 24.4c-.3.8-.6 2.3-.6 3.7 0 3 1.1 6.1 3.6 6.1 2 0 3.9-1.5 4.8-3.8v3.9l4.8-3.4h.1v-.4l-3.8.9V20c0-5.4-1.4-8.5-4-8.5s-4.1 2.9-5 5.3l.2.5.1-.3c1.2-3.1 2.5-4.4 4.4-4.4 2 0 3.2 2.9 3.2 7.3V21l-7.8 3.4zm3.7 8.1c-1.6 0-3.8-2-3.8-5.5v-.8l7.8-4.6v7.7c-.7 1.9-2.3 3.2-4 3.2zM135 33.7v-.3l-5-3V2.1h-4.6V3h3.6v27.4l-4.8 3v.3l5.3-1.1zM151.9 33.7v-.4l-3.9-3.1 1.9-9.5h6.7l2.1 9.5-3.9 3.1v.4l4.5-1.2 4.4 1.2v-.4l-3.8-3.1L153.5 1l-.1-.6-5.9 29.8-4 3v.4l4.1-1.2 4.3 1.3zm-1.8-13.6 3-15.3 3.4 15.3h-6.4zM165.8 31.2c.9 1.5 2.2 3 4.1 3 2.2 0 4.6-2 4.6-6.3 0-3.2-2.4-4.7-3.9-5.7l-.6-.4c-1.6-.9-3.9-2.4-4.3-4.5-.2-1.4.2-2.9 1-3.8.6-.7 1.4-1 2.3-1 2 0 3.9 2.8 4.3 6.2l.2 1.9h.8l-.4-8.8v-.1h-.4l-.4 2.6c-.9-1.2-2.2-2.6-3.7-2.6-2.2 0-4.4 2-4.4 5.9 0 3.2 2.1 4.5 3.8 5.6.2.1.3.2.5.3.1.1.2.1.4.2 1.5.9 3.8 2.4 4.1 4.8.2 1.6-.2 3-1 3.9-.6.6-1.3 1-2.2 1-2.6 0-4.5-3.1-4.8-7.7-.1-.7-.1-1.3-.1-1.6V24h-.7l-.2 10v.1h.4l.6-2.9zM177.9 31.2c.9 1.5 2.2 3 4.1 3 2.2 0 4.6-2 4.6-6.3 0-3.2-2.4-4.7-3.9-5.7l-.6-.4c-1.6-.9-3.9-2.4-4.3-4.5-.2-1.4.2-2.9 1-3.8.6-.7 1.4-1 2.3-1 2 0 3.9 2.8 4.3 6.2l.2 1.9h.8l-.4-8.8v-.1h-.4l-.4 2.6c-.9-1.2-2.2-2.6-3.7-2.6-2.2 0-4.4 2-4.4 5.9 0 3.2 2.1 4.5 3.8 5.6.2.1.3.2.5.3.1.1.2.1.4.2 1.5.9 3.8 2.4 4.1 4.8.2 1.6-.2 3-1 3.9-.6.6-1.3 1-2.2 1-2.6 0-4.5-3.1-4.8-7.7-.1-.7-.1-1.3-.1-1.6V24h-.7l-.2 10v.1h.4l.6-2.9zM194.8 34.2c2.5 0 3.8-2.2 4.9-4.6l-.2-.5-.1.2c-1.2 2.4-2.5 3.5-3.9 3.5-3.2 0-5.6-5.1-5.6-12.2v-.1l9.3.6h.1V21c.1-3.5-.8-6.7-2.4-8.4-.7-.7-1.5-1.1-2.3-1.1-3.4 0-5.6 4.6-5.6 11.7.1 7.5 3.1 11 5.8 11zm-.9-21.5c1.9 0 3.6 2.2 4.3 5.6 0 .2.1.7.1 1.1l-8.2.7c0-4.3 1.7-7.4 3.8-7.4zM209.5 33.7h.2v-.4l-3.4-3V17.9c1.1-4 2.4-4.8 4-4.8 2.1 0 3.3 3 3.3 7.8v9.6l-3.2 3v.4l3.7-1.2 3.9 1.2v-.4l-3.3-3V19.6c0-.6 0-1.3-.1-1.8 1.1-3.9 2.3-4.7 4.1-4.7 2.1 0 3.3 3 3.3 7.8v9.6l-3.2 3v.4l3.7-1.2 4.8 1.2v-.4l-4.3-3V19.6c0-4.9-1.6-8-4.2-8-2 0-3.7 1.9-4.4 5.2-.5-3.3-2-5.2-4-5.2-1.9 0-3.4 1.7-4.2 4.9v-4.4H202v1h3.3v17.3l-4 2.9h-.1v.4l4.6-1.2 3.7 1.2zM240.5 22.4c.1-4.1-1-8-2.8-9.9-.7-.7-1.4-1-2.1-1-2.5 0-4 2.5-4.6 3.9V2.1h-2.6V3h1.6v29.1c1.4 1.3 2.5 2 3.9 2 3.7.1 6.4-4.9 6.6-11.7zm-9.5 8.1V16.4c.5-1.3 1.7-3.3 3.6-3.3 3 0 4.9 4.3 4.9 11.1 0 5.2-2 8.9-4.7 8.9-1.4 0-2.9-1-3.8-2.6zM253.3 33.7v-.3l-5-3V2.1h-4.6V3h3.6v27.4l-4.8 3v.3l5.3-1.1zM264.2 20c0-5.4-1.4-8.5-4-8.5s-4.1 2.9-5 5.3l.2.5.1-.3c1.2-3.1 2.5-4.4 4.4-4.4 2 0 3.2 2.9 3.2 7.3V21l-7.8 3.3h-.1v.1c-.3.7-.6 2.2-.6 3.6 0 3 1.1 6.1 3.6 6.1 2 0 3.9-1.5 4.8-3.8v3.9l4.8-3.4h.1v-.4l-3.8.9V20zm-5.1 12.5c-1.6 0-3.8-2-3.8-5.5v-.8l7.8-4.6v7.7c-.7 1.9-2.3 3.2-4 3.2zM276.5 32.2h-3l2.9-2c2.1-1.5 3.4-5 3.4-9.2 0-3.3-1.1-6.4-2.8-8h2.7v-1h-5c-3.2 0-5.4 3.9-5.4 9.6 0 5.6 2.7 9 5.4 9l-4.1 2.7v.3h5.5c2 0 3.3 1.5 3.3 4 0 2.7-2 5.2-4.2 5.2-1.7 0-3.2-.7-4.7-2.1l-.2-.2v.6c.2.1.3.3.5.4 1.1 1 2.2 2 4.8 2 2.9 0 5-2.7 5-6.4-.1-3.1-2.2-4.9-4.1-4.9zm-2.6-19.4c2.4 0 4.9 4.1 4.9 10.2 0 2.9-1.4 7-3.7 7-2.6 0-4.9-4.8-4.9-10.3 0-3.9 1.6-6.9 3.7-6.9zM293.3 29.4c-1.2 2.4-2.5 3.5-3.9 3.5-3.2 0-5.6-5.1-5.6-12.2v-.1l9.3.6h.1v-.1c.1-3.5-.8-6.7-2.4-8.4-.7-.7-1.5-1.1-2.3-1.1-3.4 0-5.6 4.6-5.6 11.7 0 7.5 2.9 11 5.7 11 2.5 0 3.8-2.2 4.9-4.6l-.2-.5v.2zm-5.6-16.7c1.9 0 3.6 2.2 4.3 5.6 0 .2.1.7.1 1.1l-8.2.7c0-4.3 1.7-7.4 3.8-7.4z"
  />
  <ellipse class="st0" cx="296.5" cy="32.7" rx=".9" ry="1.5" />
  <ellipse class="st0" cx="296.5" cy="14.3" rx=".9" ry="1.5" />
  <path
    class="st0"
    d="M15.6 63.7h-.4l-1.1 12.1H5.6V60.2h5l1.6 7.5.3-.3-.7-7.7.7-6.2v-.1l-.3-.4-1.6 6.4h-5V45.6h8.1l.9 10.1.1.1h.3V44.9H.4v.3l4.1 2.1V74L.4 76.1v.4h15.2zM23.5 77c2.5 0 3.8-2.2 4.9-4.6l-.2-.5-.1.3c-1.2 2.3-2.4 3.4-3.9 3.4-3.4 0-5.6-4.9-5.6-12.1 0-4.7 1.9-8.3 4.3-8.3 2.1 0 3.6 2.8 4.2 7.7.1.8.1 1.9.1 1.9v.1h.9V52.5h-.4l-.5 4.9c-.6-1.2-1.8-3.1-3.8-3.1-3.4 0-5.6 4.6-5.6 11.7.1 7.5 3 11 5.7 11zM36.5 77c3.2 0 5.8-5.3 5.8-11.9 0-5.2-1.8-10.8-5.6-10.8-3.6 0-6 4.7-6 11.7 0 6.4 2.4 11 5.8 11zm4.9-9.6c0 4-1.5 8.2-4.1 8.2-3.4 0-5.8-5-5.8-11.9 0-5.7 2.2-8.3 4.2-8.3 3.5.1 5.7 4.8 5.7 12zM43.9 76.1v.4l5.3-1.2 5.5 1.2v-.4l-4.9-2.9V44.9h-4.7v.9h3.6v27.4zM62.4 54.3c-3.6 0-6 4.7-6 11.7 0 6.5 2.4 11 5.9 11 3.2 0 5.8-5.3 5.8-11.9-.1-5.2-1.9-10.8-5.7-10.8zm.6 21.4c-3.4 0-5.8-5-5.8-11.9 0-5.7 2.2-8.3 4.2-8.3 3.4 0 5.6 4.7 5.6 12 .1 4-1.4 8.2-4 8.2zM77.7 75h-3l2.9-2c2.1-1.5 3.4-5 3.4-9.2 0-3.3-1.1-6.4-2.8-8h2.7v-1h-5c-3.2 0-5.4 3.9-5.4 9.6 0 5.6 2.7 9 5.4 9l-4.1 2.7v.3h5.5c2 0 3.3 1.5 3.3 4 0 2.7-2 5.2-4.2 5.2-1.7 0-3.2-.7-4.7-2.1l-.2-.2v.7c.2.1.3.3.5.4 1.1 1 2.2 2 4.8 2 2.9 0 5-2.7 5-6.4-.1-3.3-2.2-5-4.1-5zm-2.6-19.4c2.4 0 4.9 4.1 4.9 10.2 0 2.9-1.4 7-3.7 7-2.6 0-4.9-4.8-4.9-10.3.1-4 1.6-6.9 3.7-6.9zM89.6 45.9c0-.9-.4-1.5-.9-1.5s-.9.7-.9 1.5.4 1.5.9 1.5.9-.6.9-1.5zM84.6 55.8h3.6v17.4l-4.8 2.9v.4l5.3-1.2 5.5 1.2v-.4l-5-2.9V54.8h-4.6zM101.5 77c2.5 0 3.8-2.2 4.9-4.6l-.2-.5-.1.3c-1.2 2.3-2.4 3.4-3.9 3.4-3.4 0-5.6-4.9-5.6-12.1 0-4.7 1.9-8.3 4.3-8.3 2.1 0 3.6 2.8 4.2 7.7.1.8.1 1.9.1 1.9v.1h.9V52.5h-.4l-.5 4.9c-.6-1.2-1.8-3.1-3.8-3.1-3.4 0-5.6 4.6-5.6 11.7 0 7.5 3 11 5.7 11zM121.6 73.7l.1-.4-3.8.9V62.8c0-5.4-1.4-8.5-4-8.5s-4.1 2.9-5 5.3l.2.5.1-.3c1.2-3.1 2.5-4.4 4.4-4.4 2 0 3.2 2.9 3.2 7.3V64l-7.8 3.3h-.1v.1c-.3.7-.6 2.2-.6 3.6 0 3 1.1 6.1 3.6 6.1 2 0 3.9-1.5 4.8-3.8v3.9l4.9-3.5zm-8.8 1.6c-1.6 0-3.8-2-3.8-5.5V69l7.8-4.6v7.7c-.7 1.9-2.4 3.2-4 3.2zM122.1 76.1v.4l5.3-1.2 5.5 1.2v-.4l-5-2.9V44.9h-4.6v.9h3.6v27.4zM143.8 45.6h5.3v27.6l-4.2 2.9v.4l4.7-1.2 4.6 1.2v-.4l-4-2.9V45.6h5.4l1 12.8v.1h.4V44.9h-14.7v13.6h.4zM167.8 76.2v.4l3.7-1.2 4.8 1.2v-.4l-4.3-3V62.3c0-4.9-1.6-8-4.2-8-1.9 0-3.4 1.7-4.2 4.9V44.9h-4.3v1h3.3v27.3l-4 2.9h-.1v.4l4.6-1.2 3.7 1.1h.2V76l-3.4-3V60.7c1.1-4 2.4-4.8 4-4.8 2.1 0 3.3 3 3.3 7.8v9.6l-3.1 2.9zM177.2 76.1v.4l5.3-1.2 5.5 1.2v-.4l-5-2.9V54.8h-4.6v1h3.6v17.4zM183.4 45.9c0-.9-.4-1.5-.9-1.5s-.9.7-.9 1.5.4 1.5.9 1.5.9-.6.9-1.5zM202.3 62.3c0-4.9-1.6-8-4.2-8-1.9 0-3.4 1.7-4.2 4.9v-4.4h-4.3v1h3.3v17.3l-4 2.9h-.1v.4l4.6-1.2 3.7 1.1h.2v-.4l-3.4-3V60.7c1.1-4 2.4-4.8 4-4.8 2.1 0 3.3 3 3.3 7.8v9.6l-3.2 3v.4l3.7-1.2 4.8 1.2v-.4l-4.3-3v-11zM214.7 76.5v-.4l-3.4-2.9v-5.4l1.3-2.5 4.3 8.2-1.7 2.7v.4l2.8-1.3 4.2 1.2v-.4l-4-2.7-4.9-9.4 4.4-8.2h2.3v-1h-5.9v1h2.9l-5.7 10.8V44.9h-4v.9h3v27.4l-3.3 3v.3l3.8-1.2zM226.9 45.9c0 .8.4 1.5.9 1.5s.9-.6.9-1.5-.4-1.5-.9-1.5-.9.7-.9 1.5zM228.4 54.8h-4.6v1h3.5v17.4l-4.8 2.9v.4l5.3-1.2 5.5 1.2v-.4l-4.9-2.9zM247.7 62.3c0-4.9-1.6-8-4.2-8-1.9 0-3.4 1.7-4.2 4.9v-4.4H235v1h3.3v17.3l-4 2.9h-.1v.4l4.6-1.2 3.7 1.1h.2v-.4l-3.4-3V60.7c1.1-4 2.4-4.8 4-4.8 2.1 0 3.3 3 3.3 7.8v9.6l-3.2 3v.4l3.7-1.2 4.8 1.2v-.4l-4.3-3v-11zM258.7 73.5l-4.1 2.7v.3h5.5c2 0 3.3 1.5 3.3 4 0 2.7-2 5.2-4.2 5.2-1.7 0-3.2-.7-4.7-2.1l-.2-.2v.6c.2.1.3.3.5.4 1.1 1 2.2 2 4.8 2 2.9 0 5-2.7 5-6.4 0-3.3-2.1-5-4-5h-3l2.9-2c2.1-1.5 3.4-5 3.4-9.2 0-3.3-1.1-6.4-2.8-8h2.7v-1h-5c-3.2 0-5.4 3.9-5.4 9.6-.1 5.7 2.6 9 5.3 9.1zm-.8-17.9c2.4 0 4.9 4.1 4.9 10.2 0 2.9-1.4 7-3.7 7-2.6 0-4.9-4.8-4.9-10.3.1-4 1.7-6.9 3.7-6.9zM6.8 88.7c0-.9-.4-1.5-.9-1.5s-.9.7-.9 1.5.4 1.5.9 1.5.9-.6.9-1.5zM.6 118.9v.4l5.3-1.2 5.5 1.2v-.4l-5-3V97.6H1.8v1h3.6v17.3zM30 118.9l-4.3-3v-10.8c0-4.9-1.6-8-4.2-8-1.9 0-3.4 1.7-4.2 4.9v-4.4H13v1h3.3v17.3l-4 2.9h-.1v.4l4.6-1.2 3.7 1.1h.2v-.4l-3.4-3v-12.5c1.1-4 2.4-4.8 4-4.8 2.1 0 3.3 3 3.3 7.8v9.6l-3.2 3v.4l3.7-1.2 4.8 1.2v-.3zM54.1 110.6c0-4.5-2.3-7.2-4.8-7.7 2.1-.7 3.6-3.6 3.6-7.5 0-6.4-3.5-7.7-6.5-7.7h-7.8v.3l4.1 2v26.8l-4.4 2.1h-.1v.4h8.2c5.3 0 7.7-2.7 7.7-8.7zm-10.4-8V88.4h2.8c3.2 0 5.2 2.6 5.2 7 0 6.7-3.3 7.2-6.3 7.2h-1.7zm0 .7H46c3.5 0 7 2.3 7 7.3 0 5.5-2 8-6.3 8h-2.9v-15.3zM62.1 97.1c-3.6 0-6 4.7-6 11.7 0 6.5 2.4 11 5.9 11 3.2 0 5.8-5.3 5.8-11.9-.1-5.2-1.8-10.8-5.7-10.8zm.7 21.3c-3.4 0-5.8-5-5.8-11.9 0-5.7 2.2-8.3 4.2-8.3 3.4 0 5.6 4.7 5.6 12 0 4.1-1.5 8.2-4 8.2zM70.3 97.6v1h2.6V116l-3.4 2.9v.4l4-1.2 4.3 1.2v-.4l-3.7-3V105c.7-4 1.8-5.5 4-5.5h.3v-2.4h-.1s-.3-.1-.4-.1c-1.6.1-3.1 2.9-3.8 5.9v-5.4h-3.8zM91.6 87.7h-3.7v.9h2.7v9.7c-.9-.8-1.9-1.2-3-1.2-4.1 0-6.3 5.9-6.5 11.8-.1 4 1 8 2.8 9.8.7.7 1.4 1 2.1 1 1.8 0 3.5-1.4 4.6-3.8v3.5l4.4-3.1h.1v-.4l-3.4.8v-29zM82 107.1c0-5.2 2-8.9 4.7-8.9 1.5 0 2.9 1 3.8 2.6v14.1c-.5 1.3-1.7 3.3-3.6 3.3-3 .1-4.9-4.2-4.9-11.1zM107.6 115.2l-.2-.5-.1.2c-1.2 2.4-2.5 3.5-3.9 3.5-3.2 0-5.6-5.1-5.6-12.2v-.1l9.3.6h.1v-.1c.1-3.5-.8-6.7-2.4-8.4-.7-.7-1.5-1.1-2.3-1.1-3.4 0-5.6 4.6-5.6 11.7 0 7.5 2.9 11 5.7 11 2.6-.1 3.8-2.2 5-4.6zm-5.9-16.9c1.9 0 3.6 2.2 4.3 5.6 0 .2.1.7.1 1.1l-8.2.7c.1-4.3 1.7-7.4 3.8-7.4zM117.3 97.1c-1.6.1-3.1 2.9-3.8 5.9v-5.4h-3.6v1h2.6V116l-3.4 2.9v.4l4-1.2 4.3 1.2v-.4l-3.7-3V105c.7-4 1.8-5.5 4-5.5h.3v-2.4h-.1c-.2.1-.5 0-.6 0zM141.5 87.7h-12.4V104h.4l.9-15.6h9.5l-11.8 30.5-.1.4h13v-16.4h-.3l-1 15.7h-10.2l11.9-30.8zM155.1 107.9c0-5.2-1.8-10.8-5.6-10.8-3.6 0-6 4.7-6 11.7 0 6.5 2.4 11 5.9 11 3.1-.1 5.7-5.4 5.7-11.9zm-4.9 10.5c-3.4 0-5.8-5-5.8-11.9 0-5.7 2.2-8.3 4.2-8.3 3.4 0 5.6 4.7 5.6 12 0 4.1-1.5 8.2-4 8.2zM161.9 103.5c1.1-4 2.4-4.8 4-4.8 2.1 0 3.3 3 3.3 7.8v9.6l-3.2 3v.4l3.7-1.2 4.8 1.2v-.4l-4.3-3v-10.8c0-4.9-1.6-8-4.2-8-1.9 0-3.4 1.7-4.2 4.9v-4.4h-4.3v1h3.3v17.3l-4 2.9h-.1v.4l4.6-1.2 3.7 1.1h.2v-.4l-3.4-3v-12.4zM186.2 114.9c-1.2 2.4-2.5 3.5-3.9 3.5-3.2 0-5.6-5.1-5.6-12.2v-.1l9.3.6h.1v-.1c.1-3.5-.8-6.7-2.4-8.4-.7-.7-1.5-1.1-2.3-1.1-3.4 0-5.6 4.6-5.6 11.7 0 7.5 2.9 11 5.7 11 2.5 0 3.8-2.2 4.9-4.6l-.2-.5v.2zm-5.6-16.6c1.9 0 3.6 2.2 4.3 5.6 0 .2.1.7.1 1.1l-8.2.7c.1-4.3 1.7-7.4 3.8-7.4zM189.6 116.7c.9 1.5 2.2 3 4.1 3 2.2 0 4.6-2 4.6-6.3 0-3.2-2.4-4.7-3.9-5.7l-.6-.4c-1.6-.9-3.9-2.4-4.3-4.5-.2-1.4.2-2.9 1-3.8.6-.7 1.4-1 2.3-1 2 0 3.9 2.8 4.3 6.2l.2 1.9h.8l-.4-8.8v-.1h-.4l-.4 2.6c-.9-1.2-2.2-2.6-3.7-2.6-2.2 0-4.4 2-4.4 5.9 0 3.2 2.1 4.5 3.8 5.6.2.1.3.2.5.3.1.1.2.1.4.2 1.5.9 3.8 2.4 4.1 4.8.2 1.6-.2 3-1 3.9-.6.6-1.3 1-2.2 1-2.6 0-4.5-3.1-4.8-7.7-.1-.7-.1-1.3-.1-1.6v-.1h-.7l-.2 10v.1h.4l.6-2.9zM7 133.7h-.4L.2 151.2v.1l.3.2L6 138.6v24l-5.6 2.8H.3v.4l6.2-1.2 5.5 1.2v-.4l-5-2.8zM20.6 149c1.7-1.2 3.4-4.2 3.4-7.5 0-3.8-1.3-7.8-4.8-7.8s-5 3.5-5 7c0 4 1.9 6.1 3.7 7.8-2.2 1-4.7 3.8-4.7 8.5 0 5.7 2.2 9.2 6 9.2 3.6 0 5.8-4.3 5.8-8.2-.1-5.2-2.5-7.3-4.4-9zm-1.4.7c2.4 2.1 4.6 4 4.6 8.5 0 3.3-1.8 6.7-4.9 6.7-3.5 0-5.2-4-5.2-7.8 0-4.2 2.4-7 4.6-8l.9.6zm.8-1.2c-.3-.2-.5-.4-.8-.7l-.2-.2c-2.3-2.1-3.9-3.6-3.9-7.1 0-2.8 1.3-5.7 4.1-5.7 2.4 0 4.1 2.7 4.1 6.4.1 3.3-1.7 6.3-3.3 7.3zM29.2 147.5c-.5 0-.9.7-.9 1.5s.4 1.5.9 1.5.9-.6.9-1.5-.4-1.5-.9-1.5zM39.8 133.7c-3.7 0-6.2 6.8-6.2 16.8 0 9.3 2.5 15.7 6.1 15.7 3.3 0 6-7.6 6-16.9 0-7.8-2-15.6-5.9-15.6zm-.5 1.5c3.5 0 5.5 6.1 5.5 16.8 0 6-1.4 12.6-4.5 12.6-3.5 0-5.7-6.3-5.7-16.4-.1-8.3 1.7-13 4.7-13zM53.6 144.8c-2.4 0-4 1.5-5 4.6l.9-13.6h7.2l.7 7.5v.1h.4v-9.2h-8.9L47.8 153v.1h.3v-.1c.7-3 1.9-7 5.2-7 3.2 0 4.7 5.3 4.7 9.1 0 5.9-2.2 10-5.3 10-3 0-4.4-3.4-4.9-5.5l-.1-.2-.3.4v.1c.8 3 2.1 6.4 5.3 6.4 3.8 0 6.5-4.6 6.5-11.1-.2-5.1-2.1-10.4-5.6-10.4z"
  />
  <ellipse class="st0" cx="63.3" cy="149" rx=".9" ry="1.5" />
  <path
    class="st0"
    d="M78.2 164.2h-8.5l5.6-9.7c2.8-4.8 3.9-8.2 3.9-11.6 0-5.5-2.1-9.2-5.1-9.2-2.4 0-4 2.8-4.7 5.4l-.5-4.9h-.4v14.2h.8v-.1c0-6.6 1.4-13.8 4.6-13.8 2.3 0 4.1 3.7 4.1 8.4 0 3.8-1.1 7.5-3.5 11.7l-6.3 10.9v.3h11.4v-11h-.4l-1 9.4zM87.6 133.7h-.3l-6.4 17.5-.1.1.3.2 5.5-12.9v24l-5.6 2.8h-.1v.4l6.2-1.2 5.5 1.2v-.4l-5-2.8zM110.4 130.8c-.3 0-.7.5-.8.7-.9 4.3-1.9 8.6-2.8 13-1.7 8-3.5 16.2-5.3 24.1-.1.6-.1.8 0 .9.1.1.2.1.2.1.3 0 .6-.5.8-.9.5-1.8 2.7-12 4.8-21.9 1.1-5.2 2.3-10.6 3.2-14.7.2-.8.2-1 .1-1.2-.1-.1-.1-.1-.2-.1zM126.5 133.7h-.4l-6.4 17.5v.1l.3.2 5.4-12.9v24l-5.6 2.8v.4l6.2-1.2 5.5 1.2v-.4l-5-2.8zM139 133.7c-3.7 0-6.2 6.8-6.2 16.8 0 9.3 2.5 15.7 6.1 15.7 3.3 0 6-7.6 6-16.9-.1-7.8-2.1-15.6-5.9-15.6zm-.6 1.5c3.5 0 5.5 6.1 5.5 16.8 0 6-1.4 12.6-4.5 12.6-3.5 0-5.7-6.3-5.7-16.4 0-8.3 1.7-13 4.7-13zM148 163.3c-.5 0-.9.7-.9 1.5s.4 1.5.9 1.5.9-.6.9-1.5-.3-1.5-.9-1.5zM157.5 133.7c-3.7 0-6.2 6.8-6.2 16.8 0 9.3 2.5 15.7 6.1 15.7 3.3 0 6-7.6 6-16.9 0-7.8-2.1-15.6-5.9-15.6zm-.6 1.5c3.5 0 5.5 6.1 5.5 16.8 0 6-1.4 12.6-4.5 12.6-3.5 0-5.7-6.3-5.7-16.4 0-8.3 1.7-13 4.7-13zM172 133.7c-3.7 0-6.2 6.8-6.2 16.8 0 9.3 2.5 15.7 6.1 15.7 3.3 0 6-7.6 6-16.9 0-7.8-2-15.6-5.9-15.6zm-.6 1.5c3.5 0 5.5 6.1 5.5 16.8 0 6-1.4 12.6-4.5 12.6-3.5 0-5.7-6.3-5.7-16.4 0-8.3 1.7-13 4.7-13zM199.3 148.8h-10.8c-.1 0-.3.1-.4.3-.1.3-.2.9-.2 1 0 .3.2.4.6.4l10.5-.1c.1 0 .3-.1.4-.3.1-.3.2-.7.2-1 0-.2-.1-.3-.3-.3zM215.3 133.7h-.3l-6.5 17.5v.1l.3.2 5.5-12.9v24l-5.6 2.8h-.1v.4l6.2-1.2 5.5 1.2v-.4l-5-2.8zM228.9 149c1.7-1.2 3.4-4.2 3.4-7.5 0-3.8-1.3-7.8-4.8-7.8s-5 3.5-5 7c0 4 1.9 6.1 3.7 7.8-2.2 1-4.7 3.8-4.7 8.5 0 5.7 2.2 9.2 6 9.2 3.6 0 5.8-4.3 5.8-8.2-.1-5.2-2.4-7.3-4.4-9zm-1.4.7c2.4 2.1 4.6 4 4.6 8.5 0 3.3-1.8 6.7-4.9 6.7-3.5 0-5.2-4-5.2-7.8 0-4.2 2.4-7 4.6-8l.9.6zm.8-1.2c-.3-.2-.5-.4-.8-.7l-.2-.2c-2.3-2.1-3.9-3.6-3.9-7.1 0-2.8 1.3-5.7 4.1-5.7 2.4 0 4.1 2.7 4.1 6.4.1 3.3-1.6 6.3-3.3 7.3z"
  />
  <ellipse class="st0" cx="236.3" cy="164.7" rx=".9" ry="1.5" />
  <path
    class="st0"
    d="M245.7 133.7c-3.7 0-6.2 6.8-6.2 16.8 0 9.3 2.5 15.7 6.1 15.7 3.3 0 6-7.6 6-16.9 0-7.8-2-15.6-5.9-15.6zm-.5 1.5c3.5 0 5.5 6.1 5.5 16.8 0 6-1.4 12.6-4.5 12.6-3.5 0-5.7-6.3-5.7-16.4-.1-8.3 1.7-13 4.7-13zM260.3 133.7c-3.7 0-6.2 6.8-6.2 16.8 0 9.3 2.5 15.7 6.1 15.7 3.3 0 6-7.6 6-16.9 0-7.8-2.1-15.6-5.9-15.6zm-.6 1.5c3.5 0 5.5 6.1 5.5 16.8 0 6-1.4 12.6-4.5 12.6-3.5 0-5.7-6.3-5.7-16.4 0-8.3 1.7-13 4.7-13z"
  />
</svg>
