<svg
  version="1.1"
  id="Layer_1"
  xmlns="http://www.w3.org/2000/svg"
  x="0"
  y="0"
  viewBox="0 0 1598 482"
  style="enable-background: new 0 0 1598 482"
  xml:space="preserve"
>
  <style>
    .st0 {
      fill: #fff;
    }
  </style>
  <path
    class="st0"
    d="M43.7 50.1h17.5v89.4l-13.3 9.3-.1.1v.9l15-3.7 14.6 3.7v-.9l-13.1-9.4V50.1h17.8l3.4 41.8h1V48.1H39.3v43.8h1zM112.4 151.3c8 0 12-6.9 15.8-14.6v-.1l-.4-1.1-.3.5c-4 7.7-8.1 11.3-12.8 11.3-10.5 0-18.1-16.6-18.1-39.5v-.6l30.3 2h.3v-.3c.4-11.3-2.5-21.7-7.6-26.9-2.2-2.3-4.7-3.5-7.2-3.5-11 0-18.1 14.7-18.1 37.4 0 24.3 9.4 35.4 18.1 35.4zm-15.8-45.1c.5-14 5.8-24.1 12.8-24.1 6.3 0 11.7 7.1 13.9 18.2.2.6.3 2.5.3 3.6l-27 2.3zM159.2 149.8v-1l-12.1-9.6V104c2.3-13.1 5.8-18 13.1-18h.9v-7.4h-.2s-.8-.2-1.3-.2c-5.4.3-10.5 10.3-12.5 20.4V80.3h-11.3v2.9h8.3v56.2l-11.2 9.6v1l12.7-3.8 13.6 3.6zM194.6 149.8v-1l-12.1-9.6V104c2.3-13.1 5.8-18 13.1-18h.9v-7.4h-.2s-.8-.2-1.3-.2c-5.4.3-10.5 10.3-12.5 20.4V80.3h-11.3v2.9h8.3v56.2l-11.1 9.5-.1.1v1l12.7-3.8 13.6 3.6zM224.5 151.3c8 0 12-6.9 15.8-14.6v-.1l-.4-1.1-.3.5c-4 7.7-8.1 11.3-12.8 11.3-10.5 0-18.1-16.6-18.1-39.5v-.6l30.3 2h.3v-.3c.4-11.3-2.5-21.7-7.6-26.9-2.2-2.3-4.7-3.5-7.2-3.5-11 0-18.1 14.7-18.1 37.4-.1 24.3 9.3 35.4 18.1 35.4zm-15.8-45.1c.5-14 5.8-24.1 12.8-24.1 6.3 0 11.7 7.1 13.9 18.2.2.6.3 2.5.3 3.6l-27 2.3zM278.3 131.2c0-10.4-7.6-15-12.6-18.1-.3-.2-.7-.4-1-.6l-1-.6c-5.1-3.1-12.8-7.7-13.9-14.7-.7-4.6.5-9.4 3.1-12.4 1.9-2.2 4.5-3.4 7.4-3.4 6.4 0 12.8 9.1 14.1 20l.7 6.1h2.1L276 78.7h-.9l-1.2 8.5c-3-4.1-7.3-8.7-11.9-8.7-7 0-14.1 6.4-14.1 18.8 0 10.3 6.7 14.5 12 17.9.6.3 1.1.7 1.6 1 .4.2.8.5 1.2.7 4.9 3 12.2 7.6 13.2 15.8.6 5.1-.5 9.7-3.2 12.7-1.8 2.1-4.3 3.2-7.1 3.2-8.4 0-14.7-10-15.6-24.8-.2-2.3-.2-4.2-.2-5v-.2h-2.1l-.6 32.3h.9l2-9.5c2.9 4.8 7.1 10 13.4 10 7.3-.1 14.9-6.4 14.9-20.2zM293.7 127.3c0 15.9 3.3 24 9.7 24 4.5 0 7.2-4 8.9-7l.1-.1-.4-1.1-.3.5c-1.2 2-3.4 4.4-7.7 4.4-4.5 0-7.2-7.5-7.2-19.9V84.8l11.4 1.3v-5.9l-11.4 1V63.6h-3v18l-9.7.8v1l9.7 1.2v42.7zM344.3 86.1h.9v-7.4h-.2s-.8-.2-1.3-.2c-5.4.3-10.5 10.3-12.5 20.4V80.3h-11.3v2.9h8.3v56.2L317 149v1l12.7-3.8 13.6 3.8v-1l-12.1-9.6v-35.2c2.2-13.2 5.8-18.1 13.1-18.1zM386.6 149.8h.3v-.9l-16-9.6v-59h-14.5v2.8h11.4v56.2l-15.3 9.5-.1.1v.9l17-3.7zM369.3 55.8c1.7 0 2.8-1.9 2.8-4.6 0-2.8-1.1-4.6-2.8-4.6-1.6 0-2.8 2-2.8 4.6 0 2.6 1.2 4.6 2.8 4.6zM393.9 120.2l-.1.1c-.9 2.3-1.8 7.3-1.8 11.5 0 9.7 3.5 19.4 11.4 19.4 6.5 0 12.8-5.2 15.6-12.9v13.1l15.1-10.7.1-.1v-.9l-12.2 2.9v-36.9c0-17.3-4.6-27.2-12.6-27.2-8.4 0-13 9.2-16.1 17.2v.1l.6 1.3.2-.6c3.9-9.9 8.4-14.3 14.4-14.3 6.4 0 10.5 9.3 10.5 23.7v3.7l-25.1 10.6zm12 26c-5.1 0-12.5-6.4-12.5-17.9 0-.9 0-1.8.1-2.5l25.5-15V136c-2.3 5.9-7.7 10.2-13.1 10.2zM470.3 149.8h.3v-.9l-16.1-9.6V48.1h-14.6v2.7h11.6v88.5l-15.3 9.5-.2.1v.9l17-3.7zM524.9 149.8l.3.1v-1l-12.6-9.9 6.2-31h22l6.9 31-12.7 9.9v1l14.3-3.8 14.1 3.8v-1l-12.4-10-21-94.1-.3-1.2-18.9 95.3-13.2 9.9v1l13.2-3.8 14.1 3.8zm-5.8-43.8 9.9-50.4 11.2 50.4h-21.1zM570.1 141.3c2.9 4.8 7.1 10 13.4 10 7.1 0 14.7-6.3 14.7-20.1 0-10.4-7.6-15-12.6-18.1-.3-.2-.7-.4-1-.6l-1-.6c-5.1-3.1-12.8-7.7-13.9-14.7-.7-4.6.5-9.4 3.1-12.4 1.9-2.2 4.5-3.4 7.4-3.4 6.4 0 12.8 9.1 14.1 20l.7 6.1h2.1l-1.3-28.6h-.8l-1.2 8.5c-3-4.1-7.3-8.7-11.9-8.7-7 0-14.1 6.4-14.1 18.8 0 10.3 6.7 14.5 12 17.9.6.3 1.1.7 1.6 1 .4.2.8.5 1.2.7 4.9 3 12.2 7.6 13.2 15.8.6 5.1-.5 9.7-3.2 12.7-1.8 2.1-4.3 3.2-7.1 3.2-8.4 0-14.7-10-15.6-24.8-.2-2.3-.2-4.2-.2-5v-.2h-2.1l-.6 32.3h.9l2.2-9.8zM609.1 141.3c2.9 4.8 7.1 10 13.4 10 7.1 0 14.7-6.3 14.7-20.1 0-10.4-7.6-15-12.6-18.1-.3-.2-.7-.4-1-.6l-1-.6c-5.1-3.1-12.8-7.7-13.9-14.7-.7-4.6.5-9.4 3.1-12.4 1.9-2.2 4.5-3.4 7.4-3.4 6.4 0 12.8 9.1 14.1 20l.7 6.1h2.1l-1.3-28.6h-.8l-1.2 8.5c-3-4.1-7.3-8.7-11.9-8.7-7 0-14.1 6.4-14.1 18.8 0 10.3 6.7 14.5 12 17.9.6.3 1.1.7 1.6 1 .4.2.8.5 1.2.7 4.9 3 12.2 7.6 13.2 15.8.6 5.1-.5 9.7-3.2 12.7-1.8 2.1-4.3 3.2-7.1 3.2-8.4 0-14.7-10-15.6-24.8-.2-2.3-.2-4.2-.2-5v-.2h-2.1l-.6 32.3h.9l2.2-9.8zM663.7 151.3c8 0 12-6.9 15.8-14.6v-.1l-.4-1.1-.3.5c-4 7.7-8.1 11.3-12.8 11.3-10.5 0-18.1-16.6-18.1-39.5v-.6l30.3 2h.3v-.3c.4-11.3-2.5-21.7-7.6-26.9-2.2-2.3-4.7-3.5-7.2-3.5-11 0-18.1 14.7-18.1 37.4-.1 24.3 9.3 35.4 18.1 35.4zm-15.8-45.1c.5-14 5.8-24.1 12.8-24.1 6.3 0 11.7 7.1 13.9 18.2.2.6.3 2.5.3 3.6l-27 2.3zM711.5 149.9v-1l-10.9-9.6V98.9c3.6-13.1 7.7-15.8 13.1-15.8 6.7 0 10.9 9.6 10.9 25.2v31l-10.3 9.6v1l11.8-3.8 12.3 3.8v-1l-10.8-9.6v-35.1c0-2-.1-4.1-.3-5.9C730.9 85.5 735 83 740.8 83c6.7 0 10.9 9.6 10.9 25.2v31l-10.3 9.6v1l11.8-3.8 15 3.7.3.1v-1l-13.8-9.6v-35c0-15.6-5.2-25.7-13.3-25.7-6.7 0-12 6.5-14.3 17.6-1.6-11-6.3-17.6-12.8-17.6-6.5 0-11.3 6-13.8 16.9V80.3H687v2.9h10.6v56.2l-13.1 9.5-.1.1v1l14.7-3.8 12.4 3.7zM804.9 140c3.6-6.9 5.7-16.3 6-26.5.4-13.1-3.2-25.8-9-31.7-2.1-2.2-4.3-3.2-6.7-3.2-8.3 0-13.1 8.9-14.9 13.1V48.1h-8.1v2.7h5.1v94l.1.1c4.4 4.1 7.9 6.5 12.6 6.5 5.9-.1 11.1-4 14.9-11.4zm-12.6-56.9c9.8 0 15.9 13.8 15.9 36.1 0 16.7-6.4 28.9-15.3 28.9-4.9 0-9.6-3.1-12.5-8.4V94c1.6-4.1 5.4-10.9 11.9-10.9zM836.1 48.1h-14.6v2.7h11.6v88.5l-15.4 9.5-.1.1v.9l17-3.7 17.3 3.7h.3v-.9l-16.1-9.6zM887.3 105.8c0-17.3-4.6-27.2-12.6-27.2-8.4 0-13 9.2-16.1 17.2v.1l.6 1.3.2-.6c3.9-9.9 8.4-14.3 14.4-14.3 6.4 0 10.5 9.3 10.5 23.7v3.7l-25.1 10.5h-.1v.1c-.9 2.3-1.8 7.3-1.8 11.5 0 9.7 3.5 19.4 11.4 19.4 6.5 0 12.8-5.2 15.6-12.9v13.1l15.2-10.8v-.9l-12.2 2.9v-36.8zm-16.1 40.4c-5.1 0-12.5-6.4-12.5-17.9 0-.9 0-1.8.1-2.5l25.5-15V136c-2.3 5.9-7.8 10.2-13.1 10.2zM939.9 161.3c0-10.4-6.6-16.1-12.9-16.1h-10.3l9.8-6.8c6.8-4.7 11-16 11-29.5 0-10.7-3.7-21-9.3-25.8h8.9v-2.9h-15.9c-10.4 0-17.4 12.4-17.4 30.9 0 18.1 8.8 28.9 17.4 28.9h.5l-13.6 8.8-.1.1v.9h17.7c6.6 0 10.7 5 10.7 13 0 8.7-6.6 16.9-13.6 16.9-5.4 0-10.5-2.2-15.4-6.8l-.4-.4v1.5l.1.1c.5.4 1 .9 1.5 1.3 3.5 3.2 7.2 6.5 15.2 6.5 9.4 0 16.1-8.7 16.1-20.6zM922.7 138c-8.4 0-15.8-15.5-15.8-33.2 0-13 5-22.5 11.9-22.5 7.8 0 16.1 13.2 16.1 32.9 0 9.5-4.7 22.8-12.2 22.8zM966.3 151.3c8 0 12-6.9 15.8-14.6v-.1l-.4-1.1-.3.5c-4 7.7-8.1 11.3-12.8 11.3-10.5 0-18.1-16.6-18.1-39.5v-.6l30.3 2h.3v-.3c.4-11.3-2.5-21.7-7.6-26.9-2.2-2.3-4.7-3.5-7.2-3.5-11 0-18.1 14.7-18.1 37.4 0 24.3 9.4 35.4 18.1 35.4zm-15.8-45.1c.5-14 5.8-24.1 12.8-24.1 6.3 0 11.7 7.1 13.9 18.2.2.6.3 2.5.3 3.6l-27 2.3zM991.7 91.9c1.7 0 2.8-1.9 2.8-4.6s-1.1-4.6-2.8-4.6c-1.6 0-2.8 2-2.8 4.6s1.3 4.6 2.8 4.6zM991.7 151.3c1.7 0 2.8-1.9 2.8-4.6 0-2.8-1.1-4.6-2.8-4.6-1.6 0-2.8 2-2.8 4.6.1 2.5 1.3 4.6 2.8 4.6zM85.2 246.9h-.9l-3.4 39H53v-50.8h16.4l5.3 24.1.8-.7-2.3-24.6 2.2-20.2v-.1l-.8-1-5.2 20.5H53v-45h26.6l3 32.6v.2h1v-34.8H36.5v.9l13.4 6.6v86.5l-13.4 6.8v.9h48.7zM127 274.6l-.4-1.1-.3.5c-3.8 7.5-7.8 11-12.6 11-11 0-18.3-15.7-18.3-39.1 0-15.2 6.2-27 14.1-27 9.4 0 12.6 15.7 13.7 25 .3 2.5.3 6 .3 6v.2h2.4v-39.4h-1l-1.8 16.3c-1.8-3.7-5.8-10.4-12.2-10.4-10.9 0-18 14.7-18 37.4 0 24.2 9.4 35.3 18.2 35.3 8.1 0 12.1-6.9 15.9-14.7zM153 289.3c10.2 0 18.4-17.1 18.4-38.1 0-9.1-1.6-17.6-4.6-23.9-3.3-7-7.9-10.7-13.4-10.7-11.5 0-19.2 15-19.2 37.4 0 20.8 7.8 35.3 18.8 35.3zm-16.4-42.5c0-18.4 7.2-26.8 13.9-26.8 11.1 0 18.3 15.2 18.3 38.8 0 13.1-5 26.7-13.3 26.7-11-.1-18.9-16.3-18.9-38.7zM177.2 286.8l-.1.1v.9l16.9-3.7 17.3 3.7h.3v-.9l-16-9.6v-91.2h-14.7v2.7h11.6v88.5zM236.5 216.6c-11.5 0-19.2 15-19.2 37.4 0 20.8 7.7 35.3 18.7 35.3 10.2 0 18.4-17.1 18.4-38.1 0-9.1-1.6-17.6-4.6-23.9-3.2-7-7.9-10.7-13.3-10.7zm15.3 42.1c0 13.1-5 26.7-13.3 26.7-11 0-18.9-16.2-18.9-38.6 0-18.4 7.2-26.8 13.9-26.8 11.1-.1 18.3 15.2 18.3 38.7zM285.8 283.2h-10.3l9.8-6.8c6.8-4.7 11-16 11-29.5 0-10.7-3.7-21-9.3-25.8h8.9v-2.9H280c-10.4 0-17.4 12.4-17.4 30.9 0 18.1 8.8 28.9 17.4 28.9h.5l-13.6 8.8-.1.1v.9h17.7c6.6 0 10.7 5 10.7 13 0 8.7-6.6 16.9-13.6 16.9-5.4 0-10.5-2.2-15.4-6.8l-.4-.4v1.5l.1.1c.5.4 1 .9 1.5 1.3 3.5 3.2 7.2 6.5 15.2 6.5 9.3 0 16.1-8.7 16.1-20.6 0-10.4-6.7-16.1-12.9-16.1zm-4.4-7.2c-8.4 0-15.8-15.5-15.8-33.2 0-13 5-22.5 11.9-22.5 7.8 0 16.1 13.2 16.1 32.9 0 9.5-4.6 22.8-12.2 22.8zM322.8 218.3h-14.5v2.8h11.5v56.2l-15.4 9.5-.1.1v.9l17-3.7 17.3 3.7h.3v-.9l-16.1-9.6zM324 189.2c0-2.8-1.1-4.6-2.8-4.6-1.6 0-2.8 2-2.8 4.6 0 2.6 1.2 4.6 2.8 4.6 1.7 0 2.8-1.8 2.8-4.6zM378.4 274.7l-.4-1.2-.3.5c-3.7 7.5-7.8 11-12.6 11-11 0-18.3-15.7-18.3-39.1 0-15.2 6.2-27 14.1-27 9.4 0 12.6 15.7 13.7 25 .3 2.5.3 6 .3 6v.2h2.4v-39.4h-1l-1.8 16.3c-1.8-3.7-5.8-10.4-12.2-10.4-10.9 0-18 14.7-18 37.4 0 24.2 9.4 35.3 18.2 35.3 8.1 0 12.2-6.9 15.9-14.6zM427.4 278.7v-.9l-12.2 2.9v-36.9c0-17.3-4.6-27.2-12.6-27.2-8.4 0-13 9.2-16.1 17.2v.1l.6 1.3.2-.6c3.9-9.9 8.4-14.3 14.4-14.3 6.4 0 10.5 9.3 10.5 23.7v3.7l-25.1 10.5h-.1v.1c-.9 2.3-1.8 7.3-1.8 11.5 0 9.7 3.5 19.4 11.4 19.4 6.5 0 12.8-5.2 15.6-12.9v13.1l15.2-10.7zm-28.3 5.5c-5.1 0-12.5-6.4-12.5-17.9 0-.9 0-1.8.1-2.5l25.5-15V274c-2.3 5.9-7.8 10.2-13.1 10.2zM429.4 286.8l-.2.1v.9l17-3.7 17.3 3.7h.3v-.9l-16.1-9.6v-91.2h-14.6v2.7h11.6v88.5zM532.6 286.9l-13.2-9.4v-89.4h17.8l3.5 41.8h.9v-43.8h-47.2v43.8h1l3.4-41.8h17.5v89.4l-13.3 9.3-.1.1v.9l15-3.7 14.7 3.7zM576.7 286.9v1l11.8-3.8 15 3.7.3.1v-1l-13.8-9.6v-35c0-15.6-5.2-25.7-13.3-25.7-6.5 0-11.3 6-13.8 16.9v-47.4h-13.6v2.9H560v88.3l-13.1 9.5-.1.1v1l14.7-3.8 12.4 3.8v-1l-10.9-9.6v-40.4c3.7-13.1 7.7-15.8 13.1-15.8 6.7 0 10.9 9.6 10.9 25.2v31l-10.3 9.6zM621 189.2c0 2.6 1.2 4.6 2.8 4.6 1.7 0 2.8-1.9 2.8-4.6 0-2.8-1.1-4.6-2.8-4.6-1.6 0-2.8 2-2.8 4.6zM625.4 218.3h-14.5v2.8h11.5v56.2l-15.4 9.5-.1.1v.9l17-3.7 17.2 3.7h.3v-.9l-16-9.6zM687.8 242.2c0-15.6-5.2-25.7-13.3-25.7-6.5 0-11.3 6-13.8 16.9v-15.3h-13.6v2.9h10.6v56.2l-13.1 9.5-.1.1v1l14.7-3.8 12.4 3.8v-1l-10.9-9.6v-40.4c3.7-13.1 7.7-15.8 13.1-15.8 6.7 0 10.9 9.6 10.9 25.2v31l-10.3 9.6v1l11.8-3.8 15 3.7.3.1v-1l-13.8-9.6v-35zM727.7 287.9v-1l-11-9.6V260l4.4-8.5 14.1 26.9-5.6 8.5v1l8.7-4 13.7 3.9v-.9l-12.9-9-16-30.3 14.2-26.5h7.4v-2.8h-18.6v2.8h9.3l-18.7 35.5v-70.5h-12.5v2.7h9.4v88.5l-10.6 9.6v1l12.1-3.8zM771.7 218.3h-14.5v2.8h11.5v56.2l-15.4 9.5-.1.1v.9l17-3.7 17.3 3.7h.3v-.9l-16.1-9.6zM767.3 189.2c0 2.6 1.2 4.6 2.8 4.6 1.7 0 2.8-1.9 2.8-4.6 0-2.8-1.1-4.6-2.8-4.6-1.6 0-2.8 2-2.8 4.6zM834.1 242.2c0-15.6-5.2-25.7-13.3-25.7-6.5 0-11.3 6-13.8 16.9v-15.3h-13.6v2.9H804v56.2l-13.1 9.5-.1.1v1l14.7-3.8 12.4 3.8v-1l-10.9-9.6v-40.4c3.6-13.1 7.7-15.8 13.1-15.8 6.7 0 10.9 9.6 10.9 25.2v31l-10.3 9.6v1l11.8-3.8 15 3.7.3.1v-1l-13.8-9.6v-35zM885.7 218.3h-15.9c-10.4 0-17.4 12.4-17.4 30.9 0 18.1 8.8 28.9 17.4 28.9h.5l-13.6 8.8-.1.1v.9h17.7c6.6 0 10.7 5 10.7 13 0 8.7-6.6 16.9-13.6 16.9-5.4 0-10.5-2.2-15.4-6.8l-.4-.4v1.5l.1.1c.5.4 1 .9 1.5 1.3 3.5 3.2 7.2 6.5 15.2 6.5 9.3 0 16.1-8.7 16.1-20.6 0-10.4-6.6-16.1-12.9-16.1h-10.3l9.8-6.8c6.8-4.7 11-16 11-29.5 0-10.7-3.7-21-9.3-25.8h8.9v-2.9zm-2.3 34.9c0 9.5-4.6 22.8-12.2 22.8-8.4 0-15.8-15.5-15.8-33.2 0-13 5-22.5 11.9-22.5 7.8 0 16.1 13.2 16.1 32.9zM938.1 218.3h-14.5v2.8h11.5v56.2l-15.4 9.5-.1.1v.9l17-3.7 17.2 3.7h.3v-.9l-16-9.6zM933.7 189.2c0 2.6 1.2 4.6 2.8 4.6 1.7 0 2.8-1.9 2.8-4.6 0-2.8-1.1-4.6-2.8-4.6-1.6 0-2.8 2-2.8 4.6zM1000.4 242.2c0-15.6-5.2-25.7-13.3-25.7-6.5 0-11.3 6-13.8 16.9v-15.3h-13.6v2.9h10.6v56.2l-13.1 9.5-.1.1v1l14.7-3.8 12.4 3.8v-1l-10.9-9.6v-40.4c3.7-13.1 7.7-15.8 13.1-15.8 6.7 0 10.9 9.6 10.9 25.2v31l-10.3 9.6v1l11.8-3.8 15 3.7.3.1v-1l-13.8-9.6v-35zM1076.1 235.1c7.2-1.8 12-11.3 12-24.4 0-16.1-7.2-24.7-20.7-24.7h-25.2v.9l13.1 6.6V280l-14.4 6.7v.9h26.2c17.4 0 24.8-8.3 24.8-27.9.1-14.7-7.5-23.2-15.8-24.6zm12.4 24.8c0 17.7-6.5 26-20.6 26h-9.4v-49.7h7.3c11.3.1 22.7 7.4 22.7 23.7zm-4-49.1c0 21.7-10.6 23.5-20.6 23.5h-5.4v-46.1h9.2c10.5-.1 16.8 8.4 16.8 22.6zM1118 216.6c-11.5 0-19.2 15-19.2 37.4 0 20.8 7.7 35.3 18.7 35.3 10.2 0 18.4-17.1 18.4-38.1 0-9.1-1.6-17.6-4.6-23.9-3.2-7-7.8-10.7-13.3-10.7zm15.3 42.1c0 13.1-5 26.7-13.3 26.7-11 0-18.9-16.2-18.9-38.6 0-18.4 7.2-26.8 13.9-26.8 11.1-.1 18.3 15.2 18.3 38.7zM1168.3 216.6c-5.4.3-10.5 10.3-12.5 20.4v-18.7h-11.3v2.9h8.3v56.2l-11.2 9.6v1l12.7-3.8 13.6 3.8v-1l-12.1-9.6v-35.2c2.3-13.1 5.8-18 13.1-18h.9v-7.4h-.2c0-.1-.8-.2-1.3-.2zM1212.8 186.1H1201v2.7h8.8v31.7c-3-2.6-6.2-3.9-9.7-3.9-13 0-20.3 19.1-20.9 37.9-.4 13 3.2 25.7 8.9 31.5 2.1 2.2 4.4 3.3 6.7 3.3 8.4 0 13.1-8.8 14.9-12.9V288l13.9-9.7.1-.1v-1l-11 2.7v-93.8zm-14.9 98.8c-9.8 0-15.9-13.8-15.9-36.1 0-16.7 6.4-28.9 15.3-28.9 4.9 0 9.6 3.1 12.5 8.4V274c-1.7 4.1-5.4 10.9-11.9 10.9zM1263.9 273.9c-4 7.7-8.1 11.3-12.8 11.3-10.5 0-18.1-16.6-18.1-39.5v-.6l30.3 2h.3v-.3c.4-11.3-2.5-21.7-7.6-26.9-2.2-2.3-4.7-3.5-7.2-3.5-11 0-18.1 14.7-18.1 37.4 0 24.2 9.4 35.3 18.2 35.3 8 0 12-6.9 15.8-14.6v-.1l-.4-1.1-.4.6zm-30.9-29.7c.5-14 5.8-24.1 12.8-24.1 6.3 0 11.7 7.1 13.9 18.2.2.6.3 2.5.3 3.6l-27 2.3zM1296 216.6c-5.4.3-10.5 10.3-12.5 20.4v-18.7h-11.3v2.9h8.3v56.2l-11.2 9.6v1l12.7-3.8 13.6 3.8v-1l-12.1-9.6v-35.2c2.3-13.1 5.8-18 13.1-18h.9v-7.4h-.2c0-.1-.8-.2-1.3-.2zM1334.2 238.4h.9l3-50.3h31.1l-38.3 98.8-.1.9h41.7v-52.5h-1l-2.9 50.6h-33.3l38.3-99.5.2-.3h-39.6zM1400 216.6c-11.5 0-19.2 15-19.2 37.4 0 20.8 7.7 35.3 18.7 35.3 10.2 0 18.4-17.1 18.4-38.1 0-9.1-1.6-17.6-4.6-23.9-3.2-7-7.8-10.7-13.3-10.7zm15.3 42.1c0 13.1-5 26.7-13.3 26.7-11 0-18.9-16.2-18.9-38.6 0-18.4 7.2-26.8 13.9-26.8 11.1-.1 18.3 15.2 18.3 38.7zM1466.9 242.2c0-15.6-5.2-25.7-13.3-25.7-6.5 0-11.3 6-13.8 16.9v-15.3h-13.6v2.9h10.6v56.2l-13.1 9.5-.1.1v1l14.7-3.8 12.4 3.8v-1l-10.9-9.6v-40.4c3.7-13.1 7.7-15.8 13.1-15.8 6.7 0 10.9 9.6 10.9 25.2v31l-10.3 9.6v1l11.8-3.8 15 3.7.3.1v-1l-13.8-9.6v-35zM1518.5 273.9c-4 7.7-8.1 11.3-12.8 11.3-10.5 0-18.1-16.6-18.1-39.5v-.6l30.3 2h.3v-.3c.4-11.3-2.5-21.7-7.6-26.9-2.2-2.3-4.7-3.5-7.2-3.5-11 0-18.1 14.7-18.1 37.4 0 24.2 9.4 35.3 18.2 35.3 8 0 12-6.9 15.8-14.6v-.1l-.4-1.1-.4.6zm-30.9-29.7c.5-14 5.8-24.1 12.8-24.1 6.3 0 11.7 7.1 13.9 18.2.2.6.3 2.5.3 3.6l-27 2.3zM1544.6 251.1c-.3-.2-.7-.4-1-.6l-1-.6c-5.1-3.1-12.8-7.7-13.9-14.7-.7-4.6.5-9.4 3.1-12.4 1.9-2.2 4.5-3.4 7.4-3.4 6.4 0 12.8 9.1 14.1 20l.7 6.1h2.1l-1.3-28.6h-.9l-1.2 8.5c-3-4.1-7.3-8.7-11.9-8.7-7 0-14.1 6.4-14.1 18.8 0 10.3 6.7 14.5 12 17.9.6.3 1.1.7 1.6 1 .4.2.8.5 1.2.7 4.9 3 12.2 7.6 13.2 15.8.6 5.1-.5 9.7-3.2 12.7-1.8 2.1-4.3 3.2-7.1 3.2-8.4 0-14.7-10-15.6-24.8-.2-2.3-.2-4.2-.2-5v-.2h-2.1l-.6 32.3h.9l2-9.5c2.9 4.8 7.1 10 13.4 10 7.1 0 14.7-6.3 14.7-20.1.4-10.7-7.2-15.4-12.3-18.4zM57.6 334.6h-.9l-20.8 56.5.8.7 17.9-42.4v78.4l-18.2 9-.1.1v.9l19.8-3.7 17.2 3.7h.3v-.9l-16-9.1zM101.3 383.8c5.5-3.9 10.9-13.4 10.9-24.3 0-12.1-4.1-25-15.4-25-11.1 0-16.1 11.3-16.1 22.5 0 12.9 6.2 19.9 12.2 25.3-7.1 3.1-15.3 12.1-15.3 27.5 0 18.4 7.2 29.4 19.2 29.4 11.5 0 18.5-13.7 18.5-26.3.1-16.9-7.6-23.7-14-29.1zm10.8 29.6c0 10.6-6 21.6-16 21.6-11.5 0-16.8-13.1-16.8-25.3 0-13.5 7.8-22.9 15.2-26l2.6 2.3c7.7 6.7 15 13 15 27.4zm-15-33.3-.6-.5c-7.4-6.9-12.7-11.8-12.7-22.9 0-9.2 4.1-18.4 13.4-18.4 7.8 0 13.5 8.8 13.5 21 0 10.3-5.7 19.9-11 23.1-.9-.7-1.8-1.5-2.6-2.3zM129.3 379.2c-1.6 0-2.8 2-2.8 4.6 0 2.6 1.2 4.6 2.8 4.6 1.7 0 2.8-1.9 2.8-4.6 0-2.7-1.1-4.6-2.8-4.6zM163.7 334.6c-12 0-20 21.7-20 54.1 0 29.8 8 50.6 19.5 50.6 10.7 0 19.3-24.4 19.3-54.4 0-25-6.5-50.3-18.8-50.3zm15.9 59c0 19.6-4.6 40.7-14.7 40.7-11.4 0-18.4-20.3-18.4-53.1 0-26.6 5.6-41.8 15.4-41.8 11.2-.1 17.7 19.7 17.7 54.2zM208.1 370.4c-7.9 0-13.3 5.2-16.4 15.9l2.8-45.4h23.7l2.4 24.6h.9V336H193l-3.6 60.5v.3h.8v-.2c2.2-9.7 6.3-22.7 16.8-22.7 11.1 0 15.2 18.1 15.2 29.5 0 19.1-7.1 32.4-17.4 32.4-9.9 0-14.3-11.2-16.1-17.8l-.1-.5-.8 1v.1c2.4 9.6 6.6 20.6 16.9 20.6 12.2 0 20.8-14.7 20.8-35.8 0-15.9-6.1-33-17.4-33zM239.3 379.2c-1.6 0-2.8 2-2.8 4.6 0 2.6 1.2 4.6 2.8 4.6 1.7 0 2.8-1.9 2.8-4.6 0-2.7-1.2-4.6-2.8-4.6zM287.7 432.9h-27.9l18.3-31.4c8.9-15.4 12.7-26.5 12.7-37.3 0-17.7-6.6-29.5-16.4-29.5-8.1 0-13.1 9.5-15.1 18.2l-1.8-16.7h-1v45.4h2.3v-.2c0-21.5 4.7-44.7 14.9-44.7 7.5 0 13.4 12 13.4 27.4 0 12.2-3.6 24.2-11.4 37.7L255.4 437v.9h36.4v-35.2h-1l-3.1 30.2zM317.8 334.6h-1L296.2 391l-.1.1.8.7 17.8-42.4v78.4l-18.1 9-.2.1v.9l19.8-3.7 17.3 3.7h.3v-.9l-16-9.1zM391.3 325.3c-.7 0-2.1 1.5-2.3 2.2-3 13.8-6.1 28.2-9.1 42.1-5.6 25.7-11.3 52.3-17 77.6-.4 1.9-.3 2.5-.1 2.8.2.2.4.2.5.2.9 0 1.9-1.5 2.3-2.9 1.6-5.9 8.7-38.8 15.6-70.7 3.6-16.8 7.4-34.1 10.3-47.5.6-2.7.5-3.3.2-3.6 0-.1-.2-.2-.4-.2zM443.1 334.6h-1l-20.7 56.5.8.7 17.8-42.4v78.4l-18.1 9-.2.1v.9l19.8-3.7 17.3 3.7h.3v-.9l-16-9.1zM483.5 334.6c-12 0-20 21.7-20 54.1 0 29.8 8 50.6 19.5 50.6 10.7 0 19.3-24.4 19.3-54.4 0-25-6.5-50.3-18.8-50.3zm15.9 59c0 19.6-4.6 40.6-14.7 40.6-11.4 0-18.4-20.3-18.4-53.1 0-26.6 5.6-41.8 15.4-41.8 11.2 0 17.7 19.8 17.7 54.3zM512.8 430c-1.6 0-2.8 2-2.8 4.6s1.2 4.6 2.8 4.6c1.7 0 2.8-1.9 2.8-4.6s-1.2-4.6-2.8-4.6zM543.2 334.6c-12 0-20 21.7-20 54.1 0 29.8 8 50.6 19.5 50.6 10.7 0 19.3-24.4 19.3-54.4 0-25-6.4-50.3-18.8-50.3zm15.9 59c0 19.6-4.6 40.6-14.7 40.6-11.4 0-18.4-20.3-18.4-53.1 0-26.6 5.6-41.8 15.4-41.8 11.2 0 17.7 19.8 17.7 54.3zM590.1 334.6c-12 0-20 21.7-20 54.1 0 29.8 8 50.6 19.5 50.6 10.7 0 19.3-24.4 19.3-54.4 0-25-6.4-50.3-18.8-50.3zm15.9 59c0 19.6-4.6 40.6-14.7 40.6-11.4 0-18.4-20.3-18.4-53.1 0-26.6 5.6-41.8 15.4-41.8 11.2 0 17.7 19.8 17.7 54.3zM678.2 383.2h-34.9c-.3 0-.9.4-1.1 1-.4 1.1-.5 2.8-.5 3.3 0 .9 1 1.3 1.9 1.3l33.9-.3c.3 0 1-.2 1.2-.8.3-.8.5-2.2.5-3.3-.1-.7-.6-1.2-1-1.2zM729.7 334.6h-.9L708 391.1l.8.7 17.8-42.4v78.4l-18.1 9-.1.1v.9l19.8-3.7 17.2 3.7h.3v-.9l-16-9.1zM773.4 383.8c5.5-3.9 10.9-13.4 10.9-24.3 0-12.1-4.1-25-15.4-25-11.1 0-16.1 11.3-16.1 22.5 0 12.9 6.2 19.9 12.2 25.3-7.7 3.4-15.3 13.1-15.3 27.5 0 18.4 7.2 29.4 19.2 29.4 11.5 0 18.5-13.7 18.5-26.3.1-16.9-7.7-23.7-14-29.1zm10.7 29.7c0 10.6-6 21.6-16 21.6-11.5 0-16.8-13.1-16.8-25.3 0-13.5 7.8-22.9 15.2-26l2.6 2.3c7.8 6.6 15 12.9 15 27.4zm-14.9-33.4-.6-.5c-7.4-6.9-12.7-11.8-12.7-22.9 0-9.2 4.1-18.4 13.4-18.4 7.8 0 13.5 8.8 13.5 21 0 10.3-5.7 19.9-11 23.1-1-.7-1.8-1.5-2.6-2.3zM797.5 430c-1.6 0-2.8 2-2.8 4.6s1.2 4.6 2.8 4.6c1.7 0 2.8-1.9 2.8-4.6s-1.1-4.6-2.8-4.6zM828 334.6c-12 0-20 21.7-20 54.1 0 29.8 8 50.6 19.5 50.6 10.7 0 19.3-24.4 19.3-54.4 0-25-6.5-50.3-18.8-50.3zm15.9 59c0 19.6-4.6 40.6-14.7 40.6-11.4 0-18.4-20.3-18.4-53.1 0-26.6 5.6-41.8 15.4-41.8 11.2 0 17.7 19.8 17.7 54.3zM874.9 334.6c-12 0-20 21.7-20 54.1 0 29.8 8 50.6 19.5 50.6 10.7 0 19.3-24.4 19.3-54.4 0-25-6.5-50.3-18.8-50.3zm15.9 59c0 19.6-4.6 40.6-14.7 40.6-11.4 0-18.4-20.3-18.4-53.1 0-26.6 5.6-41.8 15.4-41.8 11.2 0 17.7 19.8 17.7 54.3z"
  />
</svg>
