<?xml version="1.0" encoding="utf-8"?>
<!-- Generator: Adobe Illustrator 25.2.1, SVG Export Plug-In . SVG Version: 6.00 Build 0)  -->
<svg version="1.1" id="Layer_1" xmlns="http://www.w3.org/2000/svg" xmlns:xlink="http://www.w3.org/1999/xlink" x="0px" y="0px"
	 viewBox="0 0 3317 331" style="enable-background:new 0 0 3317 331;" xml:space="preserve">
<style type="text/css">
	.st0{fill:#FFFFFF;}
	.st1{fill:#C9CA9E;}
	.st2{fill:#FF0000;}
</style>
<g>
	<polygon class="st0" points="21,137.9 23.6,137.9 33,23.5 81,23.5 81,268.4 44.2,294.2 44.2,296.8 85.4,286.5 125.6,296.8 
		125.6,294.2 89.6,268.4 89.6,23.5 138.4,23.5 147.7,137.9 150.4,137.9 150.4,18 21,18 	"/>
	<polygon class="st0" points="284.3,291.6 208,291.6 208,152.2 252.9,152.2 267.4,218.3 269.6,216.4 263.2,148.8 269.3,93.2 
		267.3,90.5 252.9,146.7 208,146.7 208,23.5 280.8,23.5 289,112.8 289.1,113.5 291.7,113.5 291.7,18 162.6,18 162.6,20.5 
		199.4,38.5 199.4,275.7 162.6,294.1 162.6,296.6 296.3,296.6 296.3,184.5 293.6,184.5 	"/>
	<path class="st0" d="M440,91.1c0-22.5-5.7-41.2-16.4-54.3c-10-12.1-24.1-18.8-39.8-18.8h-75.4v2.5l36,17.5v230.4l-36,25.8v2.6
		l40.4-10.3l52.4,10.3v-2.6l-48.3-25.8V162.8h35.7l65.2,151.7l1.6-2.8l-54-151C427.1,153.1,440,129.7,440,91.1z M353.1,23.5h27.9
		c14.7,0,27.2,7,36.1,20.3c8.2,12.3,12.8,29.1,12.8,47.3c0,40.8-18.4,66.2-48.1,66.2h-28.7V23.5z"/>
	<path class="st0" d="M593.6,91.1c0-22.5-5.7-41.2-16.4-54.3c-10-12.1-24.1-18.8-39.8-18.8h-75.4v2.5l36,17.5v230.4l-36,25.8v2.6
		l40.4-10.3l52.4,10.3v-2.6l-48.3-25.8V162.8h35.7l65.2,151.7l1.6-2.8l-54-151C580.7,153.1,593.6,129.7,593.6,91.1z M506.7,23.5
		h27.9c14.7,0,27.2,7,36.1,20.3c8.2,12.3,12.8,29.1,12.8,47.3c0,40.8-18.4,66.2-48.1,66.2h-28.7V23.5z"/>
	<polygon class="st0" points="737.4,291.6 661.1,291.6 661.1,152.2 706,152.2 720.5,218.3 722.7,216.4 716.3,148.8 722.4,93.5 
		722.5,93.2 720.4,90.5 706,146.7 661.1,146.7 661.1,23.5 733.9,23.5 742.1,112.8 742.2,113.5 744.9,113.5 744.9,18 615.7,18 
		615.7,20.5 652.5,38.5 652.5,275.7 615.7,294.1 615.7,296.6 749.4,296.6 749.4,184.5 746.7,184.5 	"/>
	<path class="st0" d="M835.7,149.2c-1.4-1-2.7-1.9-4-2.9l-1.7-1.2c-18.9-13.7-44.7-32.4-44.7-66.5c0-38.7,13.6-58.4,40.4-58.4
		c21.4,0,38.4,31.2,44.4,81.5c1.1,7.3,2.4,23.3,2.4,23.5l0.1,0.6h5.3V13.8h-2.6l-4.1,43.7c-9.7-21.5-26.3-43.7-45.4-43.7
		c-30.4,0-47.9,24.8-47.9,68c0,41.1,26.2,60.9,45.4,75.4l2.4,1.8c1.2,0.9,2.5,1.9,3.9,2.9c18.2,13.4,45.7,33.7,45.7,69
		c0,40.6-15.5,63.9-42.5,63.9c-28.7,0-50.4-38.2-52.9-93c-0.6-10.2-0.8-17-0.8-19.8v-0.7h-5.1v119.5h2.4l4.4-33.8
		c11.3,17,26.1,33.8,48.9,33.8c15.3,0,28.5-6.2,38.1-18.1c10.6-13,16.2-32.4,16.2-56C883.8,183.8,854.9,163,835.7,149.2z"/>
	<polygon class="st0" points="905.6,137.9 908.3,137.9 917.6,23.5 965.6,23.5 965.6,268.4 928.8,294.2 928.8,296.8 970.1,286.5 
		1010.2,296.8 1010.2,294.2 974.2,268.4 974.2,23.5 1023,23.5 1032.3,137.3 1032.4,137.9 1035,137.9 1035,18 905.6,18 	"/>
	<path class="st0" d="M1178.8,91.1c0-22.5-5.7-41.2-16.4-54.3c-10-12.1-24.1-18.8-39.8-18.8h-75.4v2.5l36,17.5v230.4l-36,25.8v2.6
		l40.4-10.3l52.4,10.3v-2.6l-48.3-25.8V162.8h35.7l64.6,150.5l0.5,1.3l1.6-2.8l-54-151C1165.8,153.1,1178.8,129.7,1178.8,91.1z
		 M1091.8,23.5h27.9c14.7,0,27.2,7,36.1,20.3c8.2,12.3,12.8,29.1,12.8,47.3c0,40.8-18.4,66.2-48.1,66.2h-28.7V23.5z"/>
	<polygon class="st0" points="1257.7,46.2 1292.6,20.6 1292.9,20.4 1292.9,17.8 1253.6,28.1 1213.9,17.8 1213.9,20.4 1249.1,46.2 
		1249.1,268.4 1208.6,294.2 1208.6,296.8 1253.6,286.5 1298.3,296.8 1298.3,294.2 1257.7,268.4 	"/>
	<path class="st0" d="M1396.5,5.6L1344.7,267l-36.1,27.3v2.6l36.2-10.3l39.1,10.3v-2.6l-34.6-27.2l16.9-84.9h60.2l19,84.9l-34.6,27
		l-0.3,0.2v2.6l39.1-10.3l38.6,10.3v-2.6l-33.9-27.3L1396.5,5.6z M1425.3,176.7h-58.1l27.2-138.1L1425.3,176.7z"/>
	<polygon class="st0" points="1606,291.6 1537,291.6 1537,46.2 1575.9,20.9 1575.9,17.8 1532.5,28.1 1497.2,18.2 1497.2,20.8 
		1528.4,46.2 1528.4,274.8 1492.4,294.2 1492.4,296.6 1617.8,296.6 1617.8,150.8 1615.1,150.8 	"/>
	<path class="st0" d="M1791.7,5.6L1739.9,267l-36.1,27.3v2.6l36.2-10.3l39.1,10.3v-2.6l-34.6-27.2l16.9-84.9h60.2l19,84.9l-34.6,27
		l-0.3,0.2v2.6l39.1-10.3l38.6,10.3v-2.6l-33.9-27.3L1791.7,5.6z M1820.5,176.7h-58.1l27.2-138.1L1820.5,176.7z"/>
	<path class="st0" d="M1960.2,149.2c-1.4-1-2.7-1.9-4-2.9l-1.7-1.2c-18.9-13.7-44.7-32.4-44.7-66.5c0-38.7,13.6-58.4,40.4-58.4
		c21.4,0,38.4,31.2,44.4,81.5c1.1,7.3,2.4,23.3,2.4,23.5l0.1,0.6h5.3V13.8h-2.6l-4.1,43.7c-9.7-21.5-26.3-43.7-45.4-43.7
		c-30.4,0-47.9,24.8-47.9,68c0,41.1,26.2,60.9,45.4,75.4l2.4,1.8c1.2,0.9,2.5,1.9,3.9,2.9c18.2,13.4,45.7,33.7,45.7,69
		c0,40.6-15.5,63.9-42.5,63.9c-28.7,0-50.4-38.2-52.9-93c-0.6-10.2-0.8-17-0.8-19.8v-0.7h-5.1v119.5h2.4l4.4-33.8
		c11.3,17,26.1,33.8,48.9,33.8c15.3,0,28.5-6.2,38.1-18.1c10.6-13,16.2-32.4,16.2-56C2008.2,183.8,1979.3,163,1960.2,149.2z"/>
	<path class="st0" d="M2096.4,149.2c-1.4-1-2.7-1.9-4-2.9l-1.7-1.2c-18.9-13.7-44.7-32.4-44.7-66.5c0-38.7,13.6-58.4,40.4-58.4
		c21.4,0,38.4,31.2,44.4,81.5c1.1,7.3,2.4,23.3,2.4,23.5l0.1,0.6h5.3V13.8h-2.6l-4.1,43.7c-9.7-21.5-26.3-43.7-45.4-43.7
		c-30.4,0-47.9,24.8-47.9,68c0,41.1,26.2,60.9,45.4,75.4l2.4,1.8c1.2,0.9,2.5,1.9,3.9,2.9c18.2,13.4,45.7,33.7,45.7,69
		c0,40.6-15.5,63.9-42.5,63.9c-28.7,0-50.4-38.2-52.9-93c-0.6-10.2-0.8-17-0.8-19.8v-0.7h-5.1v119.5h2.4l4.4-33.8
		c11.3,17,26.1,33.8,48.9,33.8c15.3,0,28.5-6.2,38.1-18.1c10.6-13,16.2-32.4,16.2-56C2144.5,183.8,2115.6,163,2096.4,149.2z"/>
	<polygon class="st0" points="2280.3,291.6 2204,291.6 2204,152.2 2248.9,152.2 2263.4,218.3 2265.6,216.4 2259.2,148.8 
		2265.3,93.5 2265.3,93.2 2263.2,90.5 2248.9,146.7 2204,146.7 2204,23.5 2276.8,23.5 2285,112.8 2285.1,113.5 2287.7,113.5 
		2287.7,18 2158.6,18 2158.6,20.5 2195.4,38.5 2195.4,275.7 2158.6,294.1 2158.6,296.6 2292.2,296.6 2292.2,184.5 2289.6,184.5 	"/>
	<polygon class="st0" points="2480.3,35.7 2518.7,20.5 2518.7,18 2473.2,18 2418.5,274.3 2359.4,18.5 2359.3,18 2315.9,18 
		2315.9,20.5 2352,38 2352,268.3 2308.7,294.2 2308.7,296.8 2354.2,286.5 2396,296.8 2396,294.2 2356.3,268.4 2356.3,47.8 2415,304 
		2417.2,304 2471.4,47.8 2471.4,268.4 2439.2,294 2438.9,294.2 2438.9,296.9 2475.9,286.5 2520.3,296.8 2520.3,294.2 2480.3,268.4 	
		"/>
	<path class="st0" d="M2625.3,152.3c19.7-4.8,32.9-30.9,32.9-66.8c0-44.2-19.6-67.6-56.7-67.6h-69v2.5l36,18v237.2l-39.5,18.5v2.5
		h71.9c22.8,0,38.5-5,49.5-15.9c12.4-12.2,18.4-32,18.4-60.5C2668.8,179.3,2647.9,156.2,2625.3,152.3z M2602.8,291.6h-25.7V155.4
		h20.1c30.9,0,62,20,62,64.8C2659.2,268.9,2641.3,291.6,2602.8,291.6z M2648.3,85.6c0,59.4-29.1,64.4-56.4,64.4h-14.8V23.5h25.2
		C2631.1,23.5,2648.3,46.7,2648.3,85.6z"/>
	<polygon class="st0" points="2793.7,291.6 2724.6,291.6 2724.6,46.2 2763.5,20.9 2763.5,17.8 2720.2,28.1 2684.8,18.2 2684.8,20.8 
		2716,46.2 2716,274.8 2680,294.2 2680,296.6 2805.4,296.6 2805.4,150.8 2802.7,150.8 	"/>
	<path class="st0" d="M2909.5,5.6L2857.7,267l-36.1,27.3v2.6l36.2-10.3l39.1,10.3v-2.6l-34.6-27.2l16.9-84.9h60.2l19,84.9l-34.6,27
		l-0.3,0.2v2.6l39.1-10.3l38.6,10.3v-2.6l-33.9-27.3L2909.5,5.6z M2938.3,176.7h-58.1l27.2-138.1L2938.3,176.7z"/>
	<path class="st0" d="M3038.7,170.6l95.8,15.2l4.5,63c-7.8,19.5-25.3,40.5-45.4,40.5c-42.4,0-73.2-64.1-73.2-152.5
		c0-30,5.2-58,14.6-78.8c7.4-16.3,21-35.8,43.6-35.8c38.5,0,56.4,73.4,56.4,123v0.7h7.8V17.5h-2.6l-5.6,60
		c-10.5-38.2-30.5-63.7-50.4-63.7c-44,0-71.4,56.7-71.4,147.9c0,42,7.5,77.6,21.8,102.9c13.1,23.3,31.1,36.2,50.7,36.2
		c26.3,0,45.3-23,54.2-43.8l3,42.9h2.7V167.9h-106.5V170.6z"/>
	<polygon class="st0" points="3290.5,184.5 3281.2,291.6 3204.9,291.6 3204.9,152.2 3249.8,152.2 3264.3,218.3 3266.5,216.4 
		3260.1,148.8 3266.2,93.5 3266.3,93.2 3264.2,90.5 3249.8,146.7 3204.9,146.7 3204.9,23.5 3277.7,23.5 3286,112.8 3286,113.5 
		3288.7,113.5 3288.7,18 3159.5,18 3159.5,20.5 3196.3,38.5 3196.3,275.7 3159.5,294.1 3159.5,296.6 3293.2,296.6 3293.2,184.5 	"/>
</g>
</svg>
