<svg
  version="1.1"
  id="Layer_1"
  xmlns="http://www.w3.org/2000/svg"
  x="0"
  y="0"
  viewBox="0 0 3317 331"
  style="enable-background: new 0 0 3317 331"
  xml:space="preserve"
>
  <style>
    .st0 {
      fill: #fff;
    }
  </style>
  <path
    class="st0"
    d="M21 137.9h2.6L33 23.5h48v244.9l-36.8 25.8v2.6l41.2-10.3 40.2 10.3v-2.6l-36-25.8V23.5h48.8l9.3 114.4h2.7V18H21zM284.3 291.6H208V152.2h44.9l14.5 66.1 2.2-1.9-6.4-67.6 6.1-55.6-2-2.7-14.4 56.2H208V23.5h72.8l8.2 89.3.1.7h2.6V18H162.6v2.5l36.8 18v237.2l-36.8 18.4v2.5h133.7V184.5h-2.7zM440 91.1c0-22.5-5.7-41.2-16.4-54.3-10-12.1-24.1-18.8-39.8-18.8h-75.4v2.5l36 17.5v230.4l-36 25.8v2.6l40.4-10.3 52.4 10.3v-2.6l-48.3-25.8V162.8h35.7l65.2 151.7 1.6-2.8-54-151c25.7-7.6 38.6-31 38.6-69.6zm-86.9-67.6H381c14.7 0 27.2 7 36.1 20.3 8.2 12.3 12.8 29.1 12.8 47.3 0 40.8-18.4 66.2-48.1 66.2h-28.7V23.5zM593.6 91.1c0-22.5-5.7-41.2-16.4-54.3-10-12.1-24.1-18.8-39.8-18.8H462v2.5L498 38v230.4l-36 25.8v2.6l40.4-10.3 52.4 10.3v-2.6l-48.3-25.8V162.8h35.7l65.2 151.7 1.6-2.8-54-151c25.7-7.6 38.6-31 38.6-69.6zm-86.9-67.6h27.9c14.7 0 27.2 7 36.1 20.3 8.2 12.3 12.8 29.1 12.8 47.3 0 40.8-18.4 66.2-48.1 66.2h-28.7V23.5zM737.4 291.6h-76.3V152.2H706l14.5 66.1 2.2-1.9-6.4-67.6 6.1-55.3.1-.3-2.1-2.7-14.4 56.2h-44.9V23.5h72.8l8.2 89.3.1.7h2.7V18H615.7v2.5l36.8 18v237.2l-36.8 18.4v2.5h133.7V184.5h-2.7zM835.7 149.2c-1.4-1-2.7-1.9-4-2.9l-1.7-1.2c-18.9-13.7-44.7-32.4-44.7-66.5 0-38.7 13.6-58.4 40.4-58.4 21.4 0 38.4 31.2 44.4 81.5 1.1 7.3 2.4 23.3 2.4 23.5l.1.6h5.3v-112h-2.6l-4.1 43.7c-9.7-21.5-26.3-43.7-45.4-43.7-30.4 0-47.9 24.8-47.9 68 0 41.1 26.2 60.9 45.4 75.4l2.4 1.8c1.2.9 2.5 1.9 3.9 2.9 18.2 13.4 45.7 33.7 45.7 69 0 40.6-15.5 63.9-42.5 63.9-28.7 0-50.4-38.2-52.9-93-.6-10.2-.8-17-.8-19.8v-.7H774v119.5h2.4l4.4-33.8c11.3 17 26.1 33.8 48.9 33.8 15.3 0 28.5-6.2 38.1-18.1 10.6-13 16.2-32.4 16.2-56-.2-42.9-29.1-63.7-48.3-77.5zM905.6 137.9h2.7l9.3-114.4h48v244.9l-36.8 25.8v2.6l41.3-10.3 40.1 10.3v-2.6l-36-25.8V23.5h48.8l9.3 113.8.1.6h2.6V18H905.6zM1178.8 91.1c0-22.5-5.7-41.2-16.4-54.3-10-12.1-24.1-18.8-39.8-18.8h-75.4v2.5l36 17.5v230.4l-36 25.8v2.6l40.4-10.3 52.4 10.3v-2.6l-48.3-25.8V162.8h35.7l64.6 150.5.5 1.3 1.6-2.8-54-151c25.7-7.7 38.7-31.1 38.7-69.7zm-87-67.6h27.9c14.7 0 27.2 7 36.1 20.3 8.2 12.3 12.8 29.1 12.8 47.3 0 40.8-18.4 66.2-48.1 66.2h-28.7V23.5zM1257.7 46.2l34.9-25.6.3-.2v-2.6l-39.3 10.3-39.7-10.3v2.6l35.2 25.8v222.2l-40.5 25.8v2.6l45-10.3 44.7 10.3v-2.6l-40.6-25.8zM1396.5 5.6 1344.7 267l-36.1 27.3v2.6l36.2-10.3 39.1 10.3v-2.6l-34.6-27.2 16.9-84.9h60.2l19 84.9-34.6 27-.3.2v2.6l39.1-10.3 38.6 10.3v-2.6l-33.9-27.3-57.8-261.4zm28.8 171.1h-58.1l27.2-138.1 30.9 138.1zM1606 291.6h-69V46.2l38.9-25.3v-3.1l-43.4 10.3-35.3-9.9v2.6l31.2 25.4v228.6l-36 19.4v2.4h125.4V150.8h-2.7zM1791.7 5.6 1739.9 267l-36.1 27.3v2.6l36.2-10.3 39.1 10.3v-2.6l-34.6-27.2 16.9-84.9h60.2l19 84.9-34.6 27-.3.2v2.6l39.1-10.3 38.6 10.3v-2.6l-33.9-27.3-57.8-261.4zm28.8 171.1h-58.1l27.2-138.1 30.9 138.1zM1960.2 149.2c-1.4-1-2.7-1.9-4-2.9l-1.7-1.2c-18.9-13.7-44.7-32.4-44.7-66.5 0-38.7 13.6-58.4 40.4-58.4 21.4 0 38.4 31.2 44.4 81.5 1.1 7.3 2.4 23.3 2.4 23.5l.1.6h5.3v-112h-2.6l-4.1 43.7c-9.7-21.5-26.3-43.7-45.4-43.7-30.4 0-47.9 24.8-47.9 68 0 41.1 26.2 60.9 45.4 75.4l2.4 1.8c1.2.9 2.5 1.9 3.9 2.9 18.2 13.4 45.7 33.7 45.7 69 0 40.6-15.5 63.9-42.5 63.9-28.7 0-50.4-38.2-52.9-93-.6-10.2-.8-17-.8-19.8v-.7h-5.1v119.5h2.4l4.4-33.8c11.3 17 26.1 33.8 48.9 33.8 15.3 0 28.5-6.2 38.1-18.1 10.6-13 16.2-32.4 16.2-56-.3-42.9-29.2-63.7-48.3-77.5zM2096.4 149.2c-1.4-1-2.7-1.9-4-2.9l-1.7-1.2c-18.9-13.7-44.7-32.4-44.7-66.5 0-38.7 13.6-58.4 40.4-58.4 21.4 0 38.4 31.2 44.4 81.5 1.1 7.3 2.4 23.3 2.4 23.5l.1.6h5.3v-112h-2.6l-4.1 43.7c-9.7-21.5-26.3-43.7-45.4-43.7-30.4 0-47.9 24.8-47.9 68 0 41.1 26.2 60.9 45.4 75.4l2.4 1.8c1.2.9 2.5 1.9 3.9 2.9 18.2 13.4 45.7 33.7 45.7 69 0 40.6-15.5 63.9-42.5 63.9-28.7 0-50.4-38.2-52.9-93-.6-10.2-.8-17-.8-19.8v-.7h-5.1v119.5h2.4l4.4-33.8c11.3 17 26.1 33.8 48.9 33.8 15.3 0 28.5-6.2 38.1-18.1 10.6-13 16.2-32.4 16.2-56-.2-42.9-29.1-63.7-48.3-77.5zM2280.3 291.6H2204V152.2h44.9l14.5 66.1 2.2-1.9-6.4-67.6 6.1-55.3v-.3l-2.1-2.7-14.3 56.2H2204V23.5h72.8l8.2 89.3.1.7h2.6V18h-129.1v2.5l36.8 18v237.2l-36.8 18.4v2.5h133.6V184.5h-2.6zM2480.3 35.7l38.4-15.2V18h-45.5l-54.7 256.3-59.1-255.8-.1-.5h-43.4v2.5L2352 38v230.3l-43.3 25.9v2.6l45.5-10.3 41.8 10.3v-2.6l-39.7-25.8V47.8L2415 304h2.2l54.2-256.2v220.6l-32.2 25.6-.3.2v2.7l37-10.4 44.4 10.3v-2.6l-40-25.8zM2625.3 152.3c19.7-4.8 32.9-30.9 32.9-66.8 0-44.2-19.6-67.6-56.7-67.6h-69v2.5l36 18v237.2l-39.5 18.5v2.5h71.9c22.8 0 38.5-5 49.5-15.9 12.4-12.2 18.4-32 18.4-60.5 0-40.9-20.9-64-43.5-67.9zm-22.5 139.3h-25.7V155.4h20.1c30.9 0 62 20 62 64.8 0 48.7-17.9 71.4-56.4 71.4zm45.5-206c0 59.4-29.1 64.4-56.4 64.4h-14.8V23.5h25.2c28.8 0 46 23.2 46 62.1zM2793.7 291.6h-69.1V46.2l38.9-25.3v-3.1l-43.3 10.3-35.4-9.9v2.6l31.2 25.4v228.6l-36 19.4v2.4h125.4V150.8h-2.7zM2909.5 5.6 2857.7 267l-36.1 27.3v2.6l36.2-10.3 39.1 10.3v-2.6l-34.6-27.2 16.9-84.9h60.2l19 84.9-34.6 27-.3.2v2.6l39.1-10.3 38.6 10.3v-2.6l-33.9-27.3-57.8-261.4zm28.8 171.1h-58.1l27.2-138.1 30.9 138.1zM3038.7 170.6l95.8 15.2 4.5 63c-7.8 19.5-25.3 40.5-45.4 40.5-42.4 0-73.2-64.1-73.2-152.5 0-30 5.2-58 14.6-78.8 7.4-16.3 21-35.8 43.6-35.8 38.5 0 56.4 73.4 56.4 123v.7h7.8V17.5h-2.6l-5.6 60c-10.5-38.2-30.5-63.7-50.4-63.7-44 0-71.4 56.7-71.4 147.9 0 42 7.5 77.6 21.8 102.9 13.1 23.3 31.1 36.2 50.7 36.2 26.3 0 45.3-23 54.2-43.8l3 42.9h2.7v-132h-106.5v2.7zM3290.5 184.5l-9.3 107.1h-76.3V152.2h44.9l14.5 66.1 2.2-1.9-6.4-67.6 6.1-55.3.1-.3-2.1-2.7-14.4 56.2h-44.9V23.5h72.8l8.3 89.3v.7h2.7V18h-129.2v2.5l36.8 18v237.2l-36.8 18.4v2.5h133.7V184.5z"
  />
</svg>
