<svg
  version="1.1"
  id="Layer_1"
  xmlns="http://www.w3.org/2000/svg"
  x="0"
  y="0"
  viewBox="0 0 742 144"
  style="enable-background: new 0 0 742 144"
  xml:space="preserve"
>
  <style>
    .st0 {
      fill: #fff;
    }
  </style>
  <path
    class="st0"
    d="m283.8 18.6-18.9 95.3-13.1 9.9-.1.1v1l13.2-3.8 14.3 3.8v-1l-12.6-9.9 6.2-31h22l6.9 31-12.7 9.9v1l14.3-3.8 14.1 3.8v-1l-12.4-10-21.2-95.3zM294.3 81h-21.2l9.9-50.4L294.3 81zM342.4 53.6c-8.3 0-13.1 8.9-14.9 13.1V23.1h-8.1v2.7h5.1v94l.1.1c4.4 4.1 7.9 6.5 12.6 6.5 5.9 0 11-3.9 14.9-11.3 3.6-6.9 5.7-16.3 6-26.5.4-13.1-3.2-25.8-9-31.7-2.1-2.2-4.4-3.3-6.7-3.3zm-2.4 69.5c-4.9 0-9.6-3.1-12.5-8.4V69c1.7-4.1 5.4-10.9 11.9-10.9 9.8 0 15.9 13.8 15.9 36.1 0 16.7-6.4 28.9-15.3 28.9zM386.6 53.6c-11.5 0-19.2 15-19.2 37.4 0 20.8 7.7 35.3 18.7 35.3 10.2 0 18.4-17.1 18.4-38.1 0-9.1-1.6-17.6-4.6-23.9-3.2-7-7.8-10.7-13.3-10.7zm15.3 42.1c0 13.1-5 26.7-13.3 26.7-11 0-18.9-16.2-18.9-38.6 0-18.4 7.2-26.8 13.9-26.8 11.1-.1 18.3 15.2 18.3 38.7zM446.3 55.3h-10.4v2.9h7.4V106c-3.7 13.1-7.7 15.8-13.1 15.8-5.9 0-9.7-9-9.7-22.8V55.3h-10.2v2.9h7.2v42.5c0 15.8 4.6 25.7 12 25.7 6.5 0 11.3-6 13.8-16.9V125l13.6-8.7v-.9l-10.6 1.9v-62zM488.9 118l-.3.5c-1.2 2-3.4 4.4-7.7 4.4-4.5 0-7.2-7.5-7.2-19.9V59.8l11.4 1.3v-5.9l-11.4 1V38.6h-3v18l-9.7.8v1l9.7 1.2v42.7c0 15.9 3.3 24 9.7 24 4.5 0 7.2-4 8.9-7l.1-.1-.5-1.2z"
  />
</svg>
