<svg
  xmlns="http://www.w3.org/2000/svg"
  viewBox="0 0 585 148"
  style="enable-background: new 0 0 585 148"
  xml:space="preserve"
>
  <path
    d="M175.5 109.7c-5.8 11.5-12.2 17.4-19.1 17.4-15.5 0-26.7-23.4-26.7-55.6 0-20.1 6.7-41.8 21.3-41.8 14 0 20.6 26.8 20.6 44.9v.2h3V27.9h-1l-2.4 20.8c-3.8-13.3-11.1-22.2-18.3-22.2-16 0-25.9 20.7-25.9 53.9 0 34.9 13.7 50.7 26.4 50.7 10.7 0 16.3-7.3 23-20.8l.1-.1-.7-.9-.3.4zM215 60.3h-10.4v2.9h7.4V111c-3.6 13.1-7.7 15.8-13.1 15.8-5.9 0-9.7-9-9.7-22.8V60.3H179v2.9h7.2v42.5c0 15.8 4.6 25.7 12 25.7 6.5 0 11.3-6 13.8-16.9V130l13.5-8.7.1-.1v-.9L215 122V60.3zm41.3-1.7c-5.4.3-10.5 10.3-12.5 20.4V60.3h-11.3v2.9h8.3v56.2l-11.2 9.6v1l12.7-3.8 13.6 3.8v-1l-12.1-9.6V84.2c2.3-13.1 5.8-18 13.1-18h.9v-7.4h-.2c0-.1-.7-.2-1.3-.2zm40.9 27.2c0-17.3-4.6-27.2-12.6-27.2-8.4 0-13 9.2-16.1 17.2v.1l.6 1.3.2-.6c3.9-9.9 8.4-14.3 14.4-14.3 6.4 0 10.5 9.3 10.5 23.7v3.7L269 100.2h-.1v.1c-.9 2.3-1.8 7.3-1.8 11.5 0 9.7 3.5 19.4 11.4 19.4 6.5 0 12.8-5.2 15.6-12.9v13.1l15.1-10.7.1-.1v-.9l-12.2 2.9V85.8zm-16.1 40.4c-5.1 0-12.5-6.4-12.5-17.9 0-.9 0-1.8.1-2.5l25.5-15V116c-2.3 5.9-7.8 10.2-13.1 10.2zm57.7-2.7c-1.2 2-3.4 4.4-7.7 4.4-4.5 0-7.2-7.5-7.2-19.9V64.8l11.4 1.3v-5.9l-11.4 1V43.6h-3v18l-9.7.8v1l9.7 1.2v42.7c0 15.9 3.3 24 9.7 24 4.5 0 7.2-4 8.9-7l.1-.1-.4-1.1-.4.4zM366 58.6c-11.5 0-19.2 15-19.2 37.4 0 20.8 7.7 35.3 18.7 35.3 10.2 0 18.4-17.1 18.4-38.1 0-9.1-1.6-17.6-4.6-23.9-3.2-7-7.8-10.7-13.3-10.7zm15.3 42.1c0 13.1-5 26.7-13.3 26.7-11 0-18.9-16.2-18.9-38.6 0-18.4 7.2-26.8 13.9-26.8 11.1-.1 18.3 15.2 18.3 38.7zm35-42.1c-5.4.3-10.5 10.3-12.5 20.4V60.3h-11.3v2.9h8.3v56.2l-11.1 9.5-.1.1v1l12.7-3.8 13.6 3.8v-1l-12.1-9.6V84.2c2.3-13.1 5.8-18 13.1-18h.9v-7.4h-.2c0-.1-.8-.2-1.3-.2zm29.5 34.5c-.3-.2-.7-.4-1-.6l-1-.6c-5.1-3.1-12.8-7.7-13.9-14.7-.7-4.6.5-9.4 3.1-12.4 1.9-2.2 4.5-3.4 7.4-3.4 6.4 0 12.8 9.1 14.1 20l.7 6.1h2.1L456 58.7h-.9l-1.2 8.5c-3-4.1-7.3-8.7-11.9-8.7-7 0-14.1 6.4-14.1 18.8 0 10.3 6.7 14.5 12 17.9.6.3 1.1.7 1.6 1 .4.2.8.5 1.2.7 4.9 3 12.2 7.6 13.2 15.8.6 5.1-.5 9.7-3.2 12.7-1.8 2.1-4.3 3.2-7.1 3.2-8.4 0-14.7-10-15.6-24.8-.2-2.3-.2-4.2-.2-5v-.2h-2.1l-.6 32.3h.9l2-9.5c2.9 4.8 7.1 10 13.4 10 7.1 0 14.7-6.3 14.7-20.1.3-10.5-7.3-15.2-12.3-18.2z"
    style="fill: #fff"
  />
</svg>
