<svg
  version="1.1"
  id="Layer_1"
  xmlns="http://www.w3.org/2000/svg"
  x="0"
  y="0"
  viewBox="0 0 742 144"
  style="enable-background: new 0 0 742 144"
  xml:space="preserve"
>
  <style>
    .st0 {
      fill: #fff;
    }
  </style>
  <path
    class="st0"
    d="M49.2 83.9h-.9l-3.4 39H17V72.1h16.4l5.3 24.1.8-.7-2.3-24.6 2.2-20.2v-.1l-.8-1-5.2 20.5H17v-45h26.6l3 32.6v.2h1V23.1H.5v.9l13.4 6.6v86.5L.5 123.9v.9h48.7zM76.3 124.9v-1l-9.4-9.5 8.8-23.9 10.8 24.7-7.8 8.7v1l10.5-3.8 11.4 3.8v-1l-10.8-8.8-12.4-28.8 7.8-21.1 10.2-9 .1-.1v-1l-10.4 4.7-8.5-4.7v1l7.4 9-7.3 19.7-8.7-20 6.8-8.7v-1L66 59.8l-11-4.7v1l9.5 8.8L75.1 89l-9.6 25.4-11.8 9.4-.1.1v1l11.1-3.8zM130 123.9l-10.9-9.6V73.9c3.7-13.1 7.7-15.8 13.1-15.8 6.7 0 10.9 9.6 10.9 25.2v31l-10.3 9.6v1l11.8-3.8 15 3.7.3.1v-1l-13.8-9.6v-35c0-15.6-5.2-25.7-13.3-25.7-6.5 0-11.3 6-13.8 16.9V23.1h-13.6V26H116v88.3l-13.1 9.5-.1.1v1l14.7-3.8 12.4 3.8v-1zM197.2 124.8h.3v-.9l-16.1-9.6v-59h-14.5v2.8h11.5v56.2l-15.3 9.5-.2.1v.9l17-3.7zM179.8 30.8c1.7 0 2.8-1.9 2.8-4.6 0-2.8-1.1-4.6-2.8-4.6-1.6 0-2.8 2-2.8 4.6.1 2.6 1.3 4.6 2.8 4.6zM239.6 88.5c.4-13.1-3.2-25.8-9-31.7-2.1-2.2-4.3-3.2-6.7-3.2-8.3 0-13.1 8.9-14.9 13.1V23.1h-8v2.7h5.1v94l.1.1c4.4 4.1 7.9 6.5 12.6 6.5 5.9 0 11-3.9 14.9-11.3 3.5-6.9 5.6-16.4 5.9-26.6zm-18 34.6c-4.9 0-9.6-3.1-12.5-8.4V69c1.7-4.1 5.4-10.9 11.9-10.9 9.8 0 15.9 13.8 15.9 36.1 0 16.7-6.5 28.9-15.3 28.9zM263.2 30.8c1.7 0 2.8-1.9 2.8-4.6 0-2.8-1.1-4.6-2.8-4.6-1.6 0-2.8 2-2.8 4.6 0 2.6 1.3 4.6 2.8 4.6zM280.6 124.8h.3v-.9l-16.1-9.6v-59h-14.5v2.8h11.5v56.2l-15.4 9.5-.1.1v.9l17-3.7zM293.6 102.3c0 15.9 3.3 24 9.7 24 4.5 0 7.2-4 8.9-7l.1-.1-.4-1.1-.3.5c-1.2 2-3.4 4.4-7.7 4.4-4.5 0-7.2-7.5-7.2-19.9V59.8l11.4 1.3v-5.9l-11.4 1V38.6h-3v18l-9.7.8v1l9.7 1.2v42.7zM351.1 124.8h.3v-.9l-16-9.6v-59h-14.6v2.8h11.5v56.2l-15.3 9.5-.1.1v.9l16.9-3.7zM333.7 30.8c1.7 0 2.8-1.9 2.8-4.6 0-2.8-1.1-4.6-2.8-4.6-1.6 0-2.8 2-2.8 4.6.1 2.6 1.3 4.6 2.8 4.6zM376.3 53.6c-11.5 0-19.2 15-19.2 37.4 0 20.8 7.7 35.3 18.7 35.3 10.2 0 18.4-17.1 18.4-38.1 0-9.1-1.6-17.6-4.6-23.9-3.2-7-7.9-10.7-13.3-10.7zm15.3 42.1c0 13.1-5 26.7-13.3 26.7-11 0-18.9-16.2-18.9-38.6 0-18.4 7.2-26.8 13.9-26.8 11.1-.1 18.3 15.2 18.3 38.7zM443.2 79.2c0-15.6-5.2-25.7-13.3-25.7-6.5 0-11.3 6-13.8 16.9V55.3h-13.6v2.9h10.6v56.2l-13.1 9.5-.1.1v1l14.7-3.8L427 125v-1l-10.9-9.6V73.9c3.6-13.1 7.7-15.8 13.1-15.8 6.7 0 10.9 9.6 10.9 25.2v31l-10.3 9.6v1l11.8-3.8 15 3.7.3.1v-1l-13.8-9.6V79.2zM548.5 23l-14.8 3.8-15-3.7-.3-.1v1l14.1 8.7-16.9 83.3-17.1-83.8 14.5-8.1.1-.1v-1l-16.6 3.8-13.6-3.8v1l11.7 8.1 19.5 96v.2h.9l19.5-95.5 14-8.8zM586.7 111.6l-.4-1.1-.3.5c-4 7.7-8.1 11.3-12.8 11.3-10.5 0-18.1-16.6-18.1-39.5v-.6l30.3 2h.3v-.3c.4-11.3-2.5-21.7-7.6-26.9-2.2-2.3-4.7-3.5-7.2-3.5-11 0-18.1 14.7-18.1 37.4 0 24.2 9.4 35.3 18.2 35.3 7.9.1 11.9-6.8 15.7-14.6zm-31.6-30.4c.5-14 5.8-24.1 12.8-24.1 6.3 0 11.7 7.1 13.9 18.2.2.6.3 2.5.3 3.6l-27 2.3zM634.6 79.2c0-15.6-5.2-25.7-13.3-25.7-6.5 0-11.3 6-13.8 16.9V55.3h-13.6v2.9h10.6v56.2l-13.1 9.5-.1.1v1l14.7-3.8 12.4 3.8v-1l-10.9-9.6V73.9c3.7-13.1 7.7-15.8 13.1-15.8 6.7 0 10.9 9.6 10.9 25.2v31l-10.3 9.6v1l11.8-3.8 15 3.7.3.1v-1l-13.8-9.6V79.2zM686.5 55.3h-10.4v2.9h7.4V106c-3.6 13.1-7.7 15.8-13.1 15.8-5.9 0-9.7-9-9.7-22.8V55.3h-10.2v2.9h7.2v42.5c0 15.8 4.6 25.7 12 25.7 6.5 0 11.3-6 13.8-16.9V125l13.5-8.7.1-.1v-.9l-10.6 1.9V55.3zM737.3 110.4l-.3.5c-4 7.7-8.1 11.3-12.8 11.3-10.5 0-18.1-16.6-18.1-39.5v-.6l30.3 2h.3v-.3c.4-11.3-2.5-21.7-7.6-26.9-2.2-2.3-4.7-3.5-7.2-3.5-11 0-18.1 14.7-18.1 37.4 0 24.2 9.4 35.3 18.2 35.3 8 0 12-6.9 15.8-14.6v-.1l-.5-1zm-31.2-29.2c.5-14 5.8-24.1 12.8-24.1 6.3 0 11.7 7.1 13.9 18.2.2.6.3 2.5.3 3.6l-27 2.3z"
  />
</svg>
