<svg
  xmlns="http://www.w3.org/2000/svg"
  viewBox="0 0 637 148"
  style="enable-background: new 0 0 637 148"
  xml:space="preserve"
>
  <path
    d="m168.6 19.4 12.7-9.3.1-.1V9l-14.3 3.8L152.6 9v1l12.9 9.4v81.1l-14.7 9.3-.1.1v.9l16.4-3.7 16.3 3.7v-.9l-14.8-9.4zm90.6 45.8c0-15.6-5.2-25.7-13.3-25.7-6.7 0-12 6.5-14.3 17.6-1.6-11-6.3-17.6-12.8-17.6-6.5 0-11.3 6-13.8 16.9V41.3h-13.6v2.9H202v56.2l-13.1 9.5-.1.1v1l14.7-3.8 12.4 3.8v-1l-10.9-9.6V59.9c3.6-13.1 7.7-15.8 13.1-15.8 6.7 0 10.9 9.6 10.9 25.2v31l-10.3 9.6v1l11.8-3.8 12.3 3.8v-1l-10.8-9.6V65.2c0-2-.1-4.1-.3-5.9 3.6-12.8 7.7-15.3 13.5-15.3 6.7 0 10.9 9.6 10.9 25.2v31l-10.3 9.6v1l11.8-3.8 15 3.7.3.1v-1l-13.8-9.6v-35zm46.3-25.6c-8.3 0-13.1 8.9-14.9 13.1V41.3h-14v2.9h11V132l-11 9.6v1l12.8-3.8 17.5 3.7.3.1v-1l-16.5-9.6v-23.4c2.1 1.8 5.4 3.7 9.7 3.7 5.9 0 11-3.9 14.9-11.3 3.6-6.9 5.7-16.3 6-26.5.4-13.1-3.2-25.8-9-31.7-2.2-2.1-4.5-3.2-6.8-3.2zm-2.4 69.5c-4.9 0-9.6-3.1-12.5-8.4V55c1.7-4.1 5.4-10.9 11.9-10.9 9.8 0 15.9 13.8 15.9 36.1 0 16.7-6.4 28.9-15.3 28.9zm50.4-69.5c-5.4.3-10.5 10.3-12.5 20.4V41.3h-11.3v2.9h8.3v56.2l-11.1 9.5-.1.1v1l12.7-3.8 13.6 3.8v-1l-12.1-9.6V65.2c2.3-13.1 5.8-18 13.1-18h.9v-7.4h-.2c0-.1-.8-.2-1.3-.2zm25.6-22.8c1.7 0 2.8-1.9 2.8-4.6 0-2.8-1.1-4.6-2.8-4.6-1.6 0-2.8 2-2.8 4.6 0 2.6 1.2 4.6 2.8 4.6zm1.6 24.5h-14.5v2.8h11.4v56.2l-15.3 9.5-.1.1v.9l17-3.7 17.2 3.7h.3v-.9l-16-9.6zM443 65.2c0-15.6-5.2-25.7-13.3-25.7-6.5 0-11.3 6-13.8 16.9V41.3h-13.6v2.9H413v56.2l-13.1 9.5-.1.1v1l14.7-3.8 12.4 3.8v-1l-10.9-9.6V59.9c3.7-13.1 7.7-15.8 13.1-15.8 6.7 0 10.9 9.6 10.9 25.2v31l-10.3 9.6v1l11.8-3.8 15 3.7.3.1v-1l-13.8-9.6V65.2zm43.5 39.3c-1.2 2-3.4 4.4-7.7 4.4-4.5 0-7.2-7.5-7.2-19.9V45.8l11.4 1.3v-5.9l-11.4 1V24.6h-3v18l-9.7.8v1l9.7 1.2v42.7c0 15.9 3.3 24 9.7 24 4.5 0 7.2-4 8.9-7l.1-.1-.4-1.1-.4.4z"
    style="fill: #fff"
  />
</svg>
