<svg
  version="1.1"
  id="Layer_1"
  xmlns="http://www.w3.org/2000/svg"
  x="0"
  y="0"
  viewBox="0 0 1211 148"
  style="enable-background: new 0 0 1211 148"
  xml:space="preserve"
>
  <style>
    .st0 {
      fill: #fff;
    }
  </style>
  <path
    class="st0"
    d="m33.1 24.3-.3-1.2-18.9 95.3-13.2 9.9v1l13.2-3.8 13.9 3.7.3.1v-1l-12.6-9.9 6.2-31h22l6.9 31-12.6 10v1l14.3-3.8 14.1 3.8v-1l-12.4-10-20.9-94.1zm10.2 61.2H22.2l9.9-50.4 11.2 50.4zM111.2 83.7c0-15.6-5.2-25.7-13.3-25.7-6.5 0-11.3 6-13.8 16.9V59.8H70.5v2.9h10.6v56.2L68 128.3l-.1.1v1l14.7-3.8 12.4 3.8v-1l-10.9-9.6V78.4c3.7-13.1 7.7-15.8 13.1-15.8 6.7 0 10.9 9.6 10.9 25.2v31l-10.3 9.6v1l11.8-3.8 15 3.7.3.1v-1l-13.8-9.6V83.7zM159.1 85.3c0-17.3-4.6-27.2-12.6-27.2-8.4 0-13 9.2-16.1 17.2v.1l.6 1.3.2-.6c3.9-9.9 8.4-14.3 14.4-14.3 6.4 0 10.5 9.3 10.5 23.7v3.7L131 99.7h-.1v.1c-.9 2.3-1.8 7.3-1.8 11.5 0 9.7 3.5 19.4 11.4 19.4 6.5 0 12.8-5.2 15.6-12.9V131l15.2-10.8v-.9l-12.2 2.9V85.3zM143 125.7c-5.1 0-12.5-6.4-12.5-17.9 0-.9 0-1.8.1-2.5l25.5-15v25.3c-2.3 5.8-7.8 10.1-13.1 10.1zM229.5 24.3l-.3-1.2-18.9 95.3-13.2 9.9v1l13.2-3.8 13.9 3.7.3.1v-1l-12.6-9.9 6.2-31h22l6.9 31-12.7 9.9v1l14.3-3.8 14.1 3.8v-1l-12.4-10-20.8-94zm10.3 61.2h-21.2l9.9-50.4 11.3 50.4zM282.9 27.6h-14.7v2.7h11.6v88.5l-15.3 9.5-.1.1v.9l16.9-3.7 17.3 3.7h.3v-.9l-16-9.6zM337.8 115.4c-4 7.7-8.1 11.3-12.8 11.3-10.5 0-18.1-16.6-18.1-39.5v-.6l30.3 2h.3v-.3c.4-11.3-2.5-21.7-7.6-26.9-2.2-2.3-4.7-3.5-7.2-3.5-11 0-18.1 14.7-18.1 37.4 0 24.2 9.4 35.3 18.2 35.3 8 0 12-6.9 15.8-14.6v-.1l-.4-1.1-.4.6zm-30.9-29.7c.5-14 5.8-24.1 12.8-24.1 6.3 0 11.7 7.1 13.9 18.2.2.6.3 2.5.3 3.6l-27 2.3zM386.5 83.7c0-15.6-5.2-25.7-13.3-25.7-6.5 0-11.3 6-13.8 16.9V59.8h-13.6v2.9h10.6v56.2l-13.1 9.5-.1.1v1l14.7-3.8 12.4 3.8v-1l-10.9-9.6V78.4c3.6-13.1 7.7-15.8 13.1-15.8 6.7 0 10.9 9.6 10.9 25.2v31l-10.3 9.6v1l11.8-3.8 15 3.7.3.1v-1l-13.8-9.6V83.7zM423 92.6c-.3-.2-.7-.4-1-.6l-1-.6c-5.1-3.1-12.8-7.7-13.9-14.7-.7-4.6.5-9.4 3.1-12.4 1.9-2.2 4.5-3.4 7.4-3.4 6.4 0 12.8 9.1 14.1 20l.7 6.1h2.1l-1.3-28.6h-.9l-1.2 8.5c-3-4.1-7.3-8.7-11.9-8.7-7 0-14.1 6.4-14.1 18.8 0 10.3 6.7 14.5 12 17.9.6.3 1.1.7 1.6 1 .4.2.8.5 1.2.7 4.9 3 12.2 7.6 13.2 15.8.6 5.1-.5 9.7-3.2 12.7-1.8 2.1-4.3 3.2-7.1 3.2-8.4 0-14.7-10-15.6-24.8-.2-2.3-.2-4.2-.2-5V98h-2l-.6 32.3h.9l2-9.5c2.9 4.8 7.1 10 13.4 10 7.1 0 14.7-6.3 14.7-20.1.2-10.4-7.4-15.1-12.4-18.1zM463.1 58.1c-11.5 0-19.2 15-19.2 37.4 0 20.8 7.7 35.3 18.7 35.3 10.2 0 18.4-17.1 18.4-38.1 0-9.1-1.6-17.6-4.6-23.9-3.2-7-7.8-10.7-13.3-10.7zm15.3 42.1c0 13.1-5 26.7-13.3 26.7-11 0-18.9-16.2-18.9-38.6 0-18.4 7.2-26.8 13.9-26.8 11.1-.1 18.3 15.2 18.3 38.7zM562.9 125.5c-1.7-3-3.4-6.2-5.1-9.2s-3.4-6.2-5.1-9.2l-1.4-2.5c1.4-3.6 2.8-7.2 4.2-10.9 1.4-3.7 2.8-7.3 4.2-11 .3-.7.6-1.5.8-2.2 1.6-4.3 3.2-8.3 5.1-11l.3-.4h-8.8l.2.4c2.3 4.4 2.3 9.8.1 15.5-1.2 3-2.4 6.1-3.6 9.2-1.1 2.9-2.3 5.8-3.4 8.7L532.1 70c.9-1.2 2-2.4 2.9-3.6 4.5-5.4 9.3-10.9 9.3-20.7 0-10.7-5.7-15.5-11.4-15.5-7.1 0-12.3 7.3-12.3 17.4 0 5.8 1.7 10.1 2.7 12.1l6.2 11.5c-7.9 9.7-16 21.6-16 36.5 0 15.9 7.9 23.1 15.2 23.1 9.5 0 15.8-10.9 21.1-22.9l4.8 8.7c1.7 3 3.4 6.1 5.1 9.1 2.2 3.9 4.1 5.1 7.9 5.1h2.1l-2-.5c-1.6-.3-3.2-2-4.8-4.8zm-31.4-56.6-4.9-9c-1.9-3.6-3.9-7.4-3.9-13.1 0-9.6 5.1-14.9 9.8-14.9 5.8 0 9.8 6.3 9.8 15.3 0 8.7-4 13.5-8.3 18.6-.9 1.1-1.7 2.1-2.5 3.1zm-1.3 3.6 18.7 33.8c-5.3 11.7-10.9 22.2-19.9 22.2-7.8 0-12.9-8-12.9-20.3.1-15.7 8.1-27.2 14.1-35.7zM645.1 54.3c0-16-8.2-26.7-20.5-26.7h-27.5v.9l13.1 6.4v84l-13.1 9.4v1l14.8-3.8 19.1 3.8v-1l-17.6-9.4V80.5h13l23.6 54.9.2.5.6-1L631 79.7c9.3-2.8 14.1-11.3 14.1-25.4zm-31.8-24.7h10.2c12.3 0 17.8 12.8 17.8 24.7 0 14.9-6.7 24.2-17.6 24.2h-10.5V29.6zM670.7 35.3c1.7 0 2.8-1.9 2.8-4.6 0-2.8-1.1-4.6-2.8-4.6-1.6 0-2.8 2-2.8 4.6 0 2.6 1.2 4.6 2.8 4.6zM672.3 59.8h-14.5v2.8h11.5v56.2l-15.4 9.5-.1.1v.9l17-3.7 17.3 3.7h.3v-.9l-16.1-9.6zM727.3 115.4c-3.8 7.5-7.8 11-12.6 11-11 0-18.3-15.7-18.3-39.1 0-15.2 6.2-27 14.1-27 9.4 0 12.6 15.7 13.7 25 .3 2.5.3 6 .3 6v.2h2.4V52.2h-1l-1.8 16.3c-1.8-3.7-5.8-10.4-12.2-10.4-10.9 0-18 14.7-18 37.4 0 24.2 9.4 35.3 18.2 35.3 8 0 12-6.9 15.8-14.6v-.1l-.4-1.1-.2.4zM764.7 85.3c0-17.3-4.6-27.2-12.6-27.2-8.4 0-13 9.2-16.1 17.2v.1l.6 1.3.2-.6c3.9-9.9 8.4-14.3 14.4-14.3 6.4 0 10.5 9.3 10.5 23.7v3.7l-25.1 10.5h-.1v.1c-.9 2.3-1.8 7.3-1.8 11.5 0 9.7 3.5 19.4 11.4 19.4 6.5 0 12.8-5.2 15.6-12.9V131l15.2-10.8v-.9l-12.2 2.9V85.3zm-16.1 40.4c-5.1 0-12.5-6.4-12.5-17.9 0-.9 0-1.8.1-2.5l25.5-15v25.3c-2.3 5.8-7.8 10.1-13.1 10.1zM805.4 58.1c-5.4.3-10.5 10.3-12.5 20.4V59.8h-11.3v2.9h8.3v56.2l-11.2 9.6v1l12.7-3.8 13.6 3.8v-1l-12.1-9.6V83.7c2.3-13.1 5.8-18 13.1-18h.9v-7.4h-.2c0-.1-.7-.2-1.3-.2zM850 27.6h-11.8v2.7h8.8V62c-3-2.6-6.2-3.9-9.7-3.9-13 0-20.3 19.1-20.9 37.9-.4 13 3.2 25.7 8.9 31.5 2.1 2.2 4.4 3.3 6.7 3.3 8.4 0 13.1-8.8 14.9-12.9v11.7l13.9-9.7.1-.1v-1l-11 2.7V27.6zm-15 98.8c-9.8 0-15.9-13.8-15.9-36.1 0-16.7 6.4-28.9 15.3-28.9 4.9 0 9.6 3.1 12.5 8.4v45.7c-1.6 4.1-5.4 10.9-11.9 10.9zM887 58.1c-11.5 0-19.2 15-19.2 37.4 0 20.8 7.7 35.3 18.7 35.3 10.2 0 18.4-17.1 18.4-38.1 0-9.1-1.6-17.6-4.6-23.9-3.2-7-7.8-10.7-13.3-10.7zm15.3 42.1c0 13.1-5 26.7-13.3 26.7-11 0-18.9-16.2-18.9-38.6 0-18.4 7.2-26.8 13.9-26.8 11.1-.1 18.3 15.2 18.3 38.7zM967 24.3l-.3-1.2-18.9 95.3-13.2 9.9v1l13.2-3.8 13.9 3.7.3.1v-1l-12.6-9.9 6.2-31h22l6.9 31-12.7 9.9v1l14.3-3.8 14.1 3.8v-1l-12.4-10-20.8-94zm10.2 61.2H956l9.9-50.4 11.3 50.4zM1028.5 59.6v1l9.9 9.1-12.8 54.5-13-54.5 9-9 .1-.1v-1l-11.2 4.7-9.5-4.7v1l8.2 9.1 14.9 62.7.1.2h.6l14.8-62.9 7.7-9 .1-.1v-1l-8.1 4.7zM1085.5 115.4c-4 7.7-8.1 11.3-12.8 11.3-10.5 0-18.1-16.6-18.1-39.5v-.6l30.3 2h.3v-.3c.4-11.3-2.5-21.7-7.6-26.9-2.2-2.3-4.7-3.5-7.2-3.5-11 0-18.1 14.7-18.1 37.4 0 24.2 9.4 35.3 18.2 35.3 8 0 12-6.9 15.8-14.6v-.1l-.4-1.1-.4.6zm-30.9-29.7c.5-14 5.8-24.1 12.8-24.1 6.3 0 11.7 7.1 13.9 18.2.2.6.3 2.5.3 3.6l-27 2.3zM1109.3 27.6h-14.6v2.7h11.6v88.5l-15.3 9.5-.2.1v.9l17-3.7 17.3 3.7h.3v-.9l-16.1-9.6zM1146.9 27.6h-14.6v2.7h11.6v88.5l-15.4 9.5-.1.1v.9l17-3.7 17.2 3.7h.4v-.9l-16.1-9.6zM1198.1 122.1V85.3c0-17.3-4.6-27.2-12.6-27.2-8.4 0-13 9.2-16.1 17.2v.1l.6 1.3.2-.6c3.9-9.9 8.4-14.3 14.4-14.3 6.4 0 10.5 9.3 10.5 23.7v3.7L1170 99.7h-.1v.1c-.9 2.3-1.8 7.3-1.8 11.5 0 9.7 3.5 19.4 11.4 19.4 6.5 0 12.8-5.2 15.6-12.9V131l15.1-10.7.1-.1v-.9l-12.2 2.8zm-16.1 3.6c-5.1 0-12.5-6.4-12.5-17.9 0-.9 0-1.8.1-2.5l25.5-15v25.3c-2.3 5.8-7.8 10.1-13.1 10.1z"
  />
</svg>
