<?xml version="1.0" encoding="utf-8"?>
<!-- Generator: Adobe Illustrator 25.2.1, SVG Export Plug-In . SVG Version: 6.00 Build 0)  -->
<svg version="1.1" id="Layer_1" xmlns="http://www.w3.org/2000/svg" xmlns:xlink="http://www.w3.org/1999/xlink" x="0px" y="0px"
	 viewBox="0 0 1211 148" style="enable-background:new 0 0 1211 148;" xml:space="preserve">
<style type="text/css">
	.st0{fill:#FFFFFF;}
	.st1{fill:#C9CA9E;}
	.st2{fill:#FF0000;}
</style>
<g>
	<path class="st0" d="M33.1,24.3l-0.3-1.2l-18.9,95.3l-13.2,9.9v1l13.2-3.8l13.9,3.7l0.3,0.1v-1l-12.6-9.9l6.2-31h22l6.9,31
		L38,128.4v1l14.3-3.8l14.1,3.8v-1l-12.4-10L33.1,24.3z M43.3,85.5H22.2l9.9-50.4L43.3,85.5z"/>
	<path class="st0" d="M111.2,83.7c0-15.6-5.2-25.7-13.3-25.7c-6.5,0-11.3,6-13.8,16.9V59.8H70.5v2.9h10.6v56.2L68,128.3l-0.1,0.1v1
		l14.7-3.8l12.4,3.8v-1l-10.9-9.6V78.4c3.7-13.1,7.7-15.8,13.1-15.8c6.7,0,10.9,9.6,10.9,25.2v31l-10.3,9.6v1l11.8-3.8l15,3.7
		l0.3,0.1v-1l-13.8-9.6V83.7z"/>
	<path class="st0" d="M159.1,85.3c0-17.3-4.6-27.2-12.6-27.2c-8.4,0-13,9.2-16.1,17.2l0,0.1l0.6,1.3l0.2-0.6
		c3.9-9.9,8.4-14.3,14.4-14.3c6.4,0,10.5,9.3,10.5,23.7v3.7l-25.1,10.5l-0.1,0l0,0.1c-0.9,2.3-1.8,7.3-1.8,11.5
		c0,9.7,3.5,19.4,11.4,19.4c6.5,0,12.8-5.2,15.6-12.9V131l15.2-10.8v-0.9l-12.2,2.9V85.3z M143,125.7c-5.1,0-12.5-6.4-12.5-17.9
		c0-0.9,0-1.8,0.1-2.5l25.5-15v25.3C153.8,121.4,148.3,125.7,143,125.7z"/>
	<path class="st0" d="M229.5,24.3l-0.3-1.2l-18.9,95.3l-13.2,9.9v1l13.2-3.8l13.9,3.7l0.3,0.1v-1l-12.6-9.9l6.2-31h22l6.9,31
		l-12.7,9.9v1l14.3-3.8l14.1,3.8v-1l-12.4-10L229.5,24.3z M239.8,85.5h-21.2l9.9-50.4L239.8,85.5z"/>
	<polygon class="st0" points="282.9,27.6 268.2,27.6 268.2,30.3 279.8,30.3 279.8,118.8 264.5,128.3 264.4,128.4 264.4,129.3 
		281.3,125.6 298.6,129.3 298.9,129.3 298.9,128.4 282.9,118.8 	"/>
	<path class="st0" d="M337.8,115.4c-4,7.7-8.1,11.3-12.8,11.3c-10.5,0-18.1-16.6-18.1-39.5v-0.6l30.3,2l0.3,0l0-0.3
		c0.4-11.3-2.5-21.7-7.6-26.9c-2.2-2.3-4.7-3.5-7.2-3.5c-11,0-18.1,14.7-18.1,37.4c0,24.2,9.4,35.3,18.2,35.3c8,0,12-6.9,15.8-14.6
		l0-0.1l-0.4-1.1L337.8,115.4z M306.9,85.7c0.5-14,5.8-24.1,12.8-24.1c6.3,0,11.7,7.1,13.9,18.2c0.2,0.6,0.3,2.5,0.3,3.6L306.9,85.7
		z"/>
	<path class="st0" d="M386.5,83.7c0-15.6-5.2-25.7-13.3-25.7c-6.5,0-11.3,6-13.8,16.9V59.8h-13.6v2.9h10.6v56.2l-13.1,9.5l-0.1,0.1
		v1l14.7-3.8l12.4,3.8v-1l-10.9-9.6V78.4c3.6-13.1,7.7-15.8,13.1-15.8c6.7,0,10.9,9.6,10.9,25.2v31l-10.3,9.6v1l11.8-3.8l15,3.7
		l0.3,0.1v-1l-13.8-9.6V83.7z"/>
	<path class="st0" d="M423,92.6c-0.3-0.2-0.7-0.4-1-0.6l-1-0.6c-5.1-3.1-12.8-7.7-13.9-14.7c-0.7-4.6,0.5-9.4,3.1-12.4
		c1.9-2.2,4.5-3.4,7.4-3.4c6.4,0,12.8,9.1,14.1,20l0.7,6.1h2.1l-1.3-28.6h-0.9l-1.2,8.5c-3-4.1-7.3-8.7-11.9-8.7
		c-7,0-14.1,6.4-14.1,18.8c0,10.3,6.7,14.5,12,17.9c0.6,0.3,1.1,0.7,1.6,1c0.4,0.2,0.8,0.5,1.2,0.7c4.9,3,12.2,7.6,13.2,15.8
		c0.6,5.1-0.5,9.7-3.2,12.7c-1.8,2.1-4.3,3.2-7.1,3.2c-8.4,0-14.7-10-15.6-24.8c-0.2-2.3-0.2-4.2-0.2-5V98H405l-0.6,32.3h0.9l2-9.5
		c2.9,4.8,7.1,10,13.4,10c7.1,0,14.7-6.3,14.7-20.1C435.6,100.3,428,95.6,423,92.6z"/>
	<path class="st0" d="M463.1,58.1c-11.5,0-19.2,15-19.2,37.4c0,20.8,7.7,35.3,18.7,35.3c10.2,0,18.4-17.1,18.4-38.1
		c0-9.1-1.6-17.6-4.6-23.9C473.2,61.8,468.6,58.1,463.1,58.1z M478.4,100.2c0,13.1-5,26.7-13.3,26.7c-11,0-18.9-16.2-18.9-38.6
		c0-18.4,7.2-26.8,13.9-26.8C471.2,61.4,478.4,76.7,478.4,100.2z"/>
	<path class="st0" d="M562.9,125.5c-1.7-3-3.4-6.2-5.1-9.2s-3.4-6.2-5.1-9.2l-1.4-2.5c1.4-3.6,2.8-7.2,4.2-10.9
		c1.4-3.7,2.8-7.3,4.2-11c0.3-0.7,0.6-1.5,0.8-2.2c1.6-4.3,3.2-8.3,5.1-11l0.3-0.4h-8.8l0.2,0.4c2.3,4.4,2.3,9.8,0.1,15.5
		c-1.2,3-2.4,6.1-3.6,9.2c-1.1,2.9-2.3,5.8-3.4,8.7L532.1,70c0.9-1.2,2-2.4,2.9-3.6c4.5-5.4,9.3-10.9,9.3-20.7
		c0-10.7-5.7-15.5-11.4-15.5c-7.1,0-12.3,7.3-12.3,17.4c0,5.8,1.7,10.1,2.7,12.1l6.2,11.5c-7.9,9.7-16,21.6-16,36.5
		c0,15.9,7.9,23.1,15.2,23.1c9.5,0,15.8-10.9,21.1-22.9c1.6,2.9,3.2,5.8,4.8,8.7c1.7,3,3.4,6.1,5.1,9.1c2.2,3.9,4.1,5.1,7.9,5.1h2.1
		l-2-0.5C566.1,130,564.5,128.3,562.9,125.5z M531.5,68.9l-4.9-9c-1.9-3.6-3.9-7.4-3.9-13.1c0-9.6,5.1-14.9,9.8-14.9
		c5.8,0,9.8,6.3,9.8,15.3c0,8.7-4,13.5-8.3,18.6C533.1,66.9,532.3,67.9,531.5,68.9z M530.2,72.5l18.7,33.8
		c-5.3,11.7-10.9,22.2-19.9,22.2c-7.8,0-12.9-8-12.9-20.3C516.2,92.5,524.2,81,530.2,72.5z"/>
	<path class="st0" d="M645.1,54.3c0-16-8.2-26.7-20.5-26.7h-27.5v0.9l13.1,6.4v84l-13.1,9.4v1l14.8-3.8l19.1,3.8v-1l-17.6-9.4V80.5
		h13l23.6,54.9l0.2,0.5l0.6-1L631,79.7C640.3,76.9,645.1,68.4,645.1,54.3z M613.3,29.6h10.2c12.3,0,17.8,12.8,17.8,24.7
		c0,14.9-6.7,24.2-17.6,24.2h-10.5V29.6z"/>
	<path class="st0" d="M670.7,35.3c1.7,0,2.8-1.9,2.8-4.6c0-2.8-1.1-4.6-2.8-4.6c-1.6,0-2.8,2-2.8,4.6
		C667.9,33.3,669.1,35.3,670.7,35.3z"/>
	<polygon class="st0" points="672.3,59.8 657.8,59.8 657.8,62.6 669.3,62.6 669.3,118.8 653.9,128.3 653.8,128.4 653.8,129.3 
		670.8,125.6 688.1,129.3 688.4,129.3 688.4,128.4 672.3,118.8 	"/>
	<path class="st0" d="M727.3,115.4c-3.8,7.5-7.8,11-12.6,11c-11,0-18.3-15.7-18.3-39.1c0-15.2,6.2-27,14.1-27
		c9.4,0,12.6,15.7,13.7,25c0.3,2.5,0.3,6,0.3,6v0.2h2.4V52.2h-1l-1.8,16.3c-1.8-3.7-5.8-10.4-12.2-10.4c-10.9,0-18,14.7-18,37.4
		c0,24.2,9.4,35.3,18.2,35.3c8,0,12-6.9,15.8-14.6l0-0.1l-0.4-1.1L727.3,115.4z"/>
	<path class="st0" d="M764.7,85.3c0-17.3-4.6-27.2-12.6-27.2c-8.4,0-13,9.2-16.1,17.2l0,0.1l0.6,1.3l0.2-0.6
		c3.9-9.9,8.4-14.3,14.4-14.3c6.4,0,10.5,9.3,10.5,23.7v3.7l-25.1,10.5l-0.1,0l0,0.1c-0.9,2.3-1.8,7.3-1.8,11.5
		c0,9.7,3.5,19.4,11.4,19.4c6.5,0,12.8-5.2,15.6-12.9V131l15.2-10.8v-0.9l-12.2,2.9V85.3z M748.6,125.7c-5.1,0-12.5-6.4-12.5-17.9
		c0-0.9,0-1.8,0.1-2.5l25.5-15v25.3C759.4,121.4,753.9,125.7,748.6,125.7z"/>
	<path class="st0" d="M805.4,58.1C805.4,58.1,805.4,58.1,805.4,58.1c-5.4,0.3-10.5,10.3-12.5,20.4V59.8h-11.3v2.9h8.3v56.2
		l-11.2,9.6v1l12.7-3.8l13.6,3.8v-1l-12.1-9.6l0-35.2c2.3-13.1,5.8-18,13.1-18h0.9v-7.4l-0.2,0C806.7,58.2,806,58.1,805.4,58.1z"/>
	<path class="st0" d="M850,27.6h-11.8v2.7h8.8V62c-3-2.6-6.2-3.9-9.7-3.9c-13,0-20.3,19.1-20.9,37.9c-0.4,13,3.2,25.7,8.9,31.5
		c2.1,2.2,4.4,3.3,6.7,3.3c8.4,0,13.1-8.8,14.9-12.9v11.7l13.9-9.7l0.1-0.1v-1l-11,2.7V27.6z M835,126.4c-9.8,0-15.9-13.8-15.9-36.1
		c0-16.7,6.4-28.9,15.3-28.9c4.9,0,9.6,3.1,12.5,8.4v45.7C845.3,119.6,841.5,126.4,835,126.4z"/>
	<path class="st0" d="M887,58.1c-11.5,0-19.2,15-19.2,37.4c0,20.8,7.7,35.3,18.7,35.3c10.2,0,18.4-17.1,18.4-38.1
		c0-9.1-1.6-17.6-4.6-23.9C897.1,61.8,892.5,58.1,887,58.1z M902.3,100.2c0,13.1-5,26.7-13.3,26.7c-11,0-18.9-16.2-18.9-38.6
		c0-18.4,7.2-26.8,13.9-26.8C895.1,61.4,902.3,76.7,902.3,100.2z"/>
	<path class="st0" d="M967,24.3l-0.3-1.2l-18.9,95.3l-13.2,9.9v1l13.2-3.8l13.9,3.7l0.3,0.1v-1l-12.6-9.9l6.2-31h22l6.9,31
		l-12.7,9.9v1l14.3-3.8l14.1,3.8v-1l-12.4-10L967,24.3z M977.2,85.5h-21.2l9.9-50.4L977.2,85.5z"/>
	<polygon class="st0" points="1028.5,59.6 1028.5,60.6 1038.4,69.7 1025.6,124.2 1012.6,69.7 1021.6,60.7 1021.7,60.6 1021.7,59.6 
		1010.5,64.3 1001,59.6 1001,60.6 1009.2,69.7 1024.1,132.4 1024.2,132.6 1024.8,132.6 1039.6,69.7 1047.3,60.7 1047.4,60.6 
		1047.4,59.6 1039.3,64.3 	"/>
	<path class="st0" d="M1085.5,115.4c-4,7.7-8.1,11.3-12.8,11.3c-10.5,0-18.1-16.6-18.1-39.5v-0.6l30.3,2l0.3,0l0-0.3
		c0.4-11.3-2.5-21.7-7.6-26.9c-2.2-2.3-4.7-3.5-7.2-3.5c-11,0-18.1,14.7-18.1,37.4c0,24.2,9.4,35.3,18.2,35.3c8,0,12-6.9,15.8-14.6
		l0-0.1l-0.4-1.1L1085.5,115.4z M1054.6,85.7c0.5-14,5.8-24.1,12.8-24.1c6.3,0,11.7,7.1,13.9,18.2c0.2,0.6,0.3,2.5,0.3,3.6
		L1054.6,85.7z"/>
	<polygon class="st0" points="1109.3,27.6 1094.7,27.6 1094.7,30.3 1106.3,30.3 1106.3,118.8 1091,128.3 1090.8,128.4 1090.8,129.3 
		1107.8,125.6 1125.1,129.3 1125.4,129.3 1125.4,128.4 1109.3,118.8 	"/>
	<polygon class="st0" points="1146.9,27.6 1132.3,27.6 1132.3,30.3 1143.9,30.3 1143.9,118.8 1128.5,128.3 1128.4,128.4 
		1128.4,129.3 1145.4,125.6 1162.6,129.3 1163,129.3 1163,128.4 1146.9,118.8 	"/>
	<path class="st0" d="M1198.1,122.1V85.3c0-17.3-4.6-27.2-12.6-27.2c-8.4,0-13,9.2-16.1,17.2l0,0.1l0.6,1.3l0.2-0.6
		c3.9-9.9,8.4-14.3,14.4-14.3c6.4,0,10.5,9.3,10.5,23.7v3.7l-25.1,10.5l-0.1,0l0,0.1c-0.9,2.3-1.8,7.3-1.8,11.5
		c0,9.7,3.5,19.4,11.4,19.4c6.5,0,12.8-5.2,15.6-12.9V131l15.1-10.7l0.1-0.1v-0.9L1198.1,122.1z M1182,125.7
		c-5.1,0-12.5-6.4-12.5-17.9c0-0.9,0-1.8,0.1-2.5l25.5-15v25.3C1192.8,121.4,1187.3,125.7,1182,125.7z"/>
</g>
</svg>
