<?xml version="1.0" encoding="utf-8"?>
<!-- Generator: Adobe Illustrator 25.2.1, SVG Export Plug-In . SVG Version: 6.00 Build 0)  -->
<svg version="1.1" id="Layer_1" xmlns="http://www.w3.org/2000/svg" xmlns:xlink="http://www.w3.org/1999/xlink" x="0px" y="0px"
	 viewBox="0 0 483 148" style="enable-background:new 0 0 483 148;" xml:space="preserve">
<style type="text/css">
	.st0{fill:#FFFFFF;}
	.st1{fill:#C9CA9E;}
	.st2{fill:#FF0000;}
</style>
<g>
	<path class="st0" d="M0.5,126.4v1l13.2-3.8l13.9,3.7l0.3,0.1v-1l-12.6-9.9l6.2-31h22l6.9,31l-12.7,9.9v1l14.3-3.8l14.1,3.8v-1
		l-12.4-10L32.8,22.3l-0.3-1.2l-18.9,95.3L0.5,126.4z M21.9,83.5l9.9-50.4l11.2,50.4H21.9z"/>
	<path class="st0" d="M97.7,56.1c-6.5,0-11.3,6-13.8,16.9V57.8H70.3v2.9h10.6v56.2l-13.1,9.5l-0.1,0.1v1l14.7-3.8l12.4,3.8v-1
		l-10.9-9.6V76.4c3.6-13.1,7.7-15.8,13.1-15.8c6.7,0,10.9,9.6,10.9,25.2v31l-10.3,9.6v1l11.8-3.8l15,3.7l0.3,0.1v-1l-13.8-9.6v-35
		C111,66.1,105.8,56.1,97.7,56.1z"/>
	<path class="st0" d="M130.7,97.7L130.7,97.7l-0.1,0.1c-0.9,2.3-1.8,7.3-1.8,11.5c0,9.7,3.5,19.4,11.4,19.4
		c6.5,0,12.8-5.2,15.6-12.9V129l15.1-10.7l0.1-0.1v-0.9l-12.2,2.9V83.3c0-17.3-4.6-27.2-12.6-27.2c-8.4,0-13,9.2-16.1,17.2l0,0.1
		l0.6,1.3l0.2-0.6c4-10,8.3-14.3,14.4-14.3c6.4,0,10.5,9.3,10.5,23.7v3.7L130.7,97.7z M142.7,123.7c-5.1,0-12.5-6.4-12.5-17.9
		c0-0.9,0-1.8,0.1-2.5l25.5-15v25.3C153.5,119.4,148,123.7,142.7,123.7z"/>
	<path class="st0" d="M197,126.4v1l13.2-3.8l13.9,3.7l0.3,0.1v-1l-12.6-9.9l6.2-31h22l6.9,31l-12.7,9.9v1l14.3-3.8l14.1,3.8v-1
		l-12.4-10l-20.8-94.2l-0.3-1.2l-18.9,95.3L197,126.4z M218.3,83.5l9.9-50.4l11.2,50.4H218.3z"/>
	<polygon class="st0" points="264.2,126.3 264.1,126.4 264.1,127.3 281.1,123.6 298.3,127.3 298.6,127.3 298.6,126.4 282.6,116.8 
		282.6,25.6 268,25.6 268,28.3 279.6,28.3 279.6,116.8 	"/>
	<path class="st0" d="M336.9,86.7l0.3,0l0-0.3c0.4-11.3-2.5-21.7-7.6-26.9c-2.2-2.3-4.7-3.5-7.2-3.5c-11,0-18.1,14.7-18.1,37.4
		c0,24.2,9.4,35.3,18.2,35.3c8,0,12-6.9,15.8-14.6l0-0.1l-0.4-1.1l-0.3,0.5c-4,7.7-8.1,11.3-12.8,11.3c-10.5,0-18.1-16.6-18.1-39.5
		v-0.6L336.9,86.7z M306.6,83.7c0.5-14,5.8-24.1,12.8-24.1c6.3,0,11.7,7.1,13.9,18.2c0.2,0.6,0.3,2.5,0.3,3.6L306.6,83.7z"/>
	<path class="st0" d="M386.2,81.7c0-15.6-5.2-25.7-13.3-25.7c-6.5,0-11.3,6-13.8,16.9V57.8h-13.6v2.9h10.6v56.2l-13.1,9.5l-0.1,0.1
		v1l14.7-3.8l12.4,3.8v-1l-10.9-9.6V76.4c3.7-13.1,7.7-15.8,13.1-15.8c6.7,0,10.9,9.6,10.9,25.2v31l-10.3,9.6v1l11.8-3.8l15,3.7
		l0.3,0.1v-1l-13.8-9.6V81.7z"/>
	<path class="st0" d="M407.2,118.8c2.9,4.8,7.1,10,13.4,10c7.1,0,14.7-6.3,14.7-20.1c0-10.4-7.6-15-12.6-18.1
		c-0.3-0.2-0.7-0.4-1-0.6l-1-0.6c-5.1-3.1-12.8-7.7-13.9-14.7c-0.7-4.6,0.5-9.4,3.1-12.4c1.9-2.2,4.5-3.4,7.4-3.4
		c6.4,0,12.8,9.1,14.1,20l0.7,6.1h2.1L433,56.2h-0.9l-1.2,8.5c-3-4.1-7.3-8.7-11.9-8.7c-7,0-14.1,6.4-14.1,18.8
		c0,10.3,6.7,14.5,12,17.9c0.6,0.3,1.1,0.7,1.6,1c0.4,0.2,0.8,0.5,1.2,0.7c4.9,3,12.2,7.6,13.2,15.8c0.6,5.1-0.5,9.7-3.2,12.7
		c-1.8,2.1-4.3,3.2-7.1,3.2c-8.4,0-14.7-10-15.6-24.8c-0.2-2.3-0.2-4.2-0.2-5V96h-2.1l-0.6,32.3h0.9L407.2,118.8z"/>
	<path class="st0" d="M480.8,90.7c0-9.1-1.6-17.6-4.6-23.9c-3.3-7-7.9-10.7-13.4-10.7c-11.5,0-19.2,15-19.2,37.4
		c0,20.8,7.7,35.3,18.7,35.3C472.5,128.8,480.8,111.7,480.8,90.7z M478.1,98.2c0,13.1-5,26.7-13.3,26.7c-11,0-18.9-16.2-18.9-38.6
		c0-18.4,7.2-26.8,13.9-26.8C470.9,59.4,478.1,74.7,478.1,98.2z"/>
</g>
</svg>
