<svg
  version="1.1"
  id="Layer_1"
  xmlns="http://www.w3.org/2000/svg"
  x="0"
  y="0"
  viewBox="0 0 881 148"
  style="enable-background: new 0 0 881 148"
  xml:space="preserve"
>
  <style>
    .st0 {
      fill: #fff;
    }
  </style>
  <path
    class="st0"
    d="m27.9 116.3.3.1v-1l-12.6-9.9 6.2-31h22l6.9 31-12.7 9.9v1l14.3-3.8 14.1 3.8v-1l-12.4-10-20.9-94.1-.3-1.2-18.9 95.3-13.2 9.9v1l13.2-3.8 14 3.8zm-5.7-43.8 9.9-50.4 11.2 50.4H22.2zM95.1 116.4v-1l-10.9-9.6V65.4c3.6-13.1 7.7-15.8 13.1-15.8 6.7 0 10.9 9.6 10.9 25.2v31l-10.3 9.6v1l11.8-3.8 15 3.7.3.1v-1l-13.8-9.6v-35c0-15.6-5.2-25.7-13.3-25.7-6.5 0-11.3 6-13.8 16.9V46.8H70.5v2.9h10.6v56.2L68 115.3l-.1.1v1l14.7-3.8 12.5 3.8zM154.1 116.4v-1l-10.9-9.6V65.4c3.6-13.1 7.7-15.8 13.1-15.8 6.7 0 10.9 9.6 10.9 25.2v31l-10.3 9.6v1l11.8-3.8 15 3.7.3.1v-1l-13.8-9.6v-35c0-15.6-5.2-25.7-13.3-25.7-6.5 0-11.3 6-13.8 16.9V46.8h-13.6v2.9h10.6v56.2l-13.1 9.5-.1.1v1l14.7-3.8 12.5 3.7zM206.8 117.8c8 0 12-6.9 15.8-14.6v-.1l-.4-1.1-.3.5c-4 7.7-8.1 11.3-12.8 11.3-10.5 0-18.1-16.6-18.1-39.5v-.6l30.3 2h.3v-.3c.4-11.3-2.5-21.7-7.6-26.9-2.2-2.3-4.7-3.5-7.2-3.5-11 0-18.1 14.7-18.1 37.4 0 24.3 9.4 35.4 18.1 35.4zM191 72.7c.5-14 5.8-24.1 12.8-24.1 6.3 0 11.7 7.1 13.9 18.2.2.6.3 2.5.3 3.6l-27 2.3zM308 67c0-33.3-11.2-52.4-30.6-52.4H252v.9l14.4 6.6v86.5l-14.4 6.7v.9h25.4c19.5.1 30.6-17.9 30.6-49.2zm-38.4 47.3V16.6h8.2c16.2 0 26.7 19.8 26.7 50.4 0 28.7-10.5 47.2-26.7 47.2h-8.2zM319.5 92.1c0 15.8 4.6 25.7 12 25.7 6.5 0 11.3-6 13.8-16.9v15.5l13.5-8.7.1-.1v-.9l-10.6 1.9V46.8h-10.4v2.9h7.4v47.9c-3.6 13.1-7.7 15.8-13.1 15.8-5.9 0-9.7-9-9.7-22.8V46.8h-10.2v2.9h7.2v42.4zM387.2 116.4v-1l-11.1-9.6V88.5l4.5-8.5 14.1 26.9-5.6 8.5v1l8.7-4 13.7 3.9v-.9l-12.9-9-16-30.3 14.2-26.5h7.4v-2.8h-18.6v2.8h9.3l-18.8 35.5V14.6h-12.4v2.7h9.4v88.5l-10.6 9.6v1l12.1-3.8zM469.8 116.3v-.9l-14-9.4V62.4h29.9V106l-12.4 9.3-.1.1v.9l14.3-3.7 16 3.7v-.9l-14.7-9.4V24.9l14.3-9.4v-1l-15.8 3.8-14.4-3.8v1l12.8 9.4v35.5h-29.9V24.9l14.1-9.3.1-.1v-1l-15.8 3.8-14.3-3.8v1l12.8 9.4V106l-13.5 9.3-.1.1v.9l15.2-3.7zM528.2 117.8c8 0 12-6.9 15.8-14.6v-.1l-.4-1.1-.3.5c-4 7.7-8.1 11.3-12.8 11.3-10.5 0-18.1-16.6-18.1-39.5v-.6l30.3 2h.3v-.3c.4-11.3-2.5-21.7-7.6-26.9-2.2-2.3-4.7-3.5-7.2-3.5-11 0-18.1 14.7-18.1 37.4-.1 24.3 9.3 35.4 18.1 35.4zm-15.8-45.1c.5-14 5.8-24.1 12.8-24.1 6.3 0 11.7 7.1 13.9 18.2.2.6.3 2.5.3 3.6l-27 2.3zM569.4 117.8c8 0 12-6.9 15.8-14.6v-.1l-.4-1.1-.3.5c-4 7.7-8.1 11.3-12.8 11.3-10.5 0-18.1-16.6-18.1-39.5v-.6l30.3 2h.3v-.3c.4-11.3-2.5-21.7-7.6-26.9-2.2-2.3-4.7-3.5-7.2-3.5-11 0-18.1 14.7-18.1 37.4 0 24.3 9.4 35.4 18.1 35.4zm-15.8-45.1c.5-14 5.8-24.1 12.8-24.1 6.3 0 11.7 7.1 13.9 18.2.2.6.3 2.5.3 3.6l-27 2.3zM633.3 102.9v-78l9.3-9.4v-1l-10.9 3.8-11-3.8v1l9.4 9.4v74.5c0 21.1-4.2 33.8-12.5 37.8l-.1.1v1l.4-.2c11.4-5 15.4-22.1 15.4-35.2zM666.5 117.8c10.2 0 18.4-17.1 18.4-38.1 0-9.1-1.6-17.6-4.6-23.9-3.3-7-7.9-10.7-13.4-10.7-11.5 0-19.2 15-19.2 37.4.1 20.8 7.8 35.3 18.8 35.3zm-16.4-42.5c0-18.4 7.2-26.8 13.9-26.8 11.1 0 18.3 15.2 18.3 38.8 0 13.1-5 26.7-13.3 26.7-10.9-.1-18.9-16.3-18.9-38.7zM716.9 116.3v-1l-12.1-9.6V70.5c2.3-13.1 5.8-18 13.1-18h.9v-7.4h-.2s-.8-.2-1.3-.2c-5.4.3-10.5 10.3-12.5 20.4V46.8h-11.3v2.9h8.3v56.2l-11.2 9.6v1l12.7-3.8 13.6 3.6zM743.9 117.8c8.4 0 13.1-8.8 14.9-12.9v11.7l13.9-9.7.1-.1v-1l-11 2.7V14.6H750v2.7h8.8V49c-3-2.6-6.2-3.9-9.7-3.9-13 0-20.3 19.1-20.9 37.9-.4 13 3.2 25.7 8.9 31.5 2.2 2.2 4.4 3.3 6.8 3.3zm3-4.4c-9.8 0-15.9-13.8-15.9-36.1 0-16.7 6.4-28.9 15.3-28.9 4.9 0 9.6 3.1 12.5 8.4v45.7c-1.7 4.1-5.4 10.9-11.9 10.9zM780.9 86.7l-.1.1c-.9 2.3-1.8 7.3-1.8 11.5 0 9.7 3.5 19.4 11.4 19.4 6.5 0 12.8-5.2 15.6-12.9V118l15.2-10.8v-.9l-12.2 2.9V72.3c0-17.3-4.6-27.2-12.6-27.2-8.4 0-13 9.2-16.1 17.2v.1l.6 1.3.2-.6c3.9-9.9 8.4-14.3 14.4-14.3 6.4 0 10.5 9.3 10.5 23.7v3.7l-25.1 10.5zm12.1 26c-5.1 0-12.5-6.4-12.5-17.9 0-.9 0-1.8.1-2.5l25.5-15v25.3c-2.3 5.8-7.8 10.1-13.1 10.1zM850.3 116.4v-1l-10.9-9.6V65.4c3.7-13.1 7.7-15.8 13.1-15.8 6.7 0 10.9 9.6 10.9 25.2v31l-10.3 9.6v1l11.8-3.8 15 3.7.3.1v-1l-13.8-9.6v-35c0-15.6-5.2-25.7-13.3-25.7-6.5 0-11.3 6-13.8 16.9V46.8h-13.6v2.9h10.6v56.2l-13.1 9.5-.1.1v1l14.7-3.8 12.5 3.7z"
  />
</svg>
