<?xml version="1.0" encoding="utf-8"?>
<!-- Generator: Adobe Illustrator 25.2.1, SVG Export Plug-In . SVG Version: 6.00 Build 0)  -->
<svg version="1.1" id="Layer_1" xmlns="http://www.w3.org/2000/svg" xmlns:xlink="http://www.w3.org/1999/xlink" x="0px" y="0px"
	 viewBox="0 0 881 148" style="enable-background:new 0 0 881 148;" xml:space="preserve">
<style type="text/css">
	.st0{fill:#FFFFFF;}
	.st1{fill:#C9CA9E;}
	.st2{fill:#FF0000;}
</style>
<g>
	<path class="st0" d="M27.9,116.3l0.3,0.1v-1l-12.6-9.9l6.2-31h22l6.9,31l-12.7,9.9v1l14.3-3.8l14.1,3.8v-1l-12.4-10L33.1,11.3
		l-0.3-1.2l-18.9,95.3l-13.2,9.9v1l13.2-3.8L27.9,116.3z M22.2,72.5l9.9-50.4l11.2,50.4H22.2z"/>
	<path class="st0" d="M95.1,116.4v-1l-10.9-9.6V65.4c3.6-13.1,7.7-15.8,13.1-15.8c6.7,0,10.9,9.6,10.9,25.2v31l-10.3,9.6v1l11.8-3.8
		l15,3.7l0.3,0.1v-1l-13.8-9.6v-35c0-15.6-5.2-25.7-13.3-25.7c-6.5,0-11.3,6-13.8,16.9V46.8H70.5v2.9h10.6v56.2L68,115.3l-0.1,0.1v1
		l14.7-3.8L95.1,116.4z"/>
	<path class="st0" d="M154.1,116.4v-1l-10.9-9.6V65.4c3.6-13.1,7.7-15.8,13.1-15.8c6.7,0,10.9,9.6,10.9,25.2v31l-10.3,9.6v1
		l11.8-3.8l15,3.7l0.3,0.1v-1l-13.8-9.6v-35c0-15.6-5.2-25.7-13.3-25.7c-6.5,0-11.3,6-13.8,16.9V46.8h-13.6v2.9h10.6v56.2l-13.1,9.5
		l-0.1,0.1v1l14.7-3.8L154.1,116.4z"/>
	<path class="st0" d="M206.8,117.8c8,0,12-6.9,15.8-14.6l0-0.1l-0.4-1.1l-0.3,0.5c-4,7.7-8.1,11.3-12.8,11.3
		c-10.5,0-18.1-16.6-18.1-39.5v-0.6l30.3,2l0.3,0l0-0.3c0.4-11.3-2.5-21.7-7.6-26.9c-2.2-2.3-4.7-3.5-7.2-3.5
		c-11,0-18.1,14.7-18.1,37.4C188.7,106.7,198.1,117.8,206.8,117.8z M191,72.7c0.5-14,5.8-24.1,12.8-24.1c6.3,0,11.7,7.1,13.9,18.2
		c0.2,0.6,0.3,2.5,0.3,3.6L191,72.7z"/>
	<path class="st0" d="M308,67c0-33.3-11.2-52.4-30.6-52.4h-25.4v0.9l14.4,6.6v86.5l-14.4,6.7v0.9h25.4C296.9,116.3,308,98.3,308,67z
		 M269.6,114.3V16.6h8.2c16.2,0,26.7,19.8,26.7,50.4c0,28.7-10.5,47.2-26.7,47.2H269.6z"/>
	<path class="st0" d="M319.5,92.1c0,15.8,4.6,25.7,12,25.7c6.5,0,11.3-6,13.8-16.9v15.5l13.5-8.7l0.1-0.1v-0.9l-10.6,1.9V46.8h-10.4
		v2.9h7.4v47.9c-3.6,13.1-7.7,15.8-13.1,15.8c-5.9,0-9.7-9-9.7-22.8V46.8h-10.2v2.9h7.2V92.1z"/>
	<polygon class="st0" points="387.2,116.4 387.2,115.4 376.1,105.8 376.1,88.5 380.6,80 394.7,106.9 389.1,115.4 389.1,116.4 
		397.8,112.4 411.5,116.3 411.5,115.4 398.6,106.4 382.6,76.1 396.8,49.6 404.2,49.6 404.2,46.8 385.6,46.8 385.6,49.6 394.9,49.6 
		376.1,85.1 376.1,14.6 363.7,14.6 363.7,17.3 373.1,17.3 373.1,105.8 362.5,115.4 362.5,116.4 374.6,112.6 	"/>
	<polygon class="st0" points="469.8,116.3 469.8,115.4 455.8,106 455.8,62.4 485.7,62.4 485.7,106 473.3,115.3 473.2,115.4 
		473.2,116.3 487.5,112.6 503.5,116.3 503.5,115.4 488.8,106 488.8,24.9 503.1,15.5 503.1,14.5 487.3,18.3 472.9,14.5 472.9,15.5 
		485.7,24.9 485.7,60.4 455.8,60.4 455.8,24.9 469.9,15.6 470,15.5 470,14.5 454.2,18.3 439.9,14.5 439.9,15.5 452.7,24.9 
		452.7,106 439.2,115.3 439.1,115.4 439.1,116.3 454.3,112.6 	"/>
	<path class="st0" d="M528.2,117.8c8,0,12-6.9,15.8-14.6l0-0.1l-0.4-1.1l-0.3,0.5c-4,7.7-8.1,11.3-12.8,11.3
		c-10.5,0-18.1-16.6-18.1-39.5v-0.6l30.3,2l0.3,0l0-0.3c0.4-11.3-2.5-21.7-7.6-26.9c-2.2-2.3-4.7-3.5-7.2-3.5
		c-11,0-18.1,14.7-18.1,37.4C510,106.7,519.4,117.8,528.2,117.8z M512.4,72.7c0.5-14,5.8-24.1,12.8-24.1c6.3,0,11.7,7.1,13.9,18.2
		c0.2,0.6,0.3,2.5,0.3,3.6L512.4,72.7z"/>
	<path class="st0" d="M569.4,117.8c8,0,12-6.9,15.8-14.6l0-0.1l-0.4-1.1l-0.3,0.5c-4,7.7-8.1,11.3-12.8,11.3
		c-10.5,0-18.1-16.6-18.1-39.5v-0.6l30.3,2l0.3,0l0-0.3c0.4-11.3-2.5-21.7-7.6-26.9c-2.2-2.3-4.7-3.5-7.2-3.5
		c-11,0-18.1,14.7-18.1,37.4C551.3,106.7,560.7,117.8,569.4,117.8z M553.6,72.7c0.5-14,5.8-24.1,12.8-24.1c6.3,0,11.7,7.1,13.9,18.2
		c0.2,0.6,0.3,2.5,0.3,3.6L553.6,72.7z"/>
	<path class="st0" d="M633.3,102.9v-78l9.3-9.4v-1l-10.9,3.8l-11-3.8v1l9.4,9.4v74.5c0,21.1-4.2,33.8-12.5,37.8l-0.1,0.1v1l0.4-0.2
		C629.3,133.1,633.3,116,633.3,102.9z"/>
	<path class="st0" d="M666.5,117.8c10.2,0,18.4-17.1,18.4-38.1c0-9.1-1.6-17.6-4.6-23.9c-3.3-7-7.9-10.7-13.4-10.7
		c-11.5,0-19.2,15-19.2,37.4C647.8,103.3,655.5,117.8,666.5,117.8z M650.1,75.3c0-18.4,7.2-26.8,13.9-26.8
		c11.1,0,18.3,15.2,18.3,38.8c0,13.1-5,26.7-13.3,26.7C658.1,113.9,650.1,97.7,650.1,75.3z"/>
	<path class="st0" d="M716.9,116.3v-1l-12.1-9.6l0-35.2c2.3-13.1,5.8-18,13.1-18h0.9v-7.4l-0.2,0c0,0-0.8-0.2-1.3-0.2c0,0,0,0,0,0
		c-5.4,0.3-10.5,10.3-12.5,20.4V46.8h-11.3v2.9h8.3v56.2l-11.2,9.6v1l12.7-3.8L716.9,116.3z"/>
	<path class="st0" d="M743.9,117.8c8.4,0,13.1-8.8,14.9-12.9v11.7l13.9-9.7l0.1-0.1v-1l-11,2.7V14.6H750v2.7h8.8V49
		c-3-2.6-6.2-3.9-9.7-3.9c-13,0-20.3,19.1-20.9,37.9c-0.4,13,3.2,25.7,8.9,31.5C739.3,116.7,741.5,117.8,743.9,117.8z M746.9,113.4
		c-9.8,0-15.9-13.8-15.9-36.1c0-16.7,6.4-28.9,15.3-28.9c4.9,0,9.6,3.1,12.5,8.4v45.7C757.1,106.6,753.4,113.4,746.9,113.4z"/>
	<path class="st0" d="M780.9,86.7L780.9,86.7l-0.1,0.1c-0.9,2.3-1.8,7.3-1.8,11.5c0,9.7,3.5,19.4,11.4,19.4
		c6.5,0,12.8-5.2,15.6-12.9V118l15.2-10.8v-0.9l-12.2,2.9V72.3c0-17.3-4.6-27.2-12.6-27.2c-8.4,0-13,9.2-16.1,17.2l0,0.1l0.6,1.3
		l0.2-0.6c3.9-9.9,8.4-14.3,14.4-14.3c6.4,0,10.5,9.3,10.5,23.7v3.7L780.9,86.7z M793,112.7c-5.1,0-12.5-6.4-12.5-17.9
		c0-0.9,0-1.8,0.1-2.5l25.5-15v25.3C803.8,108.4,798.3,112.7,793,112.7z"/>
	<path class="st0" d="M850.3,116.4v-1l-10.9-9.6V65.4c3.7-13.1,7.7-15.8,13.1-15.8c6.7,0,10.9,9.6,10.9,25.2v31l-10.3,9.6v1
		l11.8-3.8l15,3.7l0.3,0.1v-1l-13.8-9.6v-35c0-15.6-5.2-25.7-13.3-25.7c-6.5,0-11.3,6-13.8,16.9V46.8h-13.6v2.9h10.6v56.2l-13.1,9.5
		l-0.1,0.1v1l14.7-3.8L850.3,116.4z"/>
</g>
</svg>
