<?xml version="1.0" encoding="utf-8"?>
<!-- Generator: Adobe Illustrator 25.2.1, SVG Export Plug-In . SVG Version: 6.00 Build 0)  -->
<svg version="1.1" id="Layer_1" xmlns="http://www.w3.org/2000/svg" xmlns:xlink="http://www.w3.org/1999/xlink" x="0px" y="0px"
	 viewBox="0 0 824 148" style="enable-background:new 0 0 824 148;" xml:space="preserve">
<style type="text/css">
	.st0{fill:#FFFFFF;}
	.st1{fill:#C9CA9E;}
	.st2{fill:#FF0000;}
</style>
<g>
	<path class="st0" d="M26.5,8.6H1.2v0.9l14.4,6.6v86.5l-14.4,6.7v0.9h25.3c19.5,0,30.6-17.9,30.6-49.2C57.2,27.7,46,8.6,26.5,8.6z
		 M53.6,61c0,28.7-10.5,47.2-26.7,47.2h-8.2V10.6h8.2C43.2,10.6,53.6,30.4,53.6,61z"/>
	<path class="st0" d="M88,39.1C88,39.1,88,39.1,88,39.1c-5.4,0.3-10.5,10.3-12.5,20.4V40.8H64.2v2.9h8.3v56.2l-11.2,9.6v1l12.7-3.8
		l13.6,3.8v-1l-12.1-9.6l0-35.2c2.3-13.1,5.8-18,13.1-18h0.9v-7.4l-0.2,0C89.3,39.2,88.5,39.1,88,39.1z"/>
	<path class="st0" d="M101.7,102.5c-1.6,0-2.8,2-2.8,4.6c0,2.6,1.2,4.6,2.8,4.6c1.7,0,2.8-1.9,2.8-4.6
		C104.4,104.4,103.3,102.5,101.7,102.5z"/>
	<path class="st0" d="M169.5,57.6c7.2-1.8,12-11.3,12-24.4c0-16.1-7.2-24.7-20.7-24.7h-25.2v0.9l13.1,6.6v86.5l-14.4,6.7v0.9h26.2
		c17.4,0,24.8-8.3,24.8-27.9C185.4,67.5,177.7,59,169.5,57.6z M181.9,82.4c0,17.7-6.5,26-20.6,26h-9.4V58.8h7.3
		C170.5,58.8,181.9,66.1,181.9,82.4z M177.9,33.3c0,21.7-10.6,23.5-20.6,23.5h-5.4V10.6h9.2C171.6,10.6,177.9,19.1,177.9,33.3z"/>
	<path class="st0" d="M225.5,96.4c-4,7.7-8.1,11.3-12.8,11.3c-10.5,0-18.1-16.6-18.1-39.5v-0.6l30.3,2l0.3,0l0-0.3
		c0.4-11.3-2.5-21.7-7.6-26.9c-2.2-2.3-4.7-3.5-7.2-3.5c-11,0-18.1,14.7-18.1,37.4c0,24.2,9.4,35.3,18.2,35.3c8,0,12-6.9,15.8-14.6
		l0-0.1l-0.4-1.1L225.5,96.4z M194.5,66.7c0.5-14,5.8-24.1,12.8-24.1c6.3,0,11.7,7.1,13.9,18.2c0.2,0.6,0.3,2.5,0.3,3.6L194.5,66.7z
		"/>
	<path class="st0" d="M257.5,39.1C257.5,39.1,257.5,39.1,257.5,39.1c-5.4,0.3-10.5,10.3-12.5,20.4V40.8h-11.3v2.9h8.3v56.2
		l-11.2,9.6v1l12.7-3.8l13.6,3.8v-1L245,99.8l0-35.2c2.3-13.1,5.8-18,13.1-18h0.9v-7.4l-0.2,0C258.8,39.2,258,39.1,257.5,39.1z"/>
	<path class="st0" d="M309.5,64.7c0-15.6-5.2-25.7-13.3-25.7c-6.5,0-11.3,6-13.8,16.9V40.8h-13.6v2.9h10.6v56.2l-13.1,9.5l-0.1,0.1
		v1l14.7-3.8l12.4,3.8v-1l-10.9-9.6V59.4c3.7-13.1,7.7-15.8,13.1-15.8c6.7,0,10.9,9.6,10.9,25.2v31l-10.3,9.6v1l11.8-3.8l15,3.7
		l0.3,0.1v-1l-13.8-9.6V64.7z"/>
	<path class="st0" d="M368.6,64.7c0-15.6-5.2-25.7-13.3-25.7c-6.5,0-11.3,6-13.8,16.9V8.6h-13.6v2.9h10.6v88.3l-13.1,9.5l-0.1,0.1v1
		l14.7-3.8l12.4,3.8v-1l-10.9-9.6V59.4c3.7-13.1,7.7-15.8,13.1-15.8c6.7,0,10.9,9.6,10.9,25.2v31l-10.3,9.6v1l11.8-3.8l15,3.7
		l0.3,0.1v-1l-13.8-9.6V64.7z"/>
	<path class="st0" d="M417.5,66.3c0-17.3-4.6-27.2-12.6-27.2c-8.4,0-13,9.2-16.1,17.2l0,0.1l0.6,1.3l0.2-0.6
		c3.9-9.9,8.4-14.3,14.4-14.3c6.4,0,10.5,9.3,10.5,23.7v3.7l-25.1,10.5l-0.1,0l0,0.1c-0.9,2.3-1.8,7.3-1.8,11.5
		c0,9.7,3.5,19.4,11.4,19.4c6.5,0,12.8-5.2,15.6-12.9V112l15.1-10.7l0.1-0.1v-0.9l-12.2,2.9V66.3z M401.4,106.7
		c-5.1,0-12.5-6.4-12.5-17.9c0-0.9,0-1.8,0.1-2.5l25.5-15v25.3C412.2,102.4,406.7,106.7,401.4,106.7z"/>
	<path class="st0" d="M458.2,39.1C458.2,39.1,458.2,39.1,458.2,39.1c-5.4,0.3-10.5,10.3-12.5,20.4V40.8h-11.3v2.9h8.3v56.2
		l-11.2,9.6v1l12.7-3.8l13.6,3.8v-1l-12.1-9.6l0-35.2c2.3-13.1,5.8-18,13.1-18h0.9v-7.4l-0.2,0C459.5,39.2,458.7,39.1,458.2,39.1z"
		/>
	<path class="st0" d="M502.8,8.6H491v2.7h8.8V43c-3-2.6-6.2-3.9-9.7-3.9c-13,0-20.3,19.1-20.9,37.9c-0.4,13,3.2,25.7,8.9,31.5
		c2.1,2.2,4.4,3.3,6.7,3.3c8.4,0,13.1-8.8,14.9-12.9v11.7l13.9-9.7l0.1-0.1v-1l-11,2.7V8.6z M487.8,107.4
		c-9.8,0-15.9-13.8-15.9-36.1c0-16.7,6.4-28.9,15.3-28.9c4.9,0,9.6,3.1,12.5,8.4v45.7C498.1,100.6,494.3,107.4,487.8,107.4z"/>
	<path class="st0" d="M569.8,56.5c-0.5-0.4-1-0.7-1.4-1l-0.6-0.5c-6.9-5-16.3-11.8-16.3-24.3c0-14.1,5-21.3,14.7-21.3
		c7.8,0,14,11.4,16.2,29.7c0.4,2.7,0.9,8.5,0.9,8.6l0,0.2h1.9V7.1h-1L582.7,23c-3.5-7.9-9.6-15.9-16.6-15.9
		c-11.1,0-17.5,9-17.5,24.8c0,15,9.6,22.2,16.6,27.5l0.9,0.6c0.4,0.3,0.9,0.7,1.4,1c6.6,4.9,16.7,12.3,16.7,25.2
		c0,14.8-5.7,23.3-15.5,23.3c-10.5,0-18.4-14-19.3-33.9c-0.2-3.7-0.3-6.2-0.3-7.2v-0.2h-1.9v43.6h0.9l1.6-12.3
		c4.1,6.2,9.5,12.3,17.8,12.3c9.6,0,19.8-7.1,19.8-27C587.3,69.1,576.7,61.5,569.8,56.5z"/>
	<path class="st0" d="M629.1,96.4c-4,7.7-8.1,11.3-12.8,11.3c-10.5,0-18.1-16.6-18.1-39.5v-0.6l30.3,2l0.3,0l0-0.3
		c0.4-11.3-2.5-21.7-7.6-26.9c-2.2-2.3-4.7-3.5-7.2-3.5c-11,0-18.1,14.7-18.1,37.4c0,24.2,9.4,35.3,18.2,35.3c8,0,12-6.9,15.8-14.6
		l0-0.1l-0.4-1.1L629.1,96.4z M598.1,66.7c0.5-14,5.8-24.1,12.8-24.1c6.3,0,11.7,7.1,13.9,18.2c0.2,0.6,0.3,2.5,0.3,3.6L598.1,66.7z
		"/>
	<polygon class="st0" points="652.9,8.6 638.3,8.6 638.3,11.3 649.8,11.3 649.8,99.8 634.5,109.3 634.4,109.4 634.4,110.3 
		651.4,106.6 668.6,110.3 668.9,110.3 668.9,109.4 652.9,99.8 	"/>
	<path class="st0" d="M688.8,16.3c1.7,0,2.8-1.9,2.8-4.6c0-2.8-1.1-4.6-2.8-4.6c-1.6,0-2.8,2-2.8,4.6
		C686,14.3,687.3,16.3,688.8,16.3z"/>
	<polygon class="st0" points="690.4,40.8 675.9,40.8 675.9,43.6 687.4,43.6 687.4,99.8 672,109.3 671.9,109.4 671.9,110.3 
		688.9,106.6 706.2,110.3 706.5,110.3 706.5,109.4 690.4,99.8 	"/>
	<path class="st0" d="M735.2,105.7h-10.3l9.8-6.8c6.8-4.7,11-16,11-29.5c0-10.7-3.7-21-9.3-25.8h8.9v-2.9h-15.9
		c-10.4,0-17.4,12.4-17.4,30.9c0,18.1,8.8,28.9,17.4,28.9c0.1,0,0.3,0,0.5,0l-13.6,8.8l-0.1,0.1v0.9h17.7c6.6,0,10.7,5,10.7,13
		c0,8.7-6.6,16.9-13.6,16.9c-5.4,0-10.5-2.2-15.4-6.8l-0.4-0.4v1.5l0.1,0.1c0.5,0.4,1,0.9,1.5,1.3c3.5,3.2,7.2,6.5,15.2,6.5
		c9.3,0,16.1-8.7,16.1-20.6C748.1,111.4,741.5,105.7,735.2,105.7z M730.8,98.5c-8.4,0-15.8-15.5-15.8-33.2c0-13,5-22.5,11.9-22.5
		c7.8,0,16.1,13.2,16.1,32.9C743,85.2,738.4,98.5,730.8,98.5z"/>
	<path class="st0" d="M789.7,96.4c-4,7.7-8.1,11.3-12.8,11.3c-10.5,0-18.1-16.6-18.1-39.5v-0.6l30.3,2l0.3,0l0-0.3
		c0.4-11.3-2.5-21.7-7.6-26.9c-2.2-2.3-4.7-3.5-7.2-3.5c-11,0-18.1,14.7-18.1,37.4c0,24.2,9.4,35.3,18.2,35.3c8,0,12-6.9,15.8-14.6
		l0-0.1l-0.4-1.1L789.7,96.4z M758.7,66.7c0.5-14,5.8-24.1,12.8-24.1c6.3,0,11.7,7.1,13.9,18.2c0.2,0.6,0.3,2.5,0.3,3.6L758.7,66.7z
		"/>
	<path class="st0" d="M823,39.2c0,0-0.8-0.2-1.3-0.2c0,0,0,0,0,0c-5.4,0.3-10.5,10.3-12.5,20.4V40.8h-11.3v2.9h8.3v56.2l-11.1,9.5
		l-0.1,0.1v1l12.7-3.8l13.6,3.8v-1l-12.1-9.6l0-35.2c2.3-13.1,5.8-18,13.1-18h0.9v-7.4L823,39.2z"/>
</g>
</svg>
