<?xml version="1.0" encoding="utf-8"?>
<!-- Generator: Adobe Illustrator 25.2.1, SVG Export Plug-In . SVG Version: 6.00 Build 0)  -->
<svg version="1.1" id="Layer_1" xmlns="http://www.w3.org/2000/svg" xmlns:xlink="http://www.w3.org/1999/xlink" x="0px" y="0px"
	 viewBox="0 0 770 148" style="enable-background:new 0 0 770 148;" xml:space="preserve">
<style type="text/css">
	.st0{fill:#FFFFFF;}
	.st1{fill:#C9CA9E;}
	.st2{fill:#FF0000;}
</style>
<g>
	<path class="st0" d="M48.9,71.2V24.4h-1l-2.4,20.8c-3.8-13.3-11.1-22.2-18.3-22.2c-16,0-25.9,20.7-25.9,53.9
		c0,34.9,13.7,50.7,26.4,50.7c10.7,0,16.3-7.3,23-20.8l0.1-0.1l-0.7-0.9l-0.2,0.4c-5.8,11.5-12.2,17.4-19.1,17.4
		C15.2,123.6,4,100.2,4,67.9c0-20.1,6.7-41.8,21.3-41.8c14,0,20.6,26.8,20.6,44.9v0.2H48.9z"/>
	<polygon class="st0" points="53.4,125.3 53.2,125.4 53.2,126.3 70.2,122.6 87.5,126.3 87.8,126.3 87.8,125.4 71.7,115.8 71.7,24.6 
		57.1,24.6 57.1,27.3 68.7,27.3 68.7,115.8 	"/>
	<path class="st0" d="M126,85.7l0.3,0l0-0.3c0.4-11.3-2.5-21.7-7.6-26.9c-2.2-2.3-4.7-3.5-7.2-3.5c-11,0-18.1,14.7-18.1,37.4
		c0,24.2,9.4,35.3,18.2,35.3c8,0,12-6.9,15.8-14.6l0-0.1l-0.4-1.1l-0.3,0.5c-4,7.7-8.1,11.3-12.8,11.3c-10.5,0-18.1-16.6-18.1-39.5
		v-0.6L126,85.7z M95.8,82.7c0.5-14,5.8-24.1,12.8-24.1c6.3,0,11.7,7.1,13.9,18.2c0.2,0.6,0.3,2.5,0.3,3.6L95.8,82.7z"/>
	<path class="st0" d="M159.4,126.4v-1l-10.9-9.6V75.4c3.6-13.1,7.7-15.8,13.1-15.8c6.7,0,10.9,9.6,10.9,25.2v31l-10.3,9.6v1
		l11.8-3.8l12.3,3.8v-1l-10.8-9.6V80.7c0-2-0.1-4.1-0.3-5.9c3.6-12.8,7.7-15.3,13.5-15.3c6.7,0,10.9,9.6,10.9,25.2v31l-10.3,9.6v1
		l11.8-3.8l15,3.7l0.3,0.1v-1l-13.8-9.6v-35c0-15.6-5.2-25.7-13.3-25.7c-6.7,0-12,6.5-14.3,17.6c-1.6-11-6.3-17.6-12.8-17.6
		c-6.5,0-11.3,6-13.8,16.9V56.8h-13.6v2.9h10.6v56.2l-13.1,9.5l-0.1,0.1v1l14.7-3.8L159.4,126.4z"/>
	<path class="st0" d="M255,85.7l0.3,0l0-0.3c0.4-11.3-2.5-21.7-7.6-26.9c-2.2-2.3-4.7-3.5-7.2-3.5c-11,0-18.1,14.7-18.1,37.4
		c0,24.2,9.4,35.3,18.2,35.3c8,0,12-6.9,15.8-14.6l0-0.1l-0.4-1.1l-0.3,0.5c-4,7.7-8.1,11.3-12.8,11.3c-10.5,0-18.1-16.6-18.1-39.5
		v-0.6L255,85.7z M224.7,82.7c0.5-14,5.8-24.1,12.8-24.1c6.3,0,11.7,7.1,13.9,18.2c0.2,0.6,0.3,2.5,0.3,3.6L224.7,82.7z"/>
	<path class="st0" d="M261.1,125.3l-0.1,0.1v1l14.7-3.8l12.4,3.8v-1l-10.9-9.6V75.4c3.7-13.1,7.7-15.8,13.1-15.8
		c6.7,0,10.9,9.6,10.9,25.2v31l-10.3,9.6v1l11.8-3.8l15,3.7l0.3,0.1v-1l-13.8-9.6v-35c0-15.6-5.2-25.7-13.3-25.7
		c-6.5,0-11.3,6-13.8,16.9V56.8h-13.6v2.9h10.6v56.2L261.1,125.3z"/>
	<path class="st0" d="M322.8,95l-0.6,32.3h0.9l2-9.5c2.9,4.8,7.1,10,13.4,10c7.1,0,14.7-6.3,14.7-20.1c0-10.4-7.6-15-12.6-18.1
		c-0.3-0.2-0.7-0.4-1-0.6l-1-0.6c-5.1-3.1-12.8-7.7-13.9-14.7c-0.7-4.6,0.5-9.4,3.1-12.4c1.9-2.2,4.5-3.4,7.4-3.4
		c6.4,0,12.8,9.1,14.1,20l0.7,6.1h2.1L351,55.2h-0.9l-1.2,8.5c-3-4.1-7.3-8.7-11.9-8.7c-7,0-14.1,6.4-14.1,18.8
		c0,10.3,6.7,14.5,12,17.9c0.6,0.3,1.1,0.7,1.6,1c0.4,0.2,0.8,0.5,1.2,0.7c4.9,3,12.2,7.6,13.2,15.8c0.6,5.1-0.5,9.7-3.2,12.7
		c-1.8,2.1-4.3,3.2-7.1,3.2c-8.4,0-14.7-10-15.6-24.8c-0.2-2.3-0.2-4.2-0.2-5V95H322.8z"/>
	<polygon class="st0" points="383.1,24.5 383.1,25.5 395.2,34.3 408.8,129.4 408.9,129.6 409.8,129.6 424.5,31.1 441.8,129.4 
		441.9,129.6 442.8,129.6 454.2,34.4 468.3,25.6 468.4,25.5 468.4,24.5 453.5,28.3 438.2,24.5 438.2,25.5 452.6,34.4 443,114.9 
		425.8,16.7 424.9,16.7 410.5,114.9 398.9,34.2 413.2,25.5 413.2,24.5 396.9,28.3 	"/>
	<polygon class="st0" points="473.9,59.6 485.4,59.6 485.4,115.8 470.1,125.3 469.9,125.4 469.9,126.3 486.9,122.6 504.2,126.3 
		504.5,126.3 504.5,125.4 488.4,115.8 488.4,56.8 473.9,56.8 	"/>
	<path class="st0" d="M489.6,27.7c0-2.8-1.1-4.6-2.8-4.6c-1.6,0-2.8,2-2.8,4.6c0,2.6,1.2,4.6,2.8,4.6
		C488.5,32.3,489.6,30.5,489.6,27.7z"/>
	<polygon class="st0" points="526,24.6 511.4,24.6 511.4,27.3 523,27.3 523,115.8 507.6,125.3 507.5,125.4 507.5,126.3 524.5,122.6 
		541.7,126.3 542,126.3 542,125.4 526,115.8 	"/>
	<path class="st0" d="M572.2,126.4v-1l-10.9-9.6V75.4c3.7-13.1,7.7-15.8,13.1-15.8c6.7,0,10.9,9.6,10.9,25.2v31l-10.3,9.6v1
		l11.8-3.8l15,3.7l0.3,0.1v-1l-13.8-9.6v-35c0-15.6-5.2-25.7-13.3-25.7c-6.5,0-11.3,6-13.8,16.9V24.6h-13.6v2.9h10.6v88.3l-13.1,9.5
		l-0.1,0.1v1l14.7-3.8L572.2,126.4z"/>
	<path class="st0" d="M607.8,92.5c0,24.2,9.4,35.3,18.2,35.3c8,0,12-6.9,15.8-14.6l0-0.1l-0.4-1.1l-0.3,0.5
		c-4,7.7-8.1,11.3-12.8,11.3c-10.5,0-18.1-16.6-18.1-39.5v-0.6l30.3,2l0.3,0l0-0.3c0.4-11.3-2.5-21.7-7.6-26.9
		c-2.2-2.3-4.7-3.5-7.2-3.5C614.9,55.1,607.8,69.8,607.8,92.5z M610.2,82.7c0.5-14,5.8-24.1,12.8-24.1c6.3,0,11.7,7.1,13.9,18.2
		c0.2,0.6,0.3,2.5,0.3,3.6L610.2,82.7z"/>
	<polygon class="st0" points="650.3,24.6 650.3,27.3 661.9,27.3 661.9,115.8 646.5,125.3 646.4,125.4 646.4,126.3 663.4,122.6 
		680.7,126.3 681,126.3 681,125.4 664.9,115.8 664.9,24.6 	"/>
	<path class="st0" d="M700.4,72V56.8h-13.6v2.9h10.6v56.2l-13.1,9.5l-0.1,0.1v1l14.7-3.8l12.4,3.8v-1l-10.9-9.6V75.4
		c3.7-13.1,7.7-15.8,13.1-15.8c6.7,0,10.9,9.6,10.9,25.2v31l-10.3,9.6v1l11.8-3.8l12.3,3.8v-1l-10.8-9.6V80.7c0-2-0.1-4.1-0.3-5.9
		c3.6-12.8,7.7-15.3,13.5-15.3c6.7,0,10.9,9.6,10.9,25.2v31l-10.3,9.6v1l11.8-3.8l15,3.7l0.3,0.1v-1l-13.8-9.6v-35
		c0-15.6-5.2-25.7-13.3-25.7c-6.7,0-12,6.5-14.3,17.6c-1.6-11-6.3-17.6-12.8-17.6C707.7,55.1,702.9,61.1,700.4,72z"/>
</g>
</svg>
