<?xml version="1.0" encoding="utf-8"?>
<!-- Generator: Adobe Illustrator 25.2.1, SVG Export Plug-In . SVG Version: 6.00 Build 0)  -->
<svg version="1.1" id="Layer_1" xmlns="http://www.w3.org/2000/svg" xmlns:xlink="http://www.w3.org/1999/xlink" x="0px" y="0px"
	 viewBox="0 0 1605 148" style="enable-background:new 0 0 1605 148;" xml:space="preserve">
<style type="text/css">
	.st0{fill:#FFFFFF;}
	.st1{fill:#FFFFFF;}
	.st2{fill:#FF0000;}
</style>
<g>
	<path class="st1" d="M52.3,99.7c-5.8,11.5-12.2,17.4-19.1,17.4c-15.5,0-26.7-23.4-26.7-55.6c0-20.1,6.7-41.8,21.3-41.8
		c14,0,20.6,26.8,20.6,44.9v0.2h3V17.9h-1L48,38.8c-3.8-13.3-11.1-22.2-18.3-22.2c-16,0-25.9,20.7-25.9,53.9
		c0,34.9,13.7,50.7,26.4,50.7c10.7,0,16.3-7.3,23-20.8l0.1-0.1l-0.7-0.9L52.3,99.7z"/>
	<polygon class="st1" points="74.2,18.1 59.6,18.1 59.6,20.8 71.2,20.8 71.2,109.3 55.8,118.8 55.7,118.9 55.7,119.8 72.7,116.1 
		90,119.8 90.3,119.8 90.3,118.9 74.2,109.3 	"/>
	<path class="st1" d="M129.2,105.9c-4,7.7-8.1,11.3-12.8,11.3c-10.5,0-18.1-16.6-18.1-39.5v-0.6l30.3,2l0.3,0l0-0.3
		c0.4-11.3-2.5-21.7-7.6-26.9c-2.2-2.3-4.7-3.5-7.2-3.5c-11,0-18.1,14.7-18.1,37.4c0,24.2,9.4,35.3,18.2,35.3c8,0,12-6.9,15.8-14.6
		l0-0.1l-0.4-1.1L129.2,105.9z M98.3,76.2c0.5-14,5.8-24.1,12.8-24.1c6.3,0,11.7,7.1,13.9,18.2c0.2,0.6,0.3,2.5,0.3,3.6L98.3,76.2z"
		/>
	<path class="st1" d="M205.2,74.2c0-15.6-5.2-25.7-13.3-25.7c-6.7,0-12,6.5-14.3,17.6c-1.6-11-6.3-17.6-12.8-17.6
		c-6.5,0-11.3,6-13.8,16.9V50.3h-13.6v2.9H148v56.2l-13.1,9.5l-0.1,0.1v1l14.7-3.8l12.4,3.8v-1l-10.9-9.6V68.9
		c3.6-13.1,7.7-15.8,13.1-15.8c6.7,0,10.9,9.6,10.9,25.2v31l-10.3,9.6v1l11.8-3.8l12.3,3.8v-1l-10.8-9.6V74.2c0-2-0.1-4.1-0.3-5.9
		c3.6-12.8,7.7-15.3,13.5-15.3c6.7,0,10.9,9.6,10.9,25.2v31l-10.3,9.6v1l11.8-3.8l15,3.7l0.3,0.1v-1l-13.8-9.6V74.2z"/>
	<path class="st1" d="M258.1,105.9c-4,7.7-8.1,11.3-12.8,11.3c-10.5,0-18.1-16.6-18.1-39.5v-0.6l30.3,2l0.3,0l0-0.3
		c0.4-11.3-2.5-21.7-7.6-26.9c-2.2-2.3-4.7-3.5-7.2-3.5c-11,0-18.1,14.7-18.1,37.4c0,24.2,9.4,35.3,18.2,35.3c8,0,12-6.9,15.8-14.6
		l0-0.1l-0.4-1.1L258.1,105.9z M227.2,76.2c0.5-14,5.8-24.1,12.8-24.1c6.3,0,11.7,7.1,13.9,18.2c0.2,0.6,0.3,2.5,0.3,3.6L227.2,76.2
		z"/>
	<path class="st1" d="M306.8,74.2c0-15.6-5.2-25.7-13.3-25.7c-6.5,0-11.3,6-13.8,16.9V50.3h-13.6v2.9h10.6v56.2l-13.1,9.5l-0.1,0.1
		v1l14.7-3.8l12.4,3.8v-1l-10.9-9.6V68.9c3.6-13.1,7.7-15.8,13.1-15.8c6.7,0,10.9,9.6,10.9,25.2v31l-10.3,9.6v1l11.8-3.8l15,3.7
		l0.3,0.1v-1l-13.8-9.6V74.2z"/>
	<path class="st1" d="M343.2,83.1c-0.3-0.2-0.7-0.4-1-0.6l-1-0.6c-5.1-3.1-12.8-7.7-13.9-14.7c-0.7-4.6,0.5-9.4,3.1-12.4
		c1.9-2.2,4.5-3.4,7.4-3.4c6.4,0,12.8,9.1,14.1,20l0.7,6.1h2.1l-1.3-28.6h-0.9l-1.2,8.5c-3-4.1-7.3-8.7-11.9-8.7
		c-7,0-14.1,6.4-14.1,18.8c0,10.3,6.7,14.5,12,17.9c0.6,0.3,1.1,0.7,1.6,1c0.4,0.2,0.8,0.5,1.2,0.7c4.9,3,12.2,7.6,13.2,15.8
		c0.6,5.1-0.5,9.7-3.2,12.7c-1.8,2.1-4.3,3.2-7.1,3.2c-8.4,0-14.7-10-15.6-24.8c-0.2-2.3-0.2-4.2-0.2-5v-0.2h-2.1l-0.6,32.3h0.9
		l2-9.5c2.9,4.8,7.1,10,13.4,10c7.1,0,14.7-6.3,14.7-20.1C355.9,90.8,348.3,86.1,343.2,83.1z"/>
	<polygon class="st1" points="440.7,18 440.7,19 455.1,27.9 445.5,108.4 428.3,10.2 427.4,10.2 412.9,108.4 401.3,27.7 415.7,19 
		415.7,18 399.4,21.8 385.5,18 385.5,19 397.7,27.8 411.3,122.9 411.4,123.1 412.3,123.1 427,24.6 444.3,122.9 444.4,123.1 
		445.3,123.1 456.7,27.9 470.8,19.1 470.9,19 470.9,18 455.9,21.8 	"/>
	<polygon class="st1" points="490.9,50.3 476.4,50.3 476.4,53.1 487.9,53.1 487.9,109.3 472.5,118.8 472.4,118.9 472.4,119.8 
		489.4,116.1 506.7,119.8 507,119.8 507,118.9 490.9,109.3 	"/>
	<path class="st1" d="M489.3,25.8c1.7,0,2.8-1.9,2.8-4.6c0-2.8-1.1-4.6-2.8-4.6c-1.6,0-2.8,2-2.8,4.6
		C486.5,23.8,487.8,25.8,489.3,25.8z"/>
	<polygon class="st1" points="528.5,18.1 513.9,18.1 513.9,20.8 525.5,20.8 525.5,109.3 510.1,118.8 510,118.9 510,119.8 527,116.1 
		544.2,119.8 544.5,119.8 544.5,118.9 528.5,109.3 	"/>
	<path class="st1" d="M590.8,74.2c0-15.6-5.2-25.7-13.3-25.7c-6.5,0-11.3,6-13.8,16.9V18.1h-13.6V21h10.6v88.3l-13.1,9.5l-0.1,0.1v1
		l14.7-3.8l12.4,3.8v-1l-10.9-9.6V68.9c3.6-13.1,7.7-15.8,13.1-15.8c6.7,0,10.9,9.6,10.9,25.2v31l-10.3,9.6v1l11.8-3.8l15,3.7
		l0.3,0.1v-1l-13.8-9.6V74.2z"/>
	<path class="st1" d="M643.6,105.9c-4,7.7-8.1,11.3-12.8,11.3c-10.5,0-18.1-16.6-18.1-39.5v-0.6l30.3,2l0.3,0l0-0.3
		c0.4-11.3-2.5-21.7-7.6-26.9c-2.2-2.3-4.7-3.5-7.2-3.5c-11,0-18.1,14.7-18.1,37.4c0,24.2,9.4,35.3,18.2,35.3c8,0,12-6.9,15.8-14.6
		l0-0.1l-0.4-1.1L643.6,105.9z M612.7,76.2c0.5-14,5.8-24.1,12.8-24.1c6.3,0,11.7,7.1,13.9,18.2c0.2,0.6,0.3,2.5,0.3,3.6L612.7,76.2
		z"/>
	<polygon class="st1" points="667.4,18.1 652.8,18.1 652.8,20.8 664.4,20.8 664.4,109.3 649,118.8 648.9,118.9 648.9,119.8 
		665.9,116.1 683.2,119.8 683.5,119.8 683.5,118.9 667.4,109.3 	"/>
	<path class="st1" d="M757.1,74.2c0-15.6-5.2-25.7-13.3-25.7c-6.7,0-12,6.5-14.3,17.6c-1.6-11-6.3-17.6-12.8-17.6
		c-6.5,0-11.3,6-13.8,16.9V50.3h-13.6v2.9h10.6v56.2l-13.1,9.5l-0.1,0.1v1l14.7-3.8l12.4,3.8v-1l-10.9-9.6V68.9
		c3.6-13.1,7.7-15.8,13.1-15.8c6.7,0,10.9,9.6,10.9,25.2v31l-10.3,9.6v1l11.8-3.8l12.3,3.8v-1l-10.8-9.6V74.2c0-2-0.1-4.1-0.3-5.9
		c3.6-12.8,7.7-15.3,13.5-15.3c6.7,0,10.9,9.6,10.9,25.2v31l-10.3,9.6v1l11.8-3.8l15,3.7l0.3,0.1v-1l-13.8-9.6V74.2z"/>
	<path class="st1" d="M850.4,116c-1.7-3-3.4-6.2-5.1-9.2c-1.7-3-3.4-6.2-5.1-9.2l-1.4-2.5c1.4-3.6,2.8-7.2,4.2-10.9
		c1.4-3.7,2.8-7.3,4.2-11c0.3-0.7,0.6-1.5,0.8-2.2c1.6-4.3,3.2-8.3,5.1-11l0.3-0.4h-8.8l0.2,0.4c2.3,4.4,2.3,9.8,0.1,15.5
		c-1.2,3-2.4,6.2-3.6,9.2c-1.1,2.9-2.2,5.8-3.4,8.7l-18.3-32.9c0.9-1.2,2-2.4,2.9-3.6c4.5-5.4,9.3-10.9,9.3-20.7
		c0-10.7-5.7-15.5-11.4-15.5c-7.1,0-12.3,7.3-12.3,17.4c0,5.8,1.7,10.1,2.7,12.1l6.2,11.5c-7.9,9.7-16,21.6-16,36.5
		c0,15.9,7.9,23.1,15.2,23.1c9.5,0,15.8-10.9,21.1-22.9c1.6,2.9,3.2,5.8,4.8,8.7c1.7,3,3.4,6.1,5.1,9.1c2.2,3.9,4.1,5.1,7.9,5.1h2.1
		l-2-0.5C853.6,120.5,852,118.8,850.4,116z M818.9,59.4l-4.9-9c-1.9-3.6-3.9-7.4-3.9-13.1c0-9.6,5.1-14.9,9.8-14.9
		c5.8,0,9.8,6.3,9.8,15.3c0,8.7-4,13.5-8.3,18.7C820.6,57.4,819.8,58.4,818.9,59.4z M817.7,63l18.7,33.8
		c-5.3,11.7-10.9,22.2-19.9,22.2c-7.8,0-12.9-8-12.9-20.3C803.7,83,811.7,71.5,817.7,63z"/>
	<path class="st1" d="M890.6,18v1l9.4,9.4v74.5c0,21.1-4.2,33.8-12.5,37.8l-0.1,0.1v1l0.4-0.2c11.4-5,15.4-22.1,15.4-35.2v-78
		l9.3-9.4v-1l-10.9,3.8L890.6,18z"/>
	<path class="st1" d="M936.9,48.6c-11.5,0-19.2,15-19.2,37.4c0,20.8,7.7,35.3,18.7,35.3c10.2,0,18.4-17.1,18.4-38.1
		c0-9.1-1.6-17.6-4.6-23.9C947,52.3,942.3,48.6,936.9,48.6z M952.2,90.7c0,13.1-5,26.7-13.3,26.7c-11,0-18.9-16.2-18.9-38.6
		c0-18.4,7.2-26.8,13.9-26.8C945,51.9,952.2,67.2,952.2,90.7z"/>
	<path class="st1" d="M992.6,75.8c0-17.3-4.6-27.2-12.6-27.2c-8.4,0-13,9.2-16.1,17.2l0,0.1l0.6,1.3l0.2-0.6
		c3.9-9.9,8.4-14.3,14.4-14.3c6.4,0,10.5,9.3,10.5,23.7v3.7l-25.1,10.5l-0.1,0l0,0.1c-0.9,2.3-1.8,7.3-1.8,11.5
		c0,9.7,3.5,19.4,11.4,19.4c6.5,0,12.8-5.2,15.6-12.9v13.1l15.2-10.8v-0.9l-12.2,2.9V75.8z M976.5,116.2c-5.1,0-12.5-6.4-12.5-17.9
		c0-0.9,0-1.8,0.1-2.5l25.5-15V106C987.3,111.9,981.8,116.2,976.5,116.2z"/>
	<polygon class="st1" points="1026.2,79.6 1040.3,53.1 1047.7,53.1 1047.7,50.3 1029.1,50.3 1029.1,53.1 1038.5,53.1 1019.7,88.6 
		1019.7,18.1 1007.2,18.1 1007.2,20.8 1016.7,20.8 1016.7,109.3 1006.1,118.9 1006.1,119.9 1018.2,116.1 1030.8,119.9 1030.8,118.9 
		1019.7,109.3 1019.7,92 1024.1,83.5 1038.2,110.4 1032.6,118.9 1032.6,119.9 1041.4,115.9 1055,119.8 1055,118.9 1042.1,109.9 	"/>
	<path class="st1" d="M1073.2,25.8c1.7,0,2.8-1.9,2.8-4.6c0-2.8-1.1-4.6-2.8-4.6c-1.6,0-2.8,2-2.8,4.6
		C1070.4,23.8,1071.6,25.8,1073.2,25.8z"/>
	<polygon class="st1" points="1074.8,50.3 1060.3,50.3 1060.3,53.1 1071.7,53.1 1071.7,109.3 1056.4,118.8 1056.3,118.9 
		1056.3,119.8 1073.3,116.1 1090.5,119.8 1090.8,119.8 1090.8,118.9 1074.8,109.3 	"/>
	<path class="st1" d="M1164.5,74.2c0-15.6-5.2-25.7-13.3-25.7c-6.7,0-12,6.5-14.3,17.6c-1.6-11-6.3-17.6-12.8-17.6
		c-6.5,0-11.3,6-13.8,16.9V50.3h-13.6v2.9h10.6v56.2l-13.1,9.5l-0.1,0.1v1l14.7-3.8l12.4,3.8v-1l-10.9-9.6V68.9
		c3.6-13.1,7.7-15.8,13.1-15.8c6.7,0,10.9,9.6,10.9,25.2v31l-10.3,9.6v1l11.8-3.8l12.3,3.8v-1l-10.8-9.6V74.2c0-2-0.1-4.1-0.3-5.9
		c3.6-12.8,7.7-15.3,13.5-15.3c6.7,0,10.9,9.6,10.9,25.2v31l-10.3,9.6v1l11.8-3.8l15,3.7l0.3,0.1v-1l-13.8-9.6V74.2z"/>
	<path class="st1" d="M1241.4,67.1c7.2-1.8,12-11.3,12-24.4c0-16.1-7.2-24.7-20.7-24.7h-25.2V19l13.1,6.6v86.5l-14.4,6.7v0.9h26.2
		c17.4,0,24.8-8.3,24.8-27.9C1257.3,77,1249.6,68.5,1241.4,67.1z M1253.8,91.9c0,17.7-6.5,26-20.6,26h-9.4V68.3h7.3
		C1242.4,68.3,1253.8,75.6,1253.8,91.9z M1249.8,42.8c0,21.7-10.6,23.5-20.6,23.5h-5.4V20.1h9.2
		C1243.5,20.1,1249.8,28.6,1249.8,42.8z"/>
	<polygon class="st1" points="1280,18.1 1265.4,18.1 1265.4,20.8 1276.9,20.8 1276.9,109.3 1261.6,118.8 1261.5,118.9 1261.5,119.8 
		1278.5,116.1 1295.7,119.8 1296,119.8 1296,118.9 1280,109.3 	"/>
	<path class="st1" d="M1331.1,75.8c0-17.3-4.6-27.2-12.6-27.2c-8.4,0-13,9.2-16.1,17.2l0,0.1l0.6,1.3l0.2-0.6
		c3.9-9.9,8.4-14.3,14.4-14.3c6.4,0,10.5,9.3,10.5,23.7v3.7L1303,90.2l-0.1,0l0,0.1c-0.9,2.3-1.8,7.3-1.8,11.5
		c0,9.7,3.5,19.4,11.4,19.4c6.5,0,12.8-5.2,15.6-12.9v13.1l15.2-10.8v-0.9l-12.2,2.9V75.8z M1315,116.2c-5.1,0-12.5-6.4-12.5-17.9
		c0-0.9,0-1.8,0.1-2.5l25.5-15V106C1325.8,111.9,1320.3,116.2,1315,116.2z"/>
	<path class="st1" d="M1372.8,113.5c-1.2,2-3.4,4.4-7.7,4.4c-4.5,0-7.2-7.5-7.2-19.9V54.8l11.4,1.3v-5.9l-11.4,1V33.6h-3v18
		l-9.7,0.8v1l9.7,1.2v42.7c0,15.9,3.3,24,9.7,24c4.5,0,7.2-4,8.9-7l0.1-0.1l-0.4-1.1L1372.8,113.5z"/>
	<path class="st1" d="M1405.8,113.5c-1.2,2-3.4,4.4-7.7,4.4c-4.5,0-7.2-7.5-7.2-19.9V54.8l11.4,1.3v-5.9l-11.4,1V33.6h-3v18
		l-9.7,0.8v1l9.7,1.2v42.7c0,15.9,3.3,24,9.7,24c4.5,0,7.2-4,8.9-7l0.1-0.1l-0.4-1.1L1405.8,113.5z"/>
	<path class="st1" d="M1481.7,74.2c0-15.6-5.2-25.7-13.3-25.7c-6.7,0-12,6.5-14.3,17.6c-1.6-11-6.3-17.6-12.8-17.6
		c-6.5,0-11.3,6-13.8,16.9V50.3h-13.6v2.9h10.6v56.2l-13.1,9.5l-0.1,0.1v1l14.7-3.8l12.4,3.8v-1l-10.9-9.6V68.9
		c3.6-13.1,7.7-15.8,13.1-15.8c6.7,0,10.9,9.6,10.9,25.2v31l-10.3,9.6v1l11.8-3.8l12.3,3.8v-1l-10.8-9.6V74.2c0-2-0.1-4.1-0.3-5.9
		c3.6-12.8,7.7-15.3,13.5-15.3c6.7,0,10.9,9.6,10.9,25.2v31l-10.3,9.6v1l11.8-3.8l15,3.7l0.3,0.1v-1l-13.8-9.6V74.2z"/>
	<path class="st1" d="M1530.9,75.8c0-17.3-4.6-27.2-12.6-27.2c-8.4,0-13,9.2-16.1,17.2l0,0.1l0.6,1.3l0.2-0.6
		c3.9-9.9,8.4-14.3,14.4-14.3c6.4,0,10.5,9.3,10.5,23.7v3.7l-25.1,10.5l-0.1,0l0,0.1c-0.9,2.3-1.8,7.3-1.8,11.5
		c0,9.7,3.5,19.4,11.4,19.4c6.5,0,12.8-5.2,15.6-12.9v13.1l15.1-10.7l0.1-0.1v-0.9l-12.2,2.9V75.8z M1514.8,116.2
		c-5.1,0-12.5-6.4-12.5-17.9c0-0.9,0-1.8,0.1-2.5l25.5-15V106C1525.6,111.9,1520.1,116.2,1514.8,116.2z"/>
	<path class="st1" d="M1588.2,109.3v-35c0-15.6-5.2-25.7-13.3-25.7c-6.5,0-11.3,6-13.8,16.9V50.3h-13.6v2.9h10.6v56.2l-13.1,9.5
		l-0.1,0.1v1l14.7-3.8l12.4,3.8v-1l-10.9-9.6V68.9c3.6-13.1,7.7-15.8,13.1-15.8c6.7,0,10.9,9.6,10.9,25.2v31l-10.3,9.6v1l11.8-3.8
		l15,3.7l0.3,0.1v-1L1588.2,109.3z"/>
</g>
</svg>
