<?xml version="1.0" encoding="utf-8"?>
<!-- Generator: Adobe Illustrator 25.2.1, SVG Export Plug-In . SVG Version: 6.00 Build 0)  -->
<svg version="1.1" id="Layer_1" xmlns="http://www.w3.org/2000/svg" xmlns:xlink="http://www.w3.org/1999/xlink" x="0px" y="0px"
	 viewBox="0 0 697 148" style="enable-background:new 0 0 697 148;" xml:space="preserve">
<style type="text/css">
	.st0{fill:#FFFFFF;}
	.st1{fill:#C9CA9E;}
	.st2{fill:#FF0000;}
</style>
<g>
	<polygon class="st0" points="2,10 13.9,16.6 13.9,100.5 0.7,109.9 0.7,110.8 15.6,107.1 33.8,110.8 33.8,109.9 17,100.4 17,57.9 
		33,57.9 38.3,82.2 39.1,81.5 36.8,56.9 39,36.7 39,36.6 38.2,35.6 33,55.9 17,55.9 17,11.1 40.3,11.1 43.5,45.6 43.5,45.8 
		44.3,45.8 44.3,9.1 2,9.1 	"/>
	<path class="st0" d="M71.3,112.3c10.2,0,18.4-17.1,18.4-38.1c0-9.1-1.6-17.6-4.6-23.9c-3.3-7-7.9-10.7-13.4-10.7
		c-11.5,0-19.2,15-19.2,37.4C52.6,97.8,60.3,112.3,71.3,112.3z M55,69.8c0-18.4,7.2-26.8,13.9-26.8c11.1,0,18.3,15.2,18.3,38.8
		c0,13.1-5,26.7-13.3,26.7C62.9,108.4,55,92.2,55,69.8z"/>
	<polygon class="st0" points="129.7,110.8 130,110.8 130,109.9 113.9,100.3 113.9,9.1 99.3,9.1 99.3,11.8 110.9,11.8 110.9,100.3 
		95.5,109.8 95.4,109.9 95.4,110.8 112.4,107.1 	"/>
	<polygon class="st0" points="132.5,109.9 132.5,110.9 144.6,107.1 157.2,110.9 157.2,109.9 146.1,100.3 146.1,83 150.5,74.5 
		164.6,101.4 159,109.9 159,110.9 167.8,106.9 181.4,110.8 181.4,109.9 168.5,100.9 152.6,70.6 166.7,44.1 174.1,44.1 174.1,41.3 
		155.5,41.3 155.5,44.1 164.9,44.1 146.1,79.6 146.1,9.1 133.7,9.1 133.7,11.8 143.1,11.8 143.1,100.3 	"/>
	<path class="st0" d="M203.5,112.3c8,0,12-6.9,15.8-14.6l0-0.1l-0.4-1.1l-0.3,0.5c-4,7.7-8.1,11.3-12.8,11.3
		c-10.5,0-18.1-16.6-18.1-39.5v-0.6l30.3,2l0.3,0l0-0.3c0.4-11.3-2.5-21.7-7.6-26.9c-2.2-2.3-4.7-3.5-7.2-3.5
		c-11,0-18.1,14.7-18.1,37.4C185.3,101.2,194.7,112.3,203.5,112.3z M187.7,67.2c0.5-14,5.8-24.1,12.8-24.1c6.3,0,11.7,7.1,13.9,18.2
		c0.2,0.6,0.3,2.5,0.3,3.6L187.7,67.2z"/>
	<polygon class="st0" points="284.1,10 291.8,18.8 267.7,67.4 267.7,19.4 281.8,10.1 281.9,10 281.9,9 266.8,12.8 253.5,9 253.5,10 
		264.6,19.4 264.6,100.5 252.9,109.9 252.9,110.8 266.4,107.1 286.1,110.8 286.1,109.9 267.7,100.4 267.7,70.3 273.4,58.9 
		305.3,116.9 305.5,117.3 306.1,116.3 276.5,52.6 293.1,19 306,10.1 306.1,10 306.1,9 294,12.8 284.1,9 	"/>
	<path class="st0" d="M342.4,17.3c0-2.8-1.1-4.6-2.8-4.6c-1.6,0-2.8,2-2.8,4.6s1.2,4.6,2.8,4.6C341.2,21.9,342.4,20,342.4,17.3z"/>
	<ellipse class="st0" cx="321.1" cy="17.3" rx="2.8" ry="4.6"/>
	<path class="st0" d="M311.3,77c0,20.8,7.7,35.3,18.7,35.3c10.2,0,18.4-17.1,18.4-38.1c0-9.1-1.6-17.6-4.6-23.9
		c-3.3-7-7.9-10.7-13.4-10.7C319,39.6,311.3,54.6,311.3,77z M345.8,81.7c0,13.1-5,26.7-13.3,26.7c-11,0-18.9-16.2-18.9-38.6
		c0-18.4,7.2-26.8,13.9-26.8C338.6,42.9,345.8,58.2,345.8,81.7z"/>
	<path class="st0" d="M359.7,105.8c4.4,4.1,7.9,6.5,12.6,6.5c5.9,0,11-3.9,14.9-11.3c3.6-6.9,5.7-16.3,6-26.5
		c0.4-13.1-3.2-25.8-9-31.7c-2.1-2.2-4.3-3.2-6.7-3.2c-8.3,0-13.1,8.9-14.9,13.1V9.1h-8.1v2.7h5.1L359.7,105.8L359.7,105.8z
		 M374.6,44.1c9.8,0,15.9,13.8,15.9,36.1c0,16.7-6.4,28.9-15.3,28.9c-4.9,0-9.6-3.1-12.5-8.4V55C364.4,50.9,368.1,44.1,374.6,44.1z"
		/>
	<path class="st0" d="M423.4,39.6c-8.3,0-13.1,8.9-14.9,13.1V9.1h-8.1v2.7h5.1v94l0.1,0.1c4.4,4.1,7.9,6.5,12.6,6.5
		c5.9,0,11-3.9,14.9-11.3c3.6-6.9,5.7-16.3,6-26.5c0.4-13.1-3.2-25.8-9-31.7C428,40.7,425.8,39.6,423.4,39.6z M421,109.1
		c-4.9,0-9.6-3.1-12.5-8.4V55c1.7-4.1,5.4-10.9,11.9-10.9c9.8,0,15.9,13.8,15.9,36.1C436.3,96.9,429.9,109.1,421,109.1z"/>
	<path class="st0" d="M481,70.2l0.3,0l0-0.3c0.4-11.3-2.5-21.7-7.6-26.9c-2.2-2.3-4.7-3.5-7.2-3.5c-11,0-18.1,14.7-18.1,37.4
		c0,24.2,9.4,35.3,18.2,35.3c8,0,12-6.9,15.8-14.6l0-0.1l-0.4-1.1l-0.3,0.5c-4,7.7-8.1,11.3-12.8,11.3c-10.5,0-18.1-16.6-18.1-39.5
		v-0.6L481,70.2z M450.7,67.2c0.5-14,5.8-24.1,12.8-24.1c6.3,0,11.7,7.1,13.9,18.2c0.2,0.6,0.3,2.5,0.3,3.6L450.7,67.2z"/>
	<path class="st0" d="M501.2,41.3h-11.3v2.9h8.3v56.2l-11.2,9.6v1l12.7-3.8l13.6,3.8v-1l-12.1-9.6l0-35.2c2.3-13.1,5.8-18,13.1-18
		h0.9v-7.4l-0.2,0c0,0-0.8-0.2-1.3-0.2c0,0,0,0,0,0c-5.4,0.3-10.5,10.3-12.5,20.4V41.3z"/>
	<polygon class="st0" points="522.5,109.8 522.4,109.9 522.4,110.8 539.4,107.1 556.7,110.8 557,110.8 557,109.9 540.9,100.3 
		540.9,9.1 526.3,9.1 526.3,11.8 537.9,11.8 537.9,100.3 	"/>
	<path class="st0" d="M579.7,12.2c0-2.8-1.1-4.6-2.8-4.6c-1.6,0-2.8,2-2.8,4.6c0,2.6,1.2,4.6,2.8,4.6
		C578.5,16.8,579.7,15,579.7,12.2z"/>
	<polygon class="st0" points="560.1,109.8 560,109.9 560,110.8 577,107.1 594.2,110.8 594.5,110.8 594.5,109.9 578.5,100.3 
		578.5,41.3 564,41.3 564,44.1 575.5,44.1 575.5,100.3 	"/>
	<path class="st0" d="M597.6,109.8l-0.1,0.1v1l14.7-3.8l12.4,3.8v-1l-10.9-9.6V59.9c3.6-13.1,7.7-15.8,13.1-15.8
		c6.7,0,10.9,9.6,10.9,25.2v31l-10.3,9.6v1l11.8-3.8l15,3.7l0.3,0.1v-1l-13.8-9.6v-35c0-15.6-5.2-25.7-13.3-25.7
		c-6.5,0-11.3,6-13.8,16.9V41.3h-13.6v2.9h10.6v56.2L597.6,109.8z"/>
	<path class="st0" d="M692.5,41.3h-15.9c-10.4,0-17.4,12.4-17.4,30.9c0,18.1,8.8,28.9,17.4,28.9c0.1,0,0.3,0,0.5,0l-13.6,8.8
		l-0.1,0.1v0.9H681c6.6,0,10.7,5,10.7,13c0,8.7-6.6,16.9-13.6,16.9c-5.4,0-10.5-2.2-15.4-6.8l-0.4-0.4v1.5l0.1,0.1
		c0.5,0.4,1,0.9,1.5,1.3c3.5,3.2,7.2,6.5,15.2,6.5c9.3,0,16.1-8.7,16.1-20.6c0-10.4-6.6-16.1-12.9-16.1H672l9.8-6.8
		c6.8-4.7,11-16,11-29.5c0-10.7-3.7-21-9.3-25.8h8.9V41.3z M690.2,76.2c0,9.5-4.6,22.8-12.2,22.8c-8.4,0-15.8-15.5-15.8-33.2
		c0-13,5-22.5,11.9-22.5C681.8,43.3,690.2,56.5,690.2,76.2z"/>
</g>
</svg>
