<?xml version="1.0" encoding="utf-8"?>
<!-- Generator: Adobe Illustrator 25.2.1, SVG Export Plug-In . SVG Version: 6.00 Build 0)  -->
<svg version="1.1" id="Layer_1" xmlns="http://www.w3.org/2000/svg" xmlns:xlink="http://www.w3.org/1999/xlink" x="0px" y="0px"
	 viewBox="0 0 637 148" style="enable-background:new 0 0 637 148;" xml:space="preserve">
<style type="text/css">
	.st0{fill:#FFFFFF;}
	.st1{fill:#C9CA9E;}
	.st2{fill:#FF0000;}
</style>
<g>
	<polygon class="st0" points="14.5,100 1,109.3 0.9,109.4 0.9,110.3 16.1,106.6 31.7,110.3 31.7,109.4 17.6,100 17.6,56.4 
		47.5,56.4 47.5,100 35.1,109.4 35.1,110.3 49.3,106.6 65.3,110.3 65.3,109.4 50.6,100 50.6,18.9 64.9,9.5 64.9,8.5 49.1,12.3 
		34.8,8.5 34.8,9.5 47.5,18.9 47.5,54.4 17.6,54.4 17.6,18.9 31.7,9.6 31.9,9.5 31.9,8.5 16,12.3 1.7,8.5 1.7,9.5 14.5,18.9 	"/>
	<path class="st0" d="M113.5,100.3l-12.2,2.9V66.3c0-17.3-4.6-27.2-12.6-27.2c-8.4,0-13,9.2-16.1,17.2l0,0.1l0.6,1.3l0.2-0.6
		c3.9-9.9,8.4-14.3,14.4-14.3c6.4,0,10.5,9.3,10.5,23.7v3.7L73.1,80.7l-0.1,0l0,0.1c-0.9,2.3-1.8,7.3-1.8,11.5
		c0,9.7,3.5,19.4,11.4,19.4c6.5,0,12.8-5.2,15.6-12.9V112l15.2-10.8V100.3z M85.2,106.7c-5.1,0-12.5-6.4-12.5-17.9
		c0-0.9,0-1.8,0.1-2.5l25.5-15v25.3C96,102.4,90.5,106.7,85.2,106.7z"/>
	<path class="st0" d="M145.3,109.4v1l11.8-3.8l15,3.7l0.3,0.1v-1l-13.8-9.6v-35c0-15.6-5.2-25.7-13.3-25.7c-6.5,0-11.3,6-13.8,16.9
		V40.8h-13.6v2.9h10.6v56.2l-13.1,9.5l-0.1,0.1v1l14.7-3.8l12.4,3.8v-1l-10.9-9.6V59.4c3.7-13.1,7.7-15.8,13.1-15.8
		c6.7,0,10.9,9.6,10.9,25.2v31L145.3,109.4z"/>
	<path class="st0" d="M221.7,59.4l0.9,0.6c0.4,0.3,0.9,0.7,1.4,1c6.6,4.9,16.7,12.3,16.7,25.2c0,14.8-5.7,23.3-15.5,23.3
		c-10.5,0-18.4-14-19.3-33.9c-0.2-3.7-0.3-6.2-0.3-7.2v-0.2h-1.9v43.6h0.9l1.6-12.3c4.1,6.2,9.5,12.3,17.8,12.3
		c9.6,0,19.8-7.1,19.8-27c0-15.7-10.5-23.3-17.5-28.3c-0.5-0.4-1-0.7-1.4-1l-0.6-0.5c-6.9-5-16.3-11.8-16.3-24.3
		c0-14.1,5-21.3,14.7-21.3c7.8,0,14,11.4,16.2,29.7c0.4,2.7,0.9,8.5,0.9,8.6l0,0.2h1.9V7.1h-1L239.2,23c-3.5-7.9-9.6-15.9-16.6-15.9
		c-11.1,0-17.5,9-17.5,24.8C205.1,46.9,214.7,54.1,221.7,59.4z"/>
	<path class="st0" d="M284.8,69.7l0.3,0l0-0.3c0.4-11.3-2.5-21.7-7.6-26.9c-2.2-2.3-4.7-3.5-7.2-3.5c-11,0-18.1,14.7-18.1,37.4
		c0,24.2,9.4,35.3,18.2,35.3c8,0,12-6.9,15.8-14.6l0-0.1l-0.4-1.1l-0.3,0.5c-4,7.7-8.1,11.3-12.8,11.3c-10.5,0-18.1-16.6-18.1-39.5
		v-0.6L284.8,69.7z M254.6,66.7c0.5-14,5.8-24.1,12.8-24.1c6.3,0,11.7,7.1,13.9,18.2c0.2,0.6,0.3,2.5,0.3,3.6L254.6,66.7z"/>
	<path class="st0" d="M330.6,73.7c0-9.1-1.6-17.6-4.6-23.9c-3.3-7-7.9-10.7-13.4-10.7c-11.5,0-19.2,15-19.2,37.4
		c0,20.8,7.7,35.3,18.7,35.3C322.4,111.8,330.6,94.7,330.6,73.7z M314.7,107.9c-11,0-18.9-16.2-18.9-38.6c0-18.4,7.2-26.8,13.9-26.8
		c11.1,0,18.3,15.2,18.3,38.8C328,94.3,323,107.9,314.7,107.9z"/>
	<polygon class="st0" points="346.4,99.8 335.8,109.4 335.8,110.4 347.9,106.6 360.5,110.4 360.5,109.4 349.4,99.8 349.4,82.5 
		353.8,74 367.9,100.9 362.3,109.4 362.3,110.4 371.1,106.4 384.7,110.3 384.7,109.4 371.8,100.4 355.9,70.1 370,43.6 377.4,43.6 
		377.4,40.8 358.8,40.8 358.8,43.6 368.2,43.6 349.4,79.1 349.4,8.6 337,8.6 337,11.3 346.4,11.3 	"/>
	<polygon class="st0" points="462.1,18.9 476.4,9.5 476.4,8.5 460.6,12.3 446.2,8.5 446.2,9.5 459,18.9 459,54.4 429.1,54.4 
		429.1,18.9 443.2,9.6 443.3,9.5 443.3,8.5 427.5,12.3 413.1,8.5 413.1,9.5 426,18.9 426,100 412.5,109.3 412.4,109.4 412.4,110.3 
		427.6,106.6 443.1,110.3 443.1,109.4 429.1,100 429.1,56.4 459,56.4 459,100 446.6,109.3 446.5,109.4 446.5,110.3 460.8,106.6 
		476.8,110.3 476.8,109.4 462.1,100 	"/>
	<polygon class="st0" points="499.5,40.6 489.6,45.3 479.9,40.6 479.9,41.6 488.1,50.6 502.4,112 495.2,141.9 496.4,141.9 
		518.3,50.7 526.1,41.7 526.2,41.6 526.2,40.6 518,45.3 508.3,40.6 508.3,41.6 517.1,50.7 504.3,104.2 491.4,50.5 499.5,41.6 	"/>
	<path class="st0" d="M528.5,40.8v2.9h7.2v42.5c0,15.8,4.6,25.7,12,25.7c6.5,0,11.3-6,13.8-16.9v15.5l13.5-8.7l0.1-0.1v-0.9
		l-10.6,1.9V40.8h-10.4v2.9h7.4v47.9c-3.6,13.1-7.7,15.8-13.1,15.8c-5.9,0-9.7-9-9.7-22.8V40.8H528.5z"/>
	<path class="st0" d="M636.3,110.3v-1l-13.8-9.6v-35c0-15.6-5.2-25.7-13.3-25.7c-6.5,0-11.3,6-13.8,16.9V40.8h-13.6v2.9h10.6v56.2
		l-13.1,9.5l-0.1,0.1v1l14.7-3.8l12.4,3.8v-1l-10.9-9.6V59.4c3.7-13.1,7.7-15.8,13.1-15.8c6.7,0,10.9,9.6,10.9,25.2v31l-10.3,9.6v1
		l11.8-3.8l15,3.7L636.3,110.3z"/>
</g>
</svg>
