<svg
  xmlns="http://www.w3.org/2000/svg"
  viewBox="0 0 637 148"
  style="enable-background: new 0 0 637 148"
  xml:space="preserve"
>
  <path
    d="M14.5 100 1 109.3l-.1.1v.9l15.2-3.7 15.6 3.7v-.9L17.6 100V56.4h29.9V100l-12.4 9.4v.9l14.2-3.7 16 3.7v-.9L50.6 100V18.9l14.3-9.4v-1l-15.8 3.8-14.3-3.8v1l12.7 9.4v35.5H17.6V18.9l14.1-9.3.2-.1v-1L16 12.3 1.7 8.5v1l12.8 9.4zm99 .3-12.2 2.9V66.3c0-17.3-4.6-27.2-12.6-27.2-8.4 0-13 9.2-16.1 17.2v.1l.6 1.3.2-.6c3.9-9.9 8.4-14.3 14.4-14.3 6.4 0 10.5 9.3 10.5 23.7v3.7L73.1 80.7H73v.1c-.9 2.3-1.8 7.3-1.8 11.5 0 9.7 3.5 19.4 11.4 19.4 6.5 0 12.8-5.2 15.6-12.9V112l15.2-10.8v-.9zm-28.3 6.4c-5.1 0-12.5-6.4-12.5-17.9 0-.9 0-1.8.1-2.5l25.5-15v25.3c-2.3 5.8-7.8 10.1-13.1 10.1zm60.1 2.7v1l11.8-3.8 15 3.7.3.1v-1l-13.8-9.6v-35c0-15.6-5.2-25.7-13.3-25.7-6.5 0-11.3 6-13.8 16.9V40.8h-13.6v2.9h10.6v56.2l-13.1 9.5-.1.1v1l14.7-3.8 12.4 3.8v-1l-10.9-9.6V59.4c3.7-13.1 7.7-15.8 13.1-15.8 6.7 0 10.9 9.6 10.9 25.2v31l-10.2 9.6zm76.4-50 .9.6c.4.3.9.7 1.4 1 6.6 4.9 16.7 12.3 16.7 25.2 0 14.8-5.7 23.3-15.5 23.3-10.5 0-18.4-14-19.3-33.9-.2-3.7-.3-6.2-.3-7.2v-.2h-1.9v43.6h.9l1.6-12.3c4.1 6.2 9.5 12.3 17.8 12.3 9.6 0 19.8-7.1 19.8-27 0-15.7-10.5-23.3-17.5-28.3-.5-.4-1-.7-1.4-1l-.6-.5c-6.9-5-16.3-11.8-16.3-24.3 0-14.1 5-21.3 14.7-21.3 7.8 0 14 11.4 16.2 29.7.4 2.7.9 8.5.9 8.6v.2h1.9V7.1h-1L239.2 23c-3.5-7.9-9.6-15.9-16.6-15.9-11.1 0-17.5 9-17.5 24.8 0 15 9.6 22.2 16.6 27.5zm63.1 10.3h.3v-.3c.4-11.3-2.5-21.7-7.6-26.9-2.2-2.3-4.7-3.5-7.2-3.5-11 0-18.1 14.7-18.1 37.4 0 24.2 9.4 35.3 18.2 35.3 8 0 12-6.9 15.8-14.6V97l-.4-1.1-.3.5c-4 7.7-8.1 11.3-12.8 11.3-10.5 0-18.1-16.6-18.1-39.5v-.6l30.2 2.1zm-30.2-3c.5-14 5.8-24.1 12.8-24.1 6.3 0 11.7 7.1 13.9 18.2.2.6.3 2.5.3 3.6l-27 2.3zm76 7c0-9.1-1.6-17.6-4.6-23.9-3.3-7-7.9-10.7-13.4-10.7-11.5 0-19.2 15-19.2 37.4 0 20.8 7.7 35.3 18.7 35.3 10.3 0 18.5-17.1 18.5-38.1zm-15.9 34.2c-11 0-18.9-16.2-18.9-38.6 0-18.4 7.2-26.8 13.9-26.8 11.1 0 18.3 15.2 18.3 38.8 0 13-5 26.6-13.3 26.6zm31.7-8.1-10.6 9.6v1l12.1-3.8 12.6 3.8v-1l-11.1-9.6V82.5l4.4-8.5 14.1 26.9-5.6 8.5v1l8.8-4 13.6 3.9v-.9l-12.9-9-15.9-30.3L370 43.6h7.4v-2.8h-18.6v2.8h9.4l-18.8 35.5V8.6H337v2.7h9.4zm115.7-80.9 14.3-9.4v-1l-15.8 3.8-14.4-3.8v1l12.8 9.4v35.5h-29.9V18.9l14.1-9.3.1-.1v-1l-15.8 3.8-14.4-3.8v1l12.9 9.4V100l-13.5 9.3-.1.1v.9l15.2-3.7 15.5 3.7v-.9l-14-9.4V56.4H459V100l-12.4 9.3-.1.1v.9l14.3-3.7 16 3.7v-.9l-14.7-9.4zm37.4 21.7-9.9 4.7-9.7-4.7v1l8.2 9 14.3 61.4-7.2 29.9h1.2l21.9-91.2 7.8-9 .1-.1v-1l-8.2 4.7-9.7-4.7v1l8.8 9.1-12.8 53.5-12.9-53.7 8.1-8.9zm29 .2v2.9h7.2v42.5c0 15.8 4.6 25.7 12 25.7 6.5 0 11.3-6 13.8-16.9v15.5l13.5-8.7.1-.1v-.9l-10.6 1.9V40.8h-10.4v2.9h7.4v47.9c-3.6 13.1-7.7 15.8-13.1 15.8-5.9 0-9.7-9-9.7-22.8V40.8h-10.2zm107.8 69.5v-1l-13.8-9.6v-35c0-15.6-5.2-25.7-13.3-25.7-6.5 0-11.3 6-13.8 16.9V40.8h-13.6v2.9h10.6v56.2l-13.1 9.5-.1.1v1l14.7-3.8 12.4 3.8v-1l-10.9-9.6V59.4c3.7-13.1 7.7-15.8 13.1-15.8 6.7 0 10.9 9.6 10.9 25.2v31l-10.3 9.6v1l11.8-3.8 15 3.7h.4z"
    style="fill: #fff"
  />
</svg>
