<svg
  xmlns="http://www.w3.org/2000/svg"
  viewBox="0 0 483 148"
  style="enable-background: new 0 0 483 148"
  xml:space="preserve"
>
  <path
    d="m1.3 109.3-.1.1v.9l16.4-3.7 16.3 3.7v-.9L19.1 100V18.9l12.7-9.3.1-.1v-1l-14.3 3.8L3.1 8.5v1L16 18.9V100zm94.8 1v-1l-13.8-9.6v-35C82.3 49.1 77.1 39 69 39c-6.5 0-11.3 6-13.8 16.9V40.8H41.6v2.9h10.6v56.2l-13.1 9.5-.1.1v1l14.7-3.8 12.4 3.8v-1l-10.9-9.6V59.4c3.7-13.1 7.7-15.8 13.1-15.8 6.7 0 10.9 9.6 10.9 25.2v31L69 109.4v1l11.8-3.8 15 3.7h.3zm38.5-13.1-.4-1.2-.3.5c-4 7.7-8.1 11.3-12.8 11.3-10.5 0-18.1-16.6-18.1-39.5v-.6l30.3 2h.3v-.3c.4-11.3-2.5-21.7-7.6-26.9-2.2-2.3-4.7-3.5-7.2-3.5-11 0-18.1 14.7-18.1 37.4 0 24.2 9.4 35.3 18.2 35.3 8 .1 12-6.8 15.7-14.5zm-31.5-30.5c.5-14 5.8-24.1 12.8-24.1 6.3 0 11.7 7.1 13.9 18.2.2.6.3 2.5.3 3.6l-27 2.3zM142.2 79l-.6 32.3h.9l2-9.5c2.9 4.8 7.1 10 13.4 10 7.1 0 14.7-6.3 14.7-20.1 0-10.4-7.6-15-12.6-18.1-.3-.2-.7-.4-1-.6l-1-.6c-5.1-3.1-12.8-7.7-13.9-14.7-.7-4.6.5-9.4 3.1-12.4 1.9-2.2 4.5-3.4 7.4-3.4 6.4 0 12.8 9.1 14.1 20l.7 6.1h2.1l-1.3-28.6h-.9l-1.2 8.5c-3-4.1-7.3-8.7-11.9-8.7-7 0-14.1 6.4-14.1 18.8 0 10.3 6.7 14.5 12 17.9.6.3 1.1.7 1.6 1 .4.2.8.5 1.2.7 4.9 3 12.2 7.6 13.2 15.8.6 5.1-.5 9.7-3.2 12.7-1.8 2.1-4.3 3.2-7.1 3.2-8.4 0-14.7-10-15.6-24.8-.2-2.3-.2-4.2-.2-5V79h-1.8zm116.9-18c0-33.3-11.2-52.4-30.6-52.4h-25.4v.9l14.4 6.6v86.5l-14.4 6.7v.9h25.4c19.5.1 30.6-17.9 30.6-49.2zm-38.4 47.3V10.6h8.2c16.2 0 26.7 19.8 26.7 50.4 0 28.7-10.5 47.2-26.7 47.2h-8.2zm82.4-34.6c0-9.1-1.6-17.6-4.6-23.9-3.3-7-7.9-10.7-13.4-10.7-11.5 0-19.2 15-19.2 37.4 0 20.8 7.7 35.3 18.7 35.3 10.2 0 18.5-17.1 18.5-38.1zm-2.7 7.5c0 13.1-5 26.7-13.3 26.7-11 0-18.9-16.2-18.9-38.6 0-18.4 7.2-26.8 13.9-26.8 11.2-.1 18.3 15.2 18.3 38.7zm28.3 26c-5.9 0-9.7-9-9.7-22.8V40.8h-10.2v2.9h7.2v42.5c0 15.8 4.6 25.7 12 25.7 6.5 0 11.3-6 13.8-16.9v15.5l13.5-8.7.1-.1v-.9l-10.6 1.9V40.8h-10.4v2.9h7.4v47.9c-3.7 13-7.7 15.6-13.1 15.6zM372.8 7.1c-1.6 0-2.8 2-2.8 4.6 0 2.6 1.2 4.6 2.8 4.6 1.7 0 2.8-1.9 2.8-4.6 0-2.7-1.1-4.6-2.8-4.6zm-13.3 133.1-.2.1v1.7l.3-.1c9.3-2.6 14.9-14.7 14.9-32.4V40.8h-13.3v2.9h10.3v64.9c0 12-1.3 28.5-12 31.6zm31.9-59.5-.1.1c-.9 2.3-1.8 7.3-1.8 11.5 0 9.7 3.5 19.4 11.4 19.4 6.5 0 12.8-5.2 15.6-12.9V112l15.1-10.7.1-.1v-.9l-12.2 2.9V66.3c0-17.3-4.6-27.2-12.6-27.2-8.4 0-13 9.2-16.1 17.2v.1l.6 1.3.2-.6c3.9-9.9 8.4-14.3 14.4-14.3 6.4 0 10.5 9.3 10.5 23.7v3.7l-25.1 10.5zm12 26c-5.1 0-12.5-6.4-12.5-17.9 0-.9 0-1.8.1-2.5l25.5-15v25.3c-2.3 5.8-7.7 10.1-13.1 10.1zm43.3-98.1h-12.5v2.7h9.5v88.5l-10.6 9.6v1l12.1-3.8 12.6 3.8v-1l-11.1-9.6V82.5l4.4-8.5 14.1 26.9-5.6 8.5v1l8.8-4 13.6 3.9v-.9l-12.9-9-16-30.3 14.2-26.5h7.4v-2.8h-18.6v2.8h9.4l-18.8 35.5z"
    style="fill: #fff"
  />
</svg>
