<?xml version="1.0" encoding="utf-8"?>
<!-- Generator: Adobe Illustrator 25.2.1, SVG Export Plug-In . SVG Version: 6.00 Build 0)  -->
<svg version="1.1" id="Layer_1" xmlns="http://www.w3.org/2000/svg" xmlns:xlink="http://www.w3.org/1999/xlink" x="0px" y="0px"
	 viewBox="0 0 483 148" style="enable-background:new 0 0 483 148;" xml:space="preserve">
<style type="text/css">
	.st0{fill:#FFFFFF;}
	.st1{fill:#C9CA9E;}
	.st2{fill:#FF0000;}
</style>
<g>
	<polygon class="st0" points="1.3,109.3 1.2,109.4 1.2,110.3 17.6,106.6 33.9,110.3 33.9,109.4 19.1,100 19.1,18.9 31.8,9.6 
		31.9,9.5 31.9,8.5 17.6,12.3 3.1,8.5 3.1,9.5 16,18.9 16,100 	"/>
	<path class="st0" d="M96.1,110.3v-1l-13.8-9.6v-35c0-15.6-5.2-25.7-13.3-25.7c-6.5,0-11.3,6-13.8,16.9V40.8H41.6v2.9h10.6v56.2
		l-13.1,9.5l-0.1,0.1v1l14.7-3.8l12.4,3.8v-1l-10.9-9.6V59.4c3.7-13.1,7.7-15.8,13.1-15.8c6.7,0,10.9,9.6,10.9,25.2v31L69,109.4v1
		l11.8-3.8l15,3.7L96.1,110.3z"/>
	<path class="st0" d="M134.6,97.2L134.6,97.2l-0.4-1.2l-0.3,0.5c-4,7.7-8.1,11.3-12.8,11.3c-10.5,0-18.1-16.6-18.1-39.5v-0.6l30.3,2
		l0.3,0l0-0.3c0.4-11.3-2.5-21.7-7.6-26.9c-2.2-2.3-4.7-3.5-7.2-3.5c-11,0-18.1,14.7-18.1,37.4c0,24.2,9.4,35.3,18.2,35.3
		C126.9,111.8,130.9,104.9,134.6,97.2z M103.1,66.7c0.5-14,5.8-24.1,12.8-24.1c6.3,0,11.7,7.1,13.9,18.2c0.2,0.6,0.3,2.5,0.3,3.6
		L103.1,66.7z"/>
	<path class="st0" d="M142.2,79l-0.6,32.3h0.9l2-9.5c2.9,4.8,7.1,10,13.4,10c7.1,0,14.7-6.3,14.7-20.1c0-10.4-7.6-15-12.6-18.1
		c-0.3-0.2-0.7-0.4-1-0.6l-1-0.6c-5.1-3.1-12.8-7.7-13.9-14.7c-0.7-4.6,0.5-9.4,3.1-12.4c1.9-2.2,4.5-3.4,7.4-3.4
		c6.4,0,12.8,9.1,14.1,20l0.7,6.1h2.1l-1.3-28.6h-0.9l-1.2,8.5c-3-4.1-7.3-8.7-11.9-8.7c-7,0-14.1,6.4-14.1,18.8
		c0,10.3,6.7,14.5,12,17.9c0.6,0.3,1.1,0.7,1.6,1c0.4,0.2,0.8,0.5,1.2,0.7c4.9,3,12.2,7.6,13.2,15.8c0.6,5.1-0.5,9.7-3.2,12.7
		c-1.8,2.1-4.3,3.2-7.1,3.2c-8.4,0-14.7-10-15.6-24.8c-0.2-2.3-0.2-4.2-0.2-5V79H142.2z"/>
	<path class="st0" d="M259.1,61c0-33.3-11.2-52.4-30.6-52.4h-25.4v0.9l14.4,6.6v86.5l-14.4,6.7v0.9h25.4
		C248,110.3,259.1,92.3,259.1,61z M220.7,108.3V10.6h8.2c16.2,0,26.7,19.8,26.7,50.4c0,28.7-10.5,47.2-26.7,47.2H220.7z"/>
	<path class="st0" d="M303.1,73.7c0-9.1-1.6-17.6-4.6-23.9c-3.3-7-7.9-10.7-13.4-10.7c-11.5,0-19.2,15-19.2,37.4
		c0,20.8,7.7,35.3,18.7,35.3C294.8,111.8,303.1,94.7,303.1,73.7z M300.4,81.2c0,13.1-5,26.7-13.3,26.7c-11,0-18.9-16.2-18.9-38.6
		c0-18.4,7.2-26.8,13.9-26.8C293.3,42.4,300.4,57.7,300.4,81.2z"/>
	<path class="st0" d="M328.7,107.2c-5.9,0-9.7-9-9.7-22.8V40.8h-10.2v2.9h7.2v42.5c0,15.8,4.6,25.7,12,25.7c6.5,0,11.3-6,13.8-16.9
		v15.5l13.5-8.7l0.1-0.1v-0.9l-10.6,1.9V40.8h-10.4v2.9h7.4v47.9C338.1,104.6,334.1,107.2,328.7,107.2z"/>
	<path class="st0" d="M372.8,7.1c-1.6,0-2.8,2-2.8,4.6c0,2.6,1.2,4.6,2.8,4.6c1.7,0,2.8-1.9,2.8-4.6C375.6,9,374.5,7.1,372.8,7.1z"
		/>
	<path class="st0" d="M359.5,140.2l-0.2,0.1v1.7l0.3-0.1c9.3-2.6,14.9-14.7,14.9-32.4V40.8h-13.3v2.9h10.3v64.9
		C371.5,120.6,370.2,137.1,359.5,140.2z"/>
	<path class="st0" d="M391.4,80.7L391.4,80.7l-0.1,0.1c-0.9,2.3-1.8,7.3-1.8,11.5c0,9.7,3.5,19.4,11.4,19.4
		c6.5,0,12.8-5.2,15.6-12.9V112l15.1-10.7l0.1-0.1v-0.9l-12.2,2.9V66.3c0-17.3-4.6-27.2-12.6-27.2c-8.4,0-13,9.2-16.1,17.2l0,0.1
		l0.6,1.3l0.2-0.6c3.9-9.9,8.4-14.3,14.4-14.3c6.4,0,10.5,9.3,10.5,23.7v3.7L391.4,80.7z M403.4,106.7c-5.1,0-12.5-6.4-12.5-17.9
		c0-0.9,0-1.8,0.1-2.5l25.5-15v25.3C414.2,102.4,408.8,106.7,403.4,106.7z"/>
	<polygon class="st0" points="446.7,8.6 434.2,8.6 434.2,11.3 443.7,11.3 443.7,99.8 433.1,109.4 433.1,110.4 445.2,106.6 
		457.8,110.4 457.8,109.4 446.7,99.8 446.7,82.5 451.1,74 465.2,100.9 459.6,109.4 459.6,110.4 468.4,106.4 482,110.3 482,109.4 
		469.1,100.4 453.1,70.1 467.3,43.6 474.7,43.6 474.7,40.8 456.1,40.8 456.1,43.6 465.5,43.6 446.7,79.1 	"/>
</g>
</svg>
