<?xml version="1.0" encoding="utf-8"?>
<!-- Generator: Adobe Illustrator 25.2.1, SVG Export Plug-In . SVG Version: 6.00 Build 0)  -->
<svg version="1.1" id="Layer_1" xmlns="http://www.w3.org/2000/svg" xmlns:xlink="http://www.w3.org/1999/xlink" x="0px" y="0px"
	 viewBox="0 0 594 148" style="enable-background:new 0 0 594 148;" xml:space="preserve">
<style type="text/css">
	.st0{fill:#FFFFFF;}
	.st1{fill:#C9CA9E;}
	.st2{fill:#FF0000;}
</style>
<g>
	<polygon class="st0" points="41.8,18.5 54.7,9.6 54.8,9.5 54.8,8.5 42.8,12.3 32.8,8.5 32.8,9.5 40.5,18.3 16.5,66.9 16.5,18.9 
		30.5,9.6 30.7,9.5 30.7,8.5 15.5,12.3 2.2,8.5 2.2,9.5 13.3,18.9 13.3,100 1.6,109.4 1.6,110.3 15.1,106.6 34.8,110.3 34.8,109.4 
		16.5,99.9 16.5,69.8 22.1,58.4 54,116.4 54.2,116.8 54.8,115.8 25.2,52.1 	"/>
	<polygon class="st0" points="75.9,40.8 61.4,40.8 61.4,43.6 72.9,43.6 72.9,99.8 57.5,109.3 57.4,109.4 57.4,110.3 74.4,106.6 
		91.6,110.3 91.9,110.3 91.9,109.4 75.9,99.8 	"/>
	<path class="st0" d="M74.3,16.3c1.7,0,2.8-1.9,2.8-4.6c0-2.8-1.1-4.6-2.8-4.6c-1.6,0-2.8,2-2.8,4.6C71.5,14.3,72.7,16.3,74.3,16.3z
		"/>
	<path class="st0" d="M165.6,64.7c0-15.6-5.2-25.7-13.3-25.7c-6.7,0-12,6.5-14.3,17.6c-1.6-11-6.3-17.6-12.8-17.6
		c-6.5,0-11.3,6-13.8,16.9V40.8H97.8v2.9h10.6v56.2l-13.1,9.5l-0.1,0.1v1l14.7-3.8l12.4,3.8v-1l-10.9-9.6V59.4
		c3.7-13.1,7.7-15.8,13.1-15.8c6.7,0,10.9,9.6,10.9,25.2v31l-10.3,9.6v1l11.8-3.8l12.3,3.8v-1l-10.8-9.6V64.7c0-2-0.1-4.1-0.3-5.9
		c3.6-12.8,7.7-15.3,13.5-15.3c6.7,0,10.9,9.6,10.9,25.2v31l-10.3,9.6v1l11.8-3.8l15,3.7l0.3,0.1v-1l-13.8-9.6V64.7z"/>
	<path class="st0" d="M234.5,56.5c-0.5-0.4-1-0.7-1.4-1l-0.6-0.5c-6.9-5-16.3-11.8-16.3-24.3c0-14.1,5-21.3,14.7-21.3
		c7.8,0,14,11.4,16.2,29.7c0.4,2.7,0.9,8.5,0.9,8.6l0,0.2h1.9V7.1h-1L247.4,23c-3.5-7.9-9.6-15.9-16.6-15.9
		c-11.1,0-17.5,9-17.5,24.8c0,15,9.6,22.2,16.6,27.5l0.9,0.6c0.4,0.3,0.9,0.7,1.4,1c6.6,4.9,16.7,12.3,16.7,25.2
		c0,14.8-5.7,23.3-15.5,23.3c-10.5,0-18.4-14-19.3-33.9c-0.2-3.7-0.3-6.2-0.3-7.2v-0.2h-1.9v43.6h0.9l1.6-12.3
		c4.1,6.2,9.5,12.3,17.8,12.3c9.6,0,19.8-7.1,19.8-27C252,69.1,241.4,61.5,234.5,56.5z"/>
	<path class="st0" d="M293.7,96.4c-4,7.7-8.1,11.3-12.8,11.3c-10.5,0-18.1-16.6-18.1-39.5v-0.6l30.3,2l0.3,0l0-0.3
		c0.4-11.3-2.5-21.7-7.6-26.9c-2.2-2.3-4.7-3.5-7.2-3.5c-11,0-18.1,14.7-18.1,37.4c0,24.2,9.4,35.3,18.2,35.3c8,0,12-6.9,15.8-14.6
		l0-0.1l-0.4-1.1L293.7,96.4z M262.8,66.7c0.5-14,5.8-24.1,12.8-24.1c6.3,0,11.7,7.1,13.9,18.2c0.2,0.6,0.3,2.5,0.3,3.6L262.8,66.7z
		"/>
	<path class="st0" d="M335.2,40.8h-10.4v2.9h7.4v47.9c-3.6,13.1-7.7,15.8-13.1,15.8c-5.9,0-9.7-9-9.7-22.8V40.8h-10.2v2.9h7.2v42.5
		c0,15.8,4.6,25.7,12,25.7c6.5,0,11.3-6,13.8-16.9v15.5l13.5-8.7l0.1-0.1v-0.9l-10.6,1.9V40.8z"/>
	<path class="st0" d="M393.2,64.7c0-15.6-5.2-25.7-13.3-25.7c-6.5,0-11.3,6-13.8,16.9V40.8h-13.6v2.9h10.6v56.2l-13.1,9.5l-0.1,0.1
		v1l14.7-3.8l12.4,3.8v-1l-10.9-9.6V59.4c3.7-13.1,7.7-15.8,13.1-15.8c6.7,0,10.9,9.6,10.9,25.2v31l-10.3,9.6v1l11.8-3.8l15,3.7
		l0.3,0.1v-1l-13.8-9.6V64.7z"/>
	<path class="st0" d="M434.7,105.7h-10.3l9.8-6.8c6.8-4.7,11-16,11-29.5c0-10.7-3.7-21-9.3-25.8h8.9v-2.9h-15.9
		c-10.4,0-17.4,12.4-17.4,30.9c0,18.1,8.8,28.9,17.4,28.9c0.1,0,0.3,0,0.5,0l-13.6,8.8l-0.1,0.1v0.9h17.7c6.6,0,10.7,5,10.7,13
		c0,8.7-6.6,16.9-13.6,16.9c-5.4,0-10.5-2.2-15.4-6.8l-0.4-0.4v1.5l0.1,0.1c0.5,0.4,1,0.9,1.5,1.3c3.5,3.2,7.2,6.5,15.2,6.5
		c9.3,0,16.1-8.7,16.1-20.6C447.6,111.4,440.9,105.7,434.7,105.7z M430.3,98.5c-8.4,0-15.8-15.5-15.8-33.2c0-13,5-22.5,11.9-22.5
		c7.8,0,16.1,13.2,16.1,32.9C442.5,85.2,437.8,98.5,430.3,98.5z"/>
	<polygon class="st0" points="454.9,66 478.8,68.2 478.8,63 454.9,65 	"/>
	<polygon class="st0" points="534.1,18.9 548.4,9.5 548.4,8.5 532.6,12.3 518.3,8.5 518.3,9.5 531,18.9 531,54.4 501.2,54.4 
		501.2,18.9 515.3,9.6 515.4,9.5 515.4,8.5 499.6,12.3 485.2,8.5 485.2,9.5 498,18.9 498,100 484.5,109.3 484.4,109.4 484.4,110.3 
		499.6,106.6 515.2,110.3 515.2,109.4 501.2,100 501.2,56.4 531,56.4 531,100 518.7,109.3 518.6,109.4 518.6,110.3 532.8,106.6 
		548.8,110.3 548.8,109.4 534.1,100 	"/>
	<path class="st0" d="M587.9,49.8c-3.3-7-7.9-10.7-13.4-10.7c-11.5,0-19.2,15-19.2,37.4c0,20.8,7.7,35.3,18.7,35.3
		c10.2,0,18.4-17.1,18.4-38.1C592.5,64.5,590.9,56,587.9,49.8z M589.9,81.2c0,13.1-5,26.7-13.3,26.7c-11,0-18.9-16.2-18.9-38.6
		c0-18.4,7.2-26.8,13.9-26.8C582.7,42.4,589.9,57.7,589.9,81.2z"/>
</g>
</svg>
