<svg width="592" height="136" xmlns="http://www.w3.org/2000/svg">
  <path
    d="m40.8 11.5 12.9-8.9.1-.1v-1l-12 3.8-10-3.8v1l7.7 8.8-24 48.6v-48l14-9.3.2-.1v-1L14.5 5.3 1.2 1.5v1l11.1 9.4V93L.6 102.4v.9l13.5-3.7 19.7 3.7v-.9l-18.3-9.5V62.8l5.6-11.4 31.9 58 .2.4.6-1-29.6-63.7 16.6-33.6zm34.1 22.3H60.4v2.8h11.5v56.2l-15.4 9.5-.1.1v.9l17-3.7 17.2 3.7h.3v-.9l-16-9.6v-59zM73.3 9.3c1.7 0 2.8-1.9 2.8-4.6 0-2.8-1.1-4.6-2.8-4.6-1.6 0-2.8 2-2.8 4.6 0 2.6 1.2 4.6 2.8 4.6zm91.3 48.4c0-15.6-5.2-25.7-13.3-25.7-6.7 0-12 6.5-14.3 17.6-1.6-11-6.3-17.6-12.8-17.6-6.5 0-11.3 6-13.8 16.9V33.8H96.8v2.9h10.6v56.2l-13.1 9.5-.1.1v1l14.7-3.8 12.4 3.8v-1l-10.9-9.6V52.4c3.7-13.1 7.7-15.8 13.1-15.8 6.7 0 10.9 9.6 10.9 25.2v31l-10.3 9.6v1l11.8-3.8 12.3 3.8v-1l-10.8-9.6V57.7c0-2-.1-4.1-.3-5.9 3.6-12.8 7.7-15.3 13.5-15.3 6.7 0 10.9 9.6 10.9 25.2v31l-10.3 9.6v1l11.8-3.8 15 3.7.3.1v-1l-13.8-9.6v-35h.1zm68.9-8.2c-.5-.4-1-.7-1.4-1l-.6-.5c-6.9-5-16.3-11.8-16.3-24.3 0-14.1 5-21.3 14.7-21.3 7.8 0 14 11.4 16.2 29.7.4 2.7.9 8.5.9 8.6v.2h1.9V.1h-1L246.4 16C242.9 8.1 236.8.1 229.8.1c-11.1 0-17.5 9-17.5 24.8 0 15 9.6 22.2 16.6 27.5l.9.6c.4.3.9.7 1.4 1 6.6 4.9 16.7 12.3 16.7 25.2 0 14.8-5.7 23.3-15.5 23.3-10.5 0-18.4-14-19.3-33.9-.2-3.7-.3-6.2-.3-7.2v-.2h-1.9v43.6h.9l1.6-12.3c4.1 6.2 9.5 12.3 17.8 12.3 9.6 0 19.8-7.1 19.8-27 0-15.7-10.6-23.3-17.5-28.3zm59.2 39.9c-4 7.7-8.1 11.3-12.8 11.3-10.5 0-18.1-16.6-18.1-39.5v-.6l30.3 2h.3v-.3c.4-11.3-2.5-21.7-7.6-26.9-2.2-2.3-4.7-3.5-7.2-3.5-11 0-18.1 14.7-18.1 37.4 0 24.2 9.4 35.3 18.2 35.3 8 0 12-6.9 15.8-14.6v-.1l-.4-1.1-.4.6zm-30.9-29.7c.5-14 5.8-24.1 12.8-24.1 6.3 0 11.7 7.1 13.9 18.2.2.6.3 2.5.3 3.6l-27 2.3zm72.4-25.9h-10.4v2.9h7.4v47.9c-3.6 13.1-7.7 15.8-13.1 15.8-5.9 0-9.7-9-9.7-22.8V33.8h-10.2v2.9h7.2v42.5c0 15.8 4.6 25.7 12 25.7 6.5 0 11.3-6 13.8-16.9v15.5l13.5-8.7.1-.1v-.9l-10.6 1.9V33.8zm58 23.9c0-15.6-5.2-25.7-13.3-25.7-6.5 0-11.3 6-13.8 16.9V33.8h-13.6v2.9h10.6v56.2l-13.1 9.5-.1.1v1l14.7-3.8 12.4 3.8v-1l-10.9-9.6V52.4c3.7-13.1 7.7-15.8 13.1-15.8 6.7 0 10.9 9.6 10.9 25.2v31l-10.3 9.6v1l11.8-3.8 15 3.7.3.1v-1l-13.8-9.6V57.7h.1zm41.5 41h-10.3l9.8-6.8c6.8-4.7 11-16 11-29.5 0-10.7-3.7-21-9.3-25.8h8.9v-2.9h-15.9c-10.4 0-17.4 12.4-17.4 30.9 0 18.1 8.8 28.9 17.4 28.9h.5l-13.6 8.8-.1.1v.9h17.7c6.6 0 10.7 5 10.7 13 0 8.7-6.6 16.9-13.6 16.9-5.4 0-10.5-2.2-15.4-6.8l-.4-.4v1.5l.1.1c.5.4 1 .9 1.5 1.3 3.5 3.2 7.2 6.5 15.2 6.5 9.3 0 16.1-8.7 16.1-20.6 0-10.4-6.7-16.1-12.9-16.1zm-4.4-7.2c-8.4 0-15.8-15.5-15.8-33.2 0-13 5-22.5 11.9-22.5 7.8 0 16.1 13.2 16.1 32.9 0 9.5-4.7 22.8-12.2 22.8zM453.9 59l23.9 2.2V56l-23.9 2v1zm79.2-47.1 14.3-9.4v-1l-15.8 3.8-14.3-3.8v1l12.7 9.4v35.5h-29.8V11.9l14.1-9.3.1-.1v-1l-15.8 3.8-14.4-3.8v1l12.8 9.4V93l-13.5 9.3-.1.1v.9l15.2-3.7 15.6 3.7v-.9l-14-9.4V49.4H530V93l-12.3 9.3-.1.1v.9l14.2-3.7 16 3.7v-.9L533.1 93V11.9zm53.8 30.9c-3.3-7-7.9-10.7-13.4-10.7-11.5 0-19.2 15-19.2 37.4 0 20.8 7.7 35.3 18.7 35.3 10.2 0 18.4-17.1 18.4-38.1.1-9.2-1.5-17.7-4.5-23.9zm2 31.4c0 13.1-5 26.7-13.3 26.7-11 0-18.9-16.2-18.9-38.6 0-18.4 7.2-26.8 13.9-26.8 11.1-.1 18.3 15.2 18.3 38.7z"
    fill="#FFF"
    fill-rule="nonzero"
  />
</svg>
