<svg
  version="1.1"
  id="Layer_1"
  xmlns="http://www.w3.org/2000/svg"
  x="0"
  y="0"
  viewBox="0 0 893 148"
  style="enable-background: new 0 0 893 148"
  xml:space="preserve"
>
  <style>
    .st0 {
      fill: #fff;
    }
  </style>
  <path
    class="st0"
    d="m86.6 19.5 12.9-8.9.1-.1v-1l-12 3.8-10-3.8v1l7.7 8.8-24 48.6v-48l14.1-9.3.1-.1v-1l-15.2 3.8-13.2-3.8v1l11 9.4V101l-11.6 9.4v.9l13.5-3.7 19.7 3.7v-.9l-18.4-9.5V70.8L67 59.4l31.8 58 .3.4.5-1-29.5-63.7zM129.9 41.6v1l8.8 9.1-12.8 53.5L113 51.5l8.1-8.9v-1l-10 4.7-9.7-4.7v1l8.2 9L124 113l-7.3 29.9h1.2l22-91.2 7.8-9 .1-.1v-1l-8.3 4.7zM186.1 41.8h-10.4v2.9h7.4v47.9c-3.6 13.1-7.7 15.8-13.1 15.8-5.9 0-9.7-9-9.7-22.8V41.8h-10.2v2.9h7.2v42.5c0 15.8 4.6 25.7 12 25.7 6.5 0 11.3-6 13.8-16.9v15.5l13.5-8.7.1-.1v-.9l-10.6 1.9V41.8zM244.1 65.7c0-15.6-5.2-25.7-13.3-25.7-6.5 0-11.3 6-13.8 16.9V41.8h-13.6v2.9H214v56.2l-13.1 9.5-.1.1v1l14.7-3.8 12.4 3.8v-1l-10.9-9.6V60.4c3.7-13.1 7.7-15.8 13.1-15.8 6.7 0 10.9 9.6 10.9 25.2v31l-10.3 9.6v1l11.8-3.8 15 3.7.3.1v-1l-13.8-9.6V65.7zM285.6 106.7h-10.3l9.8-6.8c6.8-4.7 11-16 11-29.5 0-10.7-3.7-21-9.3-25.8h8.9v-2.9h-15.9c-10.4 0-17.4 12.4-17.4 30.9 0 18.1 8.8 28.9 17.4 28.9h.5l-13.6 8.8-.1.1v.9h17.7c6.6 0 10.7 5 10.7 13 0 8.7-6.6 16.9-13.6 16.9-5.4 0-10.5-2.2-15.4-6.8l-.4-.4v1.5l.1.1c.5.4 1 .9 1.5 1.3 3.5 3.2 7.2 6.5 15.2 6.5 9.3 0 16.1-8.7 16.1-20.6 0-10.4-6.7-16.1-12.9-16.1zm-4.4-7.2c-8.4 0-15.8-15.5-15.8-33.2 0-13 5-22.5 11.9-22.5 7.8 0 16.1 13.2 16.1 32.9 0 9.5-4.6 22.8-12.2 22.8zM334.9 9.5v1l9.4 9.4v74.5c0 21.1-4.2 33.8-12.5 37.8l-.1.1v1l.4-.2c11.4-5 15.4-22.1 15.4-35.2v-78l9.3-9.4v-1L346 13.3l-11.1-3.8zM376.3 17.3c1.7 0 2.8-1.9 2.8-4.6 0-2.8-1.1-4.6-2.8-4.6-1.6 0-2.8 2-2.8 4.6 0 2.6 1.2 4.6 2.8 4.6zM377.9 41.8h-14.5v2.8h11.4v56.2l-15.3 9.5-.1.1v.9l17-3.7 17.2 3.7h.3v-.9l-16-9.6zM440.2 65.7c0-15.6-5.2-25.7-13.3-25.7-6.5 0-11.3 6-13.8 16.9V41.8h-13.6v2.9h10.6v56.2l-13.1 9.5-.1.1v1l14.7-3.8 12.4 3.8v-1l-10.9-9.6V60.4c3.6-13.1 7.7-15.8 13.1-15.8 6.7 0 10.9 9.6 10.9 25.2v31l-10.3 9.6v1l11.8-3.8 15 3.7.3.1v-1l-13.8-9.6V65.7zM485.5 61.9h.9l3-50.3h31.1l-38.3 98.8v.9h41.6V58.8h-1l-2.9 50.6h-33.3L525 9.9l.1-.3h-39.6zM551.3 40.1c-11.5 0-19.2 15-19.2 37.4 0 20.8 7.7 35.3 18.7 35.3 10.2 0 18.4-17.1 18.4-38.1 0-9.1-1.6-17.6-4.6-23.9-3.2-7-7.8-10.7-13.3-10.7zm15.3 42.1c0 13.1-5 26.7-13.3 26.7-11 0-18.9-16.2-18.9-38.6 0-18.4 7.2-26.8 13.9-26.8 11.1-.1 18.3 15.2 18.3 38.7zM618.2 65.7c0-15.6-5.2-25.7-13.3-25.7-6.5 0-11.3 6-13.8 16.9V9.6h-13.6v2.9h10.6v88.3l-13.1 9.5-.1.1v1l14.7-3.8 12.4 3.8v-1l-10.9-9.6V60.4c3.7-13.1 7.7-15.8 13.1-15.8 6.7 0 10.9 9.6 10.9 25.2v31l-10.3 9.6v1l11.8-3.8 15 3.7.3.1v-1l-13.8-9.6V65.7zM635.1 123.9h.8l7-25.3h-3.7zM696.3 9.6h-27.5v.9l13.1 6.4v84l-13.1 9.4v1l14.8-3.8 19.3 3.8v-1l-17.8-9.4V68.3h11.5c12.6 0 20.2-11.2 20.2-29.9 0-8.9-2.1-16.3-6-21.5-3.6-4.7-8.7-7.3-14.5-7.3zm-11.2 2h10.2c12.3 0 17.8 13.9 17.8 26.8 0 13.9-5.4 27.9-17.6 27.9H685V11.6zM764.2 65.7c0-15.6-5.2-25.7-13.3-25.7-6.5 0-11.3 6-13.8 16.9V9.6h-13.6v2.9h10.6v88.3l-13.1 9.5-.1.1v1l14.7-3.8 12.4 3.8v-1l-10.9-9.6V60.4c3.6-13.1 7.7-15.8 13.1-15.8 6.7 0 10.9 9.6 10.9 25.2v31l-10.3 9.6v1l11.8-3.8 15 3.7.3.1v-1l-13.8-9.6V65.7zM786 103.5c-1.6 0-2.8 2-2.8 4.6 0 2.6 1.2 4.6 2.8 4.6 1.7 0 2.8-1.9 2.8-4.6-.1-2.7-1.2-4.6-2.8-4.6zM818.5 9.6h-25.3v.9l14.4 6.6v86.5l-14.4 6.7v.9h25.3c19.5 0 30.6-17.9 30.6-49.2.1-33.3-11.1-52.4-30.6-52.4zM845.6 62c0 28.7-10.5 47.2-26.7 47.2h-8.2V11.6h8.2c16.3 0 26.7 19.8 26.7 50.4z"
  />
</svg>
