<?xml version="1.0" encoding="utf-8"?>
<!-- Generator: Adobe Illustrator 25.2.1, SVG Export Plug-In . SVG Version: 6.00 Build 0)  -->
<svg version="1.1" id="Layer_1" xmlns="http://www.w3.org/2000/svg" xmlns:xlink="http://www.w3.org/1999/xlink" x="0px" y="0px"
	 viewBox="0 0 804 148" style="enable-background:new 0 0 804 148;" xml:space="preserve">
<style type="text/css">
	.st0{fill:#FFFFFF;}
	.st1{fill:#C9CA9E;}
	.st2{fill:#FF0000;}
</style>
<g>
	<polygon class="st0" points="40.6,19.5 53.5,10.6 53.6,10.5 53.6,9.5 41.6,13.3 31.6,9.5 31.6,10.5 39.3,19.3 15.3,67.9 15.3,19.9 
		29.4,10.6 29.5,10.5 29.5,9.5 14.3,13.3 1.1,9.5 1.1,10.5 12.1,19.9 12.1,101 0.5,110.4 0.5,111.3 14,107.6 33.7,111.3 33.7,110.4 
		15.3,100.9 15.3,70.8 21,59.4 52.8,117.4 53.1,117.8 53.6,116.8 24.1,53.1 	"/>
	<polygon class="st0" points="83.9,41.6 83.9,42.6 92.7,51.7 79.9,105.2 67,51.5 75.1,42.6 75.1,41.6 65.1,46.3 55.4,41.6 
		55.4,42.6 63.6,51.6 78,113 70.7,142.9 71.9,142.9 93.9,51.7 101.7,42.7 101.8,42.6 101.8,41.6 93.5,46.3 	"/>
	<path class="st0" d="M140.1,41.8h-10.4v2.9h7.4v47.9c-3.6,13.1-7.7,15.8-13.1,15.8c-5.9,0-9.7-9-9.7-22.8V41.8h-10.2v2.9h7.2v42.5
		c0,15.8,4.6,25.7,12,25.7c6.5,0,11.3-6,13.8-16.9v15.5l13.5-8.7l0.1-0.1v-0.9l-10.6,1.9V41.8z"/>
	<path class="st0" d="M198.1,65.7c0-15.6-5.2-25.7-13.3-25.7c-6.5,0-11.3,6-13.8,16.9V41.8h-13.6v2.9H168v56.2l-13.1,9.5l-0.1,0.1v1
		l14.7-3.8l12.4,3.8v-1l-10.9-9.6V60.4c3.7-13.1,7.7-15.8,13.1-15.8c6.7,0,10.9,9.6,10.9,25.2v31l-10.3,9.6v1l11.8-3.8l15,3.7
		l0.3,0.1v-1l-13.8-9.6V65.7z"/>
	<path class="st0" d="M239.6,106.7h-10.3l9.8-6.8c6.8-4.7,11-16,11-29.5c0-10.7-3.7-21-9.3-25.8h8.9v-2.9h-15.9
		c-10.4,0-17.4,12.4-17.4,30.9c0,18.1,8.8,28.9,17.4,28.9c0.1,0,0.3,0,0.5,0l-13.6,8.8l-0.1,0.1v0.9h17.7c6.6,0,10.7,5,10.7,13
		c0,8.7-6.6,16.9-13.6,16.9c-5.4,0-10.5-2.2-15.4-6.8l-0.4-0.4v1.5l0.1,0.1c0.5,0.4,1,0.9,1.5,1.3c3.5,3.2,7.2,6.5,15.2,6.5
		c9.3,0,16.1-8.7,16.1-20.6C252.5,112.4,245.8,106.7,239.6,106.7z M235.2,99.5c-8.4,0-15.8-15.5-15.8-33.2c0-13,5-22.5,11.9-22.5
		c7.8,0,16.1,13.2,16.1,32.9C247.4,86.2,242.8,99.5,235.2,99.5z"/>
	<path class="st0" d="M288.9,9.5v1l9.4,9.4v74.5c0,21.1-4.2,33.8-12.5,37.8l-0.1,0.1v1l0.4-0.2c11.4-5,15.4-22.1,15.4-35.2v-78
		l9.3-9.4v-1L300,13.3L288.9,9.5z"/>
	<path class="st0" d="M330.3,17.3c1.7,0,2.8-1.9,2.8-4.6c0-2.8-1.1-4.6-2.8-4.6c-1.6,0-2.8,2-2.8,4.6
		C327.5,15.3,328.7,17.3,330.3,17.3z"/>
	<polygon class="st0" points="331.9,41.8 317.4,41.8 317.4,44.6 328.8,44.6 328.8,100.8 313.5,110.3 313.4,110.4 313.4,111.3 
		330.4,107.6 347.6,111.3 347.9,111.3 347.9,110.4 331.9,100.8 	"/>
	<path class="st0" d="M394.2,65.7c0-15.6-5.2-25.7-13.3-25.7c-6.5,0-11.3,6-13.8,16.9V41.8h-13.6v2.9h10.6v56.2l-13.1,9.5l-0.1,0.1
		v1l14.7-3.8l12.4,3.8v-1l-10.9-9.6V60.4c3.6-13.1,7.7-15.8,13.1-15.8c6.7,0,10.9,9.6,10.9,25.2v31l-10.3,9.6v1l11.8-3.8l15,3.7
		l0.3,0.1v-1l-13.8-9.6V65.7z"/>
	<polygon class="st0" points="439.5,61.9 440.4,61.9 443.4,11.6 474.5,11.6 436.2,110.4 436.2,111.3 477.8,111.3 477.8,58.8 
		476.8,58.8 473.9,109.4 440.6,109.4 479,9.9 479.1,9.6 439.5,9.6 	"/>
	<path class="st0" d="M505.3,40.1c-11.5,0-19.2,15-19.2,37.4c0,20.8,7.7,35.3,18.7,35.3c10.2,0,18.4-17.1,18.4-38.1
		c0-9.1-1.6-17.6-4.6-23.9C515.4,43.8,510.8,40.1,505.3,40.1z M520.6,82.2c0,13.1-5,26.7-13.3,26.7c-11,0-18.9-16.2-18.9-38.6
		c0-18.4,7.2-26.8,13.9-26.8C513.4,43.4,520.6,58.7,520.6,82.2z"/>
	<path class="st0" d="M572.2,65.7c0-15.6-5.2-25.7-13.3-25.7c-6.5,0-11.3,6-13.8,16.9V9.6h-13.6v2.9h10.6v88.3l-13.1,9.5l-0.1,0.1v1
		l14.7-3.8l12.4,3.8v-1l-10.9-9.6V60.4c3.7-13.1,7.7-15.8,13.1-15.8c6.7,0,10.9,9.6,10.9,25.2v31l-10.3,9.6v1l11.8-3.8l15,3.7
		l0.3,0.1v-1l-13.8-9.6V65.7z"/>
	<polygon class="st0" points="589.1,123.9 589.9,123.9 596.9,98.6 593.2,98.6 	"/>
	<path class="st0" d="M650.3,9.6h-27.5v0.9l13.1,6.4v84l-13.1,9.4v1l14.8-3.8l19.3,3.8v-1l-17.8-9.4V68.3h11.5
		c12.6,0,20.2-11.2,20.2-29.9c0-8.9-2.1-16.3-6-21.5C661.2,12.2,656.1,9.6,650.3,9.6z M639.1,11.6h10.2c12.3,0,17.8,13.9,17.8,26.8
		c0,13.9-5.4,27.9-17.6,27.9h-10.5V11.6z"/>
	<path class="st0" d="M718.2,65.7c0-15.6-5.2-25.7-13.3-25.7c-6.5,0-11.3,6-13.8,16.9V9.6h-13.6v2.9h10.6v88.3l-13.1,9.5l-0.1,0.1v1
		l14.7-3.8l12.4,3.8v-1l-10.9-9.6V60.4c3.6-13.1,7.7-15.8,13.1-15.8c6.7,0,10.9,9.6,10.9,25.2v31l-10.3,9.6v1l11.8-3.8l15,3.7
		l0.3,0.1v-1l-13.8-9.6V65.7z"/>
	<path class="st0" d="M740,103.5c-1.6,0-2.8,2-2.8,4.6c0,2.6,1.2,4.6,2.8,4.6c1.7,0,2.8-1.9,2.8-4.6
		C742.7,105.4,741.6,103.5,740,103.5z"/>
	<path class="st0" d="M772.5,9.6h-25.3v0.9l14.4,6.6v86.5l-14.4,6.7v0.9h25.3c19.5,0,30.6-17.9,30.6-49.2
		C803.2,28.7,792,9.6,772.5,9.6z M799.6,62c0,28.7-10.5,47.2-26.7,47.2h-8.2V11.6h8.2C789.2,11.6,799.6,31.4,799.6,62z"/>
</g>
</svg>
