<?xml version="1.0" encoding="utf-8"?>
<!-- Generator: Adobe Illustrator 25.2.1, SVG Export Plug-In . SVG Version: 6.00 Build 0)  -->
<svg version="1.1" id="Layer_1" xmlns="http://www.w3.org/2000/svg" xmlns:xlink="http://www.w3.org/1999/xlink" x="0px" y="0px"
	 viewBox="0 0 740 148" style="enable-background:new 0 0 740 148;" xml:space="preserve">
<style type="text/css">
	.st0{fill:#FFFFFF;}
	.st1{fill:#C9CA9E;}
	.st2{fill:#FF0000;}
</style>
<g>
	<path class="st0" d="M26.7,24.6H1.3v0.9l14.4,6.6v86.5l-14.4,6.7v0.9h25.3c19.5,0,30.6-17.9,30.6-49.2
		C57.3,43.7,46.1,24.6,26.7,24.6z M53.8,77c0,28.7-10.5,47.2-26.7,47.2h-8.2V26.6h8.2C43.3,26.6,53.8,46.4,53.8,77z"/>
	<path class="st0" d="M88.2,55.1C88.2,55.1,88.2,55.1,88.2,55.1c-5.4,0.3-10.5,10.3-12.5,20.4V56.8H64.4v2.9h8.3v56.2l-11.2,9.6v1
		l12.7-3.8l13.6,3.8v-1l-12.1-9.6l0-35.2c2.3-13.1,5.8-18,13.1-18h0.9v-7.4l-0.2,0C89.5,55.2,88.7,55.1,88.2,55.1z"/>
	<path class="st0" d="M101.8,118.5c-1.6,0-2.8,2-2.8,4.6c0,2.6,1.2,4.6,2.8,4.6c1.7,0,2.8-1.9,2.8-4.6
		C104.6,120.4,103.5,118.5,101.8,118.5z"/>
	<polygon class="st0" points="176.6,124.4 151.4,124.4 151.4,34.9 165.5,25.7 165.6,25.7 165.6,24.5 149.8,28.3 137.2,24.8 
		136.9,24.7 136.9,25.7 148.3,34.9 148.3,118.3 135.3,125.3 135.1,125.4 135.1,126.3 180.9,126.3 180.9,73.1 179.9,73.1 	"/>
	<path class="st0" d="M205,32.3c1.7,0,2.8-1.9,2.8-4.6c0-2.8-1.1-4.6-2.8-4.6c-1.6,0-2.8,2-2.8,4.6C202.3,30.3,203.5,32.3,205,32.3z
		"/>
	<polygon class="st0" points="206.6,56.8 192.1,56.8 192.1,59.6 203.6,59.6 203.6,115.8 188.3,125.3 188.1,125.4 188.1,126.3 
		205.1,122.6 222.4,126.3 222.7,126.3 222.7,125.4 206.6,115.8 	"/>
	<path class="st0" d="M257.8,82.3c0-17.3-4.6-27.2-12.6-27.2c-8.4,0-13,9.2-16.1,17.2l0,0.1l0.6,1.3l0.2-0.6
		c4-10,8.3-14.3,14.4-14.3c6.4,0,10.5,9.3,10.5,23.7v3.7l-25.1,10.5l-0.1,0l0,0.1c-0.9,2.3-1.8,7.3-1.8,11.5
		c0,9.7,3.5,19.4,11.4,19.4c6.5,0,12.8-5.2,15.6-12.9V128l15.1-10.7l0.1-0.1v-0.9l-12.2,2.9V82.3z M241.7,122.7
		c-5.1,0-12.5-6.4-12.5-17.9c0-0.9,0-1.8,0.1-2.5l25.5-15v25.3C252.5,118.4,247,122.7,241.7,122.7z"/>
	<path class="st0" d="M315.1,80.7c0-15.6-5.2-25.7-13.3-25.7c-6.5,0-11.3,6-13.8,16.9V56.8h-13.6v2.9H285v56.2l-13.1,9.5l-0.1,0.1v1
		l14.7-3.8l12.4,3.8v-1l-10.9-9.6V75.4c3.7-13.1,7.7-15.8,13.1-15.8c6.7,0,10.9,9.6,10.9,25.2v31l-10.3,9.6v1l11.8-3.8l15,3.7
		l0.3,0.1v-1l-13.8-9.6V80.7z"/>
	<path class="st0" d="M363,82.3c0-17.3-4.6-27.2-12.6-27.2c-8.4,0-13,9.2-16.1,17.2l0,0.1l0.6,1.3l0.2-0.6
		c3.9-9.9,8.4-14.3,14.4-14.3c6.4,0,10.5,9.3,10.5,23.7v3.7l-25.1,10.5l-0.1,0l0,0.1c-0.9,2.3-1.8,7.3-1.8,11.5
		c0,9.7,3.5,19.4,11.4,19.4c6.5,0,12.8-5.2,15.6-12.9V128l15.2-10.8v-0.9l-12.2,2.9V82.3z M346.9,122.7c-5.1,0-12.5-6.4-12.5-17.9
		c0-0.9,0-1.8,0.1-2.5l25.5-15v25.3C357.7,118.4,352.2,122.7,346.9,122.7z"/>
	<path class="st0" d="M414.5,80.3l34.9,5.6l1.6,23c-2.9,7.1-9.2,14.8-16.6,14.8c-15.5,0-26.7-23.4-26.7-55.6
		c0-20.1,6.7-41.8,21.3-41.8c14,0,20.6,26.8,20.6,44.9v0.2h2.8V24.4h-1l-2,21.9c-3.8-14-11.1-23.2-18.4-23.2
		c-16.1,0-26,20.7-26,53.9c0,34.9,13.7,50.7,26.4,50.7c9.6,0,16.5-8.4,19.8-16l1.1,15.4l0,0.2h1V79.3h-38.8V80.3z"/>
	<path class="st0" d="M495.2,112.4c-4,7.7-8.1,11.3-12.8,11.3c-10.5,0-18.1-16.6-18.1-39.5v-0.6l30.3,2l0.3,0l0-0.3
		c0.4-11.3-2.5-21.7-7.6-26.9c-2.2-2.3-4.7-3.5-7.2-3.5c-11,0-18.1,14.7-18.1,37.4c0,24.2,9.4,35.3,18.2,35.3c8,0,12-6.9,15.8-14.6
		l0-0.1l-0.4-1.1L495.2,112.4z M464.3,82.7c0.5-14,5.8-24.1,12.8-24.1c6.3,0,11.7,7.1,13.9,18.2c0.2,0.6,0.3,2.5,0.3,3.6L464.3,82.7
		z"/>
	<path class="st0" d="M517.4,32.3c1.7,0,2.8-1.9,2.8-4.6c0-2.8-1.1-4.6-2.8-4.6c-1.6,0-2.8,2-2.8,4.6
		C514.7,30.3,515.9,32.3,517.4,32.3z"/>
	<polygon class="st0" points="519.1,56.8 504.5,56.8 504.5,59.6 516,59.6 516,115.8 500.7,125.3 500.6,125.4 500.6,126.3 
		517.5,122.6 534.8,126.3 535.1,126.3 535.1,125.4 519.1,115.8 	"/>
	<path class="st0" d="M573.9,24.6h-11.8v2.7h8.8V59c-3-2.6-6.2-3.9-9.7-3.9c-13,0-20.3,19.1-20.9,37.9c-0.4,13,3.2,25.7,8.9,31.5
		c2.1,2.2,4.4,3.3,6.7,3.3c8.4,0,13.1-8.8,14.9-12.9v11.7l13.9-9.7l0.1-0.1v-1l-11,2.7V24.6z M559,123.4c-9.8,0-15.9-13.8-15.9-36.1
		c0-16.7,6.4-28.9,15.3-28.9c4.9,0,9.6,3.1,12.5,8.4v45.7C569.2,116.6,565.5,123.4,559,123.4z"/>
	<path class="st0" d="M625,112.4c-4,7.7-8.1,11.3-12.8,11.3c-10.5,0-18.1-16.6-18.1-39.5v-0.6l30.3,2l0.3,0l0-0.3
		c0.4-11.3-2.5-21.7-7.6-26.9c-2.2-2.3-4.7-3.5-7.2-3.5c-11,0-18.1,14.7-18.1,37.4c0,24.2,9.4,35.3,18.2,35.3c8,0,12-6.9,15.8-14.6
		l0-0.1l-0.4-1.1L625,112.4z M594.1,82.7c0.5-14,5.8-24.1,12.8-24.1c6.3,0,11.7,7.1,13.9,18.2c0.2,0.6,0.3,2.5,0.3,3.6L594.1,82.7z"
		/>
	<polygon class="st0" points="634,56.8 634,92.6 634.8,92.6 637.6,61.8 659.7,61.8 631.3,125.4 631.3,126.4 662.9,126.4 662.9,88.7 
		662.2,88.7 659.5,121.4 634.6,121.4 663.3,56.8 	"/>
	<polygon class="st0" points="686.2,56.8 671.7,56.8 671.7,59.6 683.2,59.6 683.2,115.8 667.8,125.3 667.7,125.4 667.7,126.3 
		684.7,122.6 701.9,126.3 702.3,126.3 702.3,125.4 686.2,115.8 	"/>
	<path class="st0" d="M684.6,32.3c1.7,0,2.8-1.9,2.8-4.6c0-2.8-1.1-4.6-2.8-4.6c-1.6,0-2.8,2-2.8,4.6
		C681.8,30.3,683,32.3,684.6,32.3z"/>
	<path class="st0" d="M726,89.6c-0.3-0.2-0.7-0.4-1-0.6l-1-0.6c-5.1-3.1-12.8-7.7-13.9-14.7c-0.7-4.6,0.5-9.4,3.1-12.4
		c1.9-2.2,4.5-3.4,7.4-3.4c6.4,0,12.8,9.1,14.1,20l0.7,6.1h2.1l-1.3-28.6h-0.9l-1.2,8.5c-3-4.1-7.3-8.7-11.9-8.7
		c-7,0-14.1,6.4-14.1,18.8c0,10.3,6.7,14.5,12,17.9c0.6,0.3,1.1,0.7,1.6,1c0.4,0.2,0.8,0.5,1.2,0.7c4.9,3,12.2,7.6,13.2,15.8
		c0.6,5.1-0.5,9.7-3.2,12.7c-1.8,2.1-4.3,3.2-7.1,3.2c-8.4,0-14.7-10-15.6-24.8c-0.2-2.3-0.2-4.2-0.2-5V95h-2.1l-0.6,32.3h0.9l2-9.5
		c2.9,4.8,7.1,10,13.4,10c7.1,0,14.7-6.3,14.7-20.1C738.6,97.3,731,92.6,726,89.6z"/>
</g>
</svg>
