<svg
  xmlns="http://www.w3.org/2000/svg"
  viewBox="0 0 740 148"
  style="enable-background: new 0 0 740 148"
  xml:space="preserve"
>
  <path
    d="M26.7 24.6H1.3v.9l14.4 6.6v86.5l-14.4 6.7v.9h25.3c19.5 0 30.6-17.9 30.6-49.2.1-33.3-11.1-52.4-30.5-52.4zM53.8 77c0 28.7-10.5 47.2-26.7 47.2h-8.2V26.6h8.2c16.2 0 26.7 19.8 26.7 50.4zm34.4-21.9c-5.4.3-10.5 10.3-12.5 20.4V56.8H64.4v2.9h8.3v56.2l-11.2 9.6v1l12.7-3.8 13.6 3.8v-1l-12.1-9.6V80.7c2.3-13.1 5.8-18 13.1-18h.9v-7.4h-.2c0-.1-.8-.2-1.3-.2zm13.6 63.4c-1.6 0-2.8 2-2.8 4.6 0 2.6 1.2 4.6 2.8 4.6 1.7 0 2.8-1.9 2.8-4.6 0-2.7-1.1-4.6-2.8-4.6zm74.8 5.9h-25.2V34.9l14.1-9.2h.1v-1.2l-15.8 3.8-12.6-3.5-.3-.1v1l11.4 9.2v83.4l-13 7-.2.1v.9h45.8V73.1h-1zM205 32.3c1.7 0 2.8-1.9 2.8-4.6 0-2.8-1.1-4.6-2.8-4.6-1.6 0-2.8 2-2.8 4.6.1 2.6 1.3 4.6 2.8 4.6zm1.6 24.5h-14.5v2.8h11.5v56.2l-15.3 9.5-.2.1v.9l17-3.7 17.3 3.7h.3v-.9l-16.1-9.6zm51.2 25.5c0-17.3-4.6-27.2-12.6-27.2-8.4 0-13 9.2-16.1 17.2v.1l.6 1.3.2-.6c4-10 8.3-14.3 14.4-14.3 6.4 0 10.5 9.3 10.5 23.7v3.7l-25.1 10.5h-.1v.1c-.9 2.3-1.8 7.3-1.8 11.5 0 9.7 3.5 19.4 11.4 19.4 6.5 0 12.8-5.2 15.6-12.9V128l15.1-10.7.1-.1v-.9l-12.2 2.9V82.3zm-16.1 40.4c-5.1 0-12.5-6.4-12.5-17.9 0-.9 0-1.8.1-2.5l25.5-15v25.3c-2.3 5.8-7.8 10.1-13.1 10.1zm73.4-42c0-15.6-5.2-25.7-13.3-25.7-6.5 0-11.3 6-13.8 16.9V56.8h-13.6v2.9H285v56.2l-13.1 9.5-.1.1v1l14.7-3.8 12.4 3.8v-1l-10.9-9.6V75.4c3.7-13.1 7.7-15.8 13.1-15.8 6.7 0 10.9 9.6 10.9 25.2v31l-10.3 9.6v1l11.8-3.8 15 3.7.3.1v-1l-13.8-9.6V80.7zm47.9 1.6c0-17.3-4.6-27.2-12.6-27.2-8.4 0-13 9.2-16.1 17.2v.1l.6 1.3.2-.6c3.9-9.9 8.4-14.3 14.4-14.3 6.4 0 10.5 9.3 10.5 23.7v3.7l-25.1 10.5h-.1v.1c-.9 2.3-1.8 7.3-1.8 11.5 0 9.7 3.5 19.4 11.4 19.4 6.5 0 12.8-5.2 15.6-12.9V128l15.2-10.8v-.9l-12.2 2.9V82.3zm-16.1 40.4c-5.1 0-12.5-6.4-12.5-17.9 0-.9 0-1.8.1-2.5l25.5-15v25.3c-2.3 5.8-7.8 10.1-13.1 10.1zm67.6-42.4 34.9 5.6 1.6 23c-2.9 7.1-9.2 14.8-16.6 14.8-15.5 0-26.7-23.4-26.7-55.6 0-20.1 6.7-41.8 21.3-41.8 14 0 20.6 26.8 20.6 44.9v.2h2.8v-47h-1l-2 21.9c-3.8-14-11.1-23.2-18.4-23.2-16.1 0-26 20.7-26 53.9 0 34.9 13.7 50.7 26.4 50.7 9.6 0 16.5-8.4 19.8-16l1.1 15.4v.2h1v-48h-38.8v1zm80.7 32.1c-4 7.7-8.1 11.3-12.8 11.3-10.5 0-18.1-16.6-18.1-39.5v-.6l30.3 2h.3v-.3c.4-11.3-2.5-21.7-7.6-26.9-2.2-2.3-4.7-3.5-7.2-3.5-11 0-18.1 14.7-18.1 37.4 0 24.2 9.4 35.3 18.2 35.3 8 0 12-6.9 15.8-14.6v-.1l-.4-1.1-.4.6zm-30.9-29.7c.5-14 5.8-24.1 12.8-24.1 6.3 0 11.7 7.1 13.9 18.2.2.6.3 2.5.3 3.6l-27 2.3zm53.1-50.4c1.7 0 2.8-1.9 2.8-4.6 0-2.8-1.1-4.6-2.8-4.6-1.6 0-2.8 2-2.8 4.6.1 2.6 1.3 4.6 2.8 4.6zm1.7 24.5h-14.6v2.8H516v56.2l-15.3 9.5-.1.1v.9l16.9-3.7 17.3 3.7h.3v-.9l-16-9.6zm54.8-32.2h-11.8v2.7h8.8V59c-3-2.6-6.2-3.9-9.7-3.9-13 0-20.3 19.1-20.9 37.9-.4 13 3.2 25.7 8.9 31.5 2.1 2.2 4.4 3.3 6.7 3.3 8.4 0 13.1-8.8 14.9-12.9v11.7l13.9-9.7.1-.1v-1l-11 2.7V24.6zM559 123.4c-9.8 0-15.9-13.8-15.9-36.1 0-16.7 6.4-28.9 15.3-28.9 4.9 0 9.6 3.1 12.5 8.4v45.7c-1.7 4.1-5.4 10.9-11.9 10.9zm66-11c-4 7.7-8.1 11.3-12.8 11.3-10.5 0-18.1-16.6-18.1-39.5v-.6l30.3 2h.3v-.3c.4-11.3-2.5-21.7-7.6-26.9-2.2-2.3-4.7-3.5-7.2-3.5-11 0-18.1 14.7-18.1 37.4 0 24.2 9.4 35.3 18.2 35.3 8 0 12-6.9 15.8-14.6v-.1l-.4-1.1-.4.6zm-30.9-29.7c.5-14 5.8-24.1 12.8-24.1 6.3 0 11.7 7.1 13.9 18.2.2.6.3 2.5.3 3.6l-27 2.3zM634 56.8v35.8h.8l2.8-30.8h22.1l-28.4 63.6v1h31.6V88.7h-.7l-2.7 32.7h-24.9l28.7-64.6zm52.2 0h-14.5v2.8h11.5v56.2l-15.4 9.5-.1.1v.9l17-3.7 17.2 3.7h.4v-.9l-16.1-9.6zm-1.6-24.5c1.7 0 2.8-1.9 2.8-4.6 0-2.8-1.1-4.6-2.8-4.6-1.6 0-2.8 2-2.8 4.6 0 2.6 1.2 4.6 2.8 4.6zM726 89.6c-.3-.2-.7-.4-1-.6l-1-.6c-5.1-3.1-12.8-7.7-13.9-14.7-.7-4.6.5-9.4 3.1-12.4 1.9-2.2 4.5-3.4 7.4-3.4 6.4 0 12.8 9.1 14.1 20l.7 6.1h2.1l-1.3-28.6h-.9l-1.2 8.5c-3-4.1-7.3-8.7-11.9-8.7-7 0-14.1 6.4-14.1 18.8 0 10.3 6.7 14.5 12 17.9.6.3 1.1.7 1.6 1 .4.2.8.5 1.2.7 4.9 3 12.2 7.6 13.2 15.8.6 5.1-.5 9.7-3.2 12.7-1.8 2.1-4.3 3.2-7.1 3.2-8.4 0-14.7-10-15.6-24.8-.2-2.3-.2-4.2-.2-5V95h-2.1l-.6 32.3h.9l2-9.5c2.9 4.8 7.1 10 13.4 10 7.1 0 14.7-6.3 14.7-20.1.3-10.4-7.3-15.1-12.3-18.1z"
    style="fill: #fff"
  />
</svg>
