<?xml version="1.0" encoding="utf-8"?>
<!-- Generator: Adobe Illustrator 25.2.1, SVG Export Plug-In . SVG Version: 6.00 Build 0)  -->
<svg version="1.1" id="Layer_1" xmlns="http://www.w3.org/2000/svg" xmlns:xlink="http://www.w3.org/1999/xlink" x="0px" y="0px"
	 viewBox="0 0 559 148" style="enable-background:new 0 0 559 148;" xml:space="preserve">
<style type="text/css">
	.st0{fill:#FFFFFF;}
	.st1{fill:#C9CA9E;}
	.st2{fill:#FF0000;}
</style>
<g>
	<polygon class="st0" points="49.3,123.3 49.2,123.4 49.2,124.3 62.7,120.6 78.9,124.3 78.9,123.4 64.3,114 64.3,29.1 78.3,23.5 
		78.3,22.6 61.7,22.6 41.8,116.1 20.2,22.8 20.2,22.6 4.3,22.6 4.3,23.5 17.5,29.9 17.5,113.9 1.7,123.4 1.7,124.3 18.3,120.6 
		33.5,124.3 33.5,123.4 19.1,114 19.1,33.5 40.4,126.8 40.5,127 41.3,127 61.1,33.5 61.1,114 	"/>
	<path class="st0" d="M127,114.3l-12.2,2.9V80.3c0-17.3-4.6-27.2-12.6-27.2c-8.4,0-13,9.2-16.1,17.2l0,0.1l0.6,1.3l0.2-0.6
		c3.9-9.9,8.4-14.3,14.4-14.3c6.4,0,10.5,9.3,10.5,23.7v3.7L86.7,94.7l-0.1,0l0,0.1c-0.9,2.3-1.8,7.3-1.8,11.5
		c0,9.7,3.5,19.4,11.4,19.4c6.5,0,12.8-5.2,15.6-12.9V126l15.2-10.8V114.3z M98.8,120.7c-5.1,0-12.5-6.4-12.5-17.9
		c0-0.9,0-1.8,0.1-2.5l25.5-15v25.3C109.6,116.4,104.1,120.7,98.8,120.7z"/>
	<path class="st0" d="M156.2,60.6h0.9v-7.4l-0.2,0c0,0-0.8-0.2-1.3-0.2c0,0,0,0,0,0c-5.4,0.3-10.5,10.3-12.5,20.4V54.8h-11.3v2.9
		h8.3v56.2l-11.2,9.6v1l12.7-3.8l13.6,3.8v-1l-12.1-9.6l0-35.2C145.4,65.5,148.9,60.6,156.2,60.6z"/>
	<path class="st0" d="M200.9,111.2L200.9,111.2l-0.4-1.2l-0.3,0.5c-3.7,7.5-7.8,11-12.6,11c-11,0-18.3-15.7-18.3-39.1
		c0-15.2,6.2-27,14.1-27c9.4,0,12.6,15.7,13.7,25c0.3,2.5,0.3,6,0.3,6v0.2h2.4V47.2h-1l-1.8,16.3c-1.8-3.7-5.8-10.4-12.2-10.4
		c-10.9,0-18,14.7-18,37.4c0,24.2,9.4,35.3,18.2,35.3C193.1,125.8,197.1,118.9,200.9,111.2z"/>
	<path class="st0" d="M245.4,87.7c0-9.1-1.6-17.6-4.6-23.9c-3.3-7-7.9-10.7-13.4-10.7c-11.5,0-19.2,15-19.2,37.4
		c0,20.8,7.7,35.3,18.7,35.3C237.1,125.8,245.4,108.7,245.4,87.7z M242.7,95.2c0,13.1-5,26.7-13.3,26.7c-11,0-18.9-16.2-18.9-38.6
		c0-18.4,7.2-26.8,13.9-26.8C235.5,56.4,242.7,71.7,242.7,95.2z"/>
	<path class="st0" d="M326.8,96.4c0-14.9-7.6-23.4-15.9-24.8c7.2-1.8,12-11.3,12-24.4c0-16.1-7.2-24.7-20.7-24.7h-25.2v0.9l13.1,6.6
		v86.5l-14.4,6.7v0.9H302C319.4,124.3,326.8,115.9,326.8,96.4z M293.3,70.7V24.6h9.2c10.5,0,16.8,8.5,16.8,22.6
		c0,21.7-10.6,23.5-20.6,23.5H293.3z M323.3,96.4c0,17.7-6.5,26-20.6,26h-9.4V72.8h7.3C311.9,72.8,323.3,80.1,323.3,96.4z"/>
	<path class="st0" d="M360.1,112.9V126l15.2-10.8v-0.9l-12.2,2.9V80.3c0-17.3-4.6-27.2-12.6-27.2c-8.4,0-13,9.2-16.1,17.2l0,0.1
		l0.6,1.3l0.2-0.6c3.9-9.9,8.4-14.3,14.4-14.3c6.4,0,10.5,9.3,10.5,23.7v3.7l-25.1,10.5l-0.1,0l0,0.1c-0.9,2.3-1.8,7.3-1.8,11.5
		c0,9.7,3.5,19.4,11.4,19.4C351,125.8,357.2,120.6,360.1,112.9z M347,120.7c-5.1,0-12.5-6.4-12.5-17.9c0-0.9,0-1.8,0.1-2.5l25.5-15
		v25.3C357.8,116.4,352.3,120.7,347,120.7z"/>
	<path class="st0" d="M391.3,73.4V54.8H380v2.9h8.3v56.2l-11.1,9.5l-0.1,0.1v1l12.7-3.8l13.6,3.8v-1l-12.1-9.6l0-35.2
		c2.3-13.1,5.8-18,13.1-18h0.9v-7.4l-0.2,0c0,0-0.8-0.2-1.3-0.2c0,0,0,0,0,0C398.3,53.4,393.3,63.4,391.3,73.4z"/>
	<path class="st0" d="M415.1,90.5c0,20.8,7.7,35.3,18.7,35.3c10.2,0,18.4-17.1,18.4-38.1c0-9.1-1.6-17.6-4.6-23.9
		c-3.3-7-7.9-10.7-13.4-10.7C422.8,53.1,415.1,68.1,415.1,90.5z M431.3,56.4c11.1,0,18.3,15.2,18.3,38.8c0,13.1-5,26.7-13.3,26.7
		c-11,0-18.9-16.2-18.9-38.6C417.5,64.8,424.7,56.4,431.3,56.4z"/>
	<path class="st0" d="M477.3,125.8c4.5,0,7.2-4,8.9-7l0.1-0.1l-0.4-1.1l-0.3,0.5c-1.2,2-3.4,4.4-7.7,4.4c-4.5,0-7.2-7.5-7.2-19.9
		V59.3l11.4,1.3v-5.9l-11.4,1V38.1h-3v18l-9.7,0.8v1l9.7,1.2v42.7C467.7,117.7,470.9,125.8,477.3,125.8z"/>
	<path class="st0" d="M510.3,125.8c4.5,0,7.2-4,8.9-7l0.1-0.1l-0.4-1.1l-0.3,0.5c-1.2,2-3.4,4.4-7.7,4.4c-4.5,0-7.2-7.5-7.2-19.9
		V59.3l11.4,1.3v-5.9l-11.4,1V38.1h-3v18l-9.7,0.8v1l9.7,1.2v42.7C500.6,117.7,503.9,125.8,510.3,125.8z"/>
	<polygon class="st0" points="558.4,124.3 558.4,123.4 542.4,113.8 542.4,54.8 527.9,54.8 527.9,57.6 539.4,57.6 539.4,113.8 
		524,123.3 523.9,123.4 523.9,124.3 540.9,120.6 558.1,124.3 	"/>
	<path class="st0" d="M543.6,25.7c0-2.8-1.1-4.6-2.8-4.6c-1.6,0-2.8,2-2.8,4.6c0,2.6,1.2,4.6,2.8,4.6
		C542.4,30.3,543.6,28.5,543.6,25.7z"/>
</g>
</svg>
