<?xml version="1.0" encoding="utf-8"?>
<!-- Generator: Adobe Illustrator 25.2.1, SVG Export Plug-In . SVG Version: 6.00 Build 0)  -->
<svg version="1.1" id="Layer_1" xmlns="http://www.w3.org/2000/svg" xmlns:xlink="http://www.w3.org/1999/xlink" x="0px" y="0px"
	 viewBox="0 0 624 148" style="enable-background:new 0 0 624 148;" xml:space="preserve">
<style type="text/css">
	.st0{fill:#FFFFFF;}
	.st1{fill:#C9CA9E;}
	.st2{fill:#FF0000;}
</style>
<g>
	<polygon class="st0" points="64,33.1 78,27.5 78,26.6 61.4,26.6 41.4,120.1 19.9,26.8 19.8,26.6 4,26.6 4,27.5 17.2,33.9 
		17.2,117.9 1.4,127.4 1.4,128.3 18,124.6 33.2,128.3 33.2,127.4 18.7,118 18.7,37.5 40.1,130.8 40.2,131 41,131 60.7,37.5 
		60.7,118 49,127.3 48.9,127.4 48.9,128.3 62.4,124.6 78.6,128.3 78.6,127.4 64,118 	"/>
	<path class="st0" d="M118.4,114.4c-4,7.7-8.1,11.3-12.8,11.3c-10.5,0-18.1-16.6-18.1-39.5v-0.6l30.3,2l0.3,0l0-0.3
		c0.4-11.3-2.5-21.7-7.6-26.9c-2.2-2.3-4.7-3.5-7.2-3.5c-11,0-18.1,14.7-18.1,37.4c0,24.2,9.4,35.3,18.2,35.3c8,0,12-6.9,15.8-14.6
		l0-0.1l-0.4-1.1L118.4,114.4z M87.4,84.7c0.5-14,5.8-24.1,12.8-24.1c6.3,0,11.7,7.1,13.9,18.2c0.2,0.6,0.3,2.5,0.3,3.6L87.4,84.7z"
		/>
	<polygon class="st0" points="142.2,26.6 127.6,26.6 127.6,29.3 139.2,29.3 139.2,117.8 123.8,127.3 123.7,127.4 123.7,128.3 
		140.7,124.6 157.9,128.3 158.2,128.3 158.2,127.4 142.2,117.8 	"/>
	<path class="st0" d="M193.4,84.3c0-17.3-4.6-27.2-12.6-27.2c-8.4,0-13,9.2-16.1,17.2l0,0.1l0.6,1.3l0.2-0.6
		c3.9-9.9,8.4-14.3,14.4-14.3c6.4,0,10.5,9.3,10.5,23.7v3.7l-25.1,10.5l-0.1,0l0,0.1c-0.9,2.3-1.8,7.3-1.8,11.5
		c0,9.7,3.5,19.4,11.4,19.4c6.5,0,12.8-5.2,15.6-12.9V130l15.1-10.7l0.1-0.1v-0.9l-12.2,2.9V84.3z M177.3,124.7
		c-5.1,0-12.5-6.4-12.5-17.9c0-0.9,0-1.8,0.1-2.5l25.5-15v25.3C188.1,120.4,182.6,124.7,177.3,124.7z"/>
	<path class="st0" d="M250.7,82.7c0-15.6-5.2-25.7-13.3-25.7c-6.5,0-11.3,6-13.8,16.9V58.8H210v2.9h10.6v56.2l-13.1,9.5l-0.1,0.1v1
		l14.7-3.8l12.4,3.8v-1l-10.9-9.6V77.4c3.6-13.1,7.7-15.8,13.1-15.8c6.7,0,10.9,9.6,10.9,25.2v31l-10.3,9.6v1l11.8-3.8l15,3.7
		l0.3,0.1v-1l-13.8-9.6V82.7z"/>
	<polygon class="st0" points="284.9,58.8 270.4,58.8 270.4,61.6 281.9,61.6 281.9,117.8 266.5,127.3 266.4,127.4 266.4,128.3 
		283.4,124.6 300.7,128.3 301,128.3 301,127.4 284.9,117.8 	"/>
	<path class="st0" d="M283.3,34.3c1.7,0,2.8-1.9,2.8-4.6c0-2.8-1.1-4.6-2.8-4.6c-1.6,0-2.8,2-2.8,4.6
		C280.5,32.3,281.8,34.3,283.3,34.3z"/>
	<path class="st0" d="M339.9,114.4c-4,7.7-8.1,11.3-12.8,11.3c-10.5,0-18.1-16.6-18.1-39.5v-0.6l30.3,2l0.3,0l0-0.3
		c0.4-11.3-2.5-21.7-7.6-26.9c-2.2-2.3-4.7-3.5-7.2-3.5c-11,0-18.1,14.7-18.1,37.4c0,24.2,9.4,35.3,18.2,35.3c8,0,12-6.9,15.8-14.6
		l0-0.1l-0.4-1.1L339.9,114.4z M309,84.7c0.5-14,5.8-24.1,12.8-24.1c6.3,0,11.7,7.1,13.9,18.2c0.2,0.6,0.3,2.5,0.3,3.6L309,84.7z"/>
	<polygon class="st0" points="414.4,36.5 427.3,27.6 427.4,27.5 427.4,26.5 415.3,30.3 405.4,26.5 405.4,27.5 413.1,36.3 389,84.9 
		389,36.9 403.1,27.6 403.2,27.5 403.2,26.5 388.1,30.3 374.8,26.5 374.8,27.5 385.9,36.9 385.9,118 374.2,127.4 374.2,128.3 
		387.7,124.6 407.4,128.3 407.4,127.4 389,117.9 389,87.8 394.7,76.4 426.6,134.4 426.8,134.8 427.4,133.8 397.8,70.1 	"/>
	<path class="st0" d="M456.7,57.1C456.7,57.1,456.7,57.1,456.7,57.1c-5.4,0.3-10.5,10.3-12.5,20.4V58.8h-11.3v2.9h8.3v56.2
		l-11.1,9.5l-0.1,0.1v1l12.7-3.8l13.6,3.8v-1l-12.1-9.6l0-35.2c2.3-13.1,5.8-18,13.1-18h0.9v-7.4l-0.2,0
		C458,57.2,457.2,57.1,456.7,57.1z"/>
	<path class="st0" d="M501.3,114.4c-4,7.7-8.1,11.3-12.8,11.3c-10.5,0-18.1-16.6-18.1-39.5v-0.6l30.3,2l0.3,0l0-0.3
		c0.4-11.3-2.5-21.7-7.6-26.9c-2.2-2.3-4.7-3.5-7.2-3.5c-11,0-18.1,14.7-18.1,37.4c0,24.2,9.4,35.3,18.2,35.3c8,0,12-6.9,15.8-14.6
		l0-0.1l-0.4-1.1L501.3,114.4z M470.4,84.7c0.5-14,5.8-24.1,12.8-24.1c6.3,0,11.7,7.1,13.9,18.2c0.2,0.6,0.3,2.5,0.3,3.6L470.4,84.7
		z"/>
	<path class="st0" d="M542.8,58.8h-10.4v2.9h7.4v47.9c-3.6,13.1-7.7,15.8-13.1,15.8c-5.9,0-9.7-9-9.7-22.8V58.8h-10.2v2.9h7.2v42.5
		c0,15.8,4.6,25.7,12,25.7c6.5,0,11.3-6,13.8-16.9v15.5l13.5-8.7l0.1-0.1v-0.9l-10.6,1.9V58.8z"/>
	<path class="st0" d="M585.1,122c-1.2,2-3.4,4.4-7.7,4.4c-4.5,0-7.2-7.5-7.2-19.9V63.3l11.4,1.3v-5.9l-11.4,1V42.1h-3v18l-9.7,0.8v1
		l9.7,1.2v42.7c0,15.9,3.3,24,9.7,24c4.5,0,7.2-4,8.9-7l0.1-0.1l-0.4-1.1L585.1,122z"/>
	<polygon class="st0" points="619.5,123.4 594.6,123.4 623.3,58.8 594.1,58.8 594.1,94.6 594.9,94.6 597.7,63.8 619.8,63.8 
		591.4,127.4 591.4,128.4 623,128.4 623,90.7 622.2,90.7 	"/>
</g>
</svg>
