<svg
  xmlns="http://www.w3.org/2000/svg"
  viewBox="0 0 703 148"
  style="enable-background: new 0 0 703 148"
  xml:space="preserve"
>
  <path
    d="M39.5 126.8v.2h.8l19.8-93.5V114l-11.8 9.3-.1.1v.9l13.5-3.7 16.2 3.7v-.9L63.3 114V29.1l14-5.6v-.9H60.7l-19.9 93.5-21.6-93.3v-.2H3.4v.9l13.1 6.4v84L.7 123.4v.9l16.6-3.7 15.3 3.7v-.9L18.1 114V33.5zm42.4-3.5-.1.1v.9l17-3.7 17.2 3.7h.3v-.9l-16-9.6v-59H85.8v2.8h11.4v56.2zm19.5-97.6c0-2.8-1.1-4.6-2.8-4.6-1.6 0-2.8 2-2.8 4.6 0 2.6 1.2 4.6 2.8 4.6 1.7 0 2.8-1.8 2.8-4.6zm23.2 90.1c2.9 4.8 7.1 10 13.4 10 7.1 0 14.7-6.3 14.7-20.1 0-10.4-7.6-15-12.6-18.1-.3-.2-.7-.4-1-.6l-1-.6c-5.1-3.1-12.8-7.7-13.9-14.7-.7-4.6.5-9.4 3.1-12.4 1.9-2.2 4.5-3.4 7.4-3.4 6.4 0 12.8 9.1 14.1 20l.7 6.1h2.1l-1.3-28.6h-.9l-1.2 8.5c-3-4.1-7.3-8.7-11.9-8.7-7 0-14.1 6.4-14.1 18.8 0 10.3 6.7 14.5 12 17.9.6.3 1.1.7 1.6 1 .4.2.8.5 1.2.7 4.9 3 12.2 7.6 13.2 15.8.6 5.1-.5 9.7-3.2 12.7-1.8 2.1-4.3 3.2-7.1 3.2-8.4 0-14.7-10-15.6-24.8-.2-2.3-.2-4.2-.2-5V93H122l-.6 32.3h.9l2.3-9.5zm69.3-29.2V47.2h-1l-1.8 16.3c-1.8-3.7-5.8-10.4-12.2-10.4-10.9 0-18 14.7-18 37.4 0 24.2 9.4 35.3 18.2 35.3 8 0 12-6.9 15.8-14.6v-.1l-.4-1.1-.3.5c-3.8 7.5-7.8 11-12.6 11-11 0-18.3-15.7-18.3-39.1 0-15.2 6.2-27 14.1-27 9.4 0 12.6 15.7 13.7 25 .3 2.5.3 6 .3 6v.2h2.5zm32.9 37.8v-1l-10.9-9.6V73.4c3.6-13.1 7.7-15.8 13.1-15.8 6.7 0 10.9 9.6 10.9 25.2v31l-10.3 9.6v1l11.8-3.8 15 3.7.3.1v-1l-13.8-9.6v-35c0-15.6-5.2-25.7-13.3-25.7-6.5 0-11.3 6-13.8 16.9V22.6h-13.6v2.9h10.6v88.3l-13.1 9.5-.1.1v1l14.7-3.8 12.5 3.8zm36.9-29.7-.1.1c-.9 2.3-1.8 7.3-1.8 11.5 0 9.7 3.5 19.4 11.4 19.4 6.5 0 12.8-5.2 15.6-12.9V126l15.1-10.7.1-.1v-.9l-12.2 2.9V80.3c0-17.3-4.6-27.2-12.6-27.2-8.4 0-13 9.2-16.1 17.2v.1l.6 1.3.2-.6c4-10 8.3-14.3 14.4-14.3 6.4 0 10.5 9.3 10.5 23.7v3.7l-25.1 10.5zm12 26c-5.1 0-12.5-6.4-12.5-17.9 0-.9 0-1.8.1-2.5l25.5-15v25.3c-2.3 5.8-7.8 10.1-13.1 10.1zM377 71.1h-1l-3.3 51.3h-25.2V32.9l14.1-9.2h.1v-1.2l-15.8 3.8-12.6-3.5-.3-.1v1l11.4 9.2v83.4l-13 7-.2.1v.9H377zm28 54.7c8 0 12-6.9 15.8-14.6v-.1l-.4-1.1-.3.5c-4 7.7-8.1 11.3-12.8 11.3-10.5 0-18.1-16.6-18.1-39.5v-.6l30.3 2h.3v-.3c.4-11.3-2.5-21.7-7.6-26.9-2.2-2.3-4.7-3.5-7.2-3.5-11 0-18.1 14.7-18.1 37.4 0 24.3 9.4 35.4 18.1 35.4zm-15.8-45.1c.5-14 5.8-24.1 12.8-24.1 6.3 0 11.7 7.1 13.9 18.2.2.6.3 2.5.3 3.6l-27 2.3zm50.4-55c0 2.6 1.2 4.6 2.8 4.6 1.7 0 2.8-1.9 2.8-4.6 0-2.8-1.1-4.6-2.8-4.6-1.6 0-2.8 2-2.8 4.6zm20.2 98.6h.3v-.9l-16.1-9.6v-59h-14.5v2.8H441v56.2l-15.4 9.5-.1.1v.9l17-3.7zm33.2-.9v1l11.8-3.8 15 3.7.3.1v-1l-13.8-9.6v-35c0-15.6-5.2-25.7-13.3-25.7-6.5 0-11.3 6-13.8 16.9V54.8h-13.6v2.9h10.6v56.2l-13.1 9.5-.1.1v1l14.7-3.8 12.4 3.8v-1l-10.9-9.6V73.4c3.6-13.1 7.7-15.8 13.1-15.8 6.7 0 10.9 9.6 10.9 25.2v31l-10.2 9.6zm55.2 1 8.7-4 13.7 3.9v-.9l-12.9-9-16-30.3 14.2-26.5h7.4v-2.8h-18.6v2.8h9.4l-18.8 35.5V22.6h-12.5v2.7h9.4v88.5l-10.6 9.6v1l12.2-3.8 12.6 3.8v-1l-11.1-9.6V96.5l4.4-8.5 14.1 26.9-5.6 8.5zm67.9-10.1-12.2 2.9V80.3c0-17.3-4.6-27.2-12.6-27.2-8.4 0-13 9.2-16.1 17.2v.1l.6 1.3.2-.6c3.9-9.9 8.4-14.3 14.4-14.3 6.4 0 10.5 9.3 10.5 23.7v3.7l-25.1 10.5h-.1v.1c-.9 2.3-1.8 7.3-1.8 11.5 0 9.7 3.5 19.4 11.4 19.4 6.5 0 12.8-5.2 15.6-12.9V126l15.2-10.8v-.9zm-28.3 6.4c-5.1 0-12.5-6.4-12.5-17.9 0-.9 0-1.8.1-2.5l25.5-15v25.3c-2.2 5.8-7.7 10.1-13.1 10.1zm37.4-20.6c0 15.8 4.6 25.7 12 25.7 6.5 0 11.3-6 13.8-16.9v15.5l13.5-8.7.1-.1v-.9l-10.6 1.9V54.8h-10.4v2.9h7.4v47.9c-3.6 13.1-7.7 15.8-13.1 15.8-5.9 0-9.7-9-9.7-22.8V54.8H618v2.9h7.2v42.4zm76.2-74.8v-2.7H681v33.5l-12.3.9v.9l12.3 1.2v54.7l-10.5 9.6v1l12-3.8 16.9 3.7v-.9l-15.4-9.6V59.3l15.3 1.4v-6L684 55.9V25.3z"
    style="fill: #fff"
  />
</svg>
