<?xml version="1.0" encoding="utf-8"?>
<!-- Generator: Adobe Illustrator 25.2.1, SVG Export Plug-In . SVG Version: 6.00 Build 0)  -->
<svg version="1.1" id="Layer_1" xmlns="http://www.w3.org/2000/svg" xmlns:xlink="http://www.w3.org/1999/xlink" x="0px" y="0px"
	 viewBox="0 0 703 148" style="enable-background:new 0 0 703 148;" xml:space="preserve">
<style type="text/css">
	.st0{fill:#FFFFFF;}
	.st1{fill:#C9CA9E;}
	.st2{fill:#FF0000;}
</style>
<g>
	<polygon class="st0" points="39.5,126.8 39.5,127 40.3,127 60.1,33.5 60.1,114 48.3,123.3 48.2,123.4 48.2,124.3 61.7,120.6 
		77.9,124.3 77.9,123.4 63.3,114 63.3,29.1 77.3,23.5 77.3,22.6 60.7,22.6 40.8,116.1 19.2,22.8 19.2,22.6 3.4,22.6 3.4,23.5 
		16.5,29.9 16.5,113.9 0.7,123.4 0.7,124.3 17.3,120.6 32.6,124.3 32.6,123.4 18.1,114 18.1,33.5 	"/>
	<polygon class="st0" points="81.9,123.3 81.8,123.4 81.8,124.3 98.8,120.6 116,124.3 116.3,124.3 116.3,123.4 100.3,113.8 
		100.3,54.8 85.8,54.8 85.8,57.6 97.2,57.6 97.2,113.8 	"/>
	<path class="st0" d="M101.4,25.7c0-2.8-1.1-4.6-2.8-4.6c-1.6,0-2.8,2-2.8,4.6c0,2.6,1.2,4.6,2.8,4.6
		C100.3,30.3,101.4,28.5,101.4,25.7z"/>
	<path class="st0" d="M124.6,115.8c2.9,4.8,7.1,10,13.4,10c7.1,0,14.7-6.3,14.7-20.1c0-10.4-7.6-15-12.6-18.1
		c-0.3-0.2-0.7-0.4-1-0.6l-1-0.6c-5.1-3.1-12.8-7.7-13.9-14.7c-0.7-4.6,0.5-9.4,3.1-12.4c1.9-2.2,4.5-3.4,7.4-3.4
		c6.4,0,12.8,9.1,14.1,20l0.7,6.1h2.1l-1.3-28.6h-0.9l-1.2,8.5c-3-4.1-7.3-8.7-11.9-8.7c-7,0-14.1,6.4-14.1,18.8
		c0,10.3,6.7,14.5,12,17.9c0.6,0.3,1.1,0.7,1.6,1c0.4,0.2,0.8,0.5,1.2,0.7c4.9,3,12.2,7.6,13.2,15.8c0.6,5.1-0.5,9.7-3.2,12.7
		c-1.8,2.1-4.3,3.2-7.1,3.2c-8.4,0-14.7-10-15.6-24.8c-0.2-2.3-0.2-4.2-0.2-5V93h-2.1l-0.6,32.3h0.9L124.6,115.8z"/>
	<path class="st0" d="M193.9,86.6V47.2h-1l-1.8,16.3c-1.8-3.7-5.8-10.4-12.2-10.4c-10.9,0-18,14.7-18,37.4
		c0,24.2,9.4,35.3,18.2,35.3c8,0,12-6.9,15.8-14.6l0-0.1l-0.4-1.1l-0.3,0.5c-3.8,7.5-7.8,11-12.6,11c-11,0-18.3-15.7-18.3-39.1
		c0-15.2,6.2-27,14.1-27c9.4,0,12.6,15.7,13.7,25c0.3,2.5,0.3,6,0.3,6v0.2H193.9z"/>
	<path class="st0" d="M226.8,124.4v-1l-10.9-9.6V73.4c3.6-13.1,7.7-15.8,13.1-15.8c6.7,0,10.9,9.6,10.9,25.2v31l-10.3,9.6v1
		l11.8-3.8l15,3.7l0.3,0.1v-1l-13.8-9.6v-35c0-15.6-5.2-25.7-13.3-25.7c-6.5,0-11.3,6-13.8,16.9V22.6h-13.6v2.9h10.6v88.3l-13.1,9.5
		l-0.1,0.1v1l14.7-3.8L226.8,124.4z"/>
	<path class="st0" d="M263.7,94.7L263.7,94.7l-0.1,0.1c-0.9,2.3-1.8,7.3-1.8,11.5c0,9.7,3.5,19.4,11.4,19.4
		c6.5,0,12.8-5.2,15.6-12.9V126l15.1-10.7l0.1-0.1v-0.9l-12.2,2.9V80.3c0-17.3-4.6-27.2-12.6-27.2c-8.4,0-13,9.2-16.1,17.2l0,0.1
		l0.6,1.3l0.2-0.6c4-10,8.3-14.3,14.4-14.3c6.4,0,10.5,9.3,10.5,23.7v3.7L263.7,94.7z M275.7,120.7c-5.1,0-12.5-6.4-12.5-17.9
		c0-0.9,0-1.8,0.1-2.5l25.5-15v25.3C286.5,116.4,281,120.7,275.7,120.7z"/>
	<polygon class="st0" points="377,71.1 376,71.1 372.7,122.4 347.5,122.4 347.5,32.9 361.6,23.7 361.7,23.7 361.7,22.5 345.9,26.3 
		333.3,22.8 333,22.7 333,23.7 344.4,32.9 344.4,116.3 331.4,123.3 331.2,123.4 331.2,124.3 377,124.3 	"/>
	<path class="st0" d="M405,125.8c8,0,12-6.9,15.8-14.6l0-0.1l-0.4-1.1l-0.3,0.5c-4,7.7-8.1,11.3-12.8,11.3
		c-10.5,0-18.1-16.6-18.1-39.5v-0.6l30.3,2l0.3,0l0-0.3c0.4-11.3-2.5-21.7-7.6-26.9c-2.2-2.3-4.7-3.5-7.2-3.5
		c-11,0-18.1,14.7-18.1,37.4C386.9,114.7,396.3,125.8,405,125.8z M389.2,80.7c0.5-14,5.8-24.1,12.8-24.1c6.3,0,11.7,7.1,13.9,18.2
		c0.2,0.6,0.3,2.5,0.3,3.6L389.2,80.7z"/>
	<path class="st0" d="M439.6,25.7c0,2.6,1.2,4.6,2.8,4.6c1.7,0,2.8-1.9,2.8-4.6c0-2.8-1.1-4.6-2.8-4.6
		C440.8,21.1,439.6,23.1,439.6,25.7z"/>
	<polygon class="st0" points="459.8,124.3 460.1,124.3 460.1,123.4 444,113.8 444,54.8 429.5,54.8 429.5,57.6 441,57.6 441,113.8 
		425.6,123.3 425.5,123.4 425.5,124.3 442.5,120.6 	"/>
	<path class="st0" d="M493,123.4v1l11.8-3.8l15,3.7l0.3,0.1v-1l-13.8-9.6v-35c0-15.6-5.2-25.7-13.3-25.7c-6.5,0-11.3,6-13.8,16.9
		V54.8h-13.6v2.9h10.6v56.2l-13.1,9.5l-0.1,0.1v1l14.7-3.8l12.4,3.8v-1l-10.9-9.6V73.4c3.6-13.1,7.7-15.8,13.1-15.8
		c6.7,0,10.9,9.6,10.9,25.2v31L493,123.4z"/>
	<polygon class="st0" points="548.2,124.4 556.9,120.4 570.6,124.3 570.6,123.4 557.7,114.4 541.7,84.1 555.9,57.6 563.3,57.6 
		563.3,54.8 544.7,54.8 544.7,57.6 554.1,57.6 535.3,93.1 535.3,22.6 522.8,22.6 522.8,25.3 532.2,25.3 532.2,113.8 521.6,123.4 
		521.6,124.4 533.8,120.6 546.4,124.4 546.4,123.4 535.3,113.8 535.3,96.5 539.7,88 553.8,114.9 548.2,123.4 	"/>
	<path class="st0" d="M616.1,114.3l-12.2,2.9V80.3c0-17.3-4.6-27.2-12.6-27.2c-8.4,0-13,9.2-16.1,17.2l0,0.1l0.6,1.3l0.2-0.6
		c3.9-9.9,8.4-14.3,14.4-14.3c6.4,0,10.5,9.3,10.5,23.7v3.7l-25.1,10.5l-0.1,0l0,0.1c-0.9,2.3-1.8,7.3-1.8,11.5
		c0,9.7,3.5,19.4,11.4,19.4c6.5,0,12.8-5.2,15.6-12.9V126l15.2-10.8V114.3z M587.8,120.7c-5.1,0-12.5-6.4-12.5-17.9
		c0-0.9,0-1.8,0.1-2.5l25.5-15v25.3C598.7,116.4,593.2,120.7,587.8,120.7z"/>
	<path class="st0" d="M625.2,100.1c0,15.8,4.6,25.7,12,25.7c6.5,0,11.3-6,13.8-16.9v15.5l13.5-8.7l0.1-0.1v-0.9l-10.6,1.9V54.8
		h-10.4v2.9h7.4v47.9c-3.6,13.1-7.7,15.8-13.1,15.8c-5.9,0-9.7-9-9.7-22.8V54.8H618v2.9h7.2V100.1z"/>
	<polygon class="st0" points="701.4,25.3 701.4,22.6 681,22.6 681,56.1 668.7,57 668.7,57.9 681,59.1 681,113.8 670.5,123.4 
		670.5,124.4 682.5,120.6 699.4,124.3 699.4,123.4 684,113.8 684,59.3 699.3,60.7 699.3,54.7 684,55.9 684,25.3 	"/>
</g>
</svg>
