<?xml version="1.0" encoding="utf-8"?>
<!-- Generator: Adobe Illustrator 25.2.1, SVG Export Plug-In . SVG Version: 6.00 Build 0)  -->
<svg version="1.1" id="Layer_1" xmlns="http://www.w3.org/2000/svg" xmlns:xlink="http://www.w3.org/1999/xlink" x="0px" y="0px"
	 viewBox="0 0 422 148" style="enable-background:new 0 0 422 148;" xml:space="preserve">
<style type="text/css">
	.st0{fill:#FFFFFF;}
	.st1{fill:#C9CA9E;}
	.st2{fill:#FF0000;}
</style>
<g>
	<polygon class="st0" points="37.8,22 37.8,23 52,33.4 52,113.1 20.8,22.3 20.7,22.1 2.4,22.1 2.4,23 18.4,29.6 18.4,113.4 
		1.6,122.9 1.6,123.8 19.1,120.1 42.1,123.8 42.1,122.8 20,113.4 20,30.9 52.7,126.3 52.8,126.5 53.7,126.5 53.7,33.4 67.9,23.1 
		68,23 68,22 53,25.8 	"/>
	<path class="st0" d="M101.4,79.8c0-17.3-4.6-27.2-12.6-27.2c-8.4,0-13,9.2-16.1,17.2l0,0.1l0.6,1.3l0.2-0.6
		c4-10,8.3-14.3,14.4-14.3c6.4,0,10.5,9.3,10.5,23.7v3.7L73.2,94.2l-0.1,0l0,0.1c-0.9,2.3-1.8,7.3-1.8,11.5
		c0,9.7,3.5,19.4,11.4,19.4c6.5,0,12.8-5.2,15.6-12.9v13.1l15.1-10.7l0.1-0.1v-0.9l-12.2,2.9V79.8z M85.3,120.2
		c-5.1,0-12.5-6.4-12.5-17.9c0-0.9,0-1.8,0.1-2.5l25.5-15V110C96.1,115.9,90.6,120.2,85.3,120.2z"/>
	<path class="st0" d="M151.2,22.1h-11.8v2.7h8.8v31.7c-3-2.6-6.2-3.9-9.7-3.9c-13,0-20.3,19.1-20.9,37.9c-0.4,13,3.2,25.7,8.9,31.5
		c2.1,2.2,4.4,3.3,6.7,3.3c8.4,0,13.1-8.8,14.9-12.9V124l13.9-9.7l0.1-0.1v-1l-11,2.7V22.1z M136.2,120.9
		c-9.8,0-15.9-13.8-15.9-36.1c0-16.7,6.4-28.9,15.3-28.9c4.9,0,9.6,3.1,12.5,8.4V110C146.5,114.1,142.7,120.9,136.2,120.9z"/>
	<path class="st0" d="M198.5,79.8c0-17.3-4.6-27.2-12.6-27.2c-8.4,0-13,9.2-16.1,17.2l0,0.1l0.6,1.3l0.2-0.6
		c3.9-9.9,8.4-14.3,14.4-14.3c6.4,0,10.5,9.3,10.5,23.7v3.7l-25.1,10.5l-0.1,0l0,0.1c-0.9,2.3-1.8,7.3-1.8,11.5
		c0,9.7,3.5,19.4,11.4,19.4c6.5,0,12.8-5.2,15.6-12.9v13.1l15.2-10.8v-0.9l-12.2,2.9V79.8z M182.4,120.2c-5.1,0-12.5-6.4-12.5-17.9
		c0-0.9,0-1.8,0.1-2.5l25.5-15V110C193.2,115.9,187.7,120.2,182.4,120.2z"/>
	<polygon class="st0" points="239.1,54.1 239.1,55.1 249,64.2 236.3,118.7 223.2,64.2 232.3,55.2 232.3,55.1 232.3,54.1 221.2,58.8 
		211.7,54.1 211.7,55.1 219.9,64.2 234.8,126.9 234.8,127.1 235.5,127.1 250.2,64.2 258,55.2 258,55.1 258,54.1 250,58.8 	"/>
	<polygon class="st0" points="287.9,65.9 288.8,65.9 292.2,24.1 309.8,24.1 309.8,113.5 296.4,122.8 296.3,122.9 296.3,123.8 
		311.4,120.1 326,123.8 326,122.9 312.9,113.5 312.9,24.1 330.7,24.1 334.1,65.9 335.1,65.9 335.1,22.1 287.9,22.1 	"/>
	<path class="st0" d="M372.3,79.8c0-17.3-4.6-27.2-12.6-27.2c-8.4,0-13,9.2-16.1,17.2l0,0.1l0.6,1.3l0.2-0.6
		c3.9-9.9,8.4-14.3,14.4-14.3c6.4,0,10.5,9.3,10.5,23.7v3.7l-25.1,10.5l-0.1,0l0,0.1c-0.9,2.3-1.8,7.3-1.8,11.5
		c0,9.7,3.5,19.4,11.4,19.4c6.5,0,12.8-5.2,15.6-12.9v13.1l15.2-10.8v-0.9l-12.2,2.9V79.8z M356.2,120.2c-5.1,0-12.5-6.4-12.5-17.9
		c0-0.9,0-1.8,0.1-2.5l25.5-15V110C367,115.9,361.5,120.2,356.2,120.2z"/>
	<polygon class="st0" points="404.8,113.3 404.8,22.1 390.2,22.1 390.2,24.8 401.8,24.8 401.8,113.3 386.4,122.8 386.3,122.9 
		386.3,123.8 403.3,120.1 420.6,123.8 420.9,123.8 420.9,122.9 	"/>
</g>
</svg>
