<svg
  version="1.1"
  id="Layer_1"
  xmlns="http://www.w3.org/2000/svg"
  x="0"
  y="0"
  viewBox="0 0 422 148"
  style="enable-background: new 0 0 422 148"
  xml:space="preserve"
>
  <style>
    .st0 {
      fill: #fff;
    }
  </style>
  <path
    class="st0"
    d="M37.8 22v1L52 33.4v79.7L20.8 22.3l-.1-.2H2.4v.9l16 6.6v83.8l-16.8 9.5v.9l17.5-3.7 23 3.7v-1L20 113.4V30.9l32.7 95.4.1.2h.9V33.4l14.2-10.3.1-.1v-1l-15 3.8zM101.4 79.8c0-17.3-4.6-27.2-12.6-27.2-8.4 0-13 9.2-16.1 17.2v.1l.6 1.3.2-.6c4-10 8.3-14.3 14.4-14.3 6.4 0 10.5 9.3 10.5 23.7v3.7L73.2 94.2h-.1v.1c-.9 2.3-1.8 7.3-1.8 11.5 0 9.7 3.5 19.4 11.4 19.4 6.5 0 12.8-5.2 15.6-12.9v13.1l15.1-10.7.1-.1v-.9l-12.2 2.9V79.8zm-16.1 40.4c-5.1 0-12.5-6.4-12.5-17.9 0-.9 0-1.8.1-2.5l25.5-15V110c-2.3 5.9-7.8 10.2-13.1 10.2zM151.2 22.1h-11.8v2.7h8.8v31.7c-3-2.6-6.2-3.9-9.7-3.9-13 0-20.3 19.1-20.9 37.9-.4 13 3.2 25.7 8.9 31.5 2.1 2.2 4.4 3.3 6.7 3.3 8.4 0 13.1-8.8 14.9-12.9V124l13.9-9.7.1-.1v-1l-11 2.7V22.1zm-15 98.8c-9.8 0-15.9-13.8-15.9-36.1 0-16.7 6.4-28.9 15.3-28.9 4.9 0 9.6 3.1 12.5 8.4V110c-1.6 4.1-5.4 10.9-11.9 10.9zM198.5 79.8c0-17.3-4.6-27.2-12.6-27.2-8.4 0-13 9.2-16.1 17.2v.1l.6 1.3.2-.6c3.9-9.9 8.4-14.3 14.4-14.3 6.4 0 10.5 9.3 10.5 23.7v3.7l-25.1 10.5h-.1v.1c-.9 2.3-1.8 7.3-1.8 11.5 0 9.7 3.5 19.4 11.4 19.4 6.5 0 12.8-5.2 15.6-12.9v13.1l15.2-10.8v-.9l-12.2 2.9V79.8zm-16.1 40.4c-5.1 0-12.5-6.4-12.5-17.9 0-.9 0-1.8.1-2.5l25.5-15V110c-2.3 5.9-7.8 10.2-13.1 10.2zM239.1 54.1v1l9.9 9.1-12.7 54.5-13.1-54.5 9.1-9v-1.1l-11.1 4.7-9.5-4.7v1l8.2 9.1 14.9 62.7v.2h.7l14.7-62.9 7.8-9v-1.1l-8 4.7zM287.9 65.9h.9l3.4-41.8h17.6v89.4l-13.4 9.3-.1.1v.9l15.1-3.7 14.6 3.7v-.9l-13.1-9.4V24.1h17.8l3.4 41.8h1V22.1h-47.2zM372.3 79.8c0-17.3-4.6-27.2-12.6-27.2-8.4 0-13 9.2-16.1 17.2v.1l.6 1.3.2-.6c3.9-9.9 8.4-14.3 14.4-14.3 6.4 0 10.5 9.3 10.5 23.7v3.7l-25.1 10.5h-.1v.1c-.9 2.3-1.8 7.3-1.8 11.5 0 9.7 3.5 19.4 11.4 19.4 6.5 0 12.8-5.2 15.6-12.9v13.1l15.2-10.8v-.9l-12.2 2.9V79.8zm-16.1 40.4c-5.1 0-12.5-6.4-12.5-17.9 0-.9 0-1.8.1-2.5l25.5-15V110c-2.3 5.9-7.8 10.2-13.1 10.2zM404.8 113.3V22.1h-14.6v2.7h11.6v88.5l-15.4 9.5-.1.1v.9l17-3.7 17.3 3.7h.3v-.9z"
  />
</svg>
