<?xml version="1.0" encoding="utf-8"?>
<!-- Generator: Adobe Illustrator 25.2.1, SVG Export Plug-In . SVG Version: 6.00 Build 0)  -->
<svg version="1.1" id="Layer_1" xmlns="http://www.w3.org/2000/svg" xmlns:xlink="http://www.w3.org/1999/xlink" x="0px" y="0px"
	 viewBox="0 0 629 148" style="enable-background:new 0 0 629 148;" xml:space="preserve">
<style type="text/css">
	.st0{fill:#FFFFFF;}
	.st1{fill:#C9CA9E;}
	.st2{fill:#FF0000;}
</style>
<g>
	<path class="st0" d="M3.8,98.9c4.1,6.2,9.5,12.3,17.8,12.3c9.6,0,19.8-7.1,19.8-27C41.4,68.6,30.9,61,23.9,56c-0.5-0.4-1-0.7-1.4-1
		l-0.6-0.5C15,49.5,5.5,42.7,5.5,30.2c0-14.1,5-21.3,14.7-21.3c7.8,0,14,11.4,16.2,29.7c0.4,2.7,0.9,8.5,0.9,8.6l0,0.2h1.9V6.6h-1
		l-1.5,15.9c-3.5-7.9-9.6-15.9-16.6-15.9c-11.1,0-17.5,9-17.5,24.8c0,15,9.6,22.2,16.6,27.5l0.9,0.6c0.4,0.3,0.9,0.7,1.4,1
		c6.6,4.9,16.7,12.3,16.7,25.2c0,14.8-5.7,23.3-15.5,23.3c-10.5,0-18.4-14-19.3-33.9c-0.2-3.7-0.3-6.2-0.3-7.2v-0.2H1.3v43.6h0.9
		L3.8,98.9z"/>
	<path class="st0" d="M76.3,111.5l15.1-10.7l0.1-0.1v-0.9l-12.2,2.9V65.8c0-17.3-4.6-27.2-12.6-27.2c-8.4,0-13,9.2-16.1,17.2l0,0.1
		l0.6,1.3l0.2-0.6c3.9-9.9,8.4-14.3,14.4-14.3c6.4,0,10.5,9.3,10.5,23.7v3.7L51.2,80.2l-0.1,0l0,0.1c-0.9,2.3-1.8,7.3-1.8,11.5
		c0,9.7,3.5,19.4,11.4,19.4c6.5,0,12.8-5.2,15.6-12.9V111.5z M63.3,106.2c-5.1,0-12.5-6.4-12.5-17.9c0-0.9,0-1.8,0.1-2.5l25.5-15V96
		C74.1,101.9,68.6,106.2,63.3,106.2z"/>
	<path class="st0" d="M120.5,108.9l-10.9-9.6V58.9c3.6-13.1,7.7-15.8,13.1-15.8c6.7,0,10.9,9.6,10.9,25.2v31l-10.3,9.6v1l11.8-3.8
		l15,3.7l0.3,0.1v-1l-13.8-9.6v-35c0-15.6-5.2-25.7-13.3-25.7c-6.5,0-11.3,6-13.8,16.9V40.3H96v2.9h10.6v56.2l-13.1,9.5l-0.1,0.1v1
		l14.7-3.8l12.4,3.8V108.9z"/>
	<path class="st0" d="M180.8,104.1l-0.4-1.1l-0.3,0.5c-1.2,2-3.4,4.4-7.7,4.4c-4.5,0-7.2-7.5-7.2-19.9V44.8l11.4,1.3v-5.9l-11.4,1
		V23.6h-3v18l-9.7,0.8v1l9.7,1.2v42.7c0,15.9,3.3,24,9.7,24c4.5,0,7.2-4,8.9-7L180.8,104.1z"/>
	<polygon class="st0" points="219.7,109.8 220,109.8 220,108.9 203.9,99.3 203.9,40.3 189.4,40.3 189.4,43.1 200.9,43.1 200.9,99.3 
		185.5,108.8 185.4,108.9 185.4,109.8 202.4,106.1 	"/>
	<path class="st0" d="M199.5,11.2c0,2.6,1.2,4.6,2.8,4.6c1.7,0,2.8-1.9,2.8-4.6c0-2.8-1.1-4.6-2.8-4.6
		C200.7,6.6,199.5,8.6,199.5,11.2z"/>
	<path class="st0" d="M267.2,100.7v-0.9l-12.2,2.9V65.8c0-17.3-4.6-27.2-12.6-27.2c-8.4,0-13,9.2-16.1,17.2l0,0.1l0.6,1.3l0.2-0.6
		c3.9-9.9,8.4-14.3,14.4-14.3c6.4,0,10.5,9.3,10.5,23.7v3.7l-25.1,10.5l-0.1,0l0,0.1c-0.9,2.3-1.8,7.3-1.8,11.5
		c0,9.7,3.5,19.4,11.4,19.4c6.5,0,12.8-5.2,15.6-12.9v13.1L267.2,100.7z M239,106.2c-5.1,0-12.5-6.4-12.5-17.9c0-0.9,0-1.8,0.1-2.5
		l25.5-15V96C249.8,101.9,244.3,106.2,239,106.2z"/>
	<path class="st0" d="M290.6,139.7c-5.4,0-10.5-2.2-15.4-6.8l-0.4-0.4v1.5l0.1,0.1c0.5,0.4,1,0.9,1.5,1.3c3.5,3.2,7.2,6.5,15.2,6.5
		c9.3,0,16.1-8.7,16.1-20.6c0-10.4-6.6-16.1-12.9-16.1h-10.3l9.8-6.8c6.8-4.7,11-16,11-29.5c0-10.7-3.7-21-9.3-25.8h8.9v-2.9h-15.9
		c-10.4,0-17.4,12.4-17.4,30.9c0,18.1,8.8,28.9,17.4,28.9c0.1,0,0.3,0,0.5,0l-13.6,8.8l-0.1,0.1v0.9h17.7c6.6,0,10.7,5,10.7,13
		C304.2,131.5,297.6,139.7,290.6,139.7z M290.4,98c-8.4,0-15.8-15.5-15.8-33.2c0-13,5-22.5,11.9-22.5c7.8,0,16.1,13.2,16.1,32.9
		C302.7,84.7,298,98,290.4,98z"/>
	<path class="st0" d="M334.7,111.3c10.2,0,18.4-17.1,18.4-38.1c0-9.1-1.6-17.6-4.6-23.9c-3.3-7-7.9-10.7-13.4-10.7
		c-11.5,0-19.2,15-19.2,37.4C316,96.8,323.7,111.3,334.7,111.3z M318.3,68.8c0-18.4,7.2-26.8,13.9-26.8c11.1,0,18.3,15.2,18.3,38.8
		c0,13.1-5,26.7-13.3,26.7C326.3,107.4,318.3,91.2,318.3,68.8z"/>
	<path class="st0" d="M390.5,98.9c4.1,6.2,9.5,12.3,17.8,12.3c9.6,0,19.8-7.1,19.8-27c0-15.7-10.5-23.3-17.5-28.3
		c-0.5-0.4-1-0.7-1.4-1l-0.6-0.5c-6.9-5-16.3-11.8-16.3-24.3c0-14.1,5-21.3,14.7-21.3c7.8,0,14,11.4,16.2,29.7
		c0.4,2.7,0.9,8.5,0.9,8.6l0,0.2h1.9V6.6h-1l-1.5,15.9C420.1,14.7,414,6.6,407,6.6c-11.1,0-17.5,9-17.5,24.8
		c0,15,9.6,22.2,16.6,27.5l0.9,0.6c0.4,0.3,0.9,0.7,1.4,1C415,65.5,425,72.9,425,85.8c0,14.8-5.7,23.3-15.5,23.3
		c-10.5,0-18.4-14-19.3-33.9c-0.2-3.7-0.3-6.2-0.3-7.2v-0.2h-1.9v43.6h0.9L390.5,98.9z"/>
	<path class="st0" d="M448.1,11.2c0,2.6,1.2,4.6,2.8,4.6c1.7,0,2.8-1.9,2.8-4.6c0-2.8-1.1-4.6-2.8-4.6
		C449.3,6.6,448.1,8.6,448.1,11.2z"/>
	<polygon class="st0" points="468.5,109.8 468.5,108.9 452.5,99.3 452.5,40.3 438,40.3 438,43.1 449.5,43.1 449.5,99.3 434.1,108.8 
		434,108.9 434,109.8 451,106.1 468.2,109.8 	"/>
	<path class="st0" d="M492.3,111.3c8,0,12-6.9,15.8-14.6l0-0.1l-0.4-1.1l-0.3,0.5c-4,7.7-8.1,11.3-12.8,11.3
		c-10.5,0-18.1-16.6-18.1-39.5v-0.6l30.3,2l0.3,0l0-0.3c0.4-11.3-2.5-21.7-7.6-26.9c-2.2-2.3-4.7-3.5-7.2-3.5
		c-11,0-18.1,14.7-18.1,37.4C474.2,100.2,483.6,111.3,492.3,111.3z M476.5,66.2c0.5-14,5.8-24.1,12.8-24.1c6.3,0,11.7,7.1,13.9,18.2
		c0.2,0.6,0.3,2.5,0.3,3.6L476.5,66.2z"/>
	<path class="st0" d="M540.1,46.1h0.9v-7.4l-0.2,0c0,0-0.8-0.2-1.3-0.2c0,0,0,0,0,0c-5.4,0.3-10.5,10.3-12.5,20.4V40.3h-11.3v2.9
		h8.3v56.2l-11.2,9.6v1l12.7-3.8l13.6,3.8v-1L527,99.3l0-35.2C529.3,51,532.8,46.1,540.1,46.1z"/>
	<path class="st0" d="M575.5,46.1h0.9v-7.4l-0.2,0c0,0-0.8-0.2-1.3-0.2c0,0,0,0,0,0c-5.4,0.3-10.5,10.3-12.5,20.4V40.3h-11.3v2.9
		h8.3v56.2l-11.2,9.6v1l12.7-3.8l13.6,3.8v-1l-12.1-9.6l0-35.2C564.7,51,568.2,46.1,575.5,46.1z"/>
	<path class="st0" d="M627.8,100.8l0.1-0.1v-0.9l-12.2,2.9V65.8c0-17.3-4.6-27.2-12.6-27.2c-8.4,0-13,9.2-16.1,17.2l0,0.1l0.6,1.3
		l0.2-0.6c3.9-9.9,8.4-14.3,14.4-14.3c6.4,0,10.5,9.3,10.5,23.7v3.7l-25.1,10.5l-0.1,0l0,0.1c-0.9,2.3-1.8,7.3-1.8,11.5
		c0,9.7,3.5,19.4,11.4,19.4c6.5,0,12.8-5.2,15.6-12.9v13.1L627.8,100.8z M599.6,106.2c-5.1,0-12.5-6.4-12.5-17.9
		c0-0.9,0-1.8,0.1-2.5l25.5-15V96C610.5,101.9,605,106.2,599.6,106.2z"/>
</g>
</svg>
