<svg
  version="1.1"
  id="Layer_1"
  xmlns="http://www.w3.org/2000/svg"
  x="0"
  y="0"
  viewBox="0 0 774 148"
  style="enable-background: new 0 0 774 148"
  xml:space="preserve"
>
  <style>
    .st0 {
      fill: #fff;
    }
  </style>
  <path
    class="st0"
    d="M23.4 72.5c-.5-.4-1-.7-1.4-1l-.7-.5C14.4 66 5 59.2 5 46.7c0-14.1 5-21.3 14.7-21.3 7.8 0 14 11.4 16.2 29.7.4 2.7.9 8.5.9 8.6v.2h1.9V23.1h-1L36.3 39c-3.5-7.9-9.6-15.9-16.6-15.9-11.1 0-17.5 9-17.5 24.8 0 15 9.6 22.2 16.6 27.5l.9.6c.4.3.9.7 1.4 1 6.6 4.9 16.7 12.3 16.7 25.2 0 14.8-5.7 23.3-15.5 23.3-10.5 0-18.4-14-19.3-33.9-.2-3.7-.3-6.2-.3-7.2v-.2H.8v43.6h.9l1.6-12.3c4.1 6.2 9.5 12.3 17.8 12.3 9.6 0 19.8-7.1 19.8-27 0-15.7-10.5-23.3-17.5-28.3zM90 80.7C90 65.1 84.8 55 76.7 55c-6.5 0-11.3 6-13.8 16.9V24.6H49.4v2.9H60v88.3l-13.1 9.5-.1.1v1l14.7-3.8 12.4 3.8v-1L63 115.8V75.4c3.6-13.1 7.7-15.8 13.1-15.8 6.7 0 10.9 9.6 10.9 25.2v31l-10.3 9.6v1l11.8-3.8 15 3.7.3.1v-1L90 115.8V80.7zM126.5 27.7c0-2.8-1.1-4.6-2.8-4.6-1.6 0-2.8 2-2.8 4.6 0 2.6 1.2 4.6 2.8 4.6 1.7 0 2.8-1.8 2.8-4.6zM125.4 56.8h-14.5v2.8h11.4v56.2l-15.3 9.5-.1.1v.9l17-3.7 17.2 3.7h.3v-.9l-16-9.6zM171.1 55.1c-5.4.3-10.5 10.3-12.5 20.4V56.8h-11.3v2.9h8.3v56.2l-11.2 9.6v1l12.7-3.8 13.6 3.8v-1l-12.1-9.6V80.7c2.3-13.1 5.8-18 13.1-18h.9v-7.4h-.2c0-.1-.8-.2-1.3-.2zM212 82.3c0-17.3-4.6-27.2-12.6-27.2-8.4 0-13 9.2-16.1 17.2v.1l.6 1.3.2-.6c4-10 8.3-14.3 14.4-14.3 6.4 0 10.5 9.3 10.5 23.7v3.7l-25.1 10.5h-.1v.1c-.9 2.3-1.8 7.3-1.8 11.5 0 9.7 3.5 19.4 11.4 19.4 6.5 0 12.8-5.2 15.6-12.9V128l15.1-10.7.1-.1v-.9l-12.2 2.9V82.3zm-16.2 40.4c-5.1 0-12.5-6.4-12.5-17.9 0-.9 0-1.8.1-2.5l25.5-15v25.3c-2.2 5.8-7.7 10.1-13.1 10.1zM305.1 24.5v1l14.4 8.9-9.6 80.5-17.1-98.2h-.9l-14.5 98.2-11.6-80.7 14.4-8.7v-1l-16.3 3.8-13.9-3.8v1l12.2 8.8 13.6 95.1v.2h.9l14.7-98.5 17.4 98.3v.2h.9l11.4-95.2 14.1-8.8.1-.1v-1l-14.9 3.8zM369 82.3c0-17.3-4.6-27.2-12.6-27.2-8.4 0-13 9.2-16.1 17.2v.1l.6 1.3.2-.6c4-10 8.3-14.3 14.4-14.3 6.4 0 10.5 9.3 10.5 23.7v3.7l-25.1 10.5h-.1v.1c-.9 2.3-1.8 7.3-1.8 11.5 0 9.7 3.5 19.4 11.4 19.4 6.5 0 12.8-5.2 15.6-12.9V128l15.1-10.7.1-.1v-.9l-12.2 2.9V82.3zm-16.1 40.4c-5.1 0-12.5-6.4-12.5-17.9 0-.9 0-1.8.1-2.5l25.5-15v25.3c-2.3 5.8-7.8 10.1-13.1 10.1zM418.9 112.4c-3.7 7.5-7.8 11-12.6 11-11 0-18.3-15.7-18.3-39.1 0-15.2 6.2-27 14.1-27 9.4 0 12.6 15.7 13.7 25 .3 2.5.3 6 .3 6v.2h2.4V49.2h-1l-1.8 16.3c-1.8-3.7-5.8-10.4-12.2-10.4-10.9 0-18 14.7-18 37.4 0 24.2 9.4 35.3 18.2 35.3 8 0 12-6.9 15.8-14.6v-.1l-.4-1.1-.2.4zM467.5 80.7c0-15.6-5.2-25.7-13.3-25.7-6.5 0-11.3 6-13.8 16.9V24.6h-13.6v2.9h10.6v88.3l-13.1 9.5-.1.1v1l14.7-3.8 12.4 3.8v-1l-10.9-9.6V75.4c3.7-13.1 7.7-15.8 13.1-15.8 6.7 0 10.9 9.6 10.9 25.2v31l-10.3 9.6v1l11.8-3.8 15 3.7.3.1v-1l-13.8-9.6V80.7zM505.1 89.6c-.3-.2-.7-.4-1-.6l-1-.6c-5.1-3.1-12.8-7.7-13.9-14.7-.7-4.6.5-9.4 3.1-12.4 1.9-2.2 4.5-3.4 7.4-3.4 6.4 0 12.8 9.1 14.1 20l.7 6.1h2.1l-1.3-28.6h-.9l-1.2 8.5c-3-4.1-7.3-8.7-11.9-8.7-7 0-14.1 6.4-14.1 18.8 0 10.3 6.7 14.5 12 17.9.6.3 1.1.7 1.6 1 .4.2.8.5 1.2.7 4.9 3 12.2 7.6 13.2 15.8.6 5.1-.5 9.7-3.2 12.7-1.8 2.1-4.3 3.2-7.1 3.2-8.4 0-14.7-10-15.6-24.8-.2-2.3-.2-4.2-.2-5V95H487l-.6 32.3h.9l2-9.5c2.9 4.8 7.1 10 13.4 10 7.1 0 14.7-6.3 14.7-20.1.3-10.4-7.3-15.1-12.3-18.1zM594 80.7c0-15.6-5.2-25.7-13.3-25.7-6.7 0-12 6.5-14.3 17.6-1.6-11-6.3-17.6-12.8-17.6-6.5 0-11.3 6-13.8 16.9V56.8h-13.6v2.9h10.6v56.2l-13.1 9.5-.1.1v1l14.7-3.8 12.4 3.8v-1l-10.9-9.6V75.4c3.6-13.1 7.7-15.8 13.1-15.8 6.7 0 10.9 9.6 10.9 25.2v31l-10.3 9.6v1l11.8-3.8 12.3 3.8v-1l-10.8-9.6V80.7c0-2-.1-4.1-.3-5.9 3.6-12.8 7.7-15.3 13.5-15.3 6.7 0 10.9 9.6 10.9 25.2v31l-10.3 9.6v1l11.8-3.8 15 3.7.3.1v-1l-13.8-9.6v-35zM643.2 82.3c0-17.3-4.6-27.2-12.6-27.2-8.4 0-13 9.2-16.1 17.2v.1l.6 1.3.2-.6c3.9-9.9 8.4-14.3 14.4-14.3 6.4 0 10.5 9.3 10.5 23.7v3.7L615 96.7h-.1v.1c-.9 2.3-1.8 7.3-1.8 11.5 0 9.7 3.5 19.4 11.4 19.4 6.5 0 12.8-5.2 15.6-12.9V128l15.2-10.8v-.9l-12.2 2.9V82.3zM627 122.7c-5.1 0-12.5-6.4-12.5-17.9 0-.9 0-1.8.1-2.5l25.5-15v25.3c-2.2 5.8-7.7 10.1-13.1 10.1zM700.5 80.7c0-15.6-5.2-25.7-13.3-25.7-6.5 0-11.3 6-13.8 16.9V56.8h-13.6v2.9h10.6v56.2l-13.1 9.5-.1.1v1l14.7-3.8 12.4 3.8v-1l-10.9-9.6V75.4c3.7-13.1 7.7-15.8 13.1-15.8 6.7 0 10.9 9.6 10.9 25.2v31l-10.3 9.6v1l11.8-3.8 15 3.7.3.1v-1l-13.8-9.6V80.7zM759.5 80.7c0-15.6-5.2-25.7-13.3-25.7-6.5 0-11.3 6-13.8 16.9V56.8h-13.6v2.9h10.6v56.2l-13.1 9.5-.1.1v1l14.7-3.8 12.4 3.8v-1l-10.9-9.6V75.4c3.7-13.1 7.7-15.8 13.1-15.8 6.7 0 10.9 9.6 10.9 25.2v31l-10.3 9.6v1l11.8-3.8 15 3.7.3.1v-1l-13.8-9.6V80.7z"
  />
</svg>
