<?xml version="1.0" encoding="utf-8"?>
<!-- Generator: Adobe Illustrator 25.2.1, SVG Export Plug-In . SVG Version: 6.00 Build 0)  -->
<svg version="1.1" id="Layer_1" xmlns="http://www.w3.org/2000/svg" xmlns:xlink="http://www.w3.org/1999/xlink" x="0px" y="0px"
	 viewBox="0 0 774 148" style="enable-background:new 0 0 774 148;" xml:space="preserve">
<style type="text/css">
	.st0{fill:#FFFFFF;}
	.st1{fill:#C9CA9E;}
	.st2{fill:#FF0000;}
</style>
<g>
	<path class="st0" d="M23.4,72.5c-0.5-0.4-1-0.7-1.4-1L21.3,71C14.4,66,5,59.2,5,46.7c0-14.1,5-21.3,14.7-21.3
		c7.8,0,14,11.4,16.2,29.7c0.4,2.7,0.9,8.5,0.9,8.6l0,0.2h1.9V23.1h-1L36.3,39c-3.5-7.9-9.6-15.9-16.6-15.9
		c-11.1,0-17.5,9-17.5,24.8c0,15,9.6,22.2,16.6,27.5l0.9,0.6c0.4,0.3,0.9,0.7,1.4,1c6.6,4.9,16.7,12.3,16.7,25.2
		c0,14.8-5.7,23.3-15.5,23.3c-10.5,0-18.4-14-19.3-33.9c-0.2-3.7-0.3-6.2-0.3-7.2v-0.2H0.8v43.6h0.9l1.6-12.3
		c4.1,6.2,9.5,12.3,17.8,12.3c9.6,0,19.8-7.1,19.8-27C40.9,85.1,30.4,77.5,23.4,72.5z"/>
	<path class="st0" d="M90,80.7c0-15.6-5.2-25.7-13.3-25.7c-6.5,0-11.3,6-13.8,16.9V24.6H49.4v2.9H60v88.3l-13.1,9.5l-0.1,0.1v1
		l14.7-3.8l12.4,3.8v-1L63,115.8V75.4c3.6-13.1,7.7-15.8,13.1-15.8c6.7,0,10.9,9.6,10.9,25.2v31l-10.3,9.6v1l11.8-3.8l15,3.7
		l0.3,0.1v-1L90,115.8V80.7z"/>
	<path class="st0" d="M126.5,27.7c0-2.8-1.1-4.6-2.8-4.6c-1.6,0-2.8,2-2.8,4.6c0,2.6,1.2,4.6,2.8,4.6
		C125.4,32.3,126.5,30.5,126.5,27.7z"/>
	<polygon class="st0" points="125.4,56.8 110.9,56.8 110.9,59.6 122.3,59.6 122.3,115.8 107,125.3 106.9,125.4 106.9,126.3 
		123.9,122.6 141.1,126.3 141.4,126.3 141.4,125.4 125.4,115.8 	"/>
	<path class="st0" d="M171.1,55.1C171.1,55.1,171.1,55.1,171.1,55.1c-5.4,0.3-10.5,10.3-12.5,20.4V56.8h-11.3v2.9h8.3v56.2
		l-11.2,9.6v1l12.7-3.8l13.6,3.8v-1l-12.1-9.6l0-35.2c2.3-13.1,5.8-18,13.1-18h0.9v-7.4l-0.2,0C172.4,55.2,171.6,55.1,171.1,55.1z"
		/>
	<path class="st0" d="M212,82.3c0-17.3-4.6-27.2-12.6-27.2c-8.4,0-13,9.2-16.1,17.2l0,0.1l0.6,1.3l0.2-0.6c4-10,8.3-14.3,14.4-14.3
		c6.4,0,10.5,9.3,10.5,23.7v3.7l-25.1,10.5l-0.1,0l0,0.1c-0.9,2.3-1.8,7.3-1.8,11.5c0,9.7,3.5,19.4,11.4,19.4
		c6.5,0,12.8-5.2,15.6-12.9V128l15.1-10.7l0.1-0.1v-0.9l-12.2,2.9V82.3z M195.8,122.7c-5.1,0-12.5-6.4-12.5-17.9
		c0-0.9,0-1.8,0.1-2.5l25.5-15v25.3C206.7,118.4,201.2,122.7,195.8,122.7z"/>
	<polygon class="st0" points="305.1,24.5 305.1,25.5 319.5,34.4 309.9,114.9 292.8,16.7 291.9,16.7 277.4,114.9 265.8,34.2 
		280.2,25.5 280.2,24.5 263.9,28.3 250,24.5 250,25.5 262.2,34.3 275.8,129.4 275.8,129.6 276.7,129.6 291.4,31.1 308.8,129.4 
		308.8,129.6 309.7,129.6 321.1,34.4 335.2,25.6 335.3,25.5 335.3,24.5 320.4,28.3 	"/>
	<path class="st0" d="M369,82.3c0-17.3-4.6-27.2-12.6-27.2c-8.4,0-13,9.2-16.1,17.2l0,0.1l0.6,1.3l0.2-0.6c4-10,8.3-14.3,14.4-14.3
		c6.4,0,10.5,9.3,10.5,23.7v3.7l-25.1,10.5l-0.1,0l0,0.1c-0.9,2.3-1.8,7.3-1.8,11.5c0,9.7,3.5,19.4,11.4,19.4
		c6.5,0,12.8-5.2,15.6-12.9V128l15.1-10.7l0.1-0.1v-0.9l-12.2,2.9V82.3z M352.9,122.7c-5.1,0-12.5-6.4-12.5-17.9
		c0-0.9,0-1.8,0.1-2.5l25.5-15v25.3C363.7,118.4,358.2,122.7,352.9,122.7z"/>
	<path class="st0" d="M418.9,112.4c-3.7,7.5-7.8,11-12.6,11c-11,0-18.3-15.7-18.3-39.1c0-15.2,6.2-27,14.1-27
		c9.4,0,12.6,15.7,13.7,25c0.3,2.5,0.3,6,0.3,6v0.2h2.4V49.2h-1l-1.8,16.3c-1.8-3.7-5.8-10.4-12.2-10.4c-10.9,0-18,14.7-18,37.4
		c0,24.2,9.4,35.3,18.2,35.3c8,0,12-6.9,15.8-14.6l0-0.1l-0.4-1.1L418.9,112.4z"/>
	<path class="st0" d="M467.5,80.7c0-15.6-5.2-25.7-13.3-25.7c-6.5,0-11.3,6-13.8,16.9V24.6h-13.6v2.9h10.6v88.3l-13.1,9.5l-0.1,0.1
		v1l14.7-3.8l12.4,3.8v-1l-10.9-9.6V75.4c3.7-13.1,7.7-15.8,13.1-15.8c6.7,0,10.9,9.6,10.9,25.2v31l-10.3,9.6v1l11.8-3.8l15,3.7
		l0.3,0.1v-1l-13.8-9.6V80.7z"/>
	<path class="st0" d="M505.1,89.6c-0.3-0.2-0.7-0.4-1-0.6l-1-0.6c-5.1-3.1-12.8-7.7-13.9-14.7c-0.7-4.6,0.5-9.4,3.1-12.4
		c1.9-2.2,4.5-3.4,7.4-3.4c6.4,0,12.8,9.1,14.1,20l0.7,6.1h2.1l-1.3-28.6h-0.9l-1.2,8.5c-3-4.1-7.3-8.7-11.9-8.7
		c-7,0-14.1,6.4-14.1,18.8c0,10.3,6.7,14.5,12,17.9c0.6,0.3,1.1,0.7,1.6,1c0.4,0.2,0.8,0.5,1.2,0.7c4.9,3,12.2,7.6,13.2,15.8
		c0.6,5.1-0.5,9.7-3.2,12.7c-1.8,2.1-4.3,3.2-7.1,3.2c-8.4,0-14.7-10-15.6-24.8c-0.2-2.3-0.2-4.2-0.2-5V95h-2.1l-0.6,32.3h0.9l2-9.5
		c2.9,4.8,7.1,10,13.4,10c7.1,0,14.7-6.3,14.7-20.1C517.7,97.3,510.1,92.6,505.1,89.6z"/>
	<path class="st0" d="M594,80.7c0-15.6-5.2-25.7-13.3-25.7c-6.7,0-12,6.5-14.3,17.6c-1.6-11-6.3-17.6-12.8-17.6
		c-6.5,0-11.3,6-13.8,16.9V56.8h-13.6v2.9h10.6v56.2l-13.1,9.5l-0.1,0.1v1l14.7-3.8l12.4,3.8v-1l-10.9-9.6V75.4
		c3.6-13.1,7.7-15.8,13.1-15.8c6.7,0,10.9,9.6,10.9,25.2v31l-10.3,9.6v1l11.8-3.8l12.3,3.8v-1l-10.8-9.6V80.7c0-2-0.1-4.1-0.3-5.9
		c3.6-12.8,7.7-15.3,13.5-15.3c6.7,0,10.9,9.6,10.9,25.2v31l-10.3,9.6v1l11.8-3.8l15,3.7l0.3,0.1v-1l-13.8-9.6V80.7z"/>
	<path class="st0" d="M643.2,82.3c0-17.3-4.6-27.2-12.6-27.2c-8.4,0-13,9.2-16.1,17.2l0,0.1l0.6,1.3l0.2-0.6
		c3.9-9.9,8.4-14.3,14.4-14.3c6.4,0,10.5,9.3,10.5,23.7v3.7L615,96.7l-0.1,0l0,0.1c-0.9,2.3-1.8,7.3-1.8,11.5
		c0,9.7,3.5,19.4,11.4,19.4c6.5,0,12.8-5.2,15.6-12.9V128l15.2-10.8v-0.9l-12.2,2.9V82.3z M627,122.7c-5.1,0-12.5-6.4-12.5-17.9
		c0-0.9,0-1.8,0.1-2.5l25.5-15v25.3C637.9,118.4,632.4,122.7,627,122.7z"/>
	<path class="st0" d="M700.5,80.7c0-15.6-5.2-25.7-13.3-25.7c-6.5,0-11.3,6-13.8,16.9V56.8h-13.6v2.9h10.6v56.2l-13.1,9.5l-0.1,0.1
		v1l14.7-3.8l12.4,3.8v-1l-10.9-9.6V75.4c3.7-13.1,7.7-15.8,13.1-15.8c6.7,0,10.9,9.6,10.9,25.2v31l-10.3,9.6v1l11.8-3.8l15,3.7
		l0.3,0.1v-1l-13.8-9.6V80.7z"/>
	<path class="st0" d="M759.5,80.7c0-15.6-5.2-25.7-13.3-25.7c-6.5,0-11.3,6-13.8,16.9V56.8h-13.6v2.9h10.6v56.2l-13.1,9.5l-0.1,0.1
		v1l14.7-3.8l12.4,3.8v-1l-10.9-9.6V75.4c3.7-13.1,7.7-15.8,13.1-15.8c6.7,0,10.9,9.6,10.9,25.2v31l-10.3,9.6v1l11.8-3.8l15,3.7
		l0.3,0.1v-1l-13.8-9.6V80.7z"/>
</g>
</svg>
