<?xml version="1.0" encoding="utf-8"?>
<!-- Generator: Adobe Illustrator 25.2.1, SVG Export Plug-In . SVG Version: 6.00 Build 0)  -->
<svg version="1.1" id="Layer_1" xmlns="http://www.w3.org/2000/svg" xmlns:xlink="http://www.w3.org/1999/xlink" x="0px" y="0px"
	 viewBox="0 0 249 144" style="enable-background:new 0 0 249 144;" xml:space="preserve">
<style type="text/css">
	.st0{fill:#FFFFFF;}
	.st1{fill:#C9CA9E;}
</style>
<g>
	<path d="M52.8,18.8c0-2.8-1.1-4.6-2.8-4.6c-1.6,0-2.8,2-2.8,4.6c0,2.6,1.2,4.6,2.8,4.6C51.6,23.4,52.8,21.5,52.8,18.8z"/>
	<path d="M71.2,18.8c0-2.8-1.1-4.6-2.8-4.6c-1.6,0-2.8,2-2.8,4.6c0,2.6,1.2,4.6,2.8,4.6C70.1,23.4,71.2,21.5,71.2,18.8z"/>
	<path d="M58.9,132.3c13.5,0,19.8-14.6,19.8-45.9v-46l14.2-10.4L93,30v-1l-15.1,3.8L64.1,29v1L77,40.4v50.9
		c0,17.4-4.7,35.9-17.9,35.9c-11.7,0-18.7-13.4-18.7-35.9V39.4l14.1-9.4l0.1-0.1v-1l-15.8,3.8L24.3,29v1l12.8,9.4v52.4
		C37.2,118.3,44.7,132.3,58.9,132.3z"/>
	<path d="M101.9,125.8c4.4,4.1,7.9,6.5,12.6,6.5c5.9,0,11-3.9,14.9-11.3c3.6-6.9,5.7-16.3,6-26.5c0.4-13.1-3.2-25.8-9-31.7
		c-2.1-2.2-4.3-3.2-6.7-3.2c-8.3,0-13.1,8.9-14.9,13.1V29.1h-8.1v2.7h5.1L101.9,125.8L101.9,125.8z M116.7,64.1
		c9.8,0,15.9,13.8,15.9,36.1c0,16.7-6.4,28.9-15.3,28.9c-4.9,0-9.6-3.1-12.5-8.4V75C106.5,70.9,110.2,64.1,116.7,64.1z"/>
	<path d="M178,116.9c-4,7.7-8.1,11.3-12.8,11.3c-10.5,0-18.1-16.6-18.1-39.5v-0.6l30.3,2l0.3,0l0-0.3C178,78.6,175,68.3,170,63
		c-2.2-2.3-4.7-3.5-7.2-3.5c-11,0-18.1,14.7-18.1,37.4c0,24.2,9.4,35.3,18.2,35.3c8,0,12-6.9,15.8-14.6l0-0.1l-0.4-1.1L178,116.9z
		 M147.1,87.2c0.5-14,5.8-24.1,12.8-24.1c6.3,0,11.7,7.1,13.9,18.2c0.2,0.6,0.3,2.5,0.3,3.6L147.1,87.2z"/>
	<path d="M209.6,130.8v-1l-12.1-9.6l0-35.2c2.3-13.1,5.8-18,13.1-18h0.9v-7.4l-0.2,0c0,0-0.8-0.2-1.3-0.2c0,0,0,0,0,0
		c-5.4,0.3-10.5,10.3-12.5,20.4V61.3h-11.3v2.9h8.3v56.2l-11.2,9.6v1l12.7-3.8L209.6,130.8z"/>
</g>
</svg>
