<?xml version="1.0" encoding="utf-8"?>
<!-- Generator: Adobe Illustrator 25.2.1, SVG Export Plug-In . SVG Version: 6.00 Build 0)  -->
<svg version="1.1" id="Layer_1" xmlns="http://www.w3.org/2000/svg" xmlns:xlink="http://www.w3.org/1999/xlink" x="0px" y="0px"
	 viewBox="0 0 498 159" style="enable-background:new 0 0 498 159;" xml:space="preserve">
<style type="text/css">
	.st0{clip-path:url(#SVGID_2_);}
	.st1{clip-path:url(#SVGID_4_);}
	.st2{clip-path:url(#SVGID_6_);fill:none;stroke:#C9CA9E;stroke-width:8.414;stroke-miterlimit:10;}
	.st3{fill:#000;}
	.st4{fill:#C9CA9E;}
</style>
<g>
	<path class="st3" d="M52.8,10.6l-18.9,95.3l-13.2,9.9v1l13.2-3.8l13.9,3.7l0.3,0.1v-1L35.6,106l6.2-31h22l6.9,31L58,115.9v1
		l14.3-3.8l14.1,3.8v-1l-12.4-10L52.8,10.6z M63.3,73H42.2l9.9-50.4L63.3,73z"/>
	<path class="st3" d="M124,47.3h-10.4v2.9h7.4V98c-3.6,13.1-7.7,15.8-13.1,15.8c-5.9,0-9.7-9-9.7-22.8V47.3H88v2.9h7.2v42.5
		c0,15.8,4.6,25.7,12,25.7c6.5,0,11.3-6,13.8-16.9v15.5l13.5-8.7l0.1-0.1v-0.9L124,109V47.3z"/>
	<path class="st3" d="M159.4,80.1c-0.3-0.2-0.7-0.4-1-0.6l-1-0.6c-5.1-3.1-12.8-7.7-13.9-14.7c-0.7-4.6,0.5-9.4,3.1-12.4
		c1.9-2.2,4.5-3.4,7.4-3.4c6.4,0,12.8,9.1,14.1,20l0.7,6.1h2.1l-1.3-28.6h-0.9l-1.2,8.5c-3-4.1-7.3-8.7-11.9-8.7
		c-7,0-14.1,6.4-14.1,18.8c0,10.3,6.7,14.5,12,17.9c0.6,0.3,1.1,0.7,1.6,1c0.4,0.2,0.8,0.5,1.2,0.7c4.9,3,12.2,7.6,13.2,15.8
		c0.6,5.1-0.5,9.7-3.2,12.7c-1.8,2.1-4.3,3.2-7.1,3.2c-8.4,0-14.7-10-15.6-24.8c-0.2-2.3-0.2-4.2-0.2-5v-0.2h-2.1l-0.6,32.1l0,0.3
		h0.9l2.1-9.5c2.9,4.8,7.1,10,13.4,10c7.1,0,14.7-6.3,14.7-20.1C172.1,87.8,164.5,83.1,159.4,80.1z"/>
	<path class="st3" d="M203.5,112.2h-10.3l9.8-6.8c6.8-4.7,11-16,11-29.5c0-10.7-3.7-21-9.3-25.8h8.9v-2.9h-15.9
		c-10.4,0-17.4,12.4-17.4,30.9c0,18.1,8.8,28.9,17.4,28.9c0.1,0,0.3,0,0.5,0l-13.6,8.8l-0.1,0.1v0.9h17.7c6.6,0,10.7,5,10.7,13
		c0,8.7-6.6,16.9-13.6,16.9c-5.4,0-10.5-2.2-15.4-6.8l-0.4-0.4v1.5l0.1,0.1c0.5,0.4,1,0.9,1.5,1.3c3.5,3.2,7.2,6.5,15.2,6.5
		c9.3,0,16.1-8.7,16.1-20.6C216.4,117.9,209.7,112.2,203.5,112.2z M199.1,105c-8.4,0-15.8-15.5-15.8-33.2c0-13,5-22.5,11.9-22.5
		c7.8,0,16.1,13.2,16.1,32.9C211.3,91.7,206.6,105,199.1,105z"/>
	<path class="st3" d="M257.9,102.9c-4,7.7-8.1,11.3-12.8,11.3c-10.5,0-18.1-16.6-18.1-39.5v-0.6l30.3,2l0.3,0l0-0.3
		c0.4-11.3-2.5-21.7-7.6-26.9c-2.2-2.3-4.7-3.5-7.2-3.5c-11,0-18.1,14.7-18.1,37.4c0,24.2,9.4,35.3,18.2,35.3c8,0,12-6.9,15.8-14.6
		l0-0.1l-0.4-1.1L257.9,102.9z M227,73.2c0.5-14,5.8-24.1,12.8-24.1c6.3,0,11.7,7.1,13.9,18.2c0.2,0.6,0.3,2.5,0.3,3.6L227,73.2z"/>
	<path class="st3" d="M306.5,71.2c0-15.6-5.2-25.7-13.3-25.7c-6.5,0-11.3,6-13.8,16.9V15.1h-13.6V18h10.6v88.3l-13.1,9.5l-0.1,0.1v1
		l14.7-3.8l12.4,3.8v-1l-10.9-9.6V65.9c3.6-13.1,7.7-15.8,13.1-15.8c6.7,0,10.9,9.6,10.9,25.2v31l-10.3,9.6v1l11.8-3.8l15,3.7
		l0.3,0.1v-1l-13.8-9.6V71.2z"/>
	<path class="st3" d="M359.3,102.9c-4,7.7-8.1,11.3-12.8,11.3c-10.5,0-18.1-16.6-18.1-39.5v-0.6l30.3,2l0.3,0l0-0.3
		c0.4-11.3-2.5-21.7-7.6-26.9c-2.2-2.3-4.7-3.5-7.2-3.5c-11,0-18.1,14.7-18.1,37.4c0,24.2,9.4,35.3,18.2,35.3c8,0,12-6.9,15.8-14.6
		l0-0.1l-0.4-1.1L359.3,102.9z M328.3,73.2c0.5-14,5.8-24.1,12.8-24.1c6.3,0,11.7,7.1,13.9,18.2c0.2,0.6,0.3,2.5,0.3,3.6L328.3,73.2
		z"/>
	<path class="st3" d="M407.9,71.2c0-15.6-5.2-25.7-13.3-25.7c-6.5,0-11.3,6-13.8,16.9V47.3h-13.6v2.9h10.6v56.2l-13.1,9.5l-0.1,0.1
		v1l14.7-3.8l12.4,3.8v-1l-10.9-9.6V65.9c3.6-13.1,7.7-15.8,13.1-15.8c6.7,0,10.9,9.6,10.9,25.2v31l-10.3,9.6v1l11.8-3.8l15,3.7
		l0.3,0.1v-1l-13.8-9.6V71.2z"/>
	<path class="st3" d="M459.5,15.1h-11.8v2.7h8.8v31.7c-3-2.6-6.3-3.9-9.7-3.9c-13,0-20.3,19.1-20.9,37.9c-0.4,13,3.2,25.7,8.9,31.5
		c2.1,2.2,4.4,3.3,6.7,3.3c8.4,0,13.1-8.8,14.9-12.9V117l13.9-9.7l0.1-0.1v-1l-11,2.7V15.1z M444.5,113.9
		c-9.8,0-15.9-13.8-15.9-36.1c0-16.7,6.4-28.9,15.3-28.9c4.9,0,9.6,3.1,12.5,8.4V103C454.8,107.1,451,113.9,444.5,113.9z"/>
</g>
</svg>
