<?xml version="1.0" encoding="utf-8"?>
<!-- Generator: Adobe Illustrator 25.2.1, SVG Export Plug-In . SVG Version: 6.00 Build 0)  -->
<svg version="1.1" id="Layer_1" xmlns="http://www.w3.org/2000/svg" xmlns:xlink="http://www.w3.org/1999/xlink" x="0px" y="0px"
	 viewBox="0 0 687 148" style="enable-background:new 0 0 687 148;" xml:space="preserve">
<style type="text/css">
	.st0{fill:#FFFFFF;}
	.st1{fill:#C9CA9E;}
</style>
<g>
	<path d="M55.1,8.8l-0.3-1.2l-18.9,95.3l-13.2,9.9v1l13.2-3.8l13.9,3.7l0.3,0.1v-1L37.6,103l6.2-31h22l6.9,31L60,112.9v1l14.3-3.8
		l14.1,3.8v-1l-12.4-10L55.1,8.8z M65.3,70H44.2l9.9-50.4L65.3,70z"/>
	<path d="M126,44.3h-10.4v2.9h7.4V95c-3.6,13.1-7.7,15.8-13.1,15.8c-5.9,0-9.7-9-9.7-22.8V44.3H90v2.9h7.2v42.5
		c0,15.8,4.6,25.7,12,25.7c6.5,0,11.3-6,13.8-16.9v15.5l13.5-8.7l0.1-0.1v-0.9L126,106V44.3z"/>
	<path d="M161.4,77.1c-0.3-0.2-0.7-0.4-1-0.6l-1-0.6c-5.1-3.1-12.8-7.7-13.9-14.7c-0.7-4.6,0.5-9.4,3.1-12.4
		c1.9-2.2,4.5-3.4,7.4-3.4c6.4,0,12.8,9.1,14.1,20l0.7,6.1h2.1l-1.3-28.6h-0.9l-1.2,8.5c-3-4.1-7.3-8.7-11.9-8.7
		c-7,0-14.1,6.4-14.1,18.8c0,10.3,6.7,14.5,12,17.9c0.6,0.3,1.1,0.7,1.6,1c0.4,0.2,0.8,0.5,1.2,0.7c4.9,3,12.2,7.6,13.2,15.8
		c0.6,5.1-0.5,9.7-3.2,12.7c-1.8,2.1-4.3,3.2-7.1,3.2c-8.4,0-14.7-10-15.6-24.8c-0.2-2.3-0.2-4.2-0.2-5v-0.2h-2.1l-0.6,32.3h0.9
		l2-9.5c2.9,4.8,7.1,10,13.4,10c7.1,0,14.7-6.3,14.7-20.1C174.1,84.8,166.5,80.1,161.4,77.1z"/>
	<path d="M200.5,77.1c-0.3-0.2-0.7-0.4-1-0.6l-1-0.6c-5.1-3.1-12.8-7.7-13.9-14.7c-0.7-4.6,0.5-9.4,3.1-12.4
		c1.9-2.2,4.5-3.4,7.4-3.4c6.4,0,12.8,9.1,14.1,20l0.7,6.1h2.1l-1.3-28.6h-0.9l-1.2,8.5c-3-4.1-7.3-8.7-11.9-8.7
		c-7,0-14.1,6.4-14.1,18.8c0,10.3,6.7,14.5,12,17.9c0.6,0.3,1.1,0.7,1.6,1c0.4,0.2,0.8,0.5,1.2,0.7c4.9,3,12.2,7.6,13.2,15.8
		c0.6,5.1-0.5,9.7-3.2,12.7c-1.8,2.1-4.3,3.2-7.1,3.2c-8.4,0-14.7-10-15.6-24.8c-0.2-2.3-0.2-4.2-0.2-5v-0.2h-2.1l-0.6,32.3h0.9
		l2-9.5c2.9,4.8,7.1,10,13.4,10c7.1,0,14.7-6.3,14.7-20.1C213.1,84.8,205.5,80.1,200.5,77.1z"/>
	<path d="M246.4,107.5c-1.2,2-3.4,4.4-7.7,4.4c-4.5,0-7.2-7.5-7.2-19.9V48.8l11.4,1.3v-5.9l-11.4,1V27.6h-3v18l-9.7,0.8v1l9.7,1.2
		v42.7c0,15.9,3.3,24,9.7,24c4.5,0,7.2-4,8.9-7l0.1-0.1l-0.4-1.1L246.4,107.5z"/>
	<path d="M287.6,99.9c-4,7.7-8.1,11.3-12.8,11.3c-10.5,0-18.1-16.6-18.1-39.5v-0.6l30.3,2l0.3,0l0-0.3c0.4-11.3-2.5-21.7-7.6-26.9
		c-2.2-2.3-4.7-3.5-7.2-3.5c-11,0-18.1,14.7-18.1,37.4c0,24.2,9.4,35.3,18.2,35.3c8,0,12-6.9,15.8-14.6l0-0.1l-0.4-1.1L287.6,99.9z
		 M256.7,70.2c0.5-14,5.8-24.1,12.8-24.1c6.3,0,11.7,7.1,13.9,18.2c0.2,0.6,0.3,2.5,0.3,3.6L256.7,70.2z"/>
	<polygon points="311.5,12.1 296.9,12.1 296.9,14.8 308.4,14.8 308.4,103.3 293.1,112.8 293,112.9 293,113.8 309.9,110.1 
		327.2,113.8 327.5,113.8 327.5,112.9 311.5,103.3 	"/>
	<polygon points="349,12.1 334.4,12.1 334.4,14.8 346,14.8 346,103.3 330.6,112.8 330.5,112.9 330.5,113.8 347.5,110.1 364.8,113.8 
		365.1,113.8 365.1,112.9 349,103.3 	"/>
	<path d="M404.2,44.3h-10.4v2.9h7.4V95c-3.6,13.1-7.7,15.8-13.1,15.8c-5.9,0-9.7-9-9.7-22.8V44.3h-10.2v2.9h7.2v42.5
		c0,15.8,4.6,25.7,12,25.7c6.5,0,11.3-6,13.8-16.9v15.5l13.5-8.7l0.1-0.1v-0.9l-10.6,1.9V44.3z"/>
	<path d="M462.2,68.2c0-15.6-5.2-25.7-13.3-25.7c-6.5,0-11.3,6-13.8,16.9V44.3h-13.6v2.9h10.6v56.2l-13.1,9.5l-0.1,0.1v1l14.7-3.8
		l12.4,3.8v-1l-10.9-9.6V62.9c3.7-13.1,7.7-15.8,13.1-15.8c6.7,0,10.9,9.6,10.9,25.2v31l-10.3,9.6v1l11.8-3.8l15,3.7l0.3,0.1v-1
		l-13.8-9.6V68.2z"/>
	<path d="M503.7,109.2h-10.3l9.8-6.8c6.8-4.7,11-16,11-29.5c0-10.7-3.7-21-9.3-25.8h8.9v-2.9h-15.9c-10.4,0-17.4,12.4-17.4,30.9
		c0,18.1,8.8,28.9,17.4,28.9c0.1,0,0.3,0,0.5,0l-13.6,8.8l-0.1,0.1v0.9h17.7c6.6,0,10.7,5,10.7,13c0,8.7-6.6,16.9-13.6,16.9
		c-5.4,0-10.5-2.2-15.4-6.8l-0.4-0.4v1.5l0.1,0.1c0.5,0.4,1,0.9,1.5,1.3c3.5,3.2,7.2,6.5,15.2,6.5c9.3,0,16.1-8.7,16.1-20.6
		C516.6,114.9,509.9,109.2,503.7,109.2z M499.3,102c-8.4,0-15.8-15.5-15.8-33.2c0-13,5-22.5,11.9-22.5c7.8,0,16.1,13.2,16.1,32.9
		C511.5,88.7,506.8,102,499.3,102z"/>
	<path d="M542.9,77.1c-0.3-0.2-0.7-0.4-1-0.6l-1-0.6c-5.1-3.1-12.8-7.7-13.9-14.7c-0.7-4.6,0.5-9.4,3.1-12.4
		c1.9-2.2,4.5-3.4,7.4-3.4c6.4,0,12.8,9.1,14.1,20l0.7,6.1h2.1l-1.3-28.6h-0.9l-1.2,8.5c-3-4.1-7.3-8.7-11.9-8.7
		c-7,0-14.1,6.4-14.1,18.8c0,10.3,6.7,14.5,12,17.9c0.6,0.3,1.1,0.7,1.6,1c0.4,0.2,0.8,0.5,1.2,0.7c4.9,3,12.2,7.6,13.2,15.8
		c0.6,5.1-0.5,9.7-3.2,12.7c-1.8,2.1-4.3,3.2-7.1,3.2c-8.4,0-14.7-10-15.6-24.8c-0.2-2.3-0.2-4.2-0.2-5v-0.2H525l-0.6,32.3h0.9
		l2-9.5c2.9,4.8,7.1,10,13.4,10c7.1,0,14.7-6.3,14.7-20.1C555.6,84.8,548,80.1,542.9,77.1z"/>
	<path d="M583,42.6c-11.5,0-19.2,15-19.2,37.4c0,20.8,7.7,35.3,18.7,35.3c10.2,0,18.4-17.1,18.4-38.1c0-9.1-1.6-17.6-4.6-23.9
		C593.1,46.3,588.5,42.6,583,42.6z M598.4,84.7c0,13.1-5,26.7-13.3,26.7c-11,0-18.9-16.2-18.9-38.6c0-18.4,7.2-26.8,13.9-26.8
		C591.2,45.9,598.4,61.2,598.4,84.7z"/>
	<path d="M633.3,42.6C633.3,42.6,633.3,42.6,633.3,42.6c-5.4,0.3-10.5,10.3-12.5,20.4V44.3h-11.3v2.9h8.3v56.2l-11.2,9.6v1l12.7-3.8
		l13.6,3.8v-1l-12.1-9.6l0-35.2c2.3-13.1,5.8-18,13.1-18h0.9v-7.4l-0.2,0C634.6,42.7,633.9,42.6,633.3,42.6z"/>
	<path d="M669.7,107.5c-1.2,2-3.4,4.4-7.7,4.4c-4.5,0-7.2-7.5-7.2-19.9V48.8l11.4,1.3v-5.9l-11.4,1V27.6h-3v18l-9.7,0.8v1l9.7,1.2
		v42.7c0,15.9,3.3,24,9.7,24c4.5,0,7.2-4,8.9-7l0.1-0.1L670,107L669.7,107.5z"/>
</g>
</svg>
