<svg
  version="1.1"
  id="Layer_1"
  xmlns="http://www.w3.org/2000/svg"
  x="0"
  y="0"
  viewBox="0 0 1183 685"
  style="enable-background: new 0 0 1183 685"
  xml:space="preserve"
>
  <style>
    .st0 {
      fill: #fff;
    }
  </style>
  <path
    class="st0"
    d="M42.7 512.4c3.2 4.8 7.4 9.5 13.9 9.5 7.5 0 15.5-5.6 15.5-21.2 0-12.3-8.3-18.2-13.7-22.1-.4-.3-.8-.6-1.1-.8l-.5-.4c-5.4-3.9-12.7-9.2-12.7-18.9 0-11 3.9-16.6 11.5-16.6 6.1 0 10.9 8.9 12.6 23.2.3 2.1.7 6.6.7 6.7v.2h1.6v-32.1h-.9l-1.1 12.3c-2.8-6.1-7.5-12.3-12.9-12.3-8.7 0-13.7 7.1-13.7 19.4 0 11.7 7.5 17.4 13 21.5l.7.5c.4.3.7.5 1.1.8 5.2 3.8 13 9.6 13 19.6 0 11.5-4.4 18.2-12.1 18.2-8.1 0-14.3-10.9-15-26.5-.2-2.9-.2-4.8-.2-5.6v-.2h-1.6V522h.8l1.1-9.6zm116.1 7.5-.1.9 9.3-3 12 3v-.8l-10.8-7.5v-27.3c0-12.2-4.1-20.1-10.4-20.1-5.2 0-9.3 5-11.2 13.5-1.3-8.5-5-13.5-10-13.5s-8.7 4.5-10.7 12.8v-11.5h-10.8v2.3h8.3v43.8l-10.2 7.4-.1.1v.8l11.6-3 9.8 3v-.8l-8.5-7.5V481c2.8-10.2 6-12.3 10.2-12.3 5.2 0 8.5 7.5 8.5 19.6v24.2l-8 7.4-.1.1v.8l9.3-3 9.7 3v-.8l-8.4-7.5v-27.4c0-1.6-.1-3.2-.2-4.6 2.8-9.9 6-11.9 10.5-11.9 5.2 0 8.5 7.5 8.5 19.6v24.2l-8.2 7.5z"
  />
  <path
    class="st0"
    d="m206.7 544.7-12.9-7.5v-.2h230.5v-6.6H193.8v-11.3c1.6 1.4 4.2 2.9 7.5 2.9 9 0 15.9-12.4 16.4-29.6.3-10.2-2.5-20.2-7-24.8-1.6-1.7-3.4-2.6-5.3-2.6-6.4 0-10.1 6.6-11.6 10v-8.7h-11.1v2.3h8.6v61.7H92.6l13.5-56.2 6.1-7.1.1-.1v-.9l-6.5 3.7-7.6-3.7v.9l6.9 7.1-9.9 41.6L85.1 474l6.4-6.9v-.9l-7.8 3.7-7.6-3.7v.9l6.4 7 11.2 48-2 8.3h-55v6.6H90l-2.1 8.5h1L91 537h100.3v.3l-8.6 7.5v.8l10.1-3 13.9 2.9v-.8zm-3.7-76c7.6 0 12.4 10.8 12.4 28.2 0 13-5 22.5-11.9 22.5-3.8 0-7.5-2.4-9.7-6.5v-35.7c1.3-3.2 4.2-8.5 9.2-8.5z"
  />
  <path
    class="st0"
    d="M238.7 522c8 0 14.5-13.4 14.5-29.8 0-13-4.4-27.1-14.1-27.1-9 0-15.1 11.8-15.1 29.3 0 16.2 6 27.6 14.7 27.6zm12.2-24c0 10.2-3.9 20.8-10.3 20.8-8.5 0-14.7-12.7-14.7-30.1 0-14.4 5.6-20.9 10.8-20.9 8.6 0 14.2 11.9 14.2 30.2zm8.7-1.8-.5 25.4h.8l1.6-7.3c2.3 3.7 5.5 7.7 10.5 7.7 5.6 0 11.6-4.9 11.6-15.8 0-8.1-6-11.8-9.9-14.2-.3-.2-.5-.3-.8-.5l-.8-.5c-4-2.4-10-6-10.8-11.4-.5-3.6.4-7.3 2.4-9.7 1.5-1.7 3.5-2.7 5.8-2.7 5 0 10 7.1 10.9 15.6l.6 4.8h1.8l-1-22.5h-.8l-.9 6.6c-2.3-3.2-5.7-6.7-9.3-6.7-5.5 0-11 5.1-11 14.7 0 8.1 5.2 11.4 9.4 14 .4.3.9.5 1.3.8l.9.6c3.8 2.4 9.5 6 10.3 12.3.5 4-.4 7.6-2.5 9.9-1.4 1.6-3.3 2.5-5.5 2.5-6.5 0-11.4-7.8-12.1-19.4-.2-1.8-.2-3.2-.2-3.9v-.2h-1.8zm55.4 24.6v-.8l-12.6-7.5v-46.1H291v2.3h9v43.8l-12 7.4-.1.1v.8l13.3-2.9zm-11.7-77.1c0-2.2-.9-3.7-2.2-3.7-1.2 0-2.2 1.6-2.2 3.7s1 3.7 2.2 3.7c1.4 0 2.2-1.5 2.2-3.7zm34 22.7v2.3h5.8V506c-2.8 10.2-6 12.3-10.2 12.3-4.6 0-7.5-7-7.5-17.8v-34.2h-8.1v2.3h5.6v33.1c0 12.4 3.6 20.1 9.4 20.1 5 0 8.7-4.5 10.7-12.8v11.7l10.8-6.9v-.8l-8.3 1.4v-48.2h-8.2zm32.5 11.5v-11.5H359v2.3h8.3v43.8l-10.2 7.4-.1.1v.8l11.6-3 9.8 3v-.8l-8.5-7.5V481c2.8-10.2 6-12.3 10.2-12.3 5.2 0 8.5 7.5 8.5 19.6v24.2l-8 7.4-.1.1v.8l9.3-3 9.7 3v-.8l-8.4-7.5v-27.4c0-1.6-.1-3.2-.2-4.6 2.8-9.9 6-11.9 10.5-11.9 5.2 0 8.5 7.5 8.5 19.6v24.2l-8 7.4-.1.1v.8l9.3-3 12 3v-.7l-10.8-7.5v-27.3c0-12.2-4.1-20.1-10.4-20.1-5.2 0-9.3 5-11.2 13.5-1.3-8.5-5-13.5-10-13.5-5.1-.1-8.9 4.5-10.9 12.8zm-316 87.2H53l-16.2 44.2.7.6 13.9-33v61l-14.2 7-.1.1v.8l15.5-2.9 13.8 2.9v-.8l-12.6-7.1zM88 603.6c4.3-3.1 8.5-10.5 8.5-19 0-9.5-3.2-19.6-12.1-19.6-8.7 0-12.6 8.8-12.6 17.6 0 10 4.8 15.5 9.5 19.8-5.6 2.5-11.9 9.5-11.9 21.5 0 14.4 5.6 23 15.1 23 9 0 14.5-10.7 14.5-20.6 0-13.2-6-18.5-11-22.7zm-5.4 0 2 1.7c6 5.2 11.7 10.1 11.7 21.4 0 8.3-4.7 16.8-12.4 16.8-9 0-13.1-10.2-13.1-19.7 0-10.5 6.1-17.8 11.8-20.2zm2.1-3-.4-.4c-5.7-5.3-9.9-9.2-9.9-17.8 0-7.1 3.2-14.3 10.4-14.3 6.1 0 10.5 6.9 10.5 16.3 0 8-4.4 15.5-8.6 18-.7-.5-1.4-1.2-2-1.8zm24.1-.7c-1.2 0-2.2 1.6-2.2 3.7s1 3.7 2.2 3.7c1.3 0 2.2-1.5 2.2-3.7s-.9-3.7-2.2-3.7zm25.8-34.8c-9.4 0-15.7 17-15.7 42.3 0 23.3 6.3 39.6 15.3 39.6 8.4 0 15.1-19.1 15.1-42.6 0-19.6-5-39.3-14.7-39.3zm12.3 46.1c0 15.3-3.6 31.7-11.5 31.7-8.8 0-14.3-15.9-14.3-41.4 0-20.7 4.4-32.6 12-32.6 8.8-.1 13.8 15.4 13.8 42.3zm22.4-18.1c-6.1 0-10.3 3.9-12.7 12l2.2-34.9h18.4l1.9 19.2h.8v-23.1h-22.4l-2.8 47.3v.3h.7v-.2c1.7-7.6 4.9-17.7 13.1-17.7s11.8 13.5 11.8 23c0 14.9-5.6 25.3-13.5 25.3-7.7 0-11.1-8.7-12.5-13.9l-.1-.5-.7.9v.1c1.9 7.5 5.2 16.1 13.2 16.1 9.6 0 16.3-11.5 16.3-28-.1-12.6-4.8-25.9-13.7-25.9zm23.3 6.8c-1.2 0-2.2 1.6-2.2 3.7s1 3.7 2.2 3.7c1.3 0 2.2-1.5 2.2-3.7s-.9-3.7-2.2-3.7zm35.2 41.9h-21.7l14.2-24.5c6.9-12 9.9-20.7 9.9-29.2 0-13.8-5.2-23.1-12.9-23.1-6.2 0-10.1 7.2-11.8 14l-1.4-12.8h-.9v35.6h1.9v-.2c0-16.8 3.6-34.9 11.6-34.9 5.8 0 10.4 9.4 10.4 21.3 0 9.6-2.8 18.9-8.9 29.5L202.4 645v.8h28.5v-27.6h-.9l-2.2 23.6zm23.6-76.7h-.8l-16.3 44.2.7.6 13.9-33v61l-14.1 7-.2.1v.8l15.5-2.9 13.8 2.9v-.8l-12.5-7.1zm57.4-7.3c-.6 0-1.7 1.2-1.8 1.8-2.4 10.8-4.8 22.1-7.2 33-4.3 20-8.8 40.8-13.3 60.5-.3 1.5-.2 2 0 2.2.1.2.4.2.4.2.7 0 1.5-1.2 1.8-2.3 1.2-4.6 6.8-30.3 12.2-55.2 2.8-13.1 5.8-26.7 8.1-37.1.5-2.1.4-2.6.2-2.9-.1-.1-.2-.2-.4-.2zm40.5 7.3h-.8l-16.3 44.2.7.6 13.9-33v61l-14.2 7-.1.1v.8l15.5-2.9 13.8 2.9v-.8l-12.5-7.1zm31.5 0c-9.4 0-15.7 17-15.7 42.3 0 23.3 6.3 39.6 15.3 39.6 8.4 0 15.1-19.1 15.1-42.6.1-19.6-5-39.3-14.7-39.3zm12.4 46.1c0 15.3-3.6 31.7-11.5 31.7-8.8 0-14.3-15.9-14.3-41.4 0-20.7 4.4-32.6 12-32.6 8.7-.1 13.8 15.4 13.8 42.3zm10.5 28.4c-1.2 0-2.2 1.6-2.2 3.7s1 3.7 2.2 3.7c1.3 0 2.2-1.5 2.2-3.7s-.9-3.7-2.2-3.7zm23.8-74.5c-9.4 0-15.7 17-15.7 42.3 0 23.3 6.3 39.6 15.3 39.6 8.4 0 15.1-19.1 15.1-42.6 0-19.6-5.1-39.3-14.7-39.3zm12.3 46.1c0 15.3-3.6 31.7-11.5 31.7-8.8 0-14.3-15.9-14.3-41.4 0-20.7 4.4-32.6 12-32.6 8.8-.1 13.8 15.4 13.8 42.3zm24.3-46.1c-9.4 0-15.7 17-15.7 42.3 0 23.3 6.3 39.6 15.3 39.6 8.4 0 15.1-19.1 15.1-42.6 0-19.6-5-39.3-14.7-39.3zm12.3 46.1c0 15.3-3.6 31.7-11.5 31.7-8.8 0-14.3-15.9-14.3-41.4 0-20.7 4.4-32.6 12-32.6 8.8-.1 13.8 15.4 13.8 42.3zm56.5-8.1h-27.3c-.3 0-.7.3-.9.8-.3.8-.4 2.2-.4 2.6 0 .8.8 1 1.5 1l26.4-.3c.2 0 .8-.2 1-.7.2-.7.4-1.7.4-2.6 0-.5-.4-.8-.7-.8zm40.3-38h-.8l-16.3 44.2.7.6 13.9-33v61l-14.2 7-.1.1v.8l15.5-2.9 13.8 2.9v-.8l-12.5-7.1zm34.2 38.5c4.3-3.1 8.5-10.5 8.5-19 0-9.5-3.2-19.6-12.1-19.6-8.7 0-12.6 8.8-12.6 17.6 0 10 4.8 15.5 9.5 19.8-5.6 2.5-11.9 9.5-11.9 21.5 0 14.4 5.6 23 15.1 23 9 0 14.5-10.7 14.5-20.6-.1-13.2-6.1-18.5-11-22.7zm-5.5 0 2 1.7c6 5.2 11.7 10.1 11.7 21.4 0 8.3-4.7 16.8-12.4 16.8-9 0-13.1-10.2-13.1-19.7 0-10.5 6.1-17.8 11.8-20.2zm2.1-3-.4-.4c-5.7-5.3-9.9-9.2-9.9-17.8 0-7.1 3.2-14.3 10.4-14.3 6.1 0 10.5 6.9 10.5 16.3 0 8-4.4 15.5-8.6 18-.7-.5-1.4-1.2-2-1.8z"
  />
  <ellipse class="st0" cx="626.1" cy="643.3" rx="2.2" ry="3.7" />
  <path
    class="st0"
    d="M649.9 565.1c-9.4 0-15.7 17-15.7 42.3 0 23.3 6.3 39.6 15.3 39.6 8.4 0 15.1-19.1 15.1-42.6.1-19.6-5-39.3-14.7-39.3zm12.4 46.1c0 15.3-3.6 31.7-11.5 31.7-8.8 0-14.3-15.9-14.3-41.4 0-20.7 4.4-32.6 12-32.6 8.7-.1 13.8 15.4 13.8 42.3zm24.2-46.1c-9.4 0-15.7 17-15.7 42.3 0 23.3 6.3 39.6 15.3 39.6 8.4 0 15.1-19.1 15.1-42.6.1-19.6-5-39.3-14.7-39.3zm12.4 46.1c0 15.3-3.6 31.7-11.5 31.7-8.8 0-14.3-15.9-14.3-41.4 0-20.7 4.4-32.6 12-32.6 8.8-.1 13.8 15.4 13.8 42.3zM70.6 149.8v-.9l-16.9-9.5V96.9h16l5.3 24.3.8-.7-2.3-24.6 2.2-20.2v-.1l-.7-1-5.3 20.3h-16V50.1H77l3.2 34.5v.2h.9V48.1H38.7v.9l11.9 6.6v83.9l-13.1 9.4v.9l14.8-3.7zm50.3 0h.3v-.9l-16-9.6V48.1H90.6v2.7h11.6v88.5l-15.4 9.5-.1.1v.9l17-3.7zm24.7 1.5c10.2 0 18.4-17.1 18.4-38.1 0-9.1-1.6-17.6-4.6-23.9-3.3-7-7.9-10.7-13.4-10.7-11.5 0-19.2 15-19.2 37.4.1 20.8 7.8 35.3 18.8 35.3zm-16.4-42.5c0-18.4 7.2-26.8 13.9-26.8 11.1 0 18.3 15.2 18.3 38.8 0 13.1-5 26.7-13.3 26.7-10.9-.1-18.9-16.3-18.9-38.7zm44.4 11.4-.1.1c-.9 2.3-1.8 7.3-1.8 11.5 0 9.7 3.5 19.4 11.4 19.4 6.5 0 12.8-5.2 15.6-12.9v13.1l15.1-10.7.1-.1v-.9l-12.2 2.9v-36.9c0-17.3-4.6-27.2-12.6-27.2-8.4 0-13 9.2-16.1 17.2v.1l.6 1.3.2-.6c4-10 8.3-14.3 14.4-14.3 6.4 0 10.5 9.3 10.5 23.7v3.7l-25.1 10.6zm12.1 26c-5.1 0-12.5-6.4-12.5-17.9 0-.9 0-1.8.1-2.5l25.5-15V136c-2.3 5.9-7.8 10.2-13.1 10.2zm39.8-18.9c0 15.9 3.3 24 9.7 24 4.5 0 7.2-4 8.9-7l.1-.1-.4-1.1-.3.5c-1.2 2-3.4 4.4-7.7 4.4-4.5 0-7.2-7.5-7.2-19.9V84.8l11.4 1.3v-5.9l-11.4 1V63.6h-3v18l-9.7.8v1l9.7 1.2v42.7zm40.2-71.5c1.7 0 2.8-1.9 2.8-4.6 0-2.8-1.1-4.6-2.8-4.6-1.6 0-2.8 2-2.8 4.6 0 2.6 1.2 4.6 2.8 4.6zm17.3 94h.3v-.9l-16-9.6v-59h-14.5v2.8h11.5v56.2l-15.4 9.5-.1.1v.9l17-3.7zm30.5.1v-1l-10.9-9.6V98.9c3.7-13.1 7.7-15.8 13.1-15.8 6.7 0 10.9 9.6 10.9 25.2v31l-10.3 9.6v1l11.8-3.8 15 3.7.3.1v-1l-13.8-9.6v-35c0-15.6-5.2-25.7-13.3-25.7-6.5 0-11.3 6-13.8 16.9V80.3H289v2.9h10.6v56.2l-13.1 9.5-.1.1v1l14.7-3.8 12.4 3.7zm51.9-9.9h.5l-13.6 8.8-.1.1v.9h17.7c6.6 0 10.7 5 10.7 13 0 8.7-6.6 16.9-13.6 16.9-5.4 0-10.5-2.2-15.4-6.8l-.4-.4v1.5l.1.1c.5.4 1 .9 1.5 1.3 3.5 3.2 7.2 6.5 15.2 6.5 9.3 0 16.1-8.7 16.1-20.6 0-10.4-6.6-16.1-12.9-16.1h-10.3l9.8-6.8c6.8-4.7 11-16 11-29.5 0-10.7-3.7-21-9.3-25.8h8.9v-2.9h-15.9c-10.4 0-17.4 12.4-17.4 30.9 0 18.1 8.9 28.9 17.4 28.9zM351 104.7c0-13 5-22.5 11.9-22.5 7.8 0 16.1 13.2 16.1 32.9 0 9.5-4.6 22.8-12.2 22.8-8.5.1-15.8-15.4-15.8-33.2zm212.2-48.9c1.7 0 2.8-1.9 2.8-4.6 0-2.8-1.1-4.6-2.8-4.6-1.6 0-2.8 2-2.8 4.6 0 2.6 1.2 4.6 2.8 4.6z"
  />
  <path
    class="st0"
    d="M765.8 119.2h28.8v8.1c0 15.9 3.3 24 9.7 24 4.5 0 7.2-4 8.9-7l.1-.1-.4-1.1-.3.5c-1.2 2-3.4 4.4-7.7 4.4-4.5 0-7.2-7.5-7.2-19.9v-8.8h34.5l7.6 32.3-7.3 29.9h1.2l15-62.2h15.6v-8.4h-13.6l4.9-20.6 7.8-9 .1-.1v-1l-8.2 4.7-9.7-4.7v1l8.8 9.1-4.9 20.6h-15.8l-5-20.8 8.1-8.9v-1l-10 4.7-9.7-4.7v1l8.2 8.9 4.9 20.8h-32.5v-26l11.4 1.3v-5.9l-11.4 1V63.6h-3v18l-9.7.8v1l9.7 1.2v26.2h-28.8V80.3h-14.5v2.9h11.5v27.7h-37.4c-5-3.1-11.2-7.4-12.2-13.7-.7-4.6.5-9.4 3.1-12.4 1.9-2.2 4.5-3.4 7.4-3.4 6.4 0 12.8 9.1 14.1 20l.7 6.1h2.1l-1.3-28.6h-.9l-1.2 8.5c-3-4.1-7.3-8.7-11.9-8.7-7 0-14.1 6.4-14.1 18.8 0 6.5 2.6 10.5 5.9 13.5h-30v-6.7c2.3-13.1 5.8-18 13.1-18h.9v-7.4h-.2s-.8-.2-1.3-.2c-5.4.3-10.5 10.3-12.5 20.4V80.3h-11.3v2.9h8.3v27.7h-47.4c0-1-.1-2-.1-3v-.6l30.3 2h.3v-.3c.4-11.3-2.5-21.7-7.6-26.9-2.2-2.3-4.7-3.5-7.2-3.5-10.1 0-16.9 12.5-17.9 32.2H617l4.8-20.6 7.7-9 .1-.1v-1l-8.1 4.7-10.8-4.6v1l9.9 9.1-4.8 20.6h-16.1l-4.9-20.6 9-9 .1-.1v-1l-11.1 4.6-9.5-4.7v1l8.2 9.1 4.9 20.6H565V80.3h-14.5v2.9H562v27.7h-31.2v-6.6c0-15.6-5.2-25.7-13.3-25.7-6.5 0-11.3 6-13.8 16.9V80.3h-13.6v2.9h10.6v27.7h-30.8c0-1.7.1-3.5.1-5.4v-46l14.2-10.4-.2-.1v-1l-15.1 3.8-13.8-3.8v1L468 59.4v51.4h-36.7V58.4l14.1-9.4.1-.1v-1l-15.8 3.8-14.4-3.7v1l12.8 9.4v52.4h-14.5v8.4h14.8c1.5 21 8.8 32.1 21.5 32.1 11.3 0 17.6-10.3 19.3-32.1h31.2v20.1l-13.1 9.5-.1.1v1l14.7-3.8 12.4 3.8v-1l-10.9-9.6v-20.1h24v20.1l-10.3 9.6v1l11.8-3.8 15 3.7.3.1v-1l-13.8-9.6v-20.1h31.2v20.1l-15.4 9.5-.1.1v1l17-3.8 17.3 3.7.3.1v-1l-16.1-9.6v-20.1h33.3l8 33.7v.2h.7l7.9-33.9H634c.8 22 9.7 32.1 18.1 32.1 8 0 12-6.9 15.8-14.6v-.1l-.4-1.1-.3.5c-4 7.7-8.1 11.3-12.8 11.3-8.7 0-15.4-11.3-17.4-28h46.8v20.1l-11.2 9.6v1l12.7-3.8 13.6 3.8v-1l-12.1-9.6v-20.1h24l-.6 31.6h.9l2-9.5c2.9 4.8 7.1 10 13.4 10 7.1 0 14.7-6.3 14.7-20.1 0-5.3-2-9.1-4.6-12h25.7v20.1l-15.4 9.5-.1.1v1l17-3.8 17.3 3.7.3.1v-1l-16.1-9.6v-20.2zm81.6 0-5.8 24.5-5.9-24.5h11.7zm-379.9 0c-1.4 14.3-6.5 27-17.5 27-10.1 0-16.7-9.9-18.3-27h35.8zm36-8.4V98.9c3.6-13.1 7.7-15.8 13.1-15.8 6.7 0 10.9 9.6 10.9 25.2v2.5h-24zm110.1 8.4-6 25.5-6.1-25.5h12.1zm23-13c.5-14 5.8-24.1 12.8-24.1 6.3 0 11.7 7.1 13.9 18.2.2.6.3 2.5.3 3.6l-27 2.3zm92.9 13c4.3 3 9 7.2 9.7 13.5.6 5.1-.5 9.7-3.2 12.7-1.8 2.1-4.3 3.2-7.1 3.2-8.4 0-14.7-10-15.6-24.8-.2-2-.2-3.5-.2-4.5h16.4zm34.7-63.4c1.7 0 2.8-1.9 2.8-4.6 0-2.8-1.1-4.6-2.8-4.6-1.6 0-2.8 2-2.8 4.6 0 2.6 1.2 4.6 2.8 4.6zm109.3 81.3h-3.7l-4 25.3h.7zm61.1-40c7.2-1.8 12-11.3 12-24.4 0-16.1-7.2-24.7-20.7-24.7h-25.2v1l13.1 6.6v86.5l-14.4 6.7v.9h26.2c17.4 0 24.8-8.3 24.8-27.9.1-14.8-7.6-23.3-15.8-24.7zm12.4 24.8c0 17.7-6.5 26-20.6 26H917V98.3h7.3c11.3 0 22.7 7.3 22.7 23.6zm-4-49.1c0 21.7-10.6 23.5-20.6 23.5H917V50.1h9.2c10.5 0 16.8 8.5 16.8 22.7zm47.6 63.1c-4 7.7-8.1 11.3-12.8 11.3-10.5 0-18.1-16.6-18.1-39.5v-.6l30.3 2h.3v-.3c.4-11.3-2.5-21.7-7.6-26.9-2.2-2.3-4.7-3.5-7.2-3.5-11 0-18.1 14.7-18.1 37.4 0 24.2 9.4 35.3 18.2 35.3 8 0 12-6.9 15.8-14.6v-.1l-.4-1.1-.4.6zm-31-29.7c.5-14 5.8-24.1 12.8-24.1 6.3 0 11.7 7.1 13.9 18.2.2.6.3 2.5.3 3.6l-27 2.3zm63-27.6c-5.4.3-10.5 10.3-12.5 20.4V80.3h-11.3v2.9h8.3v56.2l-11.2 9.6v1l12.7-3.8 13.6 3.8v-1l-12.1-9.6v-35.2c2.3-13.1 5.8-18 13.1-18h.9v-7.4h-.2c0-.1-.8-.2-1.3-.2zm27.2-30.5h-14.6v2.7h11.6v88.5l-15.4 9.5-.1.1v.9l17-3.7 17.3 3.7h.3v-.9l-16.1-9.6zm35.9 7.7c1.7 0 2.8-1.9 2.8-4.6 0-2.8-1.1-4.6-2.8-4.6-1.6 0-2.8 2-2.8 4.6.1 2.6 1.3 4.6 2.8 4.6zm1.7 24.5h-14.5v2.8h11.4v56.2l-15.3 9.5-.1.1v.9l16.9-3.7 17.3 3.7h.3v-.9l-16-9.6zm62.3 59v-35c0-15.6-5.2-25.7-13.3-25.7-6.5 0-11.3 6-13.8 16.9V80.3H1109v2.9h10.6v56.2l-13.1 9.5-.1.1v1l14.7-3.8 12.4 3.8v-1l-10.9-9.6V98.9c3.7-13.1 7.7-15.8 13.1-15.8 6.7 0 10.9 9.6 10.9 25.2v31l-10.3 9.6v1l11.8-3.8 15 3.7.3.1v-1l-13.7-9.6zM61.3 194.1c-12.9 0-21.5 17-21.5 42.3 0 23.3 8.6 39.6 21 39.6 11.4 0 20.7-19.1 20.7-42.6-.1-19.6-7-39.3-20.2-39.3zM79 240.5c0 15.3-6.1 31.8-16 31.8-12.5 0-20.9-16.9-20.9-42.1 0-19.8 6.6-32.6 16.9-32.6 12.3 0 20 16.4 20 42.9zm12 15.3c0 12.4 3.6 20.1 9.4 20.1 5 0 8.7-4.5 10.7-12.8v11.7l10.8-6.9v-.8l-8.3 1.4v-48.2h-8.3v2.3h5.8V260c-2.8 10.2-6 12.3-10.2 12.3-4.6 0-7.5-7-7.5-17.8v-34.2h-8.1v2.3H91v33.2zm41.6 1.4c0 12.5 2.6 18.8 7.6 18.8 3.5 0 5.7-3.2 7-5.5l.1-.1-.4-1-.3.5c-.9 1.6-2.7 3.4-5.9 3.4-3.5 0-5.6-5.8-5.6-15.5V224l8.9 1.1v-4.8l-8.9.8v-13.8h-2.5v14.1l-7.6.7v.8l7.6.9v33.4zm36.3-38.2c-10.2 0-15.9 14.9-16.4 29.7-.3 10.2 2.5 20.1 7 24.6 1.7 1.7 3.4 2.6 5.3 2.6 6.4 0 10.1-6.5 11.6-9.9v8.9l11-7.6.1-.1v-.8l-8.6 2.1v-73.3h-9.3v2.2h6.8V222c-2.3-2-4.9-3-7.5-3zm-1.8 53.4c-7.6 0-12.4-10.8-12.4-28.2 0-13 5-22.5 11.9-22.5 3.8 0 7.5 2.4 9.7 6.5V264c-1.2 3.1-4.1 8.4-9.2 8.4zm25.5-24c0 16.2 6 27.6 14.7 27.6 8 0 14.5-13.4 14.5-29.8 0-13-4.4-27.1-14.1-27.1-9-.1-15.1 11.7-15.1 29.3zm27 3.6c0 10.2-3.9 20.8-10.3 20.8-8.5 0-14.7-12.7-14.7-30.1 0-14.4 5.6-20.9 10.8-20.9 8.6 0 14.2 11.9 14.2 30.2zm8.5-3.6c0 16.2 6 27.6 14.7 27.6 8 0 14.5-13.4 14.5-29.8 0-13-4.4-27.1-14.1-27.1-9-.1-15.1 11.7-15.1 29.3zm27 3.6c0 10.2-3.9 20.8-10.3 20.8-8.5 0-14.7-12.7-14.7-30.1 0-14.4 5.6-20.9 10.8-20.9 8.6 0 14.2 11.9 14.2 30.2zm27.4-33c-4.2.2-8.1 7.7-9.7 15.4v-14.1h-8.9v2.3h6.5v43.8l-8.7 7.5v.8l10-3 10.7 3v-.7l-9.4-7.5v-27.4c1.8-10.2 4.5-14 10.2-14h.8v-5.8h-.2c-.3-.1-.9-.3-1.3-.3zm29.3 13.1c-.3 0-.7.3-.9.8-.3.8-.4 2.2-.4 2.6 0 .8.8 1 1.5 1l26.4-.3c.2 0 .8-.2 1-.7.2-.7.4-1.7.4-2.6 0-.5-.4-.9-.8-.9h-27.2zm50.4 41.9v.9l10.4-3 11.2 3v-.9l-9.9-7.7 4.8-24.1h17.1l5.4 24.1-9.9 7.7v.8l11.2-3 11 3v-.8l-9.7-7.8-16.5-74.7-14.8 74.7-10.3 7.8zm16.8-33.5 7.7-39 8.7 39H379zm35.7-20.1v2.3h5.6v33.1c0 12.4 3.6 20.1 9.4 20.1 5 0 8.7-4.5 10.7-12.8v11.7l10.8-6.9v-.8l-8.3 1.4v-48.2h-8.3v2.3h5.8V260c-2.8 10.2-6 12.3-10.2 12.3-4.6 0-7.5-7-7.5-17.8v-34.2h-8zm41.8 29.8-.5 25.4h.8l1.6-7.3c2.3 3.7 5.5 7.7 10.5 7.7 5.6 0 11.6-4.9 11.6-15.8 0-8.2-6-11.8-9.9-14.2-.3-.2-.5-.3-.8-.5l-.8-.5c-4-2.4-10-6-10.8-11.4-.5-3.6.4-7.3 2.4-9.7 1.5-1.7 3.5-2.7 5.8-2.7 5 0 10 7.1 10.9 15.6l.6 4.8h1.8l-1-22.5h-.8l-.9 6.6c-2.3-3.2-5.7-6.7-9.3-6.7-5.5 0-11 5.1-11 14.7 0 8.1 5.2 11.4 9.4 14 .4.3.9.5 1.3.8l.9.6c3.8 2.4 9.5 6 10.3 12.3.5 4-.4 7.6-2.5 9.9-1.4 1.6-3.3 2.5-5.5 2.5-6.5 0-11.4-7.8-12.1-19.4-.2-1.8-.2-3.2-.2-3.9v-.2h-1.8zm30.5 0-.5 25.4h.8l1.6-7.3c2.3 3.7 5.5 7.7 10.5 7.7 5.6 0 11.6-4.9 11.6-15.8 0-8.2-6-11.8-9.9-14.2-.3-.2-.5-.3-.8-.5l-.8-.5c-4-2.4-10-6-10.8-11.4-.5-3.6.4-7.3 2.4-9.7 1.5-1.7 3.5-2.7 5.8-2.7 5 0 10 7.1 10.9 15.6l.6 4.8h1.8l-1-22.5h-.8l-.9 6.6c-2.3-3.2-5.7-6.7-9.3-6.7-5.5 0-11 5.1-11 14.7 0 8.1 5.2 11.4 9.4 14 .4.3.9.5 1.3.8l.9.6c3.8 2.4 9.5 6 10.3 12.3.5 4-.4 7.6-2.5 9.9-1.4 1.6-3.3 2.5-5.5 2.5-6.5 0-11.4-7.8-12.1-19.4-.2-1.8-.2-3.2-.2-3.9v-.2H487zm35.9-42.9v14.1l-7.6.7v.8l7.6.9v33.3c0 12.5 2.6 18.8 7.6 18.8 3.6 0 5.7-3.2 7-5.5l.1-.1-.4-1-.3.5c-.9 1.6-2.7 3.4-5.9 3.4-3.5 0-5.6-5.8-5.6-15.5V224l8.9 1.1v-4.8l-8.9.8v-13.8h-2.5zm45.7 35.8h.3v-.3c.3-8.9-2-16.9-6-21.1-1.7-1.8-3.7-2.7-5.7-2.7-8.6 0-14.2 11.5-14.2 29.3 0 19 7.4 27.6 14.2 27.6 6.3 0 9.4-5.4 12.4-11.4v-.1l-.4-1-.3.5c-3.1 6-6.3 8.8-10 8.8-8.2 0-14.1-12.9-14.1-30.8v-.4l23.8 1.6zM555 221.9c4.9 0 9.1 5.5 10.8 14.2.1.4.2 1.8.2 2.7l-20.9 1.8c.3-10.9 4.5-18.7 9.9-18.7zm18.4 52-.2.1v.8l13.4-2.9 13.8 2.9v-.8l-12.6-7.5v-71.3h-11.5v2.3h9v69zm29.3 0-.1.1v.8l13.3-2.9 13.8 2.9v-.8l-12.6-7.5v-71.3h-11.5v2.3h9.1v69zm29.3-53.5v2.3h5.6v33.1c0 12.4 3.6 20.1 9.4 20.1 5 0 8.7-4.5 10.7-12.8v11.7l10.8-6.9v-.8l-8.3 1.4v-48.2H652v2.3h5.8V260c-2.8 10.2-6 12.3-10.2 12.3-4.6 0-7.5-7-7.5-17.8v-34.2H632zm39.7 53.5-.1.1v.8l11.6-3 9.8 3v-.8l-8.5-7.5V235c2.8-10.2 6-12.3 10.2-12.3 5.2 0 8.5 7.5 8.5 19.6v24.2l-8 7.4-.2.1v.8l9.3-3 12 3v-.8l-10.8-7.5v-27.3c0-12.2-4.1-20.1-10.4-20.1-5 0-8.7 4.5-10.7 12.8v-11.5h-10.8v2.3h8.3v43.8l-10.2 7.4z"
  />
  <path
    class="st0"
    d="M746.8 291h4.4v-6.6H748v-.7c0-8.2-5.2-12.6-10.1-12.6H730l7.5-5.2c5.3-3.7 8.6-12.5 8.6-23.1 0-8.3-2.9-16.3-7.2-20.1h6.9v-2.3h-12.5c-8.2 0-13.6 9.7-13.6 24.2 0 14.1 6.9 22.6 13.6 22.6h.2L723 274v.8h13.9c5 0 8.1 3.7 8.3 9.6h-403v6.6h401.6c-1.9 4.1-5.5 7.1-9.2 7.1-4.2 0-8.1-1.7-12-5.3l-.4-.4v1.3l.1.1c.4.3.8.7 1.1 1 2.8 2.5 5.6 5.1 11.9 5.1 5.3 0 9.5-3.5 11.5-8.9zm-2.9-43.3c0 7.4-3.6 17.8-9.5 17.8-6.5 0-12.3-12.1-12.3-25.9 0-10.1 3.9-17.5 9.2-17.5 6.2-.1 12.6 10.3 12.6 25.6z"
  />
  <path
    class="st0"
    d="M342.2 291v-6.6H36.6v6.6H308zM55 401c8.4 0 15.1-19.1 15.1-42.6 0-19.5-5.1-39.3-14.8-39.3-9.4 0-15.7 17-15.7 42.3C39.7 384.7 46 401 55 401zm-13-45.5c0-20.7 4.4-32.6 12-32.6 8.8 0 13.8 15.4 13.8 42.4 0 15.3-3.6 31.7-11.5 31.7-8.8-.1-14.3-16-14.3-41.5zm62.1-35.4h.2v-.9h-.3c-24.7 4.2-27.4 38.4-27.4 52.8 0 16.8 6.3 28.9 14.9 28.9 8.4 0 14.5-10.8 14.5-25.6 0-11.7-4.9-24.2-14.1-24.2-5.2 0-10.6 4.1-12.8 13.2 2.2-26 10.4-40.5 25-44.2zm-25 53.9c0-11.2 4.7-19.6 11-19.6 8.7 0 13.7 9.5 13.7 26.2 0 8.5-3.6 17.6-10.2 17.6-8.5 0-14.5-12.7-14.5-24.2zm39.1-16.4c0-2.2-.9-3.7-2.2-3.7-1.2 0-2.2 1.6-2.2 3.7s1 3.7 2.2 3.7c1.3-.1 2.2-1.5 2.2-3.7zm23.1 43.4c8.4 0 15.1-19.1 15.1-42.6 0-19.5-5.1-39.3-14.8-39.3-9.4 0-15.7 17-15.7 42.3.1 23.3 6.4 39.6 15.4 39.6zm-13-45.5c0-20.7 4.4-32.6 12-32.6 8.8 0 13.8 15.4 13.8 42.4 0 15.3-3.6 31.7-11.5 31.7-8.8-.1-14.3-16-14.3-41.5zm48.2-8.4c-6.1 0-10.3 3.9-12.7 12l2.2-34.9h18.4l1.9 19.2h.8v-23.1h-22.4l-2.8 47.3v.3h.7v-.2c1.7-7.6 4.9-17.7 13.1-17.7s11.8 13.5 11.8 23c0 14.9-5.6 25.3-13.5 25.3-7.7 0-11.1-8.7-12.5-13.9l-.1-.5-.7.9v.1c1.9 7.5 5.2 16.1 13.2 16.1 9.6 0 16.3-11.5 16.3-28-.1-12.6-4.9-25.9-13.7-25.9zm67.5 13.4c.2-.7.4-1.7.4-2.6 0-.5-.4-.9-.8-.9h-27.3c-.3 0-.7.3-.9.8-.3.8-.4 2.2-.4 2.6 0 .8.8 1 1.5 1l26.4-.3c.4.1.9 0 1.1-.6zm56.3-2.1c0-19.5-5.1-39.3-14.8-39.3-9.4 0-15.7 17-15.7 42.3 0 23.3 6.3 39.6 15.3 39.6 8.4 0 15.2-19.2 15.2-42.6zm-2.4 6.8c0 15.3-3.6 31.7-11.5 31.7-8.8 0-14.3-15.9-14.3-41.4 0-20.7 4.4-32.6 12-32.6 8.7-.1 13.8 15.4 13.8 42.3zm38.2 10.1c0-11.7-4.9-24.2-14.1-24.2-5.2 0-10.6 4.1-12.8 13.2 2.2-26 10.4-40.5 25-44.2h.2v-.9h-.3c-24.7 4.2-27.4 38.4-27.4 52.8 0 16.8 6.3 28.9 14.9 28.9 8.4.1 14.5-10.7 14.5-25.6zm-26.9-1.3c0-11.2 4.7-19.6 11-19.6 8.7 0 13.7 9.5 13.7 26.2 0 8.5-3.6 17.6-10.2 17.6-8.5 0-14.5-12.7-14.5-24.2zm36.8-20.1c-1.2 0-2.2 1.6-2.2 3.7s1 3.7 2.2 3.7c1.3 0 2.2-1.5 2.2-3.7s-.8-3.7-2.2-3.7zm25.8-34.8c-9.4 0-15.7 17-15.7 42.3 0 23.3 6.3 39.6 15.3 39.6 8.4 0 15.1-19.1 15.1-42.6.1-19.6-5-39.3-14.7-39.3zm12.4 46.1c0 15.3-3.6 31.7-11.5 31.7-8.8 0-14.3-15.9-14.3-41.4 0-20.7 4.4-32.6 12-32.6 8.8-.1 13.8 15.4 13.8 42.3zm36.3-45.1h.2v-.9h-.3c-24.7 4.2-27.4 38.4-27.4 52.8 0 16.8 6.3 28.9 14.9 28.9 8.4 0 14.5-10.8 14.5-25.6 0-11.7-4.9-24.2-14.1-24.2-5.2 0-10.6 4.1-12.8 13.2 2.2-26 10.4-40.5 25-44.2zm-25 53.9c0-11.2 4.7-19.6 11-19.6 8.7 0 13.7 9.5 13.7 26.2 0 8.5-3.6 17.6-10.2 17.6-8.5 0-14.5-12.7-14.5-24.2zm39.1-16.4c0-2.2-.9-3.7-2.2-3.7-1.2 0-2.2 1.6-2.2 3.7s1 3.7 2.2 3.7c1.3-.1 2.2-1.5 2.2-3.7zm7.6 41.4v.8h28.5v-27.6h-.9l-2.3 23.7h-21.7l14.2-24.5c6.9-12 9.9-20.7 9.9-29.2 0-13.8-5.2-23.1-12.9-23.1-6.2 0-10.1 7.2-11.8 14l-1.4-12.8h-.9v35.6h1.9v-.2c0-16.8 3.6-34.9 11.6-34.9 5.8 0 10.4 9.4 10.4 21.3 0 9.6-2.8 18.9-8.9 29.5L442.2 399zm48.9-79.9h-.8l-16.2 44.2.7.6 13.9-33v61l-14.2 7-.1.1v.8l15.5-2.9 13.8 2.9v-.8l-12.6-7.1zm57.5-7.3c-.6 0-1.7 1.2-1.8 1.8-2.4 10.8-4.8 22-7.2 32.9-4.3 20.1-8.8 40.8-13.3 60.6-.3 1.5-.2 2 0 2.2.1.2.4.2.4.2.7 0 1.5-1.2 1.8-2.3 1.2-4.6 6.8-30.2 12.2-55.1 2.8-13.2 5.8-26.8 8.1-37.2.5-2.1.4-2.6.2-2.9-.1-.1-.3-.2-.4-.2zm39.6 7.3L572 363.3l.7.6 13.8-33v61l-14.1 7-.1.1v.8l15.5-2.9 13.8 2.9v-.8l-12.6-7.1v-72.8zm32.2 32c-5.2 0-10.6 4.1-12.8 13.2 2.2-26 10.4-40.5 25-44.2h.2v-.9h-.3c-24.7 4.2-27.4 38.4-27.4 52.8 0 16.8 6.3 28.9 14.9 28.9 8.4 0 14.5-10.8 14.5-25.6 0-11.7-5-24.2-14.1-24.2zm11.9 29.5c0 8.5-3.6 17.6-10.2 17.6-8.6 0-14.6-12.8-14.6-24.2 0-11.2 4.7-19.6 11-19.6 8.8 0 13.8 9.5 13.8 26.2zm12.3 16.7c0-2.2-.9-3.7-2.2-3.7-1.2 0-2.2 1.6-2.2 3.7s1 3.7 2.2 3.7c1.4 0 2.2-1.5 2.2-3.7zm21.6-78.2c-9.4 0-15.7 17-15.7 42.3 0 23.3 6.3 39.6 15.3 39.6 8.4 0 15.1-19.1 15.1-42.6.1-19.6-5-39.3-14.7-39.3zm12.4 46.1c0 15.3-3.6 31.7-11.5 31.7-8.8 0-14.3-15.9-14.3-41.4 0-20.7 4.4-32.6 12-32.6 8.7-.1 13.8 15.4 13.8 42.3zm24.2-46.1c-9.4 0-15.7 17-15.7 42.3 0 23.3 6.3 39.6 15.3 39.6 8.4 0 15.1-19.1 15.1-42.6.1-19.6-5-39.3-14.7-39.3zm12.4 46.1c0 15.3-3.6 31.7-11.5 31.7-8.8 0-14.3-15.9-14.3-41.4 0-20.7 4.4-32.6 12-32.6 8.8-.1 13.8 15.4 13.8 42.3zm56.4-8.1h-27.3c-.3 0-.7.3-.9.8-.3.8-.4 2.2-.4 2.6 0 .8.8 1 1.5 1l26.4-.3c.2 0 .8-.2 1-.7.2-.7.4-1.7.4-2.6.1-.5-.3-.8-.7-.8zm51.3 38.7h-21.7l14.2-24.5c6.9-12 9.9-20.8 9.9-29.2 0-13.8-5.2-23.1-12.9-23.1-6.2 0-10.1 7.2-11.8 14l-1.4-12.8h-.9v35.6h1.9v-.2c0-16.8 3.6-34.9 11.6-34.9 5.8 0 10.4 9.4 10.4 21.3 0 9.6-2.8 18.9-8.9 29.5L797.5 399v.8H826v-27.6h-.9l-2.2 23.6zm23.6-76.7h-.8l-16.2 44.2.7.6 13.8-33v61l-14.1 7-.2.1v.8l15.6-2.9 13.7 2.9v-.8l-12.5-7.1zm17.8 74.5c-1.2 0-2.2 1.6-2.2 3.7s1 3.7 2.2 3.7c1.3 0 2.2-1.5 2.2-3.7s-.9-3.7-2.2-3.7zm23.8-74.5c-9.4 0-15.7 17-15.7 42.3 0 23.3 6.3 39.6 15.3 39.6 8.4 0 15.1-19.1 15.1-42.6 0-19.6-5.1-39.3-14.7-39.3zm12.3 46.1c0 15.3-3.6 31.7-11.5 31.7-8.8 0-14.3-15.9-14.3-41.4 0-20.7 4.4-32.6 12-32.6 8.8-.1 13.8 15.4 13.8 42.3zm24.3-46.1c-9.4 0-15.7 17-15.7 42.3 0 23.3 6.3 39.6 15.3 39.6 8.4 0 15.1-19.1 15.1-42.6.1-19.6-5-39.3-14.7-39.3zm12.3 46.1c0 15.3-3.6 31.7-11.5 31.7-8.8 0-14.3-15.9-14.3-41.4 0-20.7 4.4-32.6 12-32.6 8.8-.1 13.8 15.4 13.8 42.3z"
  />
</svg>
