<?xml version="1.0" encoding="utf-8"?>
<!-- Generator: Adobe Illustrator 25.2.1, SVG Export Plug-In . SVG Version: 6.00 Build 0)  -->
<svg version="1.1" id="Layer_1" xmlns="http://www.w3.org/2000/svg" xmlns:xlink="http://www.w3.org/1999/xlink" x="0px" y="0px"
	 viewBox="0 0 1625 628" style="enable-background:new 0 0 1625 628;" xml:space="preserve">
<style type="text/css">
	.st1{clip-path:url(#SVGID_4_);}
	.st2{clip-path:url(#SVGID_6_);fill:none;stroke:#C9CA9E;stroke-width:8.414;stroke-miterlimit:10;}
	.st0{clip-path:url(#SVGID_2_);}
	.details-st3{fill:#fff;}
	.st4{fill:none;}
	.st5{fill:#C9CA9E;}
</style>
<g id="details">
	<path class="details-st3" d="M44.2,134.3c10.7,0,19.3-24.4,19.3-54.4c0-25-6.5-50.2-18.8-50.2c-12,0-20,21.7-20,54.1
		C24.7,113.5,32.7,134.3,44.2,134.3z M27.4,76.1c0-26.6,5.6-41.8,15.4-41.8c11.3,0,17.7,19.8,17.7,54.3c0,19.6-4.6,40.7-14.7,40.7
		C34.5,129.2,27.4,108.9,27.4,76.1z"/>
	<path class="details-st3" d="M90.9,134.3c10.7,0,18.4-13.8,18.4-32.7c0-15-6.3-30.9-18-30.9c-6.8,0-13.9,5.5-16.5,17.8
		c1.2-14.3,3.8-26.1,7.8-35.1c5.4-12.2,13.6-19.8,24.4-22.5l0.2,0v-1l-0.3,0c-31.6,5.4-35,49.1-35,67.6
		C71.9,118.7,79.9,134.3,90.9,134.3z M74.9,99.9c0-14.3,6.1-25.2,14.1-25.2c11.2,0,17.7,12.2,17.7,33.6c0,11-4.6,22.6-13.1,22.6
		C82.6,130.9,74.9,114.6,74.9,99.9z"/>
	<path class="details-st3" d="M119.6,83.4c1.7,0,2.8-1.9,2.8-4.6c0-2.8-1.1-4.6-2.8-4.6c-1.6,0-2.8,2-2.8,4.6
		C116.8,81.4,118,83.4,119.6,83.4z"/>
	<path class="details-st3" d="M149.6,134.3c10.7,0,19.3-24.4,19.3-54.4c0-25-6.5-50.2-18.8-50.2c-12,0-20,21.7-20,54.1
		C130,113.5,138.1,134.3,149.6,134.3z M132.8,76.1c0-26.6,5.6-41.8,15.4-41.8c11.3,0,17.7,19.8,17.7,54.3c0,19.6-4.6,40.7-14.7,40.7
		C139.8,129.2,132.8,108.9,132.8,76.1z"/>
	<path class="details-st3" d="M191.1,134.3c12.2,0,20.8-14.7,20.8-35.8c0-16-6.1-33.1-17.4-33.1c-7.9,0-13.3,5.2-16.4,15.9l2.8-45.4h23.7
		l2.4,24.6h0.9V31.1h-28.5l-3.6,60.5l0,0.3h0.8l0-0.2c2.2-9.7,6.3-22.7,16.8-22.7c11.1,0,15.2,18.1,15.2,29.5
		c0,19.1-7.1,32.4-17.4,32.4c-9.9,0-14.3-11.2-16.1-17.8l-0.1-0.5l-0.8,1l0,0.1C176.7,123.3,180.8,134.3,191.1,134.3z"/>
	<path class="details-st3" d="M245.9,83.8l33.9-0.3c0.3,0,1-0.2,1.2-0.8c0.3-0.8,0.5-2.2,0.5-3.3c0-0.6-0.5-1.1-0.9-1.1h-34.9
		c-0.3,0-0.9,0.4-1.1,1c-0.4,1.1-0.5,2.9-0.5,3.3C244,83.5,245,83.8,245.9,83.8z"/>
	<path class="details-st3" d="M333.6,134.3c10.7,0,19.3-24.4,19.3-54.4c0-25-6.5-50.2-18.8-50.2c-12,0-20,21.7-20,54.1
		C314.1,113.5,322.1,134.3,333.6,134.3z M316.9,76.1c0-26.6,5.6-41.8,15.4-41.8c11.3,0,17.7,19.8,17.7,54.3
		c0,19.6-4.6,40.7-14.7,40.7C323.9,129.2,316.9,108.9,316.9,76.1z"/>
	<path class="details-st3" d="M380.8,70.7c-6.8,0-13.9,5.5-16.5,17.7c1.2-14.3,3.8-26.1,7.8-35.1c5.4-12.2,13.6-19.8,24.4-22.5l0.2,0v-1
		l-0.3,0c-31.6,5.4-35,49.1-35,67.6c0,21.4,8,36.9,19,36.9c10.7,0,18.4-13.8,18.4-32.7C398.8,86.6,392.5,70.7,380.8,70.7z
		 M396.1,108.3c0,11-4.6,22.6-13.1,22.6c-11,0-18.7-16.4-18.7-31.1c0-14.3,6.1-25.2,14.1-25.2C389.7,74.7,396.1,86.9,396.1,108.3z"
		/>
	<path class="details-st3" d="M409,83.4c1.7,0,2.8-1.9,2.8-4.6c0-2.8-1.1-4.6-2.8-4.6c-1.6,0-2.8,2-2.8,4.6C406.3,81.4,407.5,83.4,409,83.4z
		"/>
	<path class="details-st3" d="M439,134.3c10.7,0,19.3-24.4,19.3-54.4c0-25-6.5-50.2-18.8-50.2c-12,0-20,21.7-20,54.1
		C419.5,113.5,427.5,134.3,439,134.3z M422.2,76.1c0-26.6,5.6-41.8,15.4-41.8c11.3,0,17.7,19.8,17.7,54.3c0,19.6-4.6,40.7-14.7,40.7
		C429.3,129.2,422.2,108.9,422.2,76.1z"/>
	<path class="details-st3" d="M485.7,134.3c10.7,0,18.4-13.8,18.4-32.7c0-15-6.3-30.9-18-30.9c-6.8,0-13.9,5.5-16.5,17.7
		c1.2-14.3,3.8-26.1,7.8-35.1c5.4-12.2,13.6-19.8,24.4-22.5l0.2,0v-1l-0.3,0c-31.6,5.4-35,49.1-35,67.6
		C466.7,118.7,474.7,134.3,485.7,134.3z M469.7,99.9c0-14.3,6.1-25.2,14.1-25.2c11.2,0,17.7,12.2,17.7,33.6c0,11-4.6,22.6-13.1,22.6
		C477.4,130.9,469.7,114.6,469.7,99.9z"/>
	<path class="details-st3" d="M514.4,83.4c1.7,0,2.8-1.9,2.8-4.6c0-2.8-1.1-4.6-2.8-4.6c-1.6,0-2.8,2-2.8,4.6
		C511.6,81.4,512.8,83.4,514.4,83.4z"/>
	<path class="details-st3" d="M560.9,97.6h-1l-2.9,30.3H529l18.3-31.4c8.9-15.4,12.7-26.5,12.7-37.3c0-17.7-6.6-29.5-16.4-29.5
		c-8.1,0-13.1,9.5-15.1,18.2l-1.8-16.7h-1v45.4h2.3v-0.2c0-21.5,4.7-44.7,14.9-44.7c7.5,0,13.4,12,13.4,27.4
		c0,12.2-3.6,24.2-11.4,37.7l-20.3,35.2l0,0.1v0.8h36.4V97.6z"/>
	<polygon class="details-st3" points="584,44.4 584,122.8 565.9,131.8 565.7,131.9 565.7,132.8 585.5,129.1 602.8,132.8 603.1,132.8 
		603.1,131.9 587,122.8 587,29.6 586.1,29.6 565.4,86.1 566.2,86.8 	"/>
	<polygon class="details-st3" points="21.4,279.8 21.3,279.9 21.3,280.8 41.1,277.1 58.3,280.8 58.6,280.8 58.6,279.9 42.6,270.8 
		42.6,177.6 41.7,177.6 20.9,234.1 21.7,234.8 39.6,192.4 39.6,270.8 	"/>
	<path class="details-st3" d="M100.8,249.5c0-15-6.3-30.9-18-30.9c-6.8,0-13.9,5.5-16.5,17.7c1.2-14.3,3.8-26.1,7.8-35.1
		c5.4-12.2,13.6-19.8,24.4-22.5l0.2,0v-1l-0.3,0c-31.6,5.4-35,49.1-35,67.6c0,21.4,8,36.9,19,36.9C93,282.3,100.8,268.5,100.8,249.5
		z M85.1,278.9c-11,0-18.7-16.4-18.7-31.1c0-14.3,6.1-25.2,14.1-25.2c11.2,0,17.7,12.2,17.7,33.6C98.1,267.3,93.5,278.9,85.1,278.9z
		"/>
	<path class="details-st3" d="M111,282.3c1.7,0,2.8-1.9,2.8-4.6c0-2.8-1.1-4.6-2.8-4.6c-1.6,0-2.8,2-2.8,4.6
		C108.3,280.2,109.5,282.3,111,282.3z"/>
	<path class="details-st3" d="M141.5,177.6c-12,0-20,21.7-20,54.1c0,29.8,8,50.6,19.5,50.6c10.7,0,19.3-24.4,19.3-54.4
		C160.3,202.9,153.8,177.6,141.5,177.6z M157.4,236.6c0,19.6-4.6,40.7-14.7,40.7c-11.4,0-18.4-20.3-18.4-53.1
		c0-26.6,5.6-41.8,15.4-41.8C150.9,182.3,157.4,202.1,157.4,236.6z"/>
	<path class="details-st3" d="M188.4,177.6c-12,0-20,21.7-20,54.1c0,29.8,8,50.6,19.5,50.6c10.7,0,19.3-24.4,19.3-54.4
		C207.2,202.9,200.7,177.6,188.4,177.6z M204.3,236.6c0,19.6-4.6,40.7-14.7,40.7c-11.4,0-18.4-20.3-18.4-53.1
		c0-26.6,5.6-41.8,15.4-41.8C197.8,182.3,204.3,202.1,204.3,236.6z"/>
	<path class="details-st3" d="M241.8,231.8l33.9-0.3c0.3,0,1-0.2,1.2-0.8c0.3-0.8,0.5-2.2,0.5-3.3c0-0.6-0.5-1.1-0.9-1.1h-34.9
		c-0.3,0-0.9,0.4-1.1,1c-0.4,1.1-0.5,2.8-0.5,3.3C239.9,231.5,240.9,231.8,241.8,231.8z"/>
	<path class="details-st3" d="M346,245.6h-1l-2.9,30.3h-27.9l18.3-31.4c8.9-15.4,12.7-26.5,12.7-37.3c0-17.7-6.6-29.5-16.4-29.5
		c-8.1,0-13.1,9.5-15.1,18.2l-1.8-16.7h-1v45.4h2.3v-0.2c0-21.5,4.7-44.7,14.9-44.7c7.5,0,13.4,12,13.4,27.4
		c0,12.2-3.6,24.2-11.4,37.7l-20.3,35.2l0,0.1v0.8H346V245.6z"/>
	<polygon class="details-st3" points="371.3,177.6 350.6,234.1 351.3,234.8 369.2,192.4 369.2,270.8 351,279.8 350.9,279.9 350.9,280.8 
		370.7,277.1 388,280.8 388.3,280.8 388.3,279.9 372.2,270.8 372.2,177.6 	"/>
	<path class="details-st3" d="M395,282.3c1.7,0,2.8-1.9,2.8-4.6c0-2.8-1.1-4.6-2.8-4.6c-1.6,0-2.8,2-2.8,4.6
		C392.2,280.2,393.5,282.3,395,282.3z"/>
	<path class="details-st3" d="M425,282.3c10.7,0,19.3-24.4,19.3-54.4c0-25-6.5-50.2-18.8-50.2c-12,0-20,21.7-20,54.1
		C405.5,261.5,413.5,282.3,425,282.3z M408.2,224.1c0-26.6,5.6-41.8,15.4-41.8c11.3,0,17.7,19.8,17.7,54.3
		c0,19.6-4.6,40.7-14.7,40.7C415.3,277.2,408.2,256.9,408.2,224.1z"/>
	<path class="details-st3" d="M471.9,282.3c10.7,0,19.3-24.4,19.3-54.4c0-25-6.5-50.2-18.8-50.2c-12,0-20,21.7-20,54.1
		C452.4,261.5,460.4,282.3,471.9,282.3z M455.1,224.1c0-26.6,5.6-41.8,15.4-41.8c11.3,0,17.7,19.8,17.7,54.3
		c0,19.6-4.6,40.7-14.7,40.7C462.2,277.2,455.1,256.9,455.1,224.1z"/>
	<path class="details-st3" d="M524.4,293.2c0.9,0,1.9-1.5,2.3-2.9c1.6-5.9,8.7-38.8,15.6-70.7c3.6-16.8,7.4-34.1,10.3-47.5
		c0.6-2.7,0.5-3.3,0.2-3.6c-0.1-0.1-0.3-0.2-0.5-0.2c-0.7,0-2.1,1.5-2.3,2.2l0,0c-3,13.8-6.1,28.2-9.1,42.1
		c-5.6,25.7-11.3,52.3-17,77.6c-0.4,1.9-0.3,2.5-0.1,2.8C524.1,293.2,524.3,293.2,524.4,293.2z"/>
	<polygon class="details-st3" points="626.2,181.1 629.2,213.7 629.2,213.9 630.1,213.9 630.1,179.1 583,179.1 583,180 596.5,186.6 
		596.5,273.1 583,279.9 583,280.8 631.8,280.8 631.8,239.9 630.8,239.9 627.4,278.9 599.6,278.9 599.6,228.1 616,228.1 621.3,252.2 
		622.1,251.5 619.7,226.9 622,206.7 622,206.6 621.2,205.6 616,226.1 599.6,226.1 599.6,181.1 	"/>
	<path class="details-st3" d="M663.2,280.8v-1l-12.1-9.6l0-35.2c2.3-13.1,5.8-18,13.1-18h0.9v-7.4l-0.2,0c0,0-0.8-0.2-1.3-0.2c0,0,0,0,0,0
		c-5.4,0.3-10.5,10.3-12.5,20.4v-18.7h-11.3v2.9h8.3v56.2l-11.2,9.6v1l12.7-3.8L663.2,280.8z"/>
	<path class="details-st3" d="M684.8,191.9c1.7,0,2.8-1.9,2.8-4.6s-1.1-4.6-2.8-4.6c-1.6,0-2.8,2-2.8,4.6S683.2,191.9,684.8,191.9z"/>
	<ellipse class="details-st3" cx="703.2" cy="187.3" rx="2.8" ry="4.6"/>
	<path class="details-st3" d="M693.7,282.3c10.2,0,18.4-17.1,18.4-38.1c0-9.1-1.6-17.6-4.6-23.9c-3.3-7-7.9-10.7-13.4-10.7
		c-11.5,0-19.2,15-19.2,37.4C675,267.8,682.7,282.3,693.7,282.3z M677.3,239.8c0-18.4,7.2-26.8,13.9-26.8
		c11.1,0,18.3,15.2,18.3,38.8c0,13.1-5,26.7-13.3,26.7C685.3,278.4,677.3,262.2,677.3,239.8z"/>
	<polygon class="details-st3" points="730,270.3 719.5,279.9 719.5,280.9 731.6,277.1 748.4,280.8 748.4,279.9 733.1,270.3 733.1,215.8 
		748.4,217.2 748.4,211.2 733.1,212.4 733.1,181.8 750.5,181.8 750.5,179.1 730,179.1 730,212.6 717.8,213.5 717.8,214.4 730,215.6 
			"/>
	<polygon class="details-st3" points="765.8,270.3 755.2,279.9 755.2,280.9 767.3,277.1 784.2,280.8 784.2,279.9 768.8,270.3 768.8,215.8 
		784.1,217.2 784.1,211.2 768.8,212.4 768.8,181.8 786.2,181.8 786.2,179.1 765.8,179.1 765.8,212.6 753.5,213.5 753.5,214.4 
		765.8,215.6 	"/>
	<path class="details-st3" d="M816.4,280.9v-1l-10.9-9.6v-40.4c3.7-13.1,7.7-15.8,13.1-15.8c6.7,0,10.9,9.6,10.9,25.2v31l-10.3,9.6v1
		l11.8-3.8l15,3.7l0.3,0.1v-1l-13.8-9.6v-35c0-15.6-5.2-25.7-13.3-25.7c-6.5,0-11.3,6-13.8,16.9v-15.3h-13.6v2.9h10.6v56.2
		l-13.1,9.5l-0.1,0.1v1l14.7-3.8L816.4,280.9z"/>
	<path class="details-st3" d="M855.6,256.6c0,15.8,4.6,25.7,12,25.7c6.5,0,11.3-6,13.8-16.9v15.5l13.5-8.7l0.1-0.1v-0.9l-10.6,1.9v-61.7
		h-10.4v2.9h7.4V262c-3.6,13.1-7.7,15.8-13.1,15.8c-5.9,0-9.7-9-9.7-22.8v-43.7h-10.2v2.9h7.2V256.6z"/>
	<path class="details-st3" d="M926.2,280.9v-1l-10.9-9.6v-40.4c3.6-13.1,7.7-15.8,13.1-15.8c6.7,0,10.9,9.6,10.9,25.2v31l-10.3,9.6v1
		l11.8-3.8l15,3.7l0.3,0.1v-1l-13.8-9.6v-35c0-15.6-5.2-25.7-13.3-25.7c-6.5,0-11.3,6-13.8,16.9v-15.3h-13.6v2.9h10.6v56.2
		l-13.1,9.5l-0.1,0.1v1l14.7-3.8L926.2,280.9z"/>
	<path class="details-st3" d="M978.1,271c0.1,0,0.3,0,0.5,0l-13.6,8.8l-0.1,0.1v0.9h17.7c6.6,0,10.7,5,10.7,13c0,8.7-6.6,16.9-13.6,16.9
		c-5.4,0-10.5-2.2-15.4-6.8l-0.4-0.4v1.5l0.1,0.1c0.5,0.4,1,0.9,1.5,1.3c3.5,3.2,7.2,6.5,15.2,6.5c9.3,0,16.1-8.7,16.1-20.6
		c0-10.4-6.6-16.1-12.9-16.1h-10.3l9.8-6.8c6.8-4.7,11-16,11-29.5c0-10.7-3.7-21-9.3-25.8h8.9v-2.9h-15.9
		c-10.4,0-17.4,12.4-17.4,30.9C960.7,260.2,969.6,271,978.1,271z M963.7,235.7c0-13,5-22.5,11.9-22.5c7.8,0,16.1,13.2,16.1,32.9
		c0,9.5-4.6,22.8-12.2,22.8C971,269,963.7,253.5,963.7,235.7z"/>
	<path class="details-st3" d="M1049.9,282.3c10.7,0,19.3-24.4,19.3-54.4c0-25-6.5-50.2-18.8-50.2c-12,0-20,21.7-20,54.1
		C1030.4,261.5,1038.4,282.3,1049.9,282.3z M1033.1,224.1c0-26.6,5.6-41.8,15.4-41.8c11.3,0,17.7,19.8,17.7,54.3
		c0,19.6-4.6,40.7-14.7,40.7C1040.2,277.2,1033.1,256.9,1033.1,224.1z"/>
	<path class="details-st3" d="M1096.6,282.3c10.7,0,18.4-13.8,18.4-32.7c0-15-6.3-30.9-18-30.9c-6.8,0-13.9,5.5-16.5,17.8
		c1.2-14.3,3.8-26.1,7.8-35.1c5.4-12.2,13.6-19.8,24.4-22.5l0.2,0v-1l-0.3,0c-31.6,5.4-35,49.1-35,67.6
		C1077.6,266.7,1085.6,282.3,1096.6,282.3z M1080.6,247.9c0-14.3,6.1-25.2,14.1-25.2c11.2,0,17.7,12.2,17.7,33.6
		c0,11-4.6,22.6-13.1,22.6C1088.3,278.9,1080.6,262.6,1080.6,247.9z"/>
	<path class="details-st3" d="M1125.3,282.3c1.7,0,2.8-1.9,2.8-4.6c0-2.8-1.1-4.6-2.8-4.6c-1.6,0-2.8,2-2.8,4.6
		C1122.5,280.2,1123.7,282.3,1125.3,282.3z"/>
	<path class="details-st3" d="M1155.3,282.3c10.7,0,19.3-24.4,19.3-54.4c0-25-6.5-50.2-18.8-50.2c-12,0-20,21.7-20,54.1
		C1135.8,261.5,1143.8,282.3,1155.3,282.3z M1138.5,224.1c0-26.6,5.6-41.8,15.4-41.8c11.3,0,17.7,19.8,17.7,54.3
		c0,19.6-4.6,40.7-14.7,40.7C1145.6,277.2,1138.5,256.9,1138.5,224.1z"/>
	<path class="details-st3" d="M1196.8,282.3c12.2,0,20.8-14.7,20.8-35.8c0-16-6.1-33.1-17.4-33.1c-7.9,0-13.3,5.2-16.4,15.9l2.8-45.4h23.7
		l2.4,24.6h0.9v-29.5h-28.5l-3.6,60.5l0,0.3h0.8l0-0.2c2.2-9.7,6.3-22.7,16.8-22.7c11.1,0,15.2,18.1,15.2,29.5
		c0,19.1-7.1,32.4-17.4,32.4c-9.9,0-14.3-11.2-16.1-17.8l-0.1-0.5l-0.8,1l0,0.1C1182.4,271.3,1186.5,282.3,1196.8,282.3z"/>
	<path class="details-st3" d="M52.2,325.6c-8.3,0-15.3,5.5-20.3,15.8c-4.7,9.7-7.2,23.3-7.2,38.3c0,29.8,11,50.6,26.8,50.6
		c14.6,0,26.4-24.4,26.4-54.4C77.9,350.9,69.1,325.6,52.2,325.6z M74.9,384.9c0,19.6-7.9,40.8-20.6,40.8c-16,0-26.8-21.7-26.8-53.9
		c0-25.4,8.5-41.8,21.7-41.8C65.1,330,74.9,351,74.9,384.9z"/>
	<path class="details-st3" d="M116.1,428.8l13.5-8.7l0.1-0.1v-0.9l-10.6,1.9v-61.7h-10.4v2.9h7.4V410c-3.6,13.1-7.7,15.8-13.1,15.8
		c-5.9,0-9.7-9-9.7-22.8v-43.7H83.2v2.9h7.2v42.5c0,15.8,4.6,25.7,12,25.7c6.5,0,11.3-6,13.8-16.9V428.8z"/>
	<path class="details-st3" d="M162.1,423.3l0.1-0.1l-0.4-1.1l-0.3,0.5c-1.2,2-3.4,4.4-7.7,4.4c-4.5,0-7.2-7.5-7.2-19.9v-43.1l11.4,1.3v-5.9
		l-11.4,1v-17.7h-3v18l-9.7,0.8v1l9.7,1.2v42.7c0,15.9,3.3,24,9.7,24C157.8,430.3,160.5,426.3,162.1,423.3z"/>
	<path class="details-st3" d="M213.5,419.3l0.1-0.1v-1l-11,2.7v-93.9h-11.8v2.7h8.8v31.7c-3-2.6-6.2-3.9-9.7-3.9c-13,0-20.3,19.1-20.9,37.9
		c-0.4,13,3.2,25.7,8.9,31.5c2.1,2.2,4.4,3.3,6.7,3.3c8.4,0,13.1-8.8,14.9-12.9V429L213.5,419.3z M187.7,425.9
		c-9.8,0-15.9-13.8-15.9-36.1c0-16.7,6.4-28.9,15.3-28.9c4.9,0,9.6,3.1,12.5,8.4V415C197.9,419.1,194.2,425.9,187.7,425.9z"/>
	<path class="details-st3" d="M257.6,392.2c0-9.1-1.6-17.6-4.6-23.9c-3.3-7-7.9-10.7-13.4-10.7c-11.5,0-19.2,15-19.2,37.4
		c0,20.8,7.7,35.3,18.7,35.3C249.3,430.3,257.6,413.2,257.6,392.2z M241.7,426.4c-11,0-18.9-16.2-18.9-38.6
		c0-18.4,7.2-26.8,13.9-26.8c11.1,0,18.3,15.2,18.3,38.8C255,412.8,250,426.4,241.7,426.4z"/>
	<path class="details-st3" d="M265.9,395c0,20.8,7.7,35.3,18.7,35.3c10.2,0,18.4-17.1,18.4-38.1c0-9.1-1.6-17.6-4.6-23.9
		c-3.3-7-7.9-10.7-13.4-10.7C273.6,357.6,265.9,372.6,265.9,395z M282.1,360.9c11.1,0,18.3,15.2,18.3,38.8c0,13.1-5,26.7-13.3,26.7
		c-11,0-18.9-16.2-18.9-38.6C268.2,369.3,275.4,360.9,282.1,360.9z"/>
	<path class="details-st3" d="M335,428.8v-1l-12.1-9.6l0-35.2c2.3-13.1,5.8-18,13.1-18h0.9v-7.4l-0.2,0c0,0-0.8-0.2-1.3-0.2c0,0,0,0,0,0
		c-5.4,0.3-10.5,10.3-12.5,20.4v-18.7h-11.3v2.9h8.3v56.2l-11.2,9.6v1l12.7-3.8L335,428.8z"/>
	<path class="details-st3" d="M388.1,374.2h-34.9c-0.3,0-0.9,0.4-1.1,1c-0.4,1.1-0.5,2.8-0.5,3.3c0,0.9,1,1.3,1.9,1.3l33.9-0.3
		c0.3,0,1-0.2,1.2-0.8c0.3-0.8,0.5-2.2,0.5-3.3C389,374.7,388.6,374.2,388.1,374.2z"/>
	<path class="details-st3" d="M419.5,428.8l0.3,0.1v-1l-12.6-9.9l6.2-31h22l6.9,31l-12.7,9.9v1l14.3-3.8l14.1,3.8v-1l-12.4-10l-20.8-94.2
		l-0.3-1.2l-18.9,95.3l-13.2,9.9v1l13.2-3.8L419.5,428.8z M413.7,385l9.9-50.4l11.2,50.4H413.7z"/>
	<path class="details-st3" d="M506.1,420.1l0.1-0.1v-0.9l-10.6,1.9v-61.7h-10.4v2.9h7.4V410c-3.6,13.1-7.7,15.8-13.1,15.8
		c-5.9,0-9.7-9-9.7-22.8v-43.7h-10.2v2.9h7.2v42.5c0,15.8,4.6,25.7,12,25.7c6.5,0,11.3-6,13.8-16.9v15.5L506.1,420.1z"/>
	<path class="details-st3" d="M525.2,394.2c0.6,0.3,1.1,0.7,1.6,1c0.4,0.2,0.8,0.5,1.2,0.7c4.9,3,12.2,7.6,13.2,15.8
		c0.6,5.1-0.5,9.7-3.2,12.7c-1.8,2.1-4.3,3.2-7.1,3.2c-8.4,0-14.7-10-15.6-24.8c-0.2-2.3-0.2-4.2-0.2-5v-0.2h-2.1l-0.6,32.3h0.9
		l2-9.5c2.9,4.8,7.1,10,13.4,10c7.1,0,14.7-6.3,14.7-20.1c0-10.4-7.6-15-12.6-18.1c-0.3-0.2-0.7-0.4-1-0.6l-1-0.6
		c-5.1-3.1-12.8-7.7-13.9-14.7c-0.7-4.6,0.5-9.4,3.1-12.4c1.9-2.2,4.5-3.4,7.4-3.4c6.4,0,12.8,9.1,14.1,20l0.7,6.1h2.1l-1.3-28.6
		h-0.9l-1.2,8.5c-3-4.1-7.3-8.7-11.9-8.7c-7,0-14.1,6.4-14.1,18.8C513.2,386.7,519.9,390.9,525.2,394.2z"/>
	<path class="details-st3" d="M552.1,397.5l-0.6,32.3h0.9l2-9.5c2.9,4.8,7.1,10,13.4,10c7.1,0,14.7-6.3,14.7-20.1c0-10.4-7.6-15-12.6-18.1
		c-0.3-0.2-0.7-0.4-1-0.6l-1-0.6c-5.1-3.1-12.8-7.7-13.9-14.7c-0.7-4.6,0.5-9.4,3.1-12.4c1.9-2.2,4.5-3.4,7.4-3.4
		c6.4,0,12.8,9.1,14.1,20l0.7,6.1h2.1l-1.3-28.6h-0.9l-1.2,8.5c-3-4.1-7.3-8.7-11.9-8.7c-7,0-14.1,6.4-14.1,18.8
		c0,10.3,6.7,14.5,12,17.9c0.6,0.3,1.1,0.7,1.6,1c0.4,0.2,0.8,0.5,1.2,0.7c4.9,3,12.2,7.6,13.2,15.8c0.6,5.1-0.5,9.7-3.2,12.7
		c-1.8,2.1-4.3,3.2-7.1,3.2c-8.4,0-14.7-10-15.6-24.8c-0.2-2.3-0.2-4.2-0.2-5v-0.2H552.1z"/>
	<path class="details-st3" d="M607.7,430.3c4.5,0,7.2-4,8.9-7l0.1-0.1l-0.4-1.1l-0.3,0.5c-1.2,2-3.4,4.4-7.7,4.4c-4.5,0-7.2-7.5-7.2-19.9
		v-43.1l11.4,1.3v-5.9l-11.4,1v-17.7h-3v18l-9.7,0.8v1l9.7,1.2v42.7C598,422.2,601.3,430.3,607.7,430.3z"/>
	<path class="details-st3" d="M642.1,430.3c8,0,12-6.9,15.8-14.6l0-0.1l-0.4-1.1l-0.3,0.5c-4,7.7-8.1,11.3-12.8,11.3
		c-10.5,0-18.1-16.6-18.1-39.5v-0.6l30.3,2l0.3,0l0-0.3c0.4-11.3-2.5-21.7-7.6-26.9c-2.2-2.3-4.7-3.5-7.2-3.5
		c-11,0-18.1,14.7-18.1,37.4C623.9,419.2,633.3,430.3,642.1,430.3z M626.3,385.2c0.5-14,5.8-24.1,12.8-24.1
		c6.3,0,11.7,7.1,13.9,18.2c0.2,0.6,0.3,2.5,0.3,3.6L626.3,385.2z"/>
	<polygon class="details-st3" points="678,418.3 662.6,427.8 662.5,427.9 662.5,428.8 679.5,425.1 696.8,428.8 697.1,428.8 697.1,427.9 
		681,418.3 681,327.1 666.4,327.1 666.4,329.8 678,329.8 	"/>
	<polygon class="details-st3" points="700.2,427.8 700.1,427.9 700.1,428.8 717.1,425.1 734.3,428.8 734.6,428.8 734.6,427.9 718.6,418.3 
		718.6,327.1 704,327.1 704,329.8 715.5,329.8 715.5,418.3 	"/>
	<path class="details-st3" d="M784.2,420.1l0.1-0.1v-0.9l-10.6,1.9v-61.7h-10.4v2.9h7.4V410c-3.6,13.1-7.7,15.8-13.1,15.8
		c-5.9,0-9.7-9-9.7-22.8v-43.7h-10.2v2.9h7.2v42.5c0,15.8,4.6,25.7,12,25.7c6.5,0,11.3-6,13.8-16.9v15.5L784.2,420.1z"/>
	<path class="details-st3" d="M815.6,428.9v-1l-10.9-9.6v-40.4c3.7-13.1,7.7-15.8,13.1-15.8c6.7,0,10.9,9.6,10.9,25.2v31l-10.3,9.6v1
		l11.8-3.8l15,3.7l0.3,0.1v-1l-13.8-9.6v-35c0-15.6-5.2-25.7-13.3-25.7c-6.5,0-11.3,6-13.8,16.9v-15.3H791v2.9h10.6v56.2l-13.1,9.5
		l-0.1,0.1v1l14.7-3.8L815.6,428.9z"/>
	<path class="details-st3" d="M873.2,424.2h-10.3l9.8-6.8c6.8-4.7,11-16,11-29.5c0-10.7-3.7-21-9.3-25.8h8.9v-2.9h-15.9
		c-10.4,0-17.4,12.4-17.4,30.9c0,18.1,8.8,28.9,17.4,28.9c0.1,0,0.3,0,0.5,0l-13.6,8.8l-0.1,0.1v0.9h17.7c6.6,0,10.7,5,10.7,13
		c0,8.7-6.6,16.9-13.6,16.9c-5.4,0-10.5-2.2-15.4-6.8l-0.4-0.4v1.5l0.1,0.1c0.5,0.4,1,0.9,1.5,1.3c3.5,3.2,7.2,6.5,15.2,6.5
		c9.3,0,16.1-8.7,16.1-20.6C886.1,429.9,879.5,424.2,873.2,424.2z M868.8,417c-8.4,0-15.8-15.5-15.8-33.2c0-13,5-22.5,11.9-22.5
		c7.8,0,16.1,13.2,16.1,32.9C881,403.7,876.4,417,868.8,417z"/>
	<path class="details-st3" d="M950.3,413.3v15.5l13.5-8.7l0.1-0.1v-0.9l-10.6,1.9v-61.7h-10.4v2.9h7.4V410c-3.6,13.1-7.7,15.8-13.1,15.8
		c-5.9,0-9.7-9-9.7-22.8v-43.7h-10.2v2.9h7.2v42.5c0,15.8,4.6,25.7,12,25.7C943,430.3,947.8,424.3,950.3,413.3z"/>
	<path class="details-st3" d="M1025.1,428.8v-1l-13.8-9.6v-35c0-15.6-5.2-25.7-13.3-25.7c-6.5,0-11.3,6-13.8,16.9v-15.3h-13.6v2.9h10.6v56.2
		l-13.1,9.5l-0.1,0.1v1l14.7-3.8l12.4,3.8v-1l-10.9-9.6v-40.4c3.7-13.1,7.7-15.8,13.1-15.8c6.7,0,10.9,9.6,10.9,25.2v31l-10.3,9.6v1
		l11.8-3.8l15,3.7L1025.1,428.8z"/>
	<path class="details-st3" d="M1044.9,430.3c8.4,0,13.1-8.8,14.9-12.9V429l13.9-9.7l0.1-0.1v-1l-11,2.7v-93.9h-11.8v2.7h8.8v31.7
		c-3-2.6-6.2-3.9-9.7-3.9c-13,0-20.3,19.1-20.9,37.9c-0.4,13,3.2,25.7,8.9,31.5C1040.3,429.2,1042.6,430.3,1044.9,430.3z
		 M1048,425.9c-9.8,0-15.9-13.8-15.9-36.1c0-16.7,6.4-28.9,15.3-28.9c4.9,0,9.6,3.1,12.5,8.4V415
		C1058.2,419.1,1054.4,425.9,1048,425.9z"/>
	<path class="details-st3" d="M1107.3,386.7v43.6h0.9l1.6-12.3c4.1,6.2,9.5,12.3,17.8,12.3c9.6,0,19.8-7.1,19.8-27
		c0-15.7-10.5-23.3-17.5-28.3c-0.5-0.4-1-0.7-1.4-1l-0.6-0.5c-6.9-5-16.3-11.8-16.3-24.3c0-14.1,5-21.3,14.7-21.3
		c7.8,0,14,11.4,16.2,29.7c0.4,2.7,0.9,8.5,0.9,8.6l0,0.2h1.9v-40.9h-1l-1.5,15.9c-3.5-7.9-9.6-15.9-16.6-15.9
		c-11.1,0-17.5,9-17.5,24.8c0,15,9.6,22.2,16.6,27.5l0.9,0.6c0.4,0.3,0.9,0.7,1.4,1c6.6,4.9,16.7,12.3,16.7,25.2
		c0,14.8-5.7,23.3-15.5,23.3c-10.5,0-18.4-14-19.3-33.9c-0.2-3.7-0.3-6.2-0.3-7.2v-0.2H1107.3z"/>
	<polygon class="details-st3" points="1180.9,359.1 1180.9,360.1 1189.7,369.2 1177,422.7 1164,369 1172.2,360.1 1172.2,359.1 1162.2,363.8 
		1152.5,359.1 1152.5,360.1 1160.7,369.1 1175.1,430.5 1167.8,460.4 1169,460.4 1190.9,369.2 1198.7,360.2 1198.8,360.1 
		1198.8,359.1 1190.6,363.8 	"/>
	<path class="details-st3" d="M1271.7,383.2c0-15.6-5.2-25.7-13.3-25.7c-6.7,0-12,6.5-14.3,17.6c-1.6-11-6.3-17.6-12.8-17.6
		c-6.5,0-11.3,6-13.8,16.9v-15.3h-13.6v2.9h10.6v56.2l-13.1,9.5l-0.1,0.1v1l14.7-3.8l12.4,3.8v-1l-10.9-9.6v-40.4
		c3.6-13.1,7.7-15.8,13.1-15.8c6.7,0,10.9,9.6,10.9,25.2v31l-10.3,9.6v1l11.8-3.8l12.3,3.8v-1l-10.8-9.6v-35.1c0-2-0.1-4.1-0.3-5.9
		c3.6-12.8,7.7-15.3,13.5-15.3c6.7,0,10.9,9.6,10.9,25.2v31l-10.3,9.6v1l11.8-3.8l15,3.7l0.3,0.1v-1l-13.8-9.6V383.2z"/>
	<path class="details-st3" d="M1318,357.6c-8.3,0-13.1,8.9-14.9,13.1v-11.4h-14v2.9h11v87.8l-11,9.6v1l12.8-3.8l17.5,3.7l0.3,0.1v-1
		l-16.5-9.6v-23.4c2.1,1.8,5.4,3.7,9.7,3.7c5.9,0,11-3.9,14.9-11.3c3.6-6.9,5.7-16.3,6-26.5c0.4-13.1-3.2-25.8-9-31.7
		C1322.6,358.7,1320.4,357.6,1318,357.6z M1315.6,427.1c-4.9,0-9.6-3.1-12.5-8.4V373c1.7-4.1,5.4-10.9,11.9-10.9
		c9.8,0,15.9,13.8,15.9,36.1C1330.9,414.9,1324.5,427.1,1315.6,427.1z"/>
	<path class="details-st3" d="M1361.1,357.6c-11.5,0-19.2,15-19.2,37.4c0,20.8,7.7,35.3,18.7,35.3c10.2,0,18.4-17.1,18.4-38.1
		c0-9.1-1.6-17.6-4.6-23.9C1371.2,361.3,1366.6,357.6,1361.1,357.6z M1376.5,399.7c0,13.1-5,26.7-13.3,26.7
		c-11,0-18.9-16.2-18.9-38.6c0-18.4,7.2-26.8,13.9-26.8C1369.3,360.9,1376.5,376.2,1376.5,399.7z"/>
	<path class="details-st3" d="M1405.5,392.1c-0.3-0.2-0.7-0.4-1-0.6l-1-0.6c-5.1-3.1-12.8-7.7-13.9-14.7c-0.7-4.6,0.5-9.4,3.1-12.4
		c1.9-2.2,4.5-3.4,7.4-3.4c6.4,0,12.8,9.1,14.1,20l0.7,6.1h2.1l-1.3-28.6h-0.9l-1.2,8.5c-3-4.1-7.3-8.7-11.9-8.7
		c-7,0-14.1,6.4-14.1,18.8c0,10.3,6.7,14.5,12,17.9c0.6,0.3,1.1,0.7,1.6,1c0.4,0.2,0.8,0.5,1.2,0.7c4.9,3,12.2,7.6,13.2,15.8
		c0.6,5.1-0.5,9.7-3.2,12.7c-1.8,2.1-4.3,3.2-7.1,3.2c-8.4,0-14.7-10-15.6-24.8c-0.2-2.3-0.2-4.2-0.2-5v-0.2h-2.1l-0.6,32.3h0.9
		l2-9.5c2.9,4.8,7.1,10,13.4,10c7.1,0,14.7-6.3,14.7-20.1C1418.1,399.8,1410.5,395.1,1405.5,392.1z"/>
	<path class="details-st3" d="M1440.6,334.8c1.7,0,2.8-1.9,2.8-4.6c0-2.8-1.1-4.6-2.8-4.6c-1.6,0-2.8,2-2.8,4.6
		C1437.8,332.8,1439.1,334.8,1440.6,334.8z"/>
	<polygon class="details-st3" points="1442.2,359.3 1427.7,359.3 1427.7,362.1 1439.2,362.1 1439.2,418.3 1423.9,427.8 1423.7,427.9 
		1423.7,428.8 1440.7,425.1 1458,428.8 1458.3,428.8 1458.3,427.9 1442.2,418.3 	"/>
	<path class="details-st3" d="M1497.4,359.3H1487v2.9h7.4V410c-3.6,13.1-7.7,15.8-13.1,15.8c-5.9,0-9.7-9-9.7-22.8v-43.7h-10.2v2.9h7.2v42.5
		c0,15.8,4.6,25.7,12,25.7c6.5,0,11.3-6,13.8-16.9v15.5l13.5-8.7l0.1-0.1v-0.9l-10.6,1.9V359.3z"/>
	<path class="details-st3" d="M1582.7,418.3v-35c0-15.6-5.2-25.7-13.3-25.7c-6.7,0-12,6.5-14.3,17.6c-1.6-11-6.3-17.6-12.8-17.6
		c-6.5,0-11.3,6-13.8,16.9v-15.3h-13.6v2.9h10.6v56.2l-13.1,9.5l-0.1,0.1v1l14.7-3.8l12.4,3.8v-1l-10.9-9.6v-40.4
		c3.6-13.1,7.7-15.8,13.1-15.8c6.7,0,10.9,9.6,10.9,25.2v31l-10.3,9.6v1l11.8-3.8l12.3,3.8v-1l-10.8-9.6v-35.1c0-2-0.1-4.1-0.3-5.9
		c3.6-12.8,7.7-15.3,13.5-15.3c6.7,0,10.9,9.6,10.9,25.2v31l-10.3,9.6v1l11.8-3.8l15,3.7l0.3,0.1v-1L1582.7,418.3z"/>
	<polygon class="details-st3" points="22.7,476 34.6,482.6 34.6,566.5 21.5,575.9 21.5,576.8 36.3,573.1 54.6,576.8 54.6,575.9 37.7,566.4 
		37.7,523.9 53.7,523.9 59,548.2 59.8,547.5 57.5,522.9 59.7,502.7 59.7,502.6 59,501.6 53.7,521.9 37.7,521.9 37.7,477.1 61,477.1 
		64.2,511.6 64.2,511.8 65.1,511.8 65.1,475.1 22.7,475.1 	"/>
	<polygon class="details-st3" points="89.2,475.1 74.6,475.1 74.6,477.8 86.2,477.8 86.2,566.3 70.8,575.8 70.7,575.9 70.7,576.8 
		87.7,573.1 104.9,576.8 105.2,576.8 105.2,575.9 89.2,566.3 	"/>
	<path class="details-st3" d="M130.1,505.6c-11.5,0-19.2,15-19.2,37.4c0,20.8,7.7,35.3,18.7,35.3c10.2,0,18.4-17.1,18.4-38.1
		c0-9.1-1.6-17.6-4.6-23.9C140.2,509.3,135.6,505.6,130.1,505.6z M145.4,547.7c0,13.1-5,26.7-13.3,26.7c-11,0-18.9-16.2-18.9-38.6
		c0-18.4,7.2-26.8,13.9-26.8C138.2,508.9,145.4,524.2,145.4,547.7z"/>
	<path class="details-st3" d="M185.8,532.8c0-17.3-4.6-27.2-12.6-27.2c-8.4,0-13,9.2-16.1,17.2l0,0.1l0.6,1.3l0.2-0.6
		c4-10,8.3-14.3,14.4-14.3c6.4,0,10.5,9.3,10.5,23.7v3.7l-25.1,10.5l-0.1,0l0,0.1c-0.9,2.3-1.8,7.3-1.8,11.5
		c0,9.7,3.5,19.4,11.4,19.4c6.5,0,12.8-5.2,15.6-12.9v13.1l15.1-10.7l0.1-0.1v-0.9l-12.2,2.9V532.8z M169.7,573.2
		c-5.1,0-12.5-6.4-12.5-17.9c0-0.9,0-1.8,0.1-2.5l25.5-15V563C180.5,568.9,175,573.2,169.7,573.2z"/>
	<path class="details-st3" d="M227.5,570.5c-1.2,2-3.4,4.4-7.7,4.4c-4.5,0-7.2-7.5-7.2-19.9v-43.1l11.4,1.3v-5.9l-11.4,1v-17.7h-3v18
		l-9.7,0.8v1l9.7,1.2v42.7c0,15.9,3.3,24,9.7,24c4.5,0,7.2-4,8.9-7l0.1-0.1l-0.4-1.1L227.5,570.5z"/>
	<ellipse class="details-st3" cx="249.7" cy="478.2" rx="2.8" ry="4.6"/>
	<polygon class="details-st3" points="251.3,507.3 236.8,507.3 236.8,510.1 248.3,510.1 248.3,566.3 232.9,575.8 232.8,575.9 232.8,576.8 
		249.8,573.1 267,576.8 267.3,576.8 267.3,575.9 251.3,566.3 	"/>
	<path class="details-st3" d="M313.6,531.2c0-15.6-5.2-25.7-13.3-25.7c-6.5,0-11.3,6-13.8,16.9v-15.3H273v2.9h10.6v56.2l-13.1,9.5l-0.1,0.1
		v1l14.7-3.8l12.4,3.8v-1l-10.9-9.6v-40.4c3.7-13.1,7.7-15.8,13.1-15.8c6.7,0,10.9,9.6,10.9,25.2v31l-10.3,9.6v1l11.8-3.8l15,3.7
		l0.3,0.1v-1l-13.8-9.6V531.2z"/>
	<path class="details-st3" d="M355.1,572.2h-10.3l9.8-6.8c6.8-4.7,11-16,11-29.5c0-10.7-3.7-21-9.3-25.8h8.9v-2.9h-15.9
		c-10.4,0-17.4,12.4-17.4,30.9c0,18.1,8.8,28.9,17.4,28.9c0.1,0,0.3,0,0.5,0l-13.6,8.8l-0.1,0.1v0.9h17.7c6.6,0,10.7,5,10.7,13
		c0,8.7-6.6,16.9-13.6,16.9c-5.4,0-10.5-2.2-15.4-6.8l-0.4-0.4v1.5l0.1,0.1c0.5,0.4,1,0.9,1.5,1.3c3.5,3.2,7.2,6.5,15.2,6.5
		c9.3,0,16.1-8.7,16.1-20.6C368,577.9,361.4,572.2,355.1,572.2z M350.8,565c-8.4,0-15.8-15.5-15.8-33.2c0-13,5-22.5,11.9-22.5
		c7.8,0,16.1,13.2,16.1,32.9C363,551.7,358.3,565,350.8,565z"/>
	<path class="details-st3" d="M544.4,478.2c0,2.6,1.2,4.6,2.8,4.6c1.7,0,2.8-1.9,2.8-4.6s-1.1-4.6-2.8-4.6
		C545.6,473.6,544.4,475.6,544.4,478.2z"/>
	<ellipse class="details-st3" cx="748.2" cy="478.2" rx="2.8" ry="4.6"/>
	<path class="details-st3" d="M839.5,517.2l7.8-9l0.1-0.1v-1l-8.2,4.7l-9.7-4.7v1l8.8,9.1l-4.9,20.6h-15.8l-5-20.8l8.1-8.9v-1l-10,4.7
		l-9.7-4.7v1l8.2,8.9l4.9,20.8h-32.5v-26l11.4,1.3v-5.9l-11.4,1v-17.7h-3v18l-9.7,0.8v1l9.7,1.2v26.2h-28.8v-30.5h-14.5v2.9h11.5
		v27.7h-37.4c-5-3.1-11.2-7.4-12.2-13.7c-0.7-4.6,0.5-9.4,3.1-12.4c1.9-2.2,4.5-3.4,7.4-3.4c6.4,0,12.8,9.1,14.1,20l0.7,6.1h2.1
		l-1.3-28.6h-0.9l-1.2,8.5c-3-4.1-7.3-8.7-11.9-8.7c-7,0-14.1,6.4-14.1,18.8c0,6.5,2.6,10.5,5.9,13.5h-30l0-6.7
		c2.3-13.1,5.8-18,13.1-18h0.9v-7.4l-0.2,0c0,0-0.8-0.2-1.3-0.2c0,0,0,0,0,0c-5.4,0.3-10.5,10.3-12.5,20.4v-18.7h-11.3v2.9h8.3v27.7
		h-47.4c0-1-0.1-2-0.1-3v-0.6l30.3,2l0.3,0l0-0.3c0.4-11.3-2.5-21.7-7.6-26.9c-2.2-2.3-4.7-3.5-7.2-3.5c-10.1,0-16.9,12.5-17.9,32.2
		h-17.6l4.8-20.6l7.7-9l0.1-0.1v-1l-8.1,4.7l-10.8-4.6v1l9.9,9.1l-4.8,20.6h-16.1l-4.9-20.6l9-9l0.1-0.1v-1l-11.1,4.6l-9.5-4.7v1
		l8.2,9.1l4.9,20.6h-31.4v-30.5h-14.5v2.9h11.5v27.7h-31.2v-6.6c0-15.6-5.2-25.7-13.3-25.7c-6.5,0-11.3,6-13.8,16.9v-15.3h-13.6v2.9
		h10.6v27.7h-30.8c0-1.7,0.1-3.5,0.1-5.4v-46l14.2-10.4l0.1-0.1v-1l-15.1,3.8l-13.8-3.8v1l12.8,10.4v50.9c0,0.2,0,0.3,0,0.5h-36.7
		c0-0.2,0-0.3,0-0.5v-51.9l14.1-9.4l0.1-0.1v-1l-15.8,3.8l-14.4-3.8v1l12.8,9.4v52.4c0,0,0,0,0,0h-14.5v8.4h14.8
		c1.5,21,8.8,32.1,21.5,32.1c11.3,0,17.6-10.3,19.3-32.1h31.2v20.1l-13.1,9.5l-0.1,0.1v1l14.7-3.8l12.4,3.8v-1l-10.9-9.6v-20.1h24
		v20.1l-10.3,9.6v1l11.8-3.8l15,3.7l0.3,0.1v-1l-13.8-9.6v-20.1h31.2v20.1l-15.4,9.5l-0.1,0.1v1l17-3.8l17.3,3.7l0.3,0.1v-1
		l-16.1-9.6v-20.1h33.3l8,33.7l0,0.2h0.7l7.9-33.9h19.5c0.8,22,9.7,32.1,18.1,32.1c8,0,12-6.9,15.8-14.6l0-0.1l-0.4-1.1l-0.3,0.5
		c-4,7.7-8.1,11.3-12.8,11.3c-8.7,0-15.4-11.3-17.4-28h46.8v20.1l-11.2,9.6v1l12.7-3.8l13.6,3.8v-1l-12.1-9.6l0-20.1h24l-0.6,31.6
		h0.9l2-9.5c2.9,4.8,7.1,10,13.4,10c7.1,0,14.7-6.3,14.7-20.1c0-5.3-2-9.1-4.6-12h25.7v20.1l-15.4,9.5l-0.1,0.1v1l17-3.8l17.3,3.7
		l0.3,0.1v-1l-16.1-9.6v-20.1h28.8v8.1c0,15.9,3.3,24,9.7,24c4.5,0,7.2-4,8.9-7l0.1-0.1l-0.4-1.1l-0.3,0.5c-1.2,2-3.4,4.4-7.7,4.4
		c-4.5,0-7.2-7.5-7.2-19.9v-8.8h34.5l7.6,32.3l-7.3,29.9h1.2l15-62.2h15.6v-8.4h-13.6L839.5,517.2z M451.5,546.2
		c-1.4,14.3-6.5,27-17.5,27c-10.1,0-16.7-9.9-18.3-27H451.5z M487.5,537.8v-11.9c3.6-13.1,7.7-15.8,13.1-15.8
		c6.7,0,10.9,9.6,10.9,25.2v2.5H487.5z M597.6,546.2l-6,25.5l-6.1-25.5H597.6z M620.6,533.2c0.5-14,5.8-24.1,12.8-24.1
		c6.3,0,11.7,7.1,13.9,18.2c0.2,0.6,0.3,2.5,0.3,3.6L620.6,533.2z M713.5,546.2c4.3,3,9,7.2,9.7,13.5c0.6,5.1-0.5,9.7-3.2,12.7
		c-1.8,2.1-4.3,3.2-7.1,3.2c-8.4,0-14.7-10-15.6-24.9c-0.2-2-0.2-3.5-0.2-4.5H713.5z M831.4,546.2l-5.8,24.5l-5.9-24.5H831.4z"/>
	<polygon class="details-st3" points="849.8,589.4 850.5,589.4 857.5,564.1 853.8,564.1 	"/>
	<path class="details-st3" d="M918.6,524.1c7.2-1.8,12-11.3,12-24.4c0-16.1-7.2-24.7-20.7-24.7h-25.2v0.9l13.1,6.6v86.5l-14.4,6.7v0.9h26.2
		c17.4,0,24.8-8.3,24.8-27.9C934.5,534,926.8,525.5,918.6,524.1z M931,548.9c0,17.7-6.5,26-20.6,26H901v-49.7h7.3
		C919.6,525.3,931,532.6,931,548.9z M927,499.8c0,21.7-10.6,23.5-20.6,23.5H901v-46.1h9.2C920.7,477.1,927,485.6,927,499.8z"/>
	<path class="details-st3" d="M974.6,562.9c-4,7.7-8.1,11.3-12.8,11.3c-10.5,0-18.1-16.6-18.1-39.5v-0.6l30.3,2l0.3,0l0-0.3
		c0.4-11.3-2.5-21.7-7.6-26.9c-2.2-2.3-4.7-3.5-7.2-3.5c-11,0-18.1,14.7-18.1,37.4c0,24.2,9.4,35.3,18.2,35.3c8,0,12-6.9,15.8-14.6
		l0-0.1l-0.4-1.1L974.6,562.9z M943.6,533.2c0.5-14,5.8-24.1,12.8-24.1c6.3,0,11.7,7.1,13.9,18.2c0.2,0.6,0.3,2.5,0.3,3.6
		L943.6,533.2z"/>
	<path class="details-st3" d="M1006.6,505.6C1006.6,505.6,1006.6,505.6,1006.6,505.6c-5.4,0.3-10.5,10.3-12.5,20.4v-18.7h-11.3v2.9h8.3v56.2
		l-11.2,9.6v1l12.7-3.8l13.6,3.8v-1l-12.1-9.6l0-35.2c2.3-13.1,5.8-18,13.1-18h0.9v-7.4l-0.2,0
		C1007.9,505.7,1007.1,505.6,1006.6,505.6z"/>
	<polygon class="details-st3" points="1033.8,475.1 1019.2,475.1 1019.2,477.8 1030.8,477.8 1030.8,566.3 1015.4,575.8 1015.3,575.9 
		1015.3,576.8 1032.3,573.1 1049.6,576.8 1049.9,576.8 1049.9,575.9 1033.8,566.3 	"/>
	<ellipse class="details-st3" cx="1069.7" cy="478.2" rx="2.8" ry="4.6"/>
	<polygon class="details-st3" points="1071.4,507.3 1056.9,507.3 1056.9,510.1 1068.3,510.1 1068.3,566.3 1053,575.8 1052.9,575.9 
		1052.9,576.8 1069.8,573.1 1087.1,576.8 1087.4,576.8 1087.4,575.9 1071.4,566.3 	"/>
	<path class="details-st3" d="M1133.7,531.2c0-15.6-5.2-25.7-13.3-25.7c-6.5,0-11.3,6-13.8,16.9v-15.3H1093v2.9h10.6v56.2l-13.1,9.5
		l-0.1,0.1v1l14.7-3.8l12.4,3.8v-1l-10.9-9.6v-40.4c3.7-13.1,7.7-15.8,13.1-15.8c6.7,0,10.9,9.6,10.9,25.2v31l-10.3,9.6v1l11.8-3.8
		l15,3.7l0.3,0.1v-1l-13.8-9.6V531.2z"/>
</g>
<rect x="473.2" y="263.4" class="st4" width="3.1" height="0"/>
</svg>
