<?xml version="1.0" encoding="UTF-8"?>
<svg width="1128px" height="607px" viewBox="0 0 1128 607" version="1.1" xmlns="http://www.w3.org/2000/svg" xmlns:xlink="http://www.w3.org/1999/xlink">
    <!-- Generator: Sketch 55.2 (78181) - https://sketchapp.com -->
    <title>Group 2</title>
    <desc>Created with Sketch.</desc>
    <g id="Page-1" stroke="none" stroke-width="1" fill="none" fill-rule="evenodd">
        <g id="Artboard" transform="translate(-226.000000, -155.000000)" fill="#FFFFFF" fill-rule="nonzero">
            <g id="Group-2" transform="translate(226.600000, 155.600000)">
                <polygon id="Path" points="34 103.2 34 102.3 17.1 92.8 17.1 50.3 33.1 50.3 38.4 74.6 39.2 73.9 36.9 49.3 39.1 29.1 39.1 29 38.4 28 33.1 48.3 17.1 48.3 17.1 3.5 40.4 3.5 43.6 38 43.6 38.2 44.5 38.2 44.5 1.5 2.1 1.5 2.1 2.4 14 9 14 92.9 0.9 102.3 0.9 103.2 15.7 99.5"></polygon>
                <polygon id="Path" points="84.6 103.2 84.6 102.3 68.6 92.7 68.6 1.5 54 1.5 54 4.2 65.6 4.2 65.6 92.7 50.1 102.3 50.1 103.2 67.1 99.5"></polygon>
                <path d="M109,104.7 C119.2,104.7 127.4,87.6 127.4,66.6 C127.4,57.5 125.8,49 122.8,42.7 C119.5,35.7 114.9,32 109.4,32 C97.9,32 90.2,47 90.2,69.4 C90.3,90.2 98,104.7 109,104.7 Z M92.6,62.2 C92.6,43.8 99.8,35.4 106.5,35.4 C117.6,35.4 124.8,50.6 124.8,74.2 C124.8,87.3 119.8,100.9 111.5,100.9 C100.6,100.8 92.6,84.6 92.6,62.2 Z" id="Shape"></path>
                <path d="M137,73.6 L137,73.6 L136.9,73.7 C136,76 135.1,81 135.1,85.2 C135.1,94.9 138.6,104.6 146.5,104.6 C153,104.6 159.3,99.4 162.1,91.7 L162.1,104.8 L177.3,94 L177.3,93.1 L165.1,96 L165.1,59.1 C165.1,41.8 160.5,31.9 152.5,31.9 C144.1,31.9 139.5,41.1 136.4,49.1 L136.4,49.2 L137,50.5 L137.2,49.9 C141.2,39.9 145.5,35.6 151.6,35.6 C158,35.6 162.1,44.9 162.1,59.3 L162.1,63 L137,73.6 Z M149.1,99.6 C144,99.6 136.6,93.2 136.6,81.7 C136.6,80.8 136.6,79.9 136.7,79.2 L162.2,64.2 L162.2,89.4 C159.9,95.3 154.4,99.6 149.1,99.6 Z" id="Shape"></path>
                <path d="M188.9,80.7 C188.9,96.6 192.2,104.7 198.6,104.7 C203.1,104.7 205.8,100.7 207.5,97.7 L207.6,97.6 L207.2,96.5 L206.9,97 C205.7,99 203.5,101.4 199.2,101.4 C194.7,101.4 192,93.9 192,81.5 L192,38.2 L203.4,39.5 L203.4,33.6 L192,34.6 L192,17 L189,17 L189,35 L179.3,35.8 L179.3,36.8 L189,38 L189,80.7 L188.9,80.7 Z" id="Path"></path>
                <path d="M229.1,9.2 C230.8,9.2 231.9,7.3 231.9,4.6 C231.9,1.9 230.8,-7.10542736e-15 229.1,-7.10542736e-15 C227.5,-7.10542736e-15 226.3,2 226.3,4.6 C226.3,7.2 227.5,9.2 229.1,9.2 Z" id="Path"></path>
                <polygon id="Path" points="246.7 103.2 246.7 102.3 230.7 92.7 230.7 33.7 216.2 33.7 216.2 36.5 227.7 36.5 227.7 92.7 212.2 102.3 212.2 103.2 229.2 99.5"></polygon>
                <path d="M276.9,103.3 L276.9,102.3 L266,92.7 L266,52.3 C269.7,39.2 273.7,36.5 279.1,36.5 C285.8,36.5 290,46.1 290,61.7 L290,92.7 L279.7,102.3 L279.7,103.3 L291.5,99.5 L306.8,103.3 L306.8,102.3 L293,92.7 L293,57.7 C293,42.1 287.8,32 279.7,32 C273.2,32 268.4,38 265.9,48.9 L265.9,33.7 L252.4,33.7 L252.4,36.6 L263,36.6 L263,92.8 L249.8,102.4 L249.8,103.4 L264.5,99.6 L276.9,103.3 Z" id="Path"></path>
                <path d="M328.8,93.4 C328.9,93.4 329.1,93.4 329.3,93.4 L315.6,102.3 L315.6,103.2 L333.3,103.2 C339.9,103.2 344,108.2 344,116.2 C344,124.9 337.4,133.1 330.4,133.1 C325,133.1 319.9,130.9 315,126.3 L314.6,125.9 L314.6,127.4 L314.7,127.5 C315.2,127.9 315.7,128.4 316.2,128.8 C319.7,132 323.4,135.3 331.4,135.3 C340.7,135.3 347.5,126.6 347.5,114.7 C347.5,104.3 340.9,98.6 334.6,98.6 L324.3,98.6 L334.1,91.8 C340.9,87.1 345.1,75.8 345.1,62.3 C345.1,51.6 341.4,41.3 335.8,36.5 L344.7,36.5 L344.7,33.6 L328.8,33.6 C318.4,33.6 311.4,46 311.4,64.5 C311.4,82.6 320.3,93.4 328.8,93.4 Z M314.4,58.1 C314.4,45.1 319.4,35.6 326.3,35.6 C334.1,35.6 342.4,48.8 342.4,68.5 C342.4,78 337.8,91.3004812 330.2,91.3004812 C321.7,91.4 314.4,75.9 314.4,58.1 Z" id="Shape"></path>
                <path d="M526.6,9.2 C528.3,9.2 529.4,7.3 529.4,4.6 C529.4,1.9 528.3,-7.10542736e-15 526.6,-7.10542736e-15 C525,-7.10542736e-15 523.8,2 523.8,4.6 C523.8,7.2 525,9.2 526.6,9.2 Z" id="Path"></path>
                <path d="M727.6,9.2 C729.3,9.2 730.4,7.3 730.4,4.6 C730.4,1.9 729.3,-7.10542736e-15 727.6,-7.10542736e-15 C726,-7.10542736e-15 724.8,2 724.8,4.6 C724.8,7.2 726,9.2 727.6,9.2 Z" id="Path"></path>
                <path d="M776.6,97.5 L776.2,96.4 L775.9,96.9 C774.7,98.9 772.5,101.3 768.2,101.3 C763.7,101.3 761,93.8 761,81.4 L761,72.6 L795.5,72.6 L803.1,104.9 L795.8,134.8 L797,134.8 L812,72.6 L827.6,72.6 L827.6,64.2 L814,64.2 L818.9,43.6 L826.7,34.6 L826.8,34.5 L826.8,33.5 L818.6,38.2 L808.9,33.5 L808.9,34.5 L817.7,43.6 L812.8,64.2 L797,64.2 L792,43.4 L800.1,34.5 L800.1,33.5 L790.1,38.2 L780.4,33.5 L780.4,34.5 L788.6,43.4 L793.5,64.2 L761,64.2 L761,38.2 L772.4,39.5 L772.4,33.6 L761,34.6 L761,17 L758,17 L758,35 L748.3,35.8 L748.3,36.8 L758,38 L758,64.2 L729.2,64.2 L729.2,33.7 L714.7,33.7 L714.7,36.6 L726.2,36.6 L726.2,64.3 L688.8,64.3 C683.8,61.2 677.6,56.9 676.6,50.6 C675.9,46 677.1,41.2 679.7,38.2 C681.6,36 684.2,34.8 687.1,34.8 C693.5,34.8 699.9,43.9 701.2,54.8 L701.9,60.9 L704,60.9 L702.7,32.3 L701.8,32.3 L700.6,40.8 C697.6,36.7 693.3,32.1 688.7,32.1 C681.7,32.1 674.6,38.5 674.6,50.9 C674.6,57.4 677.2,61.4 680.5,64.4 L650.5,64.4 L650.5,57.7 C652.8,44.6 656.3,39.7 663.6,39.7 L664.5,39.7 L664.5,32.3 L664.3,32.3 C664.3,32.3 663.5,32.1 663,32.1 C663,32.1 663,32.1 663,32.1 C657.6,32.4 652.5,42.4 650.5,52.5 L650.5,33.7 L639.2,33.7 L639.2,36.6 L647.5,36.6 L647.5,64.3 L600.1,64.3 C600.1,63.3 600,62.3 600,61.3 L600,60.7 L630.5,62.7 L630.5,62.4 C630.9,51.1 628,40.7 622.9,35.5 C620.7,33.2 618.2,32 615.7,32 C605.6,32 598.8,44.5 597.8,64.2 L580.2,64.2 L585,43.6 L592.7,34.6 L592.8,34.5 L592.8,33.5 L584.7,38.2 L573.9,33.6 L573.9,34.6 L583.8,43.7 L579,64.3 L562.9,64.3 L558,43.7 L567,34.7 L567.1,34.6 L567.1,33.6 L556,38.2 L546.5,33.5 L546.5,34.5 L554.7,43.6 L559.6,64.2 L528.2,64.2 L528.2,33.7 L513.7,33.7 L513.7,36.6 L525.2,36.6 L525.2,64.3 L494,64.3 L494,57.7 C494,42.1 488.8,32 480.7,32 C474.2,32 469.4,38 466.9,48.9 L466.9,33.7 L453.3,33.7 L453.3,36.6 L463.9,36.6 L463.9,64.3 L433.1,64.3 C433.1,62.6 433.2,60.8 433.2,58.9 L433.2,12.9 L447.4,2.5 L447.4,2.4 L447.4,1.4 L432.3,5.2 L418.5,1.4 L418.5,2.4 L431.4,12.8 L431.4,63.7 C431.4,63.9 431.4,64 431.4,64.2 L394.7,64.2 C394.7,64 394.7,63.9 394.7,63.7 L394.7,11.8 L408.8,2.4 L408.9,2.3 L408.9,1.3 L393.1,5.1 L378.7,1.4 L378.7,2.4 L391.5,11.8 L391.5,64.2 C391.5,64.2 391.5,64.2 391.5,64.2 L377,64.2 L377,72.6 L391.8,72.6 C393.3,93.6 400.6,104.7 413.3,104.7 C424.6,104.7 430.9,94.4 432.6,72.6 L463.8,72.6 L463.8,92.7 L450.6,102.3 L450.6,103.3 L465.3,99.5 L477.7,103.3 L477.7,102.3 L466.8,92.7 L466.8,72.6 L490.8,72.6 L490.8,92.7 L480.5,102.3 L480.5,103.3 L492.3,99.5 L507.6,103.3 L507.6,102.3 L493.8,92.7 L493.8,72.6 L525,72.6 L525,92.7 L509.5,102.3 L509.5,103.3 L526.5,99.5 L544.1,103.3 L544.1,102.3 L528,92.7 L528,72.6 L561.3,72.6 L569.3,106.3 L569.3,106.5 L570,106.5 L577.9,72.6 L597.4,72.6 C598.2,94.6 607.1,104.7 615.5,104.7 C623.5,104.7 627.5,97.8 631.3,90.1 L631.3,90 L630.9,88.9 L630.6,89.4 C626.6,97.1 622.5,100.7 617.8,100.7 C609.1,100.7 602.4,89.4 600.4,72.7 L647.2,72.7 L647.2,92.8 L636.1,102.3 L636,102.4 L636,103.4 L648.7,99.6 L662.3,103.4 L662.3,102.4 L650.2,92.8 L650.2,72.7 L674.2,72.7 L673.6,104.3 L674.5,104.3 L676.5,94.8 C679.4,99.6 683.6,104.8 689.9,104.8 C697,104.8 704.6,98.5 704.6,84.7 C704.6,79.4 702.6,75.6 700,72.7 L725.7,72.7 L725.7,92.8 L710.2,102.4 L710.2,103.4 L727.2,99.6 L744.8,103.4 L744.8,102.4 L728.7,92.8 L728.7,72.7 L757.5,72.7 L757.5,80.8 C757.5,96.7 760.8,104.8 767.2,104.8 C771.7,104.8 774.4,100.8 776.1,97.8 L776.6,97.5 Z M810.8,72.6 L805,97.1 L799.1,72.6 L810.8,72.6 L810.8,72.6 Z M430.9,72.6 C429.5,86.9 424.4,99.6 413.4,99.6 C403.3,99.6 396.7,89.7 395.1,72.6 L430.9,72.6 L430.9,72.6 Z M466.9,64.2 L466.9,52.3 C470.5,39.2 474.6,36.5 480,36.5 C486.7,36.5 490.9,46.1 490.9,61.7 L490.9,64.2 L466.9,64.2 L466.9,64.2 Z M577,72.6 L571,98.1 L564.9,72.6 L577,72.6 L577,72.6 Z M600,59.6 C600.5,45.6 605.8,35.5 612.8,35.5 C619.1,35.5 624.5,42.6 626.7,53.7 C626.9,54.3 627,56.2 627,57.3 L600,59.6 Z M692.9,72.6 C697.2,75.6 701.9,79.8 702.6,86.1 C703.2,91.2 702.1,95.8 699.4,98.8 C697.6,100.9 695.1,102 692.3,102 C683.9,102 677.6,92 676.7,77.1 C676.5,75.1 676.5,73.6 676.5,72.6 L692.9,72.6 L692.9,72.6 Z" id="Shape"></path>
                <polygon id="Path" points="836.9 90.5 833.2 90.5 829.2 115.8 829.9 115.8"></polygon>
                <path d="M898,50.5 C905.2,48.7 910,39.2 910,26.1 C910,10 902.8,1.4 889.3,1.4 L864.1,1.4 L864.1,2.4 L877.2,9 L877.2,95.5 L862.8,102.2 L862.8,103.1 L889,103.1 C906.4,103.1 913.8,94.8 913.8,75.2 C913.9,60.4 906.2,51.9 898,50.5 Z M910.4,75.3 C910.4,93 903.9,101.3 889.8,101.3 L880.4,101.3 L880.4,51.7 L887.7,51.7 C899,51.7 910.4,59 910.4,75.3 Z M906.4,26.2 C906.4,47.9 895.8,49.7 885.8,49.7 L880.4,49.7 L880.4,3.5 L889.6,3.5 C900.1,3.5 906.4,12 906.4,26.2 Z" id="Shape"></path>
                <path d="M954,89.3 C950,97 945.9,100.6 941.2,100.6 C930.7,100.6 923.1,84 923.1,61.1 L923.1,60.5 L953.6,62.5 L953.6,62.2 C954,50.9 951.1,40.5 946,35.3 C943.8,33 941.3,31.8 938.8,31.8 C927.8,31.8 920.7,46.5 920.7,69.2 C920.7,93.4 930.1,104.5 938.9,104.5 C946.9,104.5 950.9,97.6 954.7,89.9 L954.7,89.8 L954.3,88.7 L954,89.3 Z M923,59.6 C923.5,45.6 928.8,35.5 935.8,35.5 C942.1,35.5 947.5,42.6 949.7,53.7 C949.9,54.3 950,56.2 950,57.3 L923,59.6 Z" id="Shape"></path>
                <path d="M986,32 C986,32 986,32 986,32 C980.6,32.3 975.5,42.3 973.5,52.4 L973.5,33.7 L962.2,33.7 L962.2,36.6 L970.5,36.6 L970.5,92.8 L959.4,102.3 L959.3,102.4 L959.3,103.4 L972,99.6 L985.6,103.4 L985.6,102.4 L973.5,92.8 L973.5,57.6 C975.8,44.5 979.3,39.6 986.6,39.6 L987.5,39.6 L987.5,32.2 L987.3,32.2 C987.3,32.1 986.5,32 986,32 Z" id="Path"></path>
                <polygon id="Path" points="1013.2 1.5 998.6 1.5 998.6 4.2 1010.2 4.2 1010.2 92.7 994.7 102.3 994.7 103.2 1011.7 99.5 1029.3 103.2 1029.3 102.3 1013.2 92.7"></polygon>
                <polygon id="Path" points="1050.8 33.7 1036.3 33.7 1036.3 36.5 1047.7 36.5 1047.7 92.7 1032.3 102.3 1032.3 103.2 1049.2 99.5 1066.8 103.2 1066.8 102.3 1050.8 92.7"></polygon>
                <path d="M1049.1,9.2 C1050.8,9.2 1051.9,7.3 1051.9,4.6 C1051.9,1.9 1050.8,-7.10542736e-15 1049.1,-7.10542736e-15 C1047.5,-7.10542736e-15 1046.3,2 1046.3,4.6 C1046.3,7.2 1047.6,9.2 1049.1,9.2 Z" id="Path"></path>
                <path d="M1113.1,92.7 L1113.1,57.7 C1113.1,42.1 1107.9,32 1099.8,32 C1093.3,32 1088.5,38 1086,48.9 L1086,33.7 L1072.4,33.7 L1072.4,36.6 L1083,36.6 L1083,92.8 L1069.8,102.4 L1069.8,103.4 L1084.5,99.6 L1096.9,103.4 L1096.9,102.4 L1086,92.8 L1086,52.3 C1089.7,39.2 1093.7,36.5 1099.1,36.5 C1105.8,36.5 1110,46.1 1110,61.7 L1110,92.7 L1099.7,102.3 L1099.7,103.3 L1111.5,99.5 L1126.8,103.3 L1126.8,102.3 L1113.1,92.7 Z" id="Path"></path>
                <path d="M24.7,147.5 C11.8,147.5 3.2,164.5 3.2,189.8 C3.2,213.1 11.8,229.4 24.2,229.4 C35.6,229.4 44.9,210.3 44.9,186.8 C44.8,167.2 37.9,147.5 24.7,147.5 Z M42.4,193.9 C42.4,209.2 36.3,225.7 26.4,225.7 C13.9,225.7 5.5,208.8 5.5,183.6 C5.5,163.8 12.1,151 22.4,151 C34.7,151 42.4,167.4 42.4,193.9 Z" id="Shape"></path>
                <path d="M54.4,209.2 C54.4,221.6 58,229.3 63.8,229.3 C68.8,229.3 72.5,224.8 74.5,216.5 L74.5,228.2 L85.3,221.3 L85.3,220.5 L77,221.9 L77,173.7 L68.7,173.7 L68.7,176 L74.5,176 L74.5,213.4 C71.7,223.6 68.5,225.7 64.3,225.7 C59.7,225.7 56.8,218.7 56.8,207.9 L56.8,173.7 L48.7,173.7 L48.7,176 L54.4,176 L54.4,209.2 Z" id="Path"></path>
                <path d="M96,210.6 C96,223.1 98.6,229.4 103.6,229.4 C107.1,229.4 109.3,226.2 110.6,223.9 L110.7,223.8 L110.3,222.8 L110,223.3 C109.1,224.9 107.3,226.7 104.1,226.7 C100.6,226.7 98.5,220.9 98.5,211.2 L98.5,177.4 L107.4,178.5 L107.4,173.7 L98.5,174.5 L98.5,160.7 L96,160.7 L96,174.8 L88.4,175.5 L88.4,176.3 L96,177.2 L96,210.6 L96,210.6 Z" id="Path"></path>
                <path d="M132.3,172.4 C122.1,172.4 116.4,187.3 115.9,202.1 C115.6,212.3 118.4,222.2 122.9,226.7 C124.6,228.4 126.3,229.3 128.2,229.3 C134.6,229.3 138.3,222.8 139.8,219.4 L139.8,228.3 L150.8,220.7 L150.9,220.6 L150.9,219.8 L142.3,221.9 L142.3,148.6 L133,148.6 L133,150.8 L139.8,150.8 L139.8,175.4 C137.5,173.4 134.9,172.4 132.3,172.4 Z M130.5,225.8 C122.9,225.8 118.1,215 118.1,197.6 C118.1,184.6 123.1,175.1 130,175.1 C133.8,175.1 137.5,177.5 139.7,181.6 L139.7,217.4 C138.5,220.5 135.6,225.8 130.5,225.8 Z" id="Shape"></path>
                <path d="M156,201.8 C156,218 162,229.4 170.7,229.4 C178.7,229.4 185.2,216 185.2,199.6 C185.2,186.6 180.8,172.5 171.1,172.5 C162.1,172.4 156,184.2 156,201.8 Z M183,205.4 C183,215.6 179.1,226.2 172.7,226.2 C164.2,226.2 158,213.5 158,196.1 C158,181.7 163.6,175.2 168.8,175.2 C177.4,175.2 183,187.1 183,205.4 Z" id="Shape"></path>
                <path d="M191.5,201.8 C191.5,218 197.5,229.4 206.2,229.4 C214.2,229.4 220.7,216 220.7,199.6 C220.7,186.6 216.3,172.5 206.6,172.5 C197.6,172.4 191.5,184.2 191.5,201.8 Z M218.5,205.4 C218.5,215.6 214.6,226.2 208.2,226.2 C199.7,226.2 193.5,213.5 193.5,196.1 C193.5,181.7 199.1,175.2 204.3,175.2 C212.9,175.2 218.5,187.1 218.5,205.4 Z" id="Shape"></path>
                <path d="M245.9,172.4 C241.7,172.6 237.8,180.1 236.2,187.8 L236.2,173.7 L227.3,173.7 L227.3,176 L233.8,176 L233.8,219.8 L225.1,227.3 L225.1,228.1 L235.1,225.1 L245.8,228.1 L245.8,227.4 L236.4,219.9 L236.4,192.5 C238.2,182.3 240.9,178.5 246.6,178.5 L247.4,178.5 L247.4,172.7 L247.2,172.7 C246.9,172.6 246.3,172.4 245.9,172.4 C245.9,172.4 245.9,172.4 245.9,172.4 Z" id="Path"></path>
                <path d="M261.3,185.5 C261,185.5 260.6,185.8 260.4,186.3 C260.1,187.1 260,188.5 260,188.9 C260,189.7 260.8,189.9 261.5,189.9 L287.9,189.6 C288.1,189.6 288.7,189.4 288.9,188.9 C289.1,188.2 289.3,187.2 289.3,186.3 C289.3,185.8 288.9,185.4 288.5,185.4 L261.3,185.4 L261.3,185.5 Z" id="Path"></path>
                <path d="M320.9,228.2 L332.1,225.2 L343.1,228.2 L343.1,227.4 L333.4,219.6 L316.9,144.9 L302.1,219.6 L291.8,227.4 L291.8,228.3 L302.2,225.3 L313.4,228.3 L313.4,227.4 L303.5,219.7 L308.3,195.6 L325.4,195.6 L330.8,219.7 L320.9,227.4 L320.9,228.2 Z M325.1,193.9 L308.7,193.9 L316.4,154.9 L325.1,193.9 Z" id="Shape"></path>
                <path d="M344.4,173.8 L344.4,176.1 L350,176.1 L350,209.2 C350,221.6 353.6,229.3 359.4,229.3 C364.4,229.3 368.1,224.8 370.1,216.5 L370.1,228.2 L380.9,221.3 L380.9,220.5 L372.6,221.9 L372.6,173.7 L364.4,173.7 L364.4,176 L370.2,176 L370.2,213.4 C367.4,223.6 364.2,225.7 360,225.7 C355.4,225.7 352.5,218.7 352.5,207.9 L352.5,173.7 L344.4,173.7 L344.4,173.8 Z" id="Path"></path>
                <path d="M386.2,203.6 L385.7,229 L386.5,229 L388.1,221.7 C390.4,225.4 393.6,229.4 398.6,229.4 C404.2,229.4 410.2,224.5 410.2,213.6 C410.2,205.5 404.2,201.8 400.3,199.4 C400,199.2 399.8,199.1 399.5,198.9 L398.7,198.4 C394.7,196 388.7,192.4 387.9,187 C387.4,183.4 388.3,179.7 390.3,177.3 C391.8,175.6 393.8,174.6 396.1,174.6 C401.1,174.6 406.1,181.7 407,190.2 L407.6,195 L409.4,195 L408.4,172.5 L407.6,172.5 L406.7,179.1 C404.4,175.9 401,172.4 397.4,172.4 C391.9,172.4 386.4,177.5 386.4,187.1 C386.4,195.2 391.6,198.5 395.8,201.1 C396.2,201.4 396.7,201.6 397.1,201.9 C397.4,202.1 397.7,202.3 398,202.5 C401.8,204.9 407.5,208.5 408.3,214.8 C408.8,218.8 407.9,222.4 405.8,224.7 C404.4,226.3 402.5,227.2 400.3,227.2 C393.8,227.2 388.9,219.4 388.2,207.8 C388,206 388,204.6 388,203.9 L388,203.7 L386.2,203.7 L386.2,203.6 Z" id="Path"></path>
                <path d="M416.7,203.6 L416.2,229 L417,229 L418.6,221.7 C420.9,225.4 424.1,229.4 429.1,229.4 C434.7,229.4 440.7,224.5 440.7,213.6 C440.7,205.4 434.7,201.8 430.8,199.4 C430.5,199.2 430.3,199.1 430,198.9 L429.2,198.4 C425.2,196 419.2,192.4 418.4,187 C417.9,183.4 418.8,179.7 420.8,177.3 C422.3,175.6 424.3,174.6 426.6,174.6 C431.6,174.6 436.6,181.7 437.5,190.2 L438.1,195 L439.9,195 L438.9,172.5 L438.1,172.5 L437.2,179.1 C434.9,175.9 431.5,172.4 427.9,172.4 C422.4,172.4 416.9,177.5 416.9,187.1 C416.9,195.2 422.1,198.5 426.3,201.1 C426.7,201.4 427.2,201.6 427.6,201.9 C427.9,202.1 428.2,202.3 428.5,202.5 C432.3,204.9 438,208.5 438.8,214.8 C439.3,218.8 438.4,222.4 436.3,224.7 C434.9,226.3 433,227.2 430.8,227.2 C424.3,227.2 419.4,219.4 418.7,207.8 C418.5,206 418.5,204.6 418.5,203.9 L418.5,203.7 L416.7,203.7 L416.7,203.6 Z" id="Path"></path>
                <path d="M452.5,160.7 L452.5,174.8 L444.9,175.5 L444.9,176.3 L452.5,177.2 L452.5,210.5 C452.5,223 455.1,229.3 460.1,229.3 C463.6,229.3 465.8,226.1 467.1,223.8 L467.2,223.7 L466.8,222.7 L466.5,223.2 C465.6,224.8 463.8,226.6 460.6,226.6 C457.1,226.6 455,220.8 455,211.1 L455,177.4 L463.9,178.5 L463.9,173.7 L455,174.5 L455,160.7 L452.5,160.7 L452.5,160.7 Z" id="Path"></path>
                <path d="M498.3,196.5 L498.6,196.5 L498.6,196.2 C498.9,187.3 496.6,179.3 492.6,175.1 C490.9,173.3 488.9,172.4 486.9,172.4 C478.3,172.4 472.7,183.9 472.7,201.7 C472.7,220.7 480.1,229.3 486.9,229.3 C493.2,229.3 496.3,223.9 499.3,217.9 L499.3,217.8 L498.9,216.8 L498.6,217.3 C495.5,223.3 492.3,226.1 488.6,226.1 C480.4,226.1 474.5,213.2 474.5,195.3 L474.5,194.9 L498.3,196.5 Z M484.6,175.3 C489.5,175.3 493.7,180.8 495.4,189.5 C495.5,189.9 495.6,191.3 495.6,192.2 L474.7,194 C475.1,183.1 479.2,175.3 484.6,175.3 Z" id="Shape"></path>
                <polygon id="Path" points="503 227.3 502.9 227.4 502.9 228.2 516.2 225.3 530 228.2 530 227.4 517.5 219.9 517.5 148.6 505.9 148.6 505.9 150.9 515 150.9 515 219.9"></polygon>
                <polygon id="Path" points="532.4 227.3 532.2 227.4 532.2 228.2 545.6 225.3 559.3 228.2 559.3 227.4 546.8 219.9 546.8 148.6 535.3 148.6 535.3 150.9 544.3 150.9 544.3 219.9"></polygon>
                <path d="M561.7,173.8 L561.7,176.1 L567.3,176.1 L567.3,209.2 C567.3,221.6 570.9,229.3 576.7,229.3 C581.7,229.3 585.4,224.8 587.4,216.5 L587.4,228.2 L598.2,221.3 L598.2,220.5 L589.9,221.9 L589.9,173.7 L581.6,173.7 L581.6,176 L587.4,176 L587.4,213.4 C584.6,223.6 581.4,225.7 577.2,225.7 C572.6,225.7 569.7,218.7 569.7,207.9 L569.7,173.7 L561.7,173.7 L561.7,173.8 Z" id="Path"></path>
                <path d="M601.4,227.3 L601.3,227.4 L601.3,228.2 L612.9,225.2 L622.7,228.2 L622.7,227.4 L614.2,219.9 L614.2,188.4 C617,178.2 620.2,176.1 624.4,176.1 C629.6,176.1 632.9,183.6 632.9,195.7 L632.9,219.9 L624.9,227.3 L624.8,227.4 L624.8,228.2 L634.1,225.2 L646.1,228.2 L646.1,227.4 L635.3,219.9 L635.3,192.6 C635.3,180.4 631.2,172.5 624.9,172.5 C619.9,172.5 616.2,177 614.2,185.3 L614.2,173.8 L603.4,173.8 L603.4,176.1 L611.7,176.1 L611.7,219.9 L601.4,227.3 Z" id="Path"></path>
                <path d="M677.7,237.1 C677.7,228.9 672.5,224.5 667.6,224.5 L659.7,224.5 L667.2,219.3 C672.5,215.6 675.8,206.8 675.8,196.2 C675.8,187.9 672.9,179.9 668.6,176.1 L675.5,176.1 L675.5,173.8 L663,173.8 C654.8,173.8 649.4,183.5 649.4,198 C649.4,212.1 656.3,220.6 663,220.6 C663.1,220.6 663.1,220.6 663.2,220.6 L652.7,227.4 L652.6,227.5 L652.6,228.3 L666.5,228.3 C671.5,228.3 674.6,232 674.8,237.9 L291.8,237.9 L257.6,237.9 L0,237.9 L0,244.5 L257.6,244.5 L291.8,244.5 L673.5,244.5 C671.6,248.6 668,251.6 664.3,251.6 C660.1,251.6 656.2,249.9 652.3,246.3 L651.9,245.9 L651.9,247.2 L652,247.3 C652.4,247.6 652.8,248 653.1,248.3 C655.9,250.8 658.7,253.4 665,253.4 C670.2,253.4 674.5,249.9 676.4,244.5 L680.8,244.5 L680.8,237.9 L677.6,237.9 C677.7,237.6 677.7,237.3 677.7,237.1 Z M673.6,201.1 C673.6,208.5 670,218.9 664.1,218.9 C657.6,218.9 651.8,206.8 651.8,193 C651.8,182.9 655.7,175.5 661,175.5 C667.1,175.4 673.6,185.8 673.6,201.1 Z" id="Shape"></path>
                <path d="M33.6,311.8 C33.6,292.3 28.5,272.5 18.8,272.5 C9.4,272.5 3.1,289.5 3.1,314.8 C3.1,338.1 9.4,354.4 18.4,354.4 C26.8,354.4 33.6,335.2 33.6,311.8 Z M5.4,308.9 C5.4,288.2 9.8,276.3 17.4,276.3 C26.2,276.3 31.2,291.7 31.2,318.7 C31.2,334 27.6,350.4 19.7,350.4 C10.9,350.3 5.4,334.4 5.4,308.9 Z" id="Shape"></path>
                <path d="M287.5,273.5 L287.7,273.5 L287.7,272.6 L287.4,272.6 C262.7,276.8 260,311 260,325.4 C260,342.2 266.3,354.3 274.9,354.3 C283.3,354.3 289.4,343.5 289.4,328.7 C289.4,317 284.5,304.5 275.3,304.5 C270.1,304.5 264.7,308.6 262.5,317.7 C264.7,291.7 272.9,277.2 287.5,273.5 Z M262.5,327.4 C262.5,316.2 267.2,307.8 273.5,307.8 C282.2,307.8 287.2,317.3 287.2,334 C287.2,342.5 283.6,351.6 277,351.6 C268.5,351.6 262.5,338.9 262.5,327.4 Z" id="Shape"></path>
                <path d="M73.3,307.3 C72.1,307.3 71.1,308.9 71.1,311 C71.1,313.1 72.1,314.7 73.3,314.7 C74.6,314.7 75.5,313.2 75.5,311 C75.5,308.8 74.6,307.3 73.3,307.3 Z" id="Path"></path>
                <path d="M97,272.5 C87.6,272.5 81.3,289.5 81.3,314.8 C81.3,338.1 87.6,354.4 96.6,354.4 C105,354.4 111.7,335.3 111.7,311.8 C111.8,292.2 106.7,272.5 97,272.5 Z M109.4,318.6 C109.4,333.9 105.8,350.3 97.9,350.3 C89.1,350.3 83.6,334.4 83.6,308.9 C83.6,288.2 88,276.299519 95.6,276.299519 C104.4,276.2 109.4,291.7 109.4,318.6 Z" id="Shape"></path>
                <path d="M129.2,351.6 C121.5,351.6 118.1,342.9 116.7,337.7 L116.6,337.2 L115.9,338.1 L115.9,338.2 C117.8,345.7 121.1,354.3 129.1,354.3 C138.7,354.3 145.4,342.8 145.4,326.3 C145.4,313.8 140.6,300.4 131.8,300.4 C125.7,300.4 121.5,304.3 119.1,312.4 L121.3,277.5 L139.7,277.5 L141.6,296.7 L142.4,296.7 L142.4,273.6 L120,273.6 L117.2,320.9 L117.2,321.2 L117.9,321.2 L117.9,321 C119.6,313.4 122.8,303.3 131,303.3 C139.2,303.3 142.8,316.8 142.8,326.3 C142.7,341.2 137.1,351.6 129.2,351.6 Z" id="Path"></path>
                <path d="M196.4,314.6 C196.6,314.6 197.2,314.4 197.4,313.9 C197.6,313.2 197.8,312.2 197.8,311.3 C197.8,310.8 197.4,310.4 197,310.4 L169.7,310.4 C169.4,310.4 169,310.7 168.8,311.2 C168.5,312 168.4,313.4 168.4,313.8 C168.4,314.6 169.2,314.8 169.9,314.8 L196.4,314.6 Z" id="Path"></path>
                <path d="M238.8,272.5 C229.4,272.5 223.1,289.5 223.1,314.8 C223.1,338.1 229.4,354.4 238.4,354.4 C246.8,354.4 253.5,335.3 253.5,311.8 C253.6,292.2 248.5,272.5 238.8,272.5 Z M251.2,318.6 C251.2,333.9 247.6,350.3 239.7,350.3 C230.9,350.3 225.4,334.4 225.4,308.9 C225.4,288.2 229.8,276.299519 237.4,276.299519 C246.2,276.2 251.2,291.7 251.2,318.6 Z" id="Shape"></path>
                <path d="M65.9,273.5 L66.1,273.5 L66.1,272.6 L65.8,272.6 C41.1,276.8 38.4,311 38.4,325.4 C38.4,342.2 44.7,354.3 53.3,354.3 C61.7,354.3 67.8,343.5 67.8,328.7 C67.8,317 62.9,304.5 53.7,304.5 C48.5,304.5 43.1,308.6 40.9,317.7 C43.1,291.7 51.3,277.2 65.9,273.5 Z M40.9,327.4 C40.9,316.2 45.6,307.8 51.9,307.8 C60.6,307.8 65.6,317.3 65.6,334 C65.6,342.5 62,351.6 55.4,351.6 C46.9,351.6 40.9,338.9 40.9,327.4 Z" id="Shape"></path>
                <path d="M297.4,307.3 C296.2,307.3 295.2,308.9 295.2,311 C295.2,313.1 296.2,314.7 297.4,314.7 C298.7,314.7 299.6,313.2 299.6,311 C299.6,308.8 298.7,307.3 297.4,307.3 Z" id="Path"></path>
                <path d="M321.1,272.5 C311.7,272.5 305.4,289.5 305.4,314.8 C305.4,338.1 311.7,354.4 320.7,354.4 C329.1,354.4 335.8,335.3 335.8,311.8 C335.9,292.2 330.8,272.5 321.1,272.5 Z M333.5,318.6 C333.5,333.9 329.9,350.3 322,350.3 C313.2,350.3 307.7,334.4 307.7,308.9 C307.7,288.2 312.1,276.299519 319.7,276.299519 C328.5,276.2 333.5,291.7 333.5,318.6 Z" id="Shape"></path>
                <path d="M369.8,273.5 L370,273.5 L370,272.6 L369.7,272.6 C345,276.8 342.3,311 342.3,325.4 C342.3,342.2 348.6,354.3 357.2,354.3 C365.6,354.3 371.7,343.5 371.7,328.7 C371.7,317 366.8,304.5 357.6,304.5 C352.4,304.5 347,308.6 344.8,317.7 C347,291.7 355.2,277.2 369.8,273.5 Z M344.8,327.4 C344.8,316.2 349.5,307.8 355.8,307.8 C364.5,307.8 369.5,317.3 369.5,334 C369.5,342.5 365.9,351.6 359.3,351.6 C350.8,351.6 344.8,338.9 344.8,327.4 Z" id="Shape"></path>
                <path d="M381.9,311 C381.9,308.8 381,307.3 379.7,307.3 C378.5,307.3 377.5,308.9 377.5,311 C377.5,313.1 378.5,314.7 379.7,314.7 C381,314.6 381.9,313.2 381.9,311 Z" id="Path"></path>
                <path d="M387.5,352.4 L387.5,352.4 L387.5,353.2 L416,353.2 L416,325.6 L415.1,325.6 L412.8,349.3 L391.1,349.3 L405.3,324.8 C412.2,312.8 415.2,304.1 415.2,295.6 C415.2,281.8 410,272.5 402.3,272.5 C396.1,272.5 392.2,279.7 390.5,286.5 L389.1,273.7 L388.2,273.7 L388.2,309.3 L390.1,309.3 L390.1,309.1 C390.1,292.3 393.7,274.2 401.7,274.2 C407.5,274.2 412.1,283.6 412.1,295.5 C412.1,305.1 409.3,314.4 403.2,325 L387.5,352.4 Z" id="Path"></path>
                <polygon id="Path" points="435.6 272.5 419.4 316.7 420.1 317.3 434 284.3 434 345.3 419.8 352.3 419.7 352.4 419.7 353.2 435.2 350.3 449 353.2 449 352.4 436.5 345.3 436.5 272.5"></polygon>
                <path d="M473.8,360.6 C475,356 480.6,330.4 486,305.5 C488.8,292.3 491.8,278.7 494.1,268.3 C494.6,266.2 494.5,265.7 494.3,265.4 C494.2,265.3 494.1,265.2 493.9,265.2 C493.3,265.2 492.2,266.4 492.1,267 L492.1,267 C489.7,277.8 487.3,289 484.9,299.9 C480.6,320 476.1,340.7 471.6,360.5 C471.3,362 471.4,362.5 471.6,362.7 C471.7,362.9 472,362.9 472,362.9 C472.7,362.9 473.5,361.7 473.8,360.6 Z" id="Path"></path>
                <polygon id="Path" points="533.5 272.5 517.3 316.7 518 317.3 531.9 284.3 531.9 345.3 517.7 352.3 517.6 352.4 517.6 353.2 533.1 350.3 546.9 353.2 546.9 352.4 534.3 345.3 534.3 272.5"></polygon>
                <path d="M577.9,273.5 L578.1,273.5 L578.1,272.6 L577.8,272.6 C553.1,276.8 550.4,311 550.4,325.4 C550.4,342.2 556.7,354.3 565.3,354.3 C573.7,354.3 579.8,343.5 579.8,328.7 C579.8,317 574.9,304.5 565.7,304.5 C560.5,304.5 555.1,308.6 552.9,317.7 C555.1,291.7 563.3,277.2 577.9,273.5 Z M552.9,327.4 C552.9,316.2 557.6,307.8 563.9,307.8 C572.6,307.8 577.6,317.3 577.6,334 C577.6,342.5 574,351.6 567.4,351.6 C558.9,351.6 552.9,338.9 552.9,327.4 Z" id="Shape"></path>
                <path d="M587.7,347 C586.5,347 585.5,348.6 585.5,350.7 C585.5,352.8 586.5,354.4 587.7,354.4 C589,354.4 589.9,352.9 589.9,350.7 C589.9,348.5 589.1,347 587.7,347 Z" id="Path"></path>
                <path d="M611.2,354.4 C619.6,354.4 626.3,335.3 626.3,311.8 C626.3,292.3 621.2,272.5 611.5,272.5 C602.1,272.5 595.8,289.5 595.8,314.8 C595.9,338.1 602.1,354.4 611.2,354.4 Z M598.1,308.9 C598.1,288.2 602.5,276.3 610.1,276.3 C618.9,276.3 623.9,291.7 623.9,318.7 C623.9,334 620.3,350.4 612.4,350.4 C603.6,350.3 598.1,334.4 598.1,308.9 Z" id="Shape"></path>
                <path d="M648.2,272.5 C638.8,272.5 632.5,289.5 632.5,314.8 C632.5,338.1 638.8,354.4 647.8,354.4 C656.2,354.4 662.9,335.3 662.9,311.8 C662.9,292.2 657.9,272.5 648.2,272.5 Z M660.5,318.6 C660.5,333.9 656.9,350.3 649,350.3 C640.2,350.3 634.7,334.4 634.7,308.9 C634.7,288.2 639.1,276.299519 646.7,276.299519 C655.5,276.2 660.5,291.7 660.5,318.6 Z" id="Shape"></path>
                <path d="M716.9,310.5 L689.6,310.5 C689.3,310.5 688.9,310.8 688.7,311.3 C688.4,312.1 688.3,313.5 688.3,313.9 C688.3,314.7 689.1,314.9 689.8,314.9 L716.2,314.6 C716.4,314.6 717,314.4 717.2,313.9 C717.4,313.2 717.6,312.2 717.6,311.3 C717.7,310.8 717.3,310.5 716.9,310.5 Z" id="Path"></path>
                <path d="M768.2,349.2 L746.5,349.2 L760.7,324.7 C767.6,312.7 770.6,303.9 770.6,295.5 C770.6,281.7 765.4,272.4 757.7,272.4 C751.5,272.4 747.6,279.6 745.9,286.4 L744.5,273.6 L743.6,273.6 L743.6,309.2 L745.5,309.2 L745.5,309 C745.5,292.2 749.1,274.1 757.1,274.1 C762.9,274.1 767.5,283.5 767.5,295.4 C767.5,305 764.7,314.3 758.6,324.9 L742.9,352.4 L742.9,352.5 L742.9,353.2 L771.4,353.2 L771.4,325.6 L770.5,325.6 L768.2,349.2 Z" id="Path"></path>
                <polygon id="Path" points="791.8 272.5 791 272.5 774.8 316.7 775.5 317.3 789.3 284.3 789.3 345.3 775.2 352.3 775.1 352.4 775.1 353.2 790.6 350.3 804.4 353.2 804.4 352.4 791.8 345.3"></polygon>
                <path d="M809.6,347 C808.4,347 807.4,348.6 807.4,350.7 C807.4,352.8 808.4,354.4 809.6,354.4 C810.9,354.4 811.8,352.9 811.8,350.7 C811.8,348.5 810.9,347 809.6,347 Z" id="Path"></path>
                <path d="M833.4,272.5 C824,272.5 817.7,289.5 817.7,314.8 C817.7,338.1 824,354.4 833,354.4 C841.4,354.4 848.1,335.3 848.1,311.8 C848.1,292.2 843.1,272.5 833.4,272.5 Z M845.7,318.6 C845.7,333.9 842.1,350.3 834.2,350.3 C825.4,350.3 819.9,334.4 819.9,308.9 C819.9,288.2 824.3,276.299519 831.9,276.299519 C840.7,276.2 845.7,291.7 845.7,318.6 Z" id="Shape"></path>
                <path d="M870,272.5 C860.6,272.5 854.3,289.5 854.3,314.8 C854.3,338.1 860.6,354.4 869.6,354.4 C878,354.4 884.7,335.3 884.7,311.8 C884.8,292.2 879.7,272.5 870,272.5 Z M882.4,318.6 C882.4,333.9 878.8,350.3 870.9,350.3 C862.1,350.3 856.6,334.4 856.6,308.9 C856.6,288.2 861,276.299519 868.6,276.299519 C877.3,276.2 882.4,291.7 882.4,318.6 Z" id="Shape"></path>
                <g id="Group" transform="translate(3.400000, 390.400000)">
                    <path d="M4,47.8 L4,82 L4.8,82 L6,72.5 C9.2,77.3 13.4,82 19.9,82 C27.4,82 35.4,76.4 35.4,60.8 C35.4,48.5 27.1,42.6 21.7,38.7 C21.3,38.4 20.9,38.1 20.6,37.9 L20.1,37.5 C14.7,33.6 7.4,28.3 7.4,18.6 C7.4,7.6 11.3,2 18.9,2 C25,2 29.8,10.9 31.5,25.2 C31.8,27.3 32.2,31.8 32.2,31.9 L32.2,32.1 L33.8,32.1 L33.8,5.68434189e-14 L32.9,5.68434189e-14 L31.8,12.3 C29,6.2 24.3,5.68434189e-14 18.9,5.68434189e-14 C10.2,5.68434189e-14 5.2,7.1 5.2,19.4 C5.2,31.1 12.7,36.8 18.2,40.9 L18.9,41.4 C19.3,41.7 19.6,41.9 20,42.2 C25.2,46 33,51.8 33,61.8 C33,73.3 28.6,80 20.9,80 C12.8,80 6.6,69.1 5.9,53.5 C5.7,50.8 5.7,48.7 5.7,47.9 L5.7,47.7 L4,47.7 L4,47.8 Z" id="Path"></path>
                    <path d="M122.1,79.9 L122.1,79.9 L122,80.8 L131.3,77.8 L143.3,80.8 L143.3,80 L132.5,72.5 L132.5,45.2 C132.5,33 128.4,25.1 122.1,25.1 C116.9,25.1 112.8,30.1 110.9,38.6 C109.6,30.1 105.9,25.1 100.9,25.1 C95.9,25.1 92.2,29.6 90.2,37.9 L90.2,26.4 L79.4,26.4 L79.4,28.7 L87.7,28.7 L87.7,72.5 L77.5,79.9 L77.4,80 L77.4,80.8 L89,77.8 L98.8,80.8 L98.8,80 L90.3,72.5 L90.3,41 C93.1,30.8 96.3,28.7 100.5,28.7 C105.7,28.7 109,36.2 109,48.3 L109,72.5 L101,79.9 L100.9,80 L100.9,80.8 L110.2,77.8 L119.9,80.8 L119.9,80 L111.5,72.5 L111.5,45.1 C111.5,43.5 111.4,41.9 111.3,40.5 C114.1,30.6 117.3,28.6 121.8,28.6 C127,28.6 130.3,36.1 130.3,48.2 L130.3,72.4 L122.1,79.9 Z" id="Path"></path>
                    <path d="M170,104.7 L157.1,97.2 L157.1,97 L407.5,97 L407.5,90.4 L157.1,90.4 L157.1,79.1 C158.7,80.5 161.3,82 164.6,82 C173.6,82 180.5,69.6 181,52.4 C181.3,42.2 178.5,32.2 174,27.6 C172.4,25.9 170.6,25 168.7,25 C162.3,25 158.6,31.6 157.1,35 L157.1,26.3 L146,26.3 L146,28.6 L154.6,28.6 L154.6,90.3 L55.9,90.3 L69.4,34.1 L75.5,27 L75.6,26.9 L75.6,26 L69.1,29.7 L61.5,26 L61.5,26.9 L68.4,34 L58.5,75.6 L48.4,34 L54.8,27.1 L54.8,26.2 L47,29.9 L39.4,26.2 L39.4,27.1 L45.8,34.1 L57,82.1 L55,90.4 L0,90.4 L0,97 L53.3,97 L51.2,105.5 L52.2,105.5 L54.3,97 L154.6,97 L154.6,97.3 L146,104.8 L146,105.6 L156.1,102.6 L170,105.5 L170,104.7 Z M166.3,28.7 C173.9,28.7 178.7,39.5 178.7,56.9 C178.7,69.9 173.7,79.4 166.8,79.4 C163,79.4 159.3,77 157.1,72.9 L157.1,37.2 C158.4,34 161.3,28.7 166.3,28.7 Z" id="Shape"></path>
                    <path d="M187.3,54.4 C187.3,70.6 193.3,82 202,82 C210,82 216.5,68.6 216.5,52.2 C216.5,39.2 212.1,25.1 202.4,25.1 C193.3,25 187.3,36.8 187.3,54.4 Z M214.2,58 C214.2,68.2 210.3,78.8 203.9,78.8 C195.4,78.8 189.2,66.1 189.2,48.7 C189.2,34.3 194.8,27.8 200,27.8 C208.6,27.8 214.2,39.7 214.2,58 Z" id="Shape"></path>
                    <path d="M222.9,56.2 L222.4,81.6 L223.2,81.6 L224.8,74.3 C227.1,78 230.3,82 235.3,82 C240.9,82 246.9,77.1 246.9,66.2 C246.9,58.1 240.9,54.4 237,52 C236.7,51.8 236.5,51.7 236.2,51.5 L235.4,51 C231.4,48.6 225.4,45 224.6,39.6 C224.1,36 225,32.3 227,29.9 C228.5,28.2 230.5,27.2 232.8,27.2 C237.8,27.2 242.8,34.3 243.7,42.8 L244.3,47.6 L246.1,47.6 L245.1,25.1 L244.3,25.1 L243.4,31.7 C241.1,28.5 237.7,25 234.1,25 C228.6,25 223.1,30.1 223.1,39.7 C223.1,47.8 228.3,51.1 232.5,53.7 C232.9,54 233.4,54.2 233.8,54.5 C234.1,54.7 234.4,54.9 234.7,55.1 C238.5,57.5 244.2,61.1 245,67.4 C245.5,71.4 244.6,75 242.5,77.3 C241.1,78.9 239.2,79.8 237,79.8 C230.5,79.8 225.6,72 224.9,60.4 C224.7,58.6 224.7,57.2 224.7,56.5 L224.7,56.3 L222.9,56.3 L222.9,56.2 Z" id="Path"></path>
                    <ellipse id="Oval" cx="264.4" cy="3.7" rx="2.2" ry="3.7"></ellipse>
                    <polygon id="Path" points="251.3 79.9 251.2 80 251.2 80.8 264.5 77.9 278.3 80.8 278.3 80 265.7 72.5 265.7 26.4 254.3 26.4 254.3 28.7 263.3 28.7 263.3 72.5"></polygon>
                    <path d="M288.7,60.5 L288.7,26.3 L280.6,26.3 L280.6,28.6 L286.2,28.6 L286.2,61.7 C286.2,74.1 289.8,81.8 295.6,81.8 C300.6,81.8 304.3,77.3 306.3,69 L306.3,80.7 L317.1,73.8 L317.1,73 L308.8,74.4 L308.8,26.2 L300.5,26.2 L300.5,28.5 L306.3,28.5 L306.3,66 C303.5,76.2 300.3,78.3 296.1,78.3 C291.6,78.3 288.7,71.3 288.7,60.5 Z" id="Path"></path>
                    <path d="M333.1,37.9 L333.1,26.4 L322.3,26.4 L322.3,28.7 L330.6,28.7 L330.6,72.5 L320.4,79.9 L320.3,80 L320.3,80.8 L331.9,77.8 L341.7,80.8 L341.7,80 L333.2,72.5 L333.2,41 C336,30.8 339.2,28.7 343.4,28.7 C348.6,28.7 351.9,36.2 351.9,48.3 L351.9,72.5 L343.9,79.9 L343.8,80 L343.8,80.8 L353.1,77.8 L362.8,80.8 L362.8,80 L354.4,72.5 L354.4,45.1 C354.4,43.5 354.3,41.9 354.2,40.5 C357,30.6 360.2,28.6 364.7,28.6 C369.9,28.6 373.2,36.1 373.2,48.2 L373.2,72.4 L365.2,79.8 L365.1,79.9 L365.1,80.7 L374.4,77.7 L386.4,80.7 L386.4,80 L375.6,72.5 L375.6,45.2 C375.6,33 371.5,25.1 365.2,25.1 C360,25.1 355.9,30.1 354,38.6 C352.7,30.1 349,25.1 344,25.1 C338.9,25 335.1,29.6 333.1,37.9 Z" id="Path"></path>
                    <polygon id="Path" points="17.1 125.1 16.3 125.1 0.1 169.3 0.8 169.9 14.7 136.9 14.7 197.9 0.5 204.9 0.4 205 0.4 205.8 15.9 202.9 29.7 205.8 29.7 205 17.1 197.9"></polygon>
                    <path d="M51.3,163.6 C55.6,160.5 59.8,153.1 59.8,144.6 C59.8,135.6 56.6,125 47.7,125 C39,125 35.1,133.8 35.1,142.6 C35.1,152.6 39.9,158.1 44.6,162.4 C39,164.9 32.7,171.9 32.7,183.9 C32.7,198.3 38.3,206.9 47.8,206.9 C56.8,206.9 62.3,196.2 62.3,186.3 C62.3,173.1 56.3,167.8 51.3,163.6 Z M45.9,163.6 L47.9,165.3 C53.9,170.5 59.6,175.4 59.6,186.7 C59.6,195 54.9,203.5 47.2,203.5 C38.2,203.5 34.1,193.3 34.1,183.8 C34.1,173.3 40.2,166 45.9,163.6 Z M48,160.6 L47.6,160.2 C41.9,154.9 37.7,151 37.7,142.4 C37.7,135.3 40.9,128.1 48.1,128.1 C54.2,128.1 58.6,135 58.6,144.4 C58.6,152.4 54.2,159.9 50,162.4 C49.3,161.9 48.6,161.2 48,160.6 Z" id="Shape"></path>
                    <path d="M70.1,159.9 C68.9,159.9 67.9,161.5 67.9,163.6 C67.9,165.7 68.9,167.3 70.1,167.3 C71.4,167.3 72.3,165.8 72.3,163.6 C72.3,161.4 71.4,159.9 70.1,159.9 Z" id="Path"></path>
                    <path d="M93.9,125.1 C84.5,125.1 78.2,142.1 78.2,167.4 C78.2,190.7 84.5,207 93.5,207 C101.9,207 108.6,187.9 108.6,164.4 C108.6,144.8 103.6,125.1 93.9,125.1 Z M106.2,171.2 C106.2,186.5 102.6,202.9 94.7,202.9 C85.9,202.9 80.4,187 80.4,161.5 C80.4,140.8 84.8,128.899519 92.4,128.899519 C101.2,128.8 106.2,144.3 106.2,171.2 Z" id="Shape"></path>
                    <path d="M128.6,153.1 C122.5,153.1 118.3,157 115.9,165.1 L118.1,130.2 L136.5,130.2 L138.4,149.4 L139.2,149.4 L139.2,126.3 L116.8,126.3 L114,173.6 L114,173.9 L114.7,173.9 L114.7,173.7 C116.4,166.1 119.6,156 127.8,156 C136,156 139.6,169.5 139.6,179 C139.6,193.9 134,204.3 126.1,204.3 C118.4,204.3 115,195.6 113.6,190.4 L113.5,189.9 L112.8,190.8 L112.8,190.9 C114.7,198.4 118,207 126,207 C135.6,207 142.3,195.5 142.3,179 C142.2,166.4 137.5,153.1 128.6,153.1 Z" id="Path"></path>
                    <path d="M149.9,159.9 C148.7,159.9 147.7,161.5 147.7,163.6 C147.7,165.7 148.7,167.3 149.9,167.3 C151.2,167.3 152.1,165.8 152.1,163.6 C152.1,161.4 151.2,159.9 149.9,159.9 Z" id="Path"></path>
                    <path d="M183.1,201.8 L161.4,201.8 L175.6,177.3 C182.5,165.3 185.5,156.6 185.5,148.1 C185.5,134.3 180.3,125 172.6,125 C166.4,125 162.5,132.2 160.8,139 L159.4,126.2 L158.5,126.2 L158.5,161.8 L160.4,161.8 L160.4,161.6 C160.4,144.8 164,126.7 172,126.7 C177.8,126.7 182.4,136.1 182.4,148 C182.4,157.6 179.6,166.9 173.5,177.5 L157.7,205 L157.7,205.1 L157.7,205.8 L186.2,205.8 L186.2,178.2 L185.3,178.2 L183.1,201.8 Z" id="Path"></path>
                    <polygon id="Path" points="206.7 125.1 205.9 125.1 189.6 169.3 190.3 169.9 204.2 136.9 204.2 197.9 190.1 204.9 189.9 205 189.9 205.8 205.4 202.9 219.2 205.8 219.2 205 206.7 197.9"></polygon>
                    <path d="M264.1,117.8 C263.5,117.8 262.4,119 262.3,119.6 L262.3,119.6 C259.9,130.4 257.5,141.7 255.1,152.6 C250.8,172.7 246.3,193.4 241.8,213.1 C241.5,214.6 241.6,215.1 241.8,215.3 C241.9,215.5 242.2,215.5 242.2,215.5 C242.9,215.5 243.7,214.3 244,213.2 C245.2,208.6 250.8,182.9 256.2,158 C259,144.9 262,131.3 264.3,120.9 C264.8,118.8 264.7,118.3 264.5,118 C264.4,117.9 264.3,117.8 264.1,117.8 Z" id="Path"></path>
                    <polygon id="Path" points="304.6 125.1 303.8 125.1 287.5 169.3 288.2 169.9 302.1 136.9 302.1 197.9 287.9 204.9 287.8 205 287.8 205.8 303.3 202.9 317.1 205.8 317.1 205 304.6 197.9"></polygon>
                    <path d="M336.1,125.1 C326.7,125.1 320.4,142.1 320.4,167.4 C320.4,190.7 326.7,207 335.7,207 C344.1,207 350.8,187.9 350.8,164.4 C350.9,144.8 345.8,125.1 336.1,125.1 Z M348.5,171.2 C348.5,186.5 344.9,202.9 337,202.9 C328.2,202.9 322.7,187 322.7,161.5 C322.7,140.8 327.1,128.899519 334.7,128.899519 C343.4,128.8 348.5,144.3 348.5,171.2 Z" id="Shape"></path>
                    <path d="M359,199.6 C357.8,199.6 356.8,201.2 356.8,203.3 C356.8,205.4 357.8,207 359,207 C360.3,207 361.2,205.5 361.2,203.3 C361.2,201.1 360.3,199.6 359,199.6 Z" id="Path"></path>
                    <path d="M382.8,125.1 C373.4,125.1 367.1,142.1 367.1,167.4 C367.1,190.7 373.4,207 382.4,207 C390.8,207 397.5,187.9 397.5,164.4 C397.5,144.8 392.4,125.1 382.8,125.1 Z M395.1,171.2 C395.1,186.5 391.5,202.9 383.6,202.9 C374.8,202.9 369.3,187 369.3,161.5 C369.3,140.8 373.7,128.899519 381.3,128.899519 C390.1,128.8 395.1,144.3 395.1,171.2 Z" id="Shape"></path>
                    <path d="M419.4,125.1 C410,125.1 403.7,142.1 403.7,167.4 C403.7,190.7 410,207 419,207 C427.4,207 434.1,187.9 434.1,164.4 C434.1,144.8 429.1,125.1 419.4,125.1 Z M431.7,171.2 C431.7,186.5 428.1,202.9 420.2,202.9 C411.4,202.9 405.9,187 405.9,161.5 C405.9,140.8 410.3,128.899519 417.9,128.899519 C426.7,128.8 431.7,144.3 431.7,171.2 Z" id="Shape"></path>
                    <path d="M488.2,163.1 L460.9,163.1 C460.6,163.1 460.2,163.4 460,163.9 C459.7,164.8 459.6,166.2 459.6,166.5 C459.6,167.3 460.4,167.5 461.1,167.5 L487.5,167.2 C487.7,167.2 488.3,167 488.5,166.5 C488.7,165.8 488.9,164.8 488.9,163.9 C488.9,163.4 488.5,163.1 488.2,163.1 Z" id="Path"></path>
                    <polygon id="Path" points="528.5 125.1 527.7 125.1 511.4 169.3 512.1 169.9 526 136.9 526 197.9 511.8 204.9 511.7 205 511.7 205.8 527.2 202.9 541 205.8 541 205 528.5 197.9"></polygon>
                    <path d="M562.7,163.6 C567,160.5 571.2,153.1 571.2,144.6 C571.2,135.6 568,125 559.1,125 C550.4,125 546.5,133.8 546.5,142.6 C546.5,152.6 551.3,158.1 556,162.4 C550.4,164.9 544.1,171.9 544.1,183.9 C544.1,198.3 549.7,206.9 559.2,206.9 C568.2,206.9 573.7,196.2 573.7,186.3 C573.6,173.1 567.6,167.8 562.7,163.6 Z M557.2,163.6 L559.2,165.3 C565.2,170.5 570.9,175.4 570.9,186.7 C570.9,195 566.2,203.5 558.5,203.5 C549.5,203.5 545.4,193.3 545.4,183.8 C545.4,173.3 551.5,166 557.2,163.6 Z M559.3,160.6 L558.9,160.2 C553.2,154.9 549,151 549,142.4 C549,135.3 552.2,128.1 559.4,128.1 C565.5,128.1 569.9,135 569.9,144.4 C569.9,152.4 565.5,159.9 561.3,162.4 C560.6,161.9 560,161.2 559.3,160.6 Z" id="Shape"></path>
                    <ellipse id="Oval" cx="581.4" cy="203.3" rx="2.2" ry="3.7"></ellipse>
                    <path d="M605.2,125.1 C595.8,125.1 589.5,142.1 589.5,167.4 C589.5,190.7 595.8,207 604.8,207 C613.2,207 619.9,187.9 619.9,164.4 C620,144.8 614.9,125.1 605.2,125.1 Z M617.6,171.2 C617.6,186.5 614,202.9 606.1,202.9 C597.3,202.9 591.8,187 591.8,161.5 C591.8,140.8 596.2,128.899519 603.8,128.899519 C612.5,128.8 617.6,144.3 617.6,171.2 Z" id="Shape"></path>
                    <path d="M641.8,125.1 C632.4,125.1 626.1,142.1 626.1,167.4 C626.1,190.7 632.4,207 641.4,207 C649.8,207 656.5,187.9 656.5,164.4 C656.6,144.8 651.5,125.1 641.8,125.1 Z M654.2,171.2 C654.2,186.5 650.6,202.9 642.7,202.9 C633.9,202.9 628.4,187 628.4,161.5 C628.4,140.8 632.8,128.899519 640.4,128.899519 C649.2,128.8 654.2,144.3 654.2,171.2 Z" id="Shape"></path>
                </g>
            </g>
        </g>
    </g>
</svg>