<svg
  xmlns="http://www.w3.org/2000/svg"
  viewBox="0 0 893 148"
  style="enable-background: new 0 0 893 148"
  xml:space="preserve"
>
  <path
    d="M58.5 8.6H33.2v.9l14.4 6.6v86.5l-14.4 6.7v.9h25.3c19.5 0 30.6-17.9 30.6-49.2C89.2 27.7 78 8.6 58.5 8.6zM85.6 61c0 28.7-10.5 47.2-26.7 47.2h-8.2V10.6h8.2c16.3 0 26.7 19.8 26.7 50.4zM120 39.1c-5.4.3-10.5 10.3-12.5 20.4V40.8H96.2v2.9h8.3v56.2l-11.2 9.6v1l12.7-3.8 13.6 3.8v-1l-12.1-9.6V64.7c2.3-13.1 5.8-18 13.1-18h.9v-7.4h-.2c0-.1-.8-.2-1.3-.2zm13.7 63.4c-1.6 0-2.8 2-2.8 4.6 0 2.6 1.2 4.6 2.8 4.6 1.7 0 2.8-1.9 2.8-4.6-.1-2.7-1.2-4.6-2.8-4.6zm67.8-44.9c7.2-1.8 12-11.3 12-24.4 0-16.1-7.2-24.7-20.7-24.7h-25.2v.9l13.1 6.6v86.5l-14.4 6.7v.9h26.2c17.4 0 24.8-8.3 24.8-27.9.1-14.7-7.6-23.2-15.8-24.6zm12.4 24.8c0 17.7-6.5 26-20.6 26h-9.4V58.8h7.3c11.3 0 22.7 7.3 22.7 23.6zm-4-49.1c0 21.7-10.6 23.5-20.6 23.5h-5.4V10.6h9.2c10.5 0 16.8 8.5 16.8 22.7zm47.6 63.1c-4 7.7-8.1 11.3-12.8 11.3-10.5 0-18.1-16.6-18.1-39.5v-.6l30.3 2h.3v-.3c.4-11.3-2.5-21.7-7.6-26.9-2.2-2.3-4.7-3.5-7.2-3.5-11 0-18.1 14.7-18.1 37.4 0 24.2 9.4 35.3 18.2 35.3 8 0 12-6.9 15.8-14.6v-.1l-.4-1.1-.4.6zm-31-29.7c.5-14 5.8-24.1 12.8-24.1 6.3 0 11.7 7.1 13.9 18.2.2.6.3 2.5.3 3.6l-27 2.3zm63-27.6c-5.4.3-10.5 10.3-12.5 20.4V40.8h-11.3v2.9h8.3v56.2l-11.2 9.6v1l12.7-3.8 13.6 3.8v-1L277 99.8V64.6c2.3-13.1 5.8-18 13.1-18h.9v-7.4h-.2s-.8-.1-1.3-.1zm52 25.6c0-15.6-5.2-25.7-13.3-25.7-6.5 0-11.3 6-13.8 16.9V40.8h-13.6v2.9h10.6v56.2l-13.1 9.5-.1.1v1l14.7-3.8 12.4 3.8v-1l-10.9-9.6V59.4c3.7-13.1 7.7-15.8 13.1-15.8 6.7 0 10.9 9.6 10.9 25.2v31l-10.3 9.6v1l11.8-3.8 15 3.7.3.1v-1l-13.8-9.6V64.7zm59.1 0c0-15.6-5.2-25.7-13.3-25.7-6.5 0-11.3 6-13.8 16.9V8.6h-13.6v2.9h10.6v88.3l-13.1 9.5-.1.1v1l14.7-3.8 12.4 3.8v-1l-10.9-9.6V59.4c3.7-13.1 7.7-15.8 13.1-15.8 6.7 0 10.9 9.6 10.9 25.2v31l-10.3 9.6v1l11.8-3.8 15 3.7.3.1v-1l-13.8-9.6V64.7zm48.9 1.6c0-17.3-4.6-27.2-12.6-27.2-8.4 0-13 9.2-16.1 17.2v.1l.6 1.3.2-.6c3.9-9.9 8.4-14.3 14.4-14.3 6.4 0 10.5 9.3 10.5 23.7v3.7l-25.1 10.5h-.1v.1c-.9 2.3-1.8 7.3-1.8 11.5 0 9.7 3.5 19.4 11.4 19.4 6.5 0 12.8-5.2 15.6-12.9V112l15.1-10.7.1-.1v-.9l-12.2 2.9V66.3zm-16.1 40.4c-5.1 0-12.5-6.4-12.5-17.9 0-.9 0-1.8.1-2.5l25.5-15v25.3c-2.3 5.8-7.8 10.1-13.1 10.1zm56.8-67.6c-5.4.3-10.5 10.3-12.5 20.4V40.8h-11.3v2.9h8.3v56.2l-11.2 9.6v1l12.7-3.8 13.6 3.8v-1l-12.1-9.6V64.7c2.3-13.1 5.8-18 13.1-18h.9v-7.4h-.2c0-.1-.8-.2-1.3-.2zm44.6-30.5H523v2.7h8.8V43c-3-2.6-6.2-3.9-9.7-3.9-13 0-20.3 19.1-20.9 37.9-.4 13 3.2 25.7 8.9 31.5 2.1 2.2 4.4 3.3 6.7 3.3 8.4 0 13.1-8.8 14.9-12.9v11.7l13.9-9.7.1-.1v-1l-11 2.7V8.6zm-15 98.8c-9.8 0-15.9-13.8-15.9-36.1 0-16.7 6.4-28.9 15.3-28.9 4.9 0 9.6 3.1 12.5 8.4v45.7c-1.6 4.1-5.4 10.9-11.9 10.9zm82-50.9c-.5-.4-1-.7-1.4-1l-.6-.5c-6.9-5-16.3-11.8-16.3-24.3 0-14.1 5-21.3 14.7-21.3 7.8 0 14 11.4 16.2 29.7.4 2.7.9 8.5.9 8.6v.2h1.9V7.1h-1L614.7 23c-3.5-7.9-9.6-15.9-16.6-15.9-11.1 0-17.5 9-17.5 24.8 0 15 9.6 22.2 16.6 27.5l.9.6c.4.3.9.7 1.4 1 6.6 4.9 16.7 12.3 16.7 25.2 0 14.8-5.7 23.3-15.5 23.3-10.5 0-18.4-14-19.3-33.9-.2-3.7-.3-6.2-.3-7.2v-.2h-1.9v43.6h.9l1.6-12.3c4.1 6.2 9.5 12.3 17.8 12.3 9.6 0 19.8-7.1 19.8-27 0-15.7-10.6-23.3-17.5-28.3zm59.3 39.9c-4 7.7-8.1 11.3-12.8 11.3-10.5 0-18.1-16.6-18.1-39.5v-.6l30.3 2h.3v-.3c.4-11.3-2.5-21.7-7.6-26.9-2.2-2.3-4.7-3.5-7.2-3.5-11 0-18.1 14.7-18.1 37.4 0 24.2 9.4 35.3 18.2 35.3 8 0 12-6.9 15.8-14.6v-.1l-.4-1.1-.4.6zm-31-29.7c.5-14 5.8-24.1 12.8-24.1 6.3 0 11.7 7.1 13.9 18.2.2.6.3 2.5.3 3.6l-27 2.3zm54.8-58.1h-14.6v2.7h11.5v88.5l-15.3 9.5-.1.1v.9l17-3.7 17.2 3.7h.3v-.9l-16-9.6zm35.9 7.7c1.7 0 2.8-1.9 2.8-4.6 0-2.8-1.1-4.6-2.8-4.6-1.6 0-2.8 2-2.8 4.6 0 2.6 1.3 4.6 2.8 4.6zm1.6 24.5h-14.5v2.8h11.5v56.2l-15.4 9.5-.1.1v.9l17-3.7 17.3 3.7h.3v-.9l-16.1-9.6zm44.8 64.9h-10.3l9.8-6.8c6.8-4.7 11-16 11-29.5 0-10.7-3.7-21-9.3-25.8h8.9v-2.9h-15.9C751 40.7 744 53.1 744 71.6c0 18.1 8.8 28.9 17.4 28.9h.5l-13.6 8.8-.1.1v.9h17.7c6.6 0 10.7 5 10.7 13 0 8.7-6.6 16.9-13.6 16.9-5.4 0-10.5-2.2-15.4-6.8l-.4-.4v1.5l.1.1c.5.4 1 .9 1.5 1.3 3.5 3.2 7.2 6.5 15.2 6.5 9.3 0 16.1-8.7 16.1-20.6 0-10.4-6.6-16.1-12.9-16.1zm-4.4-7.2c-8.4 0-15.8-15.5-15.8-33.2 0-13 5-22.5 11.9-22.5 7.8 0 16.1 13.2 16.1 32.9 0 9.5-4.6 22.8-12.2 22.8zm58.9-2.1c-4 7.7-8.1 11.3-12.8 11.3-10.5 0-18.1-16.6-18.1-39.5v-.6l30.3 2h.3v-.3c.4-11.3-2.5-21.7-7.6-26.9-2.2-2.3-4.7-3.5-7.2-3.5-11 0-18.1 14.7-18.1 37.4 0 24.2 9.4 35.3 18.2 35.3 8 0 12-6.9 15.8-14.6v-.1l-.4-1.1-.4.6zm-31-29.7c.5-14 5.8-24.1 12.8-24.1 6.3 0 11.7 7.1 13.9 18.2.2.6.3 2.5.3 3.6l-27 2.3zM855 39.2s-.8-.2-1.3-.2c-5.4.3-10.5 10.3-12.5 20.4V40.8h-11.3v2.9h8.3v56.2l-11.1 9.5-.1.1v1l12.7-3.8 13.6 3.8v-1l-12.1-9.6V64.7c2.3-13.1 5.8-18 13.1-18h.9v-7.4l-.2-.1z"
    style="fill: #fff"
  />
</svg>
