<svg
  xmlns="http://www.w3.org/2000/svg"
  viewBox="0 0 893 148"
  style="enable-background: new 0 0 893 148"
  xml:space="preserve"
>
  <path
    d="M111.9 71.2V24.4h-1l-2.4 20.8C104.7 31.9 97.4 23 90.2 23c-16 0-25.9 20.7-25.9 53.9 0 34.9 13.7 50.7 26.4 50.7 10.7 0 16.3-7.3 23-20.8l.1-.1-.7-.9-.2.4c-5.8 11.5-12.2 17.4-19.1 17.4-15.5 0-26.7-23.4-26.7-55.6 0-20.1 6.7-41.8 21.3-41.8 14 0 20.6 26.8 20.6 44.9v.2h2.9zm4.5 54.1-.2.1v.9l17-3.7 17.3 3.7h.3v-.9l-16.1-9.6V24.6h-14.6v2.7h11.6v88.5zM189 85.7h.3v-.3c.4-11.3-2.5-21.7-7.6-26.9-2.2-2.3-4.7-3.5-7.2-3.5-11 0-18.1 14.7-18.1 37.4 0 24.2 9.4 35.3 18.2 35.3 8 0 12-6.9 15.8-14.6v-.1l-.4-1.1-.3.5c-4 7.7-8.1 11.3-12.8 11.3-10.5 0-18.1-16.6-18.1-39.5v-.6l30.2 2.1zm-30.2-3c.5-14 5.8-24.1 12.8-24.1 6.3 0 11.7 7.1 13.9 18.2.2.6.3 2.5.3 3.6l-27 2.3zm63.6 43.7v-1l-10.9-9.6V75.4c3.6-13.1 7.7-15.8 13.1-15.8 6.7 0 10.9 9.6 10.9 25.2v31l-10.3 9.6v1l11.8-3.8 12.3 3.8v-1l-10.8-9.6V80.7c0-2-.1-4.1-.3-5.9 3.6-12.8 7.7-15.3 13.5-15.3 6.7 0 10.9 9.6 10.9 25.2v31l-10.3 9.6v1l11.8-3.8 15 3.7.3.1v-1l-13.8-9.6v-35c0-15.6-5.2-25.7-13.3-25.7-6.7 0-12 6.5-14.3 17.6-1.6-11-6.3-17.6-12.8-17.6-6.5 0-11.3 6-13.8 16.9V56.8h-13.6v2.9h10.6v56.2l-13.1 9.5-.1.1v1l14.7-3.8 12.5 3.7zM318 85.7h.3v-.3c.4-11.3-2.5-21.7-7.6-26.9-2.2-2.3-4.7-3.5-7.2-3.5-11 0-18.1 14.7-18.1 37.4 0 24.2 9.4 35.3 18.2 35.3 8 0 12-6.9 15.8-14.6v-.1l-.4-1.1-.3.5c-4 7.7-8.1 11.3-12.8 11.3-10.5 0-18.1-16.6-18.1-39.5v-.6l30.2 2.1zm-30.3-3c.5-14 5.8-24.1 12.8-24.1 6.3 0 11.7 7.1 13.9 18.2.2.6.3 2.5.3 3.6l-27 2.3zm36.4 42.6-.1.1v1l14.7-3.8 12.4 3.8v-1l-10.9-9.6V75.4c3.7-13.1 7.7-15.8 13.1-15.8 6.7 0 10.9 9.6 10.9 25.2v31l-10.3 9.6v1l11.8-3.8 15 3.7.3.1v-1l-13.8-9.6v-35c0-15.6-5.2-25.7-13.3-25.7-6.5 0-11.3 6-13.8 16.9V56.8h-13.6v2.9h10.6v56.2l-13 9.4zM385.8 95l-.6 32.3h.9l2-9.5c2.9 4.8 7.1 10 13.4 10 7.1 0 14.7-6.3 14.7-20.1 0-10.4-7.6-15-12.6-18.1-.3-.2-.7-.4-1-.6l-1-.6c-5.1-3.1-12.8-7.7-13.9-14.7-.7-4.6.5-9.4 3.1-12.4 1.9-2.2 4.5-3.4 7.4-3.4 6.4 0 12.8 9.1 14.1 20l.7 6.1h2.1L414 55.2h-.9l-1.2 8.5c-3-4.1-7.3-8.7-11.9-8.7-7 0-14.1 6.4-14.1 18.8 0 10.3 6.7 14.5 12 17.9.6.3 1.1.7 1.6 1 .4.2.8.5 1.2.7 4.9 3 12.2 7.6 13.2 15.8.6 5.1-.5 9.7-3.2 12.7-1.8 2.1-4.3 3.2-7.1 3.2-8.4 0-14.7-10-15.6-24.8-.2-2.3-.2-4.2-.2-5V95h-2zm60.3-70.5v1l12.1 8.8 13.6 95.1.1.2h.9l14.7-98.5 17.3 98.3.1.2h.9l11.4-95.2 14.1-8.8.1-.1v-1l-14.9 3.8-15.3-3.8v1l14.4 8.9-9.6 80.5-17.2-98.2h-.9l-14.4 98.2-11.6-80.7 14.3-8.7v-1l-16.3 3.8zm90.8 35.1h11.5v56.2l-15.3 9.5-.2.1v.9l17-3.7 17.3 3.7h.3v-.9l-16.1-9.6v-59h-14.5zm15.7-31.9c0-2.8-1.1-4.6-2.8-4.6-1.6 0-2.8 2-2.8 4.6 0 2.6 1.2 4.6 2.8 4.6 1.7 0 2.8-1.8 2.8-4.6zm36.4-3.1h-14.6v2.7H586v88.5l-15.4 9.5-.1.1v.9l17-3.7 17.2 3.7h.3v-.9l-16-9.6zm46.2 101.8v-1l-10.9-9.6V75.4c3.7-13.1 7.7-15.8 13.1-15.8 6.7 0 10.9 9.6 10.9 25.2v31l-10.3 9.6v1l11.8-3.8 15 3.7.3.1v-1l-13.8-9.6v-35c0-15.6-5.2-25.7-13.3-25.7-6.5 0-11.3 6-13.8 16.9V24.6h-13.6v2.9h10.6v88.3l-13.1 9.5-.1.1v1l14.7-3.8 12.5 3.8zm35.6-33.9c0 24.2 9.4 35.3 18.2 35.3 8 0 12-6.9 15.8-14.6v-.1l-.4-1.1-.3.5c-4 7.7-8.1 11.3-12.8 11.3-10.5 0-18.1-16.6-18.1-39.5v-.6l30.3 2h.3v-.3c.4-11.3-2.5-21.7-7.6-26.9-2.2-2.3-4.7-3.5-7.2-3.5-11.1.1-18.2 14.8-18.2 37.5zm2.4-9.8c.5-14 5.8-24.1 12.8-24.1 6.3 0 11.7 7.1 13.9 18.2.2.6.3 2.5.3 3.6l-27 2.3zm40.1-58.1v2.7h11.6v88.5l-15.4 9.5-.1.1v.9l17-3.7 17.3 3.7h.3v-.9l-16.1-9.6V24.6zM763.4 72V56.8h-13.6v2.9h10.6v56.2l-13.1 9.5-.1.1v1l14.7-3.8 12.4 3.8v-1l-10.9-9.6V75.4c3.7-13.1 7.7-15.8 13.1-15.8 6.7 0 10.9 9.6 10.9 25.2v31l-10.3 9.6v1l11.8-3.8 12.3 3.8v-1l-10.8-9.6V80.7c0-2-.1-4.1-.3-5.9 3.6-12.8 7.7-15.3 13.5-15.3 6.7 0 10.9 9.6 10.9 25.2v31l-10.3 9.6v1l11.8-3.8 15 3.7.3.1v-1l-13.8-9.6v-35c0-15.6-5.2-25.7-13.3-25.7-6.7 0-12 6.5-14.3 17.6-1.6-11-6.3-17.6-12.8-17.6-6.4.1-11.2 6.1-13.7 17z"
    style="fill: #fff"
  />
</svg>
