<svg
  version="1.1"
  id="Layer_1"
  xmlns="http://www.w3.org/2000/svg"
  x="0"
  y="0"
  viewBox="0 0 893 148"
  style="enable-background: new 0 0 893 148"
  xml:space="preserve"
>
  <style>
    .st0 {
      fill: #fff;
    }
  </style>
  <path
    class="st0"
    d="m99 10 11.9 6.6v83.9l-13.2 9.4v.9l14.9-3.7 18.2 3.7v-.9l-16.8-9.5V57.9h16l5.3 24.3.8-.7-2.3-24.6 2.2-20.2v-.1l-.8-1-5.2 20.3h-16V11.1h23.3l3.2 34.5v.2h.8V9.1H99zM168.3 112.3c10.2 0 18.4-17.1 18.4-38.1 0-9.1-1.6-17.6-4.6-23.9-3.3-7-7.9-10.7-13.4-10.7-11.5 0-19.2 15-19.2 37.4.1 20.8 7.8 35.3 18.8 35.3zM152 69.8c0-18.4 7.2-26.8 13.9-26.8 11.1 0 18.3 15.2 18.3 38.8 0 13.1-5 26.7-13.3 26.7-11-.1-18.9-16.3-18.9-38.7zM226.7 110.8h.3v-.9l-16.1-9.6V9.1h-14.6v2.7h11.6v88.5l-15.4 9.5-.1.1v.9l17-3.7zM229.5 109.9v1l12.1-3.8 12.6 3.8v-1l-11.1-9.6V83l4.4-8.5 14.1 26.9-5.6 8.5v1l8.8-4 13.6 3.9v-.9l-12.9-9-15.9-30.3 14.1-26.5h7.4v-2.8h-18.6v2.8h9.4l-18.8 35.5V9.1h-12.4v2.7h9.4v88.5zM300.5 112.3c8 0 12-6.9 15.8-14.6v-.1l-.4-1.1-.3.5c-4 7.7-8.1 11.3-12.8 11.3-10.5 0-18.1-16.6-18.1-39.5v-.6l30.3 2h.3v-.3c.4-11.3-2.5-21.7-7.6-26.9-2.2-2.3-4.7-3.5-7.2-3.5-11 0-18.1 14.7-18.1 37.4-.1 24.3 9.3 35.4 18.1 35.4zm-15.8-45.1c.5-14 5.8-24.1 12.8-24.1 6.3 0 11.7 7.1 13.9 18.2.2.6.3 2.5.3 3.6l-27 2.3zM381.1 10l7.7 8.8-24.1 48.6v-48l14.1-9.3.1-.1V9l-15.1 3.8L350.5 9v1l11.1 9.4v81.1l-11.7 9.4v.9l13.5-3.7 19.7 3.7v-.9l-18.4-9.5V70.3l5.7-11.4 31.9 58 .2.4.6-1-29.6-63.7L390.1 19l12.9-8.9.1-.1V9L391 12.8 381.1 9zM439.4 17.3c0-2.8-1.1-4.6-2.8-4.6-1.6 0-2.8 2-2.8 4.6s1.2 4.6 2.8 4.6c1.6 0 2.8-1.9 2.8-4.6z"
  />
  <ellipse class="st0" cx="418.1" cy="17.3" rx="2.8" ry="4.6" />
  <path
    class="st0"
    d="M408.3 77c0 20.8 7.7 35.3 18.7 35.3 10.2 0 18.4-17.1 18.4-38.1 0-9.1-1.6-17.6-4.6-23.9-3.3-7-7.9-10.7-13.4-10.7-11.4 0-19.1 15-19.1 37.4zm34.5 4.7c0 13.1-5 26.7-13.3 26.7-11 0-18.9-16.2-18.9-38.6 0-18.4 7.2-26.8 13.9-26.8 11.1-.1 18.3 15.2 18.3 38.7zM456.7 105.8c4.4 4.1 7.9 6.5 12.6 6.5 5.9 0 11-3.9 14.9-11.3 3.6-6.9 5.7-16.3 6-26.5.4-13.1-3.2-25.8-9-31.7-2.1-2.2-4.3-3.2-6.7-3.2-8.3 0-13.1 8.9-14.9 13.1V9.1h-8.1v2.7h5.1l.1 94zm14.9-61.7c9.8 0 15.9 13.8 15.9 36.1 0 16.7-6.4 28.9-15.3 28.9-4.9 0-9.6-3.1-12.5-8.4V55c1.7-4.1 5.4-10.9 11.9-10.9zM520.4 39.6c-8.3 0-13.1 8.9-14.9 13.1V9.1h-8.1v2.7h5.1v94l.1.1c4.4 4.1 7.9 6.5 12.6 6.5 5.9 0 11-3.9 14.9-11.3 3.6-6.9 5.7-16.3 6-26.5.4-13.1-3.2-25.8-9-31.7-2.1-2.2-4.3-3.3-6.7-3.3zm-2.4 69.5c-4.9 0-9.6-3.1-12.5-8.4V55c1.7-4.1 5.4-10.9 11.9-10.9 9.8 0 15.9 13.8 15.9 36.1 0 16.7-6.4 28.9-15.3 28.9zM578 70.2h.3v-.3c.4-11.3-2.5-21.7-7.6-26.9-2.2-2.3-4.7-3.5-7.2-3.5-11 0-18.1 14.7-18.1 37.4 0 24.2 9.4 35.3 18.2 35.3 8 0 12-6.9 15.8-14.6v-.1l-.4-1.1-.3.5c-4 7.7-8.1 11.3-12.8 11.3-10.5 0-18.1-16.6-18.1-39.5v-.6l30.2 2.1zm-30.3-3c.5-14 5.8-24.1 12.8-24.1 6.3 0 11.7 7.1 13.9 18.2.2.6.3 2.5.3 3.6l-27 2.3zM598.2 41.3h-11.3v2.9h8.3v56.2L584 110v1l12.7-3.8 13.6 3.8v-1l-12.1-9.6V65.2c2.3-13.1 5.8-18 13.1-18h.9v-7.4h-.2s-.8-.2-1.3-.2c-5.4.3-10.5 10.3-12.5 20.4V41.3zM619.5 109.8l-.1.1v.9l17-3.7 17.3 3.7h.3v-.9l-16.1-9.6V9.1h-14.6v2.7h11.6v88.5zM676.7 12.2c0-2.8-1.1-4.6-2.8-4.6-1.6 0-2.8 2-2.8 4.6 0 2.6 1.2 4.6 2.8 4.6 1.6 0 2.8-1.8 2.8-4.6zM657.1 109.8l-.1.1v.9l17-3.7 17.2 3.7h.3v-.9l-16-9.6v-59H661v2.8h11.5v56.2zM694.6 109.8l-.1.1v1l14.7-3.8 12.4 3.8v-1l-10.9-9.6V59.9c3.6-13.1 7.7-15.8 13.1-15.8 6.7 0 10.9 9.6 10.9 25.2v31l-10.3 9.6v1l11.8-3.8 15 3.7.3.1v-1l-13.8-9.6v-35c0-15.6-5.2-25.7-13.3-25.7-6.5 0-11.3 6-13.8 16.9V41.3H697v2.9h10.6v56.2l-13 9.4zM789.5 41.3h-15.9c-10.4 0-17.4 12.4-17.4 30.9 0 18.1 8.8 28.9 17.4 28.9h.5l-13.6 8.8-.1.1v.9H778c6.6 0 10.7 5 10.7 13 0 8.7-6.6 16.9-13.6 16.9-5.4 0-10.5-2.2-15.4-6.8l-.4-.4v1.5l.1.1c.5.4 1 .9 1.5 1.3 3.5 3.2 7.2 6.5 15.2 6.5 9.3 0 16.1-8.7 16.1-20.6 0-10.4-6.6-16.1-12.9-16.1H769l9.8-6.8c6.8-4.7 11-16 11-29.5 0-10.7-3.7-21-9.3-25.8h8.9v-2.9zm-2.3 34.9c0 9.5-4.6 22.8-12.2 22.8-8.4 0-15.8-15.5-15.8-33.2 0-13 5-22.5 11.9-22.5 7.7 0 16.1 13.2 16.1 32.9z"
  />
</svg>
