<svg
  xmlns="http://www.w3.org/2000/svg"
  viewBox="0 0 893 148"
  style="enable-background: new 0 0 893 148"
  xml:space="preserve"
>
  <path
    d="m216.3 123.3-.1.1v.9l13.5-3.7 16.2 3.7v-.9l-14.6-9.4V29.1l14-5.6v-.9h-16.6l-19.9 93.5-21.6-93.3v-.2h-15.9v.9l13.2 6.4v84l-15.8 9.5v.9l16.6-3.7 15.2 3.7v-.9l-14.4-9.4V33.5l21.3 93.3.1.2h.8l19.8-93.5V114zm77.7-9-12.2 2.9V80.3c0-17.3-4.6-27.2-12.6-27.2-8.4 0-13 9.2-16.1 17.2v.1l.6 1.3.2-.6c3.9-9.9 8.4-14.3 14.4-14.3 6.4 0 10.5 9.3 10.5 23.7v3.7l-25.1 10.5h-.1v.1c-.9 2.3-1.8 7.3-1.8 11.5 0 9.7 3.5 19.4 11.4 19.4 6.5 0 12.8-5.2 15.6-12.9V126l15.2-10.8v-.9zm-28.2 6.4c-5.1 0-12.5-6.4-12.5-17.9 0-.9 0-1.8.1-2.5l25.5-15v25.3c-2.3 5.8-7.8 10.1-13.1 10.1zm57.4-60.1h.9v-7.4h-.2s-.8-.2-1.3-.2c-5.4.3-10.5 10.3-12.5 20.4V54.8h-11.3v2.9h8.3v56.2l-11.2 9.6v1l12.7-3.8 13.6 3.8v-1l-12.1-9.6V78.7c2.3-13.2 5.8-18.1 13.1-18.1zm44.7 50.6-.4-1.2-.3.5c-3.7 7.5-7.8 11-12.6 11-11 0-18.3-15.7-18.3-39.1 0-15.2 6.2-27 14.1-27 9.4 0 12.6 15.7 13.7 25 .3 2.5.3 6 .3 6v.2h2.4V47.2h-1L364 63.5c-1.8-3.7-5.8-10.4-12.2-10.4-10.9 0-18 14.7-18 37.4 0 24.2 9.4 35.3 18.2 35.3 8.1 0 12.1-6.9 15.9-14.6zm44.5-23.5c0-9.1-1.6-17.6-4.6-23.9-3.3-7-7.9-10.7-13.4-10.7-11.5 0-19.2 15-19.2 37.4 0 20.8 7.7 35.3 18.7 35.3 10.2 0 18.5-17.1 18.5-38.1zm-2.7 7.5c0 13.1-5 26.7-13.3 26.7-11 0-18.9-16.2-18.9-38.6 0-18.4 7.2-26.8 13.9-26.8 11.1-.1 18.3 15.2 18.3 38.7zm84.1 1.2c0-14.9-7.6-23.4-15.9-24.8 7.2-1.8 12-11.3 12-24.4 0-16.1-7.2-24.7-20.7-24.7H444v.9l13.1 6.6v86.5l-14.4 6.7v.9H469c17.4.2 24.8-8.2 24.8-27.7zm-33.5-25.7V24.6h9.2c10.5 0 16.8 8.5 16.8 22.6 0 21.7-10.6 23.5-20.6 23.5h-5.4zm30 25.7c0 17.7-6.5 26-20.6 26h-9.4V72.8h7.3c11.3 0 22.7 7.3 22.7 23.6zm36.8 16.5V126l15.2-10.8v-.9l-12.2 2.9V80.3c0-17.3-4.6-27.2-12.6-27.2-8.4 0-13 9.2-16.1 17.2v.1l.6 1.3.2-.6c3.9-9.9 8.4-14.3 14.4-14.3 6.4 0 10.5 9.3 10.5 23.7v3.7L502 94.7h-.1v.1c-.9 2.3-1.8 7.3-1.8 11.5 0 9.7 3.5 19.4 11.4 19.4 6.5.1 12.7-5.1 15.6-12.8zm-13.1 7.8c-5.1 0-12.5-6.4-12.5-17.9 0-.9 0-1.8.1-2.5l25.5-15v25.3c-2.3 5.8-7.8 10.1-13.1 10.1zm44.3-47.3V54.8H547v2.9h8.3v56.2l-11.1 9.5-.1.1v1l12.7-3.8 13.6 3.8v-1l-12.1-9.6V78.7c2.3-13.1 5.8-18 13.1-18h.9v-7.4h-.2s-.8-.2-1.3-.2c-5.5.3-10.5 10.3-12.5 20.3zm23.8 17.1c0 20.8 7.7 35.3 18.7 35.3 10.2 0 18.4-17.1 18.4-38.1 0-9.1-1.6-17.6-4.6-23.9-3.3-7-7.9-10.7-13.4-10.7-11.4 0-19.1 15-19.1 37.4zm16.2-34.1c11.1 0 18.3 15.2 18.3 38.8 0 13.1-5 26.7-13.3 26.7-11 0-18.9-16.2-18.9-38.6.1-18.5 7.3-26.9 13.9-26.9zm46 69.4c4.5 0 7.2-4 8.9-7l.1-.1-.4-1.1-.3.5c-1.2 2-3.4 4.4-7.7 4.4-4.5 0-7.2-7.5-7.2-19.9V59.3l11.4 1.3v-5.9l-11.4 1V38.1h-3v18l-9.7.8v1l9.7 1.2v42.7c0 15.9 3.2 24 9.6 24zm33 0c4.5 0 7.2-4 8.9-7l.1-.1-.4-1.1-.3.5c-1.2 2-3.4 4.4-7.7 4.4-4.5 0-7.2-7.5-7.2-19.9V59.3l11.4 1.3v-5.9l-11.4 1V38.1h-3v18l-9.7.8v1l9.7 1.2v42.7c-.1 15.9 3.2 24 9.6 24zm48.1-1.5v-.9l-16-9.6v-59h-14.5v2.8h11.5v56.2l-15.4 9.5-.1.1v.9l17-3.7 17.2 3.7zm-14.8-98.6c0-2.8-1.1-4.6-2.8-4.6-1.6 0-2.8 2-2.8 4.6 0 2.6 1.2 4.6 2.8 4.6 1.6 0 2.8-1.8 2.8-4.6z"
    style="fill: #fff"
  />
</svg>
