<svg
  xmlns="http://www.w3.org/2000/svg"
  viewBox="0 0 893 148"
  style="enable-background: new 0 0 893 148"
  xml:space="preserve"
>
  <path
    d="m198 33.1 14-5.6v-.9h-16.6l-20 93.5-21.5-93.3-.1-.2H138v.9l13.2 6.4v84l-15.8 9.5v.9l16.6-3.7 15.2 3.7v-.9l-14.5-9.4V37.5l21.4 93.3.1.2h.8l19.7-93.5V118l-11.7 9.3-.1.1v.9l13.5-3.7 16.2 3.7v-.9L198 118zm54.4 81.3c-4 7.7-8.1 11.3-12.8 11.3-10.5 0-18.1-16.6-18.1-39.5v-.6l30.3 2h.3v-.3c.4-11.3-2.5-21.7-7.6-26.9-2.2-2.3-4.7-3.5-7.2-3.5-11 0-18.1 14.7-18.1 37.4 0 24.2 9.4 35.3 18.2 35.3 8 0 12-6.9 15.8-14.6v-.1l-.4-1.1-.4.6zm-31-29.7c.5-14 5.8-24.1 12.8-24.1 6.3 0 11.7 7.1 13.9 18.2.2.6.3 2.5.3 3.6l-27 2.3zm54.8-58.1h-14.6v2.7h11.6v88.5l-15.4 9.5-.1.1v.9l17-3.7 17.2 3.7h.3v-.9l-16-9.6zm51.2 57.7c0-17.3-4.6-27.2-12.6-27.2-8.4 0-13 9.2-16.1 17.2v.1l.6 1.3.2-.6c3.9-9.9 8.4-14.3 14.4-14.3 6.4 0 10.5 9.3 10.5 23.7v3.7l-25.1 10.5h-.1v.1c-.9 2.3-1.8 7.3-1.8 11.5 0 9.7 3.5 19.4 11.4 19.4 6.5 0 12.8-5.2 15.6-12.9V130l15.1-10.7.1-.1v-.9l-12.2 2.9V84.3zm-16.1 40.4c-5.1 0-12.5-6.4-12.5-17.9 0-.9 0-1.8.1-2.5l25.5-15v25.3c-2.3 5.8-7.8 10.1-13.1 10.1zm73.4-42c0-15.6-5.2-25.7-13.3-25.7-6.5 0-11.3 6-13.8 16.9V58.8H344v2.9h10.6v56.2l-13.1 9.5-.1.1v1l14.7-3.8 12.4 3.8v-1l-10.9-9.6V77.4c3.6-13.1 7.7-15.8 13.1-15.8 6.7 0 10.9 9.6 10.9 25.2v31l-10.3 9.6v1l11.8-3.8 15 3.7.3.1v-1l-13.8-9.6V82.7zm34.2-23.9h-14.5v2.8h11.5v56.2l-15.4 9.5-.1.1v.9l17-3.7 17.3 3.7h.3v-.9l-16.1-9.6zm-1.6-24.5c1.7 0 2.8-1.9 2.8-4.6 0-2.8-1.1-4.6-2.8-4.6-1.6 0-2.8 2-2.8 4.6 0 2.6 1.3 4.6 2.8 4.6zm56.6 80.1c-4 7.7-8.1 11.3-12.8 11.3-10.5 0-18.1-16.6-18.1-39.5v-.6l30.3 2h.3v-.3c.4-11.3-2.5-21.7-7.6-26.9-2.2-2.3-4.7-3.5-7.2-3.5-11 0-18.1 14.7-18.1 37.4 0 24.2 9.4 35.3 18.2 35.3 8 0 12-6.9 15.8-14.6v-.1l-.4-1.1-.4.6zM443 84.7c.5-14 5.8-24.1 12.8-24.1 6.3 0 11.7 7.1 13.9 18.2.2.6.3 2.5.3 3.6l-27 2.3zm105.4-48.2 12.9-8.9.1-.1v-1l-12.1 3.8-9.9-3.8v1l7.7 8.8L523 84.9v-48l14.1-9.3.1-.1v-1l-15.1 3.8-13.3-3.8v1l11.1 9.4V118l-11.7 9.4v.9l13.5-3.7 19.7 3.7v-.9l-18.4-9.5V87.8l5.7-11.4 31.9 58 .2.4.6-1-29.6-63.7zm42.3 20.6c-5.4.3-10.5 10.3-12.5 20.4V58.8h-11.3v2.9h8.3v56.2l-11.1 9.5-.1.1v1l12.7-3.8 13.6 3.8v-1l-12.1-9.6V82.7c2.3-13.1 5.8-18 13.1-18h.9v-7.4h-.2c0-.1-.8-.2-1.3-.2zm44.6 57.3c-4 7.7-8.1 11.3-12.8 11.3-10.5 0-18.1-16.6-18.1-39.5v-.6l30.3 2h.3v-.3c.4-11.3-2.5-21.7-7.6-26.9-2.2-2.3-4.7-3.5-7.2-3.5-11 0-18.1 14.7-18.1 37.4 0 24.2 9.4 35.3 18.2 35.3 8 0 12-6.9 15.8-14.6v-.1l-.4-1.1-.4.6zm-30.9-29.7c.5-14 5.8-24.1 12.8-24.1 6.3 0 11.7 7.1 13.9 18.2.2.6.3 2.5.3 3.6l-27 2.3zm72.4-25.9h-10.4v2.9h7.4v47.9c-3.6 13.1-7.7 15.8-13.1 15.8-5.9 0-9.7-9-9.7-22.8V58.8h-10.2v2.9h7.2v42.5c0 15.8 4.6 25.7 12 25.7 6.5 0 11.3-6 13.8-16.9v15.5l13.5-8.7.1-.1v-.9l-10.6 1.9V58.8zm42.3 63.2c-1.2 2-3.4 4.4-7.7 4.4-4.5 0-7.2-7.5-7.2-19.9V63.3l11.4 1.3v-5.9l-11.4 1V42.1h-3v18l-9.7.8v1l9.7 1.2v42.7c0 15.9 3.3 24 9.7 24 4.5 0 7.2-4 8.9-7l.1-.1-.4-1.1-.4.4zm34.4 1.4h-24.9l28.7-64.6h-29.2v35.8h.8l2.8-30.8h22.1l-28.4 63.6v1H757V90.7h-.8z"
    style="fill: #fff"
  />
</svg>
