<svg
  version="1.1"
  id="Layer_1"
  xmlns="http://www.w3.org/2000/svg"
  x="0"
  y="0"
  viewBox="0 0 893 148"
  style="enable-background: new 0 0 893 148"
  xml:space="preserve"
>
  <style>
    .st0 {
      fill: #fff;
    }
  </style>
  <path
    class="st0"
    d="M136.8 98.9c4.1 6.2 9.5 12.3 17.8 12.3 9.6 0 19.8-7.1 19.8-27 0-15.7-10.5-23.3-17.5-28.3-.5-.4-1-.7-1.4-1l-.6-.5c-6.9-5-16.3-11.8-16.3-24.3 0-14.1 5-21.3 14.7-21.3 7.8 0 14 11.4 16.2 29.7.4 2.7.9 8.5.9 8.6v.2h1.9V6.6h-1l-1.5 15.9c-3.5-7.9-9.6-15.9-16.6-15.9-11.1 0-17.5 9-17.5 24.8 0 15 9.6 22.2 16.6 27.5l.9.6c.4.3.9.7 1.4 1 6.6 4.9 16.7 12.3 16.7 25.2 0 14.8-5.7 23.3-15.5 23.3-10.5 0-18.4-14-19.3-33.9-.2-3.7-.3-6.2-.3-7.2v-.2h-1.9v43.6h.9l1.6-12.4zM209.3 111.5l15.1-10.7.1-.1v-.9l-12.2 2.9V65.8c0-17.3-4.6-27.2-12.6-27.2-8.4 0-13 9.2-16.1 17.2v.1l.6 1.3.2-.6c3.9-9.9 8.4-14.3 14.4-14.3 6.4 0 10.5 9.3 10.5 23.7v3.7l-25.1 10.5h-.1v.1c-.9 2.3-1.8 7.3-1.8 11.5 0 9.7 3.5 19.4 11.4 19.4 6.5 0 12.8-5.2 15.6-12.9v13.2zm-13-5.3c-5.1 0-12.5-6.4-12.5-17.9 0-.9 0-1.8.1-2.5l25.5-15V96c-2.3 5.9-7.8 10.2-13.1 10.2zM253.5 108.9l-10.9-9.6V58.9c3.6-13.1 7.7-15.8 13.1-15.8 6.7 0 10.9 9.6 10.9 25.2v31l-10.3 9.6v1l11.8-3.8 15 3.7.3.1v-1l-13.8-9.6v-35c0-15.6-5.2-25.7-13.3-25.7-6.5 0-11.3 6-13.8 16.9V40.3H229v2.9h10.6v56.2l-13.1 9.5-.1.1v1l14.7-3.8 12.4 3.8v-1.1zM313.8 104.1l-.4-1.1-.3.5c-1.2 2-3.4 4.4-7.7 4.4-4.5 0-7.2-7.5-7.2-19.9V44.8l11.4 1.3v-5.9l-11.4 1V23.6h-3v18l-9.7.8v1l9.7 1.2v42.7c0 15.9 3.3 24 9.7 24 4.5 0 7.2-4 8.9-7v-.2zM352.7 109.8h.3v-.9l-16.1-9.6v-59h-14.5v2.8h11.5v56.2l-15.4 9.5-.1.1v.9l17-3.7zM332.5 11.2c0 2.6 1.2 4.6 2.8 4.6 1.7 0 2.8-1.9 2.8-4.6 0-2.8-1.1-4.6-2.8-4.6-1.6 0-2.8 2-2.8 4.6zM400.2 100.7v-.9l-12.2 2.9V65.8c0-17.3-4.6-27.2-12.6-27.2-8.4 0-13 9.2-16.1 17.2v.1l.6 1.3.2-.6c3.9-9.9 8.4-14.3 14.4-14.3 6.4 0 10.5 9.3 10.5 23.7v3.7l-25.1 10.5h-.1v.1c-.9 2.3-1.8 7.3-1.8 11.5 0 9.7 3.5 19.4 11.4 19.4 6.5 0 12.8-5.2 15.6-12.9v13.1l15.2-10.7zm-28.2 5.5c-5.1 0-12.5-6.4-12.5-17.9 0-.9 0-1.8.1-2.5l25.5-15V96c-2.3 5.9-7.8 10.2-13.1 10.2zM423.6 139.7c-5.4 0-10.5-2.2-15.4-6.8l-.4-.4v1.5l.1.1c.5.4 1 .9 1.5 1.3 3.5 3.2 7.2 6.5 15.2 6.5 9.3 0 16.1-8.7 16.1-20.6 0-10.4-6.6-16.1-12.9-16.1h-10.3l9.8-6.8c6.8-4.7 11-16 11-29.5 0-10.7-3.7-21-9.3-25.8h8.9v-2.9H422c-10.4 0-17.4 12.4-17.4 30.9 0 18.1 8.8 28.9 17.4 28.9h.5l-13.6 8.8-.1.1v.9h17.7c6.6 0 10.7 5 10.7 13 0 8.7-6.6 16.9-13.6 16.9zm-.2-41.7c-8.4 0-15.8-15.5-15.8-33.2 0-13 5-22.5 11.9-22.5 7.8 0 16.1 13.2 16.1 32.9.1 9.5-4.6 22.8-12.2 22.8zM467.7 111.3c10.2 0 18.4-17.1 18.4-38.1 0-9.1-1.6-17.6-4.6-23.9-3.3-7-7.9-10.7-13.4-10.7-11.5 0-19.2 15-19.2 37.4.1 20.8 7.8 35.3 18.8 35.3zm-16.4-42.5c0-18.4 7.2-26.8 13.9-26.8 11.1 0 18.3 15.2 18.3 38.8 0 13.1-5 26.7-13.3 26.7-10.9-.1-18.9-16.3-18.9-38.7zM523.5 98.9c4.1 6.2 9.5 12.3 17.8 12.3 9.6 0 19.8-7.1 19.8-27 0-15.7-10.5-23.3-17.5-28.3-.5-.4-1-.7-1.4-1l-.6-.5c-6.9-5-16.3-11.8-16.3-24.3 0-14.1 5-21.3 14.7-21.3 7.8 0 14 11.4 16.2 29.7.4 2.7.9 8.5.9 8.6v.2h1.9V6.6h-1l-1.5 15.9C553.1 14.7 547 6.6 540 6.6c-11.1 0-17.5 9-17.5 24.8 0 15 9.6 22.2 16.6 27.5l.9.6c.4.3.9.7 1.4 1 6.6 5 16.6 12.4 16.6 25.3 0 14.8-5.7 23.3-15.5 23.3-10.5 0-18.4-14-19.3-33.9-.2-3.7-.3-6.2-.3-7.2v-.2H521v43.6h.9l1.6-12.5zM581.1 11.2c0 2.6 1.2 4.6 2.8 4.6 1.7 0 2.8-1.9 2.8-4.6 0-2.8-1.1-4.6-2.8-4.6-1.6 0-2.8 2-2.8 4.6zM601.5 109.8v-.9l-16-9.6v-59H571v2.8h11.5v56.2l-15.4 9.5-.1.1v.9l17-3.7 17.2 3.7zM625.3 111.3c8 0 12-6.9 15.8-14.6v-.1l-.4-1.1-.3.5c-4 7.7-8.1 11.3-12.8 11.3-10.5 0-18.1-16.6-18.1-39.5v-.6l30.3 2h.3v-.3c.4-11.3-2.5-21.7-7.6-26.9-2.2-2.3-4.7-3.5-7.2-3.5-11 0-18.1 14.7-18.1 37.4 0 24.3 9.4 35.4 18.1 35.4zm-15.8-45.1c.5-14 5.8-24.1 12.8-24.1 6.3 0 11.7 7.1 13.9 18.2.2.6.3 2.5.3 3.6l-27 2.3zM673.1 46.1h.9v-7.4h-.2s-.8-.2-1.3-.2c-5.4.3-10.5 10.3-12.5 20.4V40.3h-11.3v2.9h8.3v56.2l-11.2 9.6v1l12.7-3.8 13.6 3.8v-1L660 99.3V64.1c2.3-13.1 5.8-18 13.1-18zM708.5 46.1h.9v-7.4h-.2s-.8-.2-1.3-.2c-5.4.3-10.5 10.3-12.5 20.4V40.3h-11.3v2.9h8.3v56.2l-11.2 9.6v1l12.7-3.8 13.6 3.8v-1l-12.1-9.6V64.2c2.3-13.2 5.8-18.1 13.1-18.1zM760.8 100.8l.1-.1v-.9l-12.2 2.9V65.8c0-17.3-4.6-27.2-12.6-27.2-8.4 0-13 9.2-16.1 17.2v.1l.6 1.3.2-.6c3.9-9.9 8.4-14.3 14.4-14.3 6.4 0 10.5 9.3 10.5 23.7v3.7l-25.1 10.5h-.1v.1c-.9 2.3-1.8 7.3-1.8 11.5 0 9.7 3.5 19.4 11.4 19.4 6.5 0 12.8-5.2 15.6-12.9v13.1l15.1-10.6zm-28.2 5.4c-5.1 0-12.5-6.4-12.5-17.9 0-.9 0-1.8.1-2.5l25.5-15V96c-2.2 5.9-7.7 10.2-13.1 10.2z"
  />
</svg>
